<svg width="94" height="86" viewBox="0 0 94 86" fill="none" xmlns="http://www.w3.org/2000/svg">
<path fill-rule="evenodd" clip-rule="evenodd" d="M17.0058 42.5267V51.9924V53.1756L17.6368 53.6658V58.1756V58.4198V62.9084V63.1737L17.6369 67.7176L17.6368 67.9276V72.6815L30.3846 85.0604V79.6875V79.4733V74.3146L30.3846 74.0534L30.3846 68.9418V68.7099V63.5689L31.3522 64.3206L32.5723 64.086V69.2443V69.5048V74.5878V74.9236V80.084V80.3425V85.7613L42.4591 83.8269V78.4163V78.1756V73.0057L42.4591 72.7557L42.4591 67.5952V67.3359V62.1846L43.4373 61.9965L44.5207 61.7882V66.9542V67.197V72.2977V72.6058V77.7176V78.0147V83.4235L64.7151 79.4723V74.0804V73.8244V68.6884V68.4046L64.7151 63.2965V63.0611L64.7151 57.9045L65.1673 57.8176L66.3979 57.5809V62.7557V62.9714V68.0992V68.362V73.4428V73.7525V79.1431L76.0324 77.258V71.8755V71.6107V66.4931V66.2672V61.1106V60.8473V55.7281L77 55.542L75.5275 54.4748L61.9383 44.626L73.0873 33.3282L72.9191 32.4886L72.0355 28.5573C72.0355 28.5573 72.0128 28.4763 71.9397 28.3414C71.6691 27.8415 70.7084 26.6012 67.6601 26C67.4897 26 67.1823 26.0337 66.7766 26.0922C64.0755 26.482 57.0159 27.9742 57.0159 27.9742L61.2527 30.4022L61.5176 30.554L62.4795 34.3993L62.6956 35.2635L61.9173 35.4084L61.0548 35.569L60.8294 34.7014L59.8348 30.8735L59.5603 30.7196L55.2489 28.302L43.9948 30.3893L32.8247 32.4611L38.3441 34.7786L38.6306 34.8989L39.9745 38.5185L40.3135 39.4316L39.5772 39.5687L38.7989 39.7023L38.4601 38.7957L37.116 35.1985L36.7795 35.0579L31.2681 32.7557L22.433 34.3896L20.3294 34.7786C16.7113 35.3512 17.0058 42.5267 17.0058 42.5267Z" fill="#564501"/>
<path d="M44.5207 61.7882L43.4373 61.9965L42.4591 62.1846V67.3359V67.5952L42.4591 72.7557L42.4591 73.0057V78.1756V78.4163V83.8269L44.5207 83.4235V78.0147V77.7176V72.6058V72.2977V67.197V66.9542V61.7882Z" fill="#564501"/>
<path d="M31.3522 64.3206V86L32.5723 85.7613V80.3425V80.084V74.9236V74.5878V69.5048V69.2443V64.086L31.3522 64.3206Z" fill="#564501"/>
<path d="M31.3522 86V64.3206L30.3846 63.5689V68.7099V68.9418L30.3846 74.0534L30.3846 74.3146V79.4733V79.6875V85.0604L31.3522 86Z" fill="#564501"/>
<path d="M17.0058 53.1756V72.0687L17.6368 72.6815V67.9276L17.6369 67.7176L17.6368 63.1737V62.9084V58.4198V58.1756V53.6658L17.0058 53.1756Z" fill="#564501"/>
<path d="M64.7151 79.4723L66.3979 79.1431V73.7525V73.4428V68.362V68.0992V62.9714L64.7151 63.2965L64.7151 68.4046V68.6884V73.8244V74.0804V79.4723Z" fill="#564501"/>
<path d="M66.3979 57.5809L65.1673 57.8176L64.7151 57.9045L64.7151 63.0611V63.2965L66.3979 62.9714V62.7557V57.5809Z" fill="#564501"/>
<path d="M77 77.0687V55.542L76.0324 55.7281V60.8473V61.1106V66.2672V66.4931V71.6107V71.8755V77.258L77 77.0687Z" fill="#564501"/>
<path d="M61.5176 30.554L60.6762 30.7137L59.8348 30.8735L60.8294 34.7014L62.4795 34.3993L61.5176 30.554Z" fill="#564501"/>
<path d="M57.0159 27.9742L55.8274 28.1947L55.2489 28.302L59.5603 30.7196L59.8348 30.8735L60.6762 30.7137L61.5176 30.554L61.2527 30.4022L57.0159 27.9742Z" fill="#564501"/>
<path d="M32.8247 32.4611L32.1621 32.584L31.2681 32.7557L36.7795 35.0579L37.116 35.1985L37.9575 35.0267L38.6306 34.8989L38.3441 34.7786L32.8247 32.4611Z" fill="#564501"/>
<path d="M38.6306 34.8989L37.9575 35.0267L37.116 35.1985L38.4601 38.7957L39.9745 38.5185L38.6306 34.8989Z" fill="#564501"/>
<path d="M39.5772 39.5687L40.3135 39.4316L39.9745 38.5185L38.4601 38.7957L38.7989 39.7023L39.5772 39.5687Z" fill="#564501"/>
<path d="M61.9173 35.4084L62.6956 35.2635L62.4795 34.3993L60.8294 34.7014L61.0548 35.569L61.9173 35.4084Z" fill="#564501"/>
<path d="M44.5207 61.7882L43.4373 61.9965L42.4591 62.1846V67.3359V67.5952L42.4591 72.7557L42.4591 73.0057V78.1756V78.4163V83.8269L44.5207 83.4235V78.0147V77.7176V72.6058V72.2977V67.197V66.9542V61.7882Z" fill="#917401"/>
<path d="M31.3522 64.3206V86L32.5723 85.7613V80.3425V80.084V74.9236V74.5878V69.5048V69.2443V64.086L31.3522 64.3206Z" fill="#917401"/>
<path d="M31.3522 86V64.3206L30.3846 63.5689V68.7099V68.9418L30.3846 74.0534L30.3846 74.3146V79.4733V79.6875V85.0604L31.3522 86Z" fill="#917401"/>
<path d="M17.0058 53.1756V72.0687L17.6368 72.6815V67.9276L17.6369 67.7176L17.6368 63.1737V62.9084V58.4198V58.1756V53.6658L17.0058 53.1756Z" fill="#917401"/>
<path d="M64.7151 79.4723L66.3979 79.1431V73.7525V73.4428V68.362V68.0992V62.9714L64.7151 63.2965L64.7151 68.4046V68.6884V73.8244V74.0804V79.4723Z" fill="#917401"/>
<path d="M66.3979 57.5809L65.1673 57.8176L64.7151 57.9045L64.7151 63.0611V63.2965L66.3979 62.9714V62.7557V57.5809Z" fill="#917401"/>
<path d="M77 77.0687V55.542L76.0324 55.7281V60.8473V61.1106V66.2672V66.4931V71.6107V71.8755V77.258L77 77.0687Z" fill="#917401"/>
<path d="M61.5176 30.554L60.6762 30.7137L59.8348 30.8735L60.8294 34.7014L62.4795 34.3993L61.5176 30.554Z" fill="#917401"/>
<path d="M57.0159 27.9742L55.8274 28.1947L55.2489 28.302L59.5603 30.7196L59.8348 30.8735L60.6762 30.7137L61.5176 30.554L61.2527 30.4022L57.0159 27.9742Z" fill="#917401"/>
<path d="M32.8247 32.4611L32.1621 32.584L31.2681 32.7557L36.7795 35.0579L37.116 35.1985L37.9575 35.0267L38.6306 34.8989L38.3441 34.7786L32.8247 32.4611Z" fill="#917401"/>
<path d="M38.6306 34.8989L37.9575 35.0267L37.116 35.1985L38.4601 38.7957L39.9745 38.5185L38.6306 34.8989Z" fill="#917401"/>
<path d="M39.5772 39.5687L40.3135 39.4316L39.9745 38.5185L38.4601 38.7957L38.7989 39.7023L39.5772 39.5687Z" fill="#917401"/>
<path d="M61.9173 35.4084L62.6956 35.2635L62.4795 34.3993L60.8294 34.7014L61.0548 35.569L61.9173 35.4084Z" fill="#917401"/>
<path fill-rule="evenodd" clip-rule="evenodd" d="M17.0058 51.9924V42.5267C17.0058 42.5267 16.7113 35.3512 20.3294 34.7786L22.433 34.3896L31.2681 32.7557L36.7795 35.0579L27.341 36.7912L26.4535 36.9542C26.5532 37.0959 26.5981 37.1832 26.5981 37.1832L27.5237 37.0085L37.116 35.1985L38.4601 38.7957L38.7989 39.7023L29.2907 41.4834L28.4072 41.6489L17.0058 53.1756V51.9924ZM76.0324 60.8473V55.7281L77 55.542L75.5275 54.4748L61.9383 44.626L61.0548 44.7925L74.5634 54.6555L31.3522 62.7557L18.6045 52.7939L17.0058 53.1756L17.6368 53.6658V58.1756L30.3846 68.7099V63.5689L31.3522 64.3206L32.5723 64.086V69.2443L42.4591 67.3359V62.1846L43.4373 61.9965L44.5207 61.7882V66.9542L64.7151 63.0611L64.7151 57.9045L65.1673 57.8176L66.3979 57.5809V62.7557L76.0324 60.8473ZM76.0324 61.1106L66.3979 62.9714V68.0992L76.0324 66.2672V61.1106ZM66.3979 68.362L76.0324 66.4931V71.6107L66.3979 73.4428V68.362ZM76.0324 71.8755L66.3979 73.7525V79.1431L76.0324 77.258V71.8755ZM44.5207 72.2977V67.197L64.7151 63.2965L64.7151 68.4046L44.5207 72.2977ZM64.7151 68.6884L44.5207 72.6058V77.7176L64.7151 73.8244V68.6884ZM44.5207 78.0147L64.7151 74.0804V79.4723L44.5207 83.4235V78.0147ZM42.4591 67.5952L32.5723 69.5048V74.5878L42.4591 72.7557L42.4591 67.5952ZM32.5723 74.9236L42.4591 73.0057V78.1756L32.5723 80.084V74.9236ZM42.4591 78.4163L32.5723 80.3425V85.7613L42.4591 83.8269V78.4163ZM17.6368 58.4198L30.3846 68.9418L30.3846 74.0534L17.6368 62.9084V58.4198ZM30.3846 74.3146L17.6368 63.1737L17.6369 67.7176L30.3846 79.4733V74.3146ZM17.6368 72.6815V67.9276L30.3846 79.6875V85.0604L17.6368 72.6815ZM50.7473 37.4885L40.3135 39.4316L39.9745 38.5185L38.6306 34.8989L49.3168 32.8702L59.8348 30.8735L60.8294 34.7014L61.0548 35.569L50.7473 37.4885ZM73.0873 33.3282L62.6956 35.2635L62.4795 34.3993L61.5176 30.554L72.0355 28.5573L72.9191 32.4886L73.0873 33.3282ZM71.9397 28.3414C71.6691 27.8415 70.7084 26.6012 67.6601 26C67.4897 26 67.1823 26.0337 66.7766 26.0922C64.0755 26.482 57.0159 27.9742 57.0159 27.9742L61.2527 30.4022L70.9838 28.5258L71.9397 28.3414ZM59.5603 30.7196L38.3441 34.7786L32.8247 32.4611L43.9948 30.3893L55.2489 28.302L59.5603 30.7196Z" fill="#917401"/>
<path d="M44.5207 61.7882L43.4373 61.9965L42.4591 62.1846V67.3359V67.5952L42.4591 72.7557L42.4591 73.0057V78.1756V78.4163V83.8269L44.5207 83.4235V78.0147V77.7176V72.6058V72.2977V67.197V66.9542V61.7882Z" fill="#FDCB02"/>
<path d="M31.3522 64.3206V86L32.5723 85.7613V80.3425V80.084V74.9236V74.5878V69.5048V69.2443V64.086L31.3522 64.3206Z" fill="#FDCB02"/>
<path d="M31.3522 86V64.3206L30.3846 63.5689V68.7099V68.9418L30.3846 74.0534L30.3846 74.3146V79.4733V79.6875V85.0604L31.3522 86Z" fill="#FDCB02"/>
<path d="M17.0058 53.1756V72.0687L17.6368 72.6815V67.9276L17.6369 67.7176L17.6368 63.1737V62.9084V58.4198V58.1756V53.6658L17.0058 53.1756Z" fill="#FDCB02"/>
<path d="M64.7151 79.4723L66.3979 79.1431V73.7525V73.4428V68.362V68.0992V62.9714L64.7151 63.2965L64.7151 68.4046V68.6884V73.8244V74.0804V79.4723Z" fill="#FDCB02"/>
<path d="M66.3979 57.5809L65.1673 57.8176L64.7151 57.9045L64.7151 63.0611V63.2965L66.3979 62.9714V62.7557V57.5809Z" fill="#FDCB02"/>
<path d="M77 77.0687V55.542L76.0324 55.7281V60.8473V61.1106V66.2672V66.4931V71.6107V71.8755V77.258L77 77.0687Z" fill="#FDCB02"/>
<path d="M61.5176 30.554L60.6762 30.7137L59.8348 30.8735L60.8294 34.7014L62.4795 34.3993L61.5176 30.554Z" fill="#FDCB02"/>
<path d="M57.0159 27.9742L55.8274 28.1947L55.2489 28.302L59.5603 30.7196L59.8348 30.8735L60.6762 30.7137L61.5176 30.554L61.2527 30.4022L57.0159 27.9742Z" fill="#FDCB02"/>
<path d="M32.8247 32.4611L32.1621 32.584L31.2681 32.7557L36.7795 35.0579L37.116 35.1985L37.9575 35.0267L38.6306 34.8989L38.3441 34.7786L32.8247 32.4611Z" fill="#FDCB02"/>
<path d="M38.6306 34.8989L37.9575 35.0267L37.116 35.1985L38.4601 38.7957L39.9745 38.5185L38.6306 34.8989Z" fill="#FDCB02"/>
<path d="M39.5772 39.5687L40.3135 39.4316L39.9745 38.5185L38.4601 38.7957L38.7989 39.7023L39.5772 39.5687Z" fill="#FDCB02"/>
<path d="M61.9173 35.4084L62.6956 35.2635L62.4795 34.3993L60.8294 34.7014L61.0548 35.569L61.9173 35.4084Z" fill="#FDCB02"/>
<path fill-rule="evenodd" clip-rule="evenodd" d="M17.0058 51.9924V53.1756L17.6368 53.6658L30.3846 63.5689L31.3522 64.3206L32.5723 64.086L42.4591 62.1846L43.4373 61.9965L44.5207 61.7882L54.3023 59.907L64.7151 57.9045L65.1673 57.8176L66.3979 57.5809L76.0324 55.7281L77 55.542L75.5275 54.4748L61.9383 44.626L61.0548 44.7925L74.5634 54.6555L31.3522 62.7557L18.6045 52.7939L17.0058 53.1756L28.4072 41.6489L29.2907 41.4834L38.7989 39.7023L38.4601 38.7957L28.919 40.542L27.5237 37.0085L26.5981 37.1832C26.5981 37.1832 26.5532 37.0959 26.4535 36.9542L27.341 36.7912L25.7988 35.1985L24.1159 34.5496L22.433 34.3896L20.3294 34.7786C24.288 34.4006 25.9824 36.2846 26.4535 36.9542L26.5981 37.1832L28.0516 40.771L17.0058 51.9924ZM72.9191 32.4886L73.0873 33.3282L72.0355 33.5241L62.6956 35.2635L62.4795 34.3993L71.8585 32.6827L72.9191 32.4886ZM60.8294 34.7014L61.0548 35.569L50.7473 37.4885L40.3135 39.4316L39.9745 38.5185L60.8294 34.7014ZM69.5112 27.1832C70.1678 27.6217 70.9838 28.5258 70.9838 28.5258L71.9397 28.3414C71.6691 27.8415 70.7084 26.6012 67.6601 26C67.4897 26 67.1823 26.0337 66.7766 26.0922C66.7766 26.0922 68.5717 26.5557 69.5112 27.1832Z" fill="#FDCB02"/>
<path d="M27.1976 71.5294L20.8238 65.9589V67.3359L27.1976 72.7557V71.5294Z" fill="#FDCB02"/>
<path d="M59.6665 69.6678L49.5693 71.6265V73.3664L59.6665 71.3244V69.6678Z" fill="#FDCB02"/>
<path d="M72.0355 28.5573L71.0305 28.748L71.8585 32.6827L72.9191 32.4886L72.0355 28.5573Z" fill="#FDCB02"/>
<path fill-rule="evenodd" clip-rule="evenodd" d="M50.6858 80.5845C50.9476 82.7855 53.512 84.1742 56.4135 83.6864C59.315 83.1985 61.4549 81.0188 61.1931 78.8178C61.0515 77.6275 60.9244 76.5591 60.0066 75.9686L59.5325 71.9834C59.5325 71.9834 56.7929 71.4277 54.9912 71.7307C53.1895 72.0336 50.687 73.4706 50.687 73.4706L51.1611 77.4559C50.4171 78.3258 50.5442 79.3942 50.6858 80.5845ZM55.4436 75.6558C54.3415 75.8411 52.6651 76.4325 52.6651 76.4325L52.4072 74.0204C52.4072 74.0204 54.0132 73.2186 55.1598 73.0258C56.3064 72.833 58.0365 73.0739 58.0365 73.0739L58.2944 75.486C58.2944 75.486 56.5458 75.4705 55.4436 75.6558Z" fill="#FDCB02"/>
<path d="M54.9494 78.1182C54.9494 78.1182 55.2847 77.4873 55.6683 77.4228C56.052 77.3583 56.5213 77.8539 56.5213 77.8539L56.4588 79.0134L56.6822 80.8908L55.5032 81.089L55.2799 79.2116L54.9494 78.1182Z" fill="#564501"/>
<path d="M19.5 54C19.5 54 19.5 52.5 20.5 51.5C21.5 50.5 22.4043 51.4584 23.5 51C24.9069 50.4114 25 48.5 26.5 48.5C28 48.5 30 51 30 49C30 47 32 45.5 35 45.5C38 45.5 40 51.5 39.5 48.5C39 45.5 41 42 45.5 42C50 42 49 48 51.5 48C54 48 53 44.5 55 44.5C57 44.5 55.5 49.5 57.5 47.5C59.5 45.5 60 43.5 62.5 43.5C65 43.5 66.236 45.4249 65.7631 48C65.7631 48 67.2958 47.4831 68 48C69.2528 48.9196 69.3453 50.0272 69.2294 50.7466C69.739 50.8499 70.8193 51.414 73 53C78.5 57 69 56 69 56L31.5 63L19.5 54Z" fill="#FFCC00"/>
<mask id="mask0" mask-type="alpha" maskUnits="userSpaceOnUse" x="19" y="42" width="56" height="21">
<path d="M19.5 54C19.5 54 19.5 52.5 20.5 51.5C21.5 50.5 22.4043 51.4584 23.5 51C24.9069 50.4114 25 48.5 26.5 48.5C28 48.5 30 51 30 49C30 47 32 45.5 35 45.5C38 45.5 40 51.5 39.5 48.5C39 45.5 41 42 45.5 42C50 42 49 48 51.5 48C54 48 53 44.5 55 44.5C57 44.5 55.5 49.5 57.5 47.5C59.5 45.5 60 43.5 62.5 43.5C65 43.5 66.236 45.4249 65.7631 48C65.7631 48 67.2958 47.4831 68 48C69.2528 48.9196 69.3453 50.0272 69.2294 50.7466C69.739 50.8499 70.8193 51.414 73 53C78.5 57 69 56 69 56L31.5 63L19.5 54Z" fill="#FFCC00"/>
</mask>
<g mask="url(#mask0)">
<path d="M18 41H37C37 41 32.3889 44.7521 32.5 48C32.6056 51.0856 37.0561 51.4131 37 54.5C36.9556 56.9462 33.8995 57.5554 34 60C34.0935 62.2752 37 65 37 65H18C18 65 22.1346 61.5657 22.5 58.5C22.9446 54.7705 17.1951 53.6687 18 50C18.4526 47.937 21 47.6121 21 45.5C21 43.3879 18 41 18 41Z" fill="#FFE57B"/>
</g>
<path d="M30.372 51.3246L33.2185 49.5112L36.2813 49.0843L35.0191 55.4782L28.6908 53.9201L30.372 51.3246Z" fill="#FD0101"/>
<path d="M33.2185 49.5112L36.2813 49.0843L34.3837 50.2933L35.0191 55.4782L30.5884 52.7112L28.6908 53.9201L30.372 51.3246L30.5884 52.7112L34.3837 50.2933L33.2185 49.5112Z" fill="#FF8B8B"/>
<path d="M60 47.6364L62.5 46L65 47.6364L64.75 49.8182L62.5 52L60.25 49.8182L60 47.6364Z" fill="#284DD1"/>
<path fill-rule="evenodd" clip-rule="evenodd" d="M60 47.6364L60.25 49.8182H61.75L62.5 52L63.25 49.8182H64.75L65 47.6364H63.25L62.5 46L61.75 47.6364H60ZM61.75 47.6364H63.25V49.8182H61.75V47.6364Z" fill="#5C80FF"/>
<path d="M52.9242 49.6892L55.1358 51.7163L55.6756 54.8273L47.9487 57.3374L49.7782 49.4217L52.9242 49.6892Z" fill="#65E959"/>
<path d="M55.1358 51.7163L55.6756 54.8273L54.2012 53.4759L47.9487 57.3374L51.2525 50.7731L49.7782 49.4217L52.9242 49.6892L51.2525 50.7731L54.2012 53.4759L55.1358 51.7163Z" fill="#278C1E"/>
<path d="M6.5 55L6 56.5L5 57L6 57.5L6.5 59L7 57.5L8 57L7 56.5L6.5 55Z" fill="white"/>
<path d="M9.5 52.125L9 51L10.125 51.375L11 47L11.875 51.375L13 51L12.5 52.125L16 53L12.5 53.875L13 55L11.875 54.625L11 59L10.125 54.625L9 55L9.5 53.875L6 53L9.5 52.125Z" fill="white"/>
</svg>
