<svg width="43" height="44" viewBox="0 0 43 44" fill="none" xmlns="http://www.w3.org/2000/svg">
<path d="M19 42.5L4 33.5L3.27586 30L2.44828 26L1.72414 22.5L1 19L16 16L20 1H39C39 1 42.9159 7.64255 42 12C41.0589 16.4773 34.5 21 34.5 21L33.8226 24L32.75 28.75L31.875 32.625L31 36.5L19 42.5Z" fill="#CD7D3B"/>
<path d="M1 19L16 16M1 19L16 22.9474M1 19L1.72414 22.5M19 42.5L4 33.5L3.27586 30M19 42.5L31 36.5L31.875 32.625M19 42.5L19.2162 38.5M34.5 21L20 24M34.5 21L16 16M34.5 21C34.5 21 41.0589 16.4773 42 12C42.9159 7.64255 39 1 39 1M34.5 21L33.8226 24M34.5 21L35.625 16M20 24L16 22.9474M20 24L19.7432 28.75M16 16L20 1M16 16V22.9474M16 16C16 16 18.2312 14.6281 20 12.735M39 1H20M39 1L38.1 5M20 1C20 1 21.0028 2.82557 21.6419 5M22 9.5L36.75 11M22 9.5C21.7046 10.6393 20.914 11.7567 20 12.735M22 9.5C22.3488 8.15509 22.0813 6.49508 21.6419 5M3.27586 30L19.2162 38.5M3.27586 30L2.44828 26M19.2162 38.5L19.4865 33.5M19.2162 38.5L31.875 32.625M19.4865 33.5L2.44828 26M19.4865 33.5L19.7432 28.75M19.4865 33.5L32.75 28.75M2.44828 26L1.72414 22.5M1.72414 22.5L19.7432 28.75M19.7432 28.75L33.8226 24M33.8226 24L32.75 28.75M32.75 28.75L31.875 32.625M36.75 11L35.625 16M36.75 11L38.1 5M35.625 16L20 12.735M21.6419 5H38.1" stroke="black"/>
<path d="M23.5 34V30L28.5 28.5V32L23.5 34Z" fill="#F3EC5A" stroke="black"/>
<circle cx="27.5" cy="34.5" r="2" stroke="black" stroke-width="3"/>
<circle cx="27.5001" cy="34.5001" r="2.22222" stroke="#F3EC5A"/>
<path d="M14.5 31.1539C14.5 31.6542 14.2401 32.2083 13.621 32.6846C13.0002 33.1621 12.0785 33.5 11 33.5C9.92147 33.5 8.99982 33.1621 8.37903 32.6846C7.75987 32.2083 7.5 31.6542 7.5 31.1539C7.5 30.6536 7.75987 30.0995 8.37903 29.6232C8.99982 29.1457 9.92147 28.8077 11 28.8077C12.0785 28.8077 13.0002 29.1457 13.621 29.6232C14.2401 30.0995 14.5 30.6536 14.5 31.1539Z" stroke="black" stroke-width="3"/>
<path d="M14.389 31.1539C14.389 31.7927 14.0536 32.4048 13.4451 32.8729C12.836 33.3414 11.9733 33.6454 11.0001 33.6454C10.0269 33.6454 9.16416 33.3414 8.55509 32.8729C7.94656 32.4048 7.61121 31.7927 7.61121 31.1539C7.61121 30.5151 7.94656 29.9031 8.55509 29.435C9.16416 28.9664 10.0269 28.6625 11.0001 28.6625C11.9733 28.6625 12.836 28.9664 13.4451 29.435C14.0536 29.9031 14.389 30.5151 14.389 31.1539Z" stroke="#F3EC5A"/>
<path d="M9.22753 28.0769C9.22753 28.0769 8.71559 26.5558 9.22753 25.8237C9.99545 24.7254 12.0046 24.7254 12.7725 25.8237C13.2844 26.5558 12.7725 28.0769 12.7725 28.0769" stroke="black" stroke-width="3"/>
<path d="M9.22753 28.0769C9.22753 28.0769 8.71559 26.5558 9.22753 25.8237C9.99545 24.7254 12.0046 24.7254 12.7725 25.8237C13.2844 26.5558 12.7725 28.0769 12.7725 28.0769" stroke="#F3EC5A"/>
<path d="M15 14.3636L19 10L23 14.3636L19 22L15 14.3636Z" fill="#65E959"/>
<path d="M19 10L15 14.3636M19 10L23 14.3636M19 10L20.2 15.4545M19 10L17.8 15.4545M15 14.3636L19 22M15 14.3636L17.8 15.4545M19 22L23 14.3636M19 22V15.4545M23 14.3636L20.2 15.4545M17.8 15.4545H19M20.2 15.4545H19" stroke="black"/>
<path d="M4 19L5.5 19.5L20 23.5L30 21.5L29.5 20.5C29.5 20.5 31 18.5 27.5 17.5C22.3916 16.0404 24.1378 20.1035 20 17C18.78 16.085 17.5249 17.481 16 17.5C14.0475 17.5242 14.4365 14.7495 12.5 15C10.9876 15.1956 11.5218 16.5989 10 16.5C8.42906 16.3978 9.49038 15.007 8 14.5C6.25605 13.9067 4 19 4 19Z" fill="#F3EC5A"/>
<path d="M5.09361 17.6119L5.24629 11.2707L11.5862 11.0705L13.7537 19.7146L5.09361 17.6119Z" fill="#40BDCE"/>
<path d="M5.24629 11.2707L5.09361 17.6119M5.24629 11.2707L11.5862 11.0705M5.24629 11.2707L10.0872 14.1276M5.24629 11.2707L8.13941 16.09M5.09361 17.6119L13.7537 19.7146M5.09361 17.6119L8.13941 16.09M13.7537 19.7146L11.5862 11.0705M13.7537 19.7146L9.1133 15.1088M11.5862 11.0705L10.0872 14.1276M8.13941 16.09L9.1133 15.1088M10.0872 14.1276L9.1133 15.1088" stroke="black"/>
</svg>
