<svg width="120" height="120" viewBox="0 0 120 120" fill="none" xmlns="http://www.w3.org/2000/svg">
<g clip-path="url(#clip0)">
<ellipse cx="59.7525" cy="60.9999" rx="29" ry="20" fill="#65E959"/>
<path d="M59.7525 80.9999C75.7687 80.9999 88.7525 73.0456 88.7525 61.9999H30.7525C30.7525 73.0456 43.7362 80.9999 59.7525 80.9999Z" fill="#278C1E"/>
<path d="M59.7525 59C51.1609 59 37.7525 56 37.7525 56V72.5C37.7525 72.5 51.0814 75.5 59.7525 75.5C68.4235 75.5 81.7525 72.5 81.7525 72.5V56C81.7525 56 68.344 59 59.7525 59Z" fill="#40BDCE"/>
<path d="M39.7525 28C39.7525 28 51.2721 22 59.7525 22C68.2328 22 79.7525 28 79.7525 28L81.7525 56C81.7525 56 67.4709 59 59.7525 59C52.034 59 37.7525 56 37.7525 56L39.7525 28Z" fill="white"/>
<path d="M59.7525 75.5294C51.1609 75.5294 37.7525 72 37.7525 72L38.7525 78.4706C38.7525 78.4706 51.0814 82 59.7525 82C68.4235 82 80.7525 78.4706 80.7525 78.4706L81.7525 72C81.7525 72 68.344 75.5294 59.7525 75.5294Z" fill="#284DD1"/>
<path d="M39.7525 20V28L47.7525 24.5V20C47.7525 20 45.4989 18 43.7525 18C42.006 18 39.7525 20 39.7525 20Z" fill="white"/>
<path d="M79.7525 20V28L71.7525 24.5V20C71.7525 20 74.006 18 75.7525 18C77.4989 18 79.7525 20 79.7525 20Z" fill="white"/>
<path d="M39.7524 87L38.7524 78L49.7524 80V87C49.7524 87 46.7172 88 44.7524 88C42.7876 88 39.7524 87 39.7524 87Z" fill="#284DD1"/>
<path d="M41.7524 95L40.7524 87.5C40.7524 87.5 43.1423 88 44.7524 88C46.3626 88 48.7524 87.5 48.7524 87.5L48.2524 95C48.2524 95 47.2172 96 45.2524 96C43.2876 96 41.7524 95 41.7524 95Z" fill="#FFDCC9"/>
<path d="M44.7524 98C42.7876 98 41.2524 97 41.2524 97C41.2524 97 40.7524 96.4366 40.7524 96C40.7524 95.5634 41.2524 95 41.2524 95C41.2524 95 43.1423 96 44.7524 96C46.3626 96 48.7524 95 48.7524 95C48.7524 95 49.2524 95.5634 49.2524 96C49.2524 96.4366 48.7524 97 48.7524 97C48.7524 97 46.7172 98 44.7524 98Z" fill="white"/>
<path d="M45.2524 102C43.2876 102 41.2524 101 41.2524 101C41.2524 101 40.7524 100.437 40.7524 100C40.7524 99.5634 41.2524 97 41.2524 97C41.2524 97 43.6423 98 45.2524 98C46.8626 98 48.7524 97 48.7524 97C48.7524 97 49.2524 99.5634 49.2524 100C49.2524 100.437 48.7524 101 48.7524 101C48.7524 101 47.2172 102 45.2524 102Z" fill="black"/>
<path d="M79.7524 87L80.7524 78L69.7524 80V87C69.7524 87 72.7876 88 74.7524 88C76.7172 88 79.7524 87 79.7524 87Z" fill="#284DD1"/>
<path d="M77.7524 95L78.7524 87.5C78.7524 87.5 76.3626 88 74.7524 88C73.1423 88 70.7524 87.5 70.7524 87.5L71.2524 95C71.2524 95 72.2876 96 74.2524 96C76.2172 96 77.7524 95 77.7524 95Z" fill="#FFDCC9"/>
<path d="M74.7524 98C76.7172 98 78.2524 97 78.2524 97C78.2524 97 78.7524 96.4366 78.7524 96C78.7524 95.5634 78.2524 95 78.2524 95C78.2524 95 76.3626 96 74.7524 96C73.1423 96 70.7524 95 70.7524 95C70.7524 95 70.2524 95.5634 70.2524 96C70.2524 96.4366 70.7524 97 70.7524 97C70.7524 97 72.7876 98 74.7524 98Z" fill="white"/>
<path d="M74.2524 102C76.2172 102 78.2524 101 78.2524 101C78.2524 101 78.7524 100.437 78.7524 100C78.7524 99.5634 78.2524 97 78.2524 97C78.2524 97 75.8626 98 74.2524 98C72.6423 98 70.7524 97 70.7524 97C70.7524 97 70.2524 99.5634 70.2524 100C70.2524 100.437 70.7524 101 70.7524 101C70.7524 101 72.2876 102 74.2524 102Z" fill="black"/>
<path d="M80.4525 69.5C79.1191 67.5 78.7525 65.5 78.7525 62.9999H80.7525C80.7525 64.5 81.2525 66.9 82.2525 68.4C82.5588 68.8595 84.0525 70.5 84.0525 70.5L82.5525 72C82.5525 72 81.9525 71.5 80.4525 69.5Z" fill="#278C1E"/>
<path d="M80.7525 57.5C79.7525 59 78.7525 61 78.7525 63.5H80.7525C80.7525 62 81.157 60.3855 82.7525 58.5C83.1092 58.0784 83.5525 57.5 83.5525 57.5L82.0525 56C82.0525 56 81.212 56.8107 80.7525 57.5Z" fill="#65E959"/>
<path d="M38.8525 70C40.1858 68 40.5525 66 40.5525 63.4999H38.5525C38.5525 65 38.0525 67.4 37.0525 68.9C36.7461 69.3595 35.2525 71 35.2525 71L36.7525 72.5C36.7525 72.5 37.3525 72 38.8525 70Z" fill="#278C1E"/>
<path d="M38.5525 57.5C39.5525 59 40.5525 61 40.5525 63.5H38.5525C38.5525 62 38.1479 60.3855 36.5525 58.5C36.1957 58.0784 35.7525 57.5 35.7525 57.5L37.2525 56C37.2525 56 38.0929 56.8107 38.5525 57.5Z" fill="#65E959"/>
<path d="M38.5694 69.5C39.9028 67.5 40.2694 65.5 40.2694 62.9999H38.2694C38.2694 64.5 37.7694 66.9 36.7694 68.4C36.4631 68.8595 34.9694 70.5 34.9694 70.5L36.4694 72C36.4694 72 37.0694 71.5 38.5694 69.5Z" fill="#278C1E"/>
<path d="M38.2694 57.5C39.2694 59 40.2694 61 40.2694 63.5H38.2694C38.2694 62 37.8648 60.3855 36.2694 58.5C35.9127 58.0784 35.4694 57.5 35.4694 57.5L36.9694 56C36.9694 56 37.8099 56.8107 38.2694 57.5Z" fill="#65E959"/>
<path d="M81.3643 53.3202L79.8962 62.9372C79.8962 62.9372 80.0341 67.9765 82.0238 67.5221C82.2004 67.612 85.8559 63.777 87.5981 60.8696C88.2912 59.713 89.1844 57.8031 89.1844 57.8031C89.1844 57.8031 88.9629 56.2375 86.1923 54.7132C83.4216 53.1889 81.3643 53.3202 81.3643 53.3202Z" fill="#40BDCE"/>
<path d="M37.4015 53.3202L38.8696 62.9372C38.8696 62.9372 38.7317 67.9765 36.7419 67.5221C36.5654 67.612 32.9098 63.777 31.1676 60.8696C30.4746 59.713 29.5814 57.8031 29.5814 57.8031C29.5814 57.8031 29.8029 56.2375 32.5735 54.7132C35.3441 53.1889 37.4015 53.3202 37.4015 53.3202Z" fill="#40BDCE"/>
<path d="M85.2894 46.5434L82.3714 53.3849C82.3714 53.3849 84.135 53.8152 85.145 54.2831C86.1551 54.751 87.5442 55.7811 87.5442 55.7811L90.4622 48.9396L92.4162 43.9502C92.4162 43.9502 91.5486 41.8325 90.3475 41.3101C89.2583 40.8364 87.3081 41.4191 87.3081 41.4191L85.2894 46.5434Z" fill="#FFDCC9"/>
<path d="M33.4764 46.5434L36.3944 53.3849C36.3944 53.3849 34.6308 53.8152 33.6208 54.2831C32.6107 54.751 31.2216 55.7811 31.2216 55.7811L28.3035 48.9396L26.3496 43.9502C26.3496 43.9502 27.2171 41.8325 28.4183 41.3101C29.5075 40.8364 31.4577 41.4191 31.4577 41.4191L33.4764 46.5434Z" fill="#FFDCC9"/>
<path d="M45.6643 1.90976L50.4754 0.947253L52.8312 5.46437L36.8318 36.5975C36.8318 36.5975 36.9434 38.6231 36.3947 39.7294C35.846 40.8358 35.3362 41.5784 34.1659 41.9727C33.3383 42.2515 31.9298 41.9799 31.9298 41.9799L28.5974 48.6989C28.5974 48.6989 27.5846 48.7547 27.0314 48.4803C26.4782 48.206 25.9098 47.3659 25.9098 47.3659L29.2422 40.6469C29.2422 40.6469 28.1736 39.6899 27.8948 38.8624C27.5005 37.6921 27.7832 36.8368 28.3319 35.7305C28.8806 34.6241 30.5608 33.4872 30.5608 33.4872L45.6643 1.90976Z" fill="white"/>
<circle cx="32.3633" cy="37.7299" r="2.5" transform="rotate(26.3803 32.3633 37.7299)" fill="#284DD1"/>
<ellipse cx="59.7525" cy="40.9999" rx="17" ry="13" fill="#FFDCC9"/>
<ellipse cx="51.2525" cy="39.5" rx="1.5" ry="2.5" fill="black"/>
<ellipse cx="68.2525" cy="39.5" rx="1.5" ry="2.5" fill="black"/>
</g>
<defs>
<clipPath id="clip0">
<rect width="120" height="120" fill="white"/>
</clipPath>
</defs>
</svg>
