<svg width="94" height="86" viewBox="0 0 94 86" fill="none" xmlns="http://www.w3.org/2000/svg">
<g clip-path="url(#clip0)">
<ellipse cx="47" cy="44" rx="29" ry="20" fill="#65E959"/>
<path d="M47 64C63.0163 64 76 56.0457 76 45H18C18 56.0457 30.9837 64 47 64Z" fill="#278C1E"/>
<path d="M47 42C38.4085 42 25 39 25 39V55.5C25 55.5 38.3289 58.5 47 58.5C55.671 58.5 69 55.5 69 55.5V39C69 39 55.5915 42 47 42Z" fill="#40BDCE"/>
<path d="M27 11C27 11 38.5196 5 47 5C55.4804 5 67 11 67 11L69 39C69 39 54.7185 42 47 42C39.2815 42 25 39 25 39L27 11Z" fill="white"/>
<path d="M47 58.5294C38.4085 58.5294 25 55 25 55L26 61.4706C26 61.4706 38.329 65 47 65C55.671 65 68 61.4706 68 61.4706L69 55C69 55 55.5915 58.5294 47 58.5294Z" fill="#284DD1"/>
<path d="M27 3V11L35 7.5V3C35 3 32.7465 1 31 1C29.2535 1 27 3 27 3Z" fill="white"/>
<path d="M67 3V11L59 7.5V3C59 3 61.2535 1 63 1C64.7465 1 67 3 67 3Z" fill="white"/>
<path d="M27 70L26 61L37 63V70C37 70 33.9647 71 32 71C30.0352 71 27 70 27 70Z" fill="#284DD1"/>
<path d="M29 78L28 70.5C28 70.5 30.3898 71 32 71C33.6101 71 36 70.5 36 70.5L35.5 78C35.5 78 34.4647 79 32.5 79C30.5352 79 29 78 29 78Z" fill="#FFDCC9"/>
<path d="M32 81C30.0352 81 28.5 80 28.5 80C28.5 80 28 79.4366 28 79C28 78.5634 28.5 78 28.5 78C28.5 78 30.3898 79 32 79C33.6101 79 36 78 36 78C36 78 36.5 78.5634 36.5 79C36.5 79.4366 36 80 36 80C36 80 33.9647 81 32 81Z" fill="white"/>
<path d="M32.5 85C30.5352 85 28.5 84 28.5 84C28.5 84 28 83.4366 28 83C28 82.5634 28.5 80 28.5 80C28.5 80 30.8898 81 32.5 81C34.1101 81 36 80 36 80C36 80 36.5 82.5634 36.5 83C36.5 83.4366 36 84 36 84C36 84 34.4647 85 32.5 85Z" fill="black"/>
<path d="M67 70L68 61L57 63V70C57 70 60.0352 71 62 71C63.9647 71 67 70 67 70Z" fill="#284DD1"/>
<path d="M65 78L66 70.5C66 70.5 63.6101 71 62 71C60.3898 71 58 70.5 58 70.5L58.5 78C58.5 78 59.5352 79 61.5 79C63.4647 79 65 78 65 78Z" fill="#FFDCC9"/>
<path d="M62 81C63.9647 81 65.5 80 65.5 80C65.5 80 66 79.4366 66 79C66 78.5634 65.5 78 65.5 78C65.5 78 63.6101 79 62 79C60.3898 79 58 78 58 78C58 78 57.5 78.5634 57.5 79C57.5 79.4366 58 80 58 80C58 80 60.0352 81 62 81Z" fill="white"/>
<path d="M61.5 85C63.4647 85 65.5 84 65.5 84C65.5 84 66 83.4366 66 83C66 82.5634 65.5 80 65.5 80C65.5 80 63.1101 81 61.5 81C59.8898 81 58 80 58 80C58 80 57.5 82.5634 57.5 83C57.5 83.4366 58 84 58 84C58 84 59.5352 85 61.5 85Z" fill="black"/>
<path d="M67.7 52.5C66.3666 50.5 66 48.5 66 46H68C68 47.5 68.5 49.9 69.5 51.4C69.8063 51.8595 71.3 53.5 71.3 53.5L69.8 55C69.8 55 69.2 54.5 67.7 52.5Z" fill="#278C1E"/>
<path d="M68 40.5C67 42 66 44 66 46.5H68C68 45 68.4046 43.3855 70 41.5C70.3567 41.0784 70.8 40.5 70.8 40.5L69.3 39C69.3 39 68.4595 39.8107 68 40.5Z" fill="#65E959"/>
<path d="M26.1 53C27.4334 51 27.8 49 27.8 46.4999H25.8C25.8 48 25.3 50.4 24.3 51.9C23.9936 52.3595 22.5 54 22.5 54L24 55.5C24 55.5 24.6 55 26.1 53Z" fill="#278C1E"/>
<path d="M25.8 40.5C26.8 42 27.8 44 27.8 46.5H25.8C25.8 45 25.3954 43.3855 23.8 41.5C23.4433 41.0784 23 40.5 23 40.5L24.5 39C24.5 39 25.3405 39.8107 25.8 40.5Z" fill="#65E959"/>
<path d="M74.6871 34.8729L69.1187 42.8499C69.1187 42.8499 67.0144 47.431 69 47.9031C69.1187 48.0618 74.093 46.2381 76.9411 44.4004C78.074 43.6695 79.7196 42.3512 79.7196 42.3512C79.7196 42.3512 80.2131 40.849 78.4019 38.2569C76.5906 35.6647 74.6871 34.8729 74.6871 34.8729Z" fill="#40BDCE"/>
<path d="M81.204 30.5296L75.5619 35.3761C75.5619 35.3761 76.9535 36.5418 77.6527 37.4081C78.3518 38.2743 79.1423 39.8124 79.1423 39.8124L84.7844 34.9659L88.7429 31.3545C88.7429 31.3545 88.901 29.0714 88.0545 28.0718C87.287 27.1653 85.2801 26.8258 85.2801 26.8258L81.204 30.5296Z" fill="#FFDCC9"/>
<path d="M25.8169 52.5C27.1503 50.5 27.5169 48.5 27.5169 46H25.5169C25.5169 47.5 25.0169 49.9 24.0169 51.4C23.7106 51.8595 22.2169 53.5 22.2169 53.5L23.7169 55C23.7169 55 24.3169 54.5 25.8169 52.5Z" fill="#278C1E"/>
<path d="M25.5169 40.5C26.5169 42 27.5169 44 27.5169 46.5H25.5169C25.5169 45 25.1123 43.3855 23.5169 41.5C23.1602 41.0784 22.7169 40.5 22.7169 40.5L24.2169 39C24.2169 39 25.0574 39.8107 25.5169 40.5Z" fill="#65E959"/>
<path d="M18.8298 34.8729L24.3983 42.8499C24.3983 42.8499 26.5025 47.431 24.5169 47.9031C24.3983 48.0617 19.4239 46.2381 16.5758 44.4004C15.4429 43.6695 13.7973 42.3512 13.7973 42.3512C13.7973 42.3512 13.3038 40.849 15.1151 38.2569C16.9263 35.6647 18.8298 34.8729 18.8298 34.8729Z" fill="#40BDCE"/>
<path d="M9.0251 34.6995L14.7089 39.4971C14.7089 39.4971 15.6379 37.9374 16.3816 37.1092C17.1253 36.2809 18.5178 35.2553 18.5178 35.2553L12.834 30.4578L12 28C12 28 8.50001 24.5 6.50001 28C4.50001 31.5 6.5 32.5 6.5 32.5L9.0251 34.6995Z" fill="#FFDCC9"/>
<path d="M44.3178 2.12465L48.9983 3.59644L48.8893 8.68977L19.8812 28.28C19.8812 28.28 19.0041 30.1093 17.9907 30.815C16.9772 31.5207 16.1729 31.9263 14.9573 31.7087C14.0977 31.5548 12.9938 30.6388 12.9938 30.6388L6.83899 34.9247C6.83899 34.9247 5.92435 34.4861 5.5715 33.9794C5.21865 33.4727 5.12466 32.4627 5.12466 32.4627L11.2795 28.1769C11.2795 28.1769 10.8033 26.8238 10.9572 25.9642C11.1748 24.7486 11.8342 24.1349 12.8477 23.4292C13.8611 22.7235 15.8811 22.5355 15.8811 22.5355L44.3178 2.12465Z" fill="white"/>
<circle cx="15.4192" cy="27.1221" r="2.5" transform="rotate(55.149 15.4192 27.1221)" fill="#284DD1"/>
<ellipse cx="47" cy="24" rx="17" ry="13" fill="#FFDCC9"/>
<ellipse cx="38.5" cy="22.5" rx="1.5" ry="2.5" fill="black"/>
<ellipse cx="55.5" cy="22.5" rx="1.5" ry="2.5" fill="black"/>
</g>
<defs>
<clipPath id="clip0">
<rect width="94" height="86" fill="white"/>
</clipPath>
</defs>
</svg>
