<svg width="120" height="120" viewBox="0 0 120 120" fill="none" xmlns="http://www.w3.org/2000/svg">
<ellipse cx="59.7525" cy="61" rx="29" ry="20" fill="#65E959"/>
<path d="M59.7525 81C75.7687 81 88.7525 73.0457 88.7525 62H30.7525C30.7525 73.0457 43.7362 81 59.7525 81Z" fill="#278C1E"/>
<path d="M59.7525 59C51.1609 59 37.7525 56 37.7525 56V72.5C37.7525 72.5 51.0814 75.5 59.7525 75.5C68.4235 75.5 81.7525 72.5 81.7525 72.5V56C81.7525 56 68.344 59 59.7525 59Z" fill="#40BDCE"/>
<path d="M39.7525 28C39.7525 28 51.2721 22 59.7525 22C68.2328 22 79.7525 28 79.7525 28L81.7525 56C81.7525 56 67.4709 59 59.7525 59C52.034 59 37.7525 56 37.7525 56L39.7525 28Z" fill="white"/>
<path d="M59.7525 75.5295C51.1609 75.5295 37.7525 72 37.7525 72L38.7525 78.4706C38.7525 78.4706 51.0814 82 59.7525 82C68.4235 82 80.7525 78.4706 80.7525 78.4706L81.7525 72C81.7525 72 68.344 75.5295 59.7525 75.5295Z" fill="#284DD1"/>
<path d="M39.7525 20V28L47.7525 24.5V20C47.7525 20 45.4989 18 43.7525 18C42.006 18 39.7525 20 39.7525 20Z" fill="white"/>
<path d="M79.7525 20V28L71.7525 24.5V20C71.7525 20 74.006 18 75.7525 18C77.4989 18 79.7525 20 79.7525 20Z" fill="white"/>
<path d="M39.7524 87L38.7524 78L49.7524 80V87C49.7524 87 46.7172 88 44.7524 88C42.7876 88 39.7524 87 39.7524 87Z" fill="#284DD1"/>
<path d="M41.7524 95L40.7524 87.5C40.7524 87.5 43.1423 88 44.7524 88C46.3626 88 48.7524 87.5 48.7524 87.5L48.2524 95C48.2524 95 47.2172 96 45.2524 96C43.2876 96 41.7524 95 41.7524 95Z" fill="#FFDCC9"/>
<path d="M44.7524 98C42.7876 98 41.2524 97 41.2524 97C41.2524 97 40.7524 96.4366 40.7524 96C40.7524 95.5634 41.2524 95 41.2524 95C41.2524 95 43.1423 96 44.7524 96C46.3626 96 48.7524 95 48.7524 95C48.7524 95 49.2524 95.5634 49.2524 96C49.2524 96.4366 48.7524 97 48.7524 97C48.7524 97 46.7172 98 44.7524 98Z" fill="white"/>
<path d="M45.2524 102C43.2876 102 41.2524 101 41.2524 101C41.2524 101 40.7524 100.437 40.7524 100C40.7524 99.5634 41.2524 97 41.2524 97C41.2524 97 43.6423 98 45.2524 98C46.8626 98 48.7524 97 48.7524 97C48.7524 97 49.2524 99.5634 49.2524 100C49.2524 100.437 48.7524 101 48.7524 101C48.7524 101 47.2172 102 45.2524 102Z" fill="black"/>
<path d="M79.7524 87L80.7524 78L69.7524 80V87C69.7524 87 72.7876 88 74.7524 88C76.7172 88 79.7524 87 79.7524 87Z" fill="#284DD1"/>
<path d="M77.7524 95L78.7524 87.5C78.7524 87.5 76.3626 88 74.7524 88C73.1423 88 70.7524 87.5 70.7524 87.5L71.2524 95C71.2524 95 72.2876 96 74.2524 96C76.2172 96 77.7524 95 77.7524 95Z" fill="#FFDCC9"/>
<path d="M74.7524 98C76.7172 98 78.2524 97 78.2524 97C78.2524 97 78.7524 96.4366 78.7524 96C78.7524 95.5634 78.2524 95 78.2524 95C78.2524 95 76.3626 96 74.7524 96C73.1423 96 70.7524 95 70.7524 95C70.7524 95 70.2524 95.5634 70.2524 96C70.2524 96.4366 70.7524 97 70.7524 97C70.7524 97 72.7876 98 74.7524 98Z" fill="white"/>
<path d="M74.2524 102C76.2172 102 78.2524 101 78.2524 101C78.2524 101 78.7524 100.437 78.7524 100C78.7524 99.5634 78.2524 97 78.2524 97C78.2524 97 75.8626 98 74.2524 98C72.6423 98 70.7524 97 70.7524 97C70.7524 97 70.2524 99.5634 70.2524 100C70.2524 100.437 70.7524 101 70.7524 101C70.7524 101 72.2876 102 74.2524 102Z" fill="black"/>
<path d="M80.4525 69.5C79.1191 67.5 78.7525 65.5 78.7525 63H80.7525C80.7525 64.5 81.2525 66.9 82.2525 68.4C82.5588 68.8595 84.0525 70.5 84.0525 70.5L82.5525 72C82.5525 72 81.9525 71.5 80.4525 69.5Z" fill="#278C1E"/>
<path d="M80.7525 57.5C79.7525 59 78.7525 61 78.7525 63.5H80.7525C80.7525 62 81.157 60.3855 82.7525 58.5C83.1092 58.0784 83.5525 57.5 83.5525 57.5L82.0525 56C82.0525 56 81.212 56.8107 80.7525 57.5Z" fill="#65E959"/>
<path d="M38.8525 70C40.1858 68 40.5525 66 40.5525 63.4999H38.5525C38.5525 65 38.0525 67.4 37.0525 68.9C36.7461 69.3595 35.2525 71 35.2525 71L36.7525 72.5C36.7525 72.5 37.3525 72 38.8525 70Z" fill="#278C1E"/>
<path d="M38.5525 57.5C39.5525 59 40.5525 61 40.5525 63.5H38.5525C38.5525 62 38.1479 60.3855 36.5525 58.5C36.1957 58.0784 35.7525 57.5 35.7525 57.5L37.2525 56C37.2525 56 38.0929 56.8107 38.5525 57.5Z" fill="#65E959"/>
<path d="M87.4396 51.8729L81.8711 59.8499C81.8711 59.8499 79.7668 64.431 81.7525 64.9031C81.8711 65.0618 86.8455 63.2381 89.6935 61.4005C90.8265 60.6695 92.4721 59.3512 92.4721 59.3512C92.4721 59.3512 92.9656 57.849 91.1543 55.2569C89.3431 52.6647 87.4396 51.8729 87.4396 51.8729Z" fill="#40BDCE"/>
<path d="M93.9565 47.5296L88.3144 52.3761C88.3144 52.3761 89.706 53.5418 90.4051 54.4081C91.1042 55.2743 91.8948 56.8124 91.8948 56.8124L97.5369 51.9659L101.495 48.3545C101.495 48.3545 101.653 46.0714 100.807 45.0718C100.039 44.1654 98.0325 43.8258 98.0325 43.8258L93.9565 47.5296Z" fill="#FFDCC9"/>
<path d="M38.5694 69.5C39.9028 67.5 40.2694 65.5 40.2694 63H38.2694C38.2694 64.5 37.7694 66.9 36.7694 68.4C36.463 68.8595 34.9694 70.5 34.9694 70.5L36.4694 72C36.4694 72 37.0694 71.5 38.5694 69.5Z" fill="#278C1E"/>
<path d="M38.2694 57.5C39.2694 59 40.2694 61 40.2694 63.5H38.2694C38.2694 62 37.8648 60.3855 36.2694 58.5C35.9127 58.0784 35.4694 57.5 35.4694 57.5L36.9694 56C36.9694 56 37.8099 56.8107 38.2694 57.5Z" fill="#65E959"/>
<path d="M31.5822 51.8729L37.1507 59.8499C37.1507 59.8499 39.255 64.431 37.2694 64.9031C37.1507 65.0618 32.1764 63.2381 29.3283 61.4004C28.1954 60.6695 26.5498 59.3512 26.5498 59.3512C26.5498 59.3512 26.0563 57.849 27.8675 55.2569C29.6788 52.6647 31.5822 51.8729 31.5822 51.8729Z" fill="#40BDCE"/>
<path d="M21.7776 51.6995L27.4613 56.4971C27.4613 56.4971 28.3903 54.9374 29.1341 54.1092C29.8778 53.2809 31.2703 52.2554 31.2703 52.2554L25.5865 47.4578L24.7525 45C24.7525 45 21.2525 41.5 19.2525 45C17.2525 48.5 19.2525 49.5 19.2525 49.5L21.7776 51.6995Z" fill="#FFDCC9"/>
<path d="M57.0702 19.1247L61.7508 20.5964L61.6418 25.6898L32.6336 45.28C32.6336 45.28 31.7566 47.1093 30.7432 47.815C29.7297 48.5207 28.9254 48.9263 27.7098 48.7087C26.8502 48.5548 25.7463 47.6388 25.7463 47.6388L19.5915 51.9247C19.5915 51.9247 18.6768 51.4862 18.324 50.9794C17.9711 50.4727 17.8771 49.4627 17.8771 49.4627L24.0319 45.1769C24.0319 45.1769 23.5558 43.8238 23.7097 42.9642C23.9273 41.7486 24.5867 41.1349 25.6002 40.4292C26.6136 39.7235 28.6335 39.5355 28.6335 39.5355L57.0702 19.1247Z" fill="white"/>
<circle cx="28.1717" cy="44.1221" r="2.5" transform="rotate(55.149 28.1717 44.1221)" fill="#284DD1"/>
<ellipse cx="59.7525" cy="41" rx="17" ry="13" fill="#FFDCC9"/>
<ellipse cx="51.2525" cy="39.5" rx="1.5" ry="2.5" fill="black"/>
<ellipse cx="68.2525" cy="39.5" rx="1.5" ry="2.5" fill="black"/>
</svg>
