<svg width="94" height="86" viewBox="0 0 94 86" fill="none" xmlns="http://www.w3.org/2000/svg">
<ellipse cx="47" cy="44" rx="29" ry="20" fill="#65E959"/>
<path d="M47 64C63.0163 64 76 56.0457 76 45H18C18 56.0457 30.9837 64 47 64Z" fill="#278C1E"/>
<path d="M47 42C38.4085 42 25 39 25 39V55.5C25 55.5 38.329 58.5 47 58.5C55.671 58.5 69 55.5 69 55.5V39C69 39 55.5915 42 47 42Z" fill="#40BDCE"/>
<path d="M47 58.0294C55.5915 58.0294 69 54.5 69 54.5L68 60.9706C68 60.9706 55.671 64.5 47 64.5C38.329 64.5 26 60.9706 26 60.9706L25 54.5C25 54.5 38.4085 58.0294 47 58.0294Z" fill="#284DD1"/>
<path d="M67 68.1272L68 61.0022L57 62.5855V68.1272C57 68.1272 60.0352 68.9189 62 68.9189C63.9648 68.9189 67 68.1272 67 68.1272Z" fill="#284DD1"/>
<path d="M65 74.4606L66 68.523C66 68.523 63.6102 68.9189 62 68.9189C60.3899 68.9189 58 68.523 58 68.523L58.5 74.4606C58.5 74.4606 59.5352 75.2522 61.5 75.2522C63.4648 75.2522 65 74.4606 65 74.4606Z" fill="#FFDCC9"/>
<path d="M62 76.8356C63.9648 76.8356 65.5 76.0439 65.5 76.0439C65.5 76.0439 66 75.5979 66 75.2522C66 74.9066 65.5 74.4606 65.5 74.4606C65.5 74.4606 63.6102 75.2522 62 75.2522C60.3899 75.2522 58 74.4606 58 74.4606C58 74.4606 57.5 74.9066 57.5 75.2522C57.5 75.5979 58 76.0439 58 76.0439C58 76.0439 60.0352 76.8356 62 76.8356Z" fill="white"/>
<path d="M61.5 80.0022C63.4648 80.0022 65.5 79.2106 65.5 79.2106C65.5 79.2106 66 78.7646 66 78.4189C66 78.0732 65.5 76.0439 65.5 76.0439C65.5 76.0439 63.1102 76.8356 61.5 76.8356C59.8899 76.8356 58 76.0439 58 76.0439C58 76.0439 57.5 78.0732 57.5 78.4189C57.5 78.7646 58 79.2106 58 79.2106C58 79.2106 59.5352 80.0022 61.5 80.0022Z" fill="black"/>
<path d="M29.4591 67.4055L26.0825 61.0522L36.9607 58.7779L38.8561 63.9853C38.8561 63.9853 36.2747 65.7674 34.4284 66.4394C32.5821 67.1114 29.4591 67.4055 29.4591 67.4055Z" fill="#284DD1"/>
<path d="M33.5046 72.6729L30.5342 67.4355C30.5342 67.4355 32.9153 66.9901 34.4284 66.4394C35.9414 65.8887 38.0517 64.6993 38.0517 64.6993L39.6127 70.4498C39.6127 70.4498 38.9106 71.5478 37.0643 72.2198C35.218 72.8918 33.5046 72.6729 33.5046 72.6729Z" fill="#FFDCC9"/>
<path d="M37.136 73.8786C35.2897 74.5506 33.5763 74.3318 33.5763 74.3318C33.5763 74.3318 32.9539 74.0837 32.8357 73.7588C32.7175 73.434 33.0348 72.8439 33.0348 72.8439C33.0348 72.8439 35.0814 72.9415 36.5945 72.3908C38.1076 71.8401 40.0825 70.2788 40.0825 70.2788C40.0825 70.2788 40.7049 70.5269 40.8231 70.8517C40.9413 71.1765 40.624 71.7666 40.624 71.7666C40.624 71.7666 38.9823 73.2066 37.136 73.8786Z" fill="white"/>
<path d="M38.6889 76.6833C36.8426 77.3553 34.6594 77.3075 34.6594 77.3075C34.6594 77.3075 34.037 77.0594 33.9188 76.7346C33.8006 76.4097 33.5763 74.3318 33.5763 74.3318C33.5763 74.3318 36.0928 74.2583 37.6059 73.7076C39.1189 73.1569 40.624 71.7666 40.624 71.7666C40.624 71.7666 41.788 73.5026 41.9062 73.8274C42.0244 74.1522 41.7071 74.7423 41.7071 74.7423C41.7071 74.7423 40.5352 76.0113 38.6889 76.6833Z" fill="black"/>
<path d="M27 11C27 11 38.5196 5 47 5C55.4804 5 67 11 67 11L69 39C69 39 54.7185 42 47 42C39.2815 42 25 39 25 39L27 11Z" fill="white"/>
<ellipse cx="47" cy="24" rx="17" ry="13" fill="#FFDCC9"/>
<path d="M27 3V11L35 7.5V3C35 3 32.7465 1 31 1C29.2535 1 27 3 27 3Z" fill="white"/>
<path d="M67 3V11L59 7.5V3C59 3 61.2535 1 63 1C64.7465 1 67 3 67 3Z" fill="white"/>
<ellipse cx="38.5" cy="22.5" rx="1.5" ry="2.5" fill="black"/>
<ellipse cx="55.5" cy="22.5" rx="1.5" ry="2.5" fill="black"/>
<path d="M10.9418 52.508L16.8004 47.9255C16.8004 47.9255 17.6706 49.5186 18.383 50.374C19.0954 51.2294 20.4486 52.3062 20.4486 52.3062L14.5901 56.8886L9.0814 57.6873C9.0814 57.6873 6.26953 56.797 5.99309 55.2972C5.75566 54.0091 7.38378 52.245 7.38378 52.245L10.9418 52.508Z" fill="#FFDCC9"/>
<path d="M15.6281 48.1743L24.2339 41.3292C24.2339 41.3292 27.6092 43.8389 27.9066 45.8581C28.2041 47.8773 24.9232 51.2493 24.9232 51.2493L22.6398 53.8388C22.6398 53.8388 21.1004 54.1996 18.6758 52.1696C16.2511 50.1395 15.6281 48.1743 15.6281 48.1743Z" fill="#40BDCE"/>
<path d="M77.2463 49.8752L71.5 40.5C71.5 40.5 67.47 41.7042 66.5 43.5C65.53 45.2958 67.4601 49.5864 67.4601 49.5864L68.7204 52.8006C68.7204 52.8006 70.0436 53.6661 73.0162 52.5875C75.9889 51.5089 77.2463 49.8752 77.2463 49.8752Z" fill="#40BDCE"/>
<path d="M79.7549 57.2941L76.5339 50.5899C76.5339 50.5899 75.0477 51.6324 74.03 52.0835C73.0124 52.5346 71.3221 52.9001 71.3221 52.9001L74.5432 59.6043L77.007 64.3626C77.007 64.3626 79.1713 65.1062 80.356 64.5473C81.4302 64.0406 82.2776 62.1899 82.2776 62.1899L79.7549 57.2941Z" fill="#FFDCC9"/>
<path d="M12.7399 10.026L17.072 7.72224L20.6258 11.3725L14.2418 45.789C14.2418 45.789 14.9305 47.6972 14.7226 48.9145C14.5147 50.1318 14.2397 50.9896 13.2319 51.7034C12.5193 52.2081 11.0921 52.3525 11.0921 52.3525L9.82976 59.7455C9.82976 59.7455 8.87567 60.0898 8.267 59.9859C7.65834 59.8819 6.87257 59.2405 6.87257 59.2405L8.13494 51.8475C8.13494 51.8475 6.83652 51.2378 6.33179 50.5252C5.61799 49.5174 5.64315 48.617 5.85101 47.3996C6.05887 46.1823 7.3417 44.6108 7.3417 44.6108L12.7399 10.026Z" fill="white"/>
<circle cx="10.2868" cy="48.1571" r="2.5" transform="rotate(9.69 10.2868 48.1571)" fill="#284DD1"/>
<path d="M67.7 52.5C66.3666 50.5 66 48.5 66 46H68C68 47.5 68.5 49.9 69.5 51.4C69.8064 51.8595 71.3 53.5 71.3 53.5L69.8 55C69.8 55 69.2 54.5 67.7 52.5Z" fill="#278C1E"/>
<path d="M68 40.5C67 42 66 44 66 46.5H68C68 45 68.4046 43.3855 70 41.5C70.3567 41.0784 70.8 40.5 70.8 40.5L69.3 39C69.3 39 68.4595 39.8107 68 40.5Z" fill="#65E959"/>
<path d="M26.1 53C27.4334 51 27.8 49 27.8 46.4999H25.8C25.8 48 25.3 50.4 24.3 51.9C23.9937 52.3595 22.5 54 22.5 54L24 55.5C24 55.5 24.6 55 26.1 53Z" fill="#278C1E"/>
<path d="M25.8 40.5C26.8 42 27.8 44 27.8 46.5H25.8C25.8 45 25.3954 43.3855 23.8 41.5C23.4433 41.0784 23 40.5 23 40.5L24.5 39C24.5 39 25.3405 39.8107 25.8 40.5Z" fill="#65E959"/>
</svg>
