<svg width="120" height="120" viewBox="0 0 120 120" fill="none" xmlns="http://www.w3.org/2000/svg">
<path d="M60 59C68.5915 59 82 56 82 56V72.5C82 72.5 68.671 75.5 60 75.5C51.329 75.5 38 72.5 38 72.5V56C38 56 51.4085 59 60 59Z" fill="#40BDCE"/>
<path d="M80 28C80 28 68.4804 22 60 22C51.5196 22 40 28 40 28L38 56C38 56 52.2815 59 60 59C67.7185 59 82 56 82 56L80 28Z" fill="white"/>
<path d="M60 75.5294C68.5915 75.5294 82 72 82 72L81 78.4706C81 78.4706 68.671 82 60 82C51.329 82 39 78.4706 39 78.4706L38 72C38 72 51.4085 75.5294 60 75.5294Z" fill="#284DD1"/>
<path d="M80 20V28L72 24.5V20C72 20 74.2535 18 76 18C77.7465 18 80 20 80 20Z" fill="white"/>
<path d="M40 20V28L48 24.5V20C48 20 45.7465 18 44 18C42.2535 18 40 20 40 20Z" fill="white"/>
<path d="M80 87L81 78L70 80V87C70 87 73.0352 88 75 88C76.9648 88 80 87 80 87Z" fill="#284DD1"/>
<path d="M78 95L79 87.5C79 87.5 76.6102 88 75 88C73.3899 88 71 87.5 71 87.5L71.5 95C71.5 95 72.5352 96 74.5 96C76.4648 96 78 95 78 95Z" fill="#FFDCC9"/>
<path d="M75 98C76.9648 98 78.5 97 78.5 97C78.5 97 79 96.4366 79 96C79 95.5633 78.5 95 78.5 95C78.5 95 76.6102 96 75 96C73.3899 96 71 95 71 95C71 95 70.5 95.5633 70.5 96C70.5 96.4366 71 97 71 97C71 97 73.0352 98 75 98Z" fill="white"/>
<path d="M74.5 102C76.4648 102 78.5 101 78.5 101C78.5 101 79 100.437 79 100C79 99.5633 78.5 97 78.5 97C78.5 97 76.1102 98 74.5 98C72.8899 98 71 97 71 97C71 97 70.5 99.5633 70.5 100C70.5 100.437 71 101 71 101C71 101 72.5352 102 74.5 102Z" fill="black"/>
<path d="M40 87L39 78L50 80V87C50 87 46.9648 88 45 88C43.0352 88 40 87 40 87Z" fill="#284DD1"/>
<path d="M42 95L41 87.5C41 87.5 43.3899 88 45 88C46.6102 88 49 87.5 49 87.5L48.5 95C48.5 95 47.4648 96 45.5 96C43.5352 96 42 95 42 95Z" fill="#FFDCC9"/>
<path d="M45 98C43.0352 98 41.5 97 41.5 97C41.5 97 41 96.4366 41 96C41 95.5633 41.5 95 41.5 95C41.5 95 43.3899 96 45 96C46.6102 96 49 95 49 95C49 95 49.5 95.5633 49.5 96C49.5 96.4366 49 97 49 97C49 97 46.9648 98 45 98Z" fill="white"/>
<path d="M45.5 102C43.5352 102 41.5 101 41.5 101C41.5 101 41 100.437 41 100C41 99.5633 41.5 97 41.5 97C41.5 97 43.8899 98 45.5 98C47.1102 98 49 97 49 97C49 97 49.5 99.5633 49.5 100C49.5 100.437 49 101 49 101C49 101 47.4648 102 45.5 102Z" fill="black"/>
<path d="M105.413 31.4591L102.131 27.8128L97.5426 30.0275L91.7711 64.552C91.7711 64.552 90.4714 66.1096 90.2504 67.3246C90.0294 68.5396 89.9945 69.4397 90.6974 70.4551C91.1944 71.1731 92.4861 71.7969 92.4861 71.7969L91.144 79.1758C91.144 79.1758 91.9228 79.8257 92.5303 79.9362C93.1378 80.0467 94.0955 79.7127 94.0955 79.7127L95.4377 72.3338C95.4377 72.3338 96.8664 72.2048 97.5844 71.7078C98.5998 71.0049 98.8841 70.1502 99.1051 68.9352C99.3261 67.7202 98.6581 65.8047 98.6581 65.8047L105.413 31.4591Z" fill="white"/>
<circle r="2.5" transform="matrix(-0.983857 -0.178955 -0.178955 0.983857 94.6777 68.1299)" fill="#284DD1"/>
<path d="M92.6745 72.6155L88.736 66.3059C88.736 66.3059 87.3735 67.5055 86.4115 68.0657C85.4496 68.6259 83.8097 69.175 83.8097 69.175L87.7482 75.4846L92.6517 78.1187C92.6517 78.1187 95.5985 78.2436 96.3711 76.9288C97.0347 75.7995 96.1079 73.585 96.1079 73.585L92.6745 72.6155Z" fill="#FFDCC9"/>
<path d="M89.7525 66.9406L84.0062 57.5654C84.0062 57.5654 79.9762 58.7696 79.0062 60.5654C78.0362 62.3612 79.9663 66.6518 79.9663 66.6518L81.2266 69.8661C81.2266 69.8661 82.5498 70.7315 85.5224 69.6529C88.4951 68.5743 89.7525 66.9406 89.7525 66.9406Z" fill="#40BDCE"/>
<path d="M29.7537 66.8752L35.5 57.5C35.5 57.5 39.53 58.7042 40.5 60.5C41.47 62.2958 39.5399 66.5864 39.5399 66.5864L38.2796 69.8006C38.2796 69.8006 36.9564 70.6661 33.9838 69.5875C31.0111 68.5089 29.7537 66.8752 29.7537 66.8752Z" fill="#40BDCE"/>
<path d="M27.2451 74.2941L30.4661 67.5899C30.4661 67.5899 31.9523 68.6324 32.97 69.0835C33.9876 69.5346 35.6779 69.9001 35.6779 69.9001L32.4569 76.6043L29.993 81.3626C29.993 81.3626 27.8287 82.1062 26.644 81.5473C25.5698 81.0406 24.7224 79.1899 24.7224 79.1899L27.2451 74.2941Z" fill="#FFDCC9"/>
<ellipse rx="29" ry="20" transform="matrix(-1 0 0 1 60 61)" fill="#65E959"/>
<path d="M60 81C43.9837 81 31 73.0457 31 62H89C89 73.0457 76.0163 81 60 81Z" fill="#278C1E"/>
</svg>
