<svg width="120" height="120" viewBox="0 0 120 120" fill="none" xmlns="http://www.w3.org/2000/svg">
<ellipse cx="60.1688" cy="64" rx="29" ry="20" fill="#65E959"/>
<path d="M60.1688 84C76.1851 84 89.1688 76.0457 89.1688 65H31.1688C31.1688 76.0457 44.1525 84 60.1688 84Z" fill="#278C1E"/>
<path d="M60.1688 62C51.5773 62 38.1688 59 38.1688 59V75.5C38.1688 75.5 51.4978 78.5 60.1688 78.5C68.8398 78.5 82.1688 75.5 82.1688 75.5V59C82.1688 59 68.7603 62 60.1688 62Z" fill="#40BDCE"/>
<path d="M60.1688 78.0294C68.7603 78.0294 82.1688 74.5 82.1688 74.5L81.1688 80.9706C81.1688 80.9706 68.8398 84.5 60.1688 84.5C51.4978 84.5 39.1688 80.9706 39.1688 80.9706L38.1688 74.5C38.1688 74.5 51.5773 78.0294 60.1688 78.0294Z" fill="#284DD1"/>
<path d="M80.1688 88.1272L81.1688 81.0022L70.1688 82.5855V88.1272C70.1688 88.1272 73.204 88.9189 75.1688 88.9189C77.1336 88.9189 80.1688 88.1272 80.1688 88.1272Z" fill="#284DD1"/>
<path d="M78.1688 94.4606L79.1688 88.523C79.1688 88.523 76.779 88.9189 75.1688 88.9189C73.5587 88.9189 71.1688 88.523 71.1688 88.523L71.6688 94.4606C71.6688 94.4606 72.704 95.2522 74.6688 95.2522C76.6336 95.2522 78.1688 94.4606 78.1688 94.4606Z" fill="#FFDCC9"/>
<path d="M75.1688 96.8356C77.1336 96.8356 78.6688 96.0439 78.6688 96.0439C78.6688 96.0439 79.1688 95.5979 79.1688 95.2522C79.1688 94.9066 78.6688 94.4606 78.6688 94.4606C78.6688 94.4606 76.779 95.2522 75.1688 95.2522C73.5587 95.2522 71.1688 94.4606 71.1688 94.4606C71.1688 94.4606 70.6688 94.9066 70.6688 95.2522C70.6688 95.5979 71.1688 96.0439 71.1688 96.0439C71.1688 96.0439 73.204 96.8356 75.1688 96.8356Z" fill="white"/>
<path d="M74.6688 100.002C76.6336 100.002 78.6688 99.2106 78.6688 99.2106C78.6688 99.2106 79.1688 98.7646 79.1688 98.4189C79.1688 98.0732 78.6688 96.0439 78.6688 96.0439C78.6688 96.0439 76.279 96.8356 74.6688 96.8356C73.0587 96.8356 71.1688 96.0439 71.1688 96.0439C71.1688 96.0439 70.6688 98.0732 70.6688 98.4189C70.6688 98.7646 71.1688 99.2106 71.1688 99.2106C71.1688 99.2106 72.704 100.002 74.6688 100.002Z" fill="black"/>
<path d="M42.6279 87.4055L39.2513 81.0522L50.1295 78.7779L52.0249 83.9853C52.0249 83.9853 49.4435 85.7674 47.5972 86.4394C45.7509 87.1114 42.6279 87.4055 42.6279 87.4055Z" fill="#284DD1"/>
<path d="M46.6735 92.6729L43.703 87.4355C43.703 87.4355 46.0841 86.9901 47.5972 86.4394C49.1102 85.8887 51.2205 84.6993 51.2205 84.6993L52.7815 90.4498C52.7815 90.4498 52.0794 91.5478 50.2331 92.2198C48.3868 92.8918 46.6735 92.6729 46.6735 92.6729Z" fill="#FFDCC9"/>
<path d="M50.3048 93.8786C48.4585 94.5506 46.7451 94.3318 46.7451 94.3318C46.7451 94.3318 46.1227 94.0837 46.0045 93.7588C45.8863 93.434 46.2036 92.8439 46.2036 92.8439C46.2036 92.8439 48.2502 92.9415 49.7633 92.3908C51.2764 91.8401 53.2513 90.2788 53.2513 90.2788C53.2513 90.2788 53.8737 90.5269 53.9919 90.8517C54.1101 91.1765 53.7928 91.7666 53.7928 91.7666C53.7928 91.7666 52.1511 93.2066 50.3048 93.8786Z" fill="white"/>
<path d="M51.8577 96.6833C50.0114 97.3553 47.8282 97.3075 47.8282 97.3075C47.8282 97.3075 47.2058 97.0594 47.0876 96.7346C46.9694 96.4097 46.7451 94.3318 46.7451 94.3318C46.7451 94.3318 49.2616 94.2583 50.7747 93.7076C52.2877 93.1569 53.7928 91.7666 53.7928 91.7666C53.7928 91.7666 54.9568 93.5026 55.075 93.8274C55.1932 94.1522 54.8759 94.7423 54.8759 94.7423C54.8759 94.7423 53.704 96.0113 51.8577 96.6833Z" fill="black"/>
<path d="M40.1688 31C40.1688 31 51.6884 25 60.1688 25C68.6492 25 80.1688 31 80.1688 31L82.1688 59C82.1688 59 67.8873 62 60.1688 62C52.4503 62 38.1688 59 38.1688 59L40.1688 31Z" fill="white"/>
<ellipse cx="60.1688" cy="44" rx="17" ry="13" fill="#FFDCC9"/>
<path d="M40.1688 23V31L48.1688 27.5V23C48.1688 23 45.9153 21 44.1688 21C42.4223 21 40.1688 23 40.1688 23Z" fill="white"/>
<path d="M80.1688 23V31L72.1688 27.5V23C72.1688 23 74.4223 21 76.1688 21C77.9153 21 80.1688 23 80.1688 23Z" fill="white"/>
<ellipse cx="51.6688" cy="42.5" rx="1.5" ry="2.5" fill="black"/>
<ellipse cx="68.6688" cy="42.5" rx="1.5" ry="2.5" fill="black"/>
<path d="M24.1106 72.508L29.9692 67.9255C29.9692 67.9255 30.8394 69.5186 31.5518 70.374C32.2641 71.2294 33.6174 72.3061 33.6174 72.3061L27.7589 76.8886L22.2502 77.6873C22.2502 77.6873 19.4383 76.797 19.1619 75.2972C18.9244 74.0091 20.5526 72.245 20.5526 72.245L24.1106 72.508Z" fill="#FFDCC9"/>
<path d="M28.7969 68.1743L37.4026 61.3292C37.4026 61.3292 40.778 63.8389 41.0754 65.8581C41.3729 67.8773 38.092 71.2493 38.092 71.2493L35.8086 73.8388C35.8086 73.8388 34.2692 74.1996 31.8445 72.1696C29.4199 70.1395 28.7969 68.1743 28.7969 68.1743Z" fill="#40BDCE"/>
<path d="M90.4151 69.8752L84.6688 60.5C84.6688 60.5 80.6388 61.7042 79.6688 63.5C78.6988 65.2958 80.6289 69.5864 80.6289 69.5864L81.8892 72.8007C81.8892 72.8007 83.2124 73.6661 86.185 72.5875C89.1577 71.5089 90.4151 69.8752 90.4151 69.8752Z" fill="#40BDCE"/>
<path d="M92.9237 77.2941L89.7027 70.5899C89.7027 70.5899 88.2165 71.6324 87.1988 72.0835C86.1812 72.5346 84.4909 72.9001 84.4909 72.9001L87.7119 79.6043L90.1758 84.3626C90.1758 84.3626 92.3401 85.1062 93.5248 84.5473C94.599 84.0406 95.4464 82.1899 95.4464 82.1899L92.9237 77.2941Z" fill="#FFDCC9"/>
<path d="M25.9087 30.026L30.2408 27.7222L33.7946 31.3725L27.4106 65.789C27.4106 65.789 28.0993 67.6972 27.8914 68.9145C27.6835 70.1318 27.4085 70.9896 26.4007 71.7034C25.6881 72.2081 24.2609 72.3525 24.2609 72.3525L22.9986 79.7455C22.9986 79.7455 22.0445 80.0898 21.4358 79.9859C20.8271 79.8819 20.0414 79.2405 20.0414 79.2405L21.3037 71.8475C21.3037 71.8475 20.0053 71.2378 19.5006 70.5252C18.7868 69.5174 18.8119 68.617 19.0198 67.3996C19.2277 66.1823 20.5105 64.6108 20.5105 64.6108L25.9087 30.026Z" fill="white"/>
<circle cx="23.4556" cy="68.1571" r="2.5" transform="rotate(9.69 23.4556 68.1571)" fill="#284DD1"/>
<path d="M80.8688 72.5C79.5354 70.5 79.1688 68.5 79.1688 66H81.1688C81.1688 67.5 81.6688 69.9 82.6688 71.4C82.9752 71.8595 84.4688 73.5 84.4688 73.5L82.9688 75C82.9688 75 82.3688 74.5 80.8688 72.5Z" fill="#278C1E"/>
<path d="M81.1688 60.5C80.1688 62 79.1688 64 79.1688 66.5H81.1688C81.1688 65 81.5734 63.3855 83.1688 61.5C83.5255 61.0784 83.9688 60.5 83.9688 60.5L82.4688 59C82.4688 59 81.6283 59.8107 81.1688 60.5Z" fill="#65E959"/>
<path d="M39.2688 73C40.6022 71 40.9688 69 40.9688 66.4999H38.9688C38.9688 68 38.4688 70.4 37.4688 71.9C37.1625 72.3595 35.6688 74 35.6688 74L37.1688 75.5C37.1688 75.5 37.7688 75 39.2688 73Z" fill="#278C1E"/>
<path d="M38.9688 60.5C39.9688 62 40.9688 64 40.9688 66.5H38.9688C38.9688 65 38.5642 63.3855 36.9688 61.5C36.6121 61.0784 36.1688 60.5 36.1688 60.5L37.6688 59C37.6688 59 38.5093 59.8107 38.9688 60.5Z" fill="#65E959"/>
</svg>
