<svg width="120" height="120" viewBox="0 0 120 120" fill="none" xmlns="http://www.w3.org/2000/svg">
<g clip-path="url(#clip0)">
<ellipse cx="60" cy="61" rx="29" ry="20" fill="#65E959"/>
<path d="M60 81C76.0163 81 89 73.0457 89 62H31C31 73.0457 43.9837 81 60 81Z" fill="#278C1E"/>
<path d="M60 59C51.4085 59 38 56 38 56V72.5C38 72.5 51.3289 75.5 60 75.5C68.671 75.5 82 72.5 82 72.5V56C82 56 68.5915 59 60 59Z" fill="#40BDCE"/>
<path d="M40 28C40 28 51.5196 22 60 22C68.4804 22 80 28 80 28L82 56C82 56 67.7185 59 60 59C52.2815 59 38 56 38 56L40 28Z" fill="white"/>
<ellipse cx="60" cy="41" rx="17" ry="13" fill="#FFDCC9"/>
<path d="M60 75.5294C51.4085 75.5294 38 72 38 72L39 78.4706C39 78.4706 51.329 82 60 82C68.671 82 81 78.4706 81 78.4706L82 72C82 72 68.5915 75.5294 60 75.5294Z" fill="#284DD1"/>
<path d="M40 20V28L48 24.5V20C48 20 45.7465 18 44 18C42.2535 18 40 20 40 20Z" fill="white"/>
<path d="M80 20V28L72 24.5V20C72 20 74.2535 18 76 18C77.7465 18 80 20 80 20Z" fill="white"/>
<path d="M40 87L39 78L50 80V87C50 87 46.9647 88 45 88C43.0352 88 40 87 40 87Z" fill="#284DD1"/>
<path d="M42 95L41 87.5C41 87.5 43.3898 88 45 88C46.6101 88 49 87.5 49 87.5L48.5 95C48.5 95 47.4647 96 45.5 96C43.5352 96 42 95 42 95Z" fill="#FFDCC9"/>
<path d="M45 98C43.0352 98 41.5 97 41.5 97C41.5 97 41 96.4366 41 96C41 95.5633 41.5 95 41.5 95C41.5 95 43.3898 96 45 96C46.6101 96 49 95 49 95C49 95 49.5 95.5633 49.5 96C49.5 96.4366 49 97 49 97C49 97 46.9647 98 45 98Z" fill="white"/>
<path d="M45.5 102C43.5352 102 41.5 101 41.5 101C41.5 101 41 100.437 41 100C41 99.5633 41.5 97 41.5 97C41.5 97 43.8898 98 45.5 98C47.1101 98 49 97 49 97C49 97 49.5 99.5633 49.5 100C49.5 100.437 49 101 49 101C49 101 47.4647 102 45.5 102Z" fill="black"/>
<path d="M80 87L81 78L70 80V87C70 87 73.0352 88 75 88C76.9647 88 80 87 80 87Z" fill="#284DD1"/>
<path d="M78 95L79 87.5C79 87.5 76.6101 88 75 88C73.3898 88 71 87.5 71 87.5L71.5 95C71.5 95 72.5352 96 74.5 96C76.4647 96 78 95 78 95Z" fill="#FFDCC9"/>
<path d="M75 98C76.9647 98 78.5 97 78.5 97C78.5 97 79 96.4366 79 96C79 95.5633 78.5 95 78.5 95C78.5 95 76.6101 96 75 96C73.3898 96 71 95 71 95C71 95 70.5 95.5633 70.5 96C70.5 96.4366 71 97 71 97C71 97 73.0352 98 75 98Z" fill="white"/>
<path d="M74.5 102C76.4647 102 78.5 101 78.5 101C78.5 101 79 100.437 79 100C79 99.5633 78.5 97 78.5 97C78.5 97 76.1101 98 74.5 98C72.8898 98 71 97 71 97C71 97 70.5 99.5633 70.5 100C70.5 100.437 71 101 71 101C71 101 72.5352 102 74.5 102Z" fill="black"/>
<ellipse cx="51.5" cy="39.5" rx="1.5" ry="2.5" fill="black"/>
<ellipse cx="68.5" cy="39.5" rx="1.5" ry="2.5" fill="black"/>
<path d="M34.5979 77.4218L35.381 70.0253C35.381 70.0253 37.1309 70.5083 38.241 70.5915C39.351 70.6747 41.0659 70.4515 41.0659 70.4515L40.2829 77.848L34.5979 77.4218Z" fill="#FFDCC9"/>
<path d="M34.5854 77.4183L40.2707 77.8401L42.5531 80.5822C42.5531 80.5822 42.0642 82.9325 40.8781 83.4882C39.4971 84.1351 37.138 82.3648 37.138 82.3648L34.5854 77.4183Z" fill="#FFDCC9"/>
<path d="M34.7443 71.0406L35.8128 60.0965C35.8128 60.0965 39.9637 59.4173 41.6213 60.6082C43.2788 61.7991 43.4192 66.5017 43.4192 66.5017L43.6912 69.9435C43.6912 69.9435 42.8796 71.3004 39.7346 71.6302C36.5896 71.96 34.7443 71.0406 34.7443 71.0406Z" fill="#40BDCE"/>
<path d="M90.2463 66.8752L84.5 57.5C84.5 57.5 80.47 58.7042 79.5 60.5C78.5301 62.2958 80.4601 66.5864 80.4601 66.5864L81.7204 69.8006C81.7204 69.8006 83.0436 70.6661 86.0163 69.5875C88.9889 68.5089 90.2463 66.8752 90.2463 66.8752Z" fill="#40BDCE"/>
<path d="M92.755 74.2941L89.5339 67.5899C89.5339 67.5899 88.0477 68.6324 87.0301 69.0835C86.0124 69.5346 84.3221 69.9001 84.3221 69.9001L87.5432 76.6043L90.007 81.3626C90.007 81.3626 92.1714 82.1062 93.356 81.5473C94.4302 81.0406 95.2776 79.1899 95.2776 79.1899L92.755 74.2941Z" fill="#FFDCC9"/>
<path d="M65.8045 115.598L64.1139 120.204L59.0314 119.856L40.8291 89.9569C40.8291 89.9569 39.0431 88.9947 38.3859 87.9492C37.7287 86.9036 37.3615 86.0811 37.6361 84.8771C37.8303 84.0257 38.7972 82.9661 38.7972 82.9661L36.9961 80.2216C36.9961 80.2216 37.4772 79.3286 38 79C38.5228 78.6714 39.536 78.6251 39.536 78.6251L41.3371 81.3696C41.3371 81.3696 42.7112 80.9578 43.5626 81.1519C44.7666 81.4266 45.3485 82.1142 46.0057 83.1597C46.6629 84.2053 46.7556 86.2318 46.7556 86.2318L65.8045 115.598Z" fill="white"/>
<circle cx="42.1958" cy="85.5544" r="2.5" transform="rotate(147.848 42.1958 85.5544)" fill="#284DD1"/>
<path d="M80.7 69.5C79.3666 67.5 79 65.5 79 63H81C81 64.5 81.5 66.9 82.5 68.4C82.8063 68.8595 84.3 70.5 84.3 70.5L82.8 72C82.8 72 82.2 71.5 80.7 69.5Z" fill="#278C1E"/>
<path d="M81 57.5C80 59 79 61 79 63.5H81C81 62 81.4046 60.3855 83 58.5C83.3567 58.0784 83.8 57.5 83.8 57.5L82.3 56C82.3 56 81.4595 56.8107 81 57.5Z" fill="#65E959"/>
<path d="M39.1 70C40.4333 68 40.8 66 40.8 63.4999H38.8C38.8 65 38.3 67.4 37.3 68.9C36.9936 69.3595 35.5 71 35.5 71L37 71.5C37 71.5 37.6 72 39.1 70Z" fill="#278C1E"/>
<path d="M38.8 57.5C39.8 59 40.8 61 40.8 63.5H38.8C38.8 62 38.3954 60.3855 36.8 58.5C36.4432 58.0784 36 57.5 36 57.5L37.5 56C37.5 56 38.3405 56.8107 38.8 57.5Z" fill="#65E959"/>
<path d="M34.7443 71.0406L35.8128 60.0965L37.8 60L39.5 63.5L42.5 68.5C42.5 68.5 42.8796 71.3004 39.7346 71.6302C36.5896 71.96 34.7443 71.0406 34.7443 71.0406Z" fill="#40BDCE"/>
</g>
<defs>
<clipPath id="clip0">
<rect width="120" height="120" fill="white"/>
</clipPath>
</defs>
</svg>
