<svg width="1000" height="1000" viewBox="0 0 1000 1000" fill="none" xmlns="http://www.w3.org/2000/svg">
<g transform="translate(250 10)">
<path d="M148 872.5L153 804C153 804 171.286 810.438 183.5 812C195.509 813.535 214.5 812 214.5 812L208.5 872.5C208.5 872.5 190.796 878.88 179 879C166.631 879.126 148 872.5 148 872.5Z" fill="#F0E3D3" stroke="black" stroke-width="3"/>
<path d="M135 874C137.5 865 148 870 148 870C155 877.5 170.642 878.913 178 879.5C190.463 880.494 209 871.5 209 871.5C209 871.5 216.763 874 217.5 881C218.5 890.5 206.5 895 206.5 895C206.5 895 211.84 895.009 214 898.5C217.789 904.623 209 911 206.5 912.5C201.5 914.5 189.5 918.5 179 918.5C163.468 918.5 156 915.5 151.5 914C141.937 910.812 134 902 135 895C136 888 143 886.5 143 886.5C143 886.5 132.222 884 135 874Z" fill="#F3F3F1" stroke="black" stroke-width="3"/>
<path d="M326 876.5L298 801C298 801 319.182 800.799 332 797C342.056 794.02 356.5 786 356.5 786L383.5 864.5C383.5 864.5 370.814 875.052 361 878C347.898 881.936 326 876.5 326 876.5Z" fill="#F0E3D3" stroke="black" stroke-width="3"/>
<path d="M371.5 557.5C371.5 557.5 388.14 557.297 397 553.5C416.195 545.274 422.38 537.476 422.64 534.895L422 534C422.458 534 422.698 534.316 422.64 534.895L447 569C435.601 578.989 427.568 585.245 414 592C399.077 599.43 372.5 602 372.5 602L371.5 557.5Z" fill="#F0E3D3"/>
<path d="M371.5 557.5C371.5 557.5 388.14 557.297 397 553.5C420.5 543.429 424.5 534 422 534L447 569C435.601 578.989 427.568 585.245 414 592C399.077 599.43 372.5 602 372.5 602L371.5 557.5Z" stroke="black" stroke-width="3"/>
<path d="M26.5 167.5C9 101.5 2 2 2 2L45 7.5L88.5 50.5L71 18.5H79C79 18.5 126.5 26.5 158.5 50.5C260.689 174.516 431.78 381.795 434.468 385.051C452.407 370.282 466.917 358.617 470.5 356.5C479.5 350 489.5 363.5 494.5 369.5C503.254 380.005 510 395.5 510 395.5C510 395.5 524.5 409.5 524.5 412.5C524.065 414.242 491.104 441.397 454.03 471.5C454.03 471.5 499 521.5 524.5 558C526 562 521.391 569.069 515 574.5C509.212 579.418 497 583.5 497 583.5C497 583.5 491.532 594.63 485 598C477.365 601.94 465.864 601.5 463 598C440.5 570.5 399 515.966 399 515.966C371.802 537.859 351 554.5 351 554.5C351 554.5 134 326 26.5 167.5Z" fill="#D8AD8A"/>
<path d="M524.5 412.5C524.5 409.5 510 395.5 510 395.5C510 395.5 503.254 380.005 494.5 369.5C489.5 363.5 479.5 350 470.5 356.5C459.5 363 345.5 459.5 345.5 459.5L434.5 385.09C434.5 385.09 261.5 175.5 158.5 50.5C126.5 26.5 79 18.5 79 18.5H71L88.5 50.5L45 7.5L2 2C2 2 9 101.5 26.5 167.5C134 326 351 554.5 351 554.5C351 554.5 371.802 537.859 399 515.966M524.5 412.5C524.065 414.242 491.104 441.397 454.03 471.5M524.5 412.5L454.03 471.5M454.03 471.5C454.03 471.5 499 521.5 524.5 558C526 562 521.391 569.069 515 574.5C509.212 579.418 497 583.5 497 583.5C497 583.5 491.532 594.63 485 598C477.365 601.94 465.864 601.5 463 598C440.5 570.5 399 515.966 399 515.966M454.03 471.5C435.535 486.518 416.016 502.27 399 515.966" stroke="black" stroke-width="3"/>
<path d="M446.5 483.5C448 480.5 452.346 476.061 457.5 474C460 473 466.069 472.142 471 472.5C474 472.718 480 474 485 477C488.771 479.263 491.5 484.5 492 491C492.648 499.428 491 512 491 512C488 509.5 487 510 482.5 510L472 513C472 513 466 515.5 462.5 512.5C459.683 510.086 460 505 460 505C460 505 457 505.5 454 503.5C451 501.5 450.5 498 450.5 498C450.5 498 446.5 497 445.5 494C443.849 489.048 445.1 486.3 446.5 483.5Z" fill="#F0E3D3"/>
<path d="M450.5 498C450.5 498 446.5 497 445.5 494C443.849 489.048 445.1 486.3 446.5 483.5C448 480.5 452.346 476.061 457.5 474C460 473 466.069 472.142 471 472.5C474 472.718 480 474 485 477C488.771 479.263 491.5 484.5 492 491C492.648 499.428 491 512 491 512C488 509.5 487 510 482.5 510L472 513C472 513 466 515.5 462.5 512.5C459.683 510.086 460 505 460 505M450.5 498C450.5 498 453.87 491.093 457.5 488.5C462.5 484.928 468 483.5 468 483.5M450.5 498C450.5 498 451 501.5 454 503.5C457 505.5 460 505 460 505M460 505C460 505 464 499.5 468 498C471 496.875 475.5 495.5 475.5 495.5" stroke="black" stroke-width="3"/>
<path d="M379.5 582.5C371.5 538.5 352 534 352 534L348.5 555.5V645.5C348.5 645.5 387.5 626.5 379.5 582.5Z" fill="#BCEFA0" stroke="black" stroke-width="3"/>
<path d="M350.5 703C350.5 694 351.414 689.239 350.5 680.5C341.743 596.78 135 685 135 685L128 714C128 714 132.5 728.5 130.5 739C129.096 746.369 122.738 751.703 121 759C119.188 766.603 125.839 768.615 124 774.5C121.5 782.5 116.5 782.5 117 788.5C117.617 795.908 156.7 806.93 184 811C216.9 815.905 267.5 803.5 267.5 803.5L267.456 802C267.456 802 311 802 330 797C346.232 792.728 365.5 784.732 365.5 776C365.5 771 362.535 766.729 362 759.5C361.556 753.5 363.82 747.959 364.5 739.5C365.179 731.041 361.305 718.305 358 715C355.5 712.5 350.5 708.429 350.5 703Z" fill="#4589DB"/>
<path d="M350.5 680.5C351.414 689.239 350.5 694 350.5 703C350.5 708.429 355.5 712.5 358 715C361.305 718.305 365.179 731.041 364.5 739.5C363.82 747.959 361.556 753.5 362 759.5C362.535 766.729 365.5 771 365.5 776C365.5 784.732 346.232 792.728 330 797C311 802 267.456 802 267.456 802L266.5 769.5L267.5 803.5C267.5 803.5 216.9 815.905 184 811C156.7 806.93 117.617 795.908 117 788.5C116.5 782.5 121.5 782.5 124 774.5C125.839 768.615 119.188 766.603 121 759C122.738 751.703 129.096 746.369 130.5 739C132.5 728.5 128 714 128 714L135 685C135 685 341.743 596.78 350.5 680.5Z" stroke="black" stroke-width="3"/>
<path d="M348.5 653.5V552.5H128.5C128.5 552.5 91.0877 637.971 121.5 675C125.882 680.335 128.734 683.036 134 687.5C171.925 719.654 211.409 700.091 261 696.5C294.586 694.068 346 682 346 682C346 682 354.324 679.332 357 675C359.194 671.449 359.819 668.593 359 664.5C357.835 658.677 348.5 653.5 348.5 653.5Z" fill="#46B4DB" stroke="black" stroke-width="3"/>
<path d="M27.5001 565.5C45.5002 483.5 126 483.5 126 483.5V524.808C126 524.808 145.094 527.27 156 532.5C180.17 544.09 195.262 559.457 199 586C202.676 612.104 194.463 632.516 173.5 648.5C159.803 658.944 134.568 659.802 121.438 659.456L131.5 660C131.5 660 123.338 666.5 126 677C127.901 684.5 134.5 687.5 134.5 687.5L135.5 703C135.5 703 137.5 713.815 126 714C95.0001 714.5 45.5001 672 38.0001 660C30.5002 648 14.5489 624.5 27.5001 565.5Z" fill="#BCEFA0"/>
<path d="M117 522.5L126 524.808M126 524.808C126 524.808 145.095 527.27 156 532.5C180.17 544.09 195.262 559.457 199 586C202.676 612.104 194.463 632.516 173.5 648.5C154.431 663.04 113 659 113 659L131.5 660C131.5 660 123.338 666.5 126 677C127.901 684.5 134.5 687.5 134.5 687.5L135.5 703C135.5 703 137.5 713.815 126 714C95.0001 714.5 45.5001 672 38.0001 660C30.5002 648 14.5489 624.5 27.5001 565.5C45.5002 483.5 126 483.5 126 483.5V524.808Z" stroke="black" stroke-width="3"/>
<path d="M349 469C357.874 500.175 349 552 349 552C349 552 287.99 575.635 247 577C199.54 578.58 131 552 131 552C131 552 120.526 500.54 128 469C133.906 444.075 154.5 409 154.5 409C154.5 409 149.744 388.653 156 378.5C159.922 372.135 163.244 367.801 170.5 366C178.057 364.124 183.09 367.021 189.805 370.888L190 371C199.145 376.264 207 392 207 392L280.5 392.5L268.5 392C268.5 392 265.333 380.835 268.5 375C272.417 367.784 279.295 365.293 287.5 365C297.888 364.629 304.3 370.552 311 378.5C319.491 388.572 318 411.5 318 411.5C318 411.5 342.016 444.464 349 469Z" fill="#F2F2F0" stroke="black" stroke-width="3"/>
<path d="M314.5 883C313.376 874.571 324 874.5 324 874.5C324 874.5 346.05 882.207 359.5 878.5C370.517 875.464 384 862.5 384 862.5C384 862.5 392 861 395.5 868C397.868 877.5 389 882 389 882C389 882 395.906 882.717 397 886C398.667 891 395.5 896.3 391 899C382.088 904.347 374.691 907.462 364.5 909.5C349.5 912.5 338.06 910.744 333.5 909.5C328.94 908.256 325.716 906 324 902C321.856 897 324 892 324 892C324 892 315.5 890.5 314.5 883Z" fill="#F3F3F1" stroke="black" stroke-width="3"/>
<path d="M192.5 489C191.604 449.444 229.473 422.544 268.5 424C305.922 425.396 339.867 451.028 339 489C338.151 526.175 305.139 549.642 268.5 551C230.223 552.418 193.379 527.792 192.5 489Z" fill="#F0E3D3" stroke="black" stroke-width="3"/>
<path d="M84 574.5C95 569.211 130.366 556.604 151 569.5C159 574.5 162.659 582.888 162 593C161.421 601.895 157.657 607.072 151 613C144.796 618.524 131.5 621.5 131.5 621.5V610.808C131.5 610.808 125.551 611.626 122 613C106.5 619 98.4616 624.5 91.5001 634C84.5386 643.5 80.5 647 80.5 659.5C80.5 667.149 83.5001 671 86 676C88.7498 681.5 93.5 687.5 93.5 692.5C93.5 696.5 92.0001 698.587 88 700C83.0977 701.732 77 692.5 77 692.5C77 692.5 77.8862 712.08 70 711.5C63.115 710.993 61.5 696 61.5 696C61.5 696 60.5001 711.5 54 711.5C49.8342 711.5 48.562 705.974 48.2739 700.883C47.8368 704.428 46.8104 707.796 44.5 708C40.6637 708.338 38.1818 706 36 703C32.0001 697.5 30.9843 686.756 30 676C28.7189 662 30.1343 638.837 40.5 618.5C51.4725 596.972 62.2239 584.971 84 574.5Z" fill="#F0E3D3"/>
<path d="M148 607L131.5 610.808M131.5 610.808C131.5 610.808 125.551 611.626 122 613C106.5 619 98.4616 624.5 91.5001 634C84.5386 643.5 80.5 647 80.5 659.5C80.5 667.149 83.5001 671 86 676C88.7498 681.5 93.5 687.5 93.5 692.5C93.5 696.5 92.0001 698.587 88 700C83.0977 701.732 77 692.5 77 692.5C77 692.5 77.8862 712.08 70 711.5C63.115 710.993 61.5 696 61.5 696C61.5 696 60.5001 711.5 54 711.5C46.2754 711.5 48.5 692.5 48.5 692.5C48.5 692.5 49.4663 707.563 44.5 708C40.6637 708.338 38.1818 706 36 703C32.0001 697.5 30.9843 686.756 30 676C28.7189 662 30.1343 638.837 40.5 618.5C51.4725 596.972 62.2239 584.971 84 574.5C95 569.211 130.366 556.604 151 569.5C159 574.5 162.659 582.888 162 593C161.421 601.895 157.657 607.072 151 613C144.796 618.524 131.5 621.5 131.5 621.5V610.808Z" stroke="black" stroke-width="3"/>
<path d="M282 500C272.337 500.188 266.724 499.386 257.5 496.5L255.5 518.5C263.329 526.939 272 530.5 283.5 530C295 529.5 302.647 524.912 308.5 515L303.5 496.5C295.382 499.04 290.505 499.834 282 500Z" fill="#8E6D7C"/>
<path d="M257.5 496.5C266.724 499.386 272.337 500.188 282 500C290.505 499.834 295.382 499.04 303.5 496.5M257.5 496.5C256.719 505.091 256.281 509.908 255.5 518.5M257.5 496.5C255.743 493.766 253 489.5 253 489.5M303.5 496.5C305.453 503.725 306.548 507.775 308.5 515M303.5 496.5C304.281 493.766 304.719 492.234 305.5 489.5M308.5 515C302.647 524.912 295 529.5 283.5 530C272 530.5 263.329 526.939 255.5 518.5M308.5 515C310.843 516.367 314.5 518.5 314.5 518.5M255.5 518.5C253.547 520.257 250.5 523 250.5 523" stroke="black" stroke-width="3"/>
<path d="M294 505C292.205 503.757 293 499.5 293 499.5L298.5 498.5C298.5 498.5 299.587 503.555 297.5 505C296.055 506 295.445 506 294 505Z" fill="#F2F2F0"/>
<path d="M275 500.5C275 500.5 275.071 505.481 273 507C271.268 508.27 271.226 508.278 269.5 507C267.297 505.369 268 500 268 500L265.5 499.5C265.5 499.5 266.49 506.499 263.5 507C261.855 507.276 261.733 506.623 260.5 505.5C258.186 503.392 259 497.5 259 497.5L265.5 499.5L268 500L275 500.5Z" fill="#F2F2F0"/>
<path d="M268 500C268 500 267.297 505.369 269.5 507C271.226 508.278 271.268 508.27 273 507C275.071 505.481 275 500.5 275 500.5L268 500ZM268 500L265.5 499.5M265.5 499.5C265.5 499.5 266.49 506.499 263.5 507C261.855 507.276 261.733 506.623 260.5 505.5C258.186 503.392 259 497.5 259 497.5L265.5 499.5ZM293 499.5C293 499.5 292.205 503.757 294 505C295.445 506 296.055 506 297.5 505C299.587 503.555 298.5 498.5 298.5 498.5L293 499.5Z" stroke="black" stroke-width="3"/>
<path d="M113.5 921.5C119.5 916 132.5 911.5 142.5 909C142.5 909 157.296 916.016 167.5 917.5C182.097 919.622 205 913 205 913C205 913 207.118 926.779 203.5 935C198 947.5 178.452 957.767 162 962C145.548 966.233 129 966.5 118.5 962C109.837 958.287 105.215 950.5 104.5 945C103.273 935.56 107.501 927 113.5 921.5Z" fill="#454545" stroke="black" stroke-width="3"/>
<path d="M336.5 936C330.703 926.338 331.5 909.5 331.5 909.5C331.5 909.5 353.175 912.544 366.5 909.5C377.498 906.988 393 898 393 898C393 898 409.364 900.516 418.5 906C427.871 911.625 435.5 920.5 436.5 925.5C437.556 930.781 438.04 937.809 433.5 944C428 951.5 412.5 957.684 404.5 959C398 960.069 381.211 959.421 370.5 956.5C359.5 953.5 342.8 946.5 336.5 936Z" fill="#454545" stroke="black" stroke-width="3"/>
<path d="M247.634 471.729C248.113 469.009 249.686 466.16 252.423 466.527C254.785 466.844 255.673 469.038 256.126 471.378C256.776 474.731 255.356 479.089 251.94 479.058C248.621 479.027 247.058 474.998 247.634 471.729Z" fill="black" stroke="black" stroke-width="3"/>
<path d="M302.889 468.905C303.368 466.185 304.942 463.335 307.678 463.703C310.041 464.02 310.928 466.214 311.382 468.554C312.032 471.907 310.611 476.265 307.195 476.233C303.876 476.203 302.313 472.174 302.889 468.905Z" fill="black" stroke="black" stroke-width="3"/>
<path d="M68 122.5L162.5 239" stroke="black" stroke-width="3" stroke-linecap="round"/>
<path d="M143.5 113.5L220 212.5" stroke="black" stroke-width="3" stroke-linecap="round"/>
<path d="M390.5 385L407.5 409.5" stroke="black" stroke-width="3" stroke-linecap="round"/>
<path d="M384.5 465.5L428.5 423.5" stroke="black" stroke-width="3" stroke-linecap="round"/>
<path d="M426 513L447 540.5" stroke="black" stroke-width="3" stroke-linecap="round"/>
<path d="M456 533L468.5 548" stroke="black" stroke-width="3" stroke-linecap="round"/>
<path d="M17.5 100L50.5 136.5" stroke="black" stroke-width="3" stroke-linecap="round"/>
<path d="M250 673C250 673 269.565 674.239 282 673C291.871 672.016 307 668.5 307 668.5" stroke="black" stroke-width="3" stroke-linecap="round"/>
<path d="M235 747.5C235 747.5 244.264 751.704 249.5 755.5C254.2 758.908 260.5 765.5 260.5 765.5" stroke="black" stroke-width="3" stroke-linecap="round"/>
<path d="M213 506.5C213.136 497.941 219.944 491.267 228.5 491C237.337 490.724 244.86 497.66 245 506.5C245.142 515.475 237.471 522.78 228.5 522.5C219.805 522.228 212.862 515.198 213 506.5Z" fill="#F0AAAD" fill-opacity="0.5"/>
<path d="M312.5 498.5C312.379 491.12 316.62 483.343 324 483.5C331.263 483.655 335.118 491.237 335 498.5C334.885 505.607 331.106 512.847 324 513C316.774 513.156 312.619 505.726 312.5 498.5Z" fill="#F0AAAD" fill-opacity="0.5"/>
<path d="M305 743C305 743 298.154 751.283 292.5 755C288.852 757.399 282.5 760 282.5 760" stroke="black" stroke-width="3" stroke-linecap="round"/>
</g>
</svg>
