<svg width="120" height="120" viewBox="0 0 120 120" fill="none" xmlns="http://www.w3.org/2000/svg">
<path d="M68.8066 73.7469L63.0293 69.0623C63.0293 69.0623 64.3873 67.8576 65.0616 66.9719C65.7359 66.0862 66.4825 64.5263 66.4825 64.5263L72.2598 69.2109L74.2708 74.4012C74.2708 74.4012 74.0324 77.3409 72.6325 77.946C71.4301 78.4656 69.3465 77.2735 69.3465 77.2735L68.8066 73.7469Z" fill="#FFDCC9"/>
<path d="M62.8689 69.4371L55.6268 64.4653L62.3817 58.1906L66.8988 61.3742C66.8988 61.3742 67.5812 62.8005 66.1181 65.6039C64.6549 68.4073 62.8689 69.4371 62.8689 69.4371Z" fill="#40BDCE"/>
<path d="M27.9757 87.7997L26.5983 92.5088L30.8933 95.2487L63.3004 82.0188C63.3004 82.0188 65.3086 82.3062 66.4585 81.8559C67.6084 81.4055 68.3925 80.9622 68.8872 79.8306C69.2369 79.0305 69.0889 77.6037 69.0889 77.6037L76.0723 74.8685C76.0723 74.8685 76.2161 73.8644 75.9909 73.2894C75.7657 72.7145 74.9783 72.0751 74.9783 72.0751L67.9948 74.8103C67.9948 74.8103 67.1344 73.6625 66.3343 73.3128C65.2027 72.8181 64.3261 73.0253 63.1762 73.4757C62.0263 73.9261 60.7475 75.5009 60.7475 75.5009L27.9757 87.7997Z" fill="white"/>
<circle r="2.5" transform="matrix(0.364694 0.931127 0.931127 -0.364694 64.8173 77.6658)" fill="#284DD1"/>
<path d="M82.6249 71.6604L75.618 65.9243C75.618 65.9243 73.8759 68.7899 72.6253 70.5388C71.3747 72.2878 69.314 74.9467 69.314 74.9467L77.1836 80.0505C77.1836 80.0505 79.6742 78.048 80.7433 76.3996C81.8124 74.7511 82.6249 71.6604 82.6249 71.6604Z" fill="#284DD1"/>
<path d="M88.2486 77.6914L82.5002 72.7715C82.5002 72.7715 81.6194 75.0486 80.7432 76.3996C79.8671 77.7505 78.1472 79.4835 78.1472 79.4835L84.7118 83.145C84.7118 83.145 86.1141 82.8205 87.1832 81.1721C88.2523 79.5236 88.2486 77.6914 88.2486 77.6914Z" fill="#FFDCC9"/>
<path d="M89.1333 81.8408C90.2024 80.1923 90.1987 78.3602 90.1987 78.3602C90.1987 78.3602 89.9981 77.6341 89.6318 77.3965C89.2655 77.159 88.5207 77.2719 88.5207 77.2719C88.5207 77.2719 88.3314 79.4016 87.4553 80.7526C86.5791 82.1035 84.4398 83.5644 84.4398 83.5644C84.4398 83.5644 84.6404 84.2905 85.0067 84.5281C85.373 84.7657 86.1178 84.6527 86.1178 84.6527C86.1178 84.6527 88.0642 83.4893 89.1333 81.8408Z" fill="white"/>
<path d="M92.3009 84.5381C94.0434 82.0961 94.0434 82.0961 94.2173 80.9917C94.3911 79.8873 92.0657 78.8421 92.0657 78.8421L90.1987 78.3602C90.1987 78.3602 89.7374 80.9094 88.8612 82.2603C87.9851 83.6112 86.1178 84.6527 86.1178 84.6527C86.1178 84.6527 83.692 90.2308 83.5674 91.3419C83.4428 92.453 84.2262 94.1324 85.9115 93.4923L92.3009 84.5382L92.3009 84.5381Z" fill="black"/>
<path d="M50.2225 85.3013L56.202 78.5009C56.202 78.5009 53.3996 76.6589 51.6958 75.3474C49.992 74.036 47.4074 71.8828 47.4074 71.8828L42.0294 79.5678C42.0294 79.5678 43.9429 82.1273 45.5526 83.2538C47.1624 84.3804 50.2225 85.3013 50.2225 85.3013Z" fill="#284DD1"/>
<path d="M43.9971 90.709L49.1165 85.1376C49.1165 85.1376 46.8718 84.177 45.5526 83.2538C44.2334 82.3306 42.5621 80.5508 42.5621 80.5508L38.6716 86.9822C38.6716 86.9822 38.9464 88.3951 40.5561 89.5216C42.1659 90.6481 43.9971 90.709 43.9971 90.709Z" fill="#FFDCC9"/>
<path d="M39.8191 91.4469C41.4288 92.5734 43.26 92.6343 43.26 92.6343C43.26 92.6343 43.9927 92.4594 44.243 92.1017C44.4934 91.744 44.4067 90.9957 44.4067 90.9957C44.4067 90.9957 42.285 90.7315 40.9658 89.8083C39.6466 88.8851 38.2619 86.6955 38.2619 86.6955C38.2619 86.6955 37.5292 86.8705 37.2789 87.2282C37.0286 87.5859 37.1152 88.3342 37.1152 88.3342C37.1152 88.3342 38.2093 90.3204 39.8191 91.4469Z" fill="white"/>
<path d="M37.0119 94.5175C39.3909 96.345 39.3909 96.345 40.4885 96.5576C41.5861 96.7703 42.7126 94.4831 42.7126 94.4831L43.26 92.6343C43.26 92.6343 40.7287 92.0834 39.4094 91.1602C38.0902 90.237 37.1152 88.3342 37.1152 88.3342C37.1152 88.3342 31.626 85.7133 30.52 85.5496C29.4141 85.3859 27.708 86.1097 28.2884 87.8165L37.0118 94.5175L37.0119 94.5175Z" fill="black"/>
<path d="M64.3497 20.2675C64.3497 20.2675 51.421 19.0221 43.5587 22.2003C35.6964 25.3786 27.2651 35.2585 27.2651 35.2585L35.9045 61.9673C35.9045 61.9673 50.2694 59.3963 57.4254 56.5036C64.5813 53.6109 76.6976 45.4773 76.6976 45.4773L64.3497 20.2675Z" fill="white"/>
<path d="M46.8659 43.7639C49.0764 50.5949 43.9989 58.337 35.0661 61.2276L27.1763 36.373C36.109 33.4824 44.6555 36.933 46.8659 43.7639Z" fill="#FFDCC9"/>
<path d="M38.1736 22.22L41.1718 29.6369L48.5887 26.6387L45.5905 19.2218C45.5905 19.2218 42.7517 18.2121 41.1325 18.8666C39.5133 19.5212 38.1736 22.22 38.1736 22.22Z" fill="white"/>
<path d="M63.6091 71.801C71.5745 68.5812 82.8814 60.7747 82.8814 60.7747L84.0155 66.2486C84.0155 66.2486 73.7095 73.6505 65.6704 76.9002C57.6313 80.1499 45.0766 81.9891 45.0766 81.9891L42.0883 77.2647C42.0883 77.2647 55.6438 75.0209 63.6091 71.801Z" fill="#284DD1"/>
<ellipse rx="1.5" ry="2.5" transform="matrix(-0.927116 0.374774 0.374774 0.927116 38.1732 47.5675)" fill="black"/>
<path d="M57.4254 56.5036C65.3907 53.2837 76.6976 45.4772 76.6976 45.4772L82.8814 60.7747C82.8814 60.7747 71.6482 68.5514 63.6091 71.801C55.5701 75.0507 42.0883 77.2647 42.0883 77.2647L35.9045 61.9673C35.9045 61.9673 49.46 59.7235 57.4254 56.5036Z" fill="#40BDCE"/>
<path d="M84.8538 66.9883C92.7343 63.8027 94.9412 53.2524 90.8015 43.0118C86.6619 32.7711 77.7434 26.7181 69.8629 29.9037C61.9824 33.0892 59.7927 43.6819 63.9152 53.8802C68.0377 64.0785 76.9733 70.1739 84.8538 66.9883Z" fill="#65E959"/>
<path d="M91.1763 43.9389C95.3159 54.1795 92.2707 63.9901 84.8538 66.9883C77.4369 69.9865 68.4124 65.0056 64.2899 54.8073C64.2899 54.8073 69.3003 53.8606 78.1079 50.3002C86.9155 46.7399 91.1763 43.9389 91.1763 43.9389Z" fill="#278C1E"/>
<path d="M50.8664 65.6267C50.0032 63.4912 49.7626 61.1041 51.2763 58.5967C53.87 54.3005 59.4116 51.595 64.5066 51.8523L64.4587 53.8906C60.2845 53.4386 55.581 55.6141 53.4346 59.1693C52.2395 61.1489 52.0635 63.1814 52.745 64.8673L50.8664 65.6267Z" fill="#65E959"/>
<path d="M71.7801 64.0368C68.7526 69.0517 61.7084 71.8992 56.0464 70.397C53.2154 69.6458 51.7296 67.7621 50.8664 65.6267L52.745 64.8673C53.4265 66.5531 54.9655 67.8924 57.2005 68.4853C61.6705 69.6713 67.2317 67.4233 69.6218 63.4642C69.8492 63.0876 70.0573 62.7019 70.2407 62.3126L72.1034 63.4633C72.0031 63.6547 71.8953 63.846 71.7801 64.0368Z" fill="#65E959"/>
<path d="M56.0464 70.397C61.7084 71.8992 68.7526 69.0517 71.7801 64.0369C71.8953 63.846 72.0031 63.6547 72.1035 63.4633L70.2407 62.3126C70.0574 62.7019 69.8492 63.0876 69.6218 63.4642C67.2317 67.4233 61.6705 69.6713 57.2005 68.4854C54.9655 67.8924 53.4265 66.5531 52.745 64.8673C52.0635 63.1814 52.2396 61.1489 53.4346 59.1694L50.4785 60.3643C49.9123 62.2258 50.2086 63.9993 50.8664 65.6267C51.7296 67.7621 53.2155 69.6458 56.0464 70.397Z" fill="#278C1E"/>
<path d="M48.7151 63.525L56.3014 59.096L59.0946 67.8823L54.2882 70.6096C54.2882 70.6096 52.7071 70.6182 50.7958 68.0989C48.8846 65.5796 48.7151 63.525 48.7151 63.525Z" fill="#40BDCE"/>
<path d="M42.6367 68.3596L49.0417 64.5782C49.0417 64.5782 49.6973 66.2711 50.2923 67.2118C50.8873 68.1526 52.089 69.3963 52.089 69.3963L45.6841 73.1776L40.9905 75.7627C40.9905 75.7627 38.7781 75.1773 38.1042 74.0541C37.4931 73.0356 37.8178 71.0262 37.8178 71.0262L42.6367 68.3596Z" fill="#FFDCC9"/>
</svg>
