<svg width="120" height="120" viewBox="0 0 120 120" fill="none" xmlns="http://www.w3.org/2000/svg">
<path d="M25.3208 75.9574L22.8477 80.195L26.3547 83.8903L60.9965 78.8714C60.9965 78.8714 62.876 79.6349 64.1006 79.4753C65.3252 79.3157 66.1932 79.0748 66.9462 78.096C67.4787 77.4039 67.6794 75.9835 67.6794 75.9835L75.1165 75.0143C75.1165 75.0143 75.4982 74.0746 75.4184 73.4623C75.3387 72.85 74.7288 72.0395 74.7288 72.0395L67.2917 73.0087C67.2917 73.0087 66.7337 71.6872 66.0416 71.1547C65.0628 70.4016 64.1621 70.3912 62.9375 70.5508C61.7129 70.7104 60.0919 71.9301 60.0919 71.9301L25.3208 75.9574Z" fill="white"/>
<circle r="2.5" transform="matrix(0.129232 0.991614 0.991614 -0.129232 63.5191 75.013)" fill="#284DD1"/>
<path d="M69.1711 72.2847L62.945 68.2155C62.945 68.2155 64.1727 66.8783 64.7529 65.9283C65.333 64.9782 65.9162 63.3501 65.9162 63.3501L72.1423 67.4193L74.6736 72.3767C74.6736 72.3767 74.737 75.3255 73.4064 76.0705C72.2634 76.7104 70.0688 75.7376 70.0688 75.7376L69.1711 72.2847Z" fill="#FFDCC9"/>
<path d="M66.8623 86.6436L67.4616 77.6081C67.4616 77.6081 64.1171 77.8545 61.967 77.8523C59.8169 77.8502 56.4555 77.7172 56.4555 77.7172L56.8721 87.0877C56.8721 87.0877 59.9488 87.9519 61.9116 87.8647C63.8745 87.7774 66.8623 86.6436 66.8623 86.6436Z" fill="#284DD1"/>
<path d="M65.2196 94.7245L65.8855 87.1875C65.8855 87.1875 63.5202 87.7931 61.9116 87.8647C60.303 87.9362 57.8934 87.5428 57.8934 87.5428L58.726 95.0132C58.726 95.0132 59.8046 95.9662 61.7674 95.879C63.7303 95.7917 65.2196 94.7245 65.2196 94.7245Z" fill="#FFDCC9"/>
<path d="M62.3558 97.8548C64.3186 97.7675 65.8079 96.7003 65.8079 96.7003C65.8079 96.7003 66.2824 96.1153 66.263 95.6791C66.2436 95.2429 65.7191 94.7023 65.7191 94.7023C65.7191 94.7023 63.8755 95.7852 62.267 95.8568C60.6584 95.9283 58.2265 95.0354 58.2265 95.0354C58.2265 95.0354 57.752 95.6204 57.7714 96.0566C57.7908 96.4928 58.3153 97.0334 58.3153 97.0334C58.3153 97.0334 60.3929 97.942 62.3558 97.8548Z" fill="white"/>
<path d="M62.0001 102C65 102 65 102 66 101.5C67 101 66.5 98.5 66.5 98.5L65.8079 96.7003C65.8079 96.7003 63.4648 97.8055 61.8563 97.877C60.2477 97.9485 58.3153 97.0334 58.3153 97.0334C58.3153 97.0334 52.3656 98.2989 51.3888 98.8428C50.412 99.3868 49.5 101 51 102L62 102L62.0001 102Z" fill="black"/>
<path d="M66.8623 86.6436L67.4616 77.6081C67.4616 77.6081 64.1171 77.8545 61.967 77.8523C59.8169 77.8502 56.4555 77.7172 56.4555 77.7172L56.8721 87.0877C56.8721 87.0877 59.9488 87.9519 61.9116 87.8647C63.8745 87.7774 66.8623 86.6436 66.8623 86.6436Z" fill="#284DD1"/>
<path d="M65.2196 94.7245L65.8855 87.1875C65.8855 87.1875 63.5202 87.7931 61.9116 87.8647C60.303 87.9362 57.8934 87.5428 57.8934 87.5428L58.726 95.0132C58.726 95.0132 59.8046 95.9662 61.7674 95.879C63.7303 95.7917 65.2196 94.7245 65.2196 94.7245Z" fill="#FFDCC9"/>
<path d="M62.3558 97.8548C64.3186 97.7675 65.8079 96.7003 65.8079 96.7003C65.8079 96.7003 66.2824 96.1153 66.263 95.6791C66.2436 95.2429 65.7191 94.7023 65.7191 94.7023C65.7191 94.7023 63.8755 95.7852 62.267 95.8568C60.6584 95.9283 58.2265 95.0354 58.2265 95.0354C58.2265 95.0354 57.752 95.6204 57.7714 96.0566C57.7908 96.4928 58.3153 97.0334 58.3153 97.0334C58.3153 97.0334 60.3929 97.942 62.3558 97.8548Z" fill="white"/>
<path d="M62.0001 102C65 102 65 102 66 101.5C67 101 66.5 98.5 66.5 98.5L65.8079 96.7003C65.8079 96.7003 63.4648 97.8055 61.8563 97.877C60.2477 97.9485 58.3153 97.0334 58.3153 97.0334C58.3153 97.0334 52.3656 98.2989 51.3888 98.8428C50.412 99.3868 49.5 101 51 102L62 102L62.0001 102Z" fill="black"/>
<path d="M81 28C81 28 69.4804 22 61 22C52.5196 22 41 28 41 28L39 56C39 56 53.2815 59 61 59C68.7185 59 83 56 83 56L81 28Z" fill="white"/>
<path d="M56.4686 43.2314C55.9579 50.393 48.349 55.6678 38.9839 55L40.9839 29C50.349 29.6678 56.9793 36.0699 56.4686 43.2314Z" fill="#FFDCC9"/>
<path d="M56 20V28H64V20C64 20 61.7465 18 60 18C58.2535 18 56 20 56 20Z" fill="white"/>
<path d="M61 75.5C69.5915 75.5 83 72.5 83 72.5L82 78C82 78 69.671 81 61 81C52.329 81 40 78 40 78L39 72.5C39 72.5 52.4085 75.5 61 75.5Z" fill="#284DD1"/>
<ellipse rx="1.5" ry="2.5" transform="matrix(-1 0 0 1 46.5 43.5)" fill="black"/>
<path d="M61 59C69.5915 59 83 56 83 56V72.5C83 72.5 69.671 75.5 61 75.5C52.329 75.5 39 72.5 39 72.5V56C39 56 52.4085 59 61 59Z" fill="#40BDCE"/>
<path d="M82.5 79C91 79 97 70.0457 97 59C97 47.9543 91 39 82.5 39C74 39 68 48 68 59C68 70 74 79 82.5 79Z" fill="#65E959"/>
<path d="M97 60C97 71.0457 90.5 79 82.5 79C74.5 79 68 71 68 60C68 60 73 61 82.5 61C92 61 97 60 97 60Z" fill="#278C1E"/>
<path d="M51.5 65C51.5 62.6967 52.1716 60.3934 54.5147 58.636C58.5294 55.625 64.6811 55.1935 69.3083 57.3415L68.5 59.2134C64.7995 57.2299 59.6235 57.4841 56.3011 59.9758C54.4512 61.3632 53.5263 63.1816 53.5263 65H51.5Z" fill="#65E959"/>
<path d="M71.4853 71.364C66.799 74.8787 59.201 74.8787 54.5147 71.364C52.1716 69.6066 51.5 67.3033 51.5 65H53.5263C53.5263 66.8184 54.4512 68.6368 56.3011 70.0242C60.0008 72.799 65.9992 72.799 69.6989 70.0242C70.0509 69.7602 70.3884 69.4806 70.7042 69.1884L72 70.9534C71.8352 71.0933 71.6636 71.2302 71.4853 71.364Z" fill="#65E959"/>
<path d="M54.5147 71.364C59.201 74.8787 66.799 74.8787 71.4853 71.364C71.6636 71.2302 71.8352 71.0933 72 70.9534L70.7042 69.1885C70.3884 69.4807 70.0509 69.7602 69.6989 70.0242C65.9992 72.799 60.0008 72.799 56.3011 70.0242C54.4512 68.6368 53.5263 66.8184 53.5263 65C53.5263 63.1816 54.4512 61.3632 56.3011 59.9758H53.1126C51.89 61.4895 51.5 63.2447 51.5 65C51.5 67.3033 52.1716 69.6066 54.5147 71.364Z" fill="#278C1E"/>
<path d="M54.6944 67.6684L57.4455 59.3259L65.3572 64.0593L63.562 69.2859C63.562 69.2859 62.383 70.3395 59.2825 69.7176C56.182 69.0957 54.6944 67.6684 54.6944 67.6684Z" fill="#40BDCE"/>
<path d="M53.3418 75.3163L55.6366 68.2413C55.6366 68.2413 57.2489 69.0756 58.3178 69.3864C59.3867 69.6973 61.1107 69.8333 61.1107 69.8333L58.8159 76.9083L57.011 81.9535C57.011 81.9535 54.9657 82.9801 53.7169 82.5848C52.5845 82.2263 51.4971 80.5057 51.4971 80.5057L53.3418 75.3163Z" fill="#FFDCC9"/>
</svg>
