<svg width="120" height="120" viewBox="0 0 120 120" fill="none" xmlns="http://www.w3.org/2000/svg">
<path d="M41.8261 79.9354L44.6568 71.3338C44.6568 71.3338 47.6651 72.8157 49.6593 73.6195C51.6535 74.4233 54.8197 75.5597 54.8197 75.5597L50.9217 84.0912C50.9217 84.0912 47.7454 83.7394 45.9583 82.9229C44.1712 82.1063 41.8261 79.9354 41.8261 79.9354Z" fill="#284DD1"/>
<path d="M40.3206 88.043L42.5279 80.8057C42.5279 80.8057 44.4938 82.2537 45.9583 82.9228C47.4229 83.592 49.8043 84.1304 49.8043 84.1304L46.2327 90.7443C46.2327 90.7443 44.8755 91.2236 43.0884 90.4071C41.3014 89.5905 40.3206 88.043 40.3206 88.043Z" fill="#FFDCC9"/>
<path d="M41.8025 92.0184C40.0154 91.2019 39.0346 89.6543 39.0346 89.6543C39.0346 89.6543 38.814 88.9341 38.9954 88.537C39.1769 88.1398 39.8658 87.8352 39.8658 87.8352C39.8658 87.8352 41.1691 89.5301 42.6337 90.1993C44.0982 90.8684 46.6875 90.952 46.6875 90.952C46.6875 90.952 46.9081 91.6723 46.7267 92.0694C46.5452 92.4665 45.8563 92.7712 45.8563 92.7712C45.8563 92.7712 43.5896 92.8349 41.8025 92.0184Z" fill="white"/>
<path d="M40.5787 95.9948C37.7975 94.8705 37.7975 94.8705 37.0577 94.0322C36.318 93.1938 37.7185 91.0634 37.7185 91.0634L39.0346 89.6543C39.0346 89.6543 40.7927 91.557 42.2573 92.2262C43.7218 92.8953 45.8563 92.7712 45.8563 92.7712C45.8563 92.7712 50.8981 96.1742 51.5998 97.0445C52.3016 97.9149 52.5425 99.7524 50.7771 100.117L40.5788 95.9948L40.5787 95.9948Z" fill="black"/>
<path d="M48.1413 86.3346L47.6417 77.293C47.6417 77.293 50.9833 77.5763 53.1333 77.5979C55.2833 77.6195 58.6459 77.5236 58.6459 77.5236L58.1259 86.889C58.1259 86.889 55.0399 87.7192 53.0782 87.6102C51.1164 87.5013 48.1413 86.3346 48.1413 86.3346Z" fill="#284DD1"/>
<path d="M49.6947 94.4331L49.112 86.8892C49.112 86.8892 51.4705 87.521 53.0782 87.6102C54.6859 87.6995 57.0997 87.3327 57.0997 87.3327L56.1847 94.7935C56.1847 94.7935 55.0957 95.7346 53.1339 95.6256C51.1722 95.5167 49.6947 94.4331 49.6947 94.4331Z" fill="#FFDCC9"/>
<path d="M52.5238 97.5948C50.5621 97.4859 49.0846 96.4023 49.0846 96.4023C49.0846 96.4023 48.6166 95.8121 48.6408 95.3762C48.665 94.9402 49.1955 94.4054 49.1955 94.4054C49.1955 94.4054 51.027 95.5086 52.6347 95.5979C54.2424 95.6872 56.684 94.8212 56.684 94.8212C56.684 94.8212 57.152 95.4114 57.1278 95.8474C57.1036 96.2833 56.5731 96.8181 56.5731 96.8181C56.5731 96.8181 54.4856 97.7038 52.5238 97.5948Z" fill="white"/>
<path d="M52.8337 101.744C49.834 101.711 49.834 101.711 48.8396 101.2C47.8452 100.689 48.3727 98.1943 48.3727 98.1943L49.0846 96.4023C49.0846 96.4023 51.4153 97.5333 53.023 97.6225C54.6307 97.7118 56.5731 96.8181 56.5731 96.8181C56.5731 96.8181 62.5084 98.1492 63.4792 98.7038C64.4499 99.2585 65.3441 100.882 63.8332 101.865L52.8338 101.744L52.8337 101.744Z" fill="black"/>
<path d="M50.6969 20.2675C50.6969 20.2675 63.6255 19.0221 71.4878 22.2003C79.3501 25.3785 87.7815 35.2585 87.7815 35.2585L79.1421 61.9673C79.1421 61.9673 64.7771 59.3963 57.6212 56.5036C50.4653 53.6109 38.349 45.4772 38.349 45.4772L50.6969 20.2675Z" fill="white"/>
<path d="M68.1806 43.7639C65.9701 50.5949 71.0476 58.3369 79.9804 61.2276L87.8703 36.373C78.9375 33.4824 70.3911 36.933 68.1806 43.7639Z" fill="#FFDCC9"/>
<path d="M76.873 22.2199L73.8748 29.6369L66.4578 26.6387L69.456 19.2217C69.456 19.2217 72.2949 18.2121 73.914 18.8666C75.5332 19.5211 76.873 22.2199 76.873 22.2199Z" fill="white"/>
<path d="M51.4374 71.801C43.4721 68.5811 32.1652 60.7747 32.1652 60.7747L31.0311 66.2486C31.0311 66.2486 41.3371 73.6505 49.3762 76.9002C57.4153 80.1499 69.97 81.9891 69.97 81.9891L72.9583 77.2647C72.9583 77.2647 59.4028 75.0209 51.4374 71.801Z" fill="#284DD1"/>
<ellipse cx="76.8734" cy="47.5675" rx="1.5" ry="2.5" transform="rotate(22.0103 76.8734 47.5675)" fill="black"/>
<path d="M57.6212 56.5036C49.6559 53.2837 38.349 45.4772 38.349 45.4772L32.1652 60.7747C32.1652 60.7747 43.3984 68.5513 51.4374 71.801C59.4765 75.0507 72.9583 77.2647 72.9583 77.2647L79.1421 61.9673C79.1421 61.9673 65.5866 59.7235 57.6212 56.5036Z" fill="#40BDCE"/>
<path d="M30.1927 66.9883C22.3122 63.8027 20.1054 53.2524 24.245 43.0117C28.3847 32.7711 37.3032 26.7181 45.1837 29.9036C53.0642 33.0892 55.2539 43.6819 51.1314 53.8802C47.0089 64.0785 38.0732 70.1739 30.1927 66.9883Z" fill="#65E959"/>
<path d="M23.8702 43.9389C19.7306 54.1795 22.7758 63.9901 30.1927 66.9883C37.6097 69.9865 46.6341 65.0056 50.7566 54.8073C50.7566 54.8073 45.7463 53.8605 36.9387 50.3002C28.131 46.7398 23.8702 43.9389 23.8702 43.9389Z" fill="#278C1E"/>
<path d="M64.1802 65.6267C65.0434 63.4912 65.284 61.1041 63.7702 58.5967C61.1766 54.3005 55.635 51.595 50.54 51.8523L50.5879 53.8906C54.762 53.4386 59.4656 55.614 61.6119 59.1693C62.807 61.1489 62.983 63.1814 62.3015 64.8672L64.1802 65.6267Z" fill="#65E959"/>
<path d="M43.2664 64.0368C46.2939 69.0517 53.3382 71.8992 59.0001 70.397C61.8311 69.6458 63.3169 67.7621 64.1802 65.6267L62.3015 64.8672C61.62 66.5531 60.081 67.8923 57.8461 68.4853C53.3761 69.6713 47.8149 67.4233 45.4247 63.4642C45.1974 63.0876 44.9892 62.7019 44.8059 62.3126L42.9431 63.4633C43.0435 63.6547 43.1512 63.846 43.2664 64.0368Z" fill="#65E959"/>
<path d="M59.0001 70.397C53.3382 71.8992 46.2939 69.0517 43.2664 64.0368C43.1512 63.846 43.0435 63.6547 42.9431 63.4633L44.8059 62.3126C44.9892 62.7019 45.1973 63.0876 45.4247 63.4642C47.8149 67.4233 53.3761 69.6713 57.8461 68.4853C60.081 67.8923 61.62 66.5531 62.3015 64.8672C62.983 63.1814 62.807 61.1489 61.6119 59.1693L64.568 60.3643C65.1342 62.2258 64.838 63.9993 64.1802 65.6267C63.3169 67.7621 61.8311 69.6458 59.0001 70.397Z" fill="#278C1E"/>
<path d="M98.7648 64.5674L102.455 67.8014L100.301 72.4185L65.8568 78.6496C65.8568 78.6496 64.3166 79.9699 63.1047 80.2071C61.8927 80.4443 60.9931 80.4911 59.9685 79.8019C59.2439 79.3145 58.603 78.0312 58.603 78.0312L51.2426 79.4715C51.2426 79.4715 50.5824 78.7015 50.4638 78.0955C50.3452 77.4895 50.6664 76.5274 50.6664 76.5274L58.0268 75.087C58.0268 75.087 58.1367 73.6567 58.6241 72.9322C59.3134 71.9075 60.1642 71.6118 61.3762 71.3746C62.5882 71.1375 64.5124 71.7799 64.5124 71.7799L98.7648 64.5674Z" fill="white"/>
<circle cx="62.2404" cy="75.7909" r="2.5" transform="rotate(78.9275 62.2404 75.7909)" fill="#284DD1"/>
<path d="M56.7711 74.6254L59.1313 67.5719C59.1313 67.5719 57.3389 67.2844 56.2946 66.899C55.2503 66.5135 53.7831 65.5981 53.7831 65.5981L51.4229 72.6516L52.5118 78.1103C52.5118 78.1103 54.2909 80.4627 55.7968 80.2219C57.0902 80.015 58.2084 77.8908 58.2084 77.8908L56.7711 74.6254Z" fill="#FFDCC9"/>
</svg>
