<svg width="120" height="120" viewBox="0 0 120 120" fill="none" xmlns="http://www.w3.org/2000/svg">
<g clip-path="url(#clip0)">
<path d="M60 59C68.5915 59 82 56 82 56V72.5C82 72.5 68.671 75.5 60 75.5C51.329 75.5 38 72.5 38 72.5V56C38 56 51.4085 59 60 59Z" fill="#40BDCE"/>
<path d="M80 28C80 28 68.4804 22 60 22C51.5196 22 40 28 40 28L38 56C38 56 52.2815 59 60 59C67.7185 59 82 56 82 56L80 28Z" fill="white"/>
<path d="M60 75.5294C68.5915 75.5294 82 72 82 72L81 78.4706C81 78.4706 68.671 82 60 82C51.329 82 39 78.4706 39 78.4706L38 72C38 72 51.4085 75.5294 60 75.5294Z" fill="#284DD1"/>
<path d="M80 20V28L72 24.5V20C72 20 74.2535 18 76 18C77.7465 18 80 20 80 20Z" fill="white"/>
<path d="M40 20V28L48 24.5V20C48 20 45.7465 18 44 18C42.2535 18 40 20 40 20Z" fill="white"/>
<path d="M80 86.9999L81 77.9999L70 79.9999V86.9999C70 86.9999 73.0352 87.9999 75 87.9999C76.9648 87.9999 80 86.9999 80 86.9999Z" fill="#284DD1"/>
<path d="M78 94.9999L79 87.4999C79 87.4999 76.6102 87.9999 75 87.9999C73.3899 87.9999 71 87.4999 71 87.4999L71.5 94.9999C71.5 94.9999 72.5352 95.9999 74.5 95.9999C76.4648 95.9999 78 94.9999 78 94.9999Z" fill="#FFDCC9"/>
<path d="M75 97.9999C76.9648 97.9999 78.5 96.9999 78.5 96.9999C78.5 96.9999 79 96.4366 79 95.9999C79 95.5633 78.5 94.9999 78.5 94.9999C78.5 94.9999 76.6102 95.9999 75 95.9999C73.3899 95.9999 71 94.9999 71 94.9999C71 94.9999 70.5 95.5633 70.5 95.9999C70.5 96.4366 71 96.9999 71 96.9999C71 96.9999 73.0352 97.9999 75 97.9999Z" fill="white"/>
<path d="M74.5 102C76.4648 102 78.5 101 78.5 101C78.5 101 79 100.437 79 99.9999C79 99.5633 78.5 96.9999 78.5 96.9999C78.5 96.9999 76.1102 97.9999 74.5 97.9999C72.8899 97.9999 71 96.9999 71 96.9999C71 96.9999 70.5 99.5633 70.5 99.9999C70.5 100.437 71 101 71 101C71 101 72.5352 102 74.5 102Z" fill="black"/>
<path d="M40 86.9999L39 77.9999L50 79.9999V86.9999C50 86.9999 46.9648 87.9999 45 87.9999C43.0352 87.9999 40 86.9999 40 86.9999Z" fill="#284DD1"/>
<path d="M42 94.9999L41 87.4999C41 87.4999 43.3899 87.9999 45 87.9999C46.6102 87.9999 49 87.4999 49 87.4999L48.5 94.9999C48.5 94.9999 47.4648 95.9999 45.5 95.9999C43.5352 95.9999 42 94.9999 42 94.9999Z" fill="#FFDCC9"/>
<path d="M45 97.9999C43.0352 97.9999 41.5 96.9999 41.5 96.9999C41.5 96.9999 41 96.4366 41 95.9999C41 95.5633 41.5 94.9999 41.5 94.9999C41.5 94.9999 43.3899 95.9999 45 95.9999C46.6102 95.9999 49 94.9999 49 94.9999C49 94.9999 49.5 95.5633 49.5 95.9999C49.5 96.4366 49 96.9999 49 96.9999C49 96.9999 46.9648 97.9999 45 97.9999Z" fill="white"/>
<path d="M45.5 102C43.5352 102 41.5 101 41.5 101C41.5 101 41 100.437 41 99.9999C41 99.5633 41.5 96.9999 41.5 96.9999C41.5 96.9999 43.8899 97.9999 45.5 97.9999C47.1102 97.9999 49 96.9999 49 96.9999C49 96.9999 49.5 99.5633 49.5 99.9999C49.5 100.437 49 101 49 101C49 101 47.4648 102 45.5 102Z" fill="black"/>
<path d="M75.1877 2.81207L70.3066 2.31287L68.3925 7.03409L87.2885 36.4992C87.2885 36.4992 87.3706 38.5261 88.0224 39.5751C88.6741 40.6241 89.2525 41.3147 90.455 41.5955C91.3054 41.7942 92.6816 41.3894 92.6816 41.3894L96.6397 47.7599C96.6397 47.7599 97.6532 47.7189 98.1777 47.393C98.7022 47.0671 99.1879 46.1767 99.1879 46.1767L95.2298 39.8062C95.2298 39.8062 96.2022 38.7516 96.4008 37.9013C96.6817 36.6987 96.3187 35.8743 95.667 34.8253C95.0152 33.7764 93.2343 32.8049 93.2343 32.8049L75.1877 2.81207Z" fill="white"/>
<circle r="2.5" transform="matrix(-0.849398 0.527753 0.527753 0.849398 91.8447 37.2002)" fill="#284DD1"/>
<path d="M92.342 45.146L87.0976 50.4204C87.0976 50.4204 88.5765 51.4732 89.3414 52.2819C90.1064 53.0906 91.0152 54.5619 91.0152 54.5619L96.2595 49.2876L97.7052 43.9123C97.7052 43.9123 97.1544 41.0148 95.6979 40.5626C94.4469 40.1742 92.5024 41.5819 92.5024 41.5819L92.342 45.146Z" fill="#FFDCC9"/>
<path d="M87.4836 49.2858L79.6671 57.02C79.6671 57.02 81.7592 60.6689 83.729 61.2034C85.6987 61.738 89.4357 58.8798 89.4357 58.8798L92.2775 56.9192C92.2775 56.9192 92.8182 55.4334 91.0896 52.7853C89.3611 50.1373 87.4836 49.2858 87.4836 49.2858Z" fill="#40BDCE"/>
<path d="M29.7537 66.8752L35.5 57.5C35.5 57.5 39.53 58.7042 40.5 60.5C41.4699 62.2958 39.5399 66.5864 39.5399 66.5864L38.2796 69.8006C38.2796 69.8006 36.9564 70.6661 33.9837 69.5875C31.0111 68.5089 29.7537 66.8752 29.7537 66.8752Z" fill="#40BDCE"/>
<path d="M27.245 74.2941L30.4661 67.5899C30.4661 67.5899 31.9523 68.6324 32.9699 69.0835C33.9876 69.5346 35.6779 69.9001 35.6779 69.9001L32.4568 76.6043L29.993 81.3626C29.993 81.3626 27.8286 82.1062 26.644 81.5473C25.5698 81.0406 24.7224 79.1899 24.7224 79.1899L27.245 74.2941Z" fill="#FFDCC9"/>
<ellipse rx="29" ry="20" transform="matrix(-1 0 0 1 60 61)" fill="#65E959"/>
<path d="M60 81C43.9837 81 31 73.0457 31 62H89C89 73.0457 76.0163 81 60 81Z" fill="#278C1E"/>
</g>
<defs>
<clipPath id="clip0">
<rect width="120" height="120" fill="white" transform="matrix(-1 0 0 1 120 0)"/>
</clipPath>
</defs>
</svg>
