<svg width="120" height="120" viewBox="0 0 120 120" fill="none" xmlns="http://www.w3.org/2000/svg">
<ellipse cx="60" cy="64" rx="29" ry="20" fill="#65E959"/>
<path d="M60 84C76.0163 84 89 76.0457 89 65H31C31 76.0457 43.9837 84 60 84Z" fill="#278C1E"/>
<path d="M60 62C51.4085 62 38 59 38 59V75.5C38 75.5 51.3289 78.5 60 78.5C68.671 78.5 82 75.5 82 75.5V59C82 59 68.5915 62 60 62Z" fill="#40BDCE"/>
<path d="M40 31C40 31 51.5196 25 60 25C68.4804 25 80 31 80 31L82 59C82 59 67.7185 62 60 62C52.2815 62 38 59 38 59L40 31Z" fill="white"/>
<ellipse cx="60" cy="44" rx="17" ry="13" fill="#FFDCC9"/>
<path d="M60 78.0294C51.4085 78.0294 38 74.5 38 74.5L39 80.9706C39 80.9706 51.329 84.5 60 84.5C68.671 84.5 81 80.9706 81 80.9706L82 74.5C82 74.5 68.5915 78.0294 60 78.0294Z" fill="#284DD1"/>
<path d="M40 23V31L48 27.5V23C48 23 45.7465 21 44 21C42.2535 21 40 23 40 23Z" fill="white"/>
<path d="M80 23V31L72 27.5V23C72 23 74.2535 21 76 21C77.7465 21 80 23 80 23Z" fill="white"/>
<path d="M40 88.125L39 81L50 82.5833V88.125C50 88.125 46.9648 88.9167 45 88.9167C43.0352 88.9167 40 88.125 40 88.125Z" fill="#284DD1"/>
<path d="M42 94.4584L41 88.5208C41 88.5208 43.3898 88.9167 45 88.9167C46.6101 88.9167 49 88.5208 49 88.5208L48.5 94.4584C48.5 94.4584 47.4648 95.25 45.5 95.25C43.5352 95.25 42 94.4584 42 94.4584Z" fill="#FFDCC9"/>
<path d="M45 96.8333C43.0352 96.8333 41.5 96.0417 41.5 96.0417C41.5 96.0417 41 95.5957 41 95.25C41 94.9043 41.5 94.4583 41.5 94.4583C41.5 94.4583 43.3898 95.25 45 95.25C46.6101 95.25 49 94.4583 49 94.4583C49 94.4583 49.5 94.9043 49.5 95.25C49.5 95.5957 49 96.0417 49 96.0417C49 96.0417 46.9648 96.8333 45 96.8333Z" fill="white"/>
<path d="M45.5 100C43.5352 100 41.5 99.2084 41.5 99.2084C41.5 99.2084 41 98.7624 41 98.4167C41 98.071 41.5 96.0417 41.5 96.0417C41.5 96.0417 43.8898 96.8334 45.5 96.8334C47.1101 96.8334 49 96.0417 49 96.0417C49 96.0417 49.5 98.071 49.5 98.4167C49.5 98.7624 49 99.2084 49 99.2084C49 99.2084 47.4648 100 45.5 100Z" fill="black"/>
<path d="M77.5409 87.4033L80.9175 81.05L70.0393 78.7756L68.1439 83.9831C68.1439 83.9831 70.7253 85.7651 72.5716 86.4371C74.4179 87.1091 77.5409 87.4033 77.5409 87.4033Z" fill="#284DD1"/>
<path d="M73.4953 92.6707L76.4658 87.4333C76.4658 87.4333 74.0847 86.9878 72.5716 86.4371C71.0586 85.8864 68.9483 84.6971 68.9483 84.6971L67.3873 90.4475C67.3873 90.4475 68.0894 91.5455 69.9357 92.2175C71.782 92.8895 73.4953 92.6707 73.4953 92.6707Z" fill="#FFDCC9"/>
<path d="M69.864 93.8764C71.7103 94.5484 73.4237 94.3295 73.4237 94.3295C73.4237 94.3295 74.0461 94.0814 74.1643 93.7566C74.2825 93.4318 73.9652 92.8417 73.9652 92.8417C73.9652 92.8417 71.9186 92.9392 70.4055 92.3885C68.8924 91.8378 66.9175 90.2765 66.9175 90.2765C66.9175 90.2765 66.2951 90.5246 66.1769 90.8494C66.0587 91.1742 66.376 91.7644 66.376 91.7644C66.376 91.7644 68.0177 93.2044 69.864 93.8764Z" fill="white"/>
<path d="M68.3111 96.6811C70.1574 97.3531 72.3406 97.3052 72.3406 97.3052C72.3406 97.3052 72.963 97.0571 73.0812 96.7323C73.1994 96.4075 73.4237 94.3295 73.4237 94.3295C73.4237 94.3295 70.9072 94.2561 69.3941 93.7054C67.8811 93.1546 66.376 91.7644 66.376 91.7644C66.376 91.7644 65.212 93.5003 65.0938 93.8251C64.9756 94.1499 65.2929 94.7401 65.2929 94.7401C65.2929 94.7401 66.4648 96.0091 68.3111 96.6811Z" fill="black"/>
<ellipse cx="51.5" cy="42.5" rx="1.5" ry="2.5" fill="black"/>
<ellipse cx="68.5" cy="42.5" rx="1.5" ry="2.5" fill="black"/>
<path d="M27.3255 75.6155L31.264 69.3059C31.264 69.3059 32.6265 70.5055 33.5885 71.0657C34.5504 71.6259 36.1903 72.175 36.1903 72.175L32.2518 78.4846L27.3483 81.1187C27.3483 81.1187 24.4015 81.2436 23.6289 79.9288C22.9653 78.7995 23.8921 76.585 23.8921 76.585L27.3255 75.6155Z" fill="#FFDCC9"/>
<path d="M30.2475 69.9406L35.9938 60.5654C35.9938 60.5654 40.0238 61.7696 40.9938 63.5654C41.9638 65.3612 40.0337 69.6518 40.0337 69.6518L38.7734 72.8661C38.7734 72.8661 37.4502 73.7315 34.4776 72.6529C31.5049 71.5743 30.2475 69.9406 30.2475 69.9406Z" fill="#40BDCE"/>
<path d="M91.3655 67.8478L82.7598 61.0026C82.7598 61.0026 79.3845 63.5123 79.087 65.5315C78.7896 67.5507 82.0704 70.9227 82.0704 70.9227L84.3538 73.5123C84.3538 73.5123 85.8932 73.8731 88.3178 71.843C90.7425 69.813 91.3655 67.8478 91.3655 67.8478Z" fill="#40BDCE"/>
<path d="M96.2597 73.9617L90.9404 68.763C90.9404 68.763 89.9003 70.2509 89.0982 71.0228C88.2961 71.7947 86.8327 72.7161 86.8327 72.7161L92.152 77.9148L96.0944 81.5438C96.0944 81.5438 98.3825 81.5025 99.3047 80.5722C100.141 79.7287 100.304 77.6999 100.304 77.6999L96.2597 73.9617Z" fill="#FFDCC9"/>
<path d="M14.5865 34.4591L17.8695 30.8128L22.4574 33.0275L28.2289 67.552C28.2289 67.552 29.5286 69.1096 29.7496 70.3246C29.9706 71.5396 30.0055 72.4397 29.3026 73.4551C28.8056 74.1731 27.5139 74.7969 27.5139 74.7969L28.856 82.1758C28.856 82.1758 28.0772 82.8257 27.4697 82.9362C26.8622 83.0467 25.9045 82.7127 25.9045 82.7127L24.5623 75.3338C24.5623 75.3338 23.1336 75.2048 22.4156 74.7078C21.4002 74.0049 21.1159 73.1502 20.8949 71.9352C20.6739 70.7202 21.3419 68.8047 21.3419 68.8047L14.5865 34.4591Z" fill="white"/>
<circle cx="25.3223" cy="71.1299" r="2.5" transform="rotate(-10.3089 25.3223 71.1299)" fill="#284DD1"/>
<path d="M80.7 72.5C79.3666 70.5 79 68.5 79 66H81C81 67.5 81.5 69.9 82.5 71.4C82.8063 71.8595 84.3 73.5 84.3 73.5L82.8 75C82.8 75 82.2 74.5 80.7 72.5Z" fill="#278C1E"/>
<path d="M81 60.5C80 62 79 64 79 66.5H81C81 65 81.4046 63.3855 83 61.5C83.3567 61.0784 83.8 60.5 83.8 60.5L82.3 59C82.3 59 81.4595 59.8107 81 60.5Z" fill="#65E959"/>
<path d="M39.1 73C40.4334 71 40.8 69 40.8 66.4999H38.8C38.8 68 38.3 70.4 37.3 71.9C36.9936 72.3595 35.5 74 35.5 74L37 75.5C37 75.5 37.6 75 39.1 73Z" fill="#278C1E"/>
<path d="M38.8 60.5C39.8 62 40.8 64 40.8 66.5H38.8C38.8 65 38.3954 63.3855 36.8 61.5C36.4433 61.0784 36 60.5 36 60.5L37.5 59C37.5 59 38.3405 59.8107 38.8 60.5Z" fill="#65E959"/>
</svg>
