<svg width="120" height="120" viewBox="0 0 120 120" fill="none" xmlns="http://www.w3.org/2000/svg">
<ellipse cx="60.4423" cy="64" rx="29" ry="20" fill="#65E959"/>
<path d="M60.4423 84C76.4585 84 89.4423 76.0457 89.4423 65H31.4423C31.4423 76.0457 44.426 84 60.4423 84Z" fill="#278C1E"/>
<path d="M60.4423 62C51.8507 62 38.4423 59 38.4423 59V75.5C38.4423 75.5 51.7712 78.5 60.4423 78.5C69.1133 78.5 82.4423 75.5 82.4423 75.5V59C82.4423 59 69.0338 62 60.4423 62Z" fill="#40BDCE"/>
<path d="M40.4423 31C40.4423 31 51.9619 25 60.4423 25C68.9227 25 80.4423 31 80.4423 31L82.4423 59C82.4423 59 68.1608 62 60.4423 62C52.7238 62 38.4423 59 38.4423 59L40.4423 31Z" fill="white"/>
<ellipse cx="60.4423" cy="44" rx="17" ry="13" fill="#FFDCC9"/>
<path d="M60.4423 78.0294C51.8507 78.0294 38.4423 74.5 38.4423 74.5L39.4423 80.9706C39.4423 80.9706 51.7712 84.5 60.4423 84.5C69.1133 84.5 81.4423 80.9706 81.4423 80.9706L82.4423 74.5C82.4423 74.5 69.0338 78.0294 60.4423 78.0294Z" fill="#284DD1"/>
<path d="M40.4423 23V31L48.4423 27.5V23C48.4423 23 46.1887 21 44.4423 21C42.6958 21 40.4423 23 40.4423 23Z" fill="white"/>
<path d="M80.4423 23V31L72.4423 27.5V23C72.4423 23 74.6958 21 76.4423 21C78.1887 21 80.4423 23 80.4423 23Z" fill="white"/>
<path d="M77.9831 87.4033L81.3597 81.05L70.4816 78.7756L68.5862 83.9831C68.5862 83.9831 71.1676 85.7652 73.0139 86.4372C74.8602 87.1091 77.9831 87.4033 77.9831 87.4033Z" fill="#284DD1"/>
<path d="M73.9376 92.6707L76.9081 87.4333C76.9081 87.4333 74.527 86.9879 73.0139 86.4372C71.5008 85.8865 69.3905 84.6971 69.3905 84.6971L67.8296 90.4476C67.8296 90.4476 68.5316 91.5456 70.3779 92.2176C72.2242 92.8896 73.9376 92.6707 73.9376 92.6707Z" fill="#FFDCC9"/>
<path d="M70.3062 93.8764C72.1525 94.5484 73.8659 94.3296 73.8659 94.3296C73.8659 94.3296 74.4883 94.0815 74.6066 93.7566C74.7248 93.4318 74.4075 92.8417 74.4075 92.8417C74.4075 92.8417 72.3608 92.9393 70.8478 92.3886C69.3347 91.8378 67.3598 90.2766 67.3598 90.2766C67.3598 90.2766 66.7374 90.5247 66.6192 90.8495C66.5009 91.1743 66.8182 91.7644 66.8182 91.7644C66.8182 91.7644 68.4599 93.2044 70.3062 93.8764Z" fill="white"/>
<path d="M68.7533 96.6811C70.5996 97.3531 72.7829 97.3053 72.7829 97.3053C72.7829 97.3053 73.4053 97.0572 73.5235 96.7323C73.6417 96.4075 73.8659 94.3296 73.8659 94.3296C73.8659 94.3296 71.3495 94.2561 69.8364 93.7054C68.3233 93.1547 66.8182 91.7644 66.8182 91.7644C66.8182 91.7644 65.6543 93.5004 65.5361 93.8252C65.4179 94.15 65.7352 94.7401 65.7352 94.7401C65.7352 94.7401 66.907 96.0091 68.7533 96.6811Z" fill="black"/>
<path d="M42.9013 87.4033L39.5247 81.05L50.4029 78.7756L52.2983 83.9831C52.2983 83.9831 49.7169 85.7652 47.8706 86.4372C46.0243 87.1091 42.9013 87.4033 42.9013 87.4033Z" fill="#284DD1"/>
<path d="M46.9469 92.6707L43.9764 87.4333C43.9764 87.4333 46.3575 86.9879 47.8706 86.4372C49.3836 85.8865 51.494 84.6971 51.494 84.6971L53.0549 90.4476C53.0549 90.4476 52.3528 91.5456 50.5065 92.2176C48.6603 92.8896 46.9469 92.6707 46.9469 92.6707Z" fill="#FFDCC9"/>
<path d="M50.5782 93.8764C48.7319 94.5484 47.0185 94.3296 47.0185 94.3296C47.0185 94.3296 46.3961 94.0815 46.2779 93.7566C46.1597 93.4318 46.477 92.8417 46.477 92.8417C46.477 92.8417 48.5236 92.9393 50.0367 92.3886C51.5498 91.8378 53.5247 90.2766 53.5247 90.2766C53.5247 90.2766 54.1471 90.5247 54.2653 90.8495C54.3835 91.1743 54.0662 91.7644 54.0662 91.7644C54.0662 91.7644 52.4245 93.2044 50.5782 93.8764Z" fill="white"/>
<path d="M52.1311 96.6811C50.2848 97.3531 48.1016 97.3053 48.1016 97.3053C48.1016 97.3053 47.4792 97.0572 47.361 96.7323C47.2428 96.4075 47.0185 94.3296 47.0185 94.3296C47.0185 94.3296 49.535 94.2561 51.0481 93.7054C52.5611 93.1547 54.0662 91.7644 54.0662 91.7644C54.0662 91.7644 55.2302 93.5004 55.3484 93.8252C55.4666 94.15 55.1493 94.7401 55.1493 94.7401C55.1493 94.7401 53.9774 96.0091 52.1311 96.6811Z" fill="black"/>
<ellipse cx="51.9423" cy="42.5" rx="1.5" ry="2.5" fill="black"/>
<ellipse cx="68.9423" cy="42.5" rx="1.5" ry="2.5" fill="black"/>
<path d="M27.7678 75.629L31.7063 69.3195C31.7063 69.3195 33.0688 70.519 34.0307 71.0792C34.9927 71.6395 36.6325 72.1886 36.6325 72.1886L32.6941 78.4981L27.7906 81.1323C27.7906 81.1323 24.8438 81.2572 24.0712 79.9424C23.4076 78.813 24.3343 76.5986 24.3343 76.5986L27.7678 75.629Z" fill="#FFDCC9"/>
<path d="M30.6898 69.9542L36.4361 60.579C36.4361 60.579 40.4661 61.7832 41.4361 63.579C42.4061 65.3748 40.476 69.6654 40.476 69.6654L39.2157 72.8796C39.2157 72.8796 37.8925 73.7451 34.9198 72.6665C31.9472 71.5879 30.6898 69.9542 30.6898 69.9542Z" fill="#40BDCE"/>
<path d="M90.6886 69.8887L84.9423 60.5135C84.9423 60.5135 80.9122 61.7178 79.9423 63.5136C78.9723 65.3093 80.9024 69.6 80.9024 69.6L82.1626 72.8142C82.1626 72.8142 83.4859 73.6796 86.4585 72.601C89.4312 71.5224 90.6886 69.8887 90.6886 69.8887Z" fill="#40BDCE"/>
<path d="M93.1972 77.3076L89.9761 70.6034C89.9761 70.6034 88.49 71.6459 87.4723 72.097C86.4547 72.5482 84.7643 72.9137 84.7643 72.9137L87.9854 79.6179L90.4492 84.3762C90.4492 84.3762 92.6136 85.1198 93.7983 84.5609C94.8725 84.0541 95.7199 82.2035 95.7199 82.2035L93.1972 77.3076Z" fill="#FFDCC9"/>
<path d="M15.0288 34.4727L18.3117 30.8263L22.8997 33.041L28.6712 67.5655C28.6712 67.5655 29.9709 69.1231 30.1919 70.3381C30.4129 71.5532 30.4478 72.4533 29.7449 73.4687C29.2479 74.1867 27.9561 74.8104 27.9561 74.8104L29.2983 82.1894C29.2983 82.1894 28.5195 82.8392 27.912 82.9497C27.3045 83.0602 26.3467 82.7262 26.3467 82.7262L25.0046 75.3473C25.0046 75.3473 23.5759 75.2184 22.8579 74.7214C21.8425 74.0185 21.5582 73.1638 21.3372 71.9487C21.1162 70.7337 21.7842 68.8182 21.7842 68.8182L15.0288 34.4727Z" fill="white"/>
<circle cx="25.7645" cy="71.1434" r="2.5" transform="rotate(-10.3089 25.7645 71.1434)" fill="#284DD1"/>
<path d="M81.1423 72.5135C79.8089 70.5135 79.4423 68.5135 79.4423 66.0135H81.4423C81.4423 67.5135 81.9423 69.9135 82.9423 71.4135C83.2486 71.8731 84.7423 73.5136 84.7423 73.5136L83.2423 75.0136C83.2423 75.0136 82.6423 74.5135 81.1423 72.5135Z" fill="#278C1E"/>
<path d="M81.4423 60.5136C80.4423 62.0135 79.4423 64.0135 79.4423 66.5136H81.4423C81.4423 65.0135 81.8469 63.3991 83.4423 61.5136C83.799 61.092 84.2423 60.5135 84.2423 60.5135L82.7423 59.0135C82.7423 59.0135 81.9018 59.8243 81.4423 60.5136Z" fill="#65E959"/>
<path d="M39.5423 73.0135C40.8756 71.0135 41.2423 69.0135 41.2423 66.5135H39.2423C39.2423 68.0135 38.7423 70.4135 37.7423 71.9135C37.4359 72.373 35.9423 74.0135 35.9423 74.0135L37.4423 75.5135C37.4423 75.5135 38.0423 75.0135 39.5423 73.0135Z" fill="#278C1E"/>
<path d="M39.2423 60.5136C40.2423 62.0135 41.2423 64.0135 41.2423 66.5136H39.2423C39.2423 65.0135 38.8377 63.3991 37.2423 61.5136C36.8855 61.092 36.4423 60.5135 36.4423 60.5135L37.9423 59.0135C37.9423 59.0135 38.7827 59.8243 39.2423 60.5136Z" fill="#65E959"/>
</svg>
