<svg width="120" height="120" viewBox="0 0 120 120" fill="none" xmlns="http://www.w3.org/2000/svg">
<path d="M23.3877 28.5253L18.5048 28.0447L16.6087 32.7732L35.6172 62.1658C35.6172 62.1658 35.7071 64.1925 36.3628 65.239C37.0186 66.2854 37.5996 66.9738 38.8032 67.2501C39.6543 67.4454 41.0289 67.0355 41.0289 67.0355L45.0114 73.3908C45.0114 73.3908 46.0247 73.3459 46.548 73.018C47.0712 72.6901 47.5535 71.7978 47.5535 71.7978L43.5711 65.4425C43.5711 65.4425 44.5395 64.3842 44.7348 63.5331C45.0111 62.3295 44.645 61.5065 43.9892 60.46C43.3335 59.4135 41.5488 58.4489 41.5488 58.4489L23.3877 28.5253Z" fill="white"/>
<circle r="2.5" transform="matrix(-0.847374 0.530996 0.530996 0.847374 40.176 62.8495)" fill="#284DD1"/>
<path d="M47.1049 66.9519L53.901 63.9295C53.901 63.9295 54.3582 65.6863 54.8415 66.6891C55.3248 67.6919 56.376 69.065 56.376 69.065L49.5799 72.0874L44.0422 71.5243C44.0422 71.5243 41.5308 69.9777 41.6269 68.4557C41.7094 67.1485 43.7172 65.8327 43.7172 65.8327L47.1049 66.9519Z" fill="#FFDCC9"/>
<path d="M53.6398 63.6165L61.3565 59.419L63.8827 68.2857L58.996 70.8664C58.996 70.8664 57.4153 70.8272 55.5812 68.2513C53.747 65.6753 53.6398 63.6165 53.6398 63.6165Z" fill="#40BDCE"/>
<path d="M87.6249 71.6604L80.618 65.9243C80.618 65.9243 78.8759 68.7899 77.6253 70.5388C76.3747 72.2878 74.314 74.9467 74.314 74.9467L82.1836 80.0505C82.1836 80.0505 84.6742 78.0481 85.7433 76.3996C86.8124 74.7511 87.6249 71.6604 87.6249 71.6604Z" fill="#284DD1"/>
<path d="M93.2486 77.6915L87.5002 72.7715C87.5002 72.7715 86.6194 75.0486 85.7432 76.3996C84.8671 77.7505 83.1472 79.4835 83.1472 79.4835L89.7118 83.145C89.7118 83.145 91.1141 82.8206 92.1832 81.1721C93.2523 79.5236 93.2486 77.6915 93.2486 77.6915Z" fill="#FFDCC9"/>
<path d="M94.1333 81.8408C95.2024 80.1924 95.1987 78.3602 95.1987 78.3602C95.1987 78.3602 94.9981 77.6341 94.6318 77.3966C94.2655 77.159 93.5207 77.2719 93.5207 77.2719C93.5207 77.2719 93.3314 79.4016 92.4553 80.7526C91.5791 82.1035 89.4398 83.5645 89.4398 83.5645C89.4398 83.5645 89.6404 84.2905 90.0067 84.5281C90.373 84.7657 91.1178 84.6527 91.1178 84.6527C91.1178 84.6527 93.0642 83.4893 94.1333 81.8408Z" fill="white"/>
<path d="M97.3009 84.5381C99.0434 82.0962 99.0434 82.0961 99.2173 80.9917C99.3911 79.8873 97.0657 78.8422 97.0657 78.8422L95.1987 78.3602C95.1987 78.3602 94.7374 80.9094 93.8612 82.2603C92.9851 83.6113 91.1178 84.6527 91.1178 84.6527C91.1178 84.6527 88.692 90.2309 88.5674 91.3419C88.4428 92.453 89.2262 94.1324 90.9115 93.4923L97.3009 84.5382L97.3009 84.5381Z" fill="black"/>
<path d="M55.2225 85.3013L61.202 78.5009C61.202 78.5009 58.3996 76.6589 56.6958 75.3474C54.992 74.036 52.4074 71.8828 52.4074 71.8828L47.0294 79.5678C47.0294 79.5678 48.9429 82.1273 50.5526 83.2538C52.1624 84.3804 55.2225 85.3013 55.2225 85.3013Z" fill="#284DD1"/>
<path d="M48.9971 90.7091L54.1165 85.1376C54.1165 85.1376 51.8718 84.177 50.5526 83.2538C49.2334 82.3306 47.5621 80.5508 47.5621 80.5508L43.6716 86.9823C43.6716 86.9823 43.9464 88.3951 45.5561 89.5216C47.1659 90.6481 48.9971 90.7091 48.9971 90.7091Z" fill="#FFDCC9"/>
<path d="M44.8191 91.4469C46.4288 92.5734 48.26 92.6343 48.26 92.6343C48.26 92.6343 48.9927 92.4594 49.243 92.1017C49.4934 91.744 49.4067 90.9957 49.4067 90.9957C49.4067 90.9957 47.285 90.7315 45.9658 89.8083C44.6466 88.8851 43.2619 86.6956 43.2619 86.6956C43.2619 86.6956 42.5292 86.8705 42.2789 87.2282C42.0286 87.5859 42.1152 88.3342 42.1152 88.3342C42.1152 88.3342 43.2093 90.3204 44.8191 91.4469Z" fill="white"/>
<path d="M42.0119 94.5175C44.3909 96.345 44.3909 96.345 45.4885 96.5576C46.5861 96.7703 47.7126 94.4831 47.7126 94.4831L48.26 92.6343C48.26 92.6343 45.7287 92.0834 44.4094 91.1602C43.0902 90.237 42.1152 88.3342 42.1152 88.3342C42.1152 88.3342 36.626 85.7133 35.52 85.5496C34.4141 85.3859 32.708 86.1097 33.2884 87.8165L42.0118 94.5175L42.0119 94.5175Z" fill="black"/>
<path d="M69.3497 20.2675C69.3497 20.2675 56.421 19.0221 48.5587 22.2003C40.6964 25.3785 32.2651 35.2585 32.2651 35.2585L40.9045 61.9673C40.9045 61.9673 55.2694 59.3963 62.4254 56.5036C69.5813 53.6109 81.6976 45.4772 81.6976 45.4772L69.3497 20.2675Z" fill="white"/>
<path d="M51.8659 43.7639C54.0764 50.5949 48.9989 58.3369 40.0661 61.2276L32.1763 36.373C41.109 33.4824 49.6555 36.933 51.8659 43.7639Z" fill="#FFDCC9"/>
<path d="M43.1736 22.22L46.1718 29.6369L53.5887 26.6387L50.5905 19.2218C50.5905 19.2218 47.7517 18.2121 46.1325 18.8666C44.5133 19.5212 43.1736 22.22 43.1736 22.22Z" fill="white"/>
<path d="M68.6091 71.801C76.5745 68.5811 87.8814 60.7747 87.8814 60.7747L89.0155 66.2486C89.0155 66.2486 78.7095 73.6505 70.6704 76.9002C62.6313 80.1499 50.0766 81.9891 50.0766 81.9891L47.0883 77.2647C47.0883 77.2647 60.6438 75.0209 68.6091 71.801Z" fill="#284DD1"/>
<ellipse rx="1.5" ry="2.5" transform="matrix(-0.927116 0.374774 0.374774 0.927116 43.1732 47.5675)" fill="black"/>
<path d="M62.4254 56.5036C70.3907 53.2838 81.6976 45.4773 81.6976 45.4773L87.8814 60.7747C87.8814 60.7747 76.6482 68.5514 68.6091 71.8011C60.5701 75.0507 47.0883 77.2647 47.0883 77.2647L40.9045 61.9673C40.9045 61.9673 54.46 59.7235 62.4254 56.5036Z" fill="#40BDCE"/>
<path d="M89.8538 66.9883C97.7343 63.8027 99.9412 53.2524 95.8015 43.0118C91.6619 32.7711 82.7434 26.7181 74.8629 29.9037C66.9824 33.0892 64.7927 43.6819 68.9152 53.8802C73.0377 64.0785 81.9733 70.1739 89.8538 66.9883Z" fill="#65E959"/>
<path d="M96.1763 43.9389C100.316 54.1795 97.2707 63.9901 89.8538 66.9883C82.4369 69.9865 73.4124 65.0056 69.2899 54.8073C69.2899 54.8073 74.3003 53.8606 83.1079 50.3002C91.9155 46.7399 96.1763 43.9389 96.1763 43.9389Z" fill="#278C1E"/>
<path d="M55.8664 65.6267C55.0032 63.4912 54.7626 61.1041 56.2763 58.5967C58.87 54.3005 64.4116 51.595 69.5066 51.8523L69.4587 53.8906C65.2845 53.4386 60.581 55.6141 58.4346 59.1693C57.2395 61.1489 57.0635 63.1814 57.745 64.8673L55.8664 65.6267Z" fill="#65E959"/>
<path d="M76.7801 64.0368C73.7526 69.0517 66.7084 71.8992 61.0464 70.397C58.2154 69.6458 56.7296 67.7621 55.8664 65.6267L57.745 64.8673C58.4265 66.5531 59.9655 67.8924 62.2005 68.4853C66.6705 69.6713 72.2317 67.4233 74.6218 63.4642C74.8492 63.0876 75.0573 62.7019 75.2407 62.3126L77.1034 63.4633C77.0031 63.6547 76.8953 63.846 76.7801 64.0368Z" fill="#65E959"/>
<path d="M61.0464 70.397C66.7084 71.8992 73.7526 69.0517 76.7801 64.0369C76.8953 63.846 77.0031 63.6547 77.1035 63.4633L75.2407 62.3126C75.0574 62.7019 74.8492 63.0876 74.6218 63.4642C72.2317 67.4233 66.6705 69.6714 62.2005 68.4854C59.9655 67.8924 58.4265 66.5531 57.745 64.8673C57.0635 63.1814 57.2396 61.1489 58.4346 59.1694L55.4785 60.3643C54.9123 62.2259 55.2086 63.9994 55.8664 65.6267C56.7296 67.7621 58.2155 69.6459 61.0464 70.397Z" fill="#278C1E"/>
<path d="M65.5244 66.8748L58.2079 62.0132L64.8671 55.637L69.4319 58.7519C69.4319 58.7519 70.1358 60.1677 68.7152 62.9929C67.2946 65.8181 65.5244 66.8748 65.5244 66.8748Z" fill="#40BDCE"/>
<path d="M72.5413 70.204L66.3264 66.1179C66.3264 66.1179 67.5577 64.784 68.1404 63.8356C68.7232 62.8871 69.3108 61.2606 69.3108 61.2606L75.5257 65.3467L79.9131 68.4228C79.9131 68.4228 80.3615 70.667 79.6497 71.7666C79.0043 72.7636 77.0572 73.3568 77.0572 73.3568L72.5413 70.204Z" fill="#FFDCC9"/>
</svg>
