<svg width="120" height="120" viewBox="0 0 120 120" fill="none" xmlns="http://www.w3.org/2000/svg">
<path d="M43.905 53.1572L51.2215 48.2956L44.5623 41.9194L39.9975 45.0343C39.9975 45.0343 39.2936 46.4501 40.7142 49.2753C42.1348 52.1005 43.905 53.1572 43.905 53.1572Z" fill="#40BDCE"/>
<path d="M36.8881 56.4864L43.1031 52.4003C43.1031 52.4003 41.8717 51.0664 41.289 50.118C40.7063 49.1695 40.1187 47.543 40.1187 47.543L33.9037 51.6291L29.5163 54.7052C29.5163 54.7052 29.0679 56.9494 29.7797 58.049C30.4251 59.046 32.3722 59.6391 32.3722 59.6391L36.8881 56.4864Z" fill="#FFDCC9"/>
<path d="M32.3751 71.6604L39.382 65.9243C39.382 65.9243 41.1241 68.7899 42.3747 70.5388C43.6253 72.2878 45.686 74.9467 45.686 74.9467L37.8163 80.0505C37.8163 80.0505 35.3258 78.0481 34.2567 76.3996C33.1876 74.7511 32.3751 71.6604 32.3751 71.6604Z" fill="#284DD1"/>
<path d="M26.7513 77.6915L32.4997 72.7715C32.4997 72.7715 33.3806 75.0486 34.2567 76.3996C35.1329 77.7505 36.8527 79.4835 36.8527 79.4835L30.2881 83.145C30.2881 83.145 28.8858 82.8206 27.8168 81.1721C26.7477 79.5236 26.7513 77.6915 26.7513 77.6915Z" fill="#FFDCC9"/>
<path d="M25.8667 81.8408C24.7976 80.1924 24.8013 78.3602 24.8013 78.3602C24.8013 78.3602 25.0019 77.6341 25.3682 77.3966C25.7345 77.159 26.4793 77.2719 26.4793 77.2719C26.4793 77.2719 26.6686 79.4016 27.5447 80.7526C28.4208 82.1035 30.5602 83.5645 30.5602 83.5645C30.5602 83.5645 30.3596 84.2905 29.9933 84.5281C29.6269 84.7657 28.8822 84.6527 28.8822 84.6527C28.8822 84.6527 26.9358 83.4893 25.8667 81.8408Z" fill="white"/>
<path d="M22.699 84.5381C20.9566 82.0962 20.9565 82.0961 20.7827 80.9917C20.6089 79.8873 22.9343 78.8422 22.9343 78.8422L24.8013 78.3602C24.8013 78.3602 25.2626 80.9094 26.1388 82.2603C27.0149 83.6113 28.8822 84.6527 28.8822 84.6527C28.8822 84.6527 31.308 90.2309 31.4326 91.3419C31.5572 92.453 30.7738 94.1324 29.0885 93.4923L22.6991 84.5382L22.699 84.5381Z" fill="black"/>
<path d="M64.7775 85.3013L58.798 78.5009C58.798 78.5009 61.6004 76.6589 63.3042 75.3474C65.008 74.036 67.5926 71.8828 67.5926 71.8828L72.9706 79.5678C72.9706 79.5678 71.0571 82.1273 69.4474 83.2538C67.8376 84.3804 64.7775 85.3013 64.7775 85.3013Z" fill="#284DD1"/>
<path d="M71.0029 90.7091L65.8834 85.1376C65.8834 85.1376 68.1281 84.177 69.4474 83.2538C70.7666 82.3306 72.4379 80.5508 72.4379 80.5508L76.3284 86.9823C76.3284 86.9823 76.0536 88.3951 74.4438 89.5216C72.8341 90.6481 71.0029 90.7091 71.0029 90.7091Z" fill="#FFDCC9"/>
<path d="M75.1809 91.4469C73.5711 92.5734 71.74 92.6343 71.74 92.6343C71.74 92.6343 71.0073 92.4594 70.7569 92.1017C70.5066 91.744 70.5932 90.9957 70.5932 90.9957C70.5932 90.9957 72.715 90.7315 74.0342 89.8083C75.3534 88.8851 76.7381 86.6956 76.7381 86.6956C76.7381 86.6956 77.4707 86.8705 77.7211 87.2282C77.9714 87.5859 77.8848 88.3342 77.8848 88.3342C77.8848 88.3342 76.7907 90.3204 75.1809 91.4469Z" fill="white"/>
<path d="M77.9881 94.5175C75.6091 96.345 75.6091 96.345 74.5115 96.5576C73.4138 96.7703 72.2874 94.4831 72.2874 94.4831L71.74 92.6343C71.74 92.6343 74.2713 92.0834 75.5905 91.1602C76.9098 90.237 77.8848 88.3342 77.8848 88.3342C77.8848 88.3342 83.374 85.7133 84.4799 85.5496C85.5859 85.3859 87.2919 86.1097 86.7116 87.8165L77.9882 94.5175L77.9881 94.5175Z" fill="black"/>
<path d="M50.6503 20.2675C50.6503 20.2675 63.579 19.0221 71.4413 22.2003C79.3036 25.3785 87.7349 35.2585 87.7349 35.2585L79.0955 61.9673C79.0955 61.9673 64.7306 59.3963 57.5746 56.5036C50.4187 53.6109 38.3024 45.4772 38.3024 45.4772L50.6503 20.2675Z" fill="white"/>
<path d="M68.134 43.7639C65.9236 50.5949 71.0011 58.3369 79.9338 61.2276L87.8237 36.373C78.8909 33.4824 70.3445 36.933 68.134 43.7639Z" fill="#FFDCC9"/>
<path d="M76.8264 22.22L73.8282 29.6369L66.4113 26.6387L69.4095 19.2218C69.4095 19.2218 72.2483 18.2121 73.8675 18.8666C75.4867 19.5212 76.8264 22.22 76.8264 22.22Z" fill="white"/>
<path d="M51.3909 71.801C43.4255 68.5811 32.1186 60.7747 32.1186 60.7747L30.9845 66.2486C30.9845 66.2486 41.2905 73.6505 49.3296 76.9002C57.3687 80.1499 69.9234 81.9891 69.9234 81.9891L72.9118 77.2647C72.9118 77.2647 59.3562 75.0209 51.3909 71.801Z" fill="#284DD1"/>
<ellipse cx="76.8268" cy="47.5675" rx="1.5" ry="2.5" transform="rotate(22.0103 76.8268 47.5675)" fill="black"/>
<path d="M57.5746 56.5036C49.6093 53.2838 38.3024 45.4773 38.3024 45.4773L32.1186 60.7747C32.1186 60.7747 43.3518 68.5514 51.3909 71.8011C59.4299 75.0507 72.9117 77.2647 72.9117 77.2647L79.0955 61.9673C79.0955 61.9673 65.54 59.7235 57.5746 56.5036Z" fill="#40BDCE"/>
<path d="M30.1462 66.9883C22.2657 63.8027 20.0588 53.2524 24.1984 43.0118C28.3381 32.7711 37.2566 26.7181 45.1371 29.9037C53.0176 33.0892 55.2073 43.6819 51.0848 53.8802C46.9623 64.0785 38.0266 70.1739 30.1462 66.9883Z" fill="#65E959"/>
<path d="M23.8237 43.9389C19.684 54.1795 22.7292 63.9901 30.1462 66.9883C37.5631 69.9865 46.5875 65.0056 50.71 54.8073C50.71 54.8073 45.6997 53.8606 36.8921 50.3002C28.0845 46.7399 23.8237 43.9389 23.8237 43.9389Z" fill="#278C1E"/>
<path d="M64.1336 65.6267C64.9968 63.4912 65.2374 61.1041 63.7236 58.5967C61.13 54.3005 55.5884 51.595 50.4934 51.8523L50.5413 53.8906C54.7154 53.4386 59.419 55.6141 61.5653 59.1693C62.7604 61.1489 62.9364 63.1814 62.255 64.8673L64.1336 65.6267Z" fill="#65E959"/>
<path d="M43.2199 64.0368C46.2474 69.0517 53.2916 71.8992 58.9535 70.397C61.7845 69.6458 63.2704 67.7621 64.1336 65.6267L62.255 64.8673C61.5735 66.5531 60.0345 67.8924 57.7995 68.4853C53.3295 69.6713 47.7683 67.4233 45.3782 63.4642C45.1508 63.0876 44.9426 62.7019 44.7593 62.3126L42.8965 63.4633C42.9969 63.6547 43.1046 63.846 43.2199 64.0368Z" fill="#65E959"/>
<path d="M58.9535 70.397C53.2916 71.8992 46.2474 69.0517 43.2199 64.0369C43.1046 63.846 42.9969 63.6547 42.8965 63.4633L44.7593 62.3126C44.9426 62.7019 45.1508 63.0876 45.3782 63.4642C47.7683 67.4233 53.3295 69.6714 57.7995 68.4854C60.0345 67.8924 61.5735 66.5531 62.255 64.8673C62.9364 63.1814 62.7604 61.1489 61.5653 59.1694L64.5215 60.3643C65.0877 62.2259 64.7914 63.9994 64.1336 65.6267C63.2704 67.7621 61.7845 69.6459 58.9535 70.397Z" fill="#278C1E"/>
<path d="M96.6123 28.5253L101.495 28.0447L103.391 32.7732L84.3828 62.1658C84.3828 62.1658 84.2929 64.1925 83.6372 65.239C82.9814 66.2854 82.4005 66.9738 81.1968 67.2501C80.3457 67.4454 78.9711 67.0355 78.9711 67.0355L74.9886 73.3908C74.9886 73.3908 73.9753 73.3459 73.452 73.018C72.9288 72.6901 72.4465 71.7978 72.4465 71.7978L76.4289 65.4425C76.4289 65.4425 75.4605 64.3842 75.2652 63.5331C74.9889 62.3295 75.3551 61.5065 76.0108 60.46C76.6666 59.4135 78.4512 58.4489 78.4512 58.4489L96.6123 28.5253Z" fill="white"/>
<circle cx="79.824" cy="62.8495" r="2.5" transform="rotate(32.0728 79.824 62.8495)" fill="#284DD1"/>
<path d="M72.8952 66.9519L66.0991 63.9295C66.0991 63.9295 65.6418 65.6863 65.1585 66.6891C64.6752 67.6919 63.624 69.065 63.624 69.065L70.4201 72.0874L75.9578 71.5243C75.9578 71.5243 78.4692 69.9777 78.3731 68.4557C78.2906 67.1485 76.2828 65.8327 76.2828 65.8327L72.8952 66.9519Z" fill="#FFDCC9"/>
<path d="M66.3602 63.6165L58.6435 59.419L56.1173 68.2857L61.004 70.8664C61.004 70.8664 62.5847 70.8272 64.4189 68.2513C66.2531 65.6753 66.3602 63.6165 66.3602 63.6165Z" fill="#40BDCE"/>
</svg>
