<svg width="94" height="86" viewBox="0 0 94 86" fill="none" xmlns="http://www.w3.org/2000/svg">
<path d="M41.375 31H52.625L62 36.1429L47 55L32 36.1429L41.375 31Z" fill="#FD0101"/>
<path d="M52.625 31L62 36.1429H54.5L47 55L39.5 36.1429H32L41.375 31L39.5 36.1429H54.5L52.625 31Z" fill="#FF8B8B"/>
<path d="M34.5 56L34 57.5L33 58L34 58.5L34.5 60L35 58.5L36 58L35 57.5L34.5 56Z" fill="white"/>
<path d="M37.5 53.125L37 52L38.125 52.375L39 48L39.875 52.375L41 52L40.5 53.125L44 54L40.5 54.875L41 56L39.875 55.625L39 60L38.125 55.625L37 56L37.5 54.875L34 54L37.5 53.125Z" fill="white"/>
</svg>
