<svg width="94" height="86" viewBox="0 0 94 86" fill="none" xmlns="http://www.w3.org/2000/svg">
<path d="M41.375 37H52.625L62 42.1429L47 61L32 42.1429L41.375 37Z" fill="#FD0101"/>
<path d="M52.625 37L62 42.1429H54.5L47 61L39.5 42.1429H32L41.375 37L39.5 42.1429H54.5L52.625 37Z" fill="#FF8B8B"/>
<path d="M64.5 35L65 36.5L66 37L65 37.5L64.5 39L64 37.5L63 37L64 36.5L64.5 35Z" fill="white"/>
<path d="M61.5 32.125L62 31L60.875 31.375L60 27L59.125 31.375L58 31L58.5 32.125L55 33L58.5 33.875L58 35L59.125 34.625L60 39L60.875 34.625L62 35L61.5 33.875L65 33L61.5 32.125Z" fill="white"/>
</svg>
