<svg width="94" height="86" viewBox="0 0 94 86" fill="none" xmlns="http://www.w3.org/2000/svg">
<path d="M42.5 31H51.5L59 37.4286L47 61L35 37.4286L42.5 31Z" fill="#278C1E"/>
<path d="M51.5 31L59 37.4286H53L47 61L41 37.4286H35L42.5 31L41 37.4286H53L51.5 31Z" fill="#65E959"/>
<path d="M52.5 59L52 60.5L51 61L52 61.5L52.5 63L53 61.5L54 61L53 60.5L52.5 59Z" fill="white"/>
<path d="M55.5 56.125L55 55L56.125 55.375L57 51L57.875 55.375L59 55L58.5 56.125L62 57L58.5 57.875L59 59L57.875 58.625L57 63L56.125 58.625L55 59L55.5 57.875L52 57L55.5 56.125Z" fill="white"/>
</svg>
