<svg width="94" height="86" viewBox="0 0 94 86" fill="none" xmlns="http://www.w3.org/2000/svg">
<path d="M42.5 31H51.5L59 37.4286L47 61L35 37.4286L42.5 31Z" fill="#278C1E"/>
<path d="M51.5 31L59 37.4286H53L47 61L41 37.4286H35L42.5 31L41 37.4286H53L51.5 31Z" fill="#65E959"/>
<path d="M28.5 34L28 35.5L27 36L28 36.5L28.5 38L29 36.5L30 36L29 35.5L28.5 34Z" fill="white"/>
<path d="M31.5 31.125L31 30L32.125 30.375L33 26L33.875 30.375L35 30L34.5 31.125L38 32L34.5 32.875L35 34L33.875 33.625L33 38L32.125 33.625L31 34L31.5 32.875L28 32L31.5 31.125Z" fill="white"/>
</svg>
