<svg width="94" height="86" viewBox="0 0 94 86" fill="none" xmlns="http://www.w3.org/2000/svg">
<path d="M37 39L47 33L57 39L56 52L47 60L38 52L37 39Z" fill="#A78601"/>
<path fill-rule="evenodd" clip-rule="evenodd" d="M37 39L38 52H44L47 60L50 52H56L57 39H50L47 33L44 39H37ZM44 39H50V52H44V39Z" fill="#FFCC00"/>
<path d="M29.5 36L29 37.5L28 38L29 38.5L29.5 40L30 38.5L31 38L30 37.5L29.5 36Z" fill="white"/>
<path d="M32.5 33.125L32 32L33.125 32.375L34 28L34.875 32.375L36 32L35.5 33.125L39 34L35.5 34.875L36 36L34.875 35.625L34 40L33.125 35.625L32 36L32.5 34.875L29 34L32.5 33.125Z" fill="white"/>
</svg>
