<svg width="94" height="86" viewBox="0 0 94 86" fill="none" xmlns="http://www.w3.org/2000/svg">
<path d="M37 39L47 33L57 39L56 52L47 60L38 52L37 39Z" fill="#A78601"/>
<path fill-rule="evenodd" clip-rule="evenodd" d="M37 39L38 52H44L47 60L50 52H56L57 39H50L47 33L44 39H37ZM44 39H50V52H44V39Z" fill="#FFCC00"/>
<path d="M64.5 61L65 62.5L66 63L65 63.5L64.5 65L64 63.5L63 63L64 62.5L64.5 61Z" fill="white"/>
<path d="M61.5 58.125L62 57L60.875 57.375L60 53L59.125 57.375L58 57L58.5 58.125L55 59L58.5 59.875L58 61L59.125 60.625L60 65L60.875 60.625L62 61L61.5 59.875L65 59L61.5 58.125Z" fill="white"/>
</svg>
