<svg width="94" height="86" viewBox="0 0 94 86" fill="none" xmlns="http://www.w3.org/2000/svg">
<path d="M55 34L61 38L47 53L33 38L39 34L43.5909 33H50.4091L55 34Z" fill="#51EAFF"/>
<path fill-rule="evenodd" clip-rule="evenodd" d="M61 38L56.9844 39L55 34L51.9688 40L50.8182 35L46.9531 40L43.1818 35L41.9375 40L39 34L36.9688 39L33 38L47 53L61 38ZM47 53L36.9688 39L41.9375 40L47 53ZM47 53L46.9531 40H51.9688L47 53Z" fill="#0194A8"/>
<path d="M50.8182 35L55 34L50.4091 33H43.5909L39 34L43.1818 35H50.8182Z" fill="#0194A8"/>
<path d="M25.5 34L25 35.5L24 36L25 36.5L25.5 38L26 36.5L27 36L26 35.5L25.5 34Z" fill="white"/>
<path d="M28.5 31.125L28 30L29.125 30.375L30 26L30.875 30.375L32 30L31.5 31.125L35 32L31.5 32.875L32 34L30.875 33.625L30 38L29.125 33.625L28 34L28.5 32.875L25 32L28.5 31.125Z" fill="white"/>
</svg>
