<svg width="94" height="86" viewBox="0 0 94 86" fill="none" xmlns="http://www.w3.org/2000/svg">
<path d="M55 40L61 44L47 59L33 44L39 40L43.5909 39H50.4091L55 40Z" fill="#01F4D7"/>
<path fill-rule="evenodd" clip-rule="evenodd" d="M61 44L56.9844 45L55 40L51.9688 46L50.8182 41L46.9531 46L43.1818 41L41.9375 46L39 40L36.9688 45L33 44L47 59L61 44ZM47 59L36.9688 45L41.9375 46L47 59ZM47 59L46.9531 46H51.9688L47 59Z" fill="#DEFFFB"/>
<path d="M50.8182 41L55 40L50.4091 39H43.5909L39 40L43.1818 41H50.8182Z" fill="#DEFFFB"/>
<path d="M51.5 61L51 62.5L50 63L51 63.5L51.5 65L52 63.5L53 63L52 62.5L51.5 61Z" fill="white"/>
<path d="M54.5 58.125L54 57L55.125 57.375L56 53L56.875 57.375L58 57L57.5 58.125L61 59L57.5 59.875L58 61L56.875 60.625L56 65L55.125 60.625L54 61L54.5 59.875L51 59L54.5 58.125Z" fill="white"/>
</svg>
