<svg width="94" height="86" viewBox="0 0 94 86" fill="none" xmlns="http://www.w3.org/2000/svg">
<path d="M55 37L61 41L47 56L33 41L39 37L43.5909 36H50.4091L55 37Z" fill="#0194A8"/>
<path fill-rule="evenodd" clip-rule="evenodd" d="M61 41L56.9844 42L55 37L51.9688 43L50.8182 38L46.9531 43L43.1818 38L41.9375 43L39 37L36.9688 42L33 41L47 56L61 41ZM47 56L36.9688 42L41.9375 43L47 56ZM47 56L46.9531 43H51.9688L47 56Z" fill="#51EAFF"/>
<path d="M50.8182 38L55 37L50.4091 36H43.5909L39 37L43.1818 38H50.8182Z" fill="#51EAFF"/>
</svg>
