<svg width="94" height="86" viewBox="0 0 94 86" fill="none" xmlns="http://www.w3.org/2000/svg">
<path d="M40.2056 62H46.5H52.7944L49.6472 65.125V66.375C49.6472 66.375 55.3319 70.3276 55.9416 74.1875C56.7094 79.0476 49.6472 85.125 49.6472 85.125H43.3528C43.3528 85.125 36.2906 79.0476 37.0584 74.1875C37.6681 70.3276 43.3528 66.375 43.3528 66.375V65.125L40.2056 62Z" fill="#907401"/>
<path d="M46 75.125C46 74.5727 46.4477 74.125 47 74.125C47.5523 74.125 48 74.5727 48 75.125C48 75.6773 47.5523 76.125 47 76.125C46.4477 76.125 46 75.6773 46 75.125Z" fill="#FFCC00"/>
<path d="M47 74.125L46 71.625L47 69.125L48 71.625L47 74.125Z" fill="#FD0101"/>
<path d="M48 75.125L50.5 74.125L53 75.125L50.5 76.125L48 75.125Z" fill="#FD0101"/>
<path d="M47 81.125L46 78.625L47 76.125L48 78.625L47 81.125Z" fill="#FD0101"/>
<path d="M41 75.125L43.5 74.125L46 75.125L43.5 76.125L41 75.125Z" fill="#FD0101"/>
<path d="M46.5 3C55.0604 3 62 11.8025 62 20.6049C62 25.3906 54.4746 38.5 53.2373 43.5C52 48.5 52.1903 51.5066 51.5 52.5C49.7627 55 50.1119 49.3958 49.5 50.5066C47.7314 53.7169 49.5 55 46 59C42.5 63 44.6644 54.2354 42 48C42 48 41.3321 48.5132 41 51.5066C40.6679 54.5 36.4976 48.5 36.4976 41C36.4976 33.5 31 24.7187 31 20.6049C31 11.8025 37.9396 3 46.5 3Z" fill="white"/>
<ellipse cx="38.2611" cy="20.3213" rx="2.2963" ry="2.87037" transform="rotate(-23.2407 38.2611 20.3213)" fill="black"/>
<ellipse rx="2.2963" ry="2.87037" transform="matrix(-0.918855 -0.394595 -0.394595 0.918855 54.7389 20.3213)" fill="black"/>
<path d="M46.9439 19.6481C44.5607 19.6481 40.5716 22.0816 42.3513 23.6667C43.701 24.8688 45.1364 23.0926 46.9439 23.0926C48.7514 23.0926 50.1867 24.8688 51.5365 23.6667C53.3161 22.0816 49.327 19.6481 46.9439 19.6481Z" fill="black"/>
</svg>
