<svg width="94" height="86" viewBox="0 0 94 86" fill="none" xmlns="http://www.w3.org/2000/svg">
<path d="M40.2056 62H46.5H52.7944L49.6472 65.125V66.375C49.6472 66.375 55.3319 70.3276 55.9416 74.1875C56.7094 79.0476 49.6472 85.125 49.6472 85.125H43.3528C43.3528 85.125 36.2906 79.0476 37.0584 74.1875C37.6681 70.3276 43.3528 66.375 43.3528 66.375V65.125L40.2056 62Z" fill="#907401"/>
<path d="M46 75.125C46 74.5727 46.4477 74.125 47 74.125C47.5523 74.125 48 74.5727 48 75.125C48 75.6773 47.5523 76.125 47 76.125C46.4477 76.125 46 75.6773 46 75.125Z" fill="#FFCC00"/>
<path d="M47 74.125L46 71.625L47 69.125L48 71.625L47 74.125Z" fill="#FD0101"/>
<path d="M48 75.125L50.5 74.125L53 75.125L50.5 76.125L48 75.125Z" fill="#FD0101"/>
<path d="M47 81.125L46 78.625L47 76.125L48 78.625L47 81.125Z" fill="#FD0101"/>
<path d="M41 75.125L43.5 74.125L46 75.125L43.5 76.125L41 75.125Z" fill="#FD0101"/>
<path d="M42.4541 58.5645C43.0382 59.4935 46.3389 61.307 46.3389 61.307C46.3389 61.307 46.1349 57.5465 45.5508 56.6175C44.9667 55.6885 43.6893 55.1953 42.8342 55.733C41.9791 56.2707 41.87 57.6355 42.4541 58.5645Z" fill="white"/>
<path d="M48.3923 50.64C47.5442 52.46 47.9652 59.3017 47.9652 59.3017C47.9652 59.3017 53.4748 55.2235 54.3228 53.4035C55.1709 51.5835 54.6914 49.1449 53.0538 48.3818C51.4161 47.6186 49.2404 48.82 48.3923 50.64Z" fill="white"/>
<path fill-rule="evenodd" clip-rule="evenodd" d="M45.4804 52.4338C45.4804 52.4338 23.6073 37.1755 20.4049 30.2097C17.2024 23.2439 19.4916 13.7534 26.2659 10.6391C33.0401 7.52468 41.7341 11.9658 44.9366 18.9316C48.139 25.8974 45.4804 52.4338 45.4804 52.4338ZM27.9036 29.0187C28.6437 28.1987 28.4128 26.7841 27.3878 25.8589C26.3628 24.9338 24.932 24.8486 24.1919 25.6685C23.4518 26.4885 23.6827 27.9032 24.7077 28.8283C25.7326 29.7534 27.1635 29.8386 27.9036 29.0187ZM37.088 21.3994C37.1229 22.7797 38.0464 23.876 39.1506 23.848C40.2548 23.8201 41.1216 22.6785 41.0867 21.2982C41.0518 19.918 40.1283 18.8217 39.0241 18.8496C37.9199 18.8776 37.0531 20.0191 37.088 21.3994ZM30.5015 28.5029C28.5166 27.896 30.788 24.519 32.6739 23.652C34.5598 22.785 38.6019 23.2594 37.7702 25.1612C37.3896 26.0314 36.5899 26.0551 35.7013 26.0813C35.1171 26.0985 34.4944 26.1169 33.927 26.3777C33.3597 26.6386 32.9403 27.0993 32.5469 27.5315C31.9484 28.1889 31.4099 28.7806 30.5015 28.5029Z" fill="white"/>
</svg>
