<svg width="94" height="86" viewBox="0 0 94 86" fill="none" xmlns="http://www.w3.org/2000/svg">
<path d="M40.2056 62H46.5H52.7944L49.6472 65.125V66.375C49.6472 66.375 55.3319 70.3276 55.9416 74.1875C56.7094 79.0476 49.6472 85.125 49.6472 85.125H43.3528C43.3528 85.125 36.2906 79.0476 37.0584 74.1875C37.6681 70.3276 43.3528 66.375 43.3528 66.375V65.125L40.2056 62Z" fill="#907401"/>
<path d="M46 75.125C46 74.5727 46.4477 74.125 47 74.125C47.5523 74.125 48 74.5727 48 75.125C48 75.6773 47.5523 76.125 47 76.125C46.4477 76.125 46 75.6773 46 75.125Z" fill="#FFCC00"/>
<path d="M47 74.125L46 71.625L47 69.125L48 71.625L47 74.125Z" fill="#FD0101"/>
<path d="M48 75.125L50.5 74.125L53 75.125L50.5 76.125L48 75.125Z" fill="#FD0101"/>
<path d="M47 81.125L46 78.625L47 76.125L48 78.625L47 81.125Z" fill="#FD0101"/>
<path d="M41 75.125L43.5 74.125L46 75.125L43.5 76.125L41 75.125Z" fill="#FD0101"/>
<path fill-rule="evenodd" clip-rule="evenodd" d="M31 20.6049C31 11.8025 37.9396 3 46.5 3C55.0604 3 62 11.8025 62 20.6049C62 22.2522 61.1181 24.6479 60.125 27.3458C58.6379 31.3855 56.9014 36.1028 57.5024 40C58.5 43 59.5 47 58 50C56.5 53 54 47 54 47C51.3356 53.2354 49.7401 56.3677 47 57C42.9869 57.9261 43.2692 56.4572 43.6564 54.4421C43.8964 53.1934 44.1767 51.7349 43.5 50.5066C43.2399 50.0345 42.8396 50.5044 42.3118 51.1241C41.5976 51.9625 40.65 53.075 39.5 52.5C38.5113 52.0056 38.8667 50.7782 39.3294 49.18C39.8027 47.5452 40.3883 45.5226 39.7627 43.5C39.3416 42.1385 38.192 39.6059 36.8585 36.6683C34.2744 30.9754 31 23.7617 31 20.6049ZM39.3938 22.9588C40.5591 22.4583 40.9966 20.8718 40.3711 19.4152C39.7455 17.9586 38.2938 17.1834 37.1285 17.6839C35.9632 18.1843 35.5256 19.7708 36.1512 21.2274C36.7767 22.684 38.2285 23.4592 39.3938 22.9588ZM52.6289 19.4152C52.0034 20.8718 52.4409 22.4583 53.6062 22.9588C54.7715 23.4592 56.2233 22.684 56.8488 21.2274C57.4744 19.7708 57.0368 18.1843 55.8715 17.6839C54.7062 17.1834 53.2545 17.9586 52.6289 19.4152ZM42.3513 23.6667C40.5716 22.0816 44.5607 19.6481 46.9439 19.6481C49.327 19.6481 53.3161 22.0816 51.5365 23.6667C50.7221 24.392 49.8766 24.0331 48.937 23.6342C48.3192 23.372 47.6608 23.0926 46.9439 23.0926C46.2269 23.0926 45.5685 23.372 44.9508 23.6342C44.0112 24.0331 43.1657 24.392 42.3513 23.6667Z" fill="white"/>
</svg>
