<svg width="94" height="86" viewBox="0 0 94 86" fill="none" xmlns="http://www.w3.org/2000/svg">
<path d="M40.2056 62H46.5H52.7944L49.6472 65.125V66.375C49.6472 66.375 55.3319 70.3276 55.9416 74.1875C56.7094 79.0476 49.6472 85.125 49.6472 85.125H43.3528C43.3528 85.125 36.2906 79.0476 37.0584 74.1875C37.6681 70.3276 43.3528 66.375 43.3528 66.375V65.125L40.2056 62Z" fill="#907401"/>
<path d="M46 75.125C46 74.5727 46.4477 74.125 47 74.125C47.5523 74.125 48 74.5727 48 75.125C48 75.6773 47.5523 76.125 47 76.125C46.4477 76.125 46 75.6773 46 75.125Z" fill="#FFCC00"/>
<path d="M47 74.125L46 71.625L47 69.125L48 71.625L47 74.125Z" fill="#FD0101"/>
<path d="M48 75.125L50.5 74.125L53 75.125L50.5 76.125L48 75.125Z" fill="#FD0101"/>
<path d="M47 81.125L46 78.625L47 76.125L48 78.625L47 81.125Z" fill="#FD0101"/>
<path d="M41 75.125L43.5 74.125L46 75.125L43.5 76.125L41 75.125Z" fill="#FD0101"/>
<path fill-rule="evenodd" clip-rule="evenodd" d="M62 20.6049C62 11.8025 55.0604 3 46.5 3C37.9396 3 31 11.8025 31 20.6049C31 22.3553 31.9953 24.9506 33.1389 27.9328L33.1389 27.9328C34.6831 31.9594 36.4976 36.6912 36.4976 41C36.4976 48.5 40.6679 54.5 41 51.5066C41.3321 48.5132 42 48 42 48C43.1432 50.6754 43.3974 53.8165 43.5915 56.2151C43.8498 59.4067 44.0018 61.2837 46 59C48.0979 56.6024 48.3029 55.1809 48.5113 53.7355C48.6506 52.7694 48.7915 51.7926 49.5 50.5066C49.7316 50.0863 49.8255 50.6275 49.9469 51.3273C50.1464 52.4767 50.4201 54.054 51.5 52.5C51.8406 52.0099 51.9668 51.0299 52.1558 49.5624C52.35 48.0551 52.6104 46.0334 53.2373 43.5C53.7438 41.4531 55.3042 38.0471 56.9707 34.4095C59.3749 29.1615 62 23.4314 62 20.6049ZM39.3938 22.9588C40.5591 22.4583 40.9966 20.8718 40.3711 19.4152C39.7455 17.9586 38.2938 17.1834 37.1285 17.6839C35.9632 18.1843 35.5256 19.7708 36.1512 21.2274C36.7767 22.684 38.2285 23.4592 39.3938 22.9588ZM52.6289 19.4152C52.0034 20.8718 52.4409 22.4583 53.6062 22.9588C54.7715 23.4592 56.2233 22.684 56.8488 21.2274C57.4744 19.7708 57.0368 18.1843 55.8715 17.6839C54.7062 17.1834 53.2545 17.9586 52.6289 19.4152ZM42.3513 23.6667C40.5716 22.0816 44.5607 19.6481 46.9439 19.6481C49.327 19.6481 53.3161 22.0816 51.5365 23.6667C50.7221 24.392 49.8766 24.0331 48.937 23.6342C48.3192 23.372 47.6608 23.0926 46.9439 23.0926C46.2269 23.0926 45.5685 23.372 44.9508 23.6342C44.0112 24.0331 43.1657 24.392 42.3513 23.6667Z" fill="white"/>
</svg>
