<svg width="94" height="86" viewBox="0 0 94 86" fill="none" xmlns="http://www.w3.org/2000/svg">
<path d="M40.2056 62H46.5H52.7944L49.6472 65.125V66.375C49.6472 66.375 55.3319 70.3276 55.9416 74.1875C56.7094 79.0476 49.6472 85.125 49.6472 85.125H43.3528C43.3528 85.125 36.2906 79.0476 37.0584 74.1875C37.6681 70.3276 43.3528 66.375 43.3528 66.375V65.125L40.2056 62Z" fill="#907401"/>
<path d="M46 75.125C46 74.5727 46.4477 74.125 47 74.125C47.5523 74.125 48 74.5727 48 75.125C48 75.6773 47.5523 76.125 47 76.125C46.4477 76.125 46 75.6773 46 75.125Z" fill="#FFCC00"/>
<path d="M47 74.125L46 71.625L47 69.125L48 71.625L47 74.125Z" fill="#FD0101"/>
<path d="M48 75.125L50.5 74.125L53 75.125L50.5 76.125L48 75.125Z" fill="#FD0101"/>
<path d="M47 81.125L46 78.625L47 76.125L48 78.625L47 81.125Z" fill="#FD0101"/>
<path d="M41 75.125L43.5 74.125L46 75.125L43.5 76.125L41 75.125Z" fill="#FD0101"/>
<path fill-rule="evenodd" clip-rule="evenodd" d="M46.5 3C55.0604 3 62 11.8025 62 20.6049C62 23.7617 58.7256 30.9754 56.1415 36.6683C54.808 39.6059 53.6584 42.1385 53.2373 43.5C52.6117 45.5226 53.1973 47.5452 53.6706 49.18C54.1333 50.7782 54.4887 52.0056 53.5 52.5C52.35 53.075 51.4024 51.9625 50.6882 51.1241C50.1604 50.5044 49.7601 50.0345 49.5 50.5066C48.8233 51.7349 49.1036 53.1934 49.3436 54.4421C49.7308 56.4572 50.0131 57.9261 46 57C43.2599 56.3677 41.6644 53.2354 39 47C39 47 36.5 53 35 50C33.5 47 34.5 43 35.4976 40C36.0986 36.1028 34.3621 31.3855 32.875 27.3458L32.875 27.3458C31.8819 24.6478 31 22.2522 31 20.6049C31 11.8025 37.9396 3 46.5 3ZM39.3938 22.9588C40.5591 22.4583 40.9966 20.8718 40.3711 19.4152C39.7455 17.9586 38.2938 17.1834 37.1285 17.6839C35.9632 18.1843 35.5256 19.7708 36.1512 21.2274C36.7767 22.684 38.2285 23.4592 39.3938 22.9588ZM52.6289 19.4152C52.0034 20.8718 52.4409 22.4583 53.6062 22.9588C54.7715 23.4592 56.2233 22.684 56.8488 21.2274C57.4744 19.7708 57.0368 18.1843 55.8715 17.6839C54.7062 17.1834 53.2545 17.9586 52.6289 19.4152ZM42.3513 23.6667C40.5716 22.0816 44.5607 19.6481 46.9439 19.6481C49.327 19.6481 53.3161 22.0816 51.5365 23.6667C50.7221 24.392 49.8766 24.0331 48.937 23.6342C48.3192 23.372 47.6608 23.0926 46.9439 23.0926C46.2269 23.0926 45.5685 23.372 44.9508 23.6342C44.0112 24.0331 43.1657 24.392 42.3513 23.6667Z" fill="white"/>
</svg>
