<svg width="94" height="86" viewBox="0 0 94 86" fill="none" xmlns="http://www.w3.org/2000/svg">
<path d="M40.2056 62H46.5H52.7944L49.6472 65.125V66.375C49.6472 66.375 55.3319 70.3276 55.9416 74.1875C56.7094 79.0476 49.6472 85.125 49.6472 85.125H43.3528C43.3528 85.125 36.2906 79.0476 37.0584 74.1875C37.6681 70.3276 43.3528 66.375 43.3528 66.375V65.125L40.2056 62Z" fill="#907401"/>
<path d="M46 75.125C46 74.5727 46.4477 74.125 47 74.125C47.5523 74.125 48 74.5727 48 75.125C48 75.6773 47.5523 76.125 47 76.125C46.4477 76.125 46 75.6773 46 75.125Z" fill="#FFCC00"/>
<path d="M47 74.125L46 71.625L47 69.125L48 71.625L47 74.125Z" fill="#FD0101"/>
<path d="M48 75.125L50.5 74.125L53 75.125L50.5 76.125L48 75.125Z" fill="#FD0101"/>
<path d="M47 81.125L46 78.625L47 76.125L48 78.625L47 81.125Z" fill="#FD0101"/>
<path d="M41 75.125L43.5 74.125L46 75.125L43.5 76.125L41 75.125Z" fill="#FD0101"/>
<path d="M46.5 3C37.9396 3 31 11.8025 31 20.6049C31 25.3906 38.5254 39.5 39.7627 43.5C41 47.5 37.5 51.5 39.5 52.5C41.5 53.5 42.8881 49.3958 43.5 50.5066C45.2686 53.7169 40.5 58.5 47 57C49.7401 56.3677 51.3356 53.2354 54 47C54 47 56.5 53 58 50C59.5 47 58.5 43 57.5024 40C56.5 33.5 62 24.7187 62 20.6049C62 11.8025 55.0604 3 46.5 3Z" fill="white"/>
<path d="M60 33C57.9031 37.5 60.9653 42.3017 60.9653 42.3017C60.9653 42.3017 62 39 64 37.5C66 36 66.6386 33 66.0538 31.3818C65.469 29.7636 62.0969 28.5 60 33Z" fill="white"/>
<path d="M38.1671 43.3266C39.3293 45.8208 37.6321 48.4821 37.6321 48.4821C37.6321 48.4821 37.0586 46.6521 35.9501 45.8208C34.8416 44.9894 34.4876 43.3266 34.8118 42.4297C35.1359 41.5328 37.0049 40.8325 38.1671 43.3266Z" fill="white"/>
<ellipse cx="38.2611" cy="20.3213" rx="2.2963" ry="2.87037" transform="rotate(-23.2407 38.2611 20.3213)" fill="black"/>
<ellipse rx="2.2963" ry="2.87037" transform="matrix(-0.918855 -0.394595 -0.394595 0.918855 54.7389 20.3213)" fill="black"/>
<path d="M46.9439 19.6481C44.5607 19.6481 40.5716 22.0816 42.3513 23.6667C43.701 24.8688 45.1364 23.0926 46.9439 23.0926C48.7514 23.0926 50.1867 24.8688 51.5365 23.6667C53.3161 22.0816 49.327 19.6481 46.9439 19.6481Z" fill="black"/>
</svg>
