<svg width="94" height="86" viewBox="0 0 94 86" fill="none" xmlns="http://www.w3.org/2000/svg">
<path d="M40.2056 62H46.5H52.7944L49.6472 65.125V66.375C49.6472 66.375 55.3319 70.3276 55.9416 74.1875C56.7094 79.0476 49.6472 85.125 49.6472 85.125H43.3528C43.3528 85.125 36.2906 79.0476 37.0584 74.1875C37.6681 70.3276 43.3528 66.375 43.3528 66.375V65.125L40.2056 62Z" fill="#907401"/>
<path d="M46 75.125C46 74.5727 46.4477 74.125 47 74.125C47.5523 74.125 48 74.5727 48 75.125C48 75.6773 47.5523 76.125 47 76.125C46.4477 76.125 46 75.6773 46 75.125Z" fill="#FFCC00"/>
<path d="M47 74.125L46 71.625L47 69.125L48 71.625L47 74.125Z" fill="#FD0101"/>
<path d="M48 75.125L50.5 74.125L53 75.125L50.5 76.125L48 75.125Z" fill="#FD0101"/>
<path d="M47 81.125L46 78.625L47 76.125L48 78.625L47 81.125Z" fill="#FD0101"/>
<path d="M41 75.125L43.5 74.125L46 75.125L43.5 76.125L41 75.125Z" fill="#FD0101"/>
<path d="M42.4541 58.5645C43.0382 59.4935 46.3389 61.307 46.3389 61.307C46.3389 61.307 46.1349 57.5465 45.5508 56.6175C44.9667 55.6885 43.6893 55.1953 42.8342 55.733C41.9791 56.2707 41.87 57.6355 42.4541 58.5645Z" fill="white"/>
<path d="M48.3923 50.64C47.5442 52.46 47.9652 59.3017 47.9652 59.3017C47.9652 59.3017 53.4748 55.2235 54.3228 53.4035C55.1709 51.5835 54.6914 49.1449 53.0538 48.3818C51.4161 47.6186 49.2404 48.82 48.3923 50.64Z" fill="white"/>
<path d="M20.4049 30.2097C23.6073 37.1755 45.4804 52.4338 45.4804 52.4338C45.4804 52.4338 48.139 25.8974 44.9366 18.9316C41.7341 11.9658 33.0401 7.52469 26.2658 10.6391C19.4916 13.7534 17.2024 23.2439 20.4049 30.2097Z" fill="white"/>
<ellipse cx="26.0477" cy="27.3436" rx="2" ry="2.5" transform="rotate(-47.9307 26.0477 27.3436)" fill="black"/>
<ellipse rx="2" ry="2.5" transform="matrix(-0.99968 0.0252921 0.0252921 0.99968 39.0873 21.3488)" fill="black"/>
<path d="M32.6739 23.652C30.788 24.519 28.5166 27.896 30.5015 28.5029C32.007 28.9631 32.4967 27.0353 33.927 26.3777C35.3573 25.7202 37.1394 26.6036 37.7702 25.1612C38.6019 23.2594 34.5598 22.785 32.6739 23.652Z" fill="black"/>
</svg>
