<svg width="120" height="120" viewBox="0 0 120 120" fill="none" xmlns="http://www.w3.org/2000/svg">
<path d="M60 22C50.7174 22 44.3221 24.203 38 31C36.1912 32.9447 34 36.5 34 36.5C34 36.5 32.1864 39.8165 33.5 41C34.5825 41.9752 37.2308 41 37.2308 41L38 79C38 79 51.1442 84.5484 60 84.5C68.8558 84.4516 81.0116 79 81.0116 79L81.7809 41C81.7809 41 84.4292 41.9752 85.5116 41C86.8253 39.8165 85.0116 36.5 85.0116 36.5C85.0116 36.5 82.821 32.9442 81.0116 31C74.9303 24.4654 69.2827 22 60 22Z" fill="#FDCB02"/>
<path d="M41 101L38 79L45 81.5V101C45 101 44.7465 102 43 102C41.2535 102 41 101 41 101Z" fill="#FDCB02"/>
<path d="M78 101L81 79L74 81.5V101C74 101 74.2535 102 76 102C77.7465 102 78 101 78 101Z" fill="#FDCB02"/>
<circle cx="49.5" cy="39.5" r="5.5" fill="black"/>
<circle cx="50" cy="39" r="5" fill="white"/>
<circle cx="70.5" cy="39.5" r="5.5" fill="black"/>
<circle cx="71" cy="39" r="5" fill="white"/>
<path d="M49 46C50.1456 42.8906 51.9833 41.3712 55 40C58.5552 38.384 61.4448 38.384 65 40C68.0167 41.3712 69.8544 42.8906 71 46C71.945 48.5651 71 52 71 52C71 52 69.235 53 68 53C66.7651 53 65 52 65 52L64 47H56L55 52C55 52 53.235 53 52 53C50.7651 53 49 52 49 52C49 52 48.055 48.5651 49 46Z" fill="#F9B402"/>
<ellipse cx="60" cy="45.5" rx="4" ry="2.5" fill="black"/>
<path d="M91.0128 110.064C91.0128 110.064 90.0787 111.767 89.1758 111.903C88.2729 112.04 86.877 110.689 86.877 110.689C86.877 110.689 87.3509 106.308 86.7281 103.586C86.0533 100.637 83.9689 99.9464 83.4773 96.9514C82.9956 94.016 84.8442 92.6268 84.3624 89.6915C83.8709 86.6965 81.6032 86.0522 81.1117 83.0571C80.6299 80.1218 82.4785 78.7326 81.9968 75.7973C81.5052 72.8022 79.2375 72.1579 78.746 69.1629C78.2642 66.2275 79.9433 64.8579 79.6311 61.903C79.3337 59.088 77.4143 55.1123 77.4143 55.1123C77.4143 55.1123 77.5708 51.9649 80.0543 51.5893C82.5378 51.2137 83.618 54.1741 83.618 54.1741C83.618 54.1741 85.3663 58.2193 85.5763 61.0039C85.8039 64.0208 84.0167 65.2964 84.4328 68.3028C84.8406 71.2494 87.0173 72.0298 87.425 74.9763C87.8411 77.9828 85.8654 79.2688 86.2815 82.2753C86.6892 85.2218 88.8659 86.0022 89.2737 88.9488C89.6898 91.9552 87.7141 93.2412 88.1302 96.2477C88.5379 99.1942 90.5469 100.006 91.1224 102.921C91.6707 105.698 91.0128 110.064 91.0128 110.064Z" fill="#FDCB02"/>
<path d="M28.1952 110.064C28.1952 110.064 29.1293 111.767 30.0322 111.903C30.935 112.04 32.331 110.689 32.331 110.689C32.331 110.689 31.8571 106.308 32.4799 103.586C33.1546 100.637 35.2391 99.9464 35.7306 96.9514C36.2124 94.016 34.3638 92.6268 34.8455 89.6915C35.3371 86.6965 37.6047 86.0522 38.0963 83.0571C38.578 80.1218 36.7295 78.7326 37.2112 75.7973C37.7028 72.8022 39.9704 72.1579 40.462 69.1629C40.9437 66.2275 39.2647 64.8579 39.5769 61.903C39.8743 59.088 41.7937 55.1123 41.7937 55.1123C41.7937 55.1123 41.6371 51.9649 39.1536 51.5893C36.6702 51.2137 35.5899 54.1741 35.5899 54.1741C35.5899 54.1741 33.8416 58.2193 33.6316 61.0039C33.4041 64.0208 35.1913 65.2964 34.7752 68.3028C34.3674 71.2494 32.1907 72.0298 31.7829 74.9763C31.3668 77.9828 33.3426 79.2688 32.9265 82.2753C32.5187 85.2218 30.342 86.0022 29.9342 88.9488C29.5182 91.9552 31.4939 93.2412 31.0778 96.2477C30.67 99.1942 28.6611 100.006 28.0855 102.921C27.5373 105.698 28.1952 110.064 28.1952 110.064Z" fill="#FDCB02"/>
</svg>
