<svg width="120" height="120" viewBox="0 0 120 120" fill="none" xmlns="http://www.w3.org/2000/svg">
<g clip-path="url(#clip0)">
<path d="M5.28981 66.7209C5.28981 66.7209 4.12893 68.2783 4.37997 69.1563C4.631 70.0342 6.43972 70.7426 6.43972 70.7426C6.43972 70.7426 10.2278 68.4907 12.9626 67.9258C15.9255 67.3139 17.4195 68.923 20.3479 68.1254C23.2179 67.3436 23.7132 65.0849 26.5833 64.3032C29.5117 63.5056 31.0401 65.3004 33.9686 64.5027C36.8386 63.721 37.3339 61.4623 40.204 60.6806C43.1324 59.883 44.6608 61.6778 47.5892 60.8801C50.4593 60.0984 51.0072 58.002 53.8246 57.058C56.5086 56.1586 60.9225 56.2521 60.9225 56.2521C60.9225 56.2521 63.7201 54.8017 63.0296 52.3867C62.3391 49.9718 59.1976 50.2195 59.1976 50.2195C59.1976 50.2195 54.7917 50.3105 52.1716 51.2768C49.3331 52.3236 48.9156 54.4793 46.0081 55.3503C43.1586 56.2039 41.5442 54.5485 38.6947 55.4021C35.7872 56.2731 35.4386 58.6046 32.5312 59.4756C29.6817 60.3293 28.0672 58.6738 25.2177 59.5274C22.3103 60.3985 21.9617 62.7299 19.0542 63.601C16.2047 64.4546 14.6314 62.9648 11.7408 63.6528C8.98708 64.3082 5.28981 66.7209 5.28981 66.7209Z" fill="#F9B402"/>
<path d="M59.9999 20C69.2826 20 80.9999 28 80.9999 28L82.7692 39L81.9999 77C81.9999 77 68.8558 82.5484 59.9999 82.5C51.1441 82.5484 37.9999 77 37.9999 77L37.2307 39L38.9999 28C38.9999 28 50.7173 20 59.9999 20Z" fill="#FDCB02"/>
<path d="M60.378 41.815C60.378 41.815 62.7185 42.0273 63.5391 41.7286C64.3596 41.4299 66.0161 39.7628 66.0161 39.7628L63.451 32.7151C63.451 32.7151 61.6918 32.8234 60.4609 33.2714C59.23 33.7194 57.8128 34.7673 57.8128 34.7673L60.378 41.815Z" fill="#F9B402"/>
<path d="M80.5 75.5621C81.1549 76.6964 81.933 77.0441 81.933 77.0441L88.2942 71.0621L79.933 73.58C79.933 73.58 79.8451 74.4277 80.5 75.5621Z" fill="#FDCB02"/>
<circle r="5.5" transform="matrix(-1 0 0 1 46.5 37.5)" fill="black"/>
<circle r="5" transform="matrix(-1 0 0 1 46 37)" fill="white"/>
<path d="M48 44C46.8544 40.8906 45.0167 39.3712 42 38C40.2224 37.192 38.8112 36.788 37.2 36.788C37.2 36.788 36.5 37.797 36.5 39.5C36.5 41.203 37.2 45 37.2 45H41L42 50C42 50 43.765 51 45 51C46.2349 51 48 50 48 50C48 50 48.945 46.5651 48 44Z" fill="#F9B402"/>
<path d="M36 43.5C36 45.8807 37.3431 46 39 46C40.6569 46 42 44.8807 42 43.5C42 42.1193 40.6569 41 39 41C37.3431 41 36 41.1193 36 43.5Z" fill="black"/>
<path d="M1.52945 51.4579C1.52945 51.4579 0.0102944 52.6684 0.02952 53.5814C0.0487456 54.4944 1.61751 55.6399 1.61751 55.6399C1.61751 55.6399 5.85407 54.4266 8.64257 54.5767C11.6636 54.7393 12.6987 56.6758 15.7337 56.65C18.7082 56.6248 19.7622 54.5666 22.7367 54.5414C25.7717 54.5157 26.7928 56.6404 29.8278 56.6147C32.8023 56.5895 33.8564 54.5313 36.8309 54.5061C39.8659 54.4803 40.887 56.6051 43.922 56.5794C46.8965 56.5542 47.9601 54.6664 50.925 54.4708C53.7495 54.2844 57.9941 55.4986 57.9941 55.4986C57.9941 55.4986 61.0689 54.8083 61.016 52.2971C60.9631 49.7859 57.862 49.2257 57.862 49.2257C57.862 49.2257 53.5781 48.1919 50.7984 48.4592C47.7869 48.7489 46.8343 50.7272 43.8009 50.8292C40.828 50.9292 39.6882 48.9173 36.7153 49.0173C33.6819 49.1193 32.7512 51.2852 29.7178 51.3873C26.7448 51.4873 25.6051 49.4753 22.6321 49.5753C19.5987 49.6774 18.668 51.8433 15.6346 51.9453C12.6617 52.0454 11.5195 50.204 8.549 50.1334C5.71916 50.0661 1.52945 51.4579 1.52945 51.4579Z" fill="#F9B402"/>
<path d="M58 99L57 79H63L62 99C62 99 61.7464 100 60 100C60 100 56.2252 100.066 56 100C56 99 58 99 58 99Z" fill="#FDCB02"/>
</g>
<defs>
<clipPath id="clip0">
<rect width="120" height="120" fill="white" transform="matrix(-1 0 0 1 120 0)"/>
</clipPath>
</defs>
</svg>
