<svg width="120" height="120" viewBox="0 0 120 120" fill="none" xmlns="http://www.w3.org/2000/svg">
<path d="M60.0001 22C50.7175 22 44.3221 24.203 38.0001 31C36.1913 32.9447 34.0001 36.5 34.0001 36.5C34.0001 36.5 32.1864 39.8165 33.5001 41C34.5826 41.9752 37.2309 41 37.2309 41L38.0001 79C38.0001 79 51.1443 84.5484 60.0001 84.5C68.8559 84.4516 81.0117 79 81.0117 79L81.781 41C81.781 41 84.4293 41.9752 85.5117 41C86.8254 39.8165 85.0117 36.5 85.0117 36.5C85.0117 36.5 82.8211 32.9442 81.0117 31C74.9304 24.4654 69.2828 22 60.0001 22Z" fill="#FDCB02"/>
<path d="M41.0001 101L38.0001 78.9998L45.0001 81.4998V101C45.0001 101 44.7465 102 43.0001 102C41.2536 102 41.0001 101 41.0001 101Z" fill="#FDCB02"/>
<path d="M78.0001 101L81.0001 78.9998L74.0001 81.4998V101C74.0001 101 74.2536 102 76.0001 102C77.7465 102 78.0001 101 78.0001 101Z" fill="#FDCB02"/>
<path d="M6.63888 13.4517C6.63888 13.4517 4.75021 12.9977 4.04197 13.5741C3.33372 14.1506 3.39467 16.0921 3.39467 16.0921C3.39467 16.0921 6.95601 18.6877 8.5519 20.9793C10.2809 23.462 9.38987 25.4688 11.276 27.8467C13.1245 30.1772 15.3958 29.7433 17.2443 32.0738C19.1304 34.4518 18.0822 36.5633 19.9683 38.9413C21.8168 41.2718 24.0881 40.8379 25.9366 43.1684C27.8227 45.5463 26.7746 47.6579 28.6607 50.0358C30.5092 52.3664 32.652 52.0447 34.629 54.2629C36.5124 56.3761 38.1641 60.4703 38.1641 60.4703C38.1641 60.4703 40.5988 62.471 42.5469 60.8856C44.495 59.3001 43.0304 56.5098 43.0304 56.5098C43.0304 56.5098 41.2123 52.4955 39.2925 50.4675C37.2127 48.2703 35.0668 48.7351 33.1215 46.4054C31.215 44.1221 32.1012 41.9862 30.1947 39.7029C28.2494 37.3732 25.9689 37.9706 24.0236 35.6408C22.1171 33.3575 23.0033 31.2217 21.0968 28.9384C19.1515 26.6087 16.871 27.2061 14.9257 24.8763C13.0192 22.593 13.7693 20.5602 11.9989 18.1739C10.3123 15.9006 6.63888 13.4517 6.63888 13.4517Z" fill="#FDCB02"/>
<path d="M112.071 13.4517C112.071 13.4517 113.96 12.9977 114.668 13.5741C115.376 14.1506 115.315 16.0921 115.315 16.0921C115.315 16.0921 111.754 18.6877 110.158 20.9793C108.429 23.462 109.32 25.4688 107.434 27.8467C105.585 30.1772 103.314 29.7433 101.466 32.0738C99.5794 34.4518 100.628 36.5633 98.7414 38.9413C96.8929 41.2718 94.6217 40.8379 92.7732 43.1684C90.8871 45.5463 91.9352 47.6579 90.0491 50.0358C88.2006 52.3664 86.0578 52.0447 84.0808 54.2629C82.1974 56.3761 80.5457 60.4703 80.5457 60.4703C80.5457 60.4703 78.111 62.471 76.1629 60.8856C74.2148 59.3001 75.6793 56.5098 75.6793 56.5098C75.6793 56.5098 77.4975 52.4955 79.4172 50.4675C81.497 48.2703 83.643 48.7351 85.5883 46.4054C87.4948 44.1221 86.6086 41.9862 88.5151 39.7029C90.4604 37.3732 92.7409 37.9706 94.6862 35.6408C96.5927 33.3575 95.7065 31.2217 97.613 28.9384C99.5583 26.6087 101.839 27.2061 103.784 24.8763C105.691 22.593 104.94 20.5602 106.711 18.1739C108.397 15.9006 112.071 13.4517 112.071 13.4517Z" fill="#FDCB02"/>
</svg>
