<svg width="120" height="120" viewBox="0 0 120 120" fill="none" xmlns="http://www.w3.org/2000/svg">
<path d="M60 22C69.2826 22 75.678 24.203 82 31C83.8088 32.9447 86 36.5 86 36.5C86 36.5 87.8137 39.8165 86.5 41C85.4175 41.9752 82.7692 41 82.7692 41L82 79C82 79 68.8558 84.5484 60 84.5C51.1442 84.4516 38.9884 79 38.9884 79L38.2191 41C38.2191 41 35.5708 41.9752 34.4884 41C33.1747 39.8165 34.9884 36.5 34.9884 36.5C34.9884 36.5 37.179 32.9442 38.9884 31C45.0697 24.4654 50.7173 22 60 22Z" fill="#FDCB02"/>
<path d="M79 101L82 79L75 81.5V101C75 101 75.2535 102 77 102C78.7465 102 79 101 79 101Z" fill="#FDCB02"/>
<path d="M47.4196 94.365L39 79.05L46.2562 78.6316L51.2036 93.0683C51.2036 93.0683 51.2175 93.8908 49.5653 94.457C47.9132 95.0232 47.4196 94.365 47.4196 94.365Z" fill="#FDCB02"/>
<circle cx="49.5" cy="39.5" r="5.5" fill="black"/>
<circle cx="50" cy="39" r="5" fill="white"/>
<circle cx="70.5" cy="39.5" r="5.5" fill="black"/>
<circle cx="71" cy="39" r="5" fill="white"/>
<path d="M71 46C69.8544 42.8906 68.0167 41.3712 65 40C61.4448 38.384 58.5552 38.384 55 40C51.9833 41.3712 50.1456 42.8906 49 46C48.055 48.5651 49 52 49 52C49 52 50.765 53 52 53C53.2349 53 55 52 55 52L56 47H64L65 52C65 52 66.765 53 68 53C69.2349 53 71 52 71 52C71 52 71.945 48.5651 71 46Z" fill="#F9B402"/>
<ellipse rx="4" ry="2.5" transform="matrix(-1 0 0 1 60 45.5)" fill="black"/>
<path d="M26.1184 72.5854C26.1184 72.5854 26.6094 74.0096 27.3703 74.4381C28.1311 74.8667 29.6036 74.5483 29.6036 74.5483C29.6036 74.5483 30.9635 66.6779 33.5595 62.4301C36.203 58.1046 42.7433 53.2563 42.7433 53.2563C42.7433 53.2563 43.2036 51.2202 41.1108 50.0415C39.018 48.8628 37.5154 50.3119 37.5154 50.3119C37.5154 50.3119 31.4899 55.5546 29.203 59.9764C26.8742 64.4792 26.1184 72.5854 26.1184 72.5854Z" fill="#FDCB02"/>
<path d="M90.3611 75.5852C90.3611 75.5852 89.6443 76.9103 88.8237 77.209C88.0032 77.5076 86.6023 76.9533 86.6023 76.9533C86.6023 76.9533 86.5446 68.9665 84.6763 64.3521C82.7739 59.6533 77.1121 53.803 77.1121 53.803C77.1121 53.803 76.9901 51.7191 79.2472 50.8976C81.5042 50.0761 82.7503 51.7509 82.7503 51.7509C82.7503 51.7509 87.8399 57.9063 89.3748 62.642C90.9378 67.4643 90.3611 75.5852 90.3611 75.5852Z" fill="#FDCB02"/>
</svg>
