<svg width="120" height="120" viewBox="0 0 120 120" fill="none" xmlns="http://www.w3.org/2000/svg">
<path d="M60 35C69.2827 35 75.678 37.203 82 44C83.8088 45.9447 86 49.5 86 49.5C86 49.5 87.8137 52.8165 86.5 54C85.4176 54.9752 82.7692 54 82.7692 54L82 86C82 86 68.8558 91.5484 60 91.5C51.1442 91.4516 38.9884 86 38.9884 86L38.2192 54C38.2192 54 35.5708 54.9752 34.4884 54C33.1747 52.8165 34.9884 49.5 34.9884 49.5C34.9884 49.5 37.1791 45.9442 38.9884 44C45.0698 37.4654 50.7174 35 60 35Z" fill="#FDCB02"/>
<path d="M73.5621 97.9857L82.0001 85.9998L74.9268 84.7241L69.8893 96.4013C69.8893 96.4013 69.8638 97.1005 71.4674 97.7923C73.071 98.4841 73.5621 97.9857 73.5621 97.9857Z" fill="#FDCB02"/>
<path d="M42 100.348L39 86L46 87.6304V100.348C46 100.348 45.7465 101 44 101C42.2535 101 42 100.348 42 100.348Z" fill="#FDCB02"/>
<path d="M30.0006 86.5529C30.0006 86.5529 30.7174 87.7766 31.538 88.0524C32.3586 88.3282 33.7594 87.8163 33.7594 87.8163C33.7594 87.8163 33.8172 80.4404 35.6854 76.179C37.5879 71.8396 43.2496 66.4367 43.2496 66.4367C43.2496 66.4367 43.3716 64.5122 41.1146 63.7535C38.8575 62.9949 37.6115 64.5416 37.6115 64.5416C37.6115 64.5416 32.5219 70.2262 30.987 74.5997C29.424 79.0531 30.0006 86.5529 30.0006 86.5529Z" fill="#FDCB02"/>
<path d="M96.9202 80.7031C96.9202 80.7031 96.8766 82.1206 96.2882 82.7556C95.6997 83.3905 94.2248 83.6116 94.2248 83.6116C94.2248 83.6116 90.6434 77.1632 86.9632 74.316C83.2158 71.4167 75.6586 69.3832 75.6586 69.3832C75.6586 69.3832 74.6303 67.7518 76.2488 66.0053C77.8673 64.2588 79.7017 65.0204 79.7017 65.0204C79.7017 65.0204 86.8914 67.5752 90.3325 70.6804C93.8365 73.8423 96.9202 80.7031 96.9202 80.7031Z" fill="#FDCB02"/>
<path d="M59.8971 87C61.207 87 61.8971 86.5 61.8971 86.5L59.8971 78L57.8971 86.5C57.8971 86.5 58.5872 87 59.8971 87Z" fill="#F9B402"/>
</svg>
