<svg width="120" height="120" viewBox="0 0 120 120" fill="none" xmlns="http://www.w3.org/2000/svg">
<path d="M4.36693 55.1225C4.36693 55.1225 2.78429 53.9963 2.75391 53.0836C2.72354 52.1709 4.22779 50.942 4.22779 50.942C4.22779 50.942 8.52397 51.9233 11.3002 51.6221C14.308 51.2957 15.2364 49.3059 18.2683 49.1668C21.2398 49.0305 22.404 51.0284 25.3755 50.892C28.4074 50.7529 29.3116 48.5758 32.3436 48.4368C35.315 48.3004 36.4793 50.2983 39.4508 50.162C42.4827 50.0229 43.3869 47.8458 46.4188 47.7067C49.3903 47.5704 50.5549 49.3976 53.526 49.432C56.3565 49.4647 60.5289 48.0218 60.5289 48.0218C60.5289 48.0218 63.6366 48.5442 63.7202 51.0545C63.8037 53.5648 60.7376 54.2927 60.7376 54.2927C60.7376 54.2927 56.5162 55.5575 53.7261 55.4415C50.7032 55.3158 49.6446 53.3922 46.6102 53.455C43.6362 53.5165 42.6074 55.5874 39.6334 55.649C36.5989 55.7118 35.5519 53.5996 32.5175 53.6624C29.5435 53.724 28.5147 55.7949 25.5407 55.8564C22.5062 55.9193 21.4593 53.8071 18.4248 53.8699C15.4508 53.9315 14.4103 55.8321 11.448 56.0639C8.62603 56.2848 4.36693 55.1225 4.36693 55.1225Z" fill="#F9B402"/>
<path d="M59.9999 20C69.2826 20 80.9999 28 80.9999 28L82.7692 39L81.9999 77C81.9999 77 68.8558 82.5484 59.9999 82.5C51.1441 82.5484 37.9999 77 37.9999 77L37.2307 39L38.9999 28C38.9999 28 50.7173 20 59.9999 20Z" fill="#FDCB02"/>
<path d="M60.378 41.815C60.378 41.815 62.7185 42.0273 63.5391 41.7286C64.3596 41.4299 66.0161 39.7628 66.0161 39.7628L63.451 32.7151C63.451 32.7151 61.6918 32.8234 60.4609 33.2714C59.23 33.7194 57.8128 34.7673 57.8128 34.7673L60.378 41.815Z" fill="#F9B402"/>
<path d="M80.5 75.5621C81.1549 76.6964 81.933 77.0441 81.933 77.0441L88.2942 71.0621L79.933 73.58C79.933 73.58 79.8451 74.4277 80.5 75.5621Z" fill="#FDCB02"/>
<circle r="5.5" transform="matrix(-1 0 0 1 46.5 37.5)" fill="black"/>
<circle r="5" transform="matrix(-1 0 0 1 46 37)" fill="white"/>
<path d="M48 44C46.8544 40.8906 45.0167 39.3712 42 38C40.2224 37.192 38.8112 36.788 37.2 36.788C37.2 36.788 36.5 37.797 36.5 39.5C36.5 41.203 37.2 45 37.2 45H41L42 50C42 50 43.765 51 45 51C46.2349 51 48 50 48 50C48 50 48.945 46.5651 48 44Z" fill="#F9B402"/>
<path d="M36 43.5C36 45.8807 37.3431 46 39 46C40.6569 46 42 44.8807 42 43.5C42 42.1193 40.6569 41 39 41C37.3431 41 36 41.1193 36 43.5Z" fill="black"/>
<path d="M5.46961 70.8031C5.46961 70.8031 3.65237 70.1169 3.39063 69.2421C3.12889 68.3672 4.27066 66.7958 4.27066 66.7958C4.27066 66.7958 8.67513 66.651 11.2832 65.6528C14.1087 64.5713 14.4999 62.4107 17.3965 61.5043C20.2353 60.6159 21.8699 62.2515 24.7087 61.3631C27.6053 60.4567 27.9254 58.1211 30.822 57.2146C33.6609 56.3263 35.2954 57.9619 38.1343 57.0735C41.0309 56.167 41.351 53.8315 44.2476 52.925C47.0864 52.0366 48.6778 53.5071 51.5598 52.7839C54.3053 52.0949 57.9729 49.6372 57.9729 49.6372C57.9729 49.6372 61.1111 49.3511 61.8311 51.7574C62.551 54.1638 59.7713 55.6482 59.7713 55.6482C59.7713 55.6482 56.011 57.9462 53.2833 58.5444C50.3281 59.1925 48.8146 57.6018 45.8961 58.4351C43.0358 59.2518 42.5682 61.5164 39.7079 62.3332C36.7894 63.1665 35.2392 61.3905 32.3207 62.2238C29.4604 63.0406 28.9928 65.3051 26.1325 66.1219C23.214 66.9552 21.6638 65.1792 18.7453 66.0126C15.885 66.8293 15.3627 68.9322 12.5571 69.9106C9.88427 70.8427 5.46961 70.8031 5.46961 70.8031Z" fill="#F9B402"/>
<path d="M58 99L57 79H63L62 99C62 99 61.7464 100 60 100C60 100 56.2252 100.066 56 100C56 99 58 99 58 99Z" fill="#FDCB02"/>
</svg>
