<svg width="120" height="120" viewBox="0 0 120 120" fill="none" xmlns="http://www.w3.org/2000/svg">
<path d="M60 35C50.7173 35 44.322 37.203 38 44C36.1912 45.9447 34 49.5 34 49.5C34 49.5 32.1863 52.8165 33.5 54C34.5824 54.9752 37.2308 54 37.2308 54L38 86C38 86 51.1442 91.5484 60 91.5C68.8558 91.4516 81.0116 86 81.0116 86L81.7808 54C81.7808 54 84.4292 54.9752 85.5116 54C86.8253 52.8165 85.0116 49.5 85.0116 49.5C85.0116 49.5 82.8209 45.9442 81.0116 44C74.9302 37.4654 69.2826 35 60 35Z" fill="#FDCB02"/>
<path d="M41 100.348L38 86L45 87.6304V100.348C45 100.348 44.7465 101 43 101C41.2535 101 41 100.348 41 100.348Z" fill="#FDCB02"/>
<path d="M78 100.348L81 86L74 87.6304V100.348C74 100.348 74.2535 101 76 101C77.7465 101 78 100.348 78 100.348Z" fill="#FDCB02"/>
<path d="M89.9994 86.5529C89.9994 86.5529 89.2826 87.7766 88.462 88.0524C87.6414 88.3282 86.2406 87.8163 86.2406 87.8163C86.2406 87.8163 86.1828 80.4404 84.3146 76.179C82.4121 71.8396 76.7504 66.4367 76.7504 66.4367C76.7504 66.4367 76.6284 64.5122 78.8854 63.7535C81.1425 62.9949 82.3885 64.5416 82.3885 64.5416C82.3885 64.5416 87.4781 70.2262 89.013 74.5997C90.576 79.0531 89.9994 86.5529 89.9994 86.5529Z" fill="#FDCB02"/>
<path d="M29.6389 86.5529C29.6389 86.5529 30.3557 87.7766 31.1763 88.0524C31.9968 88.3282 33.3977 87.8163 33.3977 87.8163C33.3977 87.8163 33.4554 80.4404 35.3237 76.179C37.2261 71.8396 42.8879 66.4367 42.8879 66.4367C42.8879 66.4367 43.0099 64.5122 40.7528 63.7535C38.4958 62.9949 37.2497 64.5416 37.2497 64.5416C37.2497 64.5416 32.1601 70.2262 30.6252 74.5997C29.0622 79.0531 29.6389 86.5529 29.6389 86.5529Z" fill="#FDCB02"/>
<path d="M59.8971 87C61.207 87 61.8971 86.5 61.8971 86.5L59.8971 78L57.8971 86.5C57.8971 86.5 58.5872 87 59.8971 87Z" fill="#F9B402"/>
</svg>
