<svg width="120" height="120" viewBox="0 0 120 120" fill="none" xmlns="http://www.w3.org/2000/svg">
<path d="M60 22C50.7173 22 44.322 24.203 38 31C36.1912 32.9447 34 36.5 34 36.5C34 36.5 32.1863 39.8165 33.5 41C34.5824 41.9752 37.2308 41 37.2308 41L38 79C38 79 51.1442 84.5484 60 84.5C68.8558 84.4516 81.0116 79 81.0116 79L81.7808 41C81.7808 41 84.4292 41.9752 85.5116 41C86.8253 39.8165 85.0116 36.5 85.0116 36.5C85.0116 36.5 82.8209 32.9442 81.0116 31C74.9302 24.4654 69.2826 22 60 22Z" fill="#FDCB02"/>
<path d="M41 101L38 79L45 81.5V101C45 101 44.7465 102 43 102C41.2535 102 41 101 41 101Z" fill="#FDCB02"/>
<path d="M78 101L81 79L74 81.5V101C74 101 74.2535 102 76 102C77.7465 102 78 101 78 101Z" fill="#FDCB02"/>
<path d="M89.9994 75.5853C89.9994 75.5853 89.2826 76.9104 88.462 77.209C87.6414 77.5077 86.2406 76.9534 86.2406 76.9534C86.2406 76.9534 86.1828 68.9666 84.3146 64.3522C82.4121 59.6534 76.7504 53.8031 76.7504 53.8031C76.7504 53.8031 76.6284 51.7191 78.8854 50.8976C81.1425 50.0761 82.3885 51.751 82.3885 51.751C82.3885 51.751 87.4781 57.9064 89.013 62.6421C90.576 67.4644 89.9994 75.5853 89.9994 75.5853Z" fill="#FDCB02"/>
<path d="M29.6389 75.5852C29.6389 75.5852 30.3557 76.9103 31.1763 77.209C31.9968 77.5076 33.3977 76.9533 33.3977 76.9533C33.3977 76.9533 33.4554 68.9665 35.3237 64.3521C37.2261 59.6533 42.8879 53.803 42.8879 53.803C42.8879 53.803 43.0099 51.7191 40.7528 50.8976C38.4958 50.0761 37.2497 51.7509 37.2497 51.7509C37.2497 51.7509 32.1601 57.9063 30.6252 62.642C29.0622 67.4643 29.6389 75.5852 29.6389 75.5852Z" fill="#FDCB02"/>
<path d="M59.8971 77.8121C61.207 77.8121 61.8971 77.3121 61.8971 77.3121L59.8971 68.8121L57.8971 77.3121C57.8971 77.3121 58.5872 77.8121 59.8971 77.8121Z" fill="#F9B402"/>
</svg>
