<svg width="120" height="120" viewBox="0 0 120 120" fill="none" xmlns="http://www.w3.org/2000/svg">
<path d="M45.3721 34.1868C53.8056 30.3081 60.5364 29.6373 69.1202 33.1709C71.5761 34.1819 75.0524 36.4964 75.0524 36.4964C75.0524 36.4964 78.0859 38.7516 77.3869 40.3758C76.811 41.7141 73.9975 41.9347 73.9975 41.9347L86.6696 71.3287C86.6696 71.3287 77.0462 81.8617 68.9803 85.5181C60.9144 89.1745 47.5927 89.3008 47.5927 89.3008L33.5229 60.5497C33.5229 60.5497 31.5243 62.5422 30.1334 62.1085C28.4454 61.5822 28.7074 57.8113 28.7074 57.8113C28.7074 57.8113 29.2118 53.6654 30.0433 51.1431C32.8379 42.6652 36.9387 38.0655 45.3721 34.1868Z" fill="#FDCB02"/>
<path d="M89.9392 85.6175L86.6696 71.3287L80.9912 75.7349L86.3051 87.2889C86.3051 87.2889 86.808 87.7754 88.3947 87.0457C89.9814 86.3159 89.9392 85.6175 89.9392 85.6175Z" fill="#FDCB02"/>
<path d="M49 100.348L46 86L53 87.6304V100.348C53 100.348 52.7465 101 51 101C49.2535 101 49 100.348 49 100.348Z" fill="#FDCB02"/>
<circle r="5.5" transform="matrix(-0.908519 0.417844 0.417844 0.908519 62.2239 45.6985)" fill="black"/>
<circle r="5" transform="matrix(-0.908519 0.417844 0.417844 0.908519 61.5607 45.4532)" fill="white"/>
<circle r="5.5" transform="matrix(-0.908519 0.417844 0.417844 0.908519 43.145 54.4732)" fill="black"/>
<circle r="5" transform="matrix(-0.908519 0.417844 0.417844 0.908519 42.4818 54.2279)" fill="white"/>
<path d="M65.3941 51.395C63.0541 49.0487 60.7496 48.4362 57.436 48.4509C53.5308 48.4683 50.9055 49.6757 48.3508 52.6294C46.183 55.1357 45.1482 57.2839 45.4067 60.5875C45.62 63.3129 47.9138 66.0387 47.9138 66.0387C47.9138 66.0387 49.9352 66.2097 51.0572 65.6936C52.1792 65.1776 53.3649 63.5316 53.3649 63.5316L52.1842 58.5712L59.4523 55.2284L62.4501 59.3532C62.4501 59.3532 64.4715 59.5242 65.5935 59.0081C66.7155 58.4921 67.9012 56.8461 67.9012 56.8461C67.9012 56.8461 67.3245 53.3306 65.3941 51.395Z" fill="#F9B402"/>
<ellipse rx="4" ry="2.5" transform="matrix(-0.908519 0.417844 0.417844 0.908519 55.1915 55.537)" fill="black"/>
<path d="M19.0164 81.7789C19.0164 81.7789 18.842 83.1863 19.3261 83.904C19.8101 84.6217 21.2337 85.0665 21.2337 85.0665C21.2337 85.0665 25.762 79.2439 29.8354 76.9949C33.9832 74.7048 41.7629 73.8548 41.7629 73.8548C41.7629 73.8548 43.0294 72.4005 41.698 70.4264C40.3665 68.4523 38.437 68.9234 38.437 68.9234C38.437 68.9234 30.9405 70.3449 27.0637 72.8854C23.1161 75.4724 19.0164 81.7789 19.0164 81.7789Z" fill="#FDCB02"/>
<path d="M57.9574 69.2502C57.9574 69.2502 57.838 70.6633 58.3496 71.3616C58.8612 72.0599 60.301 72.4489 60.301 72.4489C60.301 72.4489 64.5992 66.4544 68.5819 64.0486C72.6375 61.5987 80.3781 60.4464 80.3781 60.4464C80.3781 60.4464 81.587 58.944 80.1797 57.0232C78.7724 55.1024 76.8627 55.6483 76.8627 55.6483C76.8627 55.6483 69.4273 57.3606 65.6524 60.0501C61.8084 62.7888 57.9574 69.2502 57.9574 69.2502Z" fill="#F9B402"/>
</svg>
