<svg width="120" height="120" viewBox="0 0 120 120" fill="none" xmlns="http://www.w3.org/2000/svg">
<g clip-path="url(#clip0)">
<path d="M114.71 66.7209C114.71 66.7209 115.871 68.2783 115.62 69.1563C115.369 70.0342 113.56 70.7426 113.56 70.7426C113.56 70.7426 109.772 68.4907 107.037 67.9258C104.075 67.3139 102.581 68.923 99.6521 68.1254C96.7821 67.3436 96.2868 65.0849 93.4167 64.3032C90.4883 63.5056 88.9599 65.3004 86.0314 64.5027C83.1614 63.721 82.6661 61.4623 79.796 60.6806C76.8676 59.883 75.3392 61.6778 72.4108 60.8801C69.5407 60.0984 68.9928 58.002 66.1754 57.058C63.4914 56.1586 59.0775 56.2521 59.0775 56.2521C59.0775 56.2521 56.2799 54.8017 56.9704 52.3867C57.6609 49.9718 60.8024 50.2195 60.8024 50.2195C60.8024 50.2195 65.2083 50.3105 67.8284 51.2768C70.6669 52.3236 71.0844 54.4793 73.9919 55.3503C76.8414 56.2039 78.4558 54.5485 81.3053 55.4021C84.2128 56.2731 84.5614 58.6046 87.4688 59.4756C90.3183 60.3293 91.9328 58.6738 94.7823 59.5274C97.6897 60.3985 98.0383 62.7299 100.946 63.601C103.795 64.4546 105.369 62.9648 108.259 63.6528C111.013 64.3082 114.71 66.7209 114.71 66.7209Z" fill="#F9B402"/>
<path d="M60 20C50.7174 20 39 28 39 28L37.2308 39L38 77C38 77 51.1442 82.5484 60 82.5C68.8558 82.5484 82 77 82 77L82.7692 39L81 28C81 28 69.2827 20 60 20Z" fill="#FDCB02"/>
<path d="M59.622 41.815C59.622 41.815 57.2815 42.0273 56.4609 41.7286C55.6403 41.4299 53.9838 39.7628 53.9838 39.7628L56.549 32.7151C56.549 32.7151 58.3082 32.8234 59.5391 33.2714C60.7699 33.7194 62.1871 34.7673 62.1871 34.7673L59.622 41.815Z" fill="#F9B402"/>
<path d="M39.5 75.5621C38.8451 76.6964 38.067 77.0441 38.067 77.0441L31.7058 71.0621L40.067 73.58C40.067 73.58 40.1549 74.4277 39.5 75.5621Z" fill="#FDCB02"/>
<circle cx="73.5" cy="37.5" r="5.5" fill="black"/>
<circle cx="74" cy="37" r="5" fill="white"/>
<path d="M72 44C73.1455 40.8906 74.9833 39.3712 78 38C79.7776 37.192 81.1888 36.788 82.8 36.788C82.8 36.788 83.5 37.797 83.5 39.5C83.5 41.203 82.8 45 82.8 45H79L78 50C78 50 76.2349 51 75 51C73.765 51 72 50 72 50C72 50 71.0549 46.5651 72 44Z" fill="#F9B402"/>
<path d="M84 43.5C84 45.8807 82.6568 46 81 46C79.3431 46 78 44.8807 78 43.5C78 42.1193 79.3431 41 81 41C82.6568 41 84 41.1193 84 43.5Z" fill="black"/>
<path d="M118.471 51.4579C118.471 51.4579 119.99 52.6684 119.97 53.5814C119.951 54.4944 118.382 55.6399 118.382 55.6399C118.382 55.6399 114.146 54.4266 111.357 54.5767C108.336 54.7393 107.301 56.6758 104.266 56.65C101.292 56.6248 100.238 54.5666 97.2632 54.5414C94.2282 54.5157 93.2071 56.6404 90.1721 56.6147C87.1976 56.5895 86.1436 54.5313 83.1691 54.5061C80.1341 54.4803 79.113 56.6051 76.078 56.5794C73.1035 56.5542 72.0399 54.6664 69.0749 54.4708C66.2504 54.2844 62.0058 55.4986 62.0058 55.4986C62.0058 55.4986 58.9311 54.8083 58.984 52.2971C59.0369 49.7859 62.1379 49.2257 62.1379 49.2257C62.1379 49.2257 66.4218 48.1919 69.2015 48.4592C72.2131 48.7489 73.1657 50.7272 76.1991 50.8292C79.172 50.9292 80.3118 48.9173 83.2847 49.0173C86.3181 49.1193 87.2488 51.2852 90.2822 51.3873C93.2551 51.4873 94.3949 49.4753 97.3678 49.5753C100.401 49.6774 101.332 51.8433 104.365 51.9453C107.338 52.0454 108.48 50.204 111.451 50.1334C114.281 50.0661 118.471 51.4579 118.471 51.4579Z" fill="#F9B402"/>
<path d="M62 99L63 79H57L58 99C58 99 58.2535 100 60 100C60 100 63.7748 100.066 64 100C64 99 62 99 62 99Z" fill="#FDCB02"/>
</g>
<defs>
<clipPath id="clip0">
<rect width="120" height="120" fill="white"/>
</clipPath>
</defs>
</svg>
