<svg width="120" height="120" viewBox="0 0 120 120" fill="none" xmlns="http://www.w3.org/2000/svg">
<path d="M33.0113 82.6297C33.0113 82.6297 44.77 90.7098 53.4544 92.4445C62.1193 94.2741 76.1111 91.4844 76.1111 91.4844L83.5056 59.3144L83.9863 48.1834C83.9863 48.1834 76.2906 38.4352 65.0259 36.1209C53.7612 33.8066 41.1125 39.3751 38.8988 50.15L33.0113 82.6297Z" fill="#FDCB02"/>
<path d="M60.2654 57.4135C60.2654 57.4135 57.93 57.1504 57.1863 56.6927C56.4427 56.235 55.1556 54.2687 55.1556 54.2687L59.0865 47.8814C59.0865 47.8814 60.788 48.3415 61.9035 49.028C63.019 49.7145 64.1964 51.0262 64.1964 51.0262L60.2654 57.4135Z" fill="#F9B402"/>
<path d="M34.7699 81.5231C33.9001 82.5024 33.068 82.6864 33.068 82.6864L28.0407 75.5466L35.7242 79.6957C35.7242 79.6957 35.6397 80.5437 34.7699 81.5231Z" fill="#FDCB02"/>
<circle cx="74.7278" cy="55.9797" r="5.5" transform="rotate(11.6097 74.7278 55.9797)" fill="black"/>
<circle cx="75.3182" cy="55.5905" r="5" transform="rotate(11.6097 75.3182 55.5905)" fill="white"/>
<path d="M71.9504 62.0449C73.6983 59.2296 75.8042 58.1111 79.0352 57.3751C80.939 56.9413 82.4026 56.8296 83.9809 57.1538C83.9809 57.1538 84.4635 58.2831 84.1208 59.9512C83.7781 61.6193 82.3283 65.1978 82.3283 65.1978L78.606 64.4331L76.6202 69.1296C76.6202 69.1296 74.69 69.7539 73.4804 69.5054C72.2707 69.2568 70.743 67.9221 70.743 67.9221C70.743 67.9221 70.5085 64.3673 71.9504 62.0449Z" fill="#F9B402"/>
<path d="M83.8056 63.97C83.3265 66.302 81.9868 66.1485 80.3638 65.8151C78.7409 65.4817 77.6505 64.115 77.9283 62.7625C78.2062 61.41 79.7471 60.584 81.3701 60.9174C82.993 61.2508 84.2847 61.638 83.8056 63.97Z" fill="black"/>
<path d="M73.5816 81.9802C73.5816 81.9802 74.8584 81.6491 75.3739 81.0101C75.8895 80.3711 75.9433 79.0532 75.9433 79.0532C75.9433 79.0532 69.7611 77.2997 66.8237 74.7152C63.8325 72.0835 61.2466 65.9868 61.2466 65.9868C61.2466 65.9868 59.6705 65.4376 58.2523 67.1952C56.8342 68.9528 57.704 70.3773 57.704 70.3773C57.704 70.3773 60.7246 76.0491 63.8715 78.374C67.076 80.7414 73.5816 81.9802 73.5816 81.9802Z" fill="#F9B402"/>
<path d="M66.096 96.9907L65.3286 89.2666L57.8404 92.082L62.8797 99.8024C62.8797 99.8024 63.2317 100.738 65.1037 100.035C65.1037 100.035 70.8958 98.3911 70.368 96.9871C69.8401 95.583 66.096 96.9907 66.096 96.9907Z" fill="#FDCB02"/>
<path d="M43.6707 95.6866L47.8263 89.1306L40.1939 86.7333L39.4051 95.919C39.4051 95.919 39.1054 96.8731 41.0135 97.4724C41.0135 97.4724 46.5879 99.7474 47.0374 98.3163C47.4869 96.8853 43.6707 95.6866 43.6707 95.6866Z" fill="#FDCB02"/>
</svg>
