<svg width="120" height="120" viewBox="0 0 120 120" fill="none" xmlns="http://www.w3.org/2000/svg">
<path d="M60 22C50.7174 22 44.3221 24.203 38 31C36.1912 32.9447 34 36.5 34 36.5C34 36.5 32.1864 39.8165 33.5 41C34.5825 41.9752 37.2308 41 37.2308 41L38 79C38 79 51.1442 84.5484 60 84.5C68.8558 84.4516 81.0116 79 81.0116 79L81.7809 41C81.7809 41 84.4292 41.9752 85.5116 41C86.8253 39.8165 85.0116 36.5 85.0116 36.5C85.0116 36.5 82.821 32.9442 81.0116 31C74.9303 24.4654 69.2827 22 60 22Z" fill="#FDCB02"/>
<path d="M41 101L38 79L45 81.5V101C45 101 44.7465 102 43 102C41.2535 102 41 101 41 101Z" fill="#FDCB02"/>
<path d="M78 101L81 79L74 81.5V101C74 101 74.2535 102 76 102C77.7465 102 78 101 78 101Z" fill="#FDCB02"/>
<circle cx="49.5" cy="39.5" r="5.5" fill="black"/>
<circle cx="50" cy="39" r="5" fill="white"/>
<circle cx="70.5" cy="39.5" r="5.5" fill="black"/>
<circle cx="71" cy="39" r="5" fill="white"/>
<path d="M49 46C50.1456 42.8906 51.9833 41.3712 55 40C58.5552 38.384 61.4448 38.384 65 40C68.0167 41.3712 69.8544 42.8906 71 46C71.945 48.5651 71 52 71 52C71 52 69.235 53 68 53C66.7651 53 65 52 65 52L64 47H56L55 52C55 52 53.235 53 52 53C50.7651 53 49 52 49 52C49 52 48.055 48.5651 49 46Z" fill="#F9B402"/>
<ellipse cx="60" cy="45.5" rx="4" ry="2.5" fill="black"/>
<path d="M89.5974 110.343C89.5974 110.343 91.108 111.564 91.9952 111.348C92.8823 111.131 93.6611 109.352 93.6611 109.352C93.6611 109.352 91.5596 105.478 91.1026 102.723C90.6074 99.7386 92.2739 98.309 91.5919 95.3515C90.9234 92.453 88.6859 91.8694 88.0174 88.9709C87.3354 86.0134 89.1888 84.5566 88.5067 81.5991C87.8383 78.7006 85.6007 78.117 84.9323 75.2185C84.2502 72.261 86.1036 70.8042 85.4216 67.8467C84.7531 64.9482 82.6799 64.3184 81.8471 61.4661C81.0538 58.7489 81.3205 54.3421 81.3205 54.3421C81.3205 54.3421 79.981 51.4897 77.5408 52.0848C75.1006 52.68 75.2249 55.8289 75.2249 55.8289C75.2249 55.8289 75.1428 60.2349 76.0055 62.8909C76.9401 65.7683 79.0777 66.2702 79.8339 69.2096C80.5751 72.0904 78.8575 73.6386 79.5986 76.5194C80.3548 79.4588 82.6708 79.8987 83.427 82.8381C84.1682 85.7189 82.4506 87.2671 83.1917 90.1479C83.9479 93.0873 86.264 93.5271 87.0202 96.4665C87.7613 99.3473 86.2109 100.861 86.7849 103.776C87.3317 106.554 89.5974 110.343 89.5974 110.343Z" fill="#FDCB02"/>
<path d="M30.1065 110.423C30.1065 110.423 28.6173 111.671 27.7265 111.47C26.8357 111.269 26.0263 109.503 26.0263 109.503C26.0263 109.503 28.0604 105.593 28.4696 102.831C28.9131 99.8383 27.2221 98.4377 27.8528 95.4689C28.471 92.5592 30.6981 91.937 31.3163 89.0274C31.947 86.0585 30.0687 84.634 30.6995 81.6652C31.3176 78.7555 33.5447 78.1333 34.1629 75.2236C34.7937 72.2548 32.9153 70.8303 33.5461 67.8614C34.1643 64.9518 36.2263 64.2862 37.0096 61.4199C37.7557 58.6894 37.4128 54.2879 37.4128 54.2879C37.4128 54.2879 38.7027 51.4127 41.1528 51.9655C43.603 52.5183 43.5332 55.6689 43.5332 55.6689C43.5332 55.6689 43.6915 60.0729 42.875 62.7433C41.9903 65.6365 39.8617 66.1753 39.1565 69.1273C38.4653 72.0205 40.2095 73.5388 39.5183 76.432C38.8131 79.384 36.505 79.8639 35.7998 82.816C35.1087 85.7092 36.8528 87.2274 36.1616 90.1206C35.4564 93.0727 33.1484 93.5526 32.4431 96.5046C31.752 99.3978 33.3284 100.884 32.805 103.809C32.3063 106.596 30.1065 110.423 30.1065 110.423Z" fill="#FDCB02"/>
</svg>
