<svg width="120" height="120" viewBox="0 0 120 120" fill="none" xmlns="http://www.w3.org/2000/svg">
<path d="M60 35C50.7173 35 44.322 37.203 38 44C36.1912 45.9447 34 49.5 34 49.5C34 49.5 32.1863 52.8165 33.5 54C34.5824 54.9752 37.2308 54 37.2308 54L38 86C38 86 51.1442 91.5484 60 91.5C68.8558 91.4516 81.0116 86 81.0116 86L81.7808 54C81.7808 54 84.4292 54.9752 85.5116 54C86.8253 52.8165 85.0116 49.5 85.0116 49.5C85.0116 49.5 82.8209 45.9442 81.0116 44C74.9302 37.4654 69.2826 35 60 35Z" fill="#FDCB02"/>
<path d="M46.4379 97.9857L38 85.9998L45.0733 84.7241L50.1107 96.4012C50.1107 96.4012 50.1363 97.1005 48.5327 97.7923C46.9291 98.4841 46.4379 97.9857 46.4379 97.9857Z" fill="#FDCB02"/>
<path d="M72.6324 97.9988L81.0001 85.9637L73.9195 84.7295L68.9504 96.4359C68.9504 96.4359 68.9289 97.1353 70.5366 97.8177C72.1442 98.5001 72.6324 97.9988 72.6324 97.9988Z" fill="#FDCB02"/>
<path d="M23.0798 80.7031C23.0798 80.7031 23.1234 82.1206 23.7118 82.7556C24.3002 83.3905 25.7752 83.6116 25.7752 83.6116C25.7752 83.6116 29.3566 77.1632 33.0367 74.316C36.7841 71.4167 44.3413 69.3832 44.3413 69.3832C44.3413 69.3832 45.3697 67.7518 43.7512 66.0053C42.1326 64.2588 40.2982 65.0204 40.2982 65.0204C40.2982 65.0204 33.1085 67.5752 29.6674 70.6804C26.1634 73.8423 23.0798 80.7031 23.0798 80.7031Z" fill="#FDCB02"/>
<path d="M95.693 80.7031C95.693 80.7031 95.6494 82.1206 95.061 82.7555C94.4725 83.3905 92.9976 83.6116 92.9976 83.6116C92.9976 83.6116 89.4162 77.1632 85.7361 74.316C81.9886 71.4166 74.4314 69.3831 74.4314 69.3831C74.4314 69.3831 73.4031 67.7518 75.0216 66.0053C76.6401 64.2588 78.4745 65.0204 78.4745 65.0204C78.4745 65.0204 85.6642 67.5752 89.1053 70.6803C92.6094 73.8423 95.693 80.7031 95.693 80.7031Z" fill="#FDCB02"/>
<path d="M59.8971 87C61.207 87 61.8971 86.5 61.8971 86.5L59.8971 78L57.8971 86.5C57.8971 86.5 58.5872 87 59.8971 87Z" fill="#F9B402"/>
</svg>
