<svg width="120" height="120" viewBox="0 0 120 120" fill="none" xmlns="http://www.w3.org/2000/svg">
<path d="M41.19 69.0526C41.19 69.0526 39.7164 68.7396 39.198 68.0369C38.6795 67.3342 38.8153 65.8338 38.8153 65.8338C38.8153 65.8338 46.4602 63.521 50.3584 60.4247C54.3279 57.2718 58.3394 50.1873 58.3394 50.1873C58.3394 50.1873 60.3039 49.4813 61.7298 51.4141C63.1557 53.347 61.9014 55.0156 61.9014 55.0156C61.9014 55.0156 57.4355 61.6374 53.3267 64.4482C49.1428 67.3105 41.19 69.0526 41.19 69.0526Z" fill="#F9B402"/>
<path d="M49.2228 23.9064C57.9175 20.6553 71.6946 24.0448 71.6946 24.0448L77.2043 33.7285L89.7926 69.5911C89.7926 69.5911 79.4242 79.3916 71.1123 82.4478C62.8344 85.5947 48.5795 85.0013 48.5795 85.0013L34.5501 49.6775L32.3548 38.7546C32.3548 38.7546 40.5281 27.1575 49.2228 23.9064Z" fill="#FDCB02"/>
<path d="M57.2172 44.2073C57.2172 44.2073 59.4838 43.5864 60.1478 43.0192C60.8118 42.4521 61.7795 40.3105 61.7795 40.3105L56.9085 34.6075C56.9085 34.6075 55.2986 35.325 54.3026 36.1757C53.3066 37.0265 52.3462 38.5043 52.3462 38.5043L57.2172 44.2073Z" fill="#F9B402"/>
<path d="M87.8841 68.7696C88.8948 69.6027 89.7454 69.6559 89.7454 69.6559L93.6086 61.8248L86.6588 67.1116C86.6588 67.1116 86.8734 67.9364 87.8841 68.7696Z" fill="#FDCB02"/>
<circle r="5.5" transform="matrix(-0.936663 0.350232 0.350232 0.936663 42.7069 45.0261)" fill="black"/>
<circle r="5" transform="matrix(-0.936663 0.350232 0.350232 0.936663 42.0635 44.7329)" fill="white"/>
<path d="M46.3885 50.5891C44.2265 48.0779 41.973 47.2983 38.6671 47.0705C36.7191 46.9363 35.2558 47.0521 33.7466 47.6164C33.7466 47.6164 33.4444 48.8067 34.0408 50.4018C34.6372 51.9969 36.6227 55.3083 36.6227 55.3083L40.1821 53.9774L42.8699 58.3105C42.8699 58.3105 44.8734 58.629 46.0301 58.1964C47.1869 57.7639 48.4899 56.2091 48.4899 56.2091C48.4899 56.2091 48.1721 52.6608 46.3885 50.5891Z" fill="#F9B402"/>
<path d="M34.9734 54.3235C35.8072 56.5535 37.1071 56.1948 38.659 55.6145C40.2109 55.0342 41.077 53.5154 40.5934 52.2221C40.1098 50.9289 38.4598 50.3509 36.9078 50.9312C35.3559 51.5115 34.1396 52.0936 34.9734 54.3235Z" fill="black"/>
<path d="M41.566 94.8353L53.3256 78.6269L58 82.3885L44.6823 97.343C44.6823 97.343 43.8578 97.9632 42.4972 96.8682C42.4972 96.8682 39.515 94.5531 39.3809 94.3605C40.0078 93.5814 41.566 94.8353 41.566 94.8353Z" fill="#FDCB02"/>
<path d="M95.5081 89.5348L81.8863 74.8567L86.4826 71L98.5723 86.9637C98.5723 86.9637 99.0209 87.8927 97.683 89.0153C97.683 89.0153 94.8338 91.4922 94.6188 91.5864C93.9761 90.8204 95.5081 89.5348 95.5081 89.5348Z" fill="#FDCB02"/>
<path d="M85.6198 57.0542C85.6198 57.0542 86.7032 56.0074 86.7701 55.1367C86.837 54.266 85.9263 53.066 85.9263 53.066C85.9263 53.066 78.2184 55.1588 73.2715 54.6008C68.2342 54.0325 61.0765 50.1532 61.0765 50.1532C61.0765 50.1532 59.0365 50.5963 58.8525 52.9912C58.6684 55.386 60.6167 56.1356 60.6167 56.1356C60.6167 56.1356 67.9144 59.3817 72.8884 59.5861C77.9534 59.7942 85.6198 57.0542 85.6198 57.0542Z" fill="#F9B402"/>
</svg>
