<svg width="120" height="120" viewBox="0 0 120 120" fill="none" xmlns="http://www.w3.org/2000/svg">
<g clip-path="url(#clip0)">
<path d="M60.0001 22C50.7174 22 44.3221 24.203 38.0001 31C36.1913 32.9447 34.0001 36.5 34.0001 36.5C34.0001 36.5 32.1864 39.8165 33.5001 41C34.5825 41.9752 37.2308 41 37.2308 41L38.0001 79C38.0001 79 51.1442 84.5484 60.0001 84.5C68.8559 84.4516 81.0117 79 81.0117 79L81.7809 41C81.7809 41 84.4292 41.9752 85.5117 41C86.8253 39.8165 85.0117 36.5 85.0117 36.5C85.0117 36.5 82.821 32.9442 81.0117 31C74.9303 24.4654 69.2827 22 60.0001 22Z" fill="#FDCB02"/>
<path d="M41.0001 101L38.0001 79L45.0001 81.5V101C45.0001 101 44.7465 102 43.0001 102C41.2536 102 41.0001 101 41.0001 101Z" fill="#FDCB02"/>
<path d="M78.0001 101L81.0001 79L74.0001 81.5V101C74.0001 101 74.2536 102 76.0001 102C77.7465 102 78.0001 101 78.0001 101Z" fill="#FDCB02"/>
<path d="M2.51505 10.7914C2.51505 10.7914 2.5569 8.84939 3.29465 8.31125C4.0324 7.77312 5.89441 8.3264 5.89441 8.3264C5.89441 8.3264 7.49768 12.4313 9.3074 14.558C11.2681 16.8622 13.4356 16.5115 15.2549 18.9409C17.038 21.3219 16.04 23.4078 17.8231 25.7888C19.6424 28.2182 21.9513 27.7422 23.7706 30.1716C25.5536 32.5526 24.5557 34.6386 26.3387 37.0195C28.1581 39.4489 30.4669 38.973 32.2863 41.4024C34.0693 43.7834 33.2127 45.7736 34.8544 48.2503C36.4184 50.6096 39.9571 53.2494 39.9571 53.2494C39.9571 53.2494 41.272 56.1133 39.2427 57.5935C37.2135 59.0737 34.888 56.9469 34.888 56.9469C34.888 56.9469 31.469 54.1665 29.9966 51.7937C28.4014 49.223 29.3973 47.2662 27.6396 44.7918C25.917 42.3667 23.6259 42.6799 21.9033 40.2549C20.1457 37.7805 21.304 35.7273 19.5464 33.2529C17.8238 30.8279 15.5327 31.141 13.8101 28.716C12.0524 26.2416 13.2108 24.1884 11.4531 21.714C9.73052 19.289 7.57372 19.4968 5.71683 17.1771C3.94788 14.9673 2.51505 10.7914 2.51505 10.7914Z" fill="#FDCB02"/>
<path d="M115.896 11.7914C115.896 11.7914 115.854 9.84941 115.117 9.31128C114.379 8.77314 112.517 9.32642 112.517 9.32642C112.517 9.32642 110.914 13.4313 109.104 15.558C107.143 17.8622 104.976 17.5115 103.156 19.9409C101.373 22.3219 102.371 24.4078 100.588 26.7888C98.7689 29.2182 96.4601 28.7423 94.6407 31.1717C92.8577 33.5526 93.8556 35.6386 92.0726 38.0195C90.2533 40.4489 87.9444 39.973 86.1251 42.4024C84.342 44.7834 85.1986 46.7737 83.5569 49.2503C81.9929 51.6097 78.4542 54.2494 78.4542 54.2494C78.4542 54.2494 77.1394 57.1133 79.1686 58.5935C81.1978 60.0737 83.5233 57.9469 83.5233 57.9469C83.5233 57.9469 86.9423 55.1666 88.4147 52.7938C90.01 50.2231 89.014 48.2662 90.7717 45.7918C92.4943 43.3668 94.7854 43.6799 96.508 41.2549C98.2656 38.7805 97.1073 36.7273 98.8649 34.2529C100.588 31.8279 102.879 32.1411 104.601 29.716C106.359 27.2416 105.201 25.1884 106.958 22.7141C108.681 20.289 110.838 20.4968 112.694 18.1771C114.463 15.9673 115.896 11.7914 115.896 11.7914Z" fill="#FDCB02"/>
</g>
<defs>
<clipPath id="clip0">
<rect width="120" height="120" fill="white"/>
</clipPath>
</defs>
</svg>
