<svg width="120" height="120" viewBox="0 0 120 120" fill="none" xmlns="http://www.w3.org/2000/svg">
<path d="M15.718 50.5524C20.0398 56.6828 32.0399 59.0169 32.0399 59.0169C32.0399 59.0169 31.8757 67.4749 35.0434 71.0212C40.2181 76.8142 57.1394 70.005 57.1394 70.005L61.5055 68.2505C61.5055 68.2505 61.8635 66.5592 61.349 65.7075C60.9277 65.01 59.6728 64.4647 59.6728 64.4647C59.6728 64.4647 45.1208 68.8903 42.2579 62.6754C40.9208 59.7728 41.8747 54.3473 41.8747 54.3473C41.8747 54.3473 49.6798 48.2882 48.023 44.139C47.1145 41.864 43.3283 40.0808 43.3283 40.0808L43.9009 34.4606C43.9009 34.4606 44.7997 26.018 40.2668 24.7336C35.5654 23.4014 34.5861 26.8714 34.5861 26.8714C34.5861 26.8714 33.1314 23.647 30.1615 23.5246C25.6409 23.3381 24.1719 28.5431 24.1719 28.5431C24.1719 28.5431 23.4145 25.3101 20.4467 25.4755C17.2092 25.656 13.3778 30.5399 12.504 37.2097C12.4847 37.3571 11.1898 44.1292 15.718 50.5524Z" fill="#F9B402"/>
<path d="M82.7057 87C82.7057 87 69.5616 92.5484 60.7057 92.5C51.8499 92.5484 38.7057 87 38.7057 87L37.9365 54L39.7057 43C39.7057 43 49.2057 35 60.7057 35C72.2057 35 83.475 43 83.475 54L82.7057 87Z" fill="#FDCB02"/>
<path d="M61.0838 56.815C61.0838 56.815 63.4243 57.0273 64.2449 56.7286C65.0655 56.4299 66.7219 54.7628 66.7219 54.7628L64.1568 47.7151C64.1568 47.7151 62.3976 47.8234 61.1667 48.2714C59.9358 48.7194 58.5186 49.7673 58.5186 49.7673L61.0838 56.815Z" fill="#F9B402"/>
<path d="M81.2058 85.5621C81.8607 86.6964 82.6388 87.0441 82.6388 87.0441L89 81.0621L80.6388 83.58C80.6388 83.58 80.5509 84.4277 81.2058 85.5621Z" fill="#FDCB02"/>
<circle r="5.5" transform="matrix(-1 0 0 1 47.2058 52.5)" fill="black"/>
<circle r="5" transform="matrix(-1 0 0 1 46.7058 52)" fill="white"/>
<path d="M48.7058 59C47.5602 55.8906 45.7225 54.3712 42.7058 53C40.9282 52.192 39.517 51.788 37.9058 51.788C37.9058 51.788 37.2058 52.797 37.2058 54.5C37.2058 56.203 37.9058 60 37.9058 60H41.7058L42.7058 65C42.7058 65 44.4709 66 45.7058 66C46.9408 66 48.7058 65 48.7058 65C48.7058 65 49.6508 61.5651 48.7058 59Z" fill="#F9B402"/>
<path d="M36.7058 58.5C36.7058 60.8807 38.049 61 39.7058 61C41.3627 61 42.7058 59.8807 42.7058 58.5C42.7058 57.1193 41.3627 56 39.7058 56C38.049 56 36.7058 56.1193 36.7058 58.5Z" fill="black"/>
<path d="M58.7058 98.5L56.7058 91H64.7058L62.7058 100C62.7058 100 62.7058 101 60.7058 101C60.7058 101 54.7058 101.5 54.7058 100C54.7058 98.5 58.7058 98.5 58.7058 98.5Z" fill="#FDCB02"/>
<path d="M62.7012 87.2143C62.7012 87.2143 61.6418 88 60.8207 88C59.9997 88 58.9402 87.2143 58.9402 87.2143C58.9402 87.2143 61.4576 81.3018 61.2909 77.3929C61.121 73.4124 58 67.5714 58 67.5714C58 67.5714 58.5623 66 60.8207 66C63.0791 66 63.6415 67.5714 63.6415 67.5714C63.6415 67.5714 66.1588 73.4839 65.9921 77.3929C65.8223 81.3734 62.7012 87.2143 62.7012 87.2143Z" fill="#F9B402"/>
</svg>
