<svg width="120" height="120" viewBox="0 0 120 120" fill="none" xmlns="http://www.w3.org/2000/svg">
<path d="M60 20C50.7174 20 39 28 39 28L37.2308 39L38 77C38 77 51.1442 82.5484 60 82.5C68.8558 82.5484 82 77 82 77L82.7692 39L81 28C81 28 69.2827 20 60 20Z" fill="#FDCB02"/>
<path d="M59.622 41.815C59.622 41.815 57.2815 42.0273 56.4609 41.7286C55.6403 41.4299 53.9838 39.7628 53.9838 39.7628L56.549 32.7151C56.549 32.7151 58.3082 32.8234 59.5391 33.2714C60.7699 33.7194 62.1871 34.7673 62.1871 34.7673L59.622 41.815Z" fill="#F9B402"/>
<path d="M39.5 75.5621C38.8451 76.6964 38.067 77.0441 38.067 77.0441L31.7058 71.0621L40.067 73.58C40.067 73.58 40.1549 74.4277 39.5 75.5621Z" fill="#FDCB02"/>
<circle cx="73.5" cy="37.5" r="5.5" fill="black"/>
<circle cx="74" cy="37" r="5" fill="white"/>
<path d="M72 44C73.1455 40.8906 74.9833 39.3712 78 38C79.7776 37.192 81.1888 36.788 82.8 36.788C82.8 36.788 83.5 37.797 83.5 39.5C83.5 41.203 82.8 45 82.8 45H79L78 50C78 50 76.2349 51 75 51C73.765 51 72 50 72 50C72 50 71.0549 46.5651 72 44Z" fill="#F9B402"/>
<path d="M84 43.5C84 45.8807 82.6568 46 81 46C79.3431 46 78 44.8807 78 43.5C78 42.1193 79.3431 41 81 41C82.6568 41 84 41.1193 84 43.5Z" fill="black"/>
<path d="M58.0401 77.6243C58.0401 77.6243 59.1669 78.6243 60.0401 78.6243C60.9134 78.6243 62.0401 77.6243 62.0401 77.6243C62.0401 77.6243 59.3628 70.0994 59.5401 65.1243C59.7207 60.0582 63.0401 52.6243 63.0401 52.6243C63.0401 52.6243 62.442 50.6243 60.0401 50.6243C57.6382 50.6243 57.0401 52.6243 57.0401 52.6243C57.0401 52.6243 54.3628 60.1493 54.5401 65.1243C54.7207 70.1904 58.0401 77.6243 58.0401 77.6243Z" fill="#F9B402"/>
<path d="M62 99L63 79H57L58 99C58 99 58.2535 100 60 100C60 100 63.7748 100.066 64 100C64 99 62 99 62 99Z" fill="#FDCB02"/>
</svg>
