<svg width="120" height="120" viewBox="0 0 120 120" fill="none" xmlns="http://www.w3.org/2000/svg">
<path d="M86.9887 82.6297C86.9887 82.6297 75.23 90.7098 66.5456 92.4445C57.8807 94.2741 43.8889 91.4844 43.8889 91.4844L36.4944 59.3144L36.0137 48.1834C36.0137 48.1834 43.7094 38.4352 54.9741 36.1209C66.2388 33.8066 78.8875 39.3751 81.1012 50.15L86.9887 82.6297Z" fill="#FDCB02"/>
<path d="M59.7346 57.4135C59.7346 57.4135 62.07 57.1504 62.8137 56.6927C63.5573 56.235 64.8444 54.2687 64.8444 54.2687L60.9135 47.8814C60.9135 47.8814 59.212 48.3415 58.0965 49.028C56.981 49.7145 55.8036 51.0262 55.8036 51.0262L59.7346 57.4135Z" fill="#F9B402"/>
<path d="M85.2301 81.5231C86.0999 82.5024 86.932 82.6864 86.932 82.6864L91.9593 75.5466L84.2758 79.6957C84.2758 79.6957 84.3603 80.5437 85.2301 81.5231Z" fill="#FDCB02"/>
<circle r="5.5" transform="matrix(-0.979541 0.201244 0.201244 0.979541 45.2722 55.9797)" fill="black"/>
<circle r="5" transform="matrix(-0.979541 0.201244 0.201244 0.979541 44.6818 55.5905)" fill="white"/>
<path d="M48.0496 62.0449C46.3017 59.2296 44.1958 58.1111 40.9648 57.3751C39.061 56.9413 37.5974 56.8296 36.0191 57.1538C36.0191 57.1538 35.5365 58.2831 35.8792 59.9512C36.2219 61.6193 37.6717 65.1978 37.6717 65.1978L41.394 64.4331L43.3798 69.1296C43.3798 69.1296 45.31 69.7539 46.5196 69.5054C47.7293 69.2568 49.257 67.9221 49.257 67.9221C49.257 67.9221 49.4915 64.3673 48.0496 62.0449Z" fill="#F9B402"/>
<path d="M36.1944 63.97C36.6735 66.302 38.0132 66.1485 39.6362 65.8151C41.2591 65.4817 42.3495 64.115 42.0717 62.7625C41.7938 61.41 40.2529 60.584 38.6299 60.9174C37.007 61.2508 35.7153 61.638 36.1944 63.97Z" fill="black"/>
<path d="M46.4184 81.9802C46.4184 81.9802 45.1416 81.6491 44.6261 81.0101C44.1105 80.3711 44.0567 79.0532 44.0567 79.0532C44.0567 79.0532 50.2389 77.2997 53.1763 74.7152C56.1675 72.0835 58.7534 65.9868 58.7534 65.9868C58.7534 65.9868 60.3295 65.4376 61.7477 67.1952C63.1658 68.9528 62.296 70.3773 62.296 70.3773C62.296 70.3773 59.2754 76.0491 56.1285 78.374C52.924 80.7414 46.4184 81.9802 46.4184 81.9802Z" fill="#F9B402"/>
<path d="M53.904 96.9907L54.6714 89.2666L62.1596 92.082L57.1203 99.8024C57.1203 99.8024 56.7683 100.738 54.8963 100.035C54.8963 100.035 49.1042 98.3911 49.632 96.9871C50.1599 95.583 53.904 96.9907 53.904 96.9907Z" fill="#FDCB02"/>
<path d="M76.3293 95.6866L72.1737 89.1306L79.8061 86.7333L80.5949 95.919C80.5949 95.919 80.8946 96.8731 78.9865 97.4724C78.9865 97.4724 73.4121 99.7474 72.9626 98.3163C72.5131 96.8853 76.3293 95.6866 76.3293 95.6866Z" fill="#FDCB02"/>
</svg>
