<svg width="120" height="120" viewBox="0 0 120 120" fill="none" xmlns="http://www.w3.org/2000/svg">
<path d="M60 20C69.2826 20 81 28 81 28L82.7692 39L82 77C82 77 68.8558 82.5484 60 82.5C51.1442 82.5484 38 77 38 77L37.2308 39L39 28C39 28 50.7173 20 60 20Z" fill="#FDCB02"/>
<path d="M60.378 41.815C60.378 41.815 62.7185 42.0273 63.5391 41.7286C64.3597 41.4299 66.0162 39.7628 66.0162 39.7628L63.451 32.7151C63.451 32.7151 61.6918 32.8234 60.4609 33.2714C59.2301 33.7194 57.8129 34.7673 57.8129 34.7673L60.378 41.815Z" fill="#F9B402"/>
<path d="M80.5 75.5621C81.1549 76.6964 81.933 77.0441 81.933 77.0441L88.2942 71.0621L79.933 73.58C79.933 73.58 79.8451 74.4277 80.5 75.5621Z" fill="#FDCB02"/>
<circle r="5.5" transform="matrix(-1 0 0 1 46.5 37.5)" fill="black"/>
<circle r="5" transform="matrix(-1 0 0 1 46 37)" fill="white"/>
<path d="M48 44C46.8545 40.8906 45.0167 39.3712 42 38C40.2224 37.192 38.8112 36.788 37.2 36.788C37.2 36.788 36.5 37.797 36.5 39.5C36.5 41.203 37.2 45 37.2 45H41L42 50C42 50 43.7651 51 45 51C46.235 51 48 50 48 50C48 50 48.9451 46.5651 48 44Z" fill="#F9B402"/>
<path d="M36 43.5C36 45.8807 37.3432 46 39 46C40.6569 46 42 44.8807 42 43.5C42 42.1193 40.6569 41 39 41C37.3432 41 36 41.1193 36 43.5Z" fill="black"/>
<path d="M61.9599 77.6243C61.9599 77.6243 60.8331 78.6243 59.9599 78.6243C59.0866 78.6243 57.9599 77.6243 57.9599 77.6243C57.9599 77.6243 60.6372 70.0994 60.4599 65.1243C60.2793 60.0582 56.9599 52.6243 56.9599 52.6243C56.9599 52.6243 57.558 50.6243 59.9599 50.6243C62.3618 50.6243 62.9599 52.6243 62.9599 52.6243C62.9599 52.6243 65.6372 60.1493 65.4599 65.1243C65.2793 70.1904 61.9599 77.6243 61.9599 77.6243Z" fill="#F9B402"/>
<path d="M58 99L57 79H63L62 99C62 99 61.7465 100 60 100C60 100 56.2252 100.066 56 100C56 99 58 99 58 99Z" fill="#FDCB02"/>
</svg>
