<svg width="120" height="120" viewBox="0 0 120 120" fill="none" xmlns="http://www.w3.org/2000/svg">
<g clip-path="url(#clip0)">
<path d="M18.7279 90.2319C26.1957 90.9333 35.7705 83.3324 35.7705 83.3324C35.7705 83.3324 42.0906 88.9558 46.8445 88.8542C54.6104 88.6882 60.4369 71.4039 60.4369 71.4039L61.9422 66.9458C61.9422 66.9458 60.8897 65.5742 59.9081 65.4115C59.1042 65.2782 57.8741 65.8772 57.8741 65.8772C57.8741 65.8772 51.7767 79.8116 45.1931 77.9466C42.1183 77.0756 38.6159 72.8238 38.6159 72.8238C38.6159 72.8238 39.086 62.954 34.8561 61.5156C32.5368 60.7269 28.7204 62.4446 28.7204 62.4446L24.8222 58.3558C24.8222 58.3558 18.9914 52.1844 15.0686 54.7937C11 57.5 13 60.5 13 60.5C13 60.5 9.60424 59.5092 7.58048 61.6862C4.5 65 7.49997 69.5 7.49997 69.5C7.49997 69.5 4.55097 67.9737 2.74734 70.3363C0.779743 72.9137 2 79 6.5 84C6.59941 84.1105 10.9034 89.497 18.7279 90.2319Z" fill="#F9B402"/>
<path d="M82.7057 87C82.7057 87 69.5616 92.5484 60.7057 92.5C51.8499 92.5484 38.7057 87 38.7057 87L37.9365 54L39.7057 43C39.7057 43 49.2057 35 60.7057 35C72.2057 35 83.475 43 83.475 54L82.7057 87Z" fill="#FDCB02"/>
<path d="M61.0838 56.815C61.0838 56.815 63.4243 57.0273 64.2449 56.7286C65.0655 56.4299 66.7219 54.7628 66.7219 54.7628L64.1568 47.7151C64.1568 47.7151 62.3976 47.8234 61.1667 48.2714C59.9358 48.7194 58.5186 49.7673 58.5186 49.7673L61.0838 56.815Z" fill="#F9B402"/>
<path d="M81.2058 85.5621C81.8607 86.6964 82.6388 87.0441 82.6388 87.0441L89 81.0621L80.6388 83.58C80.6388 83.58 80.5509 84.4277 81.2058 85.5621Z" fill="#FDCB02"/>
<circle r="5.5" transform="matrix(-1 0 0 1 47.2058 52.5)" fill="black"/>
<circle r="5" transform="matrix(-1 0 0 1 46.7058 52)" fill="white"/>
<path d="M48.7058 59C47.5602 55.8906 45.7225 54.3712 42.7058 53C40.9282 52.192 39.517 51.788 37.9058 51.788C37.9058 51.788 37.2058 52.797 37.2058 54.5C37.2058 56.203 37.9058 60 37.9058 60H41.7058L42.7058 65C42.7058 65 44.4709 66 45.7058 66C46.9408 66 48.7058 65 48.7058 65C48.7058 65 49.6508 61.5651 48.7058 59Z" fill="#F9B402"/>
<path d="M36.7058 58.5C36.7058 60.8807 38.049 61 39.7058 61C41.3627 61 42.7058 59.8807 42.7058 58.5C42.7058 57.1193 41.3627 56 39.7058 56C38.049 56 36.7058 56.1193 36.7058 58.5Z" fill="black"/>
<path d="M58.7058 98.5L56.7058 91H64.7058L62.7058 100C62.7058 100 62.7058 101 60.7058 101C60.7058 101 54.7058 101.5 54.7058 100C54.7058 98.5 58.7058 98.5 58.7058 98.5Z" fill="#FDCB02"/>
<path d="M62.7012 87.2143C62.7012 87.2143 61.6418 88 60.8207 88C59.9997 88 58.9402 87.2143 58.9402 87.2143C58.9402 87.2143 61.4576 81.3018 61.2909 77.3929C61.121 73.4124 58 67.5714 58 67.5714C58 67.5714 58.5623 66 60.8207 66C63.0791 66 63.6415 67.5714 63.6415 67.5714C63.6415 67.5714 66.1588 73.4839 65.9921 77.3929C65.8223 81.3734 62.7012 87.2143 62.7012 87.2143Z" fill="#F9B402"/>
</g>
<defs>
<clipPath id="clip0">
<rect width="120" height="120" fill="white" transform="matrix(-1 0 0 1 120 0)"/>
</clipPath>
</defs>
</svg>
