<svg width="120" height="120" viewBox="0 0 120 120" fill="none" xmlns="http://www.w3.org/2000/svg">
<path d="M60 22C50.7174 22 44.322 24.203 38 31C36.1912 32.9447 34 36.5 34 36.5C34 36.5 32.1863 39.8165 33.5 41C34.5825 41.9752 37.2308 41 37.2308 41L38 79C38 79 51.1442 84.5484 60 84.5C68.8558 84.4516 81.0116 79 81.0116 79L81.7809 41C81.7809 41 84.4292 41.9752 85.5116 41C86.8253 39.8165 85.0116 36.5 85.0116 36.5C85.0116 36.5 82.821 32.9442 81.0116 31C74.9303 24.4654 69.2827 22 60 22Z" fill="#FDCB02"/>
<path d="M41 101L38 79L45 81.5V101C45 101 44.7465 102 43 102C41.2535 102 41 101 41 101Z" fill="#FDCB02"/>
<path d="M72.5804 94.365L81 79.05L73.7438 78.6316L68.7964 93.0683C68.7964 93.0683 68.7825 93.8908 70.4347 94.457C72.0868 95.0232 72.5804 94.365 72.5804 94.365Z" fill="#FDCB02"/>
<circle cx="49.5" cy="39.5" r="5.5" fill="black"/>
<circle cx="50" cy="39" r="5" fill="white"/>
<circle cx="70.5" cy="39.5" r="5.5" fill="black"/>
<circle cx="71" cy="39" r="5" fill="white"/>
<path d="M49 46C50.1456 42.8906 51.9833 41.3712 55 40C58.5552 38.384 61.4448 38.384 65 40C68.0167 41.3712 69.8544 42.8906 71 46C71.945 48.5651 71 52 71 52C71 52 69.235 53 68 53C66.7651 53 65 52 65 52L64 47H56L55 52C55 52 53.235 53 52 53C50.7651 53 49 52 49 52C49 52 48.055 48.5651 49 46Z" fill="#F9B402"/>
<ellipse cx="60" cy="45.5" rx="4" ry="2.5" fill="black"/>
<path d="M93.8816 72.5854C93.8816 72.5854 93.3906 74.0096 92.6297 74.4381C91.8689 74.8667 90.3964 74.5483 90.3964 74.5483C90.3964 74.5483 89.0365 66.6779 86.4405 62.4301C83.797 58.1046 77.2567 53.2563 77.2567 53.2563C77.2567 53.2563 76.7964 51.2202 78.8892 50.0415C80.982 48.8628 82.4846 50.3119 82.4846 50.3119C82.4846 50.3119 88.5101 55.5546 90.797 59.9764C93.1258 64.4792 93.8816 72.5854 93.8816 72.5854Z" fill="#FDCB02"/>
<path d="M29.6389 75.5852C29.6389 75.5852 30.3557 76.9103 31.1763 77.209C31.9968 77.5076 33.3977 76.9533 33.3977 76.9533C33.3977 76.9533 33.4554 68.9665 35.3237 64.3521C37.2261 59.6533 42.8879 53.803 42.8879 53.803C42.8879 53.803 43.0099 51.7191 40.7528 50.8976C38.4958 50.0761 37.2497 51.7509 37.2497 51.7509C37.2497 51.7509 32.1601 57.9063 30.6252 62.642C29.0622 67.4643 29.6389 75.5852 29.6389 75.5852Z" fill="#FDCB02"/>
</svg>
