<svg width="120" height="120" viewBox="0 0 120 120" fill="none" xmlns="http://www.w3.org/2000/svg">
<path d="M70.7772 23.9064C62.0825 20.6553 48.3054 24.0448 48.3054 24.0448L42.7957 33.7285L30.2074 69.5911C30.2074 69.5911 40.5758 79.3916 48.8877 82.4478C57.1656 85.5948 71.4205 85.0013 71.4205 85.0013L85.4499 49.6775L87.6452 38.7546C87.6452 38.7546 79.4719 27.1575 70.7772 23.9064Z" fill="#FDCB02"/>
<path d="M62.7828 44.2073C62.7828 44.2073 60.5162 43.5864 59.8522 43.0193C59.1882 42.4521 58.2205 40.3105 58.2205 40.3105L63.0915 34.6076C63.0915 34.6076 64.7014 35.325 65.6974 36.1758C66.6934 37.0265 67.6538 38.5044 67.6538 38.5044L62.7828 44.2073Z" fill="#F9B402"/>
<path d="M32.116 68.7696C31.1052 69.6027 30.2546 69.6559 30.2546 69.6559L26.3914 61.8248L33.3412 67.1116C33.3412 67.1116 33.1267 67.9364 32.116 68.7696Z" fill="#FDCB02"/>
<circle cx="77.2931" cy="45.0261" r="5.5" transform="rotate(20.5015 77.2931 45.0261)" fill="black"/>
<circle cx="77.9365" cy="44.7329" r="5" transform="rotate(20.5015 77.9365 44.7329)" fill="white"/>
<path d="M73.6115 50.5891C75.7736 48.0779 78.027 47.2984 81.3329 47.0705C83.2809 46.9363 84.7442 47.0521 86.2534 47.6164C86.2534 47.6164 86.5557 48.8067 85.9592 50.4018C85.3628 51.9969 83.3773 55.3083 83.3773 55.3083L79.8179 53.9774L77.1301 58.3105C77.1301 58.3105 75.1266 58.629 73.9699 58.1965C72.8132 57.7639 71.5101 56.2091 71.5101 56.2091C71.5101 56.2091 71.828 52.6608 73.6115 50.5891Z" fill="#F9B402"/>
<path d="M85.0266 54.3235C84.1928 56.5535 82.8929 56.1948 81.341 55.6145C79.7891 55.0342 78.923 53.5154 79.4066 52.2222C79.8902 50.9289 81.5403 50.3509 83.0922 50.9312C84.6441 51.5115 85.8604 52.0936 85.0266 54.3235Z" fill="black"/>
<path d="M59.1169 98.5804L66.0457 79.7923L60.3196 78L55.2995 97.3855C55.2995 97.3855 55.2428 98.4156 56.9095 98.9373C56.9095 98.9373 60.4922 100.128 60.7269 100.132C61.0256 99.1778 59.1169 98.5804 59.1169 98.5804Z" fill="#FDCB02"/>
<path d="M50.5574 96.5644L55.0152 77.0419L49.1064 76L46.6182 95.8698C46.6182 95.8698 46.6942 96.8986 48.4142 97.2019C48.4142 97.2019 52.1201 97.9224 52.3534 97.8965C52.527 96.9117 50.5574 96.5644 50.5574 96.5644Z" fill="#FDCB02"/>
<path d="M60.9054 76.4488C60.9054 76.4488 62.1737 77.2618 63.0364 77.1263C63.899 76.9908 64.8569 75.828 64.8569 75.828C64.8569 75.828 61.0441 68.8098 60.4471 63.8675C59.8392 58.8348 61.9646 50.9758 61.9646 50.9758C61.9646 50.9758 61.0633 49.0928 58.6905 49.4656C56.3177 49.8384 56.0373 51.907 56.0373 51.907C56.0373 51.907 54.5603 59.7563 55.5077 64.6436C56.4724 69.6202 60.9054 76.4488 60.9054 76.4488Z" fill="#F9B402"/>
</svg>
