<svg width="120" height="120" viewBox="0 0 120 120" fill="none" xmlns="http://www.w3.org/2000/svg">
<g clip-path="url(#clip0)">
<path d="M60 35C50.7174 35 44.322 37.203 38 44C36.1912 45.9447 34 49.5 34 49.5C34 49.5 32.1863 52.8165 33.5 54C34.5825 54.9752 37.2308 54 37.2308 54L38 86C38 86 51.1442 91.5484 60 91.5C68.8558 91.4516 81.0116 86 81.0116 86L81.7809 54C81.7809 54 84.4292 54.9752 85.5116 54C86.8253 52.8165 85.0116 49.5 85.0116 49.5C85.0116 49.5 82.821 45.9442 81.0116 44C74.9303 37.4654 69.2827 35 60 35Z" fill="#FDCB02"/>
<path d="M41 100.348L38 86L45 87.6304V100.348C45 100.348 44.7465 101 43 101C41.2535 101 41 100.348 41 100.348Z" fill="#FDCB02"/>
<path d="M78 100.348L81 86L74 87.6304V100.348C74 100.348 74.2535 101 76 101C77.7465 101 78 100.348 78 100.348Z" fill="#FDCB02"/>
<circle cx="49.5" cy="52.5" r="5.5" fill="black"/>
<circle cx="50" cy="52" r="5" fill="white"/>
<circle cx="70.5" cy="52.5" r="5.5" fill="black"/>
<circle cx="71" cy="52" r="5" fill="white"/>
<path d="M49 59C50.1456 55.8906 51.9833 54.3712 55 53C58.5552 51.384 61.4448 51.384 65 53C68.0167 54.3712 69.8544 55.8906 71 59C71.945 61.5651 71 65 71 65C71 65 69.235 66 68 66C66.7651 66 65 65 65 65L64 60H56L55 65C55 65 53.235 66 52 66C50.7651 66 49 65 49 65C49 65 48.055 61.5651 49 59Z" fill="#F9B402"/>
<ellipse cx="60" cy="58.5" rx="4" ry="2.5" fill="black"/>
<path d="M89.9993 86.5529C89.9993 86.5529 89.2825 87.7766 88.462 88.0524C87.6414 88.3283 86.2406 87.8163 86.2406 87.8163C86.2406 87.8163 86.1828 80.4404 84.3145 76.179C82.4121 71.8396 76.7504 66.4368 76.7504 66.4368C76.7504 66.4368 76.6283 64.5122 78.8854 63.7535C81.1425 62.9949 82.3885 64.5416 82.3885 64.5416C82.3885 64.5416 87.4781 70.2262 89.013 74.5997C90.576 79.0531 89.9993 86.5529 89.9993 86.5529Z" fill="#FDCB02"/>
<path d="M42.6861 112.819C38.1538 107.012 39.3752 95.0685 39.3752 95.0685C39.3752 95.0685 31.3783 92.8156 28.9465 88.8288C24.9742 82.3161 36.1905 68.3488 36.1905 68.3488L39.0823 64.7442C39.0823 64.7442 40.7739 64.8891 41.428 65.615C41.9637 66.2096 42.1191 67.5443 42.1191 67.5443C42.1191 67.5443 33.8176 79.9629 38.8446 84.4228C41.1923 86.5057 46.5635 87.1533 46.5635 87.1533C46.5635 87.1533 54.4802 81.5412 57.9087 84.2795C59.7886 85.781 60.3872 89.8474 60.3872 89.8474L65.8328 90.9087C65.8328 90.9087 74.0243 92.4667 73.9415 97.093C73.8556 101.891 70.3152 101.824 70.3152 101.824C70.3152 101.824 72.932 104.109 72.2019 106.936C71.0905 111.238 65.7799 111.137 65.7799 111.137C65.7799 111.137 68.6033 112.769 67.6031 115.512C66.512 118.504 60.8309 120.715 54.3129 119.638C54.1689 119.614 47.4348 118.904 42.6861 112.819Z" fill="#F9B402"/>
</g>
<defs>
<clipPath id="clip0">
<rect width="120" height="120" fill="white"/>
</clipPath>
</defs>
</svg>
