<svg width="120" height="120" viewBox="0 0 120 120" fill="none" xmlns="http://www.w3.org/2000/svg">
<path d="M37.2942 87C37.2942 87 50.4384 92.5484 59.2942 92.5C68.15 92.5484 81.2942 87 81.2942 87L82.0634 54L80.2942 43C80.2942 43 70.7942 35 59.2942 35C47.7942 35 36.525 43 36.525 54L37.2942 87Z" fill="#FDCB02"/>
<path d="M58.9162 56.815C58.9162 56.815 56.5757 57.0273 55.7551 56.7286C54.9345 56.4299 53.2781 54.7628 53.2781 54.7628L55.8432 47.7151C55.8432 47.7151 57.6024 47.8234 58.8333 48.2714C60.0642 48.7194 61.4814 49.7673 61.4814 49.7673L58.9162 56.815Z" fill="#F9B402"/>
<path d="M38.7942 85.5621C38.1393 86.6964 37.3612 87.0441 37.3612 87.0441L31 81.0621L39.3612 83.58C39.3612 83.58 39.4491 84.4277 38.7942 85.5621Z" fill="#FDCB02"/>
<circle cx="72.7942" cy="52.5" r="5.5" fill="black"/>
<circle cx="73.2942" cy="52" r="5" fill="white"/>
<path d="M71.2942 59C72.4398 55.8906 74.2775 54.3712 77.2942 53C79.0718 52.192 80.483 51.788 82.0942 51.788C82.0942 51.788 82.7942 52.797 82.7942 54.5C82.7942 56.203 82.0942 60 82.0942 60H78.2942L77.2942 65C77.2942 65 75.5291 66 74.2942 66C73.0592 66 71.2942 65 71.2942 65C71.2942 65 70.3492 61.5651 71.2942 59Z" fill="#F9B402"/>
<path d="M83.2942 58.5C83.2942 60.8807 81.951 61 80.2942 61C78.6373 61 77.2942 59.8807 77.2942 58.5C77.2942 57.1193 78.6373 56 80.2942 56C81.951 56 83.2942 56.1193 83.2942 58.5Z" fill="black"/>
<path d="M57.2988 87.2143C57.2988 87.2143 58.3582 88 59.1793 88C60.0003 88 61.0598 87.2143 61.0598 87.2143C61.0598 87.2143 58.5424 81.3018 58.7091 77.3929C58.879 73.4124 62 67.5714 62 67.5714C62 67.5714 61.4377 66 59.1793 66C56.9209 66 56.3585 67.5714 56.3585 67.5714C56.3585 67.5714 53.8412 73.4839 54.0079 77.3929C54.1777 81.3734 57.2988 87.2143 57.2988 87.2143Z" fill="#F9B402"/>
<path d="M61.2942 98.5L63.2942 91H55.2942L57.2942 100C57.2942 100 57.2942 101 59.2942 101C59.2942 101 65.2942 101.5 65.2942 100C65.2942 98.5 61.2942 98.5 61.2942 98.5Z" fill="#FDCB02"/>
</svg>
