<svg width="120" height="120" viewBox="0 0 120 120" fill="none" xmlns="http://www.w3.org/2000/svg">
<g clip-path="url(#clip0)">
<path d="M19.0518 88.0846C26.5458 87.7683 35.0031 78.9408 35.0031 78.9408C35.0031 78.9408 42.0265 83.6565 46.7229 82.9121C54.3947 81.696 57.8271 63.782 57.8271 63.782L58.7147 59.161C58.7147 59.161 57.4862 57.9446 56.4917 57.9163C55.6771 57.8931 54.5394 58.6531 54.5394 58.6531C54.5394 58.6531 50.3851 73.2849 43.6096 72.3286C40.4452 71.882 36.3993 68.1437 36.3993 68.1437C36.3993 68.1437 35.5285 58.3011 31.1428 57.4488C28.738 56.9814 25.1894 59.2001 25.1894 59.2001L20.7734 55.6769C20.7734 55.6769 14.1607 50.3518 10.6273 53.4683C6.96268 56.7006 9.35047 59.4022 9.35047 59.4022C9.35047 59.4022 5.85185 58.8803 4.14154 61.3114C1.53818 65.0118 5.11988 69.0641 5.11988 69.0641C5.11988 69.0641 1.99136 67.9511 0.52428 70.5362C-1.07617 73.3563 0.957035 79.2214 6.09267 83.5659C6.20612 83.6619 11.1999 88.4159 19.0518 88.0846Z" fill="#F9B402"/>
<path d="M60 35C50.7173 35 44.322 37.203 38 44C36.1912 45.9447 34 49.5 34 49.5C34 49.5 32.1863 52.8165 33.5 54C34.5824 54.9752 37.2308 54 37.2308 54L38 86C38 86 51.1442 91.5484 60 91.5C68.8558 91.4516 81.0116 86 81.0116 86L81.7808 54C81.7808 54 84.4292 54.9752 85.5116 54C86.8253 52.8165 85.0116 49.5 85.0116 49.5C85.0116 49.5 82.8209 45.9442 81.0116 44C74.9302 37.4654 69.2826 35 60 35Z" fill="#FDCB02"/>
<path d="M59.8971 87C61.207 87 61.8971 86.5 61.8971 86.5L59.8971 78L57.8971 86.5C57.8971 86.5 58.5872 87 59.8971 87Z" fill="#F9B402"/>
<path d="M41 100.348L38 86L45 87.6304V100.348C45 100.348 44.7465 101 43 101C41.2535 101 41 100.348 41 100.348Z" fill="#FDCB02"/>
<path d="M78 100.348L81 86L74 87.6304V100.348C74 100.348 74.2535 101 76 101C77.7465 101 78 100.348 78 100.348Z" fill="#FDCB02"/>
<path d="M89.9994 86.5529C89.9994 86.5529 89.2826 87.7766 88.462 88.0524C87.6414 88.3282 86.2406 87.8163 86.2406 87.8163C86.2406 87.8163 86.1828 80.4404 84.3146 76.179C82.4121 71.8396 76.7504 66.4367 76.7504 66.4367C76.7504 66.4367 76.6284 64.5122 78.8854 63.7535C81.1425 62.9949 82.3885 64.5416 82.3885 64.5416C82.3885 64.5416 87.4781 70.2262 89.013 74.5997C90.576 79.0531 89.9994 86.5529 89.9994 86.5529Z" fill="#FDCB02"/>
</g>
<defs>
<clipPath id="clip0">
<rect width="120" height="120" fill="white"/>
</clipPath>
</defs>
</svg>
