<svg width="120" height="120" viewBox="0 0 120 120" fill="none" xmlns="http://www.w3.org/2000/svg">
<path d="M60 22C50.7174 22 44.322 24.203 38 31C36.1912 32.9447 34 36.5 34 36.5C34 36.5 32.1863 39.8165 33.5 41C34.5825 41.9752 37.2308 41 37.2308 41L38 79C38 79 51.1442 84.5484 60 84.5C68.8558 84.4516 81.0116 79 81.0116 79L81.7809 41C81.7809 41 84.4292 41.9752 85.5116 41C86.8253 39.8165 85.0116 36.5 85.0116 36.5C85.0116 36.5 82.821 32.9442 81.0116 31C74.9303 24.4654 69.2827 22 60 22Z" fill="#FDCB02"/>
<path d="M41 101L38 79L45 81.5V101C45 101 44.7465 102 43 102C41.2535 102 41 101 41 101Z" fill="#FDCB02"/>
<path d="M78 101L81 79L74 81.5V101C74 101 74.2535 102 76 102C77.7465 102 78 101 78 101Z" fill="#FDCB02"/>
<circle cx="49.5" cy="39.5" r="5.5" fill="black"/>
<circle cx="50" cy="39" r="5" fill="white"/>
<circle cx="70.5" cy="39.5" r="5.5" fill="black"/>
<circle cx="71" cy="39" r="5" fill="white"/>
<path d="M49 46C50.1456 42.8906 51.9833 41.3712 55 40C58.5552 38.384 61.4448 38.384 65 40C68.0167 41.3712 69.8544 42.8906 71 46C71.945 48.5651 71 52 71 52C71 52 69.235 53 68 53C66.7651 53 65 52 65 52L64 47H56L55 52C55 52 53.235 53 52 53C50.7651 53 49 52 49 52C49 52 48.055 48.5651 49 46Z" fill="#F9B402"/>
<ellipse cx="60" cy="45.5" rx="4" ry="2.5" fill="black"/>
<path d="M89.9994 75.5853C89.9994 75.5853 89.2826 76.9104 88.462 77.209C87.6414 77.5077 86.2406 76.9534 86.2406 76.9534C86.2406 76.9534 86.1828 68.9666 84.3146 64.3522C82.4121 59.6534 76.7504 53.8031 76.7504 53.8031C76.7504 53.8031 76.6284 51.7191 78.8854 50.8976C81.1425 50.0761 82.3885 51.751 82.3885 51.751C82.3885 51.751 87.4781 57.9064 89.013 62.6421C90.576 67.4644 89.9994 75.5853 89.9994 75.5853Z" fill="#FDCB02"/>
<path d="M29.6389 75.5852C29.6389 75.5852 30.3557 76.9103 31.1762 77.209C31.9968 77.5076 33.3976 76.9533 33.3976 76.9533C33.3976 76.9533 33.4554 68.9665 35.3237 64.3521C37.2261 59.6533 42.8878 53.803 42.8878 53.803C42.8878 53.803 43.0099 51.7191 40.7528 50.8976C38.4957 50.0761 37.2497 51.7509 37.2497 51.7509C37.2497 51.7509 32.1601 57.9063 30.6252 62.642C29.0622 67.4643 29.6389 75.5852 29.6389 75.5852Z" fill="#FDCB02"/>
</svg>
