<svg width="120" height="120" viewBox="0 0 120 120" fill="none" xmlns="http://www.w3.org/2000/svg">
<path d="M49.2228 23.9064C57.9175 20.6553 71.6946 24.0448 71.6946 24.0448L77.2043 33.7285L89.7926 69.5911C89.7926 69.5911 79.4242 79.3916 71.1123 82.4478C62.8344 85.5948 48.5795 85.0013 48.5795 85.0013L34.5501 49.6775L32.3548 38.7546C32.3548 38.7546 40.5281 27.1575 49.2228 23.9064Z" fill="#FDCB02"/>
<path d="M57.2172 44.2073C57.2172 44.2073 59.4838 43.5864 60.1478 43.0193C60.8118 42.4521 61.7795 40.3105 61.7795 40.3105L56.9085 34.6076C56.9085 34.6076 55.2986 35.325 54.3026 36.1758C53.3066 37.0265 52.3462 38.5044 52.3462 38.5044L57.2172 44.2073Z" fill="#F9B402"/>
<path d="M87.884 68.7696C88.8948 69.6027 89.7454 69.6559 89.7454 69.6559L93.6086 61.8248L86.6588 67.1116C86.6588 67.1116 86.8733 67.9364 87.884 68.7696Z" fill="#FDCB02"/>
<circle r="5.5" transform="matrix(-0.936663 0.350232 0.350232 0.936663 42.707 45.0261)" fill="black"/>
<circle r="5" transform="matrix(-0.936663 0.350232 0.350232 0.936663 42.0635 44.7329)" fill="white"/>
<path d="M46.3885 50.5891C44.2265 48.0779 41.973 47.2984 38.6671 47.0705C36.7191 46.9363 35.2558 47.0521 33.7466 47.6164C33.7466 47.6164 33.4444 48.8067 34.0408 50.4018C34.6372 51.9969 36.6227 55.3083 36.6227 55.3083L40.1821 53.9774L42.8699 58.3105C42.8699 58.3105 44.8734 58.629 46.0301 58.1965C47.1869 57.7639 48.4899 56.2091 48.4899 56.2091C48.4899 56.2091 48.1721 52.6608 46.3885 50.5891Z" fill="#F9B402"/>
<path d="M34.9734 54.3235C35.8072 56.5535 37.1071 56.1948 38.659 55.6145C40.2109 55.0342 41.077 53.5154 40.5934 52.2222C40.1098 50.9289 38.4598 50.3509 36.9078 50.9312C35.3559 51.5115 34.1396 52.0936 34.9734 54.3235Z" fill="black"/>
<path d="M60.8831 98.5804L53.9544 79.7923L59.6804 78L64.7005 97.3855C64.7005 97.3855 64.7573 98.4156 63.0905 98.9373C63.0905 98.9373 59.5078 100.128 59.2732 100.132C58.9745 99.1778 60.8831 98.5804 60.8831 98.5804Z" fill="#FDCB02"/>
<path d="M69.4426 96.5644L64.9848 77.0419L70.8936 76L73.3818 95.8698C73.3818 95.8698 73.3058 96.8986 71.5858 97.2019C71.5858 97.2019 67.8799 97.9224 67.6466 97.8965C67.473 96.9117 69.4426 96.5644 69.4426 96.5644Z" fill="#FDCB02"/>
<path d="M59.0946 76.4488C59.0946 76.4488 57.8263 77.2618 56.9636 77.1263C56.101 76.9908 55.1431 75.828 55.1431 75.828C55.1431 75.828 58.9559 68.8098 59.5529 63.8675C60.1608 58.8348 58.0354 50.9758 58.0354 50.9758C58.0354 50.9758 58.9367 49.0928 61.3095 49.4656C63.6823 49.8384 63.9627 51.907 63.9627 51.907C63.9627 51.907 65.4397 59.7563 64.4923 64.6436C63.5276 69.6202 59.0946 76.4488 59.0946 76.4488Z" fill="#F9B402"/>
</svg>
