<svg width="120" height="120" viewBox="0 0 120 120" fill="none" xmlns="http://www.w3.org/2000/svg">
<path d="M115.633 55.1225C115.633 55.1225 117.216 53.9963 117.246 53.0836C117.276 52.1709 115.772 50.942 115.772 50.942C115.772 50.942 111.476 51.9233 108.7 51.6221C105.692 51.2957 104.764 49.3059 101.732 49.1668C98.7602 49.0305 97.596 51.0284 94.6245 50.892C91.5926 50.7529 90.6884 48.5758 87.6564 48.4368C84.685 48.3004 83.5207 50.2983 80.5492 50.162C77.5173 50.0229 76.6131 47.8458 73.5812 47.7067C70.6097 47.5704 69.4451 49.3976 66.474 49.432C63.6435 49.4647 59.4711 48.0218 59.4711 48.0218C59.4711 48.0218 56.3634 48.5442 56.2798 51.0545C56.1963 53.5648 59.2624 54.2927 59.2624 54.2927C59.2624 54.2927 63.4838 55.5575 66.2739 55.4415C69.2968 55.3158 70.3554 53.3922 73.3898 53.455C76.3638 53.5165 77.3926 55.5874 80.3666 55.649C83.4011 55.7118 84.4481 53.5996 87.4825 53.6624C90.4565 53.724 91.4853 55.7949 94.4593 55.8564C97.4938 55.9193 98.5407 53.8071 101.575 53.8699C104.549 53.9315 105.59 55.8321 108.552 56.0639C111.374 56.2848 115.633 55.1225 115.633 55.1225Z" fill="#F9B402"/>
<path d="M60 20C50.7174 20 39 28 39 28L37.2308 39L38 77C38 77 51.1442 82.5484 60 82.5C68.8558 82.5484 82 77 82 77L82.7692 39L81 28C81 28 69.2827 20 60 20Z" fill="#FDCB02"/>
<path d="M59.622 41.815C59.622 41.815 57.2815 42.0273 56.4609 41.7286C55.6403 41.4299 53.9838 39.7628 53.9838 39.7628L56.549 32.7151C56.549 32.7151 58.3082 32.8234 59.5391 33.2714C60.7699 33.7194 62.1871 34.7673 62.1871 34.7673L59.622 41.815Z" fill="#F9B402"/>
<path d="M39.5 75.5621C38.8451 76.6964 38.067 77.0441 38.067 77.0441L31.7058 71.0621L40.067 73.58C40.067 73.58 40.1549 74.4277 39.5 75.5621Z" fill="#FDCB02"/>
<circle cx="73.5" cy="37.5" r="5.5" fill="black"/>
<circle cx="74" cy="37" r="5" fill="white"/>
<path d="M72 44C73.1455 40.8906 74.9833 39.3712 78 38C79.7776 37.192 81.1888 36.788 82.8 36.788C82.8 36.788 83.5 37.797 83.5 39.5C83.5 41.203 82.8 45 82.8 45H79L78 50C78 50 76.2349 51 75 51C73.765 51 72 50 72 50C72 50 71.0549 46.5651 72 44Z" fill="#F9B402"/>
<path d="M84 43.5C84 45.8807 82.6568 46 81 46C79.3431 46 78 44.8807 78 43.5C78 42.1193 79.3431 41 81 41C82.6568 41 84 41.1193 84 43.5Z" fill="black"/>
<path d="M114.53 70.8031C114.53 70.8031 116.348 70.1169 116.609 69.2421C116.871 68.3672 115.729 66.7958 115.729 66.7958C115.729 66.7958 111.325 66.651 108.717 65.6528C105.891 64.5713 105.5 62.4107 102.603 61.5043C99.7647 60.6159 98.1301 62.2515 95.2912 61.3631C92.3947 60.4567 92.0745 58.1211 89.1779 57.2146C86.3391 56.3263 84.7045 57.9619 81.8657 57.0735C78.9691 56.167 78.649 53.8315 75.7524 52.925C72.9136 52.0366 71.3221 53.5071 68.4401 52.7839C65.6946 52.0949 62.0271 49.6372 62.0271 49.6372C62.0271 49.6372 58.8888 49.3511 58.1689 51.7574C57.4489 54.1638 60.2287 55.6482 60.2287 55.6482C60.2287 55.6482 63.9889 57.9462 66.7167 58.5444C69.6719 59.1925 71.1854 57.6018 74.1038 58.4351C76.9641 59.2518 77.4318 61.5164 80.2921 62.3332C83.2105 63.1665 84.7608 61.3905 87.6793 62.2238C90.5395 63.0406 91.0072 65.3051 93.8675 66.1219C96.786 66.9552 98.3362 65.1792 101.255 66.0126C104.115 66.8293 104.637 68.9322 107.443 69.9106C110.116 70.8427 114.53 70.8031 114.53 70.8031Z" fill="#F9B402"/>
<path d="M62 99L63 79H57L58 99C58 99 58.2535 100 60 100C60 100 63.7748 100.066 64 100C64 99 62 99 62 99Z" fill="#FDCB02"/>
</svg>
