<svg width="120" height="120" viewBox="0 0 120 120" fill="none" xmlns="http://www.w3.org/2000/svg">
<path d="M46.429 24.5512C55.1586 21.395 61.922 21.2922 70.1784 25.5347C72.5406 26.7485 75.8101 29.347 75.8101 29.347C75.8101 29.347 78.6434 31.8492 77.8104 33.4089C77.124 34.694 74.3019 34.6774 74.3019 34.6774L86.4989 70.675C86.4989 70.675 76.0243 80.362 67.6797 83.3275C59.335 86.2931 46.0498 85.2994 46.0498 85.2994L32.406 49.8249C32.406 49.8249 30.2471 51.6424 28.8975 51.0934C27.2597 50.427 27.8377 46.6915 27.8377 46.6915C27.8377 46.6915 28.6888 42.6027 29.7293 40.1591C33.2265 31.9461 37.6994 27.7074 46.429 24.5512Z" fill="#FDCB02"/>
<path d="M91.1578 92.3843L86.4989 70.675L80.766 75.4061L87.3962 93.7443C87.3962 93.7443 87.9746 94.5986 89.617 94.0047C91.2594 93.4109 91.1578 92.3843 91.1578 92.3843Z" fill="#FDCB02"/>
<path d="M47 101L44 79L51 81.5V101C51 101 50.7465 102 49 102C47.2535 102 47 101 47 101Z" fill="#FDCB02"/>
<circle r="5.5" transform="matrix(-0.940422 0.34001 0.34001 0.940422 62.2536 37.4384)" fill="black"/>
<circle r="5" transform="matrix(-0.940422 0.34001 0.34001 0.940422 61.6134 37.1382)" fill="white"/>
<circle r="5.5" transform="matrix(-0.940422 0.34001 0.34001 0.940422 42.5048 44.5786)" fill="black"/>
<circle r="5" transform="matrix(-0.940422 0.34001 0.34001 0.940422 41.8646 44.2784)" fill="white"/>
<path d="M64.9339 43.3812C62.7994 40.8465 60.5545 40.0425 57.2513 39.7787C53.3585 39.4678 50.641 40.4503 47.8471 43.1788C45.4764 45.4941 44.2647 47.5478 44.2446 50.8614C44.2281 53.595 46.2847 56.5039 46.2847 56.5039C46.2847 56.5039 48.2846 56.8442 49.446 56.4243C50.6073 56.0044 51.9272 54.4639 51.9272 54.4639L51.1676 49.4218L58.691 46.7017L61.3314 51.0638C61.3314 51.0638 63.3313 51.4041 64.4927 50.9842C65.6541 50.5643 66.974 49.0237 66.974 49.0237C66.974 49.0237 66.6948 45.4722 64.9339 43.3812Z" fill="#F9B402"/>
<ellipse rx="4" ry="2.5" transform="matrix(-0.940422 0.34001 0.34001 0.940422 54.4193 46.651)" fill="black"/>
<path d="M16.1481 62.8709C16.1481 62.8709 15.1475 63.9971 15.147 64.8704C15.1464 65.7436 16.1458 66.8709 16.1458 66.8709C16.1458 66.8709 23.6723 64.198 28.6472 64.3782C33.7132 64.5618 41.1452 67.8855 41.1452 67.8855C41.1452 67.8855 43.1456 67.2886 43.1469 64.8867C43.1483 62.4847 41.1487 61.8855 41.1487 61.8855C41.1487 61.8855 33.6253 59.2038 28.6502 59.3782C23.584 59.5559 16.1481 62.8709 16.1481 62.8709Z" fill="#FDCB02"/>
<path d="M54.2487 62.9953C54.2487 62.9953 53.7817 64.4276 54.1303 65.2283C54.4789 66.0289 55.8456 66.6628 55.8456 66.6628C55.8456 66.6628 61.6761 61.204 66.3083 59.3805C71.0253 57.5237 79.1663 57.5994 79.1663 57.5994C79.1663 57.5994 80.7612 56.2527 79.8024 54.0504C78.8435 51.8482 76.771 52.0983 76.771 52.0983C76.771 52.0983 68.8029 52.6475 64.3123 54.7962C59.7395 56.9842 54.2487 62.9953 54.2487 62.9953Z" fill="#F9B402"/>
</svg>
