<svg width="120" height="120" viewBox="0 0 120 120" fill="none" xmlns="http://www.w3.org/2000/svg">
<path d="M33.0113 82.6297C33.0113 82.6297 44.77 90.7098 53.4544 92.4446C62.1193 94.2741 76.1111 91.4844 76.1111 91.4844L83.5056 59.3144L83.9863 48.1834C83.9863 48.1834 76.2906 38.4352 65.0259 36.1209C53.7612 33.8066 41.1125 39.3751 38.8988 50.1501L33.0113 82.6297Z" fill="#FDCB02"/>
<path d="M60.2654 57.4135C60.2654 57.4135 57.93 57.1504 57.1863 56.6927C56.4427 56.2351 55.1556 54.2687 55.1556 54.2687L59.0865 47.8814C59.0865 47.8814 60.788 48.3415 61.9035 49.028C63.019 49.7145 64.1964 51.0262 64.1964 51.0262L60.2654 57.4135Z" fill="#F9B402"/>
<path d="M34.7699 81.5231C33.9001 82.5024 33.068 82.6864 33.068 82.6864L28.0407 75.5466L35.7242 79.6957C35.7242 79.6957 35.6397 80.5437 34.7699 81.5231Z" fill="#FDCB02"/>
<circle cx="74.7278" cy="55.9797" r="5.5" transform="rotate(11.6097 74.7278 55.9797)" fill="black"/>
<circle cx="75.3182" cy="55.5905" r="5" transform="rotate(11.6097 75.3182 55.5905)" fill="white"/>
<path d="M71.9504 62.0449C73.6983 59.2296 75.8042 58.1111 79.0352 57.3751C80.939 56.9413 82.4026 56.8296 83.9809 57.1538C83.9809 57.1538 84.4635 58.2831 84.1208 59.9512C83.7781 61.6193 82.3283 65.1978 82.3283 65.1978L78.606 64.4331L76.6202 69.1296C76.6202 69.1296 74.69 69.7539 73.4804 69.5054C72.2707 69.2568 70.743 67.9221 70.743 67.9221C70.743 67.9221 70.5085 64.3673 71.9504 62.0449Z" fill="#F9B402"/>
<path d="M83.8056 63.97C83.3265 66.302 81.9868 66.1485 80.3638 65.8151C78.7409 65.4817 77.6505 64.115 77.9283 62.7625C78.2062 61.41 79.7471 60.584 81.3701 60.9174C82.993 61.2508 84.2847 61.638 83.8056 63.97Z" fill="black"/>
<path d="M45.9992 82.1317C45.9992 82.1317 46.2784 83.4208 46.896 83.9618C47.5137 84.5028 48.8283 84.6098 48.8283 84.6098C48.8283 84.6098 50.8303 78.5035 53.5314 75.6729C56.2819 72.7906 62.4782 70.4532 62.4782 70.4532C62.4782 70.4532 63.0906 68.9006 61.3917 67.4126C59.6929 65.9246 58.2345 66.7361 58.2345 66.7361C58.2345 66.7361 52.4451 69.525 49.995 72.5753C47.5 75.6815 45.9992 82.1317 45.9992 82.1317Z" fill="#F9B402"/>
<path d="M66.096 95.9907L65.3286 88.2667L57.8404 91.082L62.8797 98.8024C62.8797 98.8024 63.2317 99.7385 65.1037 99.0346C65.1037 99.0346 70.8958 97.3911 70.368 95.9871C69.8401 94.583 66.096 95.9907 66.096 95.9907Z" fill="#FDCB02"/>
<path d="M43.6707 96.6866L47.8263 90.1306L40 86.5L39.4051 96.9191C39.4051 96.9191 39.1054 97.8731 41.0135 98.4724C41.0135 98.4724 46.5879 100.747 47.0374 99.3163C47.4869 97.8853 43.6707 96.6866 43.6707 96.6866Z" fill="#FDCB02"/>
</svg>
