<svg width="120" height="120" viewBox="0 0 120 120" fill="none" xmlns="http://www.w3.org/2000/svg">
<path d="M73.571 24.5512C64.8414 21.395 58.078 21.2922 49.8216 25.5347C47.4594 26.7485 44.1899 29.347 44.1899 29.347C44.1899 29.347 41.3566 31.8492 42.1896 33.4089C42.876 34.694 45.6981 34.6774 45.6981 34.6774L33.5011 70.675C33.5011 70.675 43.9757 80.362 52.3203 83.3275C60.665 86.2931 73.9502 85.2994 73.9502 85.2994L87.594 49.8249C87.594 49.8249 89.7529 51.6424 91.1025 51.0934C92.7403 50.427 92.1623 46.6915 92.1623 46.6915C92.1623 46.6915 91.3112 42.6027 90.2707 40.1591C86.7735 31.9461 82.3006 27.7074 73.571 24.5512Z" fill="#FDCB02"/>
<path d="M28.8422 92.3843L33.5011 70.675L39.234 75.4061L32.6038 93.7443C32.6038 93.7443 32.0254 94.5986 30.383 94.0047C28.7406 93.4109 28.8422 92.3843 28.8422 92.3843Z" fill="#FDCB02"/>
<path d="M73 101L76 79L69 81.5V101C69 101 69.2535 102 71 102C72.7465 102 73 101 73 101Z" fill="#FDCB02"/>
<circle cx="57.7464" cy="37.4384" r="5.5" transform="rotate(19.8775 57.7464 37.4384)" fill="black"/>
<circle cx="58.3866" cy="37.1382" r="5" transform="rotate(19.8775 58.3866 37.1382)" fill="white"/>
<circle cx="77.4952" cy="44.5786" r="5.5" transform="rotate(19.8775 77.4952 44.5786)" fill="black"/>
<circle cx="78.1354" cy="44.2784" r="5" transform="rotate(19.8775 78.1354 44.2784)" fill="white"/>
<path d="M55.0661 43.3812C57.2006 40.8465 59.4455 40.0425 62.7487 39.7787C66.6415 39.4678 69.359 40.4503 72.1529 43.1788C74.5236 45.4941 75.7353 47.5478 75.7554 50.8614C75.7719 53.595 73.7153 56.5039 73.7153 56.5039C73.7153 56.5039 71.7154 56.8442 70.554 56.4243C69.3927 56.0044 68.0728 54.4639 68.0728 54.4639L68.8324 49.4218L61.309 46.7017L58.6686 51.0638C58.6686 51.0638 56.6687 51.4041 55.5073 50.9842C54.3459 50.5643 53.026 49.0237 53.026 49.0237C53.026 49.0237 53.3052 45.4722 55.0661 43.3812Z" fill="#F9B402"/>
<ellipse cx="65.5807" cy="46.651" rx="4" ry="2.5" transform="rotate(19.8775 65.5807 46.651)" fill="black"/>
<path d="M103.852 62.8709C103.852 62.8709 104.853 63.9971 104.853 64.8704C104.854 65.7436 103.854 66.8709 103.854 66.8709C103.854 66.8709 96.3277 64.198 91.3528 64.3782C86.2868 64.5618 78.8548 67.8855 78.8548 67.8855C78.8548 67.8855 76.8544 67.2886 76.8531 64.8867C76.8517 62.4847 78.8513 61.8855 78.8513 61.8855C78.8513 61.8855 86.3747 59.2038 91.3498 59.3782C96.416 59.5559 103.852 62.8709 103.852 62.8709Z" fill="#FDCB02"/>
<path d="M65.7513 62.9953C65.7513 62.9953 66.2183 64.4276 65.8697 65.2283C65.5211 66.0289 64.1544 66.6628 64.1544 66.6628C64.1544 66.6628 58.3239 61.204 53.6917 59.3805C48.9747 57.5237 40.8337 57.5994 40.8337 57.5994C40.8337 57.5994 39.2388 56.2527 40.1976 54.0504C41.1565 51.8482 43.229 52.0983 43.229 52.0983C43.229 52.0983 51.1971 52.6475 55.6877 54.7962C60.2605 56.9842 65.7513 62.9953 65.7513 62.9953Z" fill="#F9B402"/>
</svg>
