<svg width="120" height="120" viewBox="0 0 120 120" fill="none" xmlns="http://www.w3.org/2000/svg">
<path d="M34.3802 57.0542C34.3802 57.0542 33.2968 56.0074 33.2299 55.1367C33.163 54.266 34.0737 53.066 34.0737 53.066C34.0737 53.066 41.7816 55.1588 46.7285 54.6008C51.7658 54.0325 58.9235 50.1533 58.9235 50.1533C58.9235 50.1533 60.9635 50.5963 61.1475 52.9912C61.3316 55.386 59.3833 56.1356 59.3833 56.1356C59.3833 56.1356 52.0856 59.3817 47.1116 59.5861C42.0466 59.7942 34.3802 57.0542 34.3802 57.0542Z" fill="#F9B402"/>
<path d="M70.7771 23.9064C62.0824 20.6553 48.3054 24.0448 48.3054 24.0448L42.7956 33.7285L30.2073 69.5911C30.2073 69.5911 40.5758 79.3916 48.8876 82.4478C57.1656 85.5948 71.4205 85.0013 71.4205 85.0013L85.4498 49.6775L87.6452 38.7546C87.6452 38.7546 79.4719 27.1575 70.7771 23.9064Z" fill="#FDCB02"/>
<path d="M62.7828 44.2073C62.7828 44.2073 60.5162 43.5864 59.8522 43.0193C59.1882 42.4521 58.2205 40.3105 58.2205 40.3105L63.0915 34.6076C63.0915 34.6076 64.7014 35.325 65.6974 36.1758C66.6934 37.0265 67.6538 38.5044 67.6538 38.5044L62.7828 44.2073Z" fill="#F9B402"/>
<path d="M32.1159 68.7696C31.1052 69.6027 30.2546 69.6559 30.2546 69.6559L26.3914 61.8248L33.3412 67.1116C33.3412 67.1116 33.1267 67.9364 32.1159 68.7696Z" fill="#FDCB02"/>
<circle cx="77.293" cy="45.0261" r="5.5" transform="rotate(20.5015 77.293 45.0261)" fill="black"/>
<circle cx="77.9365" cy="44.7329" r="5" transform="rotate(20.5015 77.9365 44.7329)" fill="white"/>
<path d="M73.6115 50.5891C75.7735 48.0779 78.027 47.2984 81.3329 47.0705C83.2809 46.9363 84.7442 47.0521 86.2534 47.6164C86.2534 47.6164 86.5556 48.8067 85.9592 50.4018C85.3628 51.9969 83.3773 55.3083 83.3773 55.3083L79.8179 53.9774L77.1301 58.3105C77.1301 58.3105 75.1266 58.629 73.9699 58.1965C72.8131 57.7639 71.5101 56.2091 71.5101 56.2091C71.5101 56.2091 71.8279 52.6608 73.6115 50.5891Z" fill="#F9B402"/>
<path d="M85.0266 54.3235C84.1928 56.5535 82.8929 56.1948 81.341 55.6145C79.7891 55.0342 78.923 53.5154 79.4066 52.2222C79.8902 50.9289 81.5402 50.3509 83.0922 50.9312C84.6441 51.5115 85.8604 52.0936 85.0266 54.3235Z" fill="black"/>
<path d="M78.81 69.0526C78.81 69.0526 80.2836 68.7396 80.802 68.0369C81.3205 67.3342 81.1847 65.8338 81.1847 65.8338C81.1847 65.8338 73.5398 63.521 69.6416 60.4247C65.6721 57.2718 61.6606 50.1873 61.6606 50.1873C61.6606 50.1873 59.6961 49.4813 58.2702 51.4141C56.8443 53.347 58.0986 55.0156 58.0986 55.0156C58.0986 55.0156 62.5645 61.6374 66.6733 64.4482C70.8572 67.3105 78.81 69.0526 78.81 69.0526Z" fill="#F9B402"/>
<path d="M78.434 94.8353L66.6744 78.6269L62 82.3885L75.3177 97.343C75.3177 97.343 76.1422 97.9632 77.5028 96.8682C77.5028 96.8682 80.485 94.5531 80.6191 94.3605C79.9922 93.5814 78.434 94.8353 78.434 94.8353Z" fill="#FDCB02"/>
<path d="M24.4919 89.5348L38.1137 74.8567L33.5174 71L21.4277 86.9637C21.4277 86.9637 20.9791 87.8927 22.317 89.0153C22.317 89.0153 25.1662 91.4922 25.3812 91.5864C26.0239 90.8204 24.4919 89.5348 24.4919 89.5348Z" fill="#FDCB02"/>
</svg>
