<svg width="120" height="120" viewBox="0 0 120 120" fill="none" xmlns="http://www.w3.org/2000/svg">
<path d="M15.4959 25.025C14.601 32.472 21.9509 42.2408 21.9509 42.2408C21.9509 42.2408 16.1655 48.4129 16.1437 53.1679C16.1081 60.9354 33.2354 67.2085 33.2354 67.2085L37.653 68.8289C37.653 68.8289 39.0514 67.8124 39.2396 66.8353C39.3937 66.0351 38.8268 64.7899 38.8268 64.7899C38.8268 64.7899 25.0552 58.333 27.0904 51.8C28.0409 48.7489 32.3821 45.3579 32.3821 45.3579C32.3821 45.3579 42.2364 46.0839 43.7841 41.8928C44.6327 39.5947 43.0146 35.7351 43.0146 35.7351L47.2031 31.9442C47.2031 31.9442 53.5238 26.2756 51.0171 22.2864C48.4173 18.1489 45.3664 20.0704 45.3664 20.0704C45.3664 20.0704 46.445 16.7015 44.3212 14.6219C41.0885 11.4565 36.5121 14.3387 36.5121 14.3387C36.5121 14.3387 38.1145 11.4303 35.7994 9.56599C33.274 7.53219 27.158 8.59413 22.043 12.9629C21.93 13.0594 16.4336 17.2222 15.4959 25.025Z" fill="#F9B402"/>
<path d="M60.0001 35C50.7174 35 44.3221 37.203 38.0001 44C36.1913 45.9447 34.0001 49.5 34.0001 49.5C34.0001 49.5 32.1864 52.8165 33.5001 54C34.5825 54.9752 37.2308 54 37.2308 54L38.0001 86C38.0001 86 51.1442 91.5484 60.0001 91.5C68.8559 91.4516 81.0117 86 81.0117 86L81.7809 54C81.7809 54 84.4292 54.9752 85.5117 54C86.8253 52.8165 85.0117 49.5 85.0117 49.5C85.0117 49.5 82.821 45.9442 81.0117 44C74.9303 37.4654 69.2827 35 60.0001 35Z" fill="#FDCB02"/>
<path d="M59.8971 87C61.207 87 61.8971 86.5 61.8971 86.5L59.8971 78L57.8971 86.5C57.8971 86.5 58.5872 87 59.8971 87Z" fill="#F9B402"/>
<path d="M41 100.348L38 86L45 87.6304V100.348C45 100.348 44.7465 101 43 101C41.2535 101 41 100.348 41 100.348Z" fill="#FDCB02"/>
<path d="M78 100.348L81 86L74 87.6304V100.348C74 100.348 74.2535 101 76 101C77.7465 101 78 100.348 78 100.348Z" fill="#FDCB02"/>
<path d="M89.9994 86.5529C89.9994 86.5529 89.2826 87.7766 88.462 88.0524C87.6415 88.3282 86.2406 87.8163 86.2406 87.8163C86.2406 87.8163 86.1829 80.4404 84.3146 76.1789C82.4122 71.8396 76.7504 66.4367 76.7504 66.4367C76.7504 66.4367 76.6284 64.5122 78.8855 63.7535C81.1425 62.9948 82.3886 64.5416 82.3886 64.5416C82.3886 64.5416 87.4782 70.2262 89.0131 74.5996C90.5761 79.0531 89.9994 86.5529 89.9994 86.5529Z" fill="#FDCB02"/>
</svg>
