<svg width="120" height="120" viewBox="0 0 120 120" fill="none" xmlns="http://www.w3.org/2000/svg">
<path d="M60 35C50.7174 35 44.322 37.203 38 44C36.1912 45.9447 34 49.5 34 49.5C34 49.5 32.1863 52.8165 33.5 54C34.5825 54.9752 37.2308 54 37.2308 54L38 86C38 86 51.1442 91.5484 60 91.5C68.8558 91.4516 81.0116 86 81.0116 86L81.7809 54C81.7809 54 84.4292 54.9752 85.5116 54C86.8253 52.8165 85.0116 49.5 85.0116 49.5C85.0116 49.5 82.821 45.9442 81.0116 44C74.9303 37.4654 69.2827 35 60 35Z" fill="#FDCB02"/>
<path d="M46.4379 97.9857L38 85.9998L45.0732 84.7241L50.1107 96.4012C50.1107 96.4012 50.1363 97.1005 48.5326 97.7923C46.929 98.4841 46.4379 97.9857 46.4379 97.9857Z" fill="#FDCB02"/>
<path d="M78 100.348L81 86L74 87.6304V100.348C74 100.348 74.2535 101 76 101C77.7465 101 78 100.348 78 100.348Z" fill="#FDCB02"/>
<circle cx="49.5" cy="52.5" r="5.5" fill="black"/>
<circle cx="50" cy="52" r="5" fill="white"/>
<circle cx="70.5" cy="52.5" r="5.5" fill="black"/>
<circle cx="71" cy="52" r="5" fill="white"/>
<path d="M49 59C50.1456 55.8906 51.9833 54.3712 55 53C58.5552 51.384 61.4448 51.384 65 53C68.0167 54.3712 69.8544 55.8906 71 59C71.945 61.5651 71 65 71 65C71 65 69.235 66 68 66C66.7651 66 65 65 65 65L64 60H56L55 65C55 65 53.235 66 52 66C50.7651 66 49 65 49 65C49 65 48.055 61.5651 49 59Z" fill="#F9B402"/>
<ellipse cx="60" cy="58.5" rx="4" ry="2.5" fill="black"/>
<path d="M89.9994 86.5529C89.9994 86.5529 89.2826 87.7766 88.462 88.0525C87.6414 88.3283 86.2406 87.8164 86.2406 87.8164C86.2406 87.8164 86.1828 80.4404 84.3146 76.179C82.4121 71.8396 76.7504 66.4368 76.7504 66.4368C76.7504 66.4368 76.6284 64.5122 78.8854 63.7536C81.1425 62.9949 82.3885 64.5416 82.3885 64.5416C82.3885 64.5416 87.4781 70.2262 89.013 74.5997C90.576 79.0532 89.9994 86.5529 89.9994 86.5529Z" fill="#FDCB02"/>
<path d="M23.0798 80.7031C23.0798 80.7031 23.1234 82.1206 23.7119 82.7556C24.3003 83.3905 25.7753 83.6116 25.7753 83.6116C25.7753 83.6116 29.3566 77.1632 33.0368 74.316C36.7842 71.4167 44.3414 69.3832 44.3414 69.3832C44.3414 69.3832 45.3698 67.7518 43.7512 66.0053C42.1327 64.2588 40.2983 65.0204 40.2983 65.0204C40.2983 65.0204 33.1086 67.5752 29.6675 70.6804C26.1635 73.8423 23.0798 80.7031 23.0798 80.7031Z" fill="#FDCB02"/>
</svg>
