<svg width="120" height="120" viewBox="0 0 120 120" fill="none" xmlns="http://www.w3.org/2000/svg">
<path d="M86.9887 82.6297C86.9887 82.6297 75.23 90.7098 66.5456 92.4445C57.8807 94.2741 43.8889 91.4844 43.8889 91.4844L36.4944 59.3144L36.0137 48.1834C36.0137 48.1834 43.7094 38.4352 54.9741 36.1209C66.2388 33.8066 78.8875 39.3751 81.1012 50.15L86.9887 82.6297Z" fill="#FDCB02"/>
<path d="M59.7346 57.4135C59.7346 57.4135 62.07 57.1504 62.8137 56.6927C63.5573 56.235 64.8444 54.2687 64.8444 54.2687L60.9135 47.8814C60.9135 47.8814 59.212 48.3415 58.0965 49.028C56.981 49.7145 55.8036 51.0262 55.8036 51.0262L59.7346 57.4135Z" fill="#F9B402"/>
<path d="M85.2301 81.5231C86.0999 82.5024 86.932 82.6864 86.932 82.6864L91.9593 75.5466L84.2758 79.6957C84.2758 79.6957 84.3603 80.5437 85.2301 81.5231Z" fill="#FDCB02"/>
<circle r="5.5" transform="matrix(-0.979541 0.201244 0.201244 0.979541 45.2722 55.9797)" fill="black"/>
<circle r="5" transform="matrix(-0.979541 0.201244 0.201244 0.979541 44.6818 55.5905)" fill="white"/>
<path d="M48.0496 62.0449C46.3017 59.2296 44.1958 58.1111 40.9648 57.3751C39.061 56.9413 37.5974 56.8296 36.0191 57.1538C36.0191 57.1538 35.5365 58.2831 35.8792 59.9512C36.2219 61.6193 37.6717 65.1978 37.6717 65.1978L41.394 64.4331L43.3798 69.1296C43.3798 69.1296 45.31 69.7539 46.5196 69.5054C47.7293 69.2568 49.257 67.9221 49.257 67.9221C49.257 67.9221 49.4915 64.3673 48.0496 62.0449Z" fill="#F9B402"/>
<path d="M36.1944 63.97C36.6735 66.302 38.0132 66.1485 39.6362 65.8151C41.2591 65.4817 42.3495 64.115 42.0717 62.7625C41.7938 61.41 40.2529 60.584 38.6299 60.9174C37.007 61.2508 35.7153 61.638 36.1944 63.97Z" fill="black"/>
<path d="M62.4444 87.1244C62.4444 87.1244 61.385 87.9102 60.5639 87.9102C59.7428 87.9102 58.6834 87.1244 58.6834 87.1244C58.6834 87.1244 61.2008 81.212 61.034 77.303C60.8642 73.3225 57.7432 67.4816 57.7432 67.4816C57.7432 67.4816 58.3055 65.9102 60.5639 65.9102C62.8223 65.9102 63.3846 67.4816 63.3846 67.4816C63.3846 67.4816 65.902 73.394 65.7352 77.303C65.5654 81.2835 62.4444 87.1244 62.4444 87.1244Z" fill="#F9B402"/>
<path d="M55.3786 99.34L54.4236 91.6369L62.3483 92.7315L59.1357 101.373C59.1357 101.373 58.9989 102.364 57.0177 102.09C57.0177 102.09 51.0057 101.765 51.211 100.279C51.4162 98.7927 55.3786 99.34 55.3786 99.34Z" fill="#FDCB02"/>
<path d="M67.9739 99.6327L64.5609 92.6612L72.7376 89.909L72.1885 100.331C72.1885 100.331 72.382 101.312 70.4197 101.699C70.4197 101.699 64.6298 103.35 64.3396 101.878C64.0495 100.406 67.9739 99.6327 67.9739 99.6327Z" fill="#FDCB02"/>
</svg>
