<svg width="120" height="120" viewBox="0 0 120 120" fill="none" xmlns="http://www.w3.org/2000/svg">
<path d="M74.6279 34.1868C66.1944 30.3081 59.4636 29.6373 50.8798 33.1709C48.4239 34.1819 44.9476 36.4964 44.9476 36.4964C44.9476 36.4964 41.9141 38.7516 42.6131 40.3758C43.189 41.7141 46.0025 41.9347 46.0025 41.9347L33.3304 71.3287C33.3304 71.3287 42.9538 81.8617 51.0197 85.5181C59.0856 89.1745 72.4073 89.3008 72.4073 89.3008L86.4771 60.5497C86.4771 60.5497 88.4757 62.5422 89.8666 62.1085C91.5546 61.5822 91.2926 57.8113 91.2926 57.8113C91.2926 57.8113 90.7882 53.6654 89.9567 51.1431C87.1621 42.6652 83.0613 38.0655 74.6279 34.1868Z" fill="#FDCB02"/>
<path d="M30.0608 85.6175L33.3304 71.3287L39.0088 75.7349L33.6949 87.2889C33.6949 87.2889 33.192 87.7754 31.6053 87.0457C30.0186 86.3159 30.0608 85.6175 30.0608 85.6175Z" fill="#FDCB02"/>
<path d="M71 100.348L74 86L67 87.6304V100.348C67 100.348 67.2535 101 69 101C70.7465 101 71 100.348 71 100.348Z" fill="#FDCB02"/>
<circle cx="57.7761" cy="45.6985" r="5.5" transform="rotate(24.6985 57.7761 45.6985)" fill="black"/>
<circle cx="58.4393" cy="45.4532" r="5" transform="rotate(24.6985 58.4393 45.4532)" fill="white"/>
<circle cx="76.855" cy="54.4732" r="5.5" transform="rotate(24.6985 76.855 54.4732)" fill="black"/>
<circle cx="77.5182" cy="54.2279" r="5" transform="rotate(24.6985 77.5182 54.2279)" fill="white"/>
<path d="M54.6059 51.395C56.9459 49.0487 59.2504 48.4362 62.564 48.4509C66.4692 48.4683 69.0945 49.6757 71.6492 52.6294C73.817 55.1357 74.8518 57.2839 74.5933 60.5875C74.38 63.3129 72.0862 66.0387 72.0862 66.0387C72.0862 66.0387 70.0648 66.2097 68.9428 65.6936C67.8208 65.1776 66.6351 63.5316 66.6351 63.5316L67.8158 58.5712L60.5477 55.2284L57.5499 59.3532C57.5499 59.3532 55.5285 59.5242 54.4065 59.0081C53.2845 58.4921 52.0988 56.8461 52.0988 56.8461C52.0988 56.8461 52.6755 53.3306 54.6059 51.395Z" fill="#F9B402"/>
<ellipse cx="64.8085" cy="55.537" rx="4" ry="2.5" transform="rotate(24.6985 64.8085 55.537)" fill="black"/>
<path d="M100.984 81.7789C100.984 81.7789 101.158 83.1863 100.674 83.904C100.19 84.6217 98.7663 85.0665 98.7663 85.0665C98.7663 85.0665 94.238 79.2439 90.1646 76.9949C86.0168 74.7048 78.2371 73.8548 78.2371 73.8548C78.2371 73.8548 76.9706 72.4005 78.302 70.4264C79.6335 68.4523 81.563 68.9234 81.563 68.9234C81.563 68.9234 89.0595 70.3449 92.9363 72.8854C96.8839 75.4724 100.984 81.7789 100.984 81.7789Z" fill="#FDCB02"/>
<path d="M62.0426 69.2502C62.0426 69.2502 62.162 70.6633 61.6504 71.3616C61.1388 72.0599 59.699 72.4489 59.699 72.4489C59.699 72.4489 55.4008 66.4544 51.4181 64.0486C47.3625 61.5987 39.6219 60.4464 39.6219 60.4464C39.6219 60.4464 38.413 58.944 39.8203 57.0232C41.2276 55.1024 43.1373 55.6483 43.1373 55.6483C43.1373 55.6483 50.5727 57.3606 54.3476 60.0501C58.1916 62.7888 62.0426 69.2502 62.0426 69.2502Z" fill="#F9B402"/>
</svg>
