<svg width="120" height="120" viewBox="0 0 120 120" fill="none" xmlns="http://www.w3.org/2000/svg">
<path d="M37.2942 87C37.2942 87 50.4384 92.5484 59.2942 92.5C68.15 92.5484 81.2942 87 81.2942 87L82.0634 54L80.2942 43C80.2942 43 70.7942 35 59.2942 35C47.7942 35 36.525 43 36.525 54L37.2942 87Z" fill="#FDCB02"/>
<path d="M58.9162 56.815C58.9162 56.815 56.5757 57.0273 55.7551 56.7286C54.9345 56.4299 53.2781 54.7628 53.2781 54.7628L55.8432 47.7151C55.8432 47.7151 57.6024 47.8234 58.8333 48.2714C60.0642 48.7194 61.4814 49.7673 61.4814 49.7673L58.9162 56.815Z" fill="#F9B402"/>
<path d="M38.7942 85.5621C38.1393 86.6964 37.3612 87.0441 37.3612 87.0441L31 81.0621L39.3612 83.58C39.3612 83.58 39.4491 84.4277 38.7942 85.5621Z" fill="#FDCB02"/>
<circle cx="72.7942" cy="52.5" r="5.5" fill="black"/>
<circle cx="73.2942" cy="52" r="5" fill="white"/>
<path d="M71.2942 59C72.4398 55.8906 74.2775 54.3712 77.2942 53C79.0718 52.192 80.483 51.788 82.0942 51.788C82.0942 51.788 82.7942 52.797 82.7942 54.5C82.7942 56.203 82.0942 60 82.0942 60H78.2942L77.2942 65C77.2942 65 75.5291 66 74.2942 66C73.0592 66 71.2942 65 71.2942 65C71.2942 65 70.3492 61.5651 71.2942 59Z" fill="#F9B402"/>
<path d="M83.2942 58.5C83.2942 60.8807 81.951 61 80.2942 61C78.6373 61 77.2942 59.8807 77.2942 58.5C77.2942 57.1193 78.6373 56 80.2942 56C81.951 56 83.2942 56.1193 83.2942 58.5Z" fill="black"/>
<path d="M61.2942 98.5L63.2942 91H55.2942L57.2942 100C57.2942 100 57.2942 101 59.2942 101C59.2942 101 65.2942 101.5 65.2942 100C65.2942 98.5 61.2942 98.5 61.2942 98.5Z" fill="#FDCB02"/>
<path d="M104.282 50.5524C99.9602 56.6828 87.9601 59.0169 87.9601 59.0169C87.9601 59.0169 88.1243 67.4749 84.9566 71.0212C79.782 76.8142 62.8607 70.005 62.8607 70.005L58.4945 68.2505C58.4945 68.2505 58.1366 66.5592 58.651 65.7075C59.0724 65.01 60.3272 64.4647 60.3272 64.4647C60.3272 64.4647 74.8792 68.8903 77.7421 62.6754C79.0792 59.7728 78.1254 54.3473 78.1254 54.3473C78.1254 54.3473 70.3202 48.2882 71.9771 44.139C72.8856 41.864 76.6718 40.0808 76.6718 40.0808L76.0991 34.4606C76.0991 34.4606 75.2003 26.018 79.7332 24.7336C84.4346 23.4014 85.414 26.8714 85.414 26.8714C85.414 26.8714 86.8687 23.647 89.8385 23.5246C94.3591 23.3381 95.8282 28.5431 95.8282 28.5431C95.8282 28.5431 96.5855 25.3101 99.5533 25.4755C102.791 25.656 106.622 30.5399 107.496 37.2097C107.515 37.3571 108.81 44.1292 104.282 50.5524Z" fill="#F9B402"/>
</svg>
