<svg width="120" height="120" viewBox="0 0 120 120" fill="none" xmlns="http://www.w3.org/2000/svg">
<path d="M33.0113 82.6297C33.0113 82.6297 44.77 90.7098 53.4544 92.4445C62.1193 94.2741 76.1111 91.4844 76.1111 91.4844L83.5056 59.3144L83.9863 48.1834C83.9863 48.1834 76.2906 38.4352 65.0259 36.1209C53.7612 33.8066 41.1125 39.3751 38.8988 50.15L33.0113 82.6297Z" fill="#FDCB02"/>
<path d="M60.2654 57.4135C60.2654 57.4135 57.93 57.1504 57.1863 56.6927C56.4427 56.235 55.1556 54.2687 55.1556 54.2687L59.0865 47.8814C59.0865 47.8814 60.788 48.3415 61.9035 49.028C63.019 49.7145 64.1964 51.0262 64.1964 51.0262L60.2654 57.4135Z" fill="#F9B402"/>
<path d="M34.7699 81.5231C33.9001 82.5024 33.068 82.6864 33.068 82.6864L28.0407 75.5466L35.7242 79.6957C35.7242 79.6957 35.6397 80.5437 34.7699 81.5231Z" fill="#FDCB02"/>
<circle cx="74.7278" cy="55.9797" r="5.5" transform="rotate(11.6097 74.7278 55.9797)" fill="black"/>
<circle cx="75.3182" cy="55.5905" r="5" transform="rotate(11.6097 75.3182 55.5905)" fill="white"/>
<path d="M71.9504 62.0449C73.6983 59.2296 75.8042 58.1111 79.0352 57.3751C80.939 56.9413 82.4026 56.8296 83.9809 57.1538C83.9809 57.1538 84.4635 58.2831 84.1208 59.9512C83.7781 61.6193 82.3283 65.1978 82.3283 65.1978L78.606 64.4331L76.6202 69.1296C76.6202 69.1296 74.69 69.7539 73.4804 69.5054C72.2707 69.2568 70.743 67.9221 70.743 67.9221C70.743 67.9221 70.5085 64.3673 71.9504 62.0449Z" fill="#F9B402"/>
<path d="M83.8056 63.97C83.3265 66.302 81.9868 66.1485 80.3638 65.8151C78.7409 65.4817 77.6505 64.115 77.9283 62.7625C78.2062 61.41 79.7471 60.584 81.3701 60.9174C82.993 61.2508 84.2847 61.638 83.8056 63.97Z" fill="black"/>
<path d="M57.5556 87.1244C57.5556 87.1244 58.615 87.9102 59.4361 87.9102C60.2572 87.9102 61.3166 87.1244 61.3166 87.1244C61.3166 87.1244 58.7992 81.212 58.966 77.303C59.1358 73.3225 62.2568 67.4816 62.2568 67.4816C62.2568 67.4816 61.6945 65.9102 59.4361 65.9102C57.1777 65.9102 56.6154 67.4816 56.6154 67.4816C56.6154 67.4816 54.098 73.394 54.2648 77.303C54.4346 81.2835 57.5556 87.1244 57.5556 87.1244Z" fill="#F9B402"/>
<path d="M64.6214 99.34L65.5764 91.6369L57.6517 92.7315L60.8643 101.373C60.8643 101.373 61.0011 102.364 62.9823 102.09C62.9823 102.09 68.9943 101.765 68.789 100.279C68.5838 98.7927 64.6214 99.34 64.6214 99.34Z" fill="#FDCB02"/>
<path d="M52.0261 99.6327L55.4391 92.6612L47.2624 89.909L47.8115 100.331C47.8115 100.331 47.618 101.312 49.5803 101.699C49.5803 101.699 55.3702 103.35 55.6604 101.878C55.9505 100.406 52.0261 99.6327 52.0261 99.6327Z" fill="#FDCB02"/>
</svg>
