<svg width="115" height="115" viewBox="0 0 115 115" fill="none" xmlns="http://www.w3.org/2000/svg">
<g transform="translate(115 0) scale(-1 1)">
<path d="M53.0254 106.605C52.9631 103.928 53.2875 100.419 54.0533 100.437C55.0938 100.462 52.9322 102.599 56.4877 103.349C60.0432 104.098 60.4614 101.036 60.4614 101.036C60.4614 101.036 69.9004 104.336 69.9265 105.458C69.9664 107.169 69.3057 108.761 67.6433 109.16C64.1608 109.996 62.3813 109.551 58.3183 109.453C55.7438 109.391 53.0868 109.237 53.0254 106.605Z" fill="#444444" stroke="black"/>
<path d="M54.0614 99.7555L54.5447 89.521L60.7397 89.6702L60.3248 101.132C60.3248 101.132 59.9469 103.685 57.7665 103.632C54.6319 103.557 54.0614 99.7555 54.0614 99.7555Z" fill="#FFDCC9" stroke="black"/>
<path d="M52.7812 89.7556L53.0689 83.1137L62.804 83.3483L62.0842 90.4259L52.7812 89.7556Z" fill="#284DD1" stroke="black"/>
<path d="M61.3926 86.9113C70.6121 85.0146 72.1295 76.7155 72.1295 76.7155C72.1295 76.7155 66.338 75.6579 52.9191 76.496C48.4503 76.7751 31.0734 77.4802 31.0734 77.4802C31.0734 77.4802 31.081 81.7096 33.6338 84.2473C36.5512 87.1474 45.8456 88.9707 48.5738 89.0631C50.7305 89.1361 57.8141 87.6474 61.3926 86.9113Z" fill="#2040B3" stroke="black"/>
<path d="M49.7884 78.3677C43.0306 78.7951 32.4384 77.6162 32.4384 77.6162L32.6767 68.8304L38.2154 56.7557L49.001 56.1673C49.001 56.1673 53.043 56.0345 55.6131 55.75C59.3339 55.3381 61.6401 55.5999 65.0393 54.0472C69.8045 51.8704 75.346 47.7325 75.346 47.7325L75.2798 58.0463C75.2798 58.0463 74.5342 64.3382 74.161 68.38C73.8041 72.2469 72.3687 76.0772 72.3687 76.0772C72.3687 76.0772 66.4985 77.1714 62.385 77.4631C58.2716 77.7548 55.4343 78.0106 49.7884 78.3677Z" fill="#40BDCE" stroke="black"/>
<path d="M28.3242 49.994C28.3242 49.994 29.1365 42.4645 31.1918 33.9333C33.2471 25.4021 40.904 21.6875 40.904 21.6875C40.904 21.6875 40.8286 16.5513 42.5017 14.0161C43.7198 12.1705 44.564 10.3239 46.7706 10.3307C49.079 10.3378 50.2999 12.2145 51.1768 14.3918C51.7229 15.7479 52.4885 17.2634 52.4885 17.2634L58.725 17.8854L65.665 18.186C65.665 18.186 65.63 15.6197 66.4639 14.3503C67.1515 13.3035 67.7191 12.5471 68.9501 12.3469C70.181 12.1466 71.1317 12.6044 72.0445 13.5364C73.4052 14.9258 72.605 18.4865 72.605 18.4865C72.605 18.4865 75.5795 21.2751 76.6356 23.587C77.6916 25.8988 77.5869 27.4504 77.852 29.9729C78.5743 36.847 75.6403 47.4694 75.6403 47.4694L70.6679 51.4762C70.6679 51.4762 64.6629 54.4789 60.4905 55.2575C56.6259 55.9787 54.3472 55.7082 50.4084 55.5245C45.7835 55.3088 38.6389 53.9592 38.6389 53.9592C38.6389 53.9592 37.4872 51.0551 35.9678 49.9732C33.5077 48.2215 28.3242 49.994 28.3242 49.994Z" fill="#FFFEFE"/>
<path d="M40.904 21.6875L42.5437 25.277M40.904 21.6875C40.904 21.6875 40.8286 16.5513 42.5017 14.0161C43.7198 12.1705 44.564 10.3239 46.7706 10.3307C49.079 10.3378 50.2999 12.2145 51.1768 14.3918C51.7229 15.7479 52.4885 17.2634 52.4885 17.2634M40.904 21.6875C40.904 21.6875 33.2471 25.4021 31.1918 33.9333C29.1365 42.4645 28.3242 49.994 28.3242 49.994C28.3242 49.994 33.5077 48.2215 35.9678 49.9732C37.4872 51.0551 38.6389 53.9592 38.6389 53.9592C38.6389 53.9592 45.7835 55.3088 50.4084 55.5245C54.3472 55.7082 56.6259 55.9787 60.4905 55.2575C64.6629 54.4789 70.6679 51.4762 70.6679 51.4762L75.6403 47.4694C75.6403 47.4694 78.5743 36.847 77.852 29.9729C77.5869 27.4504 77.6916 25.8988 76.6356 23.587C75.5795 21.2751 72.605 18.4865 72.605 18.4865M52.0176 21.817L52.4885 17.2634M52.4885 17.2634L58.725 17.8854L65.665 18.186M65.665 18.186C65.665 18.186 65.63 15.6197 66.4639 14.3503C67.1515 13.3035 67.7191 12.5471 68.9501 12.3469C70.181 12.1466 71.1317 12.6044 72.0445 13.5364C73.4052 14.9258 72.605 18.4865 72.605 18.4865M65.665 18.186L72.605 18.4865" stroke="black"/>
<path d="M53.0579 29.6787C55.4985 27.5756 62.5903 24.7111 64.3146 24.5369C66.7531 24.2907 70.9266 24.1196 74.4783 26.3075C78.03 28.4954 77.853 29.9721 77.853 29.9721L77.6623 37.0008L76.4402 43.6329C76.4402 43.6329 74.9345 44.8771 73.8252 45.3557C70.4855 46.7967 68.1964 47.927 65.0552 48.4942C61.914 49.0614 57.0352 49.5546 53.7422 47.9275C50.4492 46.3004 48.3912 42.902 48.0719 39.2376C47.7527 35.5733 50.6173 31.7818 53.0579 29.6787Z" fill="#FFDCC9" stroke="black"/>
<path d="M80.9523 43.3088L58.8918 67.0316L62.5883 70.3619L87.6759 50.3572L92.4485 38.473L80.9523 43.3088Z" fill="#FF2B2B" stroke="black"/>
<path d="M55.3813 68.2318L53.6151 63.6869L58.0689 65.9908L64.4903 72.6022L64.0194 77.1558L62.1306 75.561L60.2938 71.5399L55.3443 76.7801C55.3443 76.7801 55.082 79.2599 53.3467 79.5734C51.6114 79.8869 49.7105 78.7369 49.5964 76.948C49.491 75.2959 51.922 74.8726 51.922 74.8726L57.0842 69.1092C56.1766 68.6143 55.3813 68.2318 55.3813 68.2318Z" fill="#A80202"/>
<path d="M60.2938 71.5399L62.1306 75.561L64.0194 77.1558L64.4903 72.6022L58.0689 65.9908L53.6151 63.6869L55.3813 68.2318C55.3813 68.2318 56.1766 68.6143 57.0842 69.1092M60.2938 71.5399L55.3443 76.7801C55.3443 76.7801 55.082 79.2599 53.3467 79.5734C51.6114 79.8869 49.7105 78.7369 49.5964 76.948C49.491 75.2959 51.922 74.8726 51.922 74.8726L57.0842 69.1092M60.2938 71.5399C60.2938 71.5399 58.5696 69.9192 57.0842 69.1092" stroke="black"/>
<path d="M68.1179 61.9285L84.8655 46.4689" stroke="black" stroke-linecap="round"/>
<path d="M56.6818 70.4752C54.3029 68.6555 51.0883 64.6836 51.0883 64.6836L47.3143 67.6196L52.9137 73.7579C52.9137 73.7579 53.1381 75.3595 53.7579 76.1006C54.9501 77.5261 56.9058 77.8052 58.4178 76.7391C59.314 76.1072 59.6158 76.1796 59.9155 75.1103C60.2479 73.9241 59.8201 71.9532 59.8201 71.9532C59.8201 71.9532 57.762 71.3014 56.6818 70.4752Z" fill="#FFDCC9" stroke="black"/>
<path d="M48.3553 59.5328L52.3118 63.5457L45.309 68.9421L43.5278 67.5581" stroke="black"/>
<path d="M61.9226 38.7342C61.9345 39.6274 61.7513 40.4108 61.47 40.9527C61.1774 41.5164 60.8506 41.703 60.6161 41.7025C60.3816 41.7021 60.0498 41.5144 59.7422 40.9496C59.4464 40.4067 59.2423 39.6225 59.2304 38.7293C59.2185 37.8362 59.4017 37.0527 59.683 36.5108C59.9756 35.9471 60.3024 35.7605 60.537 35.761C60.7715 35.7614 61.1033 35.9491 61.4109 36.5139C61.7067 37.0568 61.9107 37.841 61.9226 38.7342Z" fill="black" stroke="black"/>
<path d="M73.6609 36.2469C73.6716 37.0559 73.5182 37.7632 73.2845 38.2497C73.0355 38.768 72.7775 38.8915 72.6438 38.8913C72.5101 38.891 72.2489 38.7666 71.9861 38.2474C71.7393 37.76 71.5671 37.0521 71.5563 36.2431C71.5455 35.4342 71.6989 34.7268 71.9327 34.2404C72.1817 33.7221 72.4396 33.5986 72.5733 33.5988C72.707 33.5991 72.9683 33.7235 73.2311 34.2427C73.4778 34.73 73.6501 35.438 73.6609 36.2469Z" fill="#010101" stroke="black"/>
<path d="M16.0003 52.6188C18.8747 50.7767 23.0093 49.6711 27.58 48.9166C29.3938 48.6171 32.5947 48.4817 34.9343 49.5774C36.9656 50.5286 38.637 53.9597 38.637 53.9597L47.9678 55.7712L48.9516 57.9249C48.9516 57.9249 45.6959 57.1428 43.7466 57.6994C41.3505 58.3837 39.3073 59.2401 38.7742 61.7062C38.2571 64.0987 41.3977 67.4494 41.3977 67.4494L40.5512 73.0423C40.5512 73.0423 35.4308 76.615 31.7331 77.9382C26.2104 79.9146 22.4712 81.84 16.7263 80.4547C12.4591 79.4256 9.98151 77.999 7.86627 74.0898C5.95961 70.566 5.74696 68.0363 6.74529 64.1893C7.74361 60.3423 10.9912 55.829 16.0003 52.6188Z" fill="#65E959" stroke="black"/>
<path d="M38.9278 63.8999C38.9278 63.8999 6.47563 69.1794 7.08382 72.3724C7.53994 74.7671 11.5212 78.9318 15.8961 80.4947C20.9858 82.3129 24.4198 80.3221 29.4959 78.6208C34.0882 77.0816 40.4245 72.7609 40.4245 72.7609L40.9431 66.4501L38.9278 63.8999Z" fill="#278C1E" stroke="black"/>
<path d="M41.9178 107.771C41.9177 104.883 42.3611 101.089 43.1967 101.089C44.332 101.089 41.9177 103.451 45.7805 104.167C49.6433 104.883 50.1778 101.569 50.1778 101.569C50.1778 101.569 60.3992 104.883 60.3992 106.094C60.3992 107.939 59.6376 109.673 57.8124 110.147C53.989 111.14 52.0575 110.705 47.624 110.705C44.8149 110.705 41.9178 110.609 41.9178 107.771Z" fill="#444444" stroke="black"/>
<path d="M43.223 100.353L44.0107 89.2986L50.7706 89.2986L50.0263 101.675C50.0263 101.675 49.5488 104.439 47.1696 104.44C43.7492 104.44 43.223 100.353 43.223 100.353Z" fill="#FFDCC9" stroke="black"/>
<path d="M42.0794 89.5979L42.5622 82.4246L53.1849 82.4246L52.2192 90.0793L42.0794 89.5979Z" fill="#284DD1" stroke="black"/>
</g>
</svg>
