<svg width="110" height="106" viewBox="0 0 110 106" fill="none" xmlns="http://www.w3.org/2000/svg">
<g transform="translate(110 0) scale(-1 1)">
<path d="M5.10337 76.7812C7.25995 75.1924 10.319 73.4432 10.7436 74.0808C11.3204 74.9471 8.32955 74.4045 9.75768 77.7457C11.1858 81.0869 13.9326 79.6713 13.9326 79.6713C13.9326 79.6713 16.6516 89.2934 15.7473 89.9595C14.3694 90.9746 12.687 91.3477 11.4056 90.2158C8.72132 87.8448 8.0643 86.1321 5.81137 82.7495C4.38385 80.6062 2.98391 78.3426 5.10337 76.7812Z" fill="#444444" stroke="black"/>
<path d="M11.3063 73.696L19.9629 68.2149L23.398 73.3725L13.776 79.6142C13.776 79.6142 11.4689 80.7707 10.2599 78.9555C8.5218 76.3458 11.3063 73.696 11.3063 73.696Z" fill="#FFDCC9" stroke="black"/>
<path d="M18.7582 66.9057L24.3611 63.3274L29.7591 71.4323L23.5513 74.9071L18.7582 66.9057Z" fill="#284DD1" stroke="black"/>
<path d="M44.4618 77.0415C53.6359 79.147 58.4644 72.2287 58.4644 72.2287C58.4644 72.2287 53.636 68.8604 41.082 64.047C36.9013 62.4441 20.8024 55.8654 20.8024 55.8654C20.8024 55.8654 19.0519 59.7156 20.3196 63.0845C21.7682 66.9346 29.4647 72.4549 31.9079 73.6725C33.8393 74.6351 40.901 76.2242 44.4618 77.0415Z" fill="#2040B3" stroke="black"/>
<path d="M29.7223 29.7219C29.7223 29.7219 33.5896 23.2106 39.0038 16.3047C44.4181 9.39873 52.9261 9.20142 52.9261 9.20142C52.9261 9.20142 54.9916 4.49819 57.5669 2.88742C59.4417 1.71477 60.9768 0.385855 62.9811 1.30892C65.0779 2.27455 65.4086 4.48887 65.3015 6.83367C65.2348 8.29411 65.3015 9.99062 65.3015 9.99062L70.7158 13.1477L76.9034 16.3047C76.9034 16.3047 77.9379 13.9558 79.2238 13.1477C80.2842 12.4812 81.1148 12.0291 82.3177 12.3584C83.5205 12.6877 84.195 13.4991 84.6381 14.7262C85.2985 16.5553 83.0911 19.4617 83.0911 19.4617C83.0911 19.4617 84.6381 23.234 84.6381 25.7757C84.6381 28.3173 83.8981 29.6851 83.0911 32.0897C80.8919 38.6425 73.8096 47.0854 73.8096 47.0854L67.6219 48.6639C67.6219 48.6639 60.9122 48.9 56.7934 47.8746C52.9786 46.9249 51.0183 45.7321 47.5119 43.9284C43.3948 41.8106 37.4569 37.6144 37.4569 37.6144C37.4569 37.6144 37.616 34.4943 36.6834 32.8789C35.1736 30.2633 29.7223 29.7219 29.7223 29.7219Z" fill="#FFFEFE"/>
<path d="M52.9261 9.20142V13.1477M52.9261 9.20142C52.9261 9.20142 54.9916 4.49819 57.5669 2.88742C59.4417 1.71477 60.9768 0.385855 62.9811 1.30892C65.0779 2.27455 65.4086 4.48887 65.3015 6.83367C65.2348 8.29411 65.3015 9.99062 65.3015 9.99062M52.9261 9.20142C52.9261 9.20142 44.4181 9.39873 39.0038 16.3047C33.5896 23.2106 29.7223 29.7219 29.7223 29.7219C29.7223 29.7219 35.1736 30.2633 36.6834 32.8789C37.616 34.4943 37.4569 37.6144 37.4569 37.6144C37.4569 37.6144 43.3948 41.8106 47.5119 43.9284C51.0183 45.7321 52.9786 46.9249 56.7934 47.8747C60.9122 48.9 67.6219 48.6639 67.6219 48.6639L73.8096 47.0854C73.8096 47.0854 80.8919 38.6425 83.0911 32.0897C83.8981 29.6851 84.6381 28.3173 84.6381 25.7757C84.6381 23.234 83.0911 19.4617 83.0911 19.4617M62.9811 13.9369L65.3015 9.99062M65.3015 9.99062L70.7158 13.1477L76.9034 16.3047M76.9034 16.3047C76.9034 16.3047 77.9379 13.9558 79.2238 13.1477C80.2842 12.4812 81.1148 12.0291 82.3177 12.3584C83.5205 12.6877 84.195 13.4991 84.6381 14.7262C85.2985 16.5553 83.0911 19.4617 83.0911 19.4617M76.9034 16.3047L83.0911 19.4617" stroke="black"/>
<path d="M60.6609 21.5201C63.7548 20.6212 71.3955 20.9623 73.0363 21.5203C75.3567 22.3096 79.224 23.8881 81.5455 27.3539C83.867 30.8197 83.0924 32.0894 83.0924 32.0894L79.9986 38.4034L76.1313 43.9281C76.1313 43.9281 74.2448 44.4342 73.0368 44.4086C69.4004 44.3317 66.8486 44.4086 63.7557 43.6194C60.6628 42.8301 56.0201 41.2516 53.7009 38.4034C51.3817 35.5551 50.9218 31.6089 52.154 28.1431C53.3861 24.6774 57.5671 22.419 60.6609 21.5201Z" fill="#FFDCC9" stroke="black"/>
<path d="M64.9616 33.4403C64.6013 34.2576 64.1092 34.8941 63.6281 35.2702C63.1278 35.6613 62.753 35.6952 62.5399 35.5974C62.3267 35.4996 62.1029 35.1909 62.0578 34.5494C62.0143 33.9327 62.1545 33.1346 62.5148 32.3172C62.8751 31.4999 63.3673 30.8633 63.8483 30.4873C64.3487 30.0962 64.7235 30.0623 64.9366 30.1601C65.1497 30.2579 65.3735 30.5665 65.4187 31.2081C65.4621 31.8248 65.3219 32.6229 64.9616 33.4403Z" fill="black" stroke="black"/>
<path d="M76.6721 36.0551C76.3458 36.7954 75.9124 37.3751 75.4976 37.7204C75.0558 38.0884 74.7698 38.0936 74.6483 38.0378C74.5268 37.982 74.3409 37.7602 74.3175 37.1788C74.2956 36.633 74.4331 35.9175 74.7594 35.1772C75.0857 34.4369 75.5192 33.8572 75.9339 33.5119C76.3757 33.1439 76.6617 33.1387 76.7832 33.1945C76.9047 33.2503 77.0906 33.4721 77.114 34.0535C77.1359 34.5993 76.9984 35.3148 76.6721 36.0551Z" fill="#010101" stroke="black"/>
<path d="M59.391 93.1637C57.3515 91.1197 54.9855 88.1206 55.5771 87.5304C56.3808 86.7286 56.34 90.1059 59.5802 87.8844C62.8204 85.663 60.858 82.9394 60.858 82.9394C60.858 82.9394 70.4345 78.0659 71.2896 78.9229C72.5928 80.229 73.2785 81.9947 72.3212 83.6193C70.3158 87.0226 68.6416 88.0792 65.5032 91.2107C63.5146 93.1948 61.3955 95.1726 59.391 93.1637Z" fill="#444444" stroke="black"/>
<path d="M55.076 86.9909L47.8256 78.6089L52.6109 73.8343L60.8259 83.1216C60.8259 83.1216 62.4402 85.4156 60.756 87.096C58.3347 89.5119 55.076 86.9909 55.076 86.9909Z" fill="#FFDCC9" stroke="black"/>
<path d="M46.6698 80.185L41.945 74.7659L49.4648 67.263L54.1878 73.3638L46.6698 80.185Z" fill="#284DD1" stroke="black"/>
<path d="M37.4567 64.4488C31.1322 62.0297 21.9874 56.5563 21.9874 56.5563L25.8547 48.6638L35.9097 39.9821L45.9647 43.9283C45.9647 43.9283 49.6965 45.487 52.1524 46.2961C55.7079 47.4674 57.6969 48.6638 61.434 48.6638C66.6728 48.6638 73.4326 47.2025 73.4326 47.2025L69.087 56.5563C69.087 56.5563 65.7945 61.9696 63.7757 65.4909C61.8443 68.8599 58.9472 71.7475 58.9472 71.7475C58.9472 71.7475 53.1531 70.3037 49.2903 68.8599C45.4275 67.416 42.7405 66.4698 37.4567 64.4488Z" fill="#40BDCE" stroke="black"/>
<path d="M17.4218 26.9888C20.8018 26.5076 25.0219 27.2198 29.493 28.4327C31.2672 28.9139 34.235 30.1207 35.9079 32.0894C37.3603 33.7987 37.4549 37.614 37.4549 37.614L45.1895 43.1387V45.5065C45.1895 45.5065 42.553 43.4423 40.5487 43.1387C38.0849 42.7656 35.8706 42.6955 34.361 44.7172C32.8966 46.6786 34.361 51.0312 34.361 51.0312L31.2672 55.7667C31.2672 55.7667 25.1252 56.8889 21.2121 56.5562C15.3675 56.0592 11.1663 56.2569 6.51642 52.6097C3.06254 49.9007 1.40172 47.5736 1.102 43.1389C0.831831 39.1416 1.68954 36.7521 4.19603 33.6678C6.70252 30.5834 11.5318 27.8275 17.4218 26.9888Z" fill="#65E959" stroke="black"/>
<path d="M33.5893 46.7763C33.5893 46.7763 1.87734 38.0946 1.10388 41.2516C0.523746 43.6193 2.41463 49.0617 5.74465 52.3011C9.61871 56.0697 13.5694 55.6857 18.8935 56.2473C23.7101 56.7554 31.2689 55.4581 31.2689 55.4581L34.3627 49.9333L33.5893 46.7763Z" fill="#278C1E" stroke="black"/>
<path d="M91.2634 43.2872L61.032 54.9276L62.8928 59.542L94.2133 52.5707L103.716 43.9848L91.2634 43.2872Z" fill="#FF2B2B" stroke="black"/>
<path d="M57.3506 54.4661L57.7573 49.6071L60.7489 53.6314L63.6191 62.3896L61.1982 66.2751L60.2005 64.0134L60.3139 59.594L53.5674 62.1317C53.5674 62.1317 52.2437 64.2451 50.5468 63.7656C48.8498 63.286 47.6461 61.4187 48.3284 59.7611C48.9584 58.2302 51.3287 58.9163 51.3287 58.9163L58.496 56.0017C57.8976 55.1588 57.3506 54.4661 57.3506 54.4661Z" fill="#A80202"/>
<path d="M60.3139 59.594L60.2005 64.0134L61.1982 66.2751L63.6191 62.3896L60.7489 53.6314L57.7573 49.6071L57.3506 54.4661C57.3506 54.4661 57.8976 55.1588 58.496 56.0017M60.3139 59.594L53.5674 62.1317C53.5674 62.1317 52.2437 64.2451 50.5468 63.7656C48.8498 63.286 47.6461 61.4188 48.3284 59.7611C48.9584 58.2302 51.3287 58.9163 51.3287 58.9163L58.496 56.0017M60.3139 59.594C60.3139 59.594 59.4755 57.3812 58.496 56.0017" stroke="black"/>
<path d="M71.5615 54.3892L93.3935 47.8437" stroke="black" stroke-linecap="round"/>
<path d="M56.9379 57.0938C54.4022 55.5001 50.8367 51.8399 50.8367 51.8399L47.348 55.1098L53.487 60.7085C53.487 60.7085 53.8574 62.2827 54.5426 62.9638C55.8605 64.2739 57.8336 64.3724 59.2414 63.1721C60.0758 62.4605 60.383 62.5049 60.5833 61.4127C60.8055 60.201 60.1987 58.2777 60.1987 58.2777C60.1987 58.2777 58.0894 57.8175 56.9379 57.0938Z" fill="#FFDCC9" stroke="black"/>
<path d="M47.6426 46.9617L51.9506 50.5946L45.4725 56.6109L43.5719 55.3962" stroke="black"/>
</g>
</svg>
