<svg width="94" height="86" viewBox="0 0 94 86" fill="none" xmlns="http://www.w3.org/2000/svg">
<g clip-path="url(#clip0)">
<path d="M5.92058 47.8498L2.23079 51.0838L4.38417 55.7009L38.8287 61.932C38.8287 61.932 40.3688 63.2523 41.5808 63.4895C42.7927 63.7267 43.6923 63.7735 44.717 63.0843C45.4415 62.5969 46.0825 61.3136 46.0825 61.3136L53.4428 62.7539C53.4428 62.7539 54.103 61.9839 54.2216 61.3779C54.3402 60.7719 54.019 59.8098 54.019 59.8098L46.6586 58.3694C46.6586 58.3694 46.5487 56.9391 46.0613 56.2146C45.3721 55.1899 44.5212 54.8942 43.3092 54.657C42.0973 54.4199 40.173 55.0623 40.173 55.0623L5.92058 47.8498Z" fill="white"/>
<circle r="2.5" transform="matrix(-0.192051 0.981385 0.981385 0.192051 42.445 59.0733)" fill="#284DD1"/>
<path d="M47.9143 57.9078L45.5541 50.8543C45.5541 50.8543 47.3465 50.5668 48.3908 50.1814C49.4351 49.796 50.9023 48.8805 50.9023 48.8805L53.2626 55.934L52.1736 61.3927C52.1736 61.3927 50.3945 63.7451 48.8886 63.5043C47.5952 63.2974 46.477 61.1732 46.477 61.1732L47.9143 57.9078Z" fill="#FFDCC9"/>
<path d="M62.8593 63.2178L60.0287 54.6162C60.0287 54.6162 57.0203 56.0981 55.0261 56.9019C53.0319 57.7057 49.8657 58.8421 49.8657 58.8421L53.7638 67.3736C53.7638 67.3736 56.9401 67.0218 58.7271 66.2052C60.5142 65.3887 62.8593 63.2178 62.8593 63.2178Z" fill="#284DD1"/>
<path d="M64.3649 71.3254L62.1576 64.0881C62.1576 64.0881 60.1917 65.5361 58.7271 66.2052C57.2626 66.8744 54.8811 67.4128 54.8811 67.4128L58.4528 74.0266C58.4528 74.0266 59.8099 74.506 61.597 73.6895C63.3841 72.8729 64.3649 71.3254 64.3649 71.3254Z" fill="#FFDCC9"/>
<path d="M62.8829 75.3008C64.67 74.4842 65.6508 72.9367 65.6508 72.9367C65.6508 72.9367 65.8714 72.2165 65.69 71.8193C65.5085 71.4222 64.8196 71.1176 64.8196 71.1176C64.8196 71.1176 63.5163 72.8125 62.0518 73.4817C60.5872 74.1508 57.998 74.2344 57.998 74.2344C57.998 74.2344 57.7773 74.9546 57.9588 75.3518C58.1402 75.7489 58.8291 76.0535 58.8291 76.0535C58.8291 76.0535 61.0958 76.1173 62.8829 75.3008Z" fill="white"/>
<path d="M64.1067 79.2772C66.8879 78.1529 66.8879 78.1529 67.6277 77.3145C68.3674 76.4762 66.9669 74.3458 66.9669 74.3458L65.6508 72.9367C65.6508 72.9367 63.8927 74.8394 62.4281 75.5085C60.9636 76.1777 58.8291 76.0535 58.8291 76.0535C58.8291 76.0535 53.7873 79.4566 53.0856 80.3269C52.3838 81.1973 52.1429 83.0347 53.9083 83.3997L64.1066 79.2772L64.1067 79.2772Z" fill="black"/>
<path d="M56.5442 69.617L57.0437 60.5754C57.0437 60.5754 53.7022 60.8587 51.5522 60.8803C49.4022 60.9019 46.0396 60.806 46.0396 60.806L46.5595 70.1713C46.5595 70.1713 49.6455 71.0015 51.6073 70.8926C53.569 70.7837 56.5442 69.617 56.5442 69.617Z" fill="#284DD1"/>
<path d="M54.9907 77.7155L55.5734 70.1716C55.5734 70.1716 53.215 70.8033 51.6073 70.8926C49.9996 70.9819 47.5857 70.6151 47.5857 70.6151L48.5007 78.0759C48.5007 78.0759 49.5897 79.0169 51.5515 78.908C53.5133 78.7991 54.9907 77.7155 54.9907 77.7155Z" fill="#FFDCC9"/>
<path d="M52.1616 80.8772C54.1234 80.7683 55.6008 79.6847 55.6008 79.6847C55.6008 79.6847 56.0688 79.0945 56.0446 78.6585C56.0204 78.2226 55.4899 77.6878 55.4899 77.6878C55.4899 77.6878 53.6584 78.791 52.0507 78.8803C50.443 78.9695 48.0015 78.1036 48.0015 78.1036C48.0015 78.1036 47.5335 78.6938 47.5577 79.1297C47.5819 79.5657 48.1123 80.1005 48.1123 80.1005C48.1123 80.1005 50.1998 80.9861 52.1616 80.8772Z" fill="white"/>
<path d="M51.8517 85.0261C54.8514 84.993 54.8514 84.993 55.8458 84.482C56.8403 83.971 56.3127 81.4767 56.3127 81.4767L55.6008 79.6847C55.6008 79.6847 53.2701 80.8157 51.6624 80.9049C50.0547 80.9942 48.1123 80.1005 48.1123 80.1005C48.1123 80.1005 42.177 81.4315 41.2062 81.9862C40.2355 82.5409 39.3413 84.1641 40.8523 85.1475L51.8516 85.0261L51.8517 85.0261Z" fill="black"/>
<path d="M53.9886 3.5499C53.9886 3.5499 41.0599 2.30445 33.1976 5.48268C25.3353 8.66091 16.9039 18.5409 16.9039 18.5409L25.5434 45.2497C25.5434 45.2497 39.9083 42.6787 47.0642 39.786C54.2202 36.8933 66.3365 28.7596 66.3365 28.7596L53.9886 3.5499Z" fill="white"/>
<path d="M36.5048 27.0463C38.7153 33.8773 33.6378 41.6193 24.705 44.5099L16.8151 19.6554C25.7479 16.7647 34.2944 20.2154 36.5048 27.0463Z" fill="#FFDCC9"/>
<path d="M27.8125 5.50232L30.8107 12.9192L38.2276 9.92106L35.2294 2.50413C35.2294 2.50413 32.3906 1.49446 30.7714 2.14899C29.1522 2.80353 27.8125 5.50232 27.8125 5.50232Z" fill="white"/>
<path d="M53.248 55.0834C61.2134 51.8635 72.5203 44.057 72.5203 44.057L73.6544 49.531C73.6544 49.531 63.3484 56.9329 55.3093 60.1825C47.2702 63.4322 34.7155 65.2714 34.7155 65.2714L31.7271 60.5471C31.7271 60.5471 45.2827 58.3033 53.248 55.0834Z" fill="#284DD1"/>
<ellipse rx="1.5" ry="2.5" transform="matrix(-0.927116 0.374774 0.374774 0.927116 27.8121 30.8499)" fill="black"/>
<path d="M47.0643 39.786C55.0296 36.5661 66.3365 28.7596 66.3365 28.7596L72.5203 44.057C72.5203 44.057 61.2871 51.8337 53.248 55.0834C45.2089 58.3331 31.7271 60.5471 31.7271 60.5471L25.5434 45.2497C25.5434 45.2497 39.0989 43.0059 47.0643 39.786Z" fill="#40BDCE"/>
<path d="M74.4927 50.2707C82.3732 47.0851 84.5801 36.5348 80.4404 26.2941C76.3008 16.0535 67.3822 10.0004 59.5018 13.186C51.6213 16.3716 49.4315 26.9643 53.554 37.1626C57.6766 47.3608 66.6122 53.4562 74.4927 50.2707Z" fill="#65E959"/>
<path d="M80.8152 27.2212C84.9548 37.4619 81.9096 47.2725 74.4927 50.2707C67.0758 53.2689 58.0513 48.288 53.9288 38.0897C53.9288 38.0897 58.9392 37.1429 67.7468 33.5826C76.5544 30.0222 80.8152 27.2212 80.8152 27.2212Z" fill="#278C1E"/>
<path d="M40.5053 48.909C39.642 46.7736 39.4015 44.3865 40.9152 41.8791C43.5089 37.5829 49.0505 34.8773 54.1454 35.1347L54.0976 37.173C49.9234 36.7209 45.2199 38.8964 43.0735 42.4517C41.8784 44.4313 41.7024 46.4638 42.3839 48.1496L40.5053 48.909Z" fill="#65E959"/>
<path d="M61.419 47.3192C58.3915 52.3341 51.3473 55.1816 45.6853 53.6793C42.8543 52.9282 41.3685 51.0445 40.5053 48.909L42.3839 48.1496C43.0654 49.8355 44.6044 51.1747 46.8394 51.7677C51.3093 52.9537 56.8706 50.7057 59.2607 46.7466C59.4881 46.3699 59.6962 45.9842 59.8795 45.595L61.7423 46.7457C61.642 46.9371 61.5342 47.1283 61.419 47.3192Z" fill="#65E959"/>
<path d="M45.6853 53.6793C51.3473 55.1816 58.3915 52.3341 61.419 47.3192C61.5342 47.1283 61.642 46.9371 61.7423 46.7457L59.8796 45.595C59.6962 45.9842 59.4881 46.3699 59.2607 46.7466C56.8706 50.7057 51.3094 52.9537 46.8394 51.7677C44.6044 51.1747 43.0654 49.8355 42.3839 48.1496C41.7024 46.4638 41.8785 44.4313 43.0735 42.4517L40.1174 43.6467C39.5512 45.5082 39.8475 47.2817 40.5053 48.909C41.3685 51.0445 42.8543 52.9282 45.6853 53.6793Z" fill="#278C1E"/>
<path d="M43.3292 51.9698L43.1669 43.1869L52.1987 45.0379L52.2328 50.5641C52.2328 50.5641 51.4685 51.9483 48.3368 52.3866C45.2051 52.8249 43.3292 51.9698 43.3292 51.9698Z" fill="#40BDCE"/>
<path d="M44.5815 59.6348L44.4078 52.1989C44.4078 52.1989 46.2053 52.4531 47.3168 52.393C48.4283 52.3329 50.1004 51.8912 50.1004 51.8912L50.2741 59.327L50.2391 64.6853C50.2391 64.6853 48.6483 66.3304 47.339 66.3703C46.1518 66.4065 44.5566 65.1422 44.5566 65.1422L44.5815 59.6348Z" fill="#FFDCC9"/>
</g>
<defs>
<clipPath id="clip0">
<rect width="94" height="86" fill="white" transform="matrix(-1 0 0 1 94 0)"/>
</clipPath>
</defs>
</svg>
