<svg width="120" height="120" viewBox="0 0 120 120" fill="none" xmlns="http://www.w3.org/2000/svg">
<path d="M77.1739 79.9354L74.3432 71.3338C74.3432 71.3338 71.3348 72.8157 69.3407 73.6195C67.3465 74.4233 64.1803 75.5598 64.1803 75.5598L68.0783 84.0912C68.0783 84.0912 71.2546 83.7394 73.0417 82.9229C74.8288 82.1063 77.1739 79.9354 77.1739 79.9354Z" fill="#284DD1"/>
<path d="M78.6794 88.043L76.4721 80.8057C76.4721 80.8057 74.5062 82.2537 73.0417 82.9228C71.5771 83.592 69.1957 84.1304 69.1957 84.1304L72.7673 90.7443C72.7673 90.7443 74.1245 91.2236 75.9115 90.4071C77.6986 89.5906 78.6794 88.043 78.6794 88.043Z" fill="#FFDCC9"/>
<path d="M77.1975 92.0184C78.9846 91.2019 79.9653 89.6543 79.9653 89.6543C79.9653 89.6543 80.186 88.9341 80.0045 88.537C79.8231 88.1398 79.1342 87.8352 79.1342 87.8352C79.1342 87.8352 77.8308 89.5301 76.3663 90.1993C74.9018 90.8684 72.3125 90.9521 72.3125 90.9521C72.3125 90.9521 72.0919 91.6723 72.2733 92.0694C72.4548 92.4665 73.1437 92.7712 73.1437 92.7712C73.1437 92.7712 75.4104 92.8349 77.1975 92.0184Z" fill="white"/>
<path d="M78.4212 95.9948C81.2025 94.8705 81.2025 94.8705 81.9422 94.0322C82.6819 93.1938 81.2815 91.0634 81.2815 91.0634L79.9653 89.6543C79.9653 89.6543 78.2072 91.557 76.7427 92.2262C75.2781 92.8953 73.1437 92.7712 73.1437 92.7712C73.1437 92.7712 68.1019 96.1742 67.4001 97.0446C66.6984 97.9149 66.4574 99.7524 68.2228 100.117L78.4211 95.9948L78.4212 95.9948Z" fill="black"/>
<path d="M70.8587 86.3346L71.3582 77.293C71.3582 77.293 68.0167 77.5763 65.8667 77.5979C63.7167 77.6195 60.3541 77.5236 60.3541 77.5236L60.8741 86.889C60.8741 86.889 63.9601 87.7192 65.9218 87.6103C67.8836 87.5013 70.8587 86.3346 70.8587 86.3346Z" fill="#284DD1"/>
<path d="M69.3052 94.4332L69.8879 86.8893C69.8879 86.8893 67.5295 87.521 65.9218 87.6102C64.3141 87.6995 61.9002 87.3327 61.9002 87.3327L62.8152 94.7935C62.8152 94.7935 63.9043 95.7346 65.8661 95.6256C67.8278 95.5167 69.3052 94.4332 69.3052 94.4332Z" fill="#FFDCC9"/>
<path d="M66.4762 97.5948C68.4379 97.4859 69.9153 96.4024 69.9153 96.4024C69.9153 96.4024 70.3833 95.8121 70.3591 95.3762C70.3349 94.9402 69.8045 94.4054 69.8045 94.4054C69.8045 94.4054 67.973 95.5087 66.3653 95.5979C64.7576 95.6872 62.316 94.8212 62.316 94.8212C62.316 94.8212 61.848 95.4114 61.8722 95.8474C61.8964 96.2833 62.4269 96.8181 62.4269 96.8181C62.4269 96.8181 64.5144 97.7038 66.4762 97.5948Z" fill="white"/>
<path d="M66.1662 101.744C69.166 101.711 69.166 101.711 70.1604 101.2C71.1548 100.689 70.6272 98.1943 70.6272 98.1943L69.9153 96.4024C69.9153 96.4024 67.5846 97.5333 65.9769 97.6226C64.3692 97.7118 62.4269 96.8181 62.4269 96.8181C62.4269 96.8181 56.4915 98.1492 55.5208 98.7038C54.55 99.2585 53.6559 100.882 55.1668 101.865L66.1661 101.744L66.1662 101.744Z" fill="black"/>
<path d="M68.3031 20.2675C68.3031 20.2675 55.3745 19.0221 47.5122 22.2003C39.6499 25.3785 31.2185 35.2585 31.2185 35.2585L39.8579 61.9673C39.8579 61.9673 54.2229 59.3963 61.3788 56.5036C68.5347 53.6109 80.651 45.4772 80.651 45.4772L68.3031 20.2675Z" fill="white"/>
<path d="M50.8194 43.7639C53.0299 50.5949 47.9524 58.337 39.0196 61.2276L31.1297 36.373C40.0625 33.4824 48.6089 36.933 50.8194 43.7639Z" fill="#FFDCC9"/>
<path d="M42.127 22.22L45.1252 29.6369L52.5421 26.6387L49.5439 19.2218C49.5439 19.2218 46.7051 18.2121 45.0859 18.8666C43.4667 19.5212 42.127 22.22 42.127 22.22Z" fill="white"/>
<path d="M67.5626 71.801C75.5279 68.5812 86.8348 60.7747 86.8348 60.7747L87.9689 66.2486C87.9689 66.2486 77.6629 73.6505 69.6238 76.9002C61.5848 80.1499 49.0301 81.9891 49.0301 81.9891L46.0417 77.2647C46.0417 77.2647 59.5972 75.0209 67.5626 71.801Z" fill="#284DD1"/>
<ellipse rx="1.5" ry="2.5" transform="matrix(-0.927116 0.374774 0.374774 0.927116 42.1266 47.5675)" fill="black"/>
<path d="M61.3788 56.5036C69.3441 53.2837 80.651 45.4772 80.651 45.4772L86.8348 60.7747C86.8348 60.7747 75.6016 68.5514 67.5626 71.801C59.5235 75.0507 46.0417 77.2647 46.0417 77.2647L39.8579 61.9673C39.8579 61.9673 53.4134 59.7235 61.3788 56.5036Z" fill="#40BDCE"/>
<path d="M88.8073 66.9883C96.6877 63.8027 98.8946 53.2524 94.755 43.0118C90.6153 32.7711 81.6968 26.7181 73.8163 29.9037C65.9358 33.0892 63.7461 43.6819 67.8686 53.8802C71.9911 64.0785 80.9268 70.1739 88.8073 66.9883Z" fill="#65E959"/>
<path d="M95.1297 43.9389C99.2694 54.1795 96.2242 63.9901 88.8072 66.9883C81.3903 69.9865 72.3659 65.0056 68.2434 54.8073C68.2434 54.8073 73.2537 53.8606 82.0613 50.3002C90.8689 46.7399 95.1297 43.9389 95.1297 43.9389Z" fill="#278C1E"/>
<path d="M54.8198 65.6267C53.9566 63.4912 53.716 61.1041 55.2298 58.5967C57.8234 54.3005 63.365 51.595 68.46 51.8523L68.4121 53.8906C64.238 53.4386 59.5344 55.6141 57.3881 59.1693C56.193 61.1489 56.017 63.1814 56.6984 64.8673L54.8198 65.6267Z" fill="#65E959"/>
<path d="M75.7335 64.0368C72.706 69.0517 65.6618 71.8992 59.9998 70.397C57.1689 69.6458 55.683 67.7621 54.8198 65.6267L56.6984 64.8673C57.3799 66.5531 58.9189 67.8924 61.1539 68.4853C65.6239 69.6713 71.1851 67.4233 73.5752 63.4642C73.8026 63.0876 74.0108 62.7019 74.1941 62.3126L76.0569 63.4633C75.9565 63.6547 75.8488 63.846 75.7335 64.0368Z" fill="#65E959"/>
<path d="M59.9999 70.397C65.6618 71.8992 72.706 69.0517 75.7336 64.0368C75.8488 63.846 75.9565 63.6547 76.0569 63.4633L74.1941 62.3126C74.0108 62.7019 73.8026 63.0876 73.5753 63.4642C71.1851 67.4233 65.6239 69.6713 61.1539 68.4853C58.9189 67.8924 57.3799 66.5531 56.6985 64.8673C56.017 63.1814 56.193 61.1489 57.3881 59.1694L54.432 60.3643C53.8658 62.2258 54.162 63.9993 54.8198 65.6267C55.683 67.7621 57.1689 69.6458 59.9999 70.397Z" fill="#278C1E"/>
<path d="M57.6437 68.6874L57.4815 59.9045L66.5133 61.7555L66.5473 67.2817C66.5473 67.2817 65.7831 68.6659 62.6514 69.1042C59.5196 69.5425 57.6437 68.6874 57.6437 68.6874Z" fill="#40BDCE"/>
<path d="M58.8961 76.3524L58.7224 68.9166C58.7224 68.9166 60.5198 69.1707 61.6314 69.1106C62.7429 69.0506 64.4149 68.6088 64.4149 68.6088L64.5887 76.0447L64.5537 81.4029C64.5537 81.4029 62.9628 83.048 61.6536 83.0879C60.4664 83.1241 58.8712 81.8599 58.8712 81.8599L58.8961 76.3524Z" fill="#FFDCC9"/>
<path d="M20.2352 64.5674L16.5454 67.8015L18.6987 72.4185L53.1432 78.6496C53.1432 78.6496 54.6834 79.9699 55.8953 80.2071C57.1073 80.4443 58.0069 80.4912 59.0315 79.8019C59.7561 79.3145 60.397 78.0312 60.397 78.0312L67.7574 79.4716C67.7574 79.4716 68.4176 78.7015 68.5362 78.0955C68.6548 77.4895 68.3336 76.5274 68.3336 76.5274L60.9732 75.087C60.9732 75.087 60.8633 73.6568 60.3759 72.9322C59.6866 71.9075 58.8358 71.6118 57.6238 71.3747C56.4118 71.1375 54.4876 71.7799 54.4876 71.7799L20.2352 64.5674Z" fill="white"/>
<circle r="2.5" transform="matrix(-0.192051 0.981385 0.981385 0.192051 56.7596 75.7909)" fill="#284DD1"/>
<path d="M62.2288 74.6254L59.8686 67.572C59.8686 67.572 61.661 67.2844 62.7054 66.899C63.7497 66.5136 65.2169 65.5981 65.2169 65.5981L67.5771 72.6516L66.4882 78.1103C66.4882 78.1103 64.7091 80.4628 63.2032 80.2219C61.9098 80.015 60.7915 77.8908 60.7915 77.8908L62.2288 74.6254Z" fill="#FFDCC9"/>
</svg>
