<svg width="120" height="120" viewBox="0 0 120 120" fill="none" xmlns="http://www.w3.org/2000/svg">
<g clip-path="url(#clip0)">
<path d="M5.42902 51.5839L1.19639 54.0656L2.44213 59.0054L35.0978 71.6092C35.0978 71.6092 36.3619 73.1959 37.5075 73.657C38.6532 74.1181 39.5278 74.3334 40.6639 73.8494C41.4673 73.5071 42.3383 72.3674 42.3383 72.3674L49.296 75.1676C49.296 75.1676 50.0893 74.5356 50.3199 73.9627C50.5504 73.3899 50.4161 72.3845 50.4161 72.3845L43.4584 69.5843C43.4584 69.5843 43.6197 68.1589 43.2775 67.3556C42.7934 66.2195 42.0134 65.7689 40.8678 65.3078C39.7221 64.8467 37.7113 65.1154 37.7113 65.1154L5.42902 51.5839Z" fill="white"/>
<circle r="2.5" transform="matrix(-0.373361 0.927686 0.927686 0.373361 39.1876 69.4824)" fill="#284DD1"/>
<path d="M47.9223 70.0844L53.7355 65.4446C53.7355 65.4446 54.6214 67.0291 55.3421 67.8774C56.0628 68.7258 57.4266 69.7892 57.4266 69.7892L51.6134 74.429L46.1128 75.2817C46.1128 75.2817 43.2923 74.4191 43.0012 72.9221C42.7511 71.6364 44.3618 69.8564 44.3618 69.8564L47.9223 70.0844Z" fill="#FFDCC9"/>
<path d="M66.8623 86.6436L67.4616 77.6081C67.4616 77.6081 64.1171 77.8545 61.967 77.8524C59.8169 77.8502 56.4555 77.7172 56.4555 77.7172L56.8721 87.0877C56.8721 87.0877 59.9488 87.952 61.9116 87.8647C63.8745 87.7774 66.8623 86.6436 66.8623 86.6436Z" fill="#284DD1"/>
<path d="M65.2196 94.7245L65.8855 87.1875C65.8855 87.1875 63.5202 87.7931 61.9116 87.8647C60.303 87.9362 57.8934 87.5428 57.8934 87.5428L58.726 95.0132C58.726 95.0132 59.8046 95.9662 61.7674 95.879C63.7303 95.7917 65.2196 94.7245 65.2196 94.7245Z" fill="#FFDCC9"/>
<path d="M62.3558 97.8548C64.3186 97.7675 65.8079 96.7003 65.8079 96.7003C65.8079 96.7003 66.2824 96.1153 66.263 95.6791C66.2436 95.2429 65.7191 94.7023 65.7191 94.7023C65.7191 94.7023 63.8755 95.7852 62.267 95.8568C60.6584 95.9283 58.2265 95.0354 58.2265 95.0354C58.2265 95.0354 57.752 95.6204 57.7714 96.0566C57.7908 96.4928 58.3153 97.0334 58.3153 97.0334C58.3153 97.0334 60.3929 97.942 62.3558 97.8548Z" fill="white"/>
<path d="M62.0001 102C65 102 65 102 66 101.5C67 101 66.5 98.5 66.5 98.5L65.8079 96.7003C65.8079 96.7003 63.4648 97.8055 61.8563 97.877C60.2477 97.9485 58.3153 97.0334 58.3153 97.0334C58.3153 97.0334 52.3656 98.2989 51.3888 98.8428C50.412 99.3867 49.5 101 51 102L62 102L62.0001 102Z" fill="black"/>
<path d="M66.8623 86.6436L67.4616 77.6081C67.4616 77.6081 64.1171 77.8545 61.967 77.8524C59.8169 77.8502 56.4555 77.7172 56.4555 77.7172L56.8721 87.0877C56.8721 87.0877 59.9488 87.952 61.9116 87.8647C63.8745 87.7774 66.8623 86.6436 66.8623 86.6436Z" fill="#284DD1"/>
<path d="M65.2196 94.7245L65.8855 87.1875C65.8855 87.1875 63.5202 87.7931 61.9116 87.8647C60.303 87.9362 57.8934 87.5428 57.8934 87.5428L58.726 95.0132C58.726 95.0132 59.8046 95.9662 61.7674 95.879C63.7303 95.7917 65.2196 94.7245 65.2196 94.7245Z" fill="#FFDCC9"/>
<path d="M62.3558 97.8548C64.3186 97.7675 65.8079 96.7003 65.8079 96.7003C65.8079 96.7003 66.2824 96.1153 66.263 95.6791C66.2436 95.2429 65.7191 94.7023 65.7191 94.7023C65.7191 94.7023 63.8755 95.7852 62.267 95.8568C60.6584 95.9283 58.2265 95.0354 58.2265 95.0354C58.2265 95.0354 57.752 95.6204 57.7714 96.0566C57.7908 96.4928 58.3153 97.0334 58.3153 97.0334C58.3153 97.0334 60.3929 97.942 62.3558 97.8548Z" fill="white"/>
<path d="M62.0001 102C65 102 65 102 66 101.5C67 101 66.5 98.5 66.5 98.5L65.8079 96.7003C65.8079 96.7003 63.4648 97.8055 61.8563 97.877C60.2477 97.9485 58.3153 97.0334 58.3153 97.0334C58.3153 97.0334 52.3656 98.2989 51.3888 98.8428C50.412 99.3867 49.5 101 51 102L62 102L62.0001 102Z" fill="black"/>
<path d="M81 28C81 28 69.4804 22 61 22C52.5196 22 41 28 41 28L39 56C39 56 53.2815 59 61 59C68.7185 59 83 56 83 56L81 28Z" fill="white"/>
<path d="M55.9847 43.2314C55.474 50.393 47.8651 55.6678 38.5 55L40.5 29C49.8651 29.6678 56.4954 36.0699 55.9847 43.2314Z" fill="#FFDCC9"/>
<path d="M56 20V28H64V20C64 20 61.7465 18 60 18C58.2535 18 56 20 56 20Z" fill="white"/>
<path d="M61 75.5C69.5915 75.5 83 72.5 83 72.5L82 78C82 78 69.671 81 61 81C52.329 81 40 78 40 78L39 72.5C39 72.5 52.4085 75.5 61 75.5Z" fill="#284DD1"/>
<ellipse rx="1.5" ry="2.5" transform="matrix(-1 0 0 1 46.5 43.5)" fill="black"/>
<path d="M61 59C69.5915 59 83 56 83 56V72.5C83 72.5 69.671 75.5 61 75.5C52.329 75.5 39 72.5 39 72.5V56C39 56 52.4085 59 61 59Z" fill="#40BDCE"/>
<path d="M82.5 79C91 79 97 70.0457 97 59C97 47.9543 91 39 82.5 39C74 39 68 48 68 59C68 70 74 79 82.5 79Z" fill="#65E959"/>
<path d="M97 60C97 71.0457 90.5 79 82.5 79C74.5 79 68 71 68 60C68 60 73 61 82.5 61C92 61 97 60 97 60Z" fill="#278C1E"/>
<path d="M51.5 65C51.5 62.6967 52.1716 60.3934 54.5147 58.636C58.5294 55.625 64.6811 55.1935 69.3083 57.3415L68.5 59.2134C64.7995 57.2299 59.6235 57.4841 56.3011 59.9758C54.4512 61.3632 53.5263 63.1816 53.5263 65H51.5Z" fill="#65E959"/>
<path d="M71.4853 71.364C66.799 74.8787 59.201 74.8787 54.5147 71.364C52.1716 69.6066 51.5 67.3033 51.5 65H53.5263C53.5263 66.8184 54.4512 68.6368 56.3011 70.0242C60.0008 72.799 65.9992 72.799 69.6989 70.0242C70.0509 69.7602 70.3884 69.4806 70.7042 69.1884L72 70.9534C71.8352 71.0933 71.6636 71.2302 71.4853 71.364Z" fill="#65E959"/>
<path d="M54.5147 71.364C59.201 74.8787 66.799 74.8787 71.4853 71.364C71.6636 71.2302 71.8352 71.0933 72 70.9534L70.7042 69.1885C70.3884 69.4807 70.0509 69.7602 69.6989 70.0242C65.9992 72.799 60.0008 72.799 56.3011 70.0242C54.4512 68.6368 53.5263 66.8184 53.5263 65C53.5263 63.1816 54.4512 61.3632 56.3011 59.9758H53.1126C51.89 61.4895 51.5 63.2447 51.5 65C51.5 67.3033 52.1716 69.6066 54.5147 71.364Z" fill="#278C1E"/>
<path d="M58.3763 70.3705L55.1775 62.1892L64.2906 60.7924L66.2395 65.9637C66.2395 65.9637 66.0029 67.527 63.2176 69.0244C60.4324 70.5218 58.3763 70.3705 58.3763 70.3705Z" fill="#40BDCE"/>
<path d="M62.2098 77.1252L59.4675 70.2113C59.4675 70.2113 61.2415 69.8262 62.2632 69.3843C63.2849 68.9424 64.6999 67.9481 64.6999 67.9481L67.4421 74.862L69.268 79.8996C69.268 79.8996 68.3465 81.9945 67.1324 82.486C66.0315 82.9317 64.0968 82.2994 64.0968 82.2994L62.2098 77.1252Z" fill="#FFDCC9"/>
</g>
<defs>
<clipPath id="clip0">
<rect width="120" height="120" fill="white" transform="matrix(-1 0 0 1 120 0)"/>
</clipPath>
</defs>
</svg>
