<svg width="94" height="86" viewBox="0 0 94 86" fill="none" xmlns="http://www.w3.org/2000/svg">
<g clip-path="url(#clip0)">
<path d="M14.9757 71.7997L13.5983 76.5088L17.8933 79.2487L50.3004 66.0188C50.3004 66.0188 52.3086 66.3062 53.4585 65.8559C54.6084 65.4055 55.3925 64.9622 55.8872 63.8306C56.2369 63.0305 56.0889 61.6037 56.0889 61.6037L63.0723 58.8685C63.0723 58.8685 63.2161 57.8644 62.9909 57.2894C62.7657 56.7145 61.9783 56.0751 61.9783 56.0751L54.9948 58.8103C54.9948 58.8103 54.1344 57.6625 53.3343 57.3128C52.2027 56.8181 51.3261 57.0253 50.1762 57.4757C49.0263 57.9261 47.7475 59.5009 47.7475 59.5009L14.9757 71.7997Z" fill="white"/>
<circle r="2.5" transform="matrix(0.364694 0.931127 0.931127 -0.364694 51.8173 61.6658)" fill="#284DD1"/>
<path d="M55.8066 57.7469L50.0293 53.0623C50.0293 53.0623 51.3873 51.8576 52.0616 50.9719C52.7359 50.0862 53.4825 48.5263 53.4825 48.5263L59.2598 53.2109L61.2708 58.4012C61.2708 58.4012 61.0324 61.341 59.6325 61.946C58.4301 62.4656 56.3465 61.2735 56.3465 61.2735L55.8066 57.7469Z" fill="#FFDCC9"/>
<path d="M49.8689 53.4371L42.6268 48.4653L49.3817 42.1906L53.8988 45.3742C53.8988 45.3742 54.5812 46.8005 53.1181 49.6039C51.6549 52.4073 49.8689 53.4371 49.8689 53.4371Z" fill="#40BDCE"/>
<path d="M72.2638 54.9428L65.2568 49.2066C65.2568 49.2066 63.5148 52.0722 62.2642 53.8212C61.0135 55.5701 58.9528 58.229 58.9528 58.229L66.8225 63.3328C66.8225 63.3328 69.313 61.3304 70.3821 59.6819C71.4512 58.0335 72.2638 54.9428 72.2638 54.9428Z" fill="#284DD1"/>
<path d="M77.8875 60.9738L72.1391 56.0538C72.1391 56.0538 71.2582 58.331 70.3821 59.6819C69.506 61.0329 67.7861 62.7659 67.7861 62.7659L74.3507 66.4273C74.3507 66.4273 75.753 66.1029 76.8221 64.4544C77.8912 62.8059 77.8875 60.9738 77.8875 60.9738Z" fill="#FFDCC9"/>
<path d="M78.7721 65.1232C79.8412 63.4747 79.8376 61.6425 79.8376 61.6425C79.8376 61.6425 79.637 60.9165 79.2706 60.6789C78.9043 60.4413 78.1596 60.5543 78.1596 60.5543C78.1596 60.5543 77.9703 62.684 77.0941 64.0349C76.218 65.3858 74.0786 66.8468 74.0786 66.8468C74.0786 66.8468 74.2792 67.5728 74.6456 67.8104C75.0119 68.048 75.7566 67.935 75.7566 67.935C75.7566 67.935 77.703 66.7716 78.7721 65.1232Z" fill="white"/>
<path d="M81.9398 67.8204C83.6823 65.3785 83.6823 65.3785 83.8561 64.274C84.03 63.1696 81.7045 62.1245 81.7045 62.1245L79.8376 61.6425C79.8376 61.6425 79.3762 64.1917 78.5001 65.5426C77.6239 66.8936 75.7566 67.935 75.7566 67.935C75.7566 67.935 73.3309 73.5132 73.2062 74.6243C73.0816 75.7353 73.8651 77.4148 75.5503 76.7746L81.9397 67.8205L81.9398 67.8204Z" fill="black"/>
<path d="M39.8614 68.5837L45.8409 61.7832C45.8409 61.7832 43.0385 59.9413 41.3347 58.6298C39.6309 57.3183 37.0463 55.1652 37.0463 55.1652L31.6683 62.8501C31.6683 62.8501 33.5817 65.4097 35.1915 66.5362C36.8013 67.6627 39.8614 68.5837 39.8614 68.5837Z" fill="#284DD1"/>
<path d="M33.6359 73.9914L38.7554 68.4199C38.7554 68.4199 36.5107 67.4594 35.1915 66.5362C33.8722 65.613 32.2009 63.8331 32.2009 63.8331L28.3104 70.2646C28.3104 70.2646 28.5852 71.6774 30.195 72.804C31.8047 73.9305 33.6359 73.9914 33.6359 73.9914Z" fill="#FFDCC9"/>
<path d="M29.4579 74.7292C31.0677 75.8558 32.8989 75.9167 32.8989 75.9167C32.8989 75.9167 33.6315 75.7418 33.8819 75.384C34.1322 75.0263 34.0456 74.2781 34.0456 74.2781C34.0456 74.2781 31.9239 74.0138 30.6046 73.0906C29.2854 72.1674 27.9008 69.9779 27.9008 69.9779C27.9008 69.9779 27.1681 70.1528 26.9178 70.5105C26.6674 70.8683 26.7541 71.6165 26.7541 71.6165C26.7541 71.6165 27.8482 73.6027 29.4579 74.7292Z" fill="white"/>
<path d="M26.6507 77.7999C29.0297 79.6273 29.0298 79.6274 30.1274 79.84C31.225 80.0527 32.3514 77.7655 32.3514 77.7655L32.8989 75.9167C32.8989 75.9167 30.3675 75.3658 29.0483 74.4426C27.7291 73.5194 26.7541 71.6165 26.7541 71.6165C26.7541 71.6165 21.2649 68.9957 20.1589 68.832C19.0529 68.6683 17.3469 69.3921 17.9273 71.0989L26.6506 77.7998L26.6507 77.7999Z" fill="black"/>
<path d="M53.9886 3.5499C53.9886 3.5499 41.0599 2.30445 33.1976 5.48268C25.3353 8.66091 16.9039 18.5409 16.9039 18.5409L25.5433 45.2497C25.5433 45.2497 39.9083 42.6787 47.0642 39.786C54.2202 36.8933 66.3365 28.7596 66.3365 28.7596L53.9886 3.5499Z" fill="white"/>
<path d="M36.5048 27.0463C38.7153 33.8773 33.6378 41.6193 24.705 44.5099L16.8151 19.6554C25.7479 16.7647 34.2943 20.2154 36.5048 27.0463Z" fill="#FFDCC9"/>
<path d="M27.8124 5.50232L30.8106 12.9192L38.2276 9.92106L35.2294 2.50413C35.2294 2.50413 32.3905 1.49446 30.7714 2.14899C29.1522 2.80353 27.8124 5.50232 27.8124 5.50232Z" fill="white"/>
<path d="M53.248 55.0834C61.2133 51.8635 72.5202 44.057 72.5202 44.057L73.6544 49.531C73.6544 49.531 63.3483 56.9329 55.3093 60.1825C47.2702 63.4322 34.7155 65.2714 34.7155 65.2714L31.7271 60.5471C31.7271 60.5471 45.2826 58.3033 53.248 55.0834Z" fill="#284DD1"/>
<ellipse rx="1.5" ry="2.5" transform="matrix(-0.927116 0.374774 0.374774 0.927116 27.812 30.8499)" fill="black"/>
<path d="M47.0642 39.786C55.0296 36.5661 66.3365 28.7596 66.3365 28.7596L72.5202 44.057C72.5202 44.057 61.2871 51.8337 53.248 55.0834C45.2089 58.3331 31.7271 60.5471 31.7271 60.5471L25.5433 45.2497C25.5433 45.2497 39.0989 43.0059 47.0642 39.786Z" fill="#40BDCE"/>
<path d="M74.4927 50.2707C82.3732 47.0851 84.58 36.5348 80.4404 26.2941C76.3008 16.0535 67.3822 10.0004 59.5017 13.186C51.6212 16.3716 49.4315 26.9643 53.554 37.1626C57.6765 47.3608 66.6122 53.4562 74.4927 50.2707Z" fill="#65E959"/>
<path d="M80.8152 27.2212C84.9548 37.4619 81.9096 47.2725 74.4927 50.2707C67.0757 53.2689 58.0513 48.288 53.9288 38.0897C53.9288 38.0897 58.9391 37.1429 67.7467 33.5826C76.5543 30.0222 80.8152 27.2212 80.8152 27.2212Z" fill="#278C1E"/>
<path d="M40.5052 48.909C39.642 46.7736 39.4014 44.3865 40.9152 41.8791C43.5088 37.5829 49.0504 34.8773 54.1454 35.1347L54.0975 37.173C49.9234 36.7209 45.2198 38.8964 43.0735 42.4517C41.8784 44.4313 41.7024 46.4638 42.3839 48.1496L40.5052 48.909Z" fill="#65E959"/>
<path d="M61.419 47.3192C58.3914 52.3341 51.3472 55.1816 45.6853 53.6793C42.8543 52.9282 41.3685 51.0445 40.5052 48.909L42.3839 48.1496C43.0654 49.8355 44.6044 51.1747 46.8393 51.7677C51.3093 52.9537 56.8705 50.7057 59.2607 46.7466C59.488 46.3699 59.6962 45.9842 59.8795 45.595L61.7423 46.7457C61.6419 46.9371 61.5342 47.1283 61.419 47.3192Z" fill="#65E959"/>
<path d="M45.6853 53.6793C51.3473 55.1816 58.3915 52.3341 61.419 47.3192C61.5342 47.1283 61.642 46.9371 61.7423 46.7457L59.8795 45.595C59.6962 45.9842 59.4881 46.3699 59.2607 46.7466C56.8705 50.7057 51.3093 52.9537 46.8394 51.7677C44.6044 51.1747 43.0654 49.8355 42.3839 48.1496C41.7024 46.4638 41.8784 44.4313 43.0735 42.4517L40.1174 43.6467C39.5512 45.5082 39.8474 47.2817 40.5053 48.909C41.3685 51.0445 42.8543 52.9282 45.6853 53.6793Z" fill="#278C1E"/>
<path d="M38.354 46.8073L45.9402 42.3784L48.7335 51.1646L43.927 53.8919C43.927 53.8919 42.3459 53.9006 40.4347 51.3813C38.5234 48.8619 38.354 46.8073 38.354 46.8073Z" fill="#40BDCE"/>
<path d="M32.2756 51.6419L38.6805 47.8606C38.6805 47.8606 39.3361 49.5534 39.9311 50.4942C40.5262 51.435 41.7279 52.6786 41.7279 52.6786L35.3229 56.46L30.6294 59.045C30.6294 59.045 28.417 58.4596 27.7431 57.3364C27.132 56.318 27.4567 54.3086 27.4567 54.3086L32.2756 51.6419Z" fill="#FFDCC9"/>
</g>
<defs>
<clipPath id="clip0">
<rect width="94" height="86" fill="white" transform="matrix(-1 0 0 1 94 0)"/>
</clipPath>
</defs>
</svg>
