<svg width="94" height="86" viewBox="0 0 94 86" fill="none" xmlns="http://www.w3.org/2000/svg">
<g clip-path="url(#clip0)">
<path d="M6.83298 34.0565L2.20007 35.672L2.46617 40.7596L32.065 59.4454C32.065 59.4454 32.998 61.2467 34.0328 61.9208C35.0675 62.5949 35.8839 62.9755 37.0923 62.7205C37.9467 62.5402 39.0218 61.5906 39.0218 61.5906L45.306 65.6845C45.306 65.6845 46.2066 65.218 46.5437 64.7006C46.8807 64.1832 46.9435 63.1708 46.9435 63.1708L40.6594 59.0769C40.6594 59.0769 41.0935 57.7098 40.9132 56.8553C40.6582 55.647 39.9802 55.054 38.9454 54.3799C37.9107 53.7058 35.8859 53.5802 35.8859 53.5802L6.83298 34.0565Z" fill="white"/>
<circle r="2.5" transform="matrix(-0.545851 0.837882 0.837882 0.545851 36.4891 58.1504)" fill="#284DD1"/>
<path d="M41.9965 59.1196L42.4518 51.6957C42.4518 51.6957 44.2214 52.1008 45.334 52.1349C46.4466 52.1689 48.15 51.8701 48.15 51.8701L47.6947 59.294L44.6394 63.9468C44.6394 63.9468 42.1083 65.461 40.8025 64.6733C39.6808 63.9968 39.4402 61.6083 39.4402 61.6083L41.9965 59.1196Z" fill="#FFDCC9"/>
<path d="M53.8623 69.6436L54.4616 60.6081C54.4616 60.6081 51.1171 60.8545 48.967 60.8524C46.8169 60.8502 43.4555 60.7172 43.4555 60.7172L43.8721 70.0877C43.8721 70.0877 46.9488 70.952 48.9116 70.8647C50.8745 70.7774 53.8623 69.6436 53.8623 69.6436Z" fill="#284DD1"/>
<path d="M52.2196 77.7245L52.8855 70.1875C52.8855 70.1875 50.5202 70.7931 48.9116 70.8647C47.303 70.9362 44.8934 70.5428 44.8934 70.5428L45.726 78.0132C45.726 78.0132 46.8046 78.9662 48.7674 78.879C50.7303 78.7917 52.2196 77.7245 52.2196 77.7245Z" fill="#FFDCC9"/>
<path d="M49.3558 80.8548C51.3186 80.7675 52.8079 79.7003 52.8079 79.7003C52.8079 79.7003 53.2824 79.1153 53.263 78.6791C53.2436 78.2429 52.7191 77.7023 52.7191 77.7023C52.7191 77.7023 50.8755 78.7852 49.267 78.8568C47.6584 78.9283 45.2265 78.0354 45.2265 78.0354C45.2265 78.0354 44.752 78.6204 44.7714 79.0566C44.7908 79.4928 45.3153 80.0334 45.3153 80.0334C45.3153 80.0334 47.3929 80.942 49.3558 80.8548Z" fill="white"/>
<path d="M49.0001 85C52 85 52 85 53 84.5C54 84 53.5 81.5 53.5 81.5L52.8079 79.7003C52.8079 79.7003 50.4648 80.8055 48.8563 80.877C47.2477 80.9485 45.3153 80.0334 45.3153 80.0334C45.3153 80.0334 39.3656 81.2989 38.3888 81.8428C37.412 82.3867 36.5 84 38 85L49 85L49.0001 85Z" fill="black"/>
<path d="M53.8623 69.6436L54.4616 60.6081C54.4616 60.6081 51.1171 60.8545 48.967 60.8524C46.8169 60.8502 43.4555 60.7172 43.4555 60.7172L43.8721 70.0877C43.8721 70.0877 46.9488 70.952 48.9116 70.8647C50.8745 70.7774 53.8623 69.6436 53.8623 69.6436Z" fill="#284DD1"/>
<path d="M52.2196 77.7245L52.8855 70.1875C52.8855 70.1875 50.5202 70.7931 48.9116 70.8647C47.303 70.9362 44.8934 70.5428 44.8934 70.5428L45.726 78.0132C45.726 78.0132 46.8046 78.9662 48.7674 78.879C50.7303 78.7917 52.2196 77.7245 52.2196 77.7245Z" fill="#FFDCC9"/>
<path d="M49.3558 80.8548C51.3186 80.7675 52.8079 79.7003 52.8079 79.7003C52.8079 79.7003 53.2824 79.1153 53.263 78.6791C53.2436 78.2429 52.7191 77.7023 52.7191 77.7023C52.7191 77.7023 50.8755 78.7852 49.267 78.8568C47.6584 78.9283 45.2265 78.0354 45.2265 78.0354C45.2265 78.0354 44.752 78.6204 44.7714 79.0566C44.7908 79.4928 45.3153 80.0334 45.3153 80.0334C45.3153 80.0334 47.3929 80.942 49.3558 80.8548Z" fill="white"/>
<path d="M49.0001 85C52 85 52 85 53 84.5C54 84 53.5 81.5 53.5 81.5L52.8079 79.7003C52.8079 79.7003 50.4648 80.8055 48.8563 80.877C47.2477 80.9485 45.3153 80.0334 45.3153 80.0334C45.3153 80.0334 39.3656 81.2989 38.3888 81.8428C37.412 82.3867 36.5 84 38 85L49 85L49.0001 85Z" fill="black"/>
<path d="M68 11C68 11 56.4804 5 48 5C39.5196 5 28 11 28 11L26 39C26 39 40.2815 42 48 42C55.7185 42 70 39 70 39L68 11Z" fill="white"/>
<path d="M42.9847 26.2314C42.474 33.393 34.8651 38.6678 25.5 38L27.5 12C36.8651 12.6678 43.4954 19.0699 42.9847 26.2314Z" fill="#FFDCC9"/>
<path d="M43 3V11H51V3C51 3 48.7465 1 47 1C45.2535 1 43 3 43 3Z" fill="white"/>
<path d="M48 58.5C56.5915 58.5 70 55.5 70 55.5L69 61C69 61 56.671 64 48 64C39.329 64 27 61 27 61L26 55.5C26 55.5 39.4085 58.5 48 58.5Z" fill="#284DD1"/>
<ellipse rx="1.5" ry="2.5" transform="matrix(-1 0 0 1 33.5 26.5)" fill="black"/>
<path d="M48 42C56.5915 42 70 39 70 39V55.5C70 55.5 56.671 58.5 48 58.5C39.329 58.5 26 55.5 26 55.5V39C26 39 39.4085 42 48 42Z" fill="#40BDCE"/>
<path d="M69.5 62C78 62 84 53.0457 84 42C84 30.9543 78 22 69.5 22C61 22 55 31 55 42C55 53 61 62 69.5 62Z" fill="#65E959"/>
<path d="M84 43C84 54.0457 77.5 62 69.5 62C61.5 62 55 54 55 43C55 43 60 44 69.5 44C79 44 84 43 84 43Z" fill="#278C1E"/>
<path d="M38.5 48C38.5 45.6967 39.1716 43.3934 41.5147 41.636C45.5294 38.625 51.6811 38.1935 56.3083 40.3415L55.5 42.2134C51.7995 40.2299 46.6235 40.4841 43.3011 42.9758C41.4512 44.3632 40.5263 46.1816 40.5263 48H38.5Z" fill="#65E959"/>
<path d="M58.4853 54.364C53.799 57.8787 46.201 57.8787 41.5147 54.364C39.1716 52.6066 38.5 50.3033 38.5 48H40.5263C40.5263 49.8184 41.4512 51.6368 43.3011 53.0242C47.0008 55.799 52.9992 55.799 56.6989 53.0242C57.0509 52.7602 57.3884 52.4806 57.7042 52.1884L59 53.9534C58.8352 54.0933 58.6636 54.2302 58.4853 54.364Z" fill="#65E959"/>
<path d="M41.5147 54.364C46.201 57.8787 53.799 57.8787 58.4853 54.364C58.6636 54.2302 58.8352 54.0933 59 53.9534L57.7042 52.1885C57.3884 52.4807 57.0509 52.7602 56.6989 53.0242C52.9992 55.799 47.0008 55.799 43.3011 53.0242C41.4512 51.6368 40.5263 49.8184 40.5263 48C40.5263 46.1816 41.4512 44.3632 43.3011 42.9758H40.1126C38.89 44.4895 38.5 46.2447 38.5 48C38.5 50.3033 39.1716 52.6066 41.5147 54.364Z" fill="#278C1E"/>
<path d="M43.3292 51.9698L43.1669 43.1869L52.1987 45.0379L52.2328 50.5641C52.2328 50.5641 51.4685 51.9483 48.3368 52.3866C45.2051 52.8249 43.3292 51.9698 43.3292 51.9698Z" fill="#40BDCE"/>
<path d="M44.5815 59.6348L44.4078 52.199C44.4078 52.199 46.2053 52.4531 47.3168 52.393C48.4283 52.3329 50.1004 51.8912 50.1004 51.8912L50.2741 59.327L50.2391 64.6853C50.2391 64.6853 48.6483 66.3304 47.339 66.3703C46.1518 66.4065 44.5566 65.1423 44.5566 65.1423L44.5815 59.6348Z" fill="#FFDCC9"/>
</g>
<defs>
<clipPath id="clip0">
<rect width="94" height="86" fill="white" transform="matrix(-1 0 0 1 94 0)"/>
</clipPath>
</defs>
</svg>
