<svg width="111" height="106" viewBox="0 0 111 106" fill="none" xmlns="http://www.w3.org/2000/svg">
<g transform="translate(111 0) scale(-1 1)">
<path d="M39.0196 92.6054C38.9572 89.9275 39.2816 86.4186 40.0475 86.4371C41.0879 86.4623 38.9263 88.5994 42.4818 89.3488C46.0373 90.0981 46.4556 87.0365 46.4556 87.0365C46.4556 87.0365 55.8945 90.3356 55.9207 91.4583C55.9605 93.1694 55.2999 94.7609 53.6374 95.1601C50.1549 95.9963 48.3754 95.5507 44.3124 95.4529C41.738 95.3909 39.0809 95.2372 39.0196 92.6054Z" fill="#444444" stroke="black"/>
<path d="M40.0556 85.7555L40.5389 75.521L46.7339 75.6702L46.3189 87.1319C46.3189 87.1319 45.941 89.6847 43.7607 89.6322C40.626 89.5567 40.0556 85.7555 40.0556 85.7555Z" fill="#FFDCC9" stroke="black"/>
<path d="M38.7753 75.7556L39.063 69.1137L48.7981 69.3483L48.0784 76.4259L38.7753 75.7556Z" fill="#284DD1" stroke="black"/>
<path d="M45.456 77.0415C54.6301 79.147 59.4586 72.2287 59.4586 72.2287C59.4586 72.2287 54.6301 68.8604 42.0761 64.047C37.8954 62.4441 21.7966 55.8654 21.7966 55.8654C21.7966 55.8654 20.0461 59.7156 21.3137 63.0845C22.7624 66.9346 30.4588 72.4549 32.902 73.6725C34.8334 74.6351 41.8952 76.2242 45.456 77.0415Z" fill="#2040B3" stroke="black"/>
<path d="M38.4508 64.4488C32.1263 62.0297 22.9816 56.5563 22.9816 56.5563L26.8489 48.6638L36.9039 39.9821L46.9589 43.9283C46.9589 43.9283 50.6906 45.487 53.1466 46.2961C56.7021 47.4674 58.6911 48.6638 62.4281 48.6638C67.6669 48.6638 74.4268 47.2025 74.4268 47.2025L70.0812 56.5563C70.0812 56.5563 66.7886 61.9696 64.7699 65.4909C62.8385 68.8599 59.9414 71.7475 59.9414 71.7475C59.9414 71.7475 54.1472 70.3037 50.2845 68.8599C46.4217 67.416 43.7346 66.4698 38.4508 64.4488Z" fill="#40BDCE" stroke="black"/>
<path d="M30.7164 29.7219C30.7164 29.7219 34.5837 23.2106 39.998 16.3047C45.4122 9.39873 53.9203 9.20142 53.9203 9.20142C53.9203 9.20142 55.9858 4.49819 58.561 2.88742C60.4359 1.71477 61.971 0.385855 63.9753 1.30892C66.072 2.27455 66.4027 4.48887 66.2957 6.83367C66.229 8.29411 66.2957 9.99062 66.2957 9.99062L71.7099 13.1477L77.8976 16.3047C77.8976 16.3047 78.932 13.9558 80.218 13.1477C81.2784 12.4812 82.1089 12.0291 83.3118 12.3584C84.5147 12.6877 85.1892 13.4991 85.6322 14.7262C86.2926 16.5553 84.0853 19.4617 84.0853 19.4617C84.0853 19.4617 85.6322 23.234 85.6322 25.7757C85.6322 28.3173 84.8923 29.6851 84.0853 32.0897C81.8861 38.6425 74.8037 47.0854 74.8037 47.0854L68.616 48.6639C68.616 48.6639 61.9063 48.9 57.7876 47.8746C53.9728 46.9249 52.0124 45.7321 48.506 43.9284C44.3889 41.8106 38.451 37.6144 38.451 37.6144C38.451 37.6144 38.6101 34.4943 37.6776 32.8789C36.1677 30.2633 30.7164 29.7219 30.7164 29.7219Z" fill="#FFFEFE"/>
<path d="M53.9203 9.20142V13.1477M53.9203 9.20142C53.9203 9.20142 55.9858 4.49819 58.561 2.88742C60.4359 1.71477 61.971 0.385855 63.9753 1.30892C66.072 2.27455 66.4027 4.48887 66.2957 6.83367C66.229 8.29411 66.2957 9.99062 66.2957 9.99062M53.9203 9.20142C53.9203 9.20142 45.4122 9.39873 39.998 16.3047C34.5837 23.2106 30.7164 29.7219 30.7164 29.7219C30.7164 29.7219 36.1677 30.2633 37.6776 32.8789C38.6101 34.4943 38.451 37.6144 38.451 37.6144C38.451 37.6144 44.3889 41.8106 48.506 43.9284C52.0124 45.7321 53.9728 46.9249 57.7876 47.8747C61.9063 48.9 68.616 48.6639 68.616 48.6639L74.8037 47.0854C74.8037 47.0854 81.8861 38.6425 84.0853 32.0897C84.8923 29.6851 85.6322 28.3173 85.6322 25.7757C85.6322 23.234 84.0853 19.4617 84.0853 19.4617M63.9753 13.9369L66.2957 9.99062M66.2957 9.99062L71.7099 13.1477L77.8976 16.3047M77.8976 16.3047C77.8976 16.3047 78.932 13.9558 80.218 13.1477C81.2784 12.4812 82.1089 12.0291 83.3118 12.3584C84.5147 12.6877 85.1892 13.4991 85.6322 14.7262C86.2926 16.5553 84.0853 19.4617 84.0853 19.4617M77.8976 16.3047L84.0853 19.4617" stroke="black"/>
<path d="M61.655 21.5201C64.7489 20.6212 72.3897 20.9623 74.0304 21.5203C76.3508 22.3096 80.2181 23.8881 82.5397 27.3539C84.8612 30.8197 84.0866 32.0894 84.0866 32.0894L80.9927 38.4034L77.1254 43.9281C77.1254 43.9281 75.2389 44.4342 74.031 44.4086C70.3945 44.3317 67.8428 44.4086 64.7498 43.6194C61.6569 42.8301 57.0143 41.2516 54.695 38.4034C52.3758 35.5551 51.916 31.6089 53.1481 28.1431C54.3803 24.6774 58.5612 22.419 61.655 21.5201Z" fill="#FFDCC9" stroke="black"/>
<path d="M81.3643 45.508L51.4414 57.9199L53.42 62.4851L84.5514 54.7129L93.8305 45.8861L81.3643 45.508Z" fill="#FF2B2B" stroke="black"/>
<path d="M47.7495 57.5532L48.0314 52.6853L51.1253 56.6315L54.2191 65.3133L51.8988 69.2595L50.8434 67.0242V62.6034L44.1641 65.3133C44.1641 65.3133 42.8951 67.46 41.1864 67.0241C39.4778 66.5882 38.2266 64.7524 38.8661 63.0778C39.4566 61.5313 41.8438 62.1563 41.8438 62.1563L48.934 59.0589C48.3141 58.2316 47.7495 57.5532 47.7495 57.5532Z" fill="#A80202"/>
<path d="M50.8434 62.6034V67.0242L51.8988 69.2595L54.2191 65.3133L51.1253 56.6315L48.0314 52.6853L47.7495 57.5532C47.7495 57.5532 48.3141 58.2316 48.934 59.0589M50.8434 62.6034L44.1641 65.3133C44.1641 65.3133 42.8951 67.46 41.1864 67.0241C39.4778 66.5882 38.2266 64.7524 38.8661 63.0778C39.4566 61.5313 41.8438 62.1563 41.8438 62.1563L48.934 59.0589M50.8434 62.6034C50.8434 62.6034 49.9485 60.4128 48.934 59.0589" stroke="black"/>
<path d="M61.9537 57.1118L83.6107 50.0085" stroke="black" stroke-linecap="round"/>
<path d="M48.0003 60.1339C46.5926 57.4903 45.319 52.5418 45.319 52.5418L40.6663 53.6443L43.2089 61.5542C43.2089 61.5542 42.7475 63.1042 43.0034 64.0358C43.4955 65.8279 45.1584 66.8943 46.9767 66.5528C48.0544 66.3504 48.2989 66.5417 49.0157 65.6936C49.811 64.7527 50.2408 62.7823 50.2408 62.7823C50.2408 62.7823 48.6395 61.3343 48.0003 60.1339Z" fill="#FFDCC9" stroke="black"/>
<path d="M44.9732 46.7212L46.9046 52.0152L38.2927 54.0141L37.2476 52.0152" stroke="black"/>
<path d="M65.9558 33.4403C65.5955 34.2576 65.1033 34.8941 64.6223 35.2702C64.1219 35.6613 63.7471 35.6952 63.534 35.5974C63.3209 35.4996 63.0971 35.1909 63.0519 34.5494C63.0085 33.9327 63.1487 33.1346 63.509 32.3172C63.8693 31.4999 64.3614 30.8633 64.8425 30.4873C65.3428 30.0962 65.7176 30.0623 65.9307 30.1601C66.1439 30.2579 66.3677 30.5665 66.4128 31.2081C66.4562 31.8248 66.3161 32.6229 65.9558 33.4403Z" fill="black" stroke="black"/>
<path d="M77.6663 36.0551C77.3399 36.7954 76.9065 37.3751 76.4918 37.7204C76.0499 38.0884 75.764 38.0936 75.6425 38.0378C75.5209 37.982 75.335 37.7602 75.3117 37.1788C75.2898 36.633 75.4272 35.9175 75.7535 35.1772C76.0798 34.4369 76.5133 33.8572 76.928 33.5119C77.3699 33.1439 77.6558 33.1387 77.7773 33.1945C77.8989 33.2503 78.0848 33.4721 78.1081 34.0535C78.13 34.5993 77.9926 35.3148 77.6663 36.0551Z" fill="#010101" stroke="black"/>
<path d="M18.416 26.9888C21.7959 26.5076 26.0161 27.2198 30.4871 28.4327C32.2613 28.9139 35.2291 30.1207 36.902 32.0894C38.3544 33.7987 38.449 37.614 38.449 37.614L46.1836 43.1387V45.5065C46.1836 45.5065 43.5472 43.4423 41.5429 43.1387C39.079 42.7656 36.8647 42.6955 35.3552 44.7172C33.8907 46.6786 35.3552 51.0312 35.3552 51.0312L32.2613 55.7667C32.2613 55.7667 26.1194 56.8889 22.2062 56.5562C16.3616 56.0592 12.1605 56.2569 7.51056 52.6097C4.05668 49.9007 2.39586 47.5736 2.09614 43.1389C1.82597 39.1416 2.68368 36.7521 5.19017 33.6678C7.69666 30.5834 12.526 27.8275 18.416 26.9888Z" fill="#65E959" stroke="black"/>
<path d="M34.5834 46.7763C34.5834 46.7763 2.87148 38.0946 2.09802 41.2516C1.51789 43.6193 3.40877 49.0617 6.73879 52.3011C10.6129 56.0697 14.5636 55.6857 19.8876 56.2473C24.7043 56.7554 32.263 55.4581 32.263 55.4581L35.3569 49.9333L34.5834 46.7763Z" fill="#278C1E" stroke="black"/>
<path d="M27.9119 93.7707C27.9118 90.8831 28.3552 87.0889 29.1909 87.089C30.3262 87.0891 27.9119 89.451 31.7747 90.1671C35.6375 90.8831 36.1719 87.569 36.1719 87.569C36.1719 87.569 46.3934 90.883 46.3934 92.0937C46.3934 93.9387 45.6317 95.673 43.8065 96.1469C39.9831 97.1396 38.0516 96.7051 33.6182 96.7052C30.809 96.7052 27.912 96.6086 27.9119 93.7707Z" fill="#444444" stroke="black"/>
<path d="M29.2172 86.3531L30.0049 75.2985L36.7647 75.2985L36.0204 87.6752C36.0204 87.6752 35.5429 90.4394 33.1638 90.4394C29.7434 90.4394 29.2172 86.3531 29.2172 86.3531Z" fill="#FFDCC9" stroke="black"/>
<path d="M28.0735 75.5978L28.5564 68.4245L39.1791 68.4245L38.2134 76.0792L28.0735 75.5978Z" fill="#284DD1" stroke="black"/>
</g>
</svg>
