<svg width="94" height="86" viewBox="0 0 94 86" fill="none" xmlns="http://www.w3.org/2000/svg">
<g clip-path="url(#clip0)">
<path d="M8.02654 11.8076L3.14364 11.3271L1.24754 16.0556L20.2561 45.4482C20.2561 45.4482 20.3459 47.4748 21.0017 48.5213C21.6574 49.5678 22.2384 50.2562 23.4421 50.5324C24.2932 50.7278 25.6678 50.3178 25.6678 50.3178L29.6503 56.6731C29.6503 56.6731 30.6636 56.6282 31.1868 56.3003C31.7101 55.9724 32.1924 55.0801 32.1924 55.0801L28.2099 48.7248C28.2099 48.7248 29.1783 47.6666 29.3737 46.8155C29.65 45.6118 29.2838 44.7888 28.6281 43.7423C27.9723 42.6959 26.1877 41.7312 26.1877 41.7312L8.02654 11.8076Z" fill="white"/>
<circle r="2.5" transform="matrix(-0.847374 0.530996 0.530996 0.847374 24.8149 46.1318)" fill="#284DD1"/>
<path d="M31.7437 50.2343L38.5398 47.2119C38.5398 47.2119 38.9971 48.9687 39.4804 49.9715C39.9636 50.9743 41.0149 52.3474 41.0149 52.3474L34.2188 55.3698L28.6811 54.8067C28.6811 54.8067 26.1696 53.2602 26.2657 51.7381C26.3483 50.4309 28.3561 49.1151 28.3561 49.1151L31.7437 50.2343Z" fill="#FFDCC9"/>
<path d="M38.2786 46.8989L45.9953 42.7014L48.5216 51.5681L43.6349 54.1488C43.6349 54.1488 42.0542 54.1097 40.22 51.5337C38.3858 48.9577 38.2786 46.8989 38.2786 46.8989Z" fill="#40BDCE"/>
<path d="M72.2638 54.9428L65.2568 49.2067C65.2568 49.2067 63.5148 52.0723 62.2642 53.8212C61.0135 55.5702 58.9528 58.2291 58.9528 58.2291L66.8225 63.3329C66.8225 63.3329 69.313 61.3304 70.3821 59.682C71.4512 58.0335 72.2638 54.9428 72.2638 54.9428Z" fill="#284DD1"/>
<path d="M77.8875 60.9738L72.1391 56.0539C72.1391 56.0539 71.2582 58.331 70.3821 59.682C69.506 61.0329 67.7861 62.7659 67.7861 62.7659L74.3507 66.4274C74.3507 66.4274 75.753 66.1029 76.8221 64.4545C77.8912 62.806 77.8875 60.9738 77.8875 60.9738Z" fill="#FFDCC9"/>
<path d="M78.7721 65.1232C79.8412 63.4747 79.8376 61.6426 79.8376 61.6426C79.8376 61.6426 79.637 60.9165 79.2706 60.6789C78.9043 60.4414 78.1596 60.5543 78.1596 60.5543C78.1596 60.5543 77.9703 62.684 77.0941 64.0349C76.218 65.3859 74.0786 66.8468 74.0786 66.8468C74.0786 66.8468 74.2792 67.5729 74.6456 67.8105C75.0119 68.048 75.7566 67.9351 75.7566 67.9351C75.7566 67.9351 77.703 66.7717 78.7721 65.1232Z" fill="white"/>
<path d="M81.9398 67.8205C83.6823 65.3785 83.6823 65.3785 83.8561 64.2741C84.03 63.1697 81.7045 62.1245 81.7045 62.1245L79.8376 61.6426C79.8376 61.6426 79.3762 64.1918 78.5001 65.5427C77.6239 66.8937 75.7566 67.9351 75.7566 67.9351C75.7566 67.9351 73.3309 73.5132 73.2062 74.6243C73.0816 75.7354 73.8651 77.4148 75.5503 76.7747L81.9397 67.8206L81.9398 67.8205Z" fill="black"/>
<path d="M39.8614 68.5837L45.8409 61.7833C45.8409 61.7833 43.0385 59.9413 41.3347 58.6298C39.6309 57.3183 37.0463 55.1652 37.0463 55.1652L31.6683 62.8501C31.6683 62.8501 33.5817 65.4097 35.1915 66.5362C36.8013 67.6627 39.8614 68.5837 39.8614 68.5837Z" fill="#284DD1"/>
<path d="M33.6359 73.9914L38.7554 68.42C38.7554 68.42 36.5107 67.4594 35.1915 66.5362C33.8722 65.613 32.2009 63.8331 32.2009 63.8331L28.3104 70.2646C28.3104 70.2646 28.5852 71.6775 30.195 72.804C31.8047 73.9305 33.6359 73.9914 33.6359 73.9914Z" fill="#FFDCC9"/>
<path d="M29.4579 74.7293C31.0677 75.8558 32.8989 75.9167 32.8989 75.9167C32.8989 75.9167 33.6315 75.7418 33.8819 75.3841C34.1322 75.0264 34.0456 74.2781 34.0456 74.2781C34.0456 74.2781 31.9239 74.0139 30.6046 73.0907C29.2854 72.1675 27.9008 69.9779 27.9008 69.9779C27.9008 69.9779 27.1681 70.1529 26.9178 70.5106C26.6674 70.8683 26.7541 71.6166 26.7541 71.6166C26.7541 71.6166 27.8482 73.6028 29.4579 74.7293Z" fill="white"/>
<path d="M26.6507 77.7999C29.0297 79.6274 29.0298 79.6274 30.1274 79.84C31.225 80.0527 32.3514 77.7655 32.3514 77.7655L32.8989 75.9167C32.8989 75.9167 30.3675 75.3658 29.0483 74.4426C27.7291 73.5194 26.7541 71.6165 26.7541 71.6165C26.7541 71.6165 21.2649 68.9957 20.1589 68.832C19.0529 68.6683 17.3469 69.3921 17.9273 71.0989L26.6506 77.7998L26.6507 77.7999Z" fill="black"/>
<path d="M53.9886 3.54992C53.9886 3.54992 41.0599 2.30447 33.1976 5.48269C25.3353 8.66092 16.9039 18.5409 16.9039 18.5409L25.5433 45.2497C25.5433 45.2497 39.9083 42.6787 47.0642 39.786C54.2202 36.8933 66.3365 28.7596 66.3365 28.7596L53.9886 3.54992Z" fill="white"/>
<path d="M36.5048 27.0463C38.7153 33.8773 33.6378 41.6193 24.705 44.5099L16.8151 19.6554C25.7479 16.7647 34.2943 20.2154 36.5048 27.0463Z" fill="#FFDCC9"/>
<path d="M27.8124 5.50233L30.8106 12.9193L38.2276 9.92107L35.2294 2.50414C35.2294 2.50414 32.3905 1.49447 30.7714 2.14901C29.1522 2.80354 27.8124 5.50233 27.8124 5.50233Z" fill="white"/>
<path d="M53.248 55.0834C61.2133 51.8635 72.5202 44.057 72.5202 44.057L73.6544 49.531C73.6544 49.531 63.3483 56.9329 55.3093 60.1825C47.2702 63.4322 34.7155 65.2714 34.7155 65.2714L31.7271 60.5471C31.7271 60.5471 45.2826 58.3033 53.248 55.0834Z" fill="#284DD1"/>
<ellipse rx="1.5" ry="2.5" transform="matrix(-0.927116 0.374774 0.374774 0.927116 27.812 30.8499)" fill="black"/>
<path d="M47.0642 39.786C55.0296 36.5661 66.3365 28.7596 66.3365 28.7596L72.5202 44.0571C72.5202 44.0571 61.2871 51.8338 53.248 55.0834C45.2089 58.3331 31.7271 60.5471 31.7271 60.5471L25.5433 45.2497C25.5433 45.2497 39.0989 43.0059 47.0642 39.786Z" fill="#40BDCE"/>
<path d="M74.4927 50.2707C82.3732 47.0851 84.58 36.5348 80.4404 26.2942C76.3008 16.0535 67.3822 10.0005 59.5017 13.1861C51.6212 16.3716 49.4315 26.9643 53.554 37.1626C57.6765 47.3609 66.6122 53.4563 74.4927 50.2707Z" fill="#65E959"/>
<path d="M80.8152 27.2213C84.9548 37.4619 81.9096 47.2725 74.4927 50.2707C67.0757 53.2689 58.0513 48.288 53.9288 38.0897C53.9288 38.0897 58.9391 37.143 67.7467 33.5826C76.5543 30.0223 80.8152 27.2213 80.8152 27.2213Z" fill="#278C1E"/>
<path d="M40.5052 48.909C39.642 46.7736 39.4014 44.3865 40.9152 41.8791C43.5088 37.5829 49.0504 34.8773 54.1454 35.1347L54.0975 37.173C49.9234 36.721 45.2198 38.8964 43.0735 42.4517C41.8784 44.4313 41.7024 46.4638 42.3839 48.1496L40.5052 48.909Z" fill="#65E959"/>
<path d="M61.419 47.3192C58.3914 52.3341 51.3472 55.1816 45.6853 53.6793C42.8543 52.9282 41.3685 51.0445 40.5052 48.909L42.3839 48.1496C43.0654 49.8355 44.6044 51.1747 46.8393 51.7677C51.3093 52.9537 56.8705 50.7057 59.2607 46.7466C59.488 46.3699 59.6962 45.9843 59.8795 45.595L61.7423 46.7457C61.6419 46.9371 61.5342 47.1284 61.419 47.3192Z" fill="#65E959"/>
<path d="M45.6853 53.6794C51.3473 55.1816 58.3915 52.3341 61.419 47.3192C61.5342 47.1284 61.642 46.9371 61.7423 46.7457L59.8795 45.595C59.6962 45.9843 59.4881 46.37 59.2607 46.7466C56.8705 50.7057 51.3093 52.9537 46.8394 51.7677C44.6044 51.1747 43.0654 49.8355 42.3839 48.1497C41.7024 46.4638 41.8784 44.4313 43.0735 42.4517L40.1174 43.6467C39.5512 45.5082 39.8474 47.2817 40.5053 48.9091C41.3685 51.0445 42.8543 52.9282 45.6853 53.6794Z" fill="#278C1E"/>
<path d="M50.1633 50.1572L42.8468 45.2956L49.506 38.9194L54.0708 42.0343C54.0708 42.0343 54.7747 43.4501 53.3541 46.2753C51.9335 49.1006 50.1633 50.1572 50.1633 50.1572Z" fill="#40BDCE"/>
<path d="M57.1802 53.4864L50.9652 49.4003C50.9652 49.4003 52.1965 48.0664 52.7793 47.118C53.362 46.1695 53.9496 44.543 53.9496 44.543L60.1646 48.6291L64.552 51.7053C64.552 51.7053 65.0004 53.9494 64.2886 55.049C63.6431 56.0461 61.696 56.6392 61.696 56.6392L57.1802 53.4864Z" fill="#FFDCC9"/>
</g>
<defs>
<clipPath id="clip0">
<rect width="94" height="86" fill="white" transform="matrix(-1 0 0 1 94 0)"/>
</clipPath>
</defs>
</svg>
