<svg width="120" height="120" viewBox="0 0 120 120" fill="none" xmlns="http://www.w3.org/2000/svg">
<path d="M53.1377 86.6436L52.5384 77.6081C52.5384 77.6081 55.8829 77.8545 58.033 77.8523C60.1831 77.8502 63.5444 77.7172 63.5444 77.7172L63.1278 87.0877C63.1278 87.0877 60.0512 87.9519 58.0884 87.8647C56.1255 87.7774 53.1377 86.6436 53.1377 86.6436Z" fill="#284DD1"/>
<path d="M54.7804 94.7245L54.1145 87.1875C54.1145 87.1875 56.4798 87.7931 58.0884 87.8647C59.697 87.9362 62.1066 87.5428 62.1066 87.5428L61.274 95.0132C61.274 95.0132 60.1954 95.9662 58.2326 95.879C56.2697 95.7917 54.7804 94.7245 54.7804 94.7245Z" fill="#FFDCC9"/>
<path d="M57.6442 97.8548C55.6814 97.7675 54.1921 96.7003 54.1921 96.7003C54.1921 96.7003 53.7176 96.1153 53.737 95.6791C53.7564 95.2429 54.2809 94.7023 54.2809 94.7023C54.2809 94.7023 56.1245 95.7852 57.7331 95.8568C59.3416 95.9283 61.7735 95.0354 61.7735 95.0354C61.7735 95.0354 62.248 95.6204 62.2286 96.0566C62.2092 96.4928 61.6847 97.0334 61.6847 97.0334C61.6847 97.0334 59.6071 97.942 57.6442 97.8548Z" fill="white"/>
<path d="M57.9999 102C55 102 55 102 54 101.5C53 101 53.5 98.5 53.5 98.5L54.1921 96.7003C54.1921 96.7003 56.5351 97.8055 58.1437 97.877C59.7523 97.9485 61.6847 97.0334 61.6847 97.0334C61.6847 97.0334 67.6344 98.2989 68.6112 98.8428C69.588 99.3868 70.5 101 69 102L58 102L57.9999 102Z" fill="black"/>
<path d="M53.1377 86.6436L52.5384 77.6081C52.5384 77.6081 55.8829 77.8545 58.033 77.8523C60.1831 77.8502 63.5444 77.7172 63.5444 77.7172L63.1278 87.0877C63.1278 87.0877 60.0512 87.9519 58.0884 87.8647C56.1255 87.7774 53.1377 86.6436 53.1377 86.6436Z" fill="#284DD1"/>
<path d="M54.7804 94.7245L54.1145 87.1875C54.1145 87.1875 56.4798 87.7931 58.0884 87.8647C59.697 87.9362 62.1066 87.5428 62.1066 87.5428L61.274 95.0132C61.274 95.0132 60.1954 95.9662 58.2326 95.879C56.2697 95.7917 54.7804 94.7245 54.7804 94.7245Z" fill="#FFDCC9"/>
<path d="M57.6442 97.8548C55.6814 97.7675 54.1921 96.7003 54.1921 96.7003C54.1921 96.7003 53.7176 96.1153 53.737 95.6791C53.7564 95.2429 54.2809 94.7023 54.2809 94.7023C54.2809 94.7023 56.1245 95.7852 57.7331 95.8568C59.3416 95.9283 61.7735 95.0354 61.7735 95.0354C61.7735 95.0354 62.248 95.6204 62.2286 96.0566C62.2092 96.4928 61.6847 97.0334 61.6847 97.0334C61.6847 97.0334 59.6071 97.942 57.6442 97.8548Z" fill="white"/>
<path d="M57.9999 102C55 102 55 102 54 101.5C53 101 53.5 98.5 53.5 98.5L54.1921 96.7003C54.1921 96.7003 56.5351 97.8055 58.1437 97.877C59.7523 97.9485 61.6847 97.0334 61.6847 97.0334C61.6847 97.0334 67.6344 98.2989 68.6112 98.8428C69.588 99.3868 70.5 101 69 102L58 102L57.9999 102Z" fill="black"/>
<path d="M39 28C39 28 50.5196 22 59 22C67.4804 22 79 28 79 28L81 56C81 56 66.7185 59 59 59C51.2815 59 37 56 37 56L39 28Z" fill="white"/>
<path d="M64.0153 43.2314C64.526 50.393 72.1349 55.6678 81.5 55L79.5 29C70.1349 29.6678 63.5046 36.0699 64.0153 43.2314Z" fill="#FFDCC9"/>
<path d="M64 20V28H56V20C56 20 58.2535 18 60 18C61.7465 18 64 20 64 20Z" fill="white"/>
<path d="M59 75.5C50.4085 75.5 37 72.5 37 72.5L38 78C38 78 50.329 81 59 81C67.671 81 80 78 80 78L81 72.5C81 72.5 67.5915 75.5 59 75.5Z" fill="#284DD1"/>
<ellipse cx="73.5" cy="43.5" rx="1.5" ry="2.5" fill="black"/>
<path d="M59 59C50.4085 59 37 56 37 56V72.5C37 72.5 50.329 75.5 59 75.5C67.671 75.5 81 72.5 81 72.5V56C81 56 67.5915 59 59 59Z" fill="#40BDCE"/>
<path d="M37.5 79C29 79 23 70.0457 23 59C23 47.9543 29 39 37.5 39C46 39 52 48 52 59C52 70 46 79 37.5 79Z" fill="#65E959"/>
<path d="M23 60C23 71.0457 29.5 79 37.5 79C45.5 79 52 71 52 60C52 60 47 61 37.5 61C28 61 23 60 23 60Z" fill="#278C1E"/>
<path d="M68.5 65C68.5 62.6967 67.8284 60.3934 65.4853 58.636C61.4706 55.625 55.3189 55.1935 50.6917 57.3415L51.5 59.2134C55.2005 57.2299 60.3765 57.4841 63.6989 59.9758C65.5488 61.3632 66.4737 63.1816 66.4737 65H68.5Z" fill="#65E959"/>
<path d="M48.5147 71.364C53.201 74.8787 60.799 74.8787 65.4853 71.364C67.8284 69.6066 68.5 67.3033 68.5 65H66.4737C66.4737 66.8184 65.5488 68.6368 63.6989 70.0242C59.9992 72.799 54.0008 72.799 50.3011 70.0242C49.9491 69.7602 49.6116 69.4806 49.2958 69.1884L48 70.9534C48.1648 71.0933 48.3364 71.2302 48.5147 71.364Z" fill="#65E959"/>
<path d="M65.4853 71.364C60.799 74.8787 53.201 74.8787 48.5147 71.364C48.3364 71.2302 48.1648 71.0933 48 70.9534L49.2958 69.1885C49.6116 69.4807 49.9491 69.7602 50.3011 70.0242C54.0008 72.799 59.9992 72.799 63.6989 70.0242C65.5488 68.6368 66.4737 66.8184 66.4737 65C66.4737 63.1816 65.5488 61.3632 63.6989 59.9758H66.8874C68.11 61.4895 68.5 63.2447 68.5 65C68.5 67.3033 67.8284 69.6066 65.4853 71.364Z" fill="#278C1E"/>
<path d="M94.6792 75.9574L97.1523 80.195L93.6453 83.8903L59.0034 78.8714C59.0034 78.8714 57.124 79.6349 55.8994 79.4753C54.6748 79.3157 53.8068 79.0748 53.0538 78.096C52.5213 77.4039 52.3206 75.9835 52.3206 75.9835L44.8835 75.0143C44.8835 75.0143 44.5017 74.0746 44.5815 73.4623C44.6613 72.85 45.2712 72.0395 45.2712 72.0395L52.7083 73.0087C52.7083 73.0087 53.2663 71.6872 53.9584 71.1547C54.9372 70.4016 55.8379 70.3912 57.0625 70.5508C58.2871 70.7104 59.9081 71.9301 59.9081 71.9301L94.6792 75.9574Z" fill="white"/>
<circle cx="56.4809" cy="75.013" r="2.5" transform="rotate(97.4252 56.4809 75.013)" fill="#284DD1"/>
<path d="M50.8289 72.2847L57.055 68.2155C57.055 68.2155 55.8273 66.8783 55.2471 65.9283C54.667 64.9782 54.0838 63.3501 54.0838 63.3501L47.8577 67.4193L45.3264 72.3767C45.3264 72.3767 45.263 75.3255 46.5936 76.0705C47.7365 76.7104 49.9312 75.7376 49.9312 75.7376L50.8289 72.2847Z" fill="#FFDCC9"/>
</svg>
