<svg width="94" height="86" viewBox="0 0 94 86" fill="none" xmlns="http://www.w3.org/2000/svg">
<g clip-path="url(#clip0)">
<path d="M31.1407 63.2178L33.9713 54.6162C33.9713 54.6162 36.9797 56.0981 38.9739 56.9019C40.9681 57.7057 44.1343 58.8421 44.1343 58.8421L40.2362 67.3736C40.2362 67.3736 37.0599 67.0218 35.2729 66.2052C33.4858 65.3887 31.1407 63.2178 31.1407 63.2178Z" fill="#284DD1"/>
<path d="M29.6351 71.3254L31.8424 64.0881C31.8424 64.0881 33.8083 65.5361 35.2729 66.2052C36.7374 66.8744 39.1189 67.4128 39.1189 67.4128L35.5472 74.0266C35.5472 74.0266 34.1901 74.506 32.403 73.6895C30.6159 72.8729 29.6351 71.3254 29.6351 71.3254Z" fill="#FFDCC9"/>
<path d="M31.1171 75.3008C29.33 74.4842 28.3492 72.9367 28.3492 72.9367C28.3492 72.9367 28.1285 72.2165 28.31 71.8193C28.4914 71.4222 29.1804 71.1176 29.1804 71.1176C29.1804 71.1176 30.4837 72.8125 31.9482 73.4817C33.4128 74.1508 36.002 74.2344 36.002 74.2344C36.002 74.2344 36.2227 74.9546 36.0412 75.3518C35.8598 75.7489 35.1709 76.0535 35.1709 76.0535C35.1709 76.0535 32.9041 76.1173 31.1171 75.3008Z" fill="white"/>
<path d="M29.8933 79.2772C27.112 78.1529 27.112 78.1529 26.3723 77.3145C25.6326 76.4762 27.0331 74.3458 27.0331 74.3458L28.3492 72.9367C28.3492 72.9367 30.1073 74.8394 31.5718 75.5085C33.0364 76.1777 35.1709 76.0535 35.1709 76.0535C35.1709 76.0535 40.2126 79.4566 40.9144 80.3269C41.6162 81.1973 41.8571 83.0347 40.0917 83.3997L29.8934 79.2772L29.8933 79.2772Z" fill="black"/>
<path d="M37.4558 69.617L36.9563 60.5754C36.9563 60.5754 40.2978 60.8587 42.4478 60.8803C44.5978 60.9019 47.9604 60.806 47.9604 60.806L47.4405 70.1713C47.4405 70.1713 44.3545 71.0015 42.3927 70.8926C40.431 70.7837 37.4558 69.617 37.4558 69.617Z" fill="#284DD1"/>
<path d="M39.0093 77.7155L38.4266 70.1716C38.4266 70.1716 40.785 70.8033 42.3927 70.8926C44.0004 70.9819 46.4143 70.6151 46.4143 70.6151L45.4993 78.0759C45.4993 78.0759 44.4102 79.0169 42.4485 78.908C40.4867 78.7991 39.0093 77.7155 39.0093 77.7155Z" fill="#FFDCC9"/>
<path d="M41.8384 80.8772C39.8766 80.7683 38.3992 79.6847 38.3992 79.6847C38.3992 79.6847 37.9312 79.0945 37.9554 78.6585C37.9796 78.2226 38.5101 77.6878 38.5101 77.6878C38.5101 77.6878 40.3416 78.791 41.9492 78.8803C43.5569 78.9695 45.9985 78.1036 45.9985 78.1036C45.9985 78.1036 46.4665 78.6938 46.4423 79.1297C46.4181 79.5657 45.8877 80.1005 45.8877 80.1005C45.8877 80.1005 43.8001 80.9861 41.8384 80.8772Z" fill="white"/>
<path d="M42.1483 85.0261C39.1486 84.993 39.1486 84.993 38.1542 84.482C37.1597 83.971 37.6873 81.4767 37.6873 81.4767L38.3992 79.6847C38.3992 79.6847 40.7299 80.8157 42.3376 80.9049C43.9453 80.9942 45.8877 80.1005 45.8877 80.1005C45.8877 80.1005 51.823 81.4315 52.7937 81.9862C53.7645 82.5409 54.6587 84.1641 53.1477 85.1475L42.1484 85.0261L42.1483 85.0261Z" fill="black"/>
<path d="M40.0114 3.5499C40.0114 3.5499 52.9401 2.30445 60.8024 5.48268C68.6647 8.66091 77.0961 18.5409 77.0961 18.5409L68.4566 45.2497C68.4566 45.2497 54.0917 42.6787 46.9358 39.786C39.7798 36.8933 27.6635 28.7596 27.6635 28.7596L40.0114 3.5499Z" fill="white"/>
<path d="M57.4952 27.0463C55.2847 33.8773 60.3622 41.6193 69.295 44.5099L77.1849 19.6554C68.2521 16.7647 59.7056 20.2154 57.4952 27.0463Z" fill="#FFDCC9"/>
<path d="M66.1875 5.50232L63.1893 12.9192L55.7724 9.92106L58.7706 2.50413C58.7706 2.50413 61.6094 1.49446 63.2286 2.14899C64.8478 2.80353 66.1875 5.50232 66.1875 5.50232Z" fill="white"/>
<path d="M40.752 55.0834C32.7867 51.8635 21.4798 44.057 21.4798 44.057L20.3456 49.531C20.3456 49.531 30.6517 56.9329 38.6907 60.1825C46.7298 63.4322 59.2845 65.2714 59.2845 65.2714L62.2729 60.5471C62.2729 60.5471 48.7174 58.3033 40.752 55.0834Z" fill="#284DD1"/>
<ellipse cx="66.188" cy="30.8499" rx="1.5" ry="2.5" transform="rotate(22.0103 66.188 30.8499)" fill="black"/>
<path d="M46.9358 39.786C38.9704 36.5661 27.6635 28.7596 27.6635 28.7596L21.4798 44.057C21.4798 44.057 32.7129 51.8337 40.752 55.0834C48.7911 58.3331 62.2729 60.5471 62.2729 60.5471L68.4566 45.2497C68.4566 45.2497 54.9011 43.0059 46.9358 39.786Z" fill="#40BDCE"/>
<path d="M19.5073 50.2707C11.6268 47.0851 9.41994 36.5348 13.5596 26.2941C17.6992 16.0535 26.6178 10.0004 34.4982 13.186C42.3787 16.3716 44.5685 26.9643 40.446 37.1626C36.3234 47.3608 27.3878 53.4562 19.5073 50.2707Z" fill="#65E959"/>
<path d="M13.1848 27.2212C9.04516 37.4619 12.0904 47.2725 19.5073 50.2707C26.9242 53.2689 35.9487 48.288 40.0712 38.0897C40.0712 38.0897 35.0608 37.1429 26.2532 33.5826C17.4456 30.0222 13.1848 27.2212 13.1848 27.2212Z" fill="#278C1E"/>
<path d="M53.4947 48.909C54.3579 46.7736 54.5985 44.3865 53.0848 41.8791C50.4911 37.5829 44.9495 34.8773 39.8545 35.1347L39.9024 37.173C44.0766 36.7209 48.7801 38.8964 50.9265 42.4517C52.1215 44.4313 52.2976 46.4638 51.6161 48.1496L53.4947 48.909Z" fill="#65E959"/>
<path d="M32.581 47.3192C35.6085 52.3341 42.6527 55.1816 48.3147 53.6793C51.1457 52.9282 52.6315 51.0445 53.4947 48.909L51.6161 48.1496C50.9346 49.8355 49.3956 51.1747 47.1606 51.7677C42.6906 52.9537 37.1294 50.7057 34.7393 46.7466C34.5119 46.3699 34.3038 45.9842 34.1204 45.595L32.2577 46.7457C32.358 46.9371 32.4658 47.1283 32.581 47.3192Z" fill="#65E959"/>
<path d="M48.3147 53.6793C42.6527 55.1816 35.6085 52.3341 32.581 47.3192C32.4658 47.1283 32.358 46.9371 32.2577 46.7457L34.1204 45.595C34.3038 45.9842 34.5119 46.3699 34.7393 46.7466C37.1294 50.7057 42.6906 52.9537 47.1606 51.7677C49.3956 51.1747 50.9346 49.8355 51.6161 48.1496C52.2976 46.4638 52.1215 44.4313 50.9265 42.4517L53.8826 43.6467C54.4488 45.5082 54.1525 47.2817 53.4947 48.909C52.6315 51.0445 51.1457 52.9282 48.3147 53.6793Z" fill="#278C1E"/>
<path d="M88.0794 47.8498L91.7692 51.0838L89.6158 55.7008L55.1713 61.9319C55.1713 61.9319 53.6312 63.2523 52.4192 63.4895C51.2073 63.7267 50.3077 63.7735 49.283 63.0842C48.5584 62.5969 47.9175 61.3135 47.9175 61.3135L40.5571 62.7539C40.5571 62.7539 39.897 61.9838 39.7784 61.3779C39.6598 60.7719 39.981 59.8098 39.981 59.8098L47.3414 58.3694C47.3414 58.3694 47.4513 56.9391 47.9387 56.2146C48.6279 55.1899 49.4788 54.8942 50.6908 54.657C51.9027 54.4198 53.827 55.0622 53.827 55.0622L88.0794 47.8498Z" fill="white"/>
<circle cx="51.555" cy="59.0733" r="2.5" transform="rotate(78.9275 51.555 59.0733)" fill="#284DD1"/>
<path d="M46.0857 57.9078L48.4459 50.8543C48.4459 50.8543 46.6535 50.5668 45.6092 50.1813C44.5649 49.7959 43.0976 48.8805 43.0976 48.8805L40.7374 55.9339L41.8264 61.3927C41.8264 61.3927 43.6055 63.7451 45.1114 63.5042C46.4048 63.2974 47.523 61.1732 47.523 61.1732L46.0857 57.9078Z" fill="#FFDCC9"/>
</g>
<defs>
<clipPath id="clip0">
<rect width="94" height="86" fill="white"/>
</clipPath>
</defs>
</svg>
