<svg width="120" height="120" viewBox="0 0 120 120" fill="none" xmlns="http://www.w3.org/2000/svg">
<g clip-path="url(#clip0)">
<path d="M53.1377 86.6436L52.5384 77.6081C52.5384 77.6081 55.8829 77.8545 58.033 77.8524C60.1831 77.8502 63.5444 77.7172 63.5444 77.7172L63.1278 87.0877C63.1278 87.0877 60.0512 87.952 58.0884 87.8647C56.1255 87.7774 53.1377 86.6436 53.1377 86.6436Z" fill="#284DD1"/>
<path d="M54.7804 94.7245L54.1145 87.1875C54.1145 87.1875 56.4798 87.7931 58.0884 87.8647C59.697 87.9362 62.1066 87.5428 62.1066 87.5428L61.274 95.0132C61.274 95.0132 60.1954 95.9662 58.2326 95.879C56.2697 95.7917 54.7804 94.7245 54.7804 94.7245Z" fill="#FFDCC9"/>
<path d="M57.6442 97.8548C55.6814 97.7675 54.1921 96.7003 54.1921 96.7003C54.1921 96.7003 53.7176 96.1153 53.737 95.6791C53.7564 95.2429 54.2809 94.7023 54.2809 94.7023C54.2809 94.7023 56.1245 95.7852 57.7331 95.8568C59.3416 95.9283 61.7735 95.0354 61.7735 95.0354C61.7735 95.0354 62.248 95.6204 62.2286 96.0566C62.2092 96.4928 61.6847 97.0334 61.6847 97.0334C61.6847 97.0334 59.6071 97.942 57.6442 97.8548Z" fill="white"/>
<path d="M57.9999 102C55 102 55 102 54 101.5C53 101 53.5 98.5 53.5 98.5L54.1921 96.7003C54.1921 96.7003 56.5351 97.8055 58.1437 97.877C59.7523 97.9485 61.6847 97.0334 61.6847 97.0334C61.6847 97.0334 67.6344 98.2989 68.6112 98.8428C69.588 99.3867 70.5 101 69 102L58 102L57.9999 102Z" fill="black"/>
<path d="M53.1377 86.6436L52.5384 77.6081C52.5384 77.6081 55.8829 77.8545 58.033 77.8524C60.1831 77.8502 63.5444 77.7172 63.5444 77.7172L63.1278 87.0877C63.1278 87.0877 60.0512 87.952 58.0884 87.8647C56.1255 87.7774 53.1377 86.6436 53.1377 86.6436Z" fill="#284DD1"/>
<path d="M54.7804 94.7245L54.1145 87.1875C54.1145 87.1875 56.4798 87.7931 58.0884 87.8647C59.697 87.9362 62.1066 87.5428 62.1066 87.5428L61.274 95.0132C61.274 95.0132 60.1954 95.9662 58.2326 95.879C56.2697 95.7917 54.7804 94.7245 54.7804 94.7245Z" fill="#FFDCC9"/>
<path d="M57.6442 97.8548C55.6814 97.7675 54.1921 96.7003 54.1921 96.7003C54.1921 96.7003 53.7176 96.1153 53.737 95.6791C53.7564 95.2429 54.2809 94.7023 54.2809 94.7023C54.2809 94.7023 56.1245 95.7852 57.7331 95.8568C59.3416 95.9283 61.7735 95.0354 61.7735 95.0354C61.7735 95.0354 62.248 95.6204 62.2286 96.0566C62.2092 96.4928 61.6847 97.0334 61.6847 97.0334C61.6847 97.0334 59.6071 97.942 57.6442 97.8548Z" fill="white"/>
<path d="M57.9999 102C55 102 55 102 54 101.5C53 101 53.5 98.5 53.5 98.5L54.1921 96.7003C54.1921 96.7003 56.5351 97.8055 58.1437 97.877C59.7523 97.9485 61.6847 97.0334 61.6847 97.0334C61.6847 97.0334 67.6344 98.2989 68.6112 98.8428C69.588 99.3867 70.5 101 69 102L58 102L57.9999 102Z" fill="black"/>
<path d="M39 28C39 28 50.5196 22 59 22C67.4804 22 79 28 79 28L81 56C81 56 66.7185 59 59 59C51.2815 59 37 56 37 56L39 28Z" fill="white"/>
<path d="M64.0153 43.2314C64.526 50.393 72.1349 55.6678 81.5 55L79.5 29C70.1349 29.6678 63.5046 36.0699 64.0153 43.2314Z" fill="#FFDCC9"/>
<path d="M64 20V28H56V20C56 20 58.2535 18 60 18C61.7465 18 64 20 64 20Z" fill="white"/>
<path d="M59 75.5C50.4085 75.5 37 72.5 37 72.5L38 78C38 78 50.329 81 59 81C67.671 81 80 78 80 78L81 72.5C81 72.5 67.5915 75.5 59 75.5Z" fill="#284DD1"/>
<ellipse cx="73.5" cy="43.5" rx="1.5" ry="2.5" fill="black"/>
<path d="M59 59C50.4085 59 37 56 37 56V72.5C37 72.5 50.329 75.5 59 75.5C67.671 75.5 81 72.5 81 72.5V56C81 56 67.5915 59 59 59Z" fill="#40BDCE"/>
<path d="M37.5 79C29 79 23 70.0457 23 59C23 47.9543 29 39 37.5 39C46 39 52 48 52 59C52 70 46 79 37.5 79Z" fill="#65E959"/>
<path d="M23 60C23 71.0457 29.5 79 37.5 79C45.5 79 52 71 52 60C52 60 47 61 37.5 61C28 61 23 60 23 60Z" fill="#278C1E"/>
<path d="M68.5 65C68.5 62.6967 67.8284 60.3934 65.4853 58.636C61.4706 55.625 55.3189 55.1935 50.6917 57.3415L51.5 59.2134C55.2005 57.2299 60.3765 57.4841 63.6989 59.9758C65.5488 61.3632 66.4737 63.1816 66.4737 65H68.5Z" fill="#65E959"/>
<path d="M48.5147 71.364C53.201 74.8787 60.799 74.8787 65.4853 71.364C67.8284 69.6066 68.5 67.3033 68.5 65H66.4737C66.4737 66.8184 65.5488 68.6368 63.6989 70.0242C59.9992 72.799 54.0008 72.799 50.3011 70.0242C49.9491 69.7602 49.6116 69.4806 49.2958 69.1884L48 70.9534C48.1648 71.0933 48.3364 71.2302 48.5147 71.364Z" fill="#65E959"/>
<path d="M65.4853 71.364C60.799 74.8787 53.201 74.8787 48.5147 71.364C48.3364 71.2302 48.1648 71.0933 48 70.9534L49.2958 69.1885C49.6116 69.4807 49.9491 69.7602 50.3011 70.0242C54.0008 72.799 59.9992 72.799 63.6989 70.0242C65.5488 68.6368 66.4737 66.8184 66.4737 65C66.4737 63.1816 65.5488 61.3632 63.6989 59.9758H66.8874C68.11 61.4895 68.5 63.2447 68.5 65C68.5 67.3033 67.8284 69.6066 65.4853 71.364Z" fill="#278C1E"/>
<path d="M114.571 51.5839L118.804 54.0656L117.558 59.0054L84.9022 71.6092C84.9022 71.6092 83.6381 73.1959 82.4925 73.657C81.3468 74.1181 80.4722 74.3334 79.3361 73.8494C78.5327 73.5071 77.6617 72.3674 77.6617 72.3674L70.704 75.1676C70.704 75.1676 69.9107 74.5356 69.6801 73.9627C69.4496 73.3899 69.5839 72.3845 69.5839 72.3845L76.5416 69.5843C76.5416 69.5843 76.3803 68.1589 76.7225 67.3556C77.2066 66.2195 77.9866 65.7689 79.1322 65.3078C80.2779 64.8467 82.2887 65.1154 82.2887 65.1154L114.571 51.5839Z" fill="white"/>
<circle cx="80.8124" cy="69.4824" r="2.5" transform="rotate(68.0769 80.8124 69.4824)" fill="#284DD1"/>
<path d="M72.0777 70.0844L66.2645 65.4446C66.2645 65.4446 65.3786 67.0291 64.6579 67.8774C63.9371 68.7258 62.5733 69.7892 62.5733 69.7892L68.3866 74.429L73.8872 75.2817C73.8872 75.2817 76.7077 74.4191 76.9988 72.9221C77.2489 71.6364 75.6382 69.8564 75.6382 69.8564L72.0777 70.0844Z" fill="#FFDCC9"/>
</g>
<defs>
<clipPath id="clip0">
<rect width="120" height="120" fill="white"/>
</clipPath>
</defs>
</svg>
