<svg width="120" height="120" viewBox="0 0 120 120" fill="none" xmlns="http://www.w3.org/2000/svg">
<path d="M55.646 46.8073L48.0598 42.3784L45.2665 51.1646L50.0729 53.8919C50.0729 53.8919 51.6541 53.9006 53.5653 51.3813C55.4766 48.8619 55.646 46.8073 55.646 46.8073Z" fill="#40BDCE"/>
<path d="M61.7244 51.6419L55.3195 47.8606C55.3195 47.8606 54.6639 49.5534 54.0689 50.4942C53.4738 51.435 52.2721 52.6786 52.2721 52.6786L58.6771 56.46L63.3706 59.045C63.3706 59.045 65.583 58.4596 66.2569 57.3364C66.868 56.318 66.5433 54.3086 66.5433 54.3086L61.7244 51.6419Z" fill="#FFDCC9"/>
<path d="M38.3751 71.6604L45.382 65.9243C45.382 65.9243 47.1241 68.7899 48.3747 70.5388C49.6253 72.2878 51.686 74.9467 51.686 74.9467L43.8163 80.0505C43.8163 80.0505 41.3258 78.048 40.2567 76.3996C39.1876 74.7511 38.3751 71.6604 38.3751 71.6604Z" fill="#284DD1"/>
<path d="M32.7513 77.6914L38.4997 72.7715C38.4997 72.7715 39.3806 75.0486 40.2567 76.3996C41.1329 77.7505 42.8527 79.4835 42.8527 79.4835L36.2881 83.145C36.2881 83.145 34.8858 82.8205 33.8168 81.1721C32.7477 79.5236 32.7513 77.6914 32.7513 77.6914Z" fill="#FFDCC9"/>
<path d="M31.8667 81.8408C30.7976 80.1923 30.8013 78.3602 30.8013 78.3602C30.8013 78.3602 31.0019 77.6341 31.3682 77.3965C31.7345 77.159 32.4793 77.2719 32.4793 77.2719C32.4793 77.2719 32.6686 79.4016 33.5447 80.7526C34.4208 82.1035 36.5602 83.5644 36.5602 83.5644C36.5602 83.5644 36.3596 84.2905 35.9933 84.5281C35.6269 84.7657 34.8822 84.6527 34.8822 84.6527C34.8822 84.6527 32.9358 83.4893 31.8667 81.8408Z" fill="white"/>
<path d="M28.699 84.5381C26.9566 82.0961 26.9565 82.0961 26.7827 80.9917C26.6089 79.8873 28.9343 78.8421 28.9343 78.8421L30.8013 78.3602C30.8013 78.3602 31.2626 80.9094 32.1388 82.2603C33.0149 83.6112 34.8822 84.6527 34.8822 84.6527C34.8822 84.6527 37.308 90.2308 37.4326 91.3419C37.5572 92.453 36.7738 94.1324 35.0885 93.4923L28.6991 84.5382L28.699 84.5381Z" fill="black"/>
<path d="M70.7775 85.3013L64.798 78.5009C64.798 78.5009 67.6004 76.6589 69.3042 75.3474C71.008 74.036 73.5926 71.8828 73.5926 71.8828L78.9706 79.5678C78.9706 79.5678 77.0571 82.1273 75.4474 83.2538C73.8376 84.3804 70.7775 85.3013 70.7775 85.3013Z" fill="#284DD1"/>
<path d="M77.0029 90.709L71.8834 85.1376C71.8834 85.1376 74.1281 84.177 75.4474 83.2538C76.7666 82.3306 78.4379 80.5508 78.4379 80.5508L82.3284 86.9822C82.3284 86.9822 82.0536 88.3951 80.4438 89.5216C78.8341 90.6481 77.0029 90.709 77.0029 90.709Z" fill="#FFDCC9"/>
<path d="M81.1809 91.4469C79.5711 92.5734 77.74 92.6343 77.74 92.6343C77.74 92.6343 77.0073 92.4594 76.7569 92.1017C76.5066 91.744 76.5932 90.9957 76.5932 90.9957C76.5932 90.9957 78.715 90.7315 80.0342 89.8083C81.3534 88.8851 82.7381 86.6955 82.7381 86.6955C82.7381 86.6955 83.4707 86.8705 83.7211 87.2282C83.9714 87.5859 83.8848 88.3342 83.8848 88.3342C83.8848 88.3342 82.7907 90.3204 81.1809 91.4469Z" fill="white"/>
<path d="M83.9881 94.5175C81.6091 96.345 81.6091 96.345 80.5115 96.5576C79.4138 96.7703 78.2874 94.4831 78.2874 94.4831L77.74 92.6343C77.74 92.6343 80.2713 92.0834 81.5905 91.1602C82.9098 90.237 83.8848 88.3342 83.8848 88.3342C83.8848 88.3342 89.374 85.7133 90.4799 85.5496C91.5859 85.3859 93.2919 86.1097 92.7116 87.8165L83.9882 94.5175L83.9881 94.5175Z" fill="black"/>
<path d="M56.6503 20.2675C56.6503 20.2675 69.579 19.0221 77.4413 22.2003C85.3036 25.3786 93.7349 35.2585 93.7349 35.2585L85.0955 61.9673C85.0955 61.9673 70.7306 59.3963 63.5746 56.5036C56.4187 53.6109 44.3024 45.4773 44.3024 45.4773L56.6503 20.2675Z" fill="white"/>
<path d="M74.134 43.7639C71.9236 50.5949 77.0011 58.337 85.9338 61.2276L93.8237 36.373C84.8909 33.4824 76.3445 36.933 74.134 43.7639Z" fill="#FFDCC9"/>
<path d="M82.8264 22.22L79.8282 29.6369L72.4113 26.6387L75.4095 19.2218C75.4095 19.2218 78.2483 18.2121 79.8675 18.8666C81.4867 19.5212 82.8264 22.22 82.8264 22.22Z" fill="white"/>
<path d="M57.3909 71.801C49.4255 68.5812 38.1186 60.7747 38.1186 60.7747L36.9845 66.2486C36.9845 66.2486 47.2905 73.6505 55.3296 76.9002C63.3687 80.1499 75.9234 81.9891 75.9234 81.9891L78.9118 77.2647C78.9118 77.2647 65.3562 75.0209 57.3909 71.801Z" fill="#284DD1"/>
<ellipse cx="82.8268" cy="47.5675" rx="1.5" ry="2.5" transform="rotate(22.0103 82.8268 47.5675)" fill="black"/>
<path d="M63.5746 56.5036C55.6093 53.2837 44.3024 45.4772 44.3024 45.4772L38.1186 60.7747C38.1186 60.7747 49.3518 68.5514 57.3909 71.801C65.4299 75.0507 78.9117 77.2647 78.9117 77.2647L85.0955 61.9673C85.0955 61.9673 71.54 59.7235 63.5746 56.5036Z" fill="#40BDCE"/>
<path d="M36.1462 66.9883C28.2657 63.8027 26.0588 53.2524 30.1984 43.0118C34.3381 32.7711 43.2566 26.7181 51.1371 29.9037C59.0176 33.0892 61.2073 43.6819 57.0848 53.8802C52.9623 64.0785 44.0266 70.1739 36.1462 66.9883Z" fill="#65E959"/>
<path d="M29.8237 43.9389C25.684 54.1795 28.7292 63.9901 36.1462 66.9883C43.5631 69.9865 52.5875 65.0056 56.71 54.8073C56.71 54.8073 51.6997 53.8606 42.8921 50.3002C34.0845 46.7399 29.8237 43.9389 29.8237 43.9389Z" fill="#278C1E"/>
<path d="M70.1336 65.6267C70.9968 63.4912 71.2374 61.1041 69.7236 58.5967C67.13 54.3005 61.5884 51.595 56.4934 51.8523L56.5413 53.8906C60.7154 53.4386 65.419 55.6141 67.5653 59.1693C68.7604 61.1489 68.9364 63.1814 68.255 64.8673L70.1336 65.6267Z" fill="#65E959"/>
<path d="M49.2199 64.0368C52.2474 69.0517 59.2916 71.8992 64.9535 70.397C67.7845 69.6458 69.2704 67.7621 70.1336 65.6267L68.255 64.8673C67.5735 66.5531 66.0345 67.8924 63.7995 68.4853C59.3295 69.6713 53.7683 67.4233 51.3782 63.4642C51.1508 63.0876 50.9426 62.7019 50.7593 62.3126L48.8965 63.4633C48.9969 63.6547 49.1046 63.846 49.2199 64.0368Z" fill="#65E959"/>
<path d="M64.9535 70.397C59.2916 71.8992 52.2474 69.0517 49.2199 64.0369C49.1046 63.846 48.9969 63.6547 48.8965 63.4633L50.7593 62.3126C50.9426 62.7019 51.1508 63.0876 51.3782 63.4642C53.7683 67.4233 59.3295 69.6713 63.7995 68.4854C66.0345 67.8924 67.5735 66.5531 68.255 64.8673C68.9364 63.1814 68.7604 61.1489 67.5653 59.1694L70.5215 60.3643C71.0877 62.2258 70.7914 63.9993 70.1336 65.6267C69.2704 67.7621 67.7845 69.6458 64.9535 70.397Z" fill="#278C1E"/>
<path d="M95.6631 88.5173L97.0406 93.2265L92.7456 95.9663L60.3385 82.7364C60.3385 82.7364 58.3303 83.0239 57.1804 82.5735C56.0305 82.1231 55.2463 81.6798 54.7517 80.5483C54.4019 79.7481 54.55 78.3213 54.55 78.3213L47.5665 75.5861C47.5665 75.5861 47.4228 74.582 47.648 74.0071C47.8732 73.4321 48.6606 72.7927 48.6606 72.7927L55.644 75.5279C55.644 75.5279 56.5044 74.3801 57.3046 74.0304C58.4361 73.5358 59.3127 73.743 60.4626 74.1933C61.6125 74.6437 62.8913 76.2186 62.8913 76.2186L95.6631 88.5173Z" fill="white"/>
<circle cx="58.8215" cy="78.3834" r="2.5" transform="rotate(111.389 58.8215 78.3834)" fill="#284DD1"/>
<path d="M54.8323 74.4645L60.6095 69.7799C60.6095 69.7799 59.2515 68.5753 58.5772 67.6896C57.9029 66.8038 57.1563 65.2439 57.1563 65.2439L51.3791 69.9285L49.368 75.1188C49.368 75.1188 49.6065 78.0586 51.0064 78.6636C52.2087 79.1833 54.2924 77.9912 54.2924 77.9912L54.8323 74.4645Z" fill="#FFDCC9"/>
<path d="M60.7699 70.1547L68.012 65.183L61.2572 58.9083L56.74 62.0918C56.74 62.0918 56.0576 63.5181 57.5208 66.3215C58.9839 69.1249 60.7699 70.1547 60.7699 70.1547Z" fill="#40BDCE"/>
</svg>
