<svg width="94" height="86" viewBox="0 0 94 86" fill="none" xmlns="http://www.w3.org/2000/svg">
<g clip-path="url(#clip0)">
<path d="M43.905 53.1572L51.2215 48.2956L44.5623 41.9194L39.9975 45.0343C39.9975 45.0343 39.2936 46.4501 40.7142 49.2753C42.1348 52.1005 43.905 53.1572 43.905 53.1572Z" fill="#40BDCE"/>
<path d="M36.8881 56.4864L43.1031 52.4003C43.1031 52.4003 41.8717 51.0664 41.289 50.118C40.7063 49.1695 40.1187 47.543 40.1187 47.543L33.9037 51.6291L29.5163 54.7052C29.5163 54.7052 29.0679 56.9494 29.7797 58.049C30.4251 59.046 32.3722 59.6391 32.3722 59.6391L36.8881 56.4864Z" fill="#FFDCC9"/>
<path d="M21.7362 54.9428L28.7432 49.2067C28.7432 49.2067 30.4852 52.0723 31.7358 53.8212C32.9865 55.5702 35.0472 58.2291 35.0472 58.2291L27.1775 63.3329C27.1775 63.3329 24.6869 61.3304 23.6179 59.682C22.5488 58.0335 21.7362 54.9428 21.7362 54.9428Z" fill="#284DD1"/>
<path d="M16.1125 60.9738L21.8609 56.0539C21.8609 56.0539 22.7417 58.331 23.6179 59.682C24.494 61.0329 26.2139 62.7659 26.2139 62.7659L19.6493 66.4274C19.6493 66.4274 18.247 66.1029 17.1779 64.4545C16.1088 62.806 16.1125 60.9738 16.1125 60.9738Z" fill="#FFDCC9"/>
<path d="M15.2278 65.1232C14.1588 63.4747 14.1624 61.6426 14.1624 61.6426C14.1624 61.6426 14.363 60.9165 14.7294 60.6789C15.0957 60.4414 15.8404 60.5543 15.8404 60.5543C15.8404 60.5543 16.0297 62.684 16.9059 64.0349C17.782 65.3859 19.9214 66.8468 19.9214 66.8468C19.9214 66.8468 19.7207 67.5729 19.3544 67.8105C18.9881 68.048 18.2434 67.9351 18.2434 67.9351C18.2434 67.9351 16.2969 66.7717 15.2278 65.1232Z" fill="white"/>
<path d="M12.0602 67.8205C10.3177 65.3785 10.3177 65.3785 10.1439 64.2741C9.97001 63.1697 12.2954 62.1245 12.2954 62.1245L14.1624 61.6426C14.1624 61.6426 14.6238 64.1918 15.4999 65.5427C16.376 66.8937 18.2433 67.9351 18.2433 67.9351C18.2433 67.9351 20.6691 73.5132 20.7937 74.6243C20.9184 75.7354 20.1349 77.4148 18.4496 76.7747L12.0603 67.8206L12.0602 67.8205Z" fill="black"/>
<path d="M54.1386 68.5837L48.1591 61.7833C48.1591 61.7833 50.9615 59.9413 52.6653 58.6298C54.3691 57.3183 56.9537 55.1652 56.9537 55.1652L62.3317 62.8501C62.3317 62.8501 60.4183 65.4097 58.8085 66.5362C57.1987 67.6627 54.1386 68.5837 54.1386 68.5837Z" fill="#284DD1"/>
<path d="M60.3641 73.9914L55.2446 68.42C55.2446 68.42 57.4893 67.4594 58.8085 66.5362C60.1277 65.613 61.7991 63.8331 61.7991 63.8331L65.6896 70.2646C65.6896 70.2646 65.4148 71.6775 63.805 72.804C62.1952 73.9305 60.3641 73.9914 60.3641 73.9914Z" fill="#FFDCC9"/>
<path d="M64.542 74.7293C62.9323 75.8558 61.1011 75.9167 61.1011 75.9167C61.1011 75.9167 60.3684 75.7418 60.1181 75.3841C59.8678 75.0264 59.9544 74.2781 59.9544 74.2781C59.9544 74.2781 62.0761 74.0139 63.3953 73.0907C64.7145 72.1675 66.0992 69.9779 66.0992 69.9779C66.0992 69.9779 66.8319 70.1529 67.0822 70.5106C67.3325 70.8683 67.2459 71.6166 67.2459 71.6166C67.2459 71.6166 66.1518 73.6028 64.542 74.7293Z" fill="white"/>
<path d="M67.3493 77.7999C64.9702 79.6274 64.9702 79.6274 63.8726 79.84C62.775 80.0527 61.6486 77.7655 61.6486 77.7655L61.1011 75.9167C61.1011 75.9167 63.6325 75.3658 64.9517 74.4426C66.2709 73.5194 67.2459 71.6165 67.2459 71.6165C67.2459 71.6165 72.7351 68.9957 73.8411 68.832C74.9471 68.6683 76.6531 69.3921 76.0727 71.0989L67.3493 77.7998L67.3493 77.7999Z" fill="black"/>
<path d="M40.0114 3.54992C40.0114 3.54992 52.9401 2.30447 60.8024 5.48269C68.6647 8.66092 77.0961 18.5409 77.0961 18.5409L68.4567 45.2497C68.4567 45.2497 54.0917 42.6787 46.9358 39.786C39.7798 36.8933 27.6635 28.7596 27.6635 28.7596L40.0114 3.54992Z" fill="white"/>
<path d="M57.4952 27.0463C55.2847 33.8773 60.3622 41.6193 69.295 44.5099L77.1849 19.6554C68.2521 16.7647 59.7057 20.2154 57.4952 27.0463Z" fill="#FFDCC9"/>
<path d="M66.1875 5.50233L63.1894 12.9193L55.7724 9.92107L58.7706 2.50414C58.7706 2.50414 61.6094 1.49447 63.2286 2.14901C64.8478 2.80354 66.1875 5.50233 66.1875 5.50233Z" fill="white"/>
<path d="M40.752 55.0834C32.7867 51.8635 21.4798 44.057 21.4798 44.057L20.3456 49.531C20.3456 49.531 30.6517 56.9329 38.6908 60.1825C46.7298 63.4322 59.2845 65.2714 59.2845 65.2714L62.2729 60.5471C62.2729 60.5471 48.7174 58.3033 40.752 55.0834Z" fill="#284DD1"/>
<ellipse cx="66.188" cy="30.8499" rx="1.5" ry="2.5" transform="rotate(22.0103 66.188 30.8499)" fill="black"/>
<path d="M46.9358 39.786C38.9704 36.5661 27.6635 28.7596 27.6635 28.7596L21.4798 44.0571C21.4798 44.0571 32.7129 51.8338 40.752 55.0834C48.7911 58.3331 62.2729 60.5471 62.2729 60.5471L68.4567 45.2497C68.4567 45.2497 54.9011 43.0059 46.9358 39.786Z" fill="#40BDCE"/>
<path d="M19.5073 50.2707C11.6268 47.0851 9.41996 36.5348 13.5596 26.2942C17.6992 16.0535 26.6178 10.0005 34.4983 13.1861C42.3787 16.3716 44.5685 26.9643 40.446 37.1626C36.3235 47.3609 27.3878 53.4563 19.5073 50.2707Z" fill="#65E959"/>
<path d="M13.1848 27.2213C9.04518 37.4619 12.0904 47.2725 19.5073 50.2707C26.9242 53.2689 35.9487 48.288 40.0712 38.0897C40.0712 38.0897 35.0608 37.143 26.2532 33.5826C17.4456 30.0223 13.1848 27.2213 13.1848 27.2213Z" fill="#278C1E"/>
<path d="M53.4947 48.909C54.358 46.7736 54.5985 44.3865 53.0848 41.8791C50.4911 37.5829 44.9495 34.8773 39.8546 35.1347L39.9024 37.173C44.0766 36.721 48.7801 38.8964 50.9265 42.4517C52.1216 44.4313 52.2976 46.4638 51.6161 48.1496L53.4947 48.909Z" fill="#65E959"/>
<path d="M32.581 47.3192C35.6085 52.3341 42.6527 55.1816 48.3147 53.6793C51.1457 52.9282 52.6315 51.0445 53.4947 48.909L51.6161 48.1496C50.9346 49.8355 49.3956 51.1747 47.1606 51.7677C42.6907 52.9537 37.1294 50.7057 34.7393 46.7466C34.5119 46.3699 34.3038 45.9843 34.1205 45.595L32.2577 46.7457C32.358 46.9371 32.4658 47.1284 32.581 47.3192Z" fill="#65E959"/>
<path d="M48.3147 53.6794C42.6527 55.1816 35.6085 52.3341 32.581 47.3192C32.4658 47.1284 32.358 46.9371 32.2577 46.7457L34.1205 45.595C34.3038 45.9843 34.5119 46.37 34.7393 46.7466C37.1294 50.7057 42.6907 52.9537 47.1606 51.7677C49.3956 51.1747 50.9346 49.8355 51.6161 48.1497C52.2976 46.4638 52.1216 44.4313 50.9265 42.4517L53.8826 43.6467C54.4488 45.5082 54.1526 47.2817 53.4947 48.9091C52.6315 51.0445 51.1457 52.9282 48.3147 53.6794Z" fill="#278C1E"/>
<path d="M85.9735 11.8076L90.8564 11.3271L92.7525 16.0556L73.7439 45.4482C73.7439 45.4482 73.6541 47.4748 72.9983 48.5213C72.3426 49.5678 71.7616 50.2562 70.558 50.5324C69.7069 50.7278 68.3322 50.3178 68.3322 50.3178L64.3497 56.6731C64.3497 56.6731 63.3364 56.6282 62.8132 56.3003C62.29 55.9724 61.8076 55.0801 61.8076 55.0801L65.7901 48.7248C65.7901 48.7248 64.8217 47.6666 64.6263 46.8155C64.3501 45.6118 64.7162 44.7888 65.3719 43.7423C66.0277 42.6959 67.8123 41.7312 67.8123 41.7312L85.9735 11.8076Z" fill="white"/>
<circle cx="69.1851" cy="46.1318" r="2.5" transform="rotate(32.0728 69.1851 46.1318)" fill="#284DD1"/>
<path d="M62.2563 50.2343L55.4602 47.2119C55.4602 47.2119 55.0029 48.9687 54.5197 49.9715C54.0364 50.9743 52.9851 52.3474 52.9851 52.3474L59.7812 55.3698L65.3189 54.8067C65.3189 54.8067 67.8304 53.2602 67.7343 51.7381C67.6518 50.4309 65.6439 49.1151 65.6439 49.1151L62.2563 50.2343Z" fill="#FFDCC9"/>
<path d="M55.7214 46.8989L48.0047 42.7014L45.4784 51.5681L50.3652 54.1488C50.3652 54.1488 51.9458 54.1097 53.78 51.5337C55.6142 48.9577 55.7214 46.8989 55.7214 46.8989Z" fill="#40BDCE"/>
</g>
<defs>
<clipPath id="clip0">
<rect width="94" height="86" fill="white"/>
</clipPath>
</defs>
</svg>
