<svg width="94" height="86" viewBox="0 0 94 86" fill="none" xmlns="http://www.w3.org/2000/svg">
<g clip-path="url(#clip0)">
<path d="M40.1377 69.6436L39.5384 60.6081C39.5384 60.6081 42.8829 60.8545 45.033 60.8524C47.1831 60.8502 50.5444 60.7172 50.5444 60.7172L50.1278 70.0877C50.1278 70.0877 47.0512 70.952 45.0884 70.8647C43.1255 70.7774 40.1377 69.6436 40.1377 69.6436Z" fill="#284DD1"/>
<path d="M41.7804 77.7245L41.1145 70.1875C41.1145 70.1875 43.4798 70.7931 45.0884 70.8647C46.697 70.9362 49.1066 70.5428 49.1066 70.5428L48.274 78.0132C48.274 78.0132 47.1954 78.9662 45.2326 78.879C43.2697 78.7917 41.7804 77.7245 41.7804 77.7245Z" fill="#FFDCC9"/>
<path d="M44.6442 80.8548C42.6814 80.7675 41.1921 79.7003 41.1921 79.7003C41.1921 79.7003 40.7176 79.1153 40.737 78.6791C40.7564 78.2429 41.2809 77.7023 41.2809 77.7023C41.2809 77.7023 43.1245 78.7852 44.7331 78.8568C46.3416 78.9283 48.7735 78.0354 48.7735 78.0354C48.7735 78.0354 49.248 78.6204 49.2286 79.0566C49.2092 79.4928 48.6847 80.0334 48.6847 80.0334C48.6847 80.0334 46.6071 80.942 44.6442 80.8548Z" fill="white"/>
<path d="M44.9999 85C42 85 42 85 41 84.5C40 84 40.5 81.5 40.5 81.5L41.1921 79.7003C41.1921 79.7003 43.5351 80.8055 45.1437 80.877C46.7523 80.9485 48.6847 80.0334 48.6847 80.0334C48.6847 80.0334 54.6344 81.2989 55.6112 81.8428C56.588 82.3867 57.5 84 56 85L45 85L44.9999 85Z" fill="black"/>
<path d="M40.1377 69.6436L39.5384 60.6081C39.5384 60.6081 42.8829 60.8545 45.033 60.8524C47.1831 60.8502 50.5444 60.7172 50.5444 60.7172L50.1278 70.0877C50.1278 70.0877 47.0512 70.952 45.0884 70.8647C43.1255 70.7774 40.1377 69.6436 40.1377 69.6436Z" fill="#284DD1"/>
<path d="M41.7804 77.7245L41.1145 70.1875C41.1145 70.1875 43.4798 70.7931 45.0884 70.8647C46.697 70.9362 49.1066 70.5428 49.1066 70.5428L48.274 78.0132C48.274 78.0132 47.1954 78.9662 45.2326 78.879C43.2697 78.7917 41.7804 77.7245 41.7804 77.7245Z" fill="#FFDCC9"/>
<path d="M44.6442 80.8548C42.6814 80.7675 41.1921 79.7003 41.1921 79.7003C41.1921 79.7003 40.7176 79.1153 40.737 78.6791C40.7564 78.2429 41.2809 77.7023 41.2809 77.7023C41.2809 77.7023 43.1245 78.7852 44.7331 78.8568C46.3416 78.9283 48.7735 78.0354 48.7735 78.0354C48.7735 78.0354 49.248 78.6204 49.2286 79.0566C49.2092 79.4928 48.6847 80.0334 48.6847 80.0334C48.6847 80.0334 46.6071 80.942 44.6442 80.8548Z" fill="white"/>
<path d="M44.9999 85C42 85 42 85 41 84.5C40 84 40.5 81.5 40.5 81.5L41.1921 79.7003C41.1921 79.7003 43.5351 80.8055 45.1437 80.877C46.7523 80.9485 48.6847 80.0334 48.6847 80.0334C48.6847 80.0334 54.6344 81.2989 55.6112 81.8428C56.588 82.3867 57.5 84 56 85L45 85L44.9999 85Z" fill="black"/>
<path d="M26 11C26 11 37.5196 5 46 5C54.4804 5 66 11 66 11L68 39C68 39 53.7185 42 46 42C38.2815 42 24 39 24 39L26 11Z" fill="white"/>
<path d="M51.0153 26.2314C51.526 33.393 59.1349 38.6678 68.5 38L66.5 12C57.1349 12.6678 50.5046 19.0699 51.0153 26.2314Z" fill="#FFDCC9"/>
<path d="M51 3V11H43V3C43 3 45.2535 1 47 1C48.7465 1 51 3 51 3Z" fill="white"/>
<path d="M46 58.5C37.4085 58.5 24 55.5 24 55.5L25 61C25 61 37.329 64 46 64C54.671 64 67 61 67 61L68 55.5C68 55.5 54.5915 58.5 46 58.5Z" fill="#284DD1"/>
<ellipse cx="60.5" cy="26.5" rx="1.5" ry="2.5" fill="black"/>
<path d="M46 42C37.4085 42 24 39 24 39V55.5C24 55.5 37.329 58.5 46 58.5C54.671 58.5 68 55.5 68 55.5V39C68 39 54.5915 42 46 42Z" fill="#40BDCE"/>
<path d="M24.5 62C16 62 10 53.0457 10 42C10 30.9543 16 22 24.5 22C33 22 39 31 39 42C39 53 33 62 24.5 62Z" fill="#65E959"/>
<path d="M10 43C10 54.0457 16.5 62 24.5 62C32.5 62 39 54 39 43C39 43 34 44 24.5 44C15 44 10 43 10 43Z" fill="#278C1E"/>
<path d="M55.5 48C55.5 45.6967 54.8284 43.3934 52.4853 41.636C48.4706 38.625 42.3189 38.1935 37.6917 40.3415L38.5 42.2134C42.2005 40.2299 47.3765 40.4841 50.6989 42.9758C52.5488 44.3632 53.4737 46.1816 53.4737 48H55.5Z" fill="#65E959"/>
<path d="M35.5147 54.364C40.201 57.8787 47.799 57.8787 52.4853 54.364C54.8284 52.6066 55.5 50.3033 55.5 48H53.4737C53.4737 49.8184 52.5488 51.6368 50.6989 53.0242C46.9992 55.799 41.0008 55.799 37.3011 53.0242C36.9491 52.7602 36.6116 52.4806 36.2958 52.1884L35 53.9534C35.1648 54.0933 35.3364 54.2302 35.5147 54.364Z" fill="#65E959"/>
<path d="M52.4853 54.364C47.799 57.8787 40.201 57.8787 35.5147 54.364C35.3364 54.2302 35.1648 54.0933 35 53.9534L36.2958 52.1885C36.6116 52.4807 36.9491 52.7602 37.3011 53.0242C41.0008 55.799 46.9992 55.799 50.6989 53.0242C52.5488 51.6368 53.4737 49.8184 53.4737 48C53.4737 46.1816 52.5488 44.3632 50.6989 42.9758H53.8874C55.11 44.4895 55.5 46.2447 55.5 48C55.5 50.3033 54.8284 52.6066 52.4853 54.364Z" fill="#278C1E"/>
<path d="M87.167 34.0565L91.7999 35.672L91.5338 40.7596L61.935 59.4454C61.935 59.4454 61.002 61.2467 59.9672 61.9208C58.9325 62.5949 58.1161 62.9755 56.9077 62.7205C56.0533 62.5402 54.9782 61.5906 54.9782 61.5906L48.694 65.6845C48.694 65.6845 47.7934 65.218 47.4563 64.7006C47.1193 64.1832 47.0565 63.1708 47.0565 63.1708L53.3406 59.0769C53.3406 59.0769 52.9065 57.7098 53.0868 56.8553C53.3418 55.647 54.0198 55.054 55.0546 54.3799C56.0893 53.7058 58.1141 53.5802 58.1141 53.5802L87.167 34.0565Z" fill="white"/>
<circle cx="57.5109" cy="58.1504" r="2.5" transform="rotate(56.9172 57.5109 58.1504)" fill="#284DD1"/>
<path d="M52.0035 59.1196L51.5482 51.6957C51.5482 51.6957 49.7786 52.1008 48.666 52.1349C47.5534 52.1689 45.85 51.8701 45.85 51.8701L46.3053 59.294L49.3606 63.9468C49.3606 63.9468 51.8917 65.461 53.1975 64.6733C54.3192 63.9968 54.5598 61.6083 54.5598 61.6083L52.0035 59.1196Z" fill="#FFDCC9"/>
</g>
<defs>
<clipPath id="clip0">
<rect width="94" height="86" fill="white"/>
</clipPath>
</defs>
</svg>
