<svg width="110" height="106" viewBox="0 0 110 106" fill="none" xmlns="http://www.w3.org/2000/svg">
<path d="M59.1559 92.0446C57.2865 90.1261 55.1346 87.3356 55.708 86.8277C56.487 86.1375 56.3595 89.1746 59.4734 87.302C62.5874 85.4295 60.8087 82.9026 60.8087 82.9026C60.8087 82.9026 69.9674 78.8907 70.7512 79.6951C71.9455 80.9209 72.5456 82.5362 71.6 83.9607C69.6193 86.9446 68.0128 87.8301 64.9708 90.5254C63.0434 92.2331 60.993 93.9301 59.1559 92.0446Z" fill="#444444" stroke="black"/>
<path d="M55.2497 86.3229L48.6339 78.4992L53.2721 74.3897L60.7736 83.0655C60.7736 83.0655 62.2353 85.1923 60.6029 86.6387C58.256 88.718 55.2497 86.3229 55.2497 86.3229Z" fill="#FFDCC9" stroke="black"/>
<path d="M47.5023 79.8719L43.1899 74.8123L50.4786 68.3545L54.7713 74.0275L47.5023 79.8719Z" fill="#284DD1" stroke="black"/>
<path d="M44.4618 77.0415C53.6359 79.147 58.4644 72.2287 58.4644 72.2287C58.4644 72.2287 53.636 68.8604 41.082 64.047C36.9013 62.4441 20.8024 55.8654 20.8024 55.8654C20.8024 55.8654 19.0519 59.7156 20.3196 63.0845C21.7682 66.9346 29.4647 72.4549 31.9079 73.6725C33.8393 74.6351 40.901 76.2242 44.4618 77.0415Z" fill="#2040B3" stroke="black"/>
<path d="M37.4567 64.4488C31.1322 62.0297 21.9874 56.5563 21.9874 56.5563L25.8547 48.6638L35.9097 39.9821L45.9647 43.9283C45.9647 43.9283 49.6965 45.487 52.1524 46.2961C55.7079 47.4674 57.6969 48.6638 61.434 48.6638C66.6728 48.6638 73.4326 47.2025 73.4326 47.2025L69.087 56.5563C69.087 56.5563 65.7945 61.9696 63.7757 65.4909C61.8443 68.8599 58.9472 71.7475 58.9472 71.7475C58.9472 71.7475 53.1531 70.3037 49.2903 68.8599C45.4275 67.416 42.7405 66.4698 37.4567 64.4488Z" fill="#40BDCE" stroke="black"/>
<path d="M29.7223 29.7219C29.7223 29.7219 33.5896 23.2106 39.0038 16.3047C44.4181 9.39873 52.9261 9.20142 52.9261 9.20142C52.9261 9.20142 54.9916 4.49819 57.5669 2.88742C59.4417 1.71477 60.9768 0.385855 62.9811 1.30892C65.0779 2.27455 65.4086 4.48887 65.3015 6.83367C65.2348 8.29411 65.3015 9.99062 65.3015 9.99062L70.7158 13.1477L76.9034 16.3047C76.9034 16.3047 77.9379 13.9558 79.2238 13.1477C80.2842 12.4812 81.1148 12.0291 82.3177 12.3584C83.5205 12.6877 84.195 13.4991 84.6381 14.7262C85.2985 16.5553 83.0911 19.4617 83.0911 19.4617C83.0911 19.4617 84.6381 23.234 84.6381 25.7757C84.6381 28.3173 83.8981 29.6851 83.0911 32.0897C80.8919 38.6425 73.8096 47.0854 73.8096 47.0854L67.6219 48.6639C67.6219 48.6639 60.9122 48.9 56.7934 47.8746C52.9786 46.9249 51.0183 45.7321 47.5119 43.9284C43.3948 41.8106 37.4569 37.6144 37.4569 37.6144C37.4569 37.6144 37.616 34.4943 36.6834 32.8789C35.1736 30.2633 29.7223 29.7219 29.7223 29.7219Z" fill="#FFFEFE"/>
<path d="M52.9261 9.20142V13.1477M52.9261 9.20142C52.9261 9.20142 54.9916 4.49819 57.5669 2.88742C59.4417 1.71477 60.9768 0.385855 62.9811 1.30892C65.0779 2.27455 65.4086 4.48887 65.3015 6.83367C65.2348 8.29411 65.3015 9.99062 65.3015 9.99062M52.9261 9.20142C52.9261 9.20142 44.4181 9.39873 39.0038 16.3047C33.5896 23.2106 29.7223 29.7219 29.7223 29.7219C29.7223 29.7219 35.1736 30.2633 36.6834 32.8789C37.616 34.4943 37.4569 37.6144 37.4569 37.6144C37.4569 37.6144 43.3948 41.8106 47.5119 43.9284C51.0183 45.7321 52.9786 46.9249 56.7934 47.8747C60.9122 48.9 67.6219 48.6639 67.6219 48.6639L73.8096 47.0854C73.8096 47.0854 80.8919 38.6425 83.0911 32.0897C83.8981 29.6851 84.6381 28.3173 84.6381 25.7757C84.6381 23.234 83.0911 19.4617 83.0911 19.4617M62.9811 13.9369L65.3015 9.99062M65.3015 9.99062L70.7158 13.1477L76.9034 16.3047M76.9034 16.3047C76.9034 16.3047 77.9379 13.9558 79.2238 13.1477C80.2842 12.4812 81.1148 12.0291 82.3177 12.3584C83.5205 12.6877 84.195 13.4991 84.6381 14.7262C85.2985 16.5553 83.0911 19.4617 83.0911 19.4617M76.9034 16.3047L83.0911 19.4617" stroke="black"/>
<path d="M60.6609 21.5201C63.7548 20.6212 71.3955 20.9623 73.0363 21.5203C75.3567 22.3096 79.224 23.8881 81.5455 27.3539C83.867 30.8197 83.0924 32.0894 83.0924 32.0894L79.9986 38.4034L76.1313 43.9281C76.1313 43.9281 74.2448 44.4342 73.0368 44.4086C69.4004 44.3317 66.8486 44.4086 63.7557 43.6194C60.6628 42.8301 56.0201 41.2516 53.7009 38.4034C51.3817 35.5551 50.9218 31.6089 52.154 28.1431C53.3861 24.6774 57.5671 22.419 60.6609 21.5201Z" fill="#FFDCC9" stroke="black"/>
<path d="M77.2169 66.7624L44.8805 64.8133L44.6595 69.7838L76.05 76.4333L88.2579 72.5628L77.2169 66.7624Z" fill="#FF2B2B" stroke="black"/>
<path d="M41.7223 62.8663L44.108 58.6138L45.1607 63.5165L44.1391 72.6762L40.3246 75.2073L40.355 72.7356L42.2915 68.7614L35.1001 68.2719C35.1001 68.2719 33.019 69.6458 31.6739 68.5055C30.3287 67.3652 30.0081 65.1668 31.3165 63.9415C32.5248 62.8099 34.397 64.4174 34.397 64.4174L42.1276 64.7387C41.9327 63.7234 41.7223 62.8663 41.7223 62.8663Z" fill="#A80202"/>
<path d="M42.2915 68.7614L40.355 72.7356L40.3246 75.2073L44.1391 72.6762L45.1607 63.5165L44.108 58.6138L41.7223 62.8663C41.7223 62.8663 41.9327 63.7234 42.1276 64.7387M42.2915 68.7614L35.1001 68.2719C35.1001 68.2719 33.019 69.6458 31.6739 68.5055C30.3287 67.3652 30.0081 65.1668 31.3165 63.9415C32.5248 62.8099 34.397 64.4174 34.397 64.4174L42.1276 64.7387M42.2915 68.7614C42.2915 68.7614 42.4465 66.4002 42.1276 64.7387" stroke="black"/>
<path d="M54.6847 68.6913L77.2649 71.7921" stroke="black" stroke-linecap="round"/>
<path d="M40.8173 65.2962C40.7098 62.3031 41.7324 57.2968 41.7324 57.2968L37.0669 56.2498L35.8879 64.4743C35.8879 64.4743 34.7942 65.6656 34.6161 66.6152C34.2735 68.4417 35.3013 70.1288 37.0854 70.6182C38.143 70.9083 38.279 71.1874 39.2949 70.739C40.4219 70.2415 41.6714 68.6584 41.6714 68.6584C41.6714 68.6584 40.8661 66.6553 40.8173 65.2962Z" fill="#FFDCC9" stroke="black"/>
<path d="M43.9712 51.9127L43.3886 57.5178L34.7712 55.5425L34.7073 53.2878" stroke="black"/>
<path d="M64.9616 33.4403C64.6013 34.2576 64.1092 34.8941 63.6281 35.2702C63.1278 35.6613 62.753 35.6952 62.5399 35.5974C62.3267 35.4996 62.1029 35.1909 62.0578 34.5494C62.0143 33.9327 62.1545 33.1346 62.5148 32.3172C62.8751 31.4999 63.3673 30.8633 63.8483 30.4873C64.3487 30.0962 64.7235 30.0623 64.9366 30.1601C65.1497 30.2579 65.3735 30.5665 65.4187 31.2081C65.4621 31.8248 65.3219 32.6229 64.9616 33.4403Z" fill="black" stroke="black"/>
<path d="M76.6721 36.0551C76.3458 36.7954 75.9124 37.3751 75.4976 37.7204C75.0558 38.0884 74.7698 38.0936 74.6483 38.0378C74.5268 37.982 74.3409 37.7602 74.3175 37.1788C74.2956 36.633 74.4331 35.9175 74.7594 35.1772C75.0857 34.4369 75.5192 33.8572 75.9339 33.5119C76.3757 33.1439 76.6617 33.1387 76.7832 33.1945C76.9047 33.2503 77.0906 33.4721 77.114 34.0535C77.1359 34.5993 76.9984 35.3148 76.6721 36.0551Z" fill="#010101" stroke="black"/>
<path d="M17.4218 26.9888C20.8018 26.5076 25.0219 27.2198 29.493 28.4327C31.2672 28.9139 34.235 30.1207 35.9079 32.0894C37.3603 33.7987 37.4549 37.614 37.4549 37.614L45.1895 43.1387V45.5065C45.1895 45.5065 42.553 43.4423 40.5487 43.1387C38.0849 42.7656 35.8706 42.6955 34.361 44.7172C32.8966 46.6786 34.361 51.0312 34.361 51.0312L31.2672 55.7667C31.2672 55.7667 25.1252 56.8889 21.2121 56.5562C15.3675 56.0592 11.1663 56.2569 6.51642 52.6097C3.06254 49.9007 1.40172 47.5736 1.102 43.1389C0.831831 39.1416 1.68954 36.7521 4.19603 33.6678C6.70252 30.5834 11.5318 27.8275 17.4218 26.9888Z" fill="#65E959" stroke="black"/>
<path d="M33.5893 46.7763C33.5893 46.7763 1.87734 38.0946 1.10388 41.2516C0.523746 43.6193 2.41463 49.0617 5.74465 52.3011C9.61871 56.0697 13.5694 55.6857 18.8935 56.2473C23.7101 56.7554 31.2689 55.4581 31.2689 55.4581L34.3627 49.9333L33.5893 46.7763Z" fill="#278C1E" stroke="black"/>
<path d="M5.02514 80.3129C7.1934 78.4059 10.3353 76.2331 10.8871 76.8607C11.6368 77.7132 8.2688 77.4601 10.2821 80.8336C12.2955 84.2071 15.137 82.4198 15.137 82.4198C15.137 82.4198 19.3987 92.2838 18.4896 93.0834C17.1042 94.3018 15.2989 94.8751 13.7376 93.8175C10.4672 91.6021 9.51791 89.8648 6.59001 86.5357C4.73481 84.4263 2.8942 82.187 5.02514 80.3129Z" fill="#444444" stroke="black"/>
<path d="M11.457 76.3944L20.2782 69.6855L24.7425 74.7615L14.9571 82.3762C14.9571 82.3762 12.5661 83.8431 10.9949 82.0566C8.73605 79.4882 11.457 76.3944 11.457 76.3944Z" fill="#FFDCC9" stroke="black"/>
<path d="M18.7781 68.4328L24.4835 64.0581L31.4988 72.0348L25.113 76.3648L18.7781 68.4328Z" fill="#284DD1" stroke="black"/>
</svg>
