<svg width="94" height="86" viewBox="0 0 94 86" fill="none" xmlns="http://www.w3.org/2000/svg">
<g clip-path="url(#clip0)">
<path d="M55.646 46.8073L48.0598 42.3784L45.2665 51.1646L50.0729 53.8919C50.0729 53.8919 51.6541 53.9006 53.5653 51.3813C55.4766 48.8619 55.646 46.8073 55.646 46.8073Z" fill="#40BDCE"/>
<path d="M61.7244 51.6419L55.3195 47.8606C55.3195 47.8606 54.6639 49.5534 54.0689 50.4942C53.4738 51.435 52.2721 52.6786 52.2721 52.6786L58.6771 56.46L63.3706 59.045C63.3706 59.045 65.583 58.4596 66.2569 57.3364C66.868 56.318 66.5433 54.3086 66.5433 54.3086L61.7244 51.6419Z" fill="#FFDCC9"/>
<path d="M21.7362 54.9428L28.7432 49.2066C28.7432 49.2066 30.4852 52.0722 31.7358 53.8212C32.9865 55.5701 35.0472 58.229 35.0472 58.229L27.1775 63.3328C27.1775 63.3328 24.6869 61.3304 23.6179 59.6819C22.5488 58.0335 21.7362 54.9428 21.7362 54.9428Z" fill="#284DD1"/>
<path d="M16.1125 60.9738L21.8609 56.0538C21.8609 56.0538 22.7417 58.331 23.6179 59.6819C24.494 61.0329 26.2139 62.7659 26.2139 62.7659L19.6493 66.4273C19.6493 66.4273 18.247 66.1029 17.1779 64.4544C16.1088 62.8059 16.1125 60.9738 16.1125 60.9738Z" fill="#FFDCC9"/>
<path d="M15.2278 65.1232C14.1588 63.4747 14.1624 61.6425 14.1624 61.6425C14.1624 61.6425 14.363 60.9165 14.7294 60.6789C15.0957 60.4413 15.8404 60.5543 15.8404 60.5543C15.8404 60.5543 16.0297 62.684 16.9059 64.0349C17.782 65.3858 19.9214 66.8468 19.9214 66.8468C19.9214 66.8468 19.7207 67.5728 19.3544 67.8104C18.9881 68.048 18.2434 67.935 18.2434 67.935C18.2434 67.935 16.2969 66.7716 15.2278 65.1232Z" fill="white"/>
<path d="M12.0602 67.8204C10.3177 65.3785 10.3177 65.3785 10.1439 64.274C9.97001 63.1696 12.2954 62.1245 12.2954 62.1245L14.1624 61.6425C14.1624 61.6425 14.6238 64.1917 15.4999 65.5426C16.376 66.8936 18.2433 67.935 18.2433 67.935C18.2433 67.935 20.6691 73.5132 20.7937 74.6243C20.9184 75.7353 20.1349 77.4148 18.4496 76.7746L12.0603 67.8205L12.0602 67.8204Z" fill="black"/>
<path d="M54.1386 68.5837L48.1591 61.7832C48.1591 61.7832 50.9615 59.9413 52.6653 58.6298C54.3691 57.3183 56.9537 55.1652 56.9537 55.1652L62.3317 62.8501C62.3317 62.8501 60.4183 65.4097 58.8085 66.5362C57.1987 67.6627 54.1386 68.5837 54.1386 68.5837Z" fill="#284DD1"/>
<path d="M60.3641 73.9914L55.2446 68.4199C55.2446 68.4199 57.4893 67.4594 58.8085 66.5362C60.1277 65.613 61.7991 63.8331 61.7991 63.8331L65.6896 70.2646C65.6896 70.2646 65.4148 71.6774 63.805 72.804C62.1952 73.9305 60.3641 73.9914 60.3641 73.9914Z" fill="#FFDCC9"/>
<path d="M64.542 74.7292C62.9323 75.8558 61.1011 75.9167 61.1011 75.9167C61.1011 75.9167 60.3684 75.7418 60.1181 75.384C59.8678 75.0263 59.9544 74.2781 59.9544 74.2781C59.9544 74.2781 62.0761 74.0138 63.3953 73.0906C64.7145 72.1674 66.0992 69.9779 66.0992 69.9779C66.0992 69.9779 66.8319 70.1528 67.0822 70.5105C67.3325 70.8683 67.2459 71.6165 67.2459 71.6165C67.2459 71.6165 66.1518 73.6027 64.542 74.7292Z" fill="white"/>
<path d="M67.3493 77.7999C64.9702 79.6273 64.9702 79.6274 63.8726 79.84C62.775 80.0527 61.6486 77.7655 61.6486 77.7655L61.1011 75.9167C61.1011 75.9167 63.6325 75.3658 64.9517 74.4426C66.2709 73.5194 67.2459 71.6165 67.2459 71.6165C67.2459 71.6165 72.7351 68.9957 73.8411 68.832C74.9471 68.6683 76.6531 69.3921 76.0727 71.0989L67.3493 77.7998L67.3493 77.7999Z" fill="black"/>
<path d="M40.0114 3.5499C40.0114 3.5499 52.9401 2.30445 60.8024 5.48268C68.6647 8.66091 77.0961 18.5409 77.0961 18.5409L68.4567 45.2497C68.4567 45.2497 54.0917 42.6787 46.9358 39.786C39.7798 36.8933 27.6635 28.7596 27.6635 28.7596L40.0114 3.5499Z" fill="white"/>
<path d="M57.4952 27.0463C55.2847 33.8773 60.3622 41.6193 69.295 44.5099L77.1849 19.6554C68.2521 16.7647 59.7057 20.2154 57.4952 27.0463Z" fill="#FFDCC9"/>
<path d="M66.1875 5.50232L63.1894 12.9192L55.7724 9.92106L58.7706 2.50413C58.7706 2.50413 61.6094 1.49446 63.2286 2.14899C64.8478 2.80353 66.1875 5.50232 66.1875 5.50232Z" fill="white"/>
<path d="M40.752 55.0834C32.7867 51.8635 21.4798 44.057 21.4798 44.057L20.3456 49.531C20.3456 49.531 30.6517 56.9329 38.6908 60.1825C46.7298 63.4322 59.2845 65.2714 59.2845 65.2714L62.2729 60.5471C62.2729 60.5471 48.7174 58.3033 40.752 55.0834Z" fill="#284DD1"/>
<ellipse cx="66.188" cy="30.8499" rx="1.5" ry="2.5" transform="rotate(22.0103 66.188 30.8499)" fill="black"/>
<path d="M46.9358 39.786C38.9704 36.5661 27.6635 28.7596 27.6635 28.7596L21.4798 44.057C21.4798 44.057 32.7129 51.8337 40.752 55.0834C48.7911 58.3331 62.2729 60.5471 62.2729 60.5471L68.4567 45.2497C68.4567 45.2497 54.9011 43.0059 46.9358 39.786Z" fill="#40BDCE"/>
<path d="M19.5073 50.2707C11.6268 47.0851 9.41996 36.5348 13.5596 26.2941C17.6992 16.0535 26.6178 10.0004 34.4983 13.186C42.3787 16.3716 44.5685 26.9643 40.446 37.1626C36.3235 47.3608 27.3878 53.4562 19.5073 50.2707Z" fill="#65E959"/>
<path d="M13.1848 27.2212C9.04518 37.4619 12.0904 47.2725 19.5073 50.2707C26.9242 53.2689 35.9487 48.288 40.0712 38.0897C40.0712 38.0897 35.0608 37.1429 26.2532 33.5826C17.4456 30.0222 13.1848 27.2212 13.1848 27.2212Z" fill="#278C1E"/>
<path d="M53.4947 48.909C54.358 46.7736 54.5985 44.3865 53.0848 41.8791C50.4911 37.5829 44.9495 34.8773 39.8546 35.1347L39.9024 37.173C44.0766 36.7209 48.7801 38.8964 50.9265 42.4517C52.1216 44.4313 52.2976 46.4638 51.6161 48.1496L53.4947 48.909Z" fill="#65E959"/>
<path d="M32.581 47.3192C35.6085 52.3341 42.6527 55.1816 48.3147 53.6793C51.1457 52.9282 52.6315 51.0445 53.4947 48.909L51.6161 48.1496C50.9346 49.8355 49.3956 51.1747 47.1606 51.7677C42.6907 52.9537 37.1294 50.7057 34.7393 46.7466C34.5119 46.3699 34.3038 45.9842 34.1205 45.595L32.2577 46.7457C32.358 46.9371 32.4658 47.1283 32.581 47.3192Z" fill="#65E959"/>
<path d="M48.3147 53.6793C42.6527 55.1816 35.6085 52.3341 32.581 47.3192C32.4658 47.1283 32.358 46.9371 32.2577 46.7457L34.1205 45.595C34.3038 45.9842 34.5119 46.3699 34.7393 46.7466C37.1294 50.7057 42.6907 52.9537 47.1606 51.7677C49.3956 51.1747 50.9346 49.8355 51.6161 48.1496C52.2976 46.4638 52.1216 44.4313 50.9265 42.4517L53.8826 43.6467C54.4488 45.5082 54.1526 47.2817 53.4947 48.909C52.6315 51.0445 51.1457 52.9282 48.3147 53.6793Z" fill="#278C1E"/>
<path d="M79.0243 71.7997L80.4017 76.5088L76.1067 79.2487L43.6996 66.0188C43.6996 66.0188 41.6914 66.3062 40.5415 65.8559C39.3916 65.4055 38.6075 64.9622 38.1128 63.8306C37.7631 63.0305 37.9111 61.6037 37.9111 61.6037L30.9277 58.8685C30.9277 58.8685 30.7839 57.8644 31.0091 57.2894C31.2343 56.7145 32.0217 56.0751 32.0217 56.0751L39.0052 58.8103C39.0052 58.8103 39.8656 57.6625 40.6657 57.3128C41.7973 56.8181 42.6739 57.0253 43.8238 57.4757C44.9737 57.9261 46.2525 59.5009 46.2525 59.5009L79.0243 71.7997Z" fill="white"/>
<circle cx="42.1827" cy="61.6658" r="2.5" transform="rotate(111.389 42.1827 61.6658)" fill="#284DD1"/>
<path d="M38.1934 57.7469L43.9707 53.0623C43.9707 53.0623 42.6126 51.8576 41.9384 50.9719C41.2641 50.0862 40.5175 48.5263 40.5175 48.5263L34.7402 53.2109L32.7291 58.4012C32.7291 58.4012 32.9676 61.341 34.3675 61.946C35.5699 62.4656 37.6535 61.2735 37.6535 61.2735L38.1934 57.7469Z" fill="#FFDCC9"/>
<path d="M44.1311 53.4371L51.3732 48.4653L44.6183 42.1906L40.1011 45.3742C40.1011 45.3742 39.4188 46.8005 40.8819 49.6039C42.3451 52.4073 44.1311 53.4371 44.1311 53.4371Z" fill="#40BDCE"/>
</g>
<defs>
<clipPath id="clip0">
<rect width="94" height="86" fill="white"/>
</clipPath>
</defs>
</svg>
