<svg width="94" height="86" viewBox="0 0 94 86" fill="none" xmlns="http://www.w3.org/2000/svg">
<path fill-rule="evenodd" clip-rule="evenodd" d="M47.5978 2.00047C52.8887 2.04116 56.4836 4.69499 58.9502 9.34187C61.3122 13.7917 58.9502 22.2215 58.9502 22.2215L56.031 27.631V32.9116C56.031 32.9116 51.4508 37.9233 47.5978 37.9991C43.6141 38.0775 38.9051 32.9116 38.9051 32.9116V27.631L36.0508 22.2215C36.0508 22.2215 33.6866 13.7906 36.0508 9.34187C38.5494 4.64013 42.243 1.95929 47.5978 2.00047ZM50.1926 23.5739L47.5978 17.8424L45.0678 23.5739C45.0678 23.5739 45.5559 24.8098 46.2355 24.8619C46.968 24.9179 47.5978 23.5739 47.5978 23.5739C47.5978 23.5739 48.1324 24.8272 48.8303 24.8619C49.5641 24.8983 50.1926 23.5739 50.1926 23.5739ZM41.8891 13.5922C43.5163 13.7508 44.7107 14.713 45.0678 16.2969C45.5611 18.4846 43.3534 22.7458 41.1107 22.4828C39.0778 22.2444 37.5655 18.2834 37.9969 16.2969C38.3879 14.4963 40.0426 13.4121 41.8891 13.5922ZM53.3713 13.5922C51.7442 13.7508 50.5497 14.713 50.1926 16.2969C49.6994 18.4846 51.9071 22.7458 54.1498 22.4828C56.1826 22.2444 57.6949 18.2834 57.2636 16.2969C56.8726 14.4963 55.2178 13.4121 53.3713 13.5922ZM53.2416 25.699L55.1877 24.8619L52.0739 31.4305L51.1657 31.3017L50.1926 32.3321L49.4142 31.3017L48.4411 32.3321L47.4681 31.3017L46.5599 32.3321L45.7165 31.3017L44.7435 32.3321L43.965 31.3017L42.7325 31.4305L39.8781 24.8619L41.8891 25.699V28.4038L42.7325 30.0137L43.965 28.7258L44.7435 30.3357L45.7165 28.7258L46.6896 30.7221L47.5978 28.7258L48.4411 30.7221L49.4142 28.7258L50.1926 30.3357L51.1657 28.7258L52.0739 30.0137L53.2416 28.275V25.699Z" fill="white"/>
<path d="M45.0678 16.2969C44.7107 14.713 43.5163 13.7508 41.8891 13.5922C40.0426 13.4121 38.3879 14.4963 37.9969 16.2969C37.5655 18.2834 39.0778 22.2444 41.1107 22.4828C43.3534 22.7458 45.5611 18.4846 45.0678 16.2969Z" fill="white"/>
<path d="M50.1926 16.2969C50.5497 14.713 51.7442 13.7508 53.3713 13.5922C55.2178 13.4121 56.8726 14.4963 57.2636 16.2969C57.6949 18.2834 56.1826 22.2444 54.1498 22.4828C51.9071 22.7458 49.6994 18.4846 50.1926 16.2969Z" fill="white"/>
<path d="M47.5978 17.8424L50.1926 23.5739C50.1926 23.5739 49.5641 24.8983 48.8303 24.8619C48.1324 24.8272 47.5978 23.5739 47.5978 23.5739C47.5978 23.5739 46.968 24.9179 46.2355 24.8619C45.5559 24.8098 45.0678 23.5739 45.0678 23.5739L47.5978 17.8424Z" fill="white"/>
<path d="M55.1877 24.8619L53.2416 25.699V28.275L52.0739 30.0137L51.1657 28.7258L50.1926 30.3357L49.4142 28.7258L48.4411 30.7221L47.5978 28.7258L46.6896 30.7221L45.7165 28.7258L44.7435 30.3357L43.965 28.7258L42.7325 30.0137L41.8891 28.4038V25.699L39.8781 24.8619L42.7325 31.4305L43.965 31.3017L44.7435 32.3321L45.7165 31.3017L46.5599 32.3321L47.4681 31.3017L48.4411 32.3321L49.4142 31.3017L50.1926 32.3321L51.1657 31.3017L52.0739 31.4305L55.1877 24.8619Z" fill="white"/>
<path d="M47 40C51.4512 39.8878 58 43 58 43C58 43 51.3133 41.9611 47 42C43.0754 42.0354 37 43 37 43C37 43 42.9241 40.1028 47 40Z" fill="white"/>
<path d="M47.1429 45.003C50.3223 44.8909 55 48 55 48C55 48 50.2238 46.4612 47.1429 46.5C44.3396 46.5353 40 48 40 48C40 48 44.2315 45.1056 47.1429 45.003Z" fill="white"/>
<path d="M47.1429 50.003C50.3223 49.8909 52 52 52 52C52 52 50.2238 50.9612 47.1429 51C44.3396 51.0353 43 52 43 52C43 52 44.2315 50.1056 47.1429 50.003Z" fill="white"/>
<path d="M20.0885 37.3739L33.8275 37.9235L34.502 36.6995L36.3755 36.7745C36.3755 36.7745 36.9719 37.5031 36.95 38.0485C36.9282 38.5938 36.2756 39.2725 36.2756 39.2725C36.2756 39.2725 36.8719 40.0011 36.8501 40.5465C36.8283 41.0918 36.1756 41.7705 36.1756 41.7705L34.3021 41.6955L33.7276 40.4215L19.9886 39.8719L19.3141 41.0959L17.4406 41.021C17.4406 41.021 16.8443 40.2923 16.8661 39.747C16.8879 39.2017 17.5406 38.523 17.5406 38.523C17.5406 38.523 16.9442 37.7943 16.966 37.249C16.9878 36.7037 17.6405 36.025 17.6405 36.025L19.514 36.0999L20.0885 37.3739Z" fill="white"/>
<path d="M43.2328 72.9455L37.5542 67.9509L36.4706 68.6625L35.6962 67.9814C35.6962 67.9814 35.9032 67.2256 36.2636 66.8158C36.6241 66.406 37.3473 66.1042 37.3473 66.1042C37.3473 66.1042 37.5543 65.3484 37.9147 64.9386C38.2752 64.5288 38.9984 64.227 38.9984 64.227L39.7727 64.9081L39.2053 66.0737L44.8839 71.0683L45.9675 70.3567L46.7419 71.0377C46.7419 71.0377 46.5349 71.7936 46.1744 72.2034C45.814 72.6132 45.0908 72.915 45.0908 72.915C45.0908 72.915 44.8838 73.6708 44.5234 74.0806C44.1629 74.4904 43.4397 74.7922 43.4397 74.7922L42.6653 74.1111L43.2328 72.9455Z" fill="white"/>
<path d="M55.25 80.875V67.125L54 66.5V64.625C54 64.625 54.7042 64 55.25 64C55.7958 64 56.5 64.625 56.5 64.625C56.5 64.625 57.2042 64 57.75 64C58.2958 64 59 64.625 59 64.625V66.5L57.75 67.125V80.875L59 81.5V83.375C59 83.375 58.2958 84 57.75 84C57.2042 84 56.5 83.375 56.5 83.375C56.5 83.375 55.7958 84 55.25 84C54.7042 84 54 83.375 54 83.375V81.5L55.25 80.875Z" fill="white"/>
<path d="M64.4537 57.9168L63.1243 44.2312L64.308 43.4883L64.1268 41.6221C64.1268 41.6221 63.3654 41.0681 62.8222 41.1209C62.279 41.1736 61.6385 41.8638 61.6385 41.8638C61.6385 41.8638 60.8771 41.3098 60.3339 41.3626C59.7907 41.4153 59.1502 42.1055 59.1502 42.1055L59.3315 43.9717L60.636 44.4729L61.9654 58.1585L60.7817 58.9014L60.963 60.7676C60.963 60.7676 61.7243 61.3216 62.2675 61.2689C62.8108 61.2161 63.4513 60.5259 63.4513 60.5259C63.4513 60.5259 64.2126 61.0799 64.7558 61.0272C65.299 60.9744 65.9395 60.2842 65.9395 60.2842L65.7583 58.418L64.4537 57.9168Z" fill="white"/>
<path fill-rule="evenodd" clip-rule="evenodd" d="M46.9996 55C46.9996 55 49.9788 52.4177 51.9996 53C53.5917 53.4587 54.9611 54.3436 54.9996 56C55.045 57.9521 50.9996 59 50.9996 59C50.9996 59 52.9996 59.8954 52.9996 61C52.9996 65 46.9996 62 46.9996 62C46.9996 62 40.9996 65 40.9996 61C40.9996 59.8954 42.9996 59 42.9996 59C42.9996 59 38.9542 57.9521 38.9996 56C39.0381 54.3436 40.4075 53.4587 41.9996 53C44.0204 52.4177 46.9996 55 46.9996 55ZM48.9996 57C48.4473 57 47.9996 58 47.9996 58V60C47.9996 60 49.3822 61.6175 49.9996 61C50.6171 60.3825 48.9996 59 48.9996 59C48.9996 59 49.7807 57 48.9996 57ZM45.4996 57C46.0519 57 46.4996 58 46.4996 58V60C46.4996 60 45.1171 61.6175 44.4996 61C43.8822 60.3825 45.4996 59 45.4996 59C45.4996 59 44.7186 57 45.4996 57Z" fill="white"/>
</svg>
