<svg width="94" height="86" viewBox="0 0 94 86" fill="none" xmlns="http://www.w3.org/2000/svg">
<path d="M47 40C42.5488 39.8878 36 43 36 43C36 43 42.6867 41.9611 47 42C50.9246 42.0354 57 43 57 43C57 43 51.0759 40.1028 47 40Z" fill="white"/>
<path d="M46.8571 45.003C43.6777 44.8909 39 48 39 48C39 48 43.7762 46.4612 46.8571 46.5C49.6604 46.5353 54 48 54 48C54 48 49.7685 45.1056 46.8571 45.003Z" fill="white"/>
<path d="M46.8571 50.003C43.6777 49.8909 42 52 42 52C42 52 43.7762 50.9612 46.8571 51C49.6604 51.0353 51 52 51 52C51 52 49.7685 50.1056 46.8571 50.003Z" fill="white"/>
<path d="M65.1799 26.3045L57.7418 37.869L56.3524 37.7185L55.3381 39.2954C55.3381 39.2954 55.5923 40.202 56.0513 40.4973C56.5104 40.7925 57.4408 40.6478 57.4408 40.6478C57.4408 40.6478 57.695 41.5544 58.154 41.8497C58.613 42.1449 59.5434 42.0002 59.5434 42.0002L60.5577 40.4232L59.8445 39.2214L67.2825 27.6569L68.6719 27.8074L69.6862 26.2304C69.6862 26.2304 69.432 25.3238 68.973 25.0286C68.514 24.7333 67.5836 24.878 67.5836 24.878C67.5836 24.878 67.3294 23.9714 66.8703 23.6762C66.4113 23.381 65.4809 23.5257 65.4809 23.5257L64.4667 25.1026L65.1799 26.3045Z" fill="white"/>
<path d="M56.75 80.875V67.125L58 66.5V64.625C58 64.625 57.2958 64 56.75 64C56.2042 64 55.5 64.625 55.5 64.625C55.5 64.625 54.7958 64 54.25 64C53.7042 64 53 64.625 53 64.625V66.5L54.25 67.125V80.875L53 81.5V83.375C53 83.375 53.7042 84 54.25 84C54.7958 84 55.5 83.375 55.5 83.375C55.5 83.375 56.2042 84 56.75 84C57.2958 84 58 83.375 58 83.375V81.5L56.75 80.875Z" fill="white"/>
<path d="M29.8804 79.5293L38.4564 68.7816L39.8233 69.0727L40.9927 67.6071C40.9927 67.6071 40.8321 66.6793 40.4055 66.3389C39.9789 65.9985 39.0386 66.0478 39.0386 66.0478C39.0386 66.0478 38.8779 65.12 38.4513 64.7796C38.0247 64.4392 37.0845 64.4885 37.0845 64.4885L35.915 65.9541L36.5022 67.2223L27.9262 77.9701L26.5593 77.679L25.3899 79.1446C25.3899 79.1446 25.5505 80.0723 25.9771 80.4127C26.4037 80.7531 27.344 80.7038 27.344 80.7038C27.344 80.7038 27.5046 81.6316 27.9313 81.972C28.3579 82.3124 29.2981 82.2631 29.2981 82.2631L30.4676 80.7975L29.8804 79.5293Z" fill="white"/>
<path d="M29.0552 54.5758L32.807 41.3475L31.7749 40.4051L32.2865 38.6013C32.2865 38.6013 33.1346 38.1922 33.6596 38.3411C34.1847 38.49 34.6917 39.2834 34.6917 39.2834C34.6917 39.2834 35.5397 38.8743 36.0648 39.0232C36.5898 39.1721 37.0968 39.9656 37.0968 39.9656L36.5852 41.7694L35.2121 42.0296L31.4604 55.2579L32.4924 56.2002L31.9808 58.0041C31.9808 58.0041 31.1328 58.4132 30.6077 58.2643C30.0826 58.1154 29.5757 57.322 29.5757 57.322C29.5757 57.322 28.7276 57.7311 28.2026 57.5822C27.6775 57.4333 27.1705 56.6398 27.1705 56.6398L27.6821 54.836L29.0552 54.5758Z" fill="white"/>
<path fill-rule="evenodd" clip-rule="evenodd" d="M47.0004 55C47.0004 55 44.0212 52.4177 42.0004 53C40.4083 53.4587 39.0389 54.3436 39.0004 56C38.955 57.9521 43.0004 59 43.0004 59C43.0004 59 41.0004 59.8954 41.0004 61C41.0004 65 47.0004 62 47.0004 62C47.0004 62 53.0004 65 53.0004 61C53.0004 59.8954 51.0004 59 51.0004 59C51.0004 59 55.0458 57.9521 55.0004 56C54.9619 54.3436 53.5925 53.4587 52.0004 53C49.9796 52.4177 47.0004 55 47.0004 55ZM45.0004 57C45.5527 57 46.0004 58 46.0004 58V60C46.0004 60 44.6178 61.6175 44.0004 61C43.3829 60.3825 45.0004 59 45.0004 59C45.0004 59 44.2193 57 45.0004 57ZM48.5004 57C47.9481 57 47.5004 58 47.5004 58V60C47.5004 60 48.8829 61.6175 49.5004 61C50.1178 60.3825 48.5004 59 48.5004 59C48.5004 59 49.2814 57 48.5004 57Z" fill="white"/>
<path fill-rule="evenodd" clip-rule="evenodd" d="M48.3552 0.036665C51.8427 0.287496 53.8773 1.56248 56.5327 4.10676C60.1501 7.57265 62.2006 10.9913 61.9845 16.317C61.8043 20.7552 59.7129 25.4748 57.4414 26.4923C55.1698 27.5098 52.8983 27.5098 51.081 27.001C49.2638 26.4923 47.4465 27.001 47.4465 27.001C47.4465 27.001 46.5379 29.0361 46.0836 32.5974C45.6293 34.1237 44.0916 33.7188 42.9034 34.1237C41.9137 34.461 41.5732 34.6605 40.6319 35.1412C37.5606 36.7097 32 35.65 32 35.65L32.4543 30.5624L33.3629 29.0361L34.7259 30.0536L35.6345 28.5273L37.4517 29.5449L38.3603 28.0186L40.1776 28.5273L41.5405 25.4748L42.9034 23.4397L41.0862 23.9485L39.269 26.4923L37.906 25.9835L36.9974 27.5098L35.1802 26.4923L34.2715 28.0186L32.9086 27.001L32.4543 28.0186L32 25.4748L33.3629 23.4397L32 16.8258L32.9086 14.7908C32.9086 14.7908 33.7037 10.5261 34.7259 8.17685C35.991 5.26933 37.6754 4.19578 40.1776 2.58046C43.0491 0.726738 45.0475 -0.201226 48.3552 0.036665ZM38.8147 14.7908C38.8147 13.239 37.7444 11.2294 36.5431 11.2294C35.3419 11.2294 34.2715 13.239 34.2715 14.7908C34.2716 16.3425 35.461 20.3871 36.5431 20.3871C37.6253 20.3871 38.8147 16.3425 38.8147 14.7908Z" fill="white"/>
</svg>
