<svg width="94" height="86" viewBox="0 0 94 86" fill="none" xmlns="http://www.w3.org/2000/svg">
<path fill-rule="evenodd" clip-rule="evenodd" d="M45.6448 2.03666C42.1573 2.2875 40.1227 3.56248 37.4673 6.10676C33.8499 9.57265 31.7994 12.9913 32.0155 18.317C32.1957 22.7552 34.2871 27.4748 36.5586 28.4923C38.8302 29.5098 41.1017 29.5098 42.919 29.001C44.7362 28.4923 46.5535 29.001 46.5535 29.001C46.5535 29.001 47.4621 31.0361 47.9164 34.5974C48.3707 36.1237 49.9084 35.7188 51.0966 36.1237C52.0863 36.461 52.4268 36.6605 53.3681 37.1412C56.4394 38.7097 62 37.65 62 37.65L61.5457 32.5624L60.6371 31.0361L59.2741 32.0536L58.3655 30.5273L56.5483 31.5449L55.6397 30.0186L53.8224 30.5273L52.4595 27.4748L51.0966 25.4397L52.9138 25.9485L54.731 28.4923L56.094 27.9835L57.0026 29.5098L58.8198 28.4923L59.7285 30.0186L61.0914 29.001L61.5457 30.0186L62 27.4748L60.6371 25.4397L62 18.8258L61.0914 16.7908C61.0914 16.7908 60.2963 12.5261 59.2741 10.1768C58.009 7.26933 56.3246 6.19578 53.8224 4.58046C50.9509 2.72674 48.9525 1.79877 45.6448 2.03666ZM55.1853 16.7908C55.1853 15.239 56.2556 13.2294 57.4569 13.2294C58.6581 13.2294 59.7285 15.239 59.7285 16.7908C59.7284 18.3425 58.539 22.3871 57.4569 22.3871C56.3747 22.3871 55.1853 18.3425 55.1853 16.7908Z" fill="white"/>
<path d="M47 40C51.4512 39.8878 58 43 58 43C58 43 51.3133 41.9612 47 42V40Z" fill="white"/>
<path d="M47.1429 45.003C50.3223 44.8909 55 48 55 48C55 48 50.2238 46.4612 47.1429 46.5V45.003Z" fill="white"/>
<path d="M47.1429 50.003C50.3223 49.8909 52 52 52 52C52 52 50.2238 50.9612 47.1429 51V50.003Z" fill="white"/>
<path d="M58.5758 52.8022L52.7234 40.3598L53.5886 39.2622L52.7905 37.5656C52.7905 37.5656 51.8872 37.2997 51.3934 37.532C50.8995 37.7643 50.5283 38.6296 50.5283 38.6296C50.5283 38.6296 49.625 38.3638 49.1311 38.5961C48.6372 38.8284 48.266 39.6937 48.266 39.6937L49.0641 41.3904L50.4612 41.4239L56.3135 53.8663L55.4484 54.9639L56.2465 56.6606C56.2465 56.6606 57.1497 56.9264 57.6436 56.6941C58.1375 56.4618 58.5087 55.5965 58.5087 55.5965C58.5087 55.5965 59.412 55.8623 59.9059 55.63C60.3997 55.3977 60.771 54.5324 60.771 54.5324L59.9729 52.8357L58.5758 52.8022Z" fill="white"/>
<path d="M51.75 80.875V67.125L53 66.5V64.625C53 64.625 52.2958 64 51.75 64C51.2042 64 50.5 64.625 50.5 64.625C50.5 64.625 49.7958 64 49.25 64C48.7042 64 48 64.625 48 64.625V66.5L49.25 67.125V80.875L48 81.5V83.375C48 83.375 48.7042 84 49.25 84C49.7958 84 50.5 83.375 50.5 83.375C50.5 83.375 51.2042 84 51.75 84C52.2958 84 53 83.375 53 83.375V81.5L51.75 80.875Z" fill="white"/>
<path fill-rule="evenodd" clip-rule="evenodd" d="M53.0004 55C53.0004 55 50.0212 52.4177 48.0004 53C46.4083 53.4587 45.0389 54.3436 45.0004 56C44.955 57.9521 49.0004 59 49.0004 59C49.0004 59 47.0004 59.8954 47.0004 61C47.0004 65 53.0004 62 53.0004 62V55ZM51.0004 57C51.5527 57 52.0004 58 52.0004 58V60C52.0004 60 50.6178 61.6175 50.0004 61C49.3829 60.3825 51.0004 59 51.0004 59C51.0004 59 50.2193 57 51.0004 57Z" fill="white"/>
</svg>
