<svg width="94" height="89" viewBox="0 0 94 89" fill="none" xmlns="http://www.w3.org/2000/svg">
<path fill-rule="evenodd" clip-rule="evenodd" d="M34.3192 7.31088C37.5309 5.92849 39.924 6.12406 43.4525 7.16076C48.259 8.57298 51.6529 10.6643 53.912 15.492C55.7946 19.5151 56.11 24.6677 54.5616 26.6165C53.0132 28.5653 50.9965 29.6107 49.149 29.9954C47.3015 30.38 45.9223 31.668 45.9223 31.668C45.9223 31.668 46.0522 33.8929 47.2879 37.2638C47.587 38.8279 46.0354 39.1761 45.167 40.0824C44.4436 40.8374 44.233 41.1712 43.6186 42.0312C41.6137 44.8372 36.1894 46.4555 36.1894 46.4555L34.2512 41.7296L34.3554 39.9564L36.0337 40.2325L36.138 38.4593L38.2196 38.5263L38.3239 36.7531L40.1714 36.3685L39.9765 33.0311L40.2499 30.5972L38.8707 31.8852L38.4281 34.9799L36.9839 35.1555L36.8797 36.9287L34.7981 36.8617L34.6938 38.6349L33.0155 38.3588L33.0805 39.4712L31.5064 37.4219L31.7798 34.988L27.5259 29.7434L27.396 27.5185C27.396 27.5185 26.1391 23.3664 25.9655 20.8103C25.7506 17.6468 26.7519 15.9185 28.2299 13.3328C29.9261 10.3655 31.2732 8.62194 34.3192 7.31088ZM32.6394 24.8004C31.9252 23.4227 30.0502 22.1312 28.9837 22.684C27.9172 23.2369 27.8918 25.5136 28.606 26.8912C29.3202 28.2689 32.2376 31.3123 33.1983 30.8143C34.1591 30.3162 33.3536 26.178 32.6394 24.8004Z" fill="white"/>
<path d="M50.5879 41.6385C46.5844 43.5875 42.2027 49.3644 42.2027 49.3644C42.2027 49.3644 47.6611 45.3647 51.5083 43.4141L50.5879 41.6385Z" fill="white"/>
<path d="M52.7636 46.1458C49.8892 47.5096 47.1673 52.4227 47.1673 52.4227C47.1673 52.4227 50.6994 48.8584 53.4525 47.4749L52.7636 46.1458Z" fill="white"/>
<path d="M55.0647 50.5848C52.1903 51.9486 51.6716 54.5932 51.6716 54.5932C51.6716 54.5932 52.7704 52.8535 55.5235 51.47L55.0647 50.5848Z" fill="white"/>
<path d="M46.4896 61.2262L42.3959 48.0998L41.0165 47.8753L40.4583 46.0853C40.4583 46.0853 40.9445 45.279 41.4655 45.1165C41.9865 44.954 42.8449 45.341 42.8449 45.341C42.8449 45.341 43.3311 44.5347 43.8521 44.3722C44.3731 44.2097 45.2315 44.5967 45.2315 44.5967L45.7897 46.3866L44.7825 47.3554L48.8762 60.4819L50.2556 60.7064L50.8139 62.4964C50.8139 62.4964 50.3277 63.3027 49.8066 63.4652C49.2856 63.6277 48.4272 63.2407 48.4272 63.2407C48.4272 63.2407 47.941 64.047 47.42 64.2095C46.899 64.372 46.0406 63.985 46.0406 63.985L45.4824 62.195L46.4896 61.2262Z" fill="white"/>
<path d="M62.0053 51.5488L52.9774 41.1778L53.5098 39.8856L52.2787 38.4714C52.2787 38.4714 51.3372 38.4624 50.9255 38.8207C50.5139 39.1791 50.3931 40.1129 50.3931 40.1129C50.3931 40.1129 49.4516 40.1038 49.0399 40.4622C48.6282 40.8205 48.5074 41.7543 48.5074 41.7543L49.7385 43.1685L51.0917 42.8192L60.1197 53.1903L59.5872 54.4824L60.8183 55.8966C60.8183 55.8966 61.7598 55.9057 62.1715 55.5473C62.5831 55.189 62.7039 54.2552 62.7039 54.2552C62.7039 54.2552 63.6455 54.2642 64.0571 53.9059C64.4688 53.5475 64.5896 52.6137 64.5896 52.6137L63.3585 51.1995L62.0053 51.5488Z" fill="white"/>
<path d="M53.1944 80.9202L54.0606 67.1975L52.8525 66.495L52.9706 64.6238C52.9706 64.6238 53.7128 64.0444 54.2575 64.0787C54.8022 64.1131 55.4656 64.7812 55.4656 64.7812C55.4656 64.7812 56.2078 64.2019 56.7525 64.2362C57.2972 64.2706 57.9606 64.9387 57.9606 64.9387L57.8425 66.81L56.5556 67.355L55.6895 81.0777L56.8976 81.7802L56.7795 83.6515C56.7795 83.6515 56.0373 84.2309 55.4926 84.1965C54.9479 84.1621 54.2845 83.494 54.2845 83.494C54.2845 83.494 53.5423 84.0734 52.9976 84.039C52.4529 84.0046 51.7894 83.3365 51.7894 83.3365L51.9075 81.4652L53.1944 80.9202Z" fill="white"/>
<path d="M65.9808 79.62L62.4073 66.3425L63.4519 65.4141L62.9646 63.6035C62.9646 63.6035 62.1221 63.183 61.5951 63.3249C61.0681 63.4667 60.5505 64.2532 60.5505 64.2532C60.5505 64.2532 59.708 63.8327 59.181 63.9746C58.654 64.1164 58.1364 64.903 58.1364 64.903L58.6237 66.7136L59.9932 66.9922L63.5667 80.2697L62.5221 81.1981L63.0094 83.0087C63.0094 83.0087 63.8518 83.4292 64.3789 83.2873C64.9059 83.1455 65.4235 82.359 65.4235 82.359C65.4235 82.359 66.2659 82.7795 66.793 82.6376C67.32 82.4958 67.8376 81.7092 67.8376 81.7092L67.3503 79.8987L65.9808 79.62Z" fill="white"/>
<path fill-rule="evenodd" clip-rule="evenodd" d="M52.1642 57.717C52.1642 57.717 53.6207 54.0534 55.6827 53.6403C57.3073 53.3148 58.9303 53.4702 59.7268 54.923C60.6655 56.6352 57.5563 59.4273 57.5563 59.4273C57.5563 59.4273 59.744 59.3018 60.2524 60.2825C62.0933 63.8337 55.3858 63.9316 55.3858 63.9316L52.1642 57.717ZM54.8603 58.5722C54.3699 58.8263 54.4327 59.9202 54.4327 59.9202L55.3531 61.6958C55.3531 61.6958 57.325 62.4955 57.589 61.6631C57.853 60.8308 55.7807 60.3478 55.7807 60.3478C55.7807 60.3478 55.5537 58.2127 54.8603 58.5722Z" fill="white"/>
</svg>
