<svg width="68" height="101" viewBox="0 0 68 101" fill="none" xmlns="http://www.w3.org/2000/svg">
<path d="M23.5 53.4341C24.6265 56.7365 27.5 58.6513 27.5 58.6513C27.5 58.6513 27.0001 62.3034 27.5 63.8686C28 65.4338 32.5001 67.0474 34.5 66.9989C36.5 66.9504 40 65.4338 40.5 63.8686C41.0001 62.3034 40.5 58.6513 40.5 58.6513C40.5 58.6513 43.3735 56.7365 44.5 53.4341C45.875 49.4031 47.8044 43.9301 45.5 40.391C42.9666 36.5002 39.3001 34.8218 34.5 34.652C29.3479 34.4698 25.1686 36.1258 22.5 40.391C20.2677 43.9588 22.1095 49.358 23.4828 53.3837L23.5 53.4341Z" fill="#FFDCC9" stroke="black"/>
<path d="M31.2743 49.2612C30.2512 48.5232 29.1749 48.607 28.1019 49.2612C27.0207 49.9205 26.3906 50.9544 26.5157 52.193C26.6343 53.3658 27.0927 54.2011 28.1019 54.706C28.9417 55.1261 29.6172 55.067 30.4812 54.706C31.6059 54.2361 32.2985 53.4585 32.4639 52.193C32.6252 50.959 32.2482 49.9637 31.2743 49.2612Z" fill="black" stroke="black"/>
<path d="M37.7257 49.2612C38.7488 48.5232 39.8251 48.607 40.8981 49.2612C41.9793 49.9205 42.6094 50.9544 42.4843 52.193C42.3657 53.3658 41.9073 54.2011 40.8981 54.706C40.0583 55.1261 39.3828 55.067 38.5188 54.706C37.3941 54.2361 36.7015 53.4585 36.5361 52.193C36.3748 50.959 36.7518 49.9637 37.7257 49.2612Z" fill="black" stroke="black"/>
<path d="M33.5988 57.5354C33.1266 56.6495 34.5 54.9993 34.5 54.9993C34.5 54.9993 35.8734 56.6495 35.4012 57.5354C34.9789 58.3277 34.0211 58.3277 33.5988 57.5354Z" fill="black" stroke="black"/>
<path d="M27.5 44.0431L21 47.6952L18 40.9128L23.5 44.0431L24.5 34.6521L30 39.8693L35 31L39.5 39.8693L45.5 34.6521L44.5 42.9997L50 40.9128L47 47.6952L41 44.0431L34.25 42.4779L27.5 44.0431Z" fill="#F3EC5A" stroke="black"/>
<path d="M33.5 37.735L35 36.2173L36.5 37.735L35 40.3911L33.5 37.735Z" fill="#FF2A2A"/>
<path d="M35 36.2173L33.5 37.735M35 36.2173L36.5 37.735M35 36.2173L35.45 38.1145M35 36.2173L34.55 38.1145M33.5 37.735L35 40.3911M33.5 37.735L34.55 38.1145M35 40.3911L36.5 37.735M35 40.3911V38.1145M36.5 37.735L35.45 38.1145M34.55 38.1145H35M35.45 38.1145H35" stroke="black" stroke-width="0.5"/>
<path d="M26.5 41.1499L27.5 40.391L28.5 41.1499L27.5 42.4779L26.5 41.1499Z" fill="#40BDCE"/>
<path d="M27.5 40.391L26.5 41.1499M27.5 40.391L28.5 41.1499M27.5 40.391L27.8 41.3396M27.5 40.391L27.2 41.3396M26.5 41.1499L27.5 42.4779M26.5 41.1499L27.2 41.3396M27.5 42.4779L28.5 41.1499M27.5 42.4779V41.3396M28.5 41.1499L27.8 41.3396M27.2 41.3396H27.5M27.8 41.3396H27.5" stroke="black" stroke-width="0.2"/>
<path d="M40.5 41.1499L41.5 40.391L42.5 41.1499L41.5 42.4779L40.5 41.1499Z" fill="#40BDCE"/>
<path d="M41.5 40.391L40.5 41.1499M41.5 40.391L42.5 41.1499M41.5 40.391L41.8 41.3396M41.5 40.391L41.2 41.3396M40.5 41.1499L41.5 42.4779M40.5 41.1499L41.2 41.3396M41.5 42.4779L42.5 41.1499M41.5 42.4779V41.3396M42.5 41.1499L41.8 41.3396M41.2 41.3396H41.5M41.8 41.3396H41.5" stroke="black" stroke-width="0.2"/>
<path d="M29.5 58.5L32.5 60H34.5H36.5L38.5 58.5V61.5L36.5 63.5H34.5H32.5L29.5 61.5V58.5Z" fill="#FFFDFD"/>
<path d="M32.5 60L29.5 58.5V61.5L32.5 63.5M32.5 60V63.5M32.5 60H34.5M36.5 60L38.5 58.5V61.5L36.5 63.5M36.5 60V63.5M36.5 60H34.5M36.5 63.5H34.5M32.5 63.5H34.5M34.5 60V63.5" stroke="black"/>
<path d="M30 70L22 67L30 74H39L46 67L38 70H30Z" fill="#FFDCC9"/>
<path d="M30 78L24 75.5L30 81.5H39L44.5 75.5L39 78H30Z" fill="#FFDCC9"/>
<path d="M36.5 85.5H32.5L27.5 84L32.5 88H36.5L41.5 84L36.5 85.5Z" fill="#FFDCC9"/>
<path d="M31.5 92L29 88.5H24L25 96L31.5 100H37.5L43.5 96L45 88.5H40L37.5 92H31.5Z" fill="#FFDCC9"/>
<path d="M30 70L22 67L30 74H39L46 67L38 70H30Z" stroke="black"/>
<path d="M30 78L24 75.5L30 81.5H39L44.5 75.5L39 78H30Z" stroke="black"/>
<path d="M36.5 85.5H32.5L27.5 84L32.5 88H36.5L41.5 84L36.5 85.5Z" stroke="black"/>
<path d="M31.5 92L29 88.5H24L25 96L31.5 100H37.5L43.5 96L45 88.5H40L37.5 92H31.5Z" stroke="black"/>
<path d="M14.1093 76.0236L7.10932 90.0236C7.10932 90.0236 2.6207 89.5402 1.60932 91.5236C0.988398 92.7412 0.625415 94.0748 1.60932 95.0236C2.7684 96.1413 5.60932 94.0236 5.60932 94.0236C5.60932 94.0236 5.75605 96.9071 7.10932 97.5236C8.78568 98.2872 10.7208 96.8242 11.1093 95.0236C11.423 93.57 9.60932 91.5236 9.60932 91.5236L16.6093 77.0236C16.6093 77.0236 18.6906 76.8488 19.6093 76.0236C20.9485 74.8205 22.0476 72.6063 20.6093 71.5236C19.2765 70.5202 16.6093 73.0236 16.6093 73.0236C16.6093 73.0236 15.7502 69.1646 14.1093 69.5236C12.6566 69.8414 12.522 71.5391 12.6093 73.0236C12.6862 74.3312 14.1093 76.0236 14.1093 76.0236Z" fill="#FFDCC9" stroke="black"/>
<path d="M54.1775 76.0236L61.1775 90.0236C61.1775 90.0236 65.6662 89.5402 66.6775 91.5236C67.2985 92.7412 67.6615 94.0748 66.6775 95.0236C65.5185 96.1413 62.6775 94.0236 62.6775 94.0236C62.6775 94.0236 62.5308 96.9071 61.1775 97.5236C59.5012 98.2872 57.5661 96.8242 57.1775 95.0236C56.8639 93.57 58.6775 91.5236 58.6775 91.5236L51.6775 77.0236C51.6775 77.0236 49.5962 76.8488 48.6775 76.0236C47.3383 74.8205 46.2393 72.6063 47.6775 71.5236C49.0104 70.5202 51.6775 73.0236 51.6775 73.0236C51.6775 73.0236 52.5366 69.1646 54.1775 69.5236C55.6303 69.8414 55.7649 71.5391 55.6775 73.0236C55.6006 74.3312 54.1775 76.0236 54.1775 76.0236Z" fill="#FFDCC9" stroke="black"/>
</svg>
