<svg width="94" height="86" viewBox="0 0 94 86" fill="none" xmlns="http://www.w3.org/2000/svg">
<path fill-rule="evenodd" clip-rule="evenodd" d="M46.4022 2.00047C41.1113 2.04116 37.5164 4.69499 35.0498 9.34187C32.6878 13.7917 35.0498 22.2215 35.0498 22.2215L37.969 27.631V33.9116C37.969 33.9116 42.5492 38.9233 46.4022 38.9991C50.3859 39.0775 55.0949 33.9116 55.0949 33.9116V27.631L57.9492 22.2215C57.9492 22.2215 60.3134 13.7906 57.9492 9.34187C55.4506 4.64013 51.757 1.95929 46.4022 2.00047ZM43.8074 23.5739L46.4022 17.8424L48.9322 23.5739C48.9322 23.5739 48.4441 24.8098 47.7645 24.8619C47.032 24.9179 46.4022 23.5739 46.4022 23.5739C46.4022 23.5739 45.8676 24.8272 45.1697 24.8619C44.4359 24.8983 43.8074 23.5739 43.8074 23.5739ZM52.1109 13.5922C50.4837 13.7508 49.2893 14.713 48.9322 16.2969C48.4389 18.4846 50.6466 20.7458 52.8893 20.4828C54.9222 20.2444 56.4345 18.2834 56.0031 16.2969C55.6121 14.4963 53.9574 13.4121 52.1109 13.5922ZM40.6287 13.5922C42.2558 13.7508 43.4503 14.713 43.8074 16.2969C44.3006 18.4846 42.0929 20.7458 39.8502 20.4828C37.8174 20.2444 36.3051 18.2834 36.7364 16.2969C37.1274 14.4963 38.7822 13.4121 40.6287 13.5922ZM40.7584 25.699L38.8123 24.8619L41.9261 33.4305L42.8343 33.3017L43.8074 34.3321L44.5858 33.3017L45.5589 34.3321L46.5319 33.3017L47.4401 34.3321L48.2835 33.3017L49.2565 34.3321L50.035 33.3017L51.2675 33.4305L54.1219 24.8619L52.1109 25.699V28.4038L51.2675 30.0137L50.035 28.7258L49.2565 30.3357L48.2835 28.7258L47.3104 30.7221L46.4022 28.7258L45.5589 30.7221L44.5858 28.7258L43.8074 30.3357L42.8343 28.7258L41.9261 30.0137L40.7584 28.275V25.699Z" fill="white"/>
<path d="M47 40C42.5488 39.8878 36 43 36 43C36 43 42.6867 41.9611 47 42C50.9246 42.0354 57 43 57 43C57 43 51.0759 40.1028 47 40Z" fill="white"/>
<path d="M46.8571 45.003C43.6777 44.8909 39 48 39 48C39 48 43.7762 46.4612 46.8571 46.5C49.6604 46.5353 54 48 54 48C54 48 49.7685 45.1056 46.8571 45.003Z" fill="white"/>
<path d="M46.8571 50.003C43.6777 49.8909 42 52 42 52C42 52 43.7762 50.9612 46.8571 51C49.6604 51.0353 51 52 51 52C51 52 49.7685 50.1056 46.8571 50.003Z" fill="white"/>
<path d="M72.4713 47.5959L61.7889 38.9387L62.0904 37.5741L60.6337 36.3935C60.6337 36.3935 59.7047 36.5471 59.3611 36.9711C59.0174 37.3952 59.0596 38.3358 59.0596 38.3358C59.0596 38.3358 58.1307 38.4894 57.787 38.9134C57.4434 39.3374 57.4856 40.278 57.4856 40.278L58.9423 41.4586L60.2149 40.881L70.8973 49.5382L70.5958 50.9029L72.0525 52.0834C72.0525 52.0834 72.9815 51.9298 73.3251 51.5058C73.6687 51.0818 73.6266 50.1411 73.6266 50.1411C73.6266 50.1411 74.5555 49.9875 74.8992 49.5635C75.2428 49.1395 75.2006 48.1989 75.2006 48.1989L73.7439 47.0183L72.4713 47.5959Z" fill="white"/>
<path d="M56.75 80.875V67.125L58 66.5V64.625C58 64.625 57.2958 64 56.75 64C56.2042 64 55.5 64.625 55.5 64.625C55.5 64.625 54.7958 64 54.25 64C53.7042 64 53 64.625 53 64.625V66.5L54.25 67.125V80.875L53 81.5V83.375C53 83.375 53.7042 84 54.25 84C54.7958 84 55.5 83.375 55.5 83.375C55.5 83.375 56.2042 84 56.75 84C57.2958 84 58 83.375 58 83.375V81.5L56.75 80.875Z" fill="white"/>
<path d="M29.8803 78.5293L38.4563 67.7816L39.8232 68.0727L40.9927 66.6071C40.9927 66.6071 40.832 65.6793 40.4054 65.3389C39.9788 64.9985 39.0385 65.0478 39.0385 65.0478C39.0385 65.0478 38.8779 64.12 38.4513 63.7796C38.0247 63.4392 37.0844 63.4885 37.0844 63.4885L35.9149 64.9541L36.5022 66.2223L27.9262 76.9701L26.5593 76.679L25.3898 78.1446C25.3898 78.1446 25.5505 79.0723 25.9771 79.4127C26.4037 79.7531 27.3439 79.7038 27.3439 79.7038C27.3439 79.7038 27.5046 80.6316 27.9312 80.972C28.3578 81.3124 29.2981 81.2631 29.2981 81.2631L30.4675 79.7975L29.8803 78.5293Z" fill="white"/>
<path d="M30.5883 54.9096L32.1109 41.2442L30.9378 40.4846L31.1454 38.6212C31.1454 38.6212 31.9145 38.078 32.457 38.1384C32.9994 38.1989 33.6301 38.898 33.6301 38.898C33.6301 38.898 34.3992 38.3548 34.9416 38.4153C35.484 38.4757 36.1147 39.1748 36.1147 39.1748L35.9071 41.0383L34.5955 41.521L33.073 55.1865L34.2461 55.946L34.0385 57.8095C34.0385 57.8095 33.2694 58.3527 32.7269 58.2923C32.1845 58.2318 31.5538 57.5327 31.5538 57.5327C31.5538 57.5327 30.7847 58.0759 30.2423 58.0154C29.6999 57.955 29.0692 57.2559 29.0692 57.2559L29.2768 55.3924L30.5883 54.9096Z" fill="white"/>
<path fill-rule="evenodd" clip-rule="evenodd" d="M47.0004 55C47.0004 55 44.0212 52.4177 42.0004 53C40.4083 53.4587 39.0389 54.3436 39.0004 56C38.955 57.9521 43.0004 59 43.0004 59C43.0004 59 41.0004 59.8954 41.0004 61C41.0004 65 47.0004 62 47.0004 62C47.0004 62 53.0004 65 53.0004 61C53.0004 59.8954 51.0004 59 51.0004 59C51.0004 59 55.0458 57.9521 55.0004 56C54.9619 54.3436 53.5925 53.4587 52.0004 53C49.9796 52.4177 47.0004 55 47.0004 55ZM45.0004 57C45.5527 57 46.0004 58 46.0004 58V60C46.0004 60 44.6178 61.6175 44.0004 61C43.3829 60.3825 45.0004 59 45.0004 59C45.0004 59 44.2193 57 45.0004 57ZM48.5004 57C47.9481 57 47.5004 58 47.5004 58V60C47.5004 60 48.8829 61.6175 49.5004 61C50.1178 60.3825 48.5004 59 48.5004 59C48.5004 59 49.2814 57 48.5004 57Z" fill="white"/>
</svg>
