<svg width="94" height="86" viewBox="0 0 94 86" fill="none" xmlns="http://www.w3.org/2000/svg">
<path fill-rule="evenodd" clip-rule="evenodd" d="M48.3552 2.03666C51.8427 2.2875 53.8773 3.56248 56.5327 6.10676C60.1501 9.57265 62.2006 12.9913 61.9845 18.317C61.8043 22.7552 59.7129 27.4748 57.4414 28.4923C55.1698 29.5098 52.8983 29.5098 51.081 29.001C49.2638 28.4923 47.4465 29.001 47.4465 29.001C47.4465 29.001 46.5379 31.0361 46.0836 34.5974C45.6293 36.1237 44.0916 35.7188 42.9034 36.1237C41.9137 36.461 41.5732 36.6605 40.6319 37.1412C37.5606 38.7097 32 37.65 32 37.65L32.4543 32.5624L33.3629 31.0361L34.7259 32.0536L35.6345 30.5273L37.4517 31.5449L38.3603 30.0186L40.1776 30.5273L41.5405 27.4748L42.9034 25.4397L41.0862 25.9485L39.269 28.4923L37.906 27.9835L36.9974 29.5098L35.1802 28.4923L34.2715 30.0186L32.9086 29.001L32.4543 30.0186L32 27.4748L33.3629 25.4397L32 18.8258L32.9086 16.7908C32.9086 16.7908 33.7037 12.5261 34.7259 10.1768C35.991 7.26933 37.6754 6.19578 40.1776 4.58046C43.0491 2.72674 45.0475 1.79877 48.3552 2.03666ZM38.8147 16.7908C38.8147 15.239 37.7444 13.2294 36.5431 13.2294C35.3419 13.2294 34.2715 15.239 34.2715 16.7908C34.2716 18.3425 35.461 22.3871 36.5431 22.3871C37.6253 22.3871 38.8147 18.3425 38.8147 16.7908Z" fill="white"/>
<path d="M47 40C42.5488 39.8878 36 43 36 43C36 43 42.6867 41.9612 47 42V40Z" fill="white"/>
<path d="M46.8571 45.003C43.6777 44.8909 39 48 39 48C39 48 43.7762 46.4612 46.8571 46.5V45.003Z" fill="white"/>
<path d="M46.8571 50.003C43.6777 49.8909 42 52 42 52C42 52 43.7762 50.9612 46.8571 51V50.003Z" fill="white"/>
<path d="M35.4242 52.8022L41.2766 40.3598L40.4114 39.2622L41.2095 37.5656C41.2095 37.5656 42.1128 37.2997 42.6066 37.532C43.1005 37.7643 43.4717 38.6296 43.4717 38.6296C43.4717 38.6296 44.375 38.3638 44.8689 38.5961C45.3628 38.8284 45.734 39.6937 45.734 39.6937L44.9359 41.3904L43.5388 41.4239L37.6865 53.8663L38.5516 54.9639L37.7535 56.6606C37.7535 56.6606 36.8503 56.9264 36.3564 56.6941C35.8625 56.4618 35.4913 55.5965 35.4913 55.5965C35.4913 55.5965 34.588 55.8623 34.0941 55.63C33.6003 55.3977 33.229 54.5324 33.229 54.5324L34.0271 52.8357L35.4242 52.8022Z" fill="white"/>
<path d="M42.25 80.875V67.125L41 66.5V64.625C41 64.625 41.7042 64 42.25 64C42.7958 64 43.5 64.625 43.5 64.625C43.5 64.625 44.2042 64 44.75 64C45.2958 64 46 64.625 46 64.625V66.5L44.75 67.125V80.875L46 81.5V83.375C46 83.375 45.2958 84 44.75 84C44.2042 84 43.5 83.375 43.5 83.375C43.5 83.375 42.7958 84 42.25 84C41.7042 84 41 83.375 41 83.375V81.5L42.25 80.875Z" fill="white"/>
<path fill-rule="evenodd" clip-rule="evenodd" d="M40.9996 55C40.9996 55 43.9788 52.4177 45.9996 53C47.5917 53.4587 48.9611 54.3436 48.9996 56C49.045 57.9521 44.9996 59 44.9996 59C44.9996 59 46.9996 59.8954 46.9996 61C46.9996 65 40.9996 62 40.9996 62V55ZM42.9996 57C42.4473 57 41.9996 58 41.9996 58V60C41.9996 60 43.3822 61.6175 43.9996 61C44.6171 60.3825 42.9996 59 42.9996 59C42.9996 59 43.7807 57 42.9996 57Z" fill="white"/>
</svg>
