<svg width="94" height="89" viewBox="0 0 94 89" fill="none" xmlns="http://www.w3.org/2000/svg">
<path fill-rule="evenodd" clip-rule="evenodd" d="M59.6807 7.31088C56.469 5.92849 54.0759 6.12406 50.5475 7.16076C45.7409 8.57298 42.3471 10.6643 40.0879 15.492C38.2053 19.5151 37.89 24.6677 39.4383 26.6165C40.9867 28.5653 43.0034 29.6107 44.8509 29.9954C46.6984 30.38 48.0776 31.668 48.0776 31.668C48.0776 31.668 47.9477 33.8929 46.712 37.2638C46.4129 38.8279 47.9645 39.1761 48.833 40.0824C49.5564 40.8374 49.7669 41.1712 50.3813 42.0312C52.3862 44.8372 57.8106 46.4555 57.8106 46.4555L59.7487 41.7296L59.6445 39.9564L57.9662 40.2325L57.862 38.4593L55.7803 38.5263L55.6761 36.7531L53.8286 36.3685L54.0235 33.0311L53.75 30.5972L55.1292 31.8852L55.5718 34.9799L57.016 35.1555L57.1202 36.9287L59.2019 36.8617L59.3061 38.6349L60.9844 38.3588L60.9195 39.4712L62.4935 37.4219L62.2201 34.988L66.474 29.7434L66.6039 27.5185C66.6039 27.5185 67.8608 23.3664 68.0345 20.8103C68.2494 17.6468 67.2481 15.9185 65.77 13.3328C64.0738 10.3655 62.7267 8.62194 59.6807 7.31088ZM61.3605 24.8004C62.0747 23.4227 63.9498 22.1312 65.0162 22.684C66.0827 23.2369 66.1081 25.5136 65.3939 26.8912C64.6797 28.2689 61.7624 31.3123 60.8016 30.8143C59.8409 30.3162 60.6464 26.178 61.3605 24.8004Z" fill="white"/>
<path d="M43.4121 41.6385C47.4156 43.5875 51.7972 49.3644 51.7972 49.3644C51.7972 49.3644 46.3389 45.3647 42.4916 43.4141L43.4121 41.6385Z" fill="white"/>
<path d="M41.2364 46.1458C44.1108 47.5096 46.8327 52.4227 46.8327 52.4227C46.8327 52.4227 43.3006 48.8584 40.5475 47.4749L41.2364 46.1458Z" fill="white"/>
<path d="M38.9353 50.5848C41.8096 51.9486 42.3284 54.5932 42.3284 54.5932C42.3284 54.5932 41.2295 52.8535 38.4764 51.47L38.9353 50.5848Z" fill="white"/>
<path d="M61.7971 55.7399L51.2171 46.9578L51.5345 45.5968L50.0918 44.3992C50.0918 44.3992 49.1611 44.5419 48.8125 44.9618C48.4639 45.3818 48.495 46.3228 48.495 46.3228C48.495 46.3228 47.5643 46.4655 47.2158 46.8855C46.8672 47.3054 46.8983 48.2465 46.8983 48.2465L48.341 49.444L49.6203 48.8814L60.2003 57.6635L59.8829 59.0245L61.3256 60.2221C61.3256 60.2221 62.2563 60.0794 62.6049 59.6595C62.9535 59.2395 62.9223 58.2985 62.9223 58.2985C62.9223 58.2985 63.853 58.1558 64.2016 57.7358C64.5502 57.3159 64.5191 56.3748 64.5191 56.3748L63.0764 55.1773L61.7971 55.7399Z" fill="white"/>
<path d="M24.7139 45.007L38.1128 41.9197L38.4412 40.5613L40.2683 40.1403C40.2683 40.1403 41.0355 40.6862 41.158 41.2181C41.2806 41.7499 40.8296 42.5765 40.8296 42.5765C40.8296 42.5765 41.5968 43.1224 41.7193 43.6543C41.8419 44.1861 41.3909 45.0127 41.3909 45.0127L39.5638 45.4336L38.6741 44.3559L25.2752 47.4431L24.9468 48.8015L23.1197 49.2225C23.1197 49.2225 22.3525 48.6766 22.23 48.1448C22.1074 47.6129 22.5584 46.7864 22.5584 46.7864C22.5584 46.7864 21.7912 46.2404 21.6687 45.7086C21.5461 45.1768 21.997 44.3502 21.997 44.3502L23.8242 43.9292L24.7139 45.007Z" fill="white"/>
<path d="M52.0929 78.0775L43.6394 67.2331L44.241 65.9717L43.0882 64.4929C43.0882 64.4929 42.1486 64.4329 41.7181 64.7685C41.2877 65.104 41.1165 66.0299 41.1165 66.0299C41.1165 66.0299 40.1769 65.97 39.7464 66.3055C39.316 66.641 39.1448 67.5669 39.1448 67.5669L40.2976 69.0457L41.6677 68.7701L50.1212 79.6145L49.5196 80.8759L50.6723 82.3547C50.6723 82.3547 51.612 82.4147 52.0424 82.0791C52.4729 81.7436 52.644 80.8177 52.644 80.8177C52.644 80.8177 53.5837 80.8777 54.0141 80.5421C54.4446 80.2066 54.6157 79.2807 54.6157 79.2807L53.463 77.8019L52.0929 78.0775Z" fill="white"/>
<path d="M16.4088 70.2339L28.4538 63.6022L28.3985 62.2058L30.041 61.3014C30.041 61.3014 30.9281 61.6169 31.1913 62.095C31.4546 62.5731 31.2467 63.4914 31.2467 63.4914C31.2467 63.4914 32.1339 63.8069 32.3971 64.285C32.6603 64.7631 32.4525 65.6814 32.4525 65.6814L30.81 66.5858L29.6596 65.7922L17.6146 72.4239L17.67 73.8204L16.0275 74.7247C16.0275 74.7247 15.1403 74.4093 14.8771 73.9312C14.6138 73.4531 14.8217 72.5347 14.8217 72.5347C14.8217 72.5347 13.9345 72.2193 13.6713 71.7412C13.4081 71.2631 13.6159 70.3447 13.6159 70.3447L15.2584 69.4404L16.4088 70.2339Z" fill="white"/>
<path fill-rule="evenodd" clip-rule="evenodd" d="M41.8357 57.717C41.8357 57.717 40.3793 54.0534 38.3172 53.6403C36.6926 53.3148 35.0696 53.4702 34.2731 54.923C33.3344 56.6352 36.4436 59.4273 36.4436 59.4273C36.4436 59.4273 34.2559 59.3018 33.7476 60.2825C31.9067 63.8337 38.6142 63.9316 38.6142 63.9316L41.8357 57.717ZM39.1397 58.5722C39.63 58.8263 39.5673 59.9202 39.5673 59.9202L38.6468 61.6958C38.6468 61.6958 36.675 62.4955 36.411 61.6631C36.1469 60.8308 38.2192 60.3478 38.2192 60.3478C38.2192 60.3478 38.4463 58.2127 39.1397 58.5722Z" fill="white"/>
</svg>
