<svg width="94" height="86" viewBox="0 0 94 86" fill="none" xmlns="http://www.w3.org/2000/svg">
<path d="M47 72C42.5488 71.8878 36 75 36 75C36 75 42.6867 73.9611 47 74C50.9246 74.0354 57 75 57 75C57 75 51.0759 72.1028 47 72Z" fill="white"/>
<path d="M46.8571 77.003C43.6777 76.8909 39 80 39 80C39 80 43.7762 78.4612 46.8571 78.5C49.6604 78.5353 54 80 54 80C54 80 49.7685 77.1056 46.8571 77.003Z" fill="white"/>
<path d="M72.4713 79.5959L61.7889 70.9387L62.0903 69.5741L60.6336 68.3935C60.6336 68.3935 59.7047 68.5471 59.361 68.9711C59.0174 69.3952 59.0596 70.3358 59.0596 70.3358C59.0596 70.3358 58.1306 70.4894 57.787 70.9134C57.4434 71.3374 57.4855 72.278 57.4855 72.278L58.9422 73.4586L60.2148 72.881L70.8973 81.5382L70.5958 82.9029L72.0525 84.0834C72.0525 84.0834 72.9815 83.9298 73.3251 83.5058C73.6687 83.0818 73.6265 82.1411 73.6265 82.1411C73.6265 82.1411 74.5555 81.9875 74.8991 81.5635C75.2428 81.1395 75.2006 80.1989 75.2006 80.1989L73.7439 79.0183L72.4713 79.5959Z" fill="white"/>
<path d="M20.2148 79.5959L30.8973 70.9387L30.5958 69.5741L32.0525 68.3935C32.0525 68.3935 32.9815 68.5471 33.3251 68.9711C33.6687 69.3952 33.6266 70.3358 33.6266 70.3358C33.6266 70.3358 34.5555 70.4894 34.8992 70.9134C35.2428 71.3374 35.2006 72.278 35.2006 72.278L33.7439 73.4586L32.4713 72.881L21.7889 81.5382L22.0904 82.9029L20.6337 84.0834C20.6337 84.0834 19.7047 83.9298 19.3611 83.5058C19.0174 83.0818 19.0596 82.1411 19.0596 82.1411C19.0596 82.1411 18.1307 81.9875 17.787 81.5635C17.4434 81.1395 17.4856 80.1989 17.4856 80.1989L18.9423 79.0183L20.2148 79.5959Z" fill="white"/>
<path fill-rule="evenodd" clip-rule="evenodd" d="M46.4022 34.0005C41.1113 34.0412 37.5164 36.695 35.0498 41.3419C32.6878 45.7917 35.0498 54.2215 35.0498 54.2215L37.969 59.631V64.9116C37.969 64.9116 42.5492 69.9233 46.4022 69.9991C50.3859 70.0775 55.0949 64.9116 55.0949 64.9116V59.631L57.9492 54.2215C57.9492 54.2215 60.3134 45.7906 57.9492 41.3419C55.4506 36.6401 51.757 33.9593 46.4022 34.0005ZM43.8074 55.5739L46.4022 49.8424L48.9322 55.5739C48.9322 55.5739 48.4441 56.8098 47.7645 56.8619C47.032 56.9179 46.4022 55.5739 46.4022 55.5739C46.4022 55.5739 45.8676 56.8272 45.1697 56.8619C44.4359 56.8983 43.8074 55.5739 43.8074 55.5739ZM52.1109 45.5922C50.4837 45.7508 49.2893 46.713 48.9322 48.2969C48.4389 50.4846 50.6466 54.7458 52.8893 54.4828C54.9222 54.2444 56.4345 50.2834 56.0031 48.2969C55.6121 46.4963 53.9574 45.4121 52.1109 45.5922ZM40.6287 45.5922C42.2558 45.7508 43.4503 46.713 43.8074 48.2969C44.3006 50.4846 42.0929 54.7458 39.8502 54.4828C37.8174 54.2444 36.3051 50.2834 36.7364 48.2969C37.1274 46.4963 38.7822 45.4121 40.6287 45.5922ZM40.7584 57.699L38.8123 56.8619L41.9261 63.4305L42.8343 63.3017L43.8074 64.3321L44.5858 63.3017L45.5589 64.3321L46.5319 63.3017L47.4401 64.3321L48.2835 63.3017L49.2565 64.3321L50.035 63.3017L51.2675 63.4305L54.1219 56.8619L52.1109 57.699V60.4038L51.2675 62.0137L50.035 60.7258L49.2565 62.3357L48.2835 60.7258L47.3104 62.7221L46.4022 60.7258L45.5589 62.7221L44.5858 60.7258L43.8074 62.3357L42.8343 60.7258L41.9261 62.0137L40.7584 60.275V57.699Z" fill="white"/>
</svg>
