<svg width="94" height="86" viewBox="0 0 94 86" fill="none" xmlns="http://www.w3.org/2000/svg">
<g clip-path="url(#clip0)">
<path fill-rule="evenodd" clip-rule="evenodd" d="M63.9148 69.0161C62.5652 63.9 59.1038 61.0742 53.9909 59.8351C49.0947 58.6486 41.5123 63.0244 41.5123 63.0244L36.9942 67.1922L31.878 68.4999C31.878 68.4999 28.1566 74.1784 29.0373 77.9302C29.9478 81.8093 36.1188 85.0924 36.1188 85.0924L41.235 83.7848L47.1828 85.2107C47.1828 85.2107 55.9366 85.4136 59.6613 82.0214C63.5979 78.4363 65.2806 74.1939 63.9148 69.0161ZM42.3707 71.8442L48.5662 72.9389L43.6397 76.8094C43.6397 76.8094 42.3214 76.6426 42.1027 75.997C41.867 75.3012 43.0132 74.3582 43.0132 74.3582C43.0132 74.3582 41.6666 74.1506 41.4601 73.483C41.2431 72.7811 42.3707 71.8442 42.3707 71.8442ZM54.0977 77.4173C53.5411 75.8802 52.313 74.9612 50.6901 75.0074C48.4484 75.0712 46.8043 77.7701 47.6144 79.8778C48.3488 81.7884 50.6232 82.7679 52.441 81.8581C54.0887 81.0335 54.7294 79.1618 54.0977 77.4173ZM51.2544 66.2928C51.5036 67.9085 50.8671 69.304 49.421 70.0422C47.4236 71.0618 44.6862 69.4828 44.3856 67.2448C44.1132 65.2162 45.6387 63.2655 47.6701 63.1915C49.5114 63.1244 50.9716 64.4591 51.2544 66.2928ZM39.5567 69.4164L39.8859 67.3236L34.2929 71.967L34.6426 72.815L33.8853 74.0129L35.0763 74.512L34.319 75.7099L35.5582 76.3975L34.7848 77.5325L35.9919 78.0945L35.2346 79.2924L36.4257 79.7914L36.6061 81.0175L43.6769 82.1563L42.3679 80.4153L39.7474 81.085L37.9787 80.6666L38.9214 79.1536L37.1688 78.798L38.4876 77.4566L36.3125 77.0082L38.0218 75.6339L35.8788 75.3112L37.572 73.8741L35.8194 73.5186L37.1383 72.1771L35.6656 71.6162L37.061 70.0543L39.5567 69.4164Z" fill="white"/>
</g>
<defs>
<clipPath id="clip0">
<rect width="94" height="86" fill="white"/>
</clipPath>
</defs>
</svg>
