<svg width="66" height="101" viewBox="0 0 66 101" fill="none" xmlns="http://www.w3.org/2000/svg">
<path d="M22.5 86.4341C23.6265 89.7365 26.5 91.6513 26.5 91.6513C26.5 91.6513 26.0001 95.3034 26.5 96.8686C27 98.4338 31.5001 100.047 33.5 99.9989C35.5 99.9504 39 98.4338 39.5 96.8686C40.0001 95.3034 39.5 91.6513 39.5 91.6513C39.5 91.6513 42.3735 89.7365 43.5 86.4341C44.875 82.4031 46.8044 76.9301 44.5 73.391C41.9666 69.5002 38.3001 67.8218 33.5 67.652C28.3479 67.4698 24.1686 69.1258 21.5 73.391C19.2677 76.9588 21.1095 82.358 22.4828 86.3837L22.5 86.4341Z" fill="#FFDCC9" stroke="black"/>
<path d="M30.2743 82.2612C29.2512 81.5232 28.1749 81.607 27.1019 82.2612C26.0207 82.9205 25.3906 83.9544 25.5157 85.193C25.6343 86.3658 26.0927 87.2011 27.1019 87.706C27.9417 88.1261 28.6172 88.067 29.4812 87.706C30.6059 87.2361 31.2985 86.4585 31.4639 85.193C31.6252 83.959 31.2482 82.9637 30.2743 82.2612Z" fill="black" stroke="black"/>
<path d="M36.7257 82.2612C37.7488 81.5232 38.8251 81.607 39.8981 82.2612C40.9793 82.9205 41.6094 83.9544 41.4843 85.193C41.3657 86.3658 40.9073 87.2011 39.8981 87.706C39.0583 88.1261 38.3828 88.067 37.5188 87.706C36.3941 87.2361 35.7015 86.4585 35.5361 85.193C35.3748 83.959 35.7518 82.9637 36.7257 82.2612Z" fill="black" stroke="black"/>
<path d="M32.5988 90.5354C32.1266 89.6495 33.5 87.9993 33.5 87.9993C33.5 87.9993 34.8734 89.6495 34.4012 90.5354C33.9789 91.3277 33.0211 91.3277 32.5988 90.5354Z" fill="black" stroke="black"/>
<path d="M26.5 77.0431L20 80.6952L17 73.9128L22.5 77.0431L23.5 67.6521L29 72.8693L34 64L38.5 72.8693L44.5 67.6521L43.5 75.9997L49 73.9128L46 80.6952L40 77.0431L33.25 75.4779L26.5 77.0431Z" fill="#F3EC5A" stroke="black"/>
<path d="M32.5 70.735L34 69.2173L35.5 70.735L34 73.3911L32.5 70.735Z" fill="#FF2A2A"/>
<path d="M34 69.2173L32.5 70.735M34 69.2173L35.5 70.735M34 69.2173L34.45 71.1145M34 69.2173L33.55 71.1145M32.5 70.735L34 73.3911M32.5 70.735L33.55 71.1145M34 73.3911L35.5 70.735M34 73.3911V71.1145M35.5 70.735L34.45 71.1145M33.55 71.1145H34M34.45 71.1145H34" stroke="black" stroke-width="0.5"/>
<path d="M25.5 74.1499L26.5 73.391L27.5 74.1499L26.5 75.4779L25.5 74.1499Z" fill="#40BDCE"/>
<path d="M26.5 73.391L25.5 74.1499M26.5 73.391L27.5 74.1499M26.5 73.391L26.8 74.3396M26.5 73.391L26.2 74.3396M25.5 74.1499L26.5 75.4779M25.5 74.1499L26.2 74.3396M26.5 75.4779L27.5 74.1499M26.5 75.4779V74.3396M27.5 74.1499L26.8 74.3396M26.2 74.3396H26.5M26.8 74.3396H26.5" stroke="black" stroke-width="0.2"/>
<path d="M39.5 74.1499L40.5 73.391L41.5 74.1499L40.5 75.4779L39.5 74.1499Z" fill="#40BDCE"/>
<path d="M40.5 73.391L39.5 74.1499M40.5 73.391L41.5 74.1499M40.5 73.391L40.8 74.3396M40.5 73.391L40.2 74.3396M39.5 74.1499L40.5 75.4779M39.5 74.1499L40.2 74.3396M40.5 75.4779L41.5 74.1499M40.5 75.4779V74.3396M41.5 74.1499L40.8 74.3396M40.2 74.3396H40.5M40.8 74.3396H40.5" stroke="black" stroke-width="0.2"/>
<path d="M28.5 91.5L31.5 93H33.5H35.5L37.5 91.5V94.5L35.5 96.5H33.5H31.5L28.5 94.5V91.5Z" fill="#FFFDFD"/>
<path d="M31.5 93L28.5 91.5V94.5L31.5 96.5M31.5 93V96.5M31.5 93H33.5M35.5 93L37.5 91.5V94.5L35.5 96.5M35.5 93V96.5M35.5 93H33.5M35.5 96.5H33.5M31.5 96.5H33.5M33.5 93V96.5" stroke="black"/>
</svg>
