<svg width="94" height="86" viewBox="0 0 94 86" fill="none" xmlns="http://www.w3.org/2000/svg">
<path d="M47 40C51.4512 39.8878 58 43 58 43C58 43 51.3133 41.9611 47 42C43.0754 42.0354 37 43 37 43C37 43 42.9241 40.1028 47 40Z" fill="white"/>
<path d="M47.1429 45.003C50.3223 44.8909 55 48 55 48C55 48 50.2238 46.4612 47.1429 46.5C44.3396 46.5353 40 48 40 48C40 48 44.2315 45.1056 47.1429 45.003Z" fill="white"/>
<path d="M47.1429 50.003C50.3223 49.8909 52 52 52 52C52 52 50.2238 50.9612 47.1429 51C44.3396 51.0353 43 52 43 52C43 52 44.2315 50.1056 47.1429 50.003Z" fill="white"/>
<path d="M28.8202 26.3045L36.2582 37.869L37.6477 37.7185L38.6619 39.2954C38.6619 39.2954 38.4077 40.202 37.9487 40.4973C37.4897 40.7925 36.5593 40.6478 36.5593 40.6478C36.5593 40.6478 36.3051 41.5544 35.8461 41.8497C35.3871 42.1449 34.4567 42.0002 34.4567 42.0002L33.4424 40.4232L34.1556 39.2214L26.7175 27.6569L25.3281 27.8074L24.3139 26.2304C24.3139 26.2304 24.568 25.3238 25.0271 25.0286C25.4861 24.7333 26.4165 24.878 26.4165 24.878C26.4165 24.878 26.6707 23.9714 27.1297 23.6762C27.5887 23.381 28.5191 23.5257 28.5191 23.5257L29.5334 25.1026L28.8202 26.3045Z" fill="white"/>
<path d="M37.25 80.875V67.125L36 66.5V64.625C36 64.625 36.7042 64 37.25 64C37.7958 64 38.5 64.625 38.5 64.625C38.5 64.625 39.2042 64 39.75 64C40.2958 64 41 64.625 41 64.625V66.5L39.75 67.125V80.875L41 81.5V83.375C41 83.375 40.2958 84 39.75 84C39.2042 84 38.5 83.375 38.5 83.375C38.5 83.375 37.7958 84 37.25 84C36.7042 84 36 83.375 36 83.375V81.5L37.25 80.875Z" fill="white"/>
<path d="M64.1196 79.5293L55.5436 68.7816L54.1767 69.0727L53.0073 67.6071C53.0073 67.6071 53.1679 66.6793 53.5945 66.3389C54.0211 65.9985 54.9614 66.0478 54.9614 66.0478C54.9614 66.0478 55.1221 65.12 55.5487 64.7796C55.9753 64.4392 56.9155 64.4885 56.9155 64.4885L58.085 65.9541L57.4978 67.2223L66.0738 77.9701L67.4407 77.679L68.6101 79.1446C68.6101 79.1446 68.4495 80.0723 68.0229 80.4127C67.5963 80.7531 66.656 80.7038 66.656 80.7038C66.656 80.7038 66.4954 81.6316 66.0687 81.972C65.6421 82.3124 64.7019 82.2631 64.7019 82.2631L63.5324 80.7975L64.1196 79.5293Z" fill="white"/>
<path d="M64.9448 54.5758L61.193 41.3475L62.2251 40.4051L61.7135 38.6013C61.7135 38.6013 60.8654 38.1921 60.3404 38.3411C59.8153 38.49 59.3083 39.2834 59.3083 39.2834C59.3083 39.2834 58.4603 38.8743 57.9352 39.0232C57.4102 39.1721 56.9032 39.9655 56.9032 39.9655L57.4148 41.7694L58.7879 42.0296L62.5396 55.2579L61.5076 56.2002L62.0192 58.0041C62.0192 58.0041 62.8672 58.4132 63.3923 58.2643C63.9174 58.1154 64.4243 57.322 64.4243 57.322C64.4243 57.322 65.2724 57.7311 65.7974 57.5822C66.3225 57.4333 66.8295 56.6398 66.8295 56.6398L66.3179 54.836L64.9448 54.5758Z" fill="white"/>
<path fill-rule="evenodd" clip-rule="evenodd" d="M46.9996 55C46.9996 55 49.9788 52.4177 51.9996 53C53.5917 53.4587 54.9611 54.3436 54.9996 56C55.045 57.9521 50.9996 59 50.9996 59C50.9996 59 52.9996 59.8954 52.9996 61C52.9996 65 46.9996 62 46.9996 62C46.9996 62 40.9996 65 40.9996 61C40.9996 59.8954 42.9996 59 42.9996 59C42.9996 59 38.9542 57.9521 38.9996 56C39.0381 54.3436 40.4075 53.4587 41.9996 53C44.0204 52.4177 46.9996 55 46.9996 55ZM48.9996 57C48.4473 57 47.9996 58 47.9996 58V60C47.9996 60 49.3822 61.6175 49.9996 61C50.6171 60.3825 48.9996 59 48.9996 59C48.9996 59 49.7807 57 48.9996 57ZM45.4996 57C46.0519 57 46.4996 58 46.4996 58V60C46.4996 60 45.1171 61.6175 44.4996 61C43.8822 60.3825 45.4996 59 45.4996 59C45.4996 59 44.7186 57 45.4996 57Z" fill="white"/>
<path fill-rule="evenodd" clip-rule="evenodd" d="M45.6448 0.036665C42.1573 0.287496 40.1227 1.56248 37.4673 4.10676C33.8499 7.57265 31.7994 10.9913 32.0155 16.317C32.1957 20.7552 34.2871 25.4748 36.5586 26.4923C38.8302 27.5098 41.1017 27.5098 42.919 27.001C44.7362 26.4923 46.5535 27.001 46.5535 27.001C46.5535 27.001 47.4621 29.0361 47.9164 32.5974C48.3707 34.1237 49.9084 33.7188 51.0966 34.1237C52.0863 34.461 52.4268 34.6605 53.3681 35.1412C56.4394 36.7097 62 35.65 62 35.65L61.5457 30.5624L60.6371 29.0361L59.2741 30.0536L58.3655 28.5273L56.5483 29.5449L55.6397 28.0186L53.8224 28.5273L52.4595 25.4748L51.0966 23.4397L52.9138 23.9485L54.731 26.4923L56.094 25.9835L57.0026 27.5098L58.8198 26.4923L59.7285 28.0186L61.0914 27.001L61.5457 28.0186L62 25.4748L60.6371 23.4397L62 16.8258L61.0914 14.7908C61.0914 14.7908 60.2963 10.5261 59.2741 8.17685C58.009 5.26933 56.3246 4.19578 53.8224 2.58046C50.9509 0.726738 48.9525 -0.201226 45.6448 0.036665ZM55.1853 14.7908C55.1853 13.239 56.2556 11.2294 57.4569 11.2294C58.6581 11.2294 59.7285 13.239 59.7285 14.7908C59.7284 16.3425 58.539 20.3871 57.4569 20.3871C56.3747 20.3871 55.1853 16.3425 55.1853 14.7908Z" fill="white"/>
</svg>
