<svg width="94" height="86" viewBox="0 0 94 86" fill="none" xmlns="http://www.w3.org/2000/svg">
<path fill-rule="evenodd" clip-rule="evenodd" d="M46.4022 2.00047C41.1113 2.04116 37.5164 4.69499 35.0498 9.34187C32.6878 13.7917 35.0498 22.2215 35.0498 22.2215L37.969 27.631V32.9116C37.969 32.9116 42.5492 37.9233 46.4022 37.9991C50.3859 38.0775 55.0949 32.9116 55.0949 32.9116V27.631L57.9492 22.2215C57.9492 22.2215 60.3134 13.7906 57.9492 9.34187C55.4506 4.64013 51.757 1.95929 46.4022 2.00047Z" fill="white"/>
<path d="M47 40C42.5488 39.8878 36 43 36 43C36 43 42.6867 41.9612 47 42C50.9246 42.0354 57 43 57 43C57 43 51.0759 40.1028 47 40Z" fill="white"/>
<path d="M46.8571 45.003C43.6777 44.8909 39 48 39 48C39 48 43.7762 46.4612 46.8571 46.5C49.6604 46.5353 54 48 54 48C54 48 49.7685 45.1056 46.8571 45.003Z" fill="white"/>
<path d="M46.8571 50.003C43.6777 49.8909 42 52 42 52C42 52 43.7762 50.9612 46.8571 51C49.6604 51.0353 51 52 51 52C51 52 49.7685 50.1056 46.8571 50.003Z" fill="white"/>
<path d="M73.9115 37.3739L60.1725 37.9235L59.498 36.6995L57.6245 36.7745C57.6245 36.7745 57.0281 37.5031 57.05 38.0485C57.0718 38.5938 57.7244 39.2725 57.7244 39.2725C57.7244 39.2725 57.1281 40.0011 57.1499 40.5465C57.1717 41.0918 57.8244 41.7705 57.8244 41.7705L59.6979 41.6955L60.2724 40.4215L74.0114 39.8719L74.6859 41.0959L76.5594 41.021C76.5594 41.021 77.1557 40.2923 77.1339 39.747C77.1121 39.2017 76.4594 38.523 76.4594 38.523C76.4594 38.523 77.0558 37.7943 77.034 37.249C77.0122 36.7037 76.3595 36.025 76.3595 36.025L74.486 36.0999L73.9115 37.3739Z" fill="white"/>
<path d="M50.7672 72.9454L56.4458 67.9509L57.5294 68.6625L58.3038 67.9814C58.3038 67.9814 58.0968 67.2256 57.7364 66.8158C57.3759 66.406 56.6527 66.1042 56.6527 66.1042C56.6527 66.1042 56.4457 65.3484 56.0853 64.9386C55.7248 64.5288 55.0016 64.227 55.0016 64.227L54.2273 64.9081L54.7947 66.0737L49.1161 71.0682L48.0325 70.3566L47.2581 71.0377C47.2581 71.0377 47.4651 71.7935 47.8256 72.2033C48.186 72.6132 48.9092 72.9149 48.9092 72.9149C48.9092 72.9149 49.1162 73.6707 49.4766 74.0806C49.8371 74.4904 50.5603 74.7921 50.5603 74.7921L51.3347 74.1111L50.7672 72.9454Z" fill="white"/>
<path d="M38.75 80.875V67.125L40 66.5V64.625C40 64.625 39.2958 64 38.75 64C38.2042 64 37.5 64.625 37.5 64.625C37.5 64.625 36.7958 64 36.25 64C35.7042 64 35 64.625 35 64.625V66.5L36.25 67.125V80.875L35 81.5V83.375C35 83.375 35.7042 84 36.25 84C36.7958 84 37.5 83.375 37.5 83.375C37.5 83.375 38.2042 84 38.75 84C39.2958 84 40 83.375 40 83.375V81.5L38.75 80.875Z" fill="white"/>
<path d="M29.5463 57.9168L30.8756 44.2312L29.6919 43.4883L29.8732 41.6221C29.8732 41.6221 30.6346 41.0681 31.1778 41.1209C31.721 41.1736 32.3615 41.8638 32.3615 41.8638C32.3615 41.8638 33.1228 41.3098 33.6661 41.3626C34.2093 41.4153 34.8498 42.1055 34.8498 42.1055L34.6685 43.9717L33.3639 44.4729L32.0346 58.1585L33.2183 58.9014L33.037 60.7676C33.037 60.7676 32.2757 61.3216 31.7324 61.2689C31.1892 61.2161 30.5487 60.5259 30.5487 60.5259C30.5487 60.5259 29.7874 61.0799 29.2441 61.0272C28.7009 60.9744 28.0604 60.2842 28.0604 60.2842L28.2417 58.418L29.5463 57.9168Z" fill="white"/>
<path fill-rule="evenodd" clip-rule="evenodd" d="M47.0004 55C47.0004 55 44.0212 52.4177 42.0004 53C40.4083 53.4587 39.0389 54.3436 39.0004 56C38.955 57.9521 43.0004 59 43.0004 59C43.0004 59 41.0004 59.8954 41.0004 61C41.0004 65 47.0004 62 47.0004 62C47.0004 62 53.0004 65 53.0004 61C53.0004 59.8954 51.0004 59 51.0004 59C51.0004 59 55.0458 57.9521 55.0004 56C54.9619 54.3436 53.5925 53.4587 52.0004 53C49.9796 52.4177 47.0004 55 47.0004 55ZM45.0004 57C45.5527 57 46.0004 58 46.0004 58V60C46.0004 60 44.6178 61.6175 44.0004 61C43.3829 60.3825 45.0004 59 45.0004 59C45.0004 59 44.2193 57 45.0004 57ZM48.5004 57C47.9481 57 47.5004 58 47.5004 58V60C47.5004 60 48.8829 61.6175 49.5004 61C50.1178 60.3825 48.5004 59 48.5004 59C48.5004 59 49.2814 57 48.5004 57Z" fill="white"/>
</svg>
