<svg width="68" height="103" viewBox="0 0 68 103" fill="none" xmlns="http://www.w3.org/2000/svg">
<path d="M23.5 24.4341C24.6265 27.7365 27.5 29.6513 27.5 29.6513C27.5 29.6513 27.0001 33.3034 27.5 34.8686C28 36.4338 32.5001 38.0474 34.5 37.9989C36.5 37.9504 40 36.4338 40.5 34.8686C41.0001 33.3034 40.5 29.6513 40.5 29.6513C40.5 29.6513 43.3735 27.7365 44.5 24.4341C45.875 20.4031 47.8044 14.9301 45.5 11.391C42.9666 7.50018 39.3001 5.82179 34.5 5.65201C29.3479 5.46977 25.1686 7.1258 22.5 11.391C20.2677 14.9588 22.1095 20.358 23.4828 24.3837L23.5 24.4341Z" fill="#FFDCC9" stroke="black"/>
<path d="M31.2743 20.2612C30.2512 19.5232 29.1749 19.607 28.1019 20.2612C27.0207 20.9205 26.3906 21.9544 26.5157 23.193C26.6343 24.3658 27.0927 25.2011 28.1019 25.706C28.9417 26.1261 29.6172 26.067 30.4812 25.706C31.6059 25.2361 32.2985 24.4585 32.4639 23.193C32.6252 21.959 32.2482 20.9637 31.2743 20.2612Z" fill="black" stroke="black"/>
<path d="M37.7257 20.2612C38.7488 19.5232 39.8251 19.607 40.8981 20.2612C41.9793 20.9205 42.6094 21.9544 42.4843 23.193C42.3657 24.3658 41.9073 25.2011 40.8981 25.706C40.0583 26.1261 39.3828 26.067 38.5188 25.706C37.3941 25.2361 36.7015 24.4585 36.5361 23.193C36.3748 21.959 36.7518 20.9637 37.7257 20.2612Z" fill="black" stroke="black"/>
<path d="M33.5988 28.5354C33.1266 27.6495 34.5 25.9993 34.5 25.9993C34.5 25.9993 35.8734 27.6495 35.4012 28.5354C34.9789 29.3277 34.0211 29.3277 33.5988 28.5354Z" fill="black" stroke="black"/>
<path d="M27.5 15.0431L21 18.6952L18 11.9128L23.5 15.0431L24.5 5.65207L30 10.8693L35 2L39.5 10.8693L45.5 5.65207L44.5 13.9997L50 11.9128L47 18.6952L41 15.0431L34.25 13.4779L27.5 15.0431Z" fill="#F3EC5A" stroke="black"/>
<path d="M33.5 8.73503L35 7.21729L36.5 8.73503L35 11.3911L33.5 8.73503Z" fill="#FF2A2A"/>
<path d="M35 7.21729L33.5 8.73503M35 7.21729L36.5 8.73503M35 7.21729L35.45 9.11446M35 7.21729L34.55 9.11446M33.5 8.73503L35 11.3911M33.5 8.73503L34.55 9.11446M35 11.3911L36.5 8.73503M35 11.3911V9.11446M36.5 8.73503L35.45 9.11446M34.55 9.11446H35M35.45 9.11446H35" stroke="black" stroke-width="0.5"/>
<path d="M26.5 12.1499L27.5 11.391L28.5 12.1499L27.5 13.4779L26.5 12.1499Z" fill="#40BDCE"/>
<path d="M27.5 11.391L26.5 12.1499M27.5 11.391L28.5 12.1499M27.5 11.391L27.8 12.3396M27.5 11.391L27.2 12.3396M26.5 12.1499L27.5 13.4779M26.5 12.1499L27.2 12.3396M27.5 13.4779L28.5 12.1499M27.5 13.4779V12.3396M28.5 12.1499L27.8 12.3396M27.2 12.3396H27.5M27.8 12.3396H27.5" stroke="black" stroke-width="0.2"/>
<path d="M40.5 12.1499L41.5 11.391L42.5 12.1499L41.5 13.4779L40.5 12.1499Z" fill="#40BDCE"/>
<path d="M41.5 11.391L40.5 12.1499M41.5 11.391L42.5 12.1499M41.5 11.391L41.8 12.3396M41.5 11.391L41.2 12.3396M40.5 12.1499L41.5 13.4779M40.5 12.1499L41.2 12.3396M41.5 13.4779L42.5 12.1499M41.5 13.4779V12.3396M42.5 12.1499L41.8 12.3396M41.2 12.3396H41.5M41.8 12.3396H41.5" stroke="black" stroke-width="0.2"/>
<path d="M29.5 29.5L32.5 31H34.5H36.5L38.5 29.5V32.5L36.5 34.5H34.5H32.5L29.5 32.5V29.5Z" fill="#FFFDFD"/>
<path d="M32.5 31L29.5 29.5V32.5L32.5 34.5M32.5 31V34.5M32.5 31H34.5M36.5 31L38.5 29.5V32.5L36.5 34.5M36.5 31V34.5M36.5 31H34.5M36.5 34.5H34.5M32.5 34.5H34.5M34.5 31V34.5" stroke="black"/>
<path d="M30 41L22 38L30 45H39L46 38L38 41H30Z" fill="#FFDCC9"/>
<path d="M30 49L24 46.5L30 52.5H39L44.5 46.5L39 49H30Z" fill="#FFDCC9"/>
<path d="M36.5 56.5H32.5L27.5 55L32.5 59H36.5L41.5 55L36.5 56.5Z" fill="#FFDCC9"/>
<path d="M31.5 63L29 59.5H24L25 67L31.5 71H37.5L43.5 67L45 59.5H40L37.5 63H31.5Z" fill="#FFDCC9"/>
<path d="M30 41L22 38L30 45H39L46 38L38 41H30Z" stroke="black"/>
<path d="M30 49L24 46.5L30 52.5H39L44.5 46.5L39 49H30Z" stroke="black"/>
<path d="M36.5 56.5H32.5L27.5 55L32.5 59H36.5L41.5 55L36.5 56.5Z" stroke="black"/>
<path d="M31.5 63L29 59.5H24L25 67L31.5 71H37.5L43.5 67L45 59.5H40L37.5 63H31.5Z" stroke="black"/>
<path d="M14.1093 47.0236L7.10932 61.0236C7.10932 61.0236 2.6207 60.5402 1.60932 62.5236C0.988398 63.7412 0.625415 65.0748 1.60932 66.0236C2.7684 67.1413 5.60932 65.0236 5.60932 65.0236C5.60932 65.0236 5.75605 67.9071 7.10932 68.5236C8.78568 69.2872 10.7208 67.8242 11.1093 66.0236C11.423 64.57 9.60932 62.5236 9.60932 62.5236L16.6093 48.0236C16.6093 48.0236 18.6906 47.8488 19.6093 47.0236C20.9485 45.8205 22.0476 43.6063 20.6093 42.5236C19.2765 41.5202 16.6093 44.0236 16.6093 44.0236C16.6093 44.0236 15.7502 40.1646 14.1093 40.5236C12.6566 40.8414 12.522 42.5391 12.6093 44.0236C12.6862 45.3312 14.1093 47.0236 14.1093 47.0236Z" fill="#FFDCC9" stroke="black"/>
<path d="M54.1775 47.0236L61.1775 61.0236C61.1775 61.0236 65.6662 60.5402 66.6775 62.5236C67.2985 63.7412 67.6615 65.0748 66.6775 66.0236C65.5185 67.1413 62.6775 65.0236 62.6775 65.0236C62.6775 65.0236 62.5308 67.9071 61.1775 68.5236C59.5012 69.2872 57.5661 67.8242 57.1775 66.0236C56.8639 64.57 58.6775 62.5236 58.6775 62.5236L51.6775 48.0236C51.6775 48.0236 49.5962 47.8488 48.6775 47.0236C47.3383 45.8205 46.2393 43.6063 47.6775 42.5236C49.0104 41.5202 51.6775 44.0236 51.6775 44.0236C51.6775 44.0236 52.5366 40.1646 54.1775 40.5236C55.6303 40.8414 55.7649 42.5391 55.6775 44.0236C55.6006 45.3312 54.1775 47.0236 54.1775 47.0236Z" fill="#FFDCC9" stroke="black"/>
<path d="M46.3904 77.6008L46.1345 93.2512C46.1345 93.2512 50.339 94.8952 50.3203 97.1215C50.3087 98.4882 50.0149 99.8387 48.704 100.226C47.1598 100.682 45.6178 97.4918 45.6178 97.4918C45.6178 97.4918 44.1561 99.9818 42.6711 99.9036C40.8316 99.8069 39.7907 97.6156 40.2776 95.839C40.6706 94.4048 43.2243 93.4272 43.2243 93.4272L43.7111 77.3333C43.7111 77.3333 41.9457 76.2173 41.5119 75.061C40.8796 73.3755 40.9273 70.904 42.703 70.6078C44.3485 70.3332 45.5583 73.7854 45.5583 73.7854C45.5583 73.7854 48.1023 70.7592 49.392 71.8353C50.5338 72.788 49.8692 74.3561 49.1062 75.6325C48.4342 76.7568 46.3904 77.6008 46.3904 77.6008Z" fill="#FFDCC9" stroke="black"/>
<path d="M21.6404 77.6008L21.8963 93.2512C21.8963 93.2512 17.6917 94.8952 17.7105 97.1215C17.722 98.4882 18.0159 99.8387 19.3267 100.226C20.8709 100.682 22.4129 97.4918 22.4129 97.4918C22.4129 97.4918 23.8746 99.9818 25.3597 99.9036C27.1992 99.8069 28.2401 97.6156 27.7532 95.839C27.3601 94.4048 24.8065 93.4272 24.8065 93.4272L24.3196 77.3333C24.3196 77.3333 26.085 76.2173 26.5188 75.061C27.1512 73.3755 27.1035 70.904 25.3278 70.6078C23.6822 70.3332 22.4725 73.7854 22.4725 73.7854C22.4725 73.7854 19.9285 70.7592 18.6388 71.8353C17.497 72.788 18.1616 74.3561 18.9245 75.6325C19.5966 76.7568 21.6404 77.6008 21.6404 77.6008Z" fill="#FFDCC9" stroke="black"/>
</svg>
