<svg width="94" height="86" viewBox="0 0 94 86" fill="none" xmlns="http://www.w3.org/2000/svg">
<path fill-rule="evenodd" clip-rule="evenodd" d="M46.284 2.00047C51.5749 2.04116 55.1698 4.69499 57.6364 9.34187C59.9984 13.7917 57.6364 22.2215 57.6364 22.2215L54.7172 27.631V31.9116C54.7172 31.9116 50.137 36.9233 46.284 36.9991C42.3003 37.0775 37.5913 31.9116 37.5913 31.9116V27.631L34.7369 22.2215C34.7369 22.2215 32.3727 13.7906 34.7369 9.34187C37.2356 4.64013 40.9292 1.95929 46.284 2.00047ZM48.8788 23.5739L46.284 17.8424L43.754 23.5739C43.754 23.5739 44.242 24.8098 44.9217 24.8619C45.6542 24.9179 46.284 23.5739 46.284 23.5739C46.284 23.5739 46.8185 24.8272 47.5165 24.8619C48.2503 24.8983 48.8788 23.5739 48.8788 23.5739ZM40.5753 13.5922C42.2025 13.7508 43.3969 14.713 43.754 16.2969C44.2472 18.4846 42.0395 20.7458 39.7969 20.4828C37.764 20.2444 36.2517 18.2834 36.6831 16.2969C37.074 14.4963 38.7288 13.4121 40.5753 13.5922ZM52.0575 13.5922C50.4304 13.7508 49.2359 14.713 48.8788 16.2969C48.3856 18.4846 50.5933 20.7458 52.836 20.4828C54.8688 20.2444 56.3811 18.2834 55.9498 16.2969C55.5588 14.4963 53.904 13.4121 52.0575 13.5922ZM51.9278 25.699L53.8739 24.8619L50.7601 29.4305L49.8519 29.3017L48.8788 30.3321L48.1004 29.3017L47.1273 30.3321L46.1542 29.3017L45.246 30.3321L44.4027 29.3017L43.4297 30.3321L42.6512 29.3017L41.4187 29.4305L38.5643 24.8619L40.5753 25.699V28.4038L41.4187 30.0137L42.6512 28.7258L43.4297 30.3357L44.4027 28.7258L45.3758 30.7221L46.284 28.7258L47.1273 30.7221L48.1004 28.7258L48.8788 30.3357L49.8519 28.7258L50.7601 30.0137L51.9278 28.275V25.699Z" fill="white"/>
<path d="M45.6862 40C50.1374 39.8878 56.6862 43 56.6862 43C56.6862 43 49.9995 41.9611 45.6862 42C41.7616 42.0354 35.6862 43 35.6862 43C35.6862 43 41.6103 40.1028 45.6862 40Z" fill="white"/>
<path d="M45.829 45.003C49.0085 44.8909 53.6862 48 53.6862 48C53.6862 48 48.91 46.4612 45.829 46.5C43.0258 46.5353 38.6862 48 38.6862 48C38.6862 48 42.9177 45.1056 45.829 45.003Z" fill="white"/>
<path d="M45.829 50.003C49.0085 49.8909 50.6862 52 50.6862 52C50.6862 52 48.91 50.9612 45.829 51C43.0258 51.0353 41.6862 52 41.6862 52C41.6862 52 42.9177 50.1056 45.829 50.003Z" fill="white"/>
<path d="M20.2148 47.5959L30.8973 38.9387L30.5958 37.5741L32.0525 36.3935C32.0525 36.3935 32.9815 36.5471 33.3251 36.9711C33.6687 37.3952 33.6266 38.3358 33.6266 38.3358C33.6266 38.3358 34.5555 38.4894 34.8992 38.9134C35.2428 39.3374 35.2006 40.278 35.2006 40.278L33.7439 41.4586L32.4713 40.881L21.7889 49.5382L22.0904 50.9029L20.6337 52.0834C20.6337 52.0834 19.7047 51.9298 19.3611 51.5058C19.0174 51.0818 19.0596 50.1411 19.0596 50.1411C19.0596 50.1411 18.1307 49.9875 17.787 49.5635C17.4434 49.1395 17.4856 48.1989 17.4856 48.1989L18.9423 47.0183L20.2148 47.5959Z" fill="white"/>
<path d="M35.9362 80.875V67.125L34.6862 66.5V64.625C34.6862 64.625 35.3904 64 35.9362 64C36.482 64 37.1862 64.625 37.1862 64.625C37.1862 64.625 37.8904 64 38.4362 64C38.982 64 39.6862 64.625 39.6862 64.625V66.5L38.4362 67.125V80.875L39.6862 81.5V83.375C39.6862 83.375 38.982 84 38.4362 84C37.8904 84 37.1862 83.375 37.1862 83.375C37.1862 83.375 36.482 84 35.9362 84C35.3904 84 34.6862 83.375 34.6862 83.375V81.5L35.9362 80.875Z" fill="white"/>
<path d="M62.8059 78.5293L54.2299 67.7816L52.863 68.0727L51.6935 66.6071C51.6935 66.6071 51.8542 65.6793 52.2808 65.3389C52.7074 64.9985 53.6477 65.0478 53.6477 65.0478C53.6477 65.0478 53.8083 64.12 54.2349 63.7796C54.6615 63.4392 55.6018 63.4885 55.6018 63.4885L56.7713 64.9541L56.184 66.2223L64.76 76.9701L66.1269 76.679L67.2964 78.1446C67.2964 78.1446 67.1357 79.0723 66.7091 79.4127C66.2825 79.7531 65.3422 79.7038 65.3422 79.7038C65.3422 79.7038 65.1816 80.6316 64.755 80.972C64.3284 81.3124 63.3881 81.2631 63.3881 81.2631L62.2186 79.7975L62.8059 78.5293Z" fill="white"/>
<path d="M62.0978 54.9096L60.5753 41.2442L61.7484 40.4846L61.5408 38.6212C61.5408 38.6212 60.7717 38.078 60.2292 38.1384C59.6868 38.1988 59.0561 38.898 59.0561 38.898C59.0561 38.898 58.287 38.3548 57.7446 38.4152C57.2022 38.4757 56.5715 39.1748 56.5715 39.1748L56.7791 41.0383L58.0906 41.521L59.6132 55.1865L58.4401 55.946L58.6477 57.8095C58.6477 57.8095 59.4168 58.3527 59.9592 58.2923C60.5017 58.2318 61.1324 57.5327 61.1324 57.5327C61.1324 57.5327 61.9015 58.0759 62.4439 58.0154C62.9863 57.955 63.617 57.2559 63.617 57.2559L63.4094 55.3924L62.0978 54.9096Z" fill="white"/>
<path fill-rule="evenodd" clip-rule="evenodd" d="M45.6858 55C45.6858 55 48.665 52.4177 50.6858 53C52.2779 53.4587 53.6473 54.3436 53.6858 56C53.7312 57.9521 49.6858 59 49.6858 59C49.6858 59 51.6858 59.8954 51.6858 61C51.6858 65 45.6858 62 45.6858 62C45.6858 62 39.6858 65 39.6858 61C39.6858 59.8954 41.6858 59 41.6858 59C41.6858 59 37.6404 57.9521 37.6858 56C37.7243 54.3436 39.0937 53.4587 40.6858 53C42.7066 52.4177 45.6858 55 45.6858 55ZM47.6858 57C47.1335 57 46.6858 58 46.6858 58V60C46.6858 60 48.0683 61.6175 48.6858 61C49.3033 60.3825 47.6858 59 47.6858 59C47.6858 59 48.4669 57 47.6858 57ZM44.1858 57C44.7381 57 45.1858 58 45.1858 58V60C45.1858 60 43.8033 61.6175 43.1858 61C42.5683 60.3825 44.1858 59 44.1858 59C44.1858 59 43.4048 57 44.1858 57Z" fill="white"/>
</svg>
