<svg width="94" height="86" viewBox="0 0 94 86" fill="none" xmlns="http://www.w3.org/2000/svg">
<path fill-rule="evenodd" clip-rule="evenodd" d="M46.4022 2.00047C41.1113 2.04116 37.5164 4.69499 35.0498 9.34187C32.6878 13.7917 35.0498 22.2215 35.0498 22.2215L37.969 27.631V32.9116C37.969 32.9116 42.5492 37.9233 46.4022 37.9991C50.3859 38.0775 55.0949 32.9116 55.0949 32.9116V27.631L57.9492 22.2215C57.9492 22.2215 60.3134 13.7906 57.9492 9.34187C55.4506 4.64013 51.757 1.95929 46.4022 2.00047Z" fill="white"/>
<path d="M47 40C42.5488 39.8878 36 43 36 43C36 43 42.6867 41.9612 47 42C50.9246 42.0354 57 43 57 43C57 43 51.0759 40.1028 47 40Z" fill="white"/>
<path d="M46.8571 45.003C43.6777 44.8909 39 48 39 48C39 48 43.7762 46.4612 46.8571 46.5C49.6604 46.5353 54 48 54 48C54 48 49.7685 45.1056 46.8571 45.003Z" fill="white"/>
<path d="M46.8571 50.003C43.6777 49.8909 42 52 42 52C42 52 43.7762 50.9612 46.8571 51C49.6604 51.0353 51 52 51 52C51 52 49.7685 50.1056 46.8571 50.003Z" fill="white"/>
<path d="M56.75 80.875V67.125L58 66.5V64.625C58 64.625 57.2958 64 56.75 64C56.2042 64 55.5 64.625 55.5 64.625C55.5 64.625 54.7958 64 54.25 64C53.7042 64 53 64.625 53 64.625V66.5L54.25 67.125V80.875L53 81.5V83.375C53 83.375 53.7042 84 54.25 84C54.7958 84 55.5 83.375 55.5 83.375C55.5 83.375 56.2042 84 56.75 84C57.2958 84 58 83.375 58 83.375V81.5L56.75 80.875Z" fill="white"/>
<path d="M38.75 80.875V67.125L40 66.5V64.625C40 64.625 39.2958 64 38.75 64C38.2042 64 37.5 64.625 37.5 64.625C37.5 64.625 36.7958 64 36.25 64C35.7042 64 35 64.625 35 64.625V66.5L36.25 67.125V80.875L35 81.5V83.375C35 83.375 35.7042 84 36.25 84C36.7958 84 37.5 83.375 37.5 83.375C37.5 83.375 38.2042 84 38.75 84C39.2958 84 40 83.375 40 83.375V81.5L38.75 80.875Z" fill="white"/>
<path d="M29.0429 53.3977L33.2641 40.3117L32.2663 39.3331L32.8419 37.5486C32.8419 37.5486 33.704 37.17 34.2234 37.3376C34.7429 37.5051 35.2212 38.3161 35.2212 38.3161C35.2212 38.3161 36.0833 37.9375 36.6027 38.1051C37.1221 38.2726 37.6005 39.0836 37.6005 39.0836L37.0249 40.8681L35.6434 41.0792L31.4221 54.1652L32.4199 55.1437L31.8443 56.9282C31.8443 56.9282 30.9822 57.3068 30.4628 57.1393C29.9434 56.9717 29.465 56.1607 29.465 56.1607C29.465 56.1607 28.6029 56.5393 28.0835 56.3718C27.5641 56.2042 27.0857 55.3932 27.0857 55.3932L27.6614 53.6088L29.0429 53.3977Z" fill="white"/>
<path d="M63.951 53.4438L59.7298 40.3578L60.7275 39.3792L60.1519 37.5948C60.1519 37.5948 59.2898 37.2162 58.7704 37.3837C58.251 37.5513 57.7726 38.3623 57.7726 38.3623C57.7726 38.3623 56.9105 37.9837 56.3911 38.1512C55.8717 38.3188 55.3933 39.1298 55.3933 39.1298L55.969 40.9142L57.3505 41.1253L61.5717 54.2113L60.5739 55.1899L61.1496 56.9743C61.1496 56.9743 62.0116 57.353 62.5311 57.1854C63.0505 57.0179 63.5288 56.2069 63.5288 56.2069C63.5288 56.2069 64.3909 56.5855 64.9103 56.4179C65.4298 56.2504 65.9081 55.4394 65.9081 55.4394L65.3325 53.6549L63.951 53.4438Z" fill="white"/>
<path fill-rule="evenodd" clip-rule="evenodd" d="M47.0004 55C47.0004 55 44.0212 52.4177 42.0004 53C40.4083 53.4587 39.0389 54.3436 39.0004 56C38.955 57.9521 43.0004 59 43.0004 59C43.0004 59 41.0004 59.8954 41.0004 61C41.0004 65 47.0004 62 47.0004 62C47.0004 62 53.0004 65 53.0004 61C53.0004 59.8954 51.0004 59 51.0004 59C51.0004 59 55.0458 57.9521 55.0004 56C54.9619 54.3436 53.5925 53.4587 52.0004 53C49.9796 52.4177 47.0004 55 47.0004 55ZM45.0004 57C45.5527 57 46.0004 58 46.0004 58V60C46.0004 60 44.6178 61.6175 44.0004 61C43.3829 60.3825 45.0004 59 45.0004 59C45.0004 59 44.2193 57 45.0004 57ZM48.5004 57C47.9481 57 47.5004 58 47.5004 58V60C47.5004 60 48.8829 61.6175 49.5004 61C50.1178 60.3825 48.5004 59 48.5004 59C48.5004 59 49.2814 57 48.5004 57Z" fill="white"/>
</svg>
