<svg width="94" height="89" viewBox="0 0 94 89" fill="none" xmlns="http://www.w3.org/2000/svg">
<path fill-rule="evenodd" clip-rule="evenodd" d="M34.3193 7.31088C37.531 5.92849 39.9241 6.12406 43.4525 7.16076C48.2591 8.57298 51.6529 10.6643 53.9121 15.492C55.7947 19.5151 56.11 24.6677 54.5617 26.6165C53.0133 28.5653 50.9966 29.6107 49.1491 29.9954C47.3016 30.38 45.9224 31.668 45.9224 31.668C45.9224 31.668 46.0523 33.8929 47.288 37.2638C47.5871 38.8279 46.0355 39.1761 45.167 40.0824C44.4436 40.8374 44.2331 41.1712 43.6187 42.0312C41.6138 44.8372 36.1894 46.4555 36.1894 46.4555L34.2513 41.7296L34.3555 39.9564L36.0338 40.2325L36.138 38.4593L38.2197 38.5263L38.3239 36.7531L40.1714 36.3685L39.9765 33.0311L40.25 30.5972L38.8708 31.8852L38.4282 34.9799L36.984 35.1555L36.8798 36.9287L34.7981 36.8617L34.6939 38.6349L33.0156 38.3588L33.0805 39.4712L31.5065 37.4219L31.7799 34.988L27.526 29.7434L27.3961 27.5185C27.3961 27.5185 26.1392 23.3664 25.9655 20.8103C25.7506 17.6468 26.7519 15.9185 28.23 13.3328C29.9262 10.3655 31.2733 8.62194 34.3193 7.31088ZM32.6395 24.8004C31.9253 23.4227 30.0502 22.1312 28.9838 22.684C27.9173 23.2369 27.8919 25.5136 28.6061 26.8912C29.3203 28.2689 32.2376 31.3123 33.1984 30.8143C34.1591 30.3162 33.3536 26.178 32.6395 24.8004Z" fill="white"/>
<path d="M50.5879 41.6385C46.5844 43.5875 42.2028 49.3644 42.2028 49.3644C42.2028 49.3644 47.6611 45.3647 51.5084 43.4141L50.5879 41.6385Z" fill="white"/>
<path d="M52.7636 46.1458C49.8892 47.5096 47.1673 52.4227 47.1673 52.4227C47.1673 52.4227 50.6994 48.8584 53.4525 47.4749L52.7636 46.1458Z" fill="white"/>
<path d="M55.0647 50.5848C52.1904 51.9486 51.6716 54.5932 51.6716 54.5932C51.6716 54.5932 52.7705 52.8535 55.5236 51.47L55.0647 50.5848Z" fill="white"/>
<path d="M32.2029 55.7399L42.7829 46.9578L42.4655 45.5968L43.9082 44.3992C43.9082 44.3992 44.8389 44.5419 45.1875 44.9618C45.5361 45.3818 45.505 46.3228 45.505 46.3228C45.505 46.3228 46.4357 46.4655 46.7842 46.8855C47.1328 47.3054 47.1017 48.2465 47.1017 48.2465L45.659 49.444L44.3797 48.8814L33.7997 57.6635L34.1171 59.0245L32.6744 60.2221C32.6744 60.2221 31.7437 60.0794 31.3951 59.6595C31.0465 59.2395 31.0777 58.2985 31.0777 58.2985C31.0777 58.2985 30.147 58.1558 29.7984 57.7358C29.4498 57.3159 29.4809 56.3748 29.4809 56.3748L30.9236 55.1773L32.2029 55.7399Z" fill="white"/>
<path d="M69.2861 45.007L55.8872 41.9197L55.5588 40.5613L53.7317 40.1403C53.7317 40.1403 52.9645 40.6862 52.842 41.2181C52.7194 41.7499 53.1704 42.5765 53.1704 42.5765C53.1704 42.5765 52.4032 43.1224 52.2807 43.6543C52.1581 44.1861 52.6091 45.0127 52.6091 45.0127L54.4362 45.4336L55.3259 44.3559L68.7248 47.4431L69.0532 48.8015L70.8803 49.2225C70.8803 49.2225 71.6475 48.6766 71.77 48.1448C71.8926 47.6129 71.4416 46.7864 71.4416 46.7864C71.4416 46.7864 72.2088 46.2404 72.3313 45.7086C72.4539 45.1768 72.003 44.3502 72.003 44.3502L70.1758 43.9292L69.2861 45.007Z" fill="white"/>
<path d="M41.9071 78.0775L50.3606 67.2331L49.759 65.9717L50.9118 64.4929C50.9118 64.4929 51.8514 64.4329 52.2819 64.7685C52.7123 65.104 52.8835 66.0299 52.8835 66.0299C52.8835 66.0299 53.8231 65.97 54.2536 66.3055C54.684 66.641 54.8552 67.5669 54.8552 67.5669L53.7024 69.0457L52.3323 68.7701L43.8788 79.6145L44.4804 80.8759L43.3277 82.3547C43.3277 82.3547 42.388 82.4147 41.9576 82.0791C41.5271 81.7436 41.356 80.8177 41.356 80.8177C41.356 80.8177 40.4163 80.8777 39.9859 80.5421C39.5554 80.2066 39.3843 79.2807 39.3843 79.2807L40.537 77.8019L41.9071 78.0775Z" fill="white"/>
<path d="M77.5912 70.2339L65.5462 63.6022L65.6015 62.2058L63.959 61.3014C63.959 61.3014 63.0719 61.6169 62.8087 62.095C62.5454 62.5731 62.7533 63.4914 62.7533 63.4914C62.7533 63.4914 61.8661 63.8069 61.6029 64.285C61.3397 64.7631 61.5475 65.6814 61.5475 65.6814L63.19 66.5858L64.3404 65.7922L76.3854 72.4239L76.33 73.8204L77.9725 74.7247C77.9725 74.7247 78.8597 74.4093 79.1229 73.9312C79.3862 73.4531 79.1783 72.5347 79.1783 72.5347C79.1783 72.5347 80.0655 72.2193 80.3287 71.7412C80.5919 71.2631 80.3841 70.3447 80.3841 70.3447L78.7416 69.4404L77.5912 70.2339Z" fill="white"/>
<path fill-rule="evenodd" clip-rule="evenodd" d="M52.1643 57.717C52.1643 57.717 53.6207 54.0534 55.6828 53.6403C57.3074 53.3148 58.9304 53.4702 59.7269 54.923C60.6656 56.6352 57.5564 59.4273 57.5564 59.4273C57.5564 59.4273 59.7441 59.3018 60.2524 60.2825C62.0933 63.8337 55.3858 63.9316 55.3858 63.9316L52.1643 57.717ZM54.8603 58.5722C54.37 58.8263 54.4327 59.9202 54.4327 59.9202L55.3532 61.6958C55.3532 61.6958 57.325 62.4955 57.589 61.6631C57.8531 60.8308 55.7808 60.3478 55.7808 60.3478C55.7808 60.3478 55.5537 58.2127 54.8603 58.5722Z" fill="white"/>
</svg>
