<svg width="94" height="86" viewBox="0 0 94 86" fill="none" xmlns="http://www.w3.org/2000/svg">
<path fill-rule="evenodd" clip-rule="evenodd" d="M46.4022 50.0005C41.1113 50.0412 37.5164 52.695 35.0498 57.3419C32.6878 61.7917 35.0498 70.2215 35.0498 70.2215L37.969 75.631V80.9116C37.969 80.9116 42.5492 85.9233 46.4022 85.9991C50.3859 86.0775 55.0949 80.9116 55.0949 80.9116V75.631L57.9492 70.2215C57.9492 70.2215 60.3134 61.7906 57.9492 57.3419C55.4506 52.6401 51.757 49.9593 46.4022 50.0005ZM43.8074 71.5739L46.4022 65.8424L48.9322 71.5739C48.9322 71.5739 48.4441 72.8098 47.7645 72.8619C47.032 72.9179 46.4022 71.5739 46.4022 71.5739C46.4022 71.5739 45.8676 72.8272 45.1697 72.8619C44.4359 72.8983 43.8074 71.5739 43.8074 71.5739ZM52.1109 61.5922C50.4837 61.7508 49.2893 62.713 48.9322 64.2969C48.4389 66.4846 50.6466 70.7458 52.8893 70.4828C54.9222 70.2444 56.4345 66.2834 56.0031 64.2969C55.6121 62.4963 53.9574 61.4121 52.1109 61.5922ZM40.6287 61.5922C42.2558 61.7508 43.4503 62.713 43.8074 64.2969C44.3006 66.4846 42.0929 70.7458 39.8502 70.4828C37.8174 70.2444 36.3051 66.2834 36.7364 64.2969C37.1274 62.4963 38.7822 61.4121 40.6287 61.5922ZM40.7584 73.699L38.8123 72.8619L41.9261 79.4305L42.8343 79.3017L43.8074 80.3321L44.5858 79.3017L45.5589 80.3321L46.5319 79.3017L47.4401 80.3321L48.2835 79.3017L49.2565 80.3321L50.035 79.3017L51.2675 79.4305L54.1219 72.8619L52.1109 73.699V76.4038L51.2675 78.0137L50.035 76.7258L49.2565 78.3357L48.2835 76.7258L47.3104 78.7221L46.4022 76.7258L45.5589 78.7221L44.5858 76.7258L43.8074 78.3357L42.8343 76.7258L41.9261 78.0137L40.7584 76.275V73.699Z" fill="white"/>
</svg>
