<svg width="94" height="86" viewBox="0 0 94 86" fill="none" xmlns="http://www.w3.org/2000/svg">
<path fill-rule="evenodd" clip-rule="evenodd" d="M47.5978 2.00047C52.8887 2.04116 56.4836 4.69499 58.9502 9.34187C61.3122 13.7917 58.9502 22.2215 58.9502 22.2215L56.031 27.631V32.9116C56.031 32.9116 51.4508 37.9233 47.5978 37.9991C43.6141 38.0775 38.9051 32.9116 38.9051 32.9116V27.631L36.0508 22.2215C36.0508 22.2215 33.6866 13.7906 36.0508 9.34187C38.5494 4.64013 42.243 1.95929 47.5978 2.00047ZM50.1926 23.5739L47.5978 17.8424L45.0678 23.5739C45.0678 23.5739 45.5559 24.8098 46.2355 24.8619C46.968 24.9179 47.5978 23.5739 47.5978 23.5739C47.5978 23.5739 48.1324 24.8272 48.8303 24.8619C49.5641 24.8983 50.1926 23.5739 50.1926 23.5739ZM41.8891 13.5922C43.5163 13.7508 44.7107 14.713 45.0678 16.2969C45.5611 18.4846 43.3534 22.7458 41.1107 22.4828C39.0778 22.2444 37.5655 18.2834 37.9969 16.2969C38.3879 14.4963 40.0426 13.4121 41.8891 13.5922ZM53.3713 13.5922C51.7442 13.7508 50.5497 14.713 50.1926 16.2969C49.6994 18.4846 51.9071 22.7458 54.1498 22.4828C56.1826 22.2444 57.6949 18.2834 57.2636 16.2969C56.8726 14.4963 55.2178 13.4121 53.3713 13.5922ZM53.2416 25.699L55.1877 24.8619L52.0739 31.4305L51.1657 31.3017L50.1926 32.3321L49.4142 31.3017L48.4411 32.3321L47.4681 31.3017L46.5599 32.3321L45.7165 31.3017L44.7435 32.3321L43.965 31.3017L42.7325 31.4305L39.8781 24.8619L41.8891 25.699V28.4038L42.7325 30.0137L43.965 28.7258L44.7435 30.3357L45.7165 28.7258L46.6896 30.7221L47.5978 28.7258L48.4411 30.7221L49.4142 28.7258L50.1926 30.3357L51.1657 28.7258L52.0739 30.0137L53.2416 28.275V25.699Z" fill="white"/>
<path d="M47 40C51.4512 39.8878 58 43 58 43C58 43 51.3133 41.9611 47 42C43.0754 42.0354 37 43 37 43C37 43 42.9241 40.1028 47 40Z" fill="white"/>
<path d="M47.1429 45.003C50.3223 44.8909 55 48 55 48C55 48 50.2238 46.4612 47.1429 46.5C44.3396 46.5353 40 48 40 48C40 48 44.2315 45.1056 47.1429 45.003Z" fill="white"/>
<path d="M47.1429 50.003C50.3223 49.8909 52 52 52 52C52 52 50.2238 50.9612 47.1429 51C44.3396 51.0353 43 52 43 52C43 52 44.2315 50.1056 47.1429 50.003Z" fill="white"/>
<path d="M52.6623 73.4903L55.2488 66.3839L56.541 66.4884L56.8937 65.5194C56.8937 65.5194 56.3496 64.9555 55.8367 64.7688C55.3238 64.5821 54.5445 64.6643 54.5445 64.6643C54.5445 64.6643 54.0003 64.1004 53.4875 63.9138C52.9746 63.7271 52.1953 63.8093 52.1953 63.8093L51.8426 64.7783L52.8996 65.5289L50.3131 72.6353L49.0209 72.5308L48.6682 73.4998C48.6682 73.4998 49.2124 74.0637 49.7252 74.2504C50.2381 74.437 51.0174 74.3549 51.0174 74.3549C51.0174 74.3549 51.5616 74.9188 52.0745 75.1054C52.5873 75.2921 53.3667 75.2099 53.3667 75.2099L53.7194 74.2409L52.6623 73.4903Z" fill="white"/>
<path d="M41.349 73.4574L38.7624 66.351L37.4703 66.4555L37.1176 65.4864C37.1176 65.4864 37.6617 64.9225 38.1746 64.7359C38.6875 64.5492 39.4668 64.6314 39.4668 64.6314C39.4668 64.6314 40.011 64.0675 40.5238 63.8808C41.0367 63.6941 41.816 63.7763 41.816 63.7763L42.1687 64.7454L41.1117 65.4959L43.6982 72.6023L44.9904 72.4978L45.3431 73.4669C45.3431 73.4669 44.7989 74.0308 44.2861 74.2174C43.7732 74.4041 42.9939 74.3219 42.9939 74.3219C42.9939 74.3219 42.4497 74.8858 41.9368 75.0725C41.424 75.2591 40.6446 75.177 40.6446 75.177L40.2919 74.2079L41.349 73.4574Z" fill="white"/>
<path fill-rule="evenodd" clip-rule="evenodd" d="M46.9996 55C46.9996 55 49.9788 52.4177 51.9996 53C53.5917 53.4587 54.9611 54.3436 54.9996 56C55.045 57.9521 50.9996 59 50.9996 59C50.9996 59 52.9996 59.8954 52.9996 61C52.9996 65 46.9996 62 46.9996 62C46.9996 62 40.9996 65 40.9996 61C40.9996 59.8954 42.9996 59 42.9996 59C42.9996 59 38.9542 57.9521 38.9996 56C39.0381 54.3436 40.4075 53.4587 41.9996 53C44.0204 52.4177 46.9996 55 46.9996 55ZM48.9996 57C48.4473 57 47.9996 58 47.9996 58V60C47.9996 60 49.3822 61.6175 49.9996 61C50.6171 60.3825 48.9996 59 48.9996 59C48.9996 59 49.7807 57 48.9996 57ZM45.4996 57C46.0519 57 46.4996 58 46.4996 58V60C46.4996 60 45.1171 61.6175 44.4996 61C43.8822 60.3825 45.4996 59 45.4996 59C45.4996 59 44.7186 57 45.4996 57Z" fill="white"/>
<path d="M29.149 54.4439L33.3702 41.3578L32.3725 40.3793L32.9481 38.5948C32.9481 38.5948 33.8102 38.2162 34.3296 38.3838C34.849 38.5513 35.3274 39.3623 35.3274 39.3623C35.3274 39.3623 36.1894 38.9837 36.7089 39.1512C37.2283 39.3188 37.7066 40.1298 37.7066 40.1298L37.131 41.9143L35.7495 42.1253L31.5283 55.2114L32.526 56.1899L31.9504 57.9744C31.9504 57.9744 31.0883 58.353 30.5689 58.1855C30.0495 58.0179 29.5711 57.2069 29.5711 57.2069C29.5711 57.2069 28.7091 57.5855 28.1896 57.418C27.6702 57.2504 27.1919 56.4394 27.1919 56.4394L27.7675 54.6549L29.149 54.4439Z" fill="white"/>
<path d="M64.0571 54.49L59.8359 41.404L60.8337 40.4254L60.258 38.641C60.258 38.641 59.3959 38.2623 58.8765 38.4299C58.3571 38.5974 57.8788 39.4085 57.8788 39.4085C57.8788 39.4085 57.0167 39.0298 56.4973 39.1974C55.9778 39.3649 55.4995 40.176 55.4995 40.176L56.0751 41.9604L57.4566 42.1715L61.6778 55.2575L60.6801 56.2361L61.2557 58.0205C61.2557 58.0205 62.1178 58.3991 62.6372 58.2316C63.1566 58.064 63.635 57.253 63.635 57.253C63.635 57.253 64.4971 57.6317 65.0165 57.4641C65.5359 57.2965 66.0142 56.4855 66.0142 56.4855L65.4386 54.7011L64.0571 54.49Z" fill="white"/>
</svg>
