<svg width="94" height="86" viewBox="0 0 94 86" fill="none" xmlns="http://www.w3.org/2000/svg">
<path fill-rule="evenodd" clip-rule="evenodd" d="M46.4022 2.00047C41.1113 2.04116 37.5164 4.69499 35.0498 9.34187C32.6878 13.7917 35.0498 22.2215 35.0498 22.2215L37.969 27.631V32.9116C37.969 32.9116 42.5492 37.9233 46.4022 37.9991C50.3859 38.0775 55.0949 32.9116 55.0949 32.9116V27.631L57.9492 22.2215C57.9492 22.2215 60.3134 13.7906 57.9492 9.34187C55.4506 4.64013 51.757 1.95929 46.4022 2.00047ZM43.8074 23.5739L46.4022 17.8424L48.9322 23.5739C48.9322 23.5739 48.4441 24.8098 47.7645 24.8619C47.032 24.9179 46.4022 23.5739 46.4022 23.5739C46.4022 23.5739 45.8676 24.8272 45.1697 24.8619C44.4359 24.8983 43.8074 23.5739 43.8074 23.5739ZM52.1109 13.5922C50.4837 13.7508 49.2893 14.713 48.9322 16.2969C48.4389 18.4846 50.6466 22.7458 52.8893 22.4828C54.9222 22.2444 56.4345 18.2834 56.0031 16.2969C55.6121 14.4963 53.9574 13.4121 52.1109 13.5922ZM40.6287 13.5922C42.2558 13.7508 43.4503 14.713 43.8074 16.2969C44.3006 18.4846 42.0929 22.7458 39.8502 22.4828C37.8174 22.2444 36.3051 18.2834 36.7364 16.2969C37.1274 14.4963 38.7822 13.4121 40.6287 13.5922ZM40.7584 25.699L38.8123 24.8619L41.9261 31.4305L42.8343 31.3017L43.8074 32.3321L44.5858 31.3017L45.5589 32.3321L46.5319 31.3017L47.4401 32.3321L48.2835 31.3017L49.2565 32.3321L50.035 31.3017L51.2675 31.4305L54.1219 24.8619L52.1109 25.699V28.4038L51.2675 30.0137L50.035 28.7258L49.2565 30.3357L48.2835 28.7258L47.3104 30.7221L46.4022 28.7258L45.5589 30.7221L44.5858 28.7258L43.8074 30.3357L42.8343 28.7258L41.9261 30.0137L40.7584 28.275V25.699Z" fill="white"/>
<path d="M47 40C42.5488 39.8878 36 43 36 43C36 43 42.6867 41.9611 47 42C50.9246 42.0354 57 43 57 43C57 43 51.0759 40.1028 47 40Z" fill="white"/>
<path d="M46.8571 45.003C43.6777 44.8909 39 48 39 48C39 48 43.7762 46.4612 46.8571 46.5C49.6604 46.5353 54 48 54 48C54 48 49.7685 45.1056 46.8571 45.003Z" fill="white"/>
<path d="M46.8571 50.003C43.6777 49.8909 42 52 42 52C42 52 43.7762 50.9612 46.8571 51C49.6604 51.0353 51 52 51 52C51 52 49.7685 50.1056 46.8571 50.003Z" fill="white"/>
<path d="M56.75 80.875V67.125L58 66.5V64.625C58 64.625 57.2958 64 56.75 64C56.2042 64 55.5 64.625 55.5 64.625C55.5 64.625 54.7958 64 54.25 64C53.7042 64 53 64.625 53 64.625V66.5L54.25 67.125V80.875L53 81.5V83.375C53 83.375 53.7042 84 54.25 84C54.7958 84 55.5 83.375 55.5 83.375C55.5 83.375 56.2042 84 56.75 84C57.2958 84 58 83.375 58 83.375V81.5L56.75 80.875Z" fill="white"/>
<path d="M38.75 80.875V67.125L40 66.5V64.625C40 64.625 39.2958 64 38.75 64C38.2042 64 37.5 64.625 37.5 64.625C37.5 64.625 36.7958 64 36.25 64C35.7042 64 35 64.625 35 64.625V66.5L36.25 67.125V80.875L35 81.5V83.375C35 83.375 35.7042 84 36.25 84C36.7958 84 37.5 83.375 37.5 83.375C37.5 83.375 38.2042 84 38.75 84C39.2958 84 40 83.375 40 83.375V81.5L38.75 80.875Z" fill="white"/>
<path d="M74.875 41.25H61.125L60.5 40H58.625C58.625 40 58 40.7042 58 41.25C58 41.7958 58.625 42.5 58.625 42.5C58.625 42.5 58 43.2042 58 43.75C58 44.2958 58.625 45 58.625 45H60.5L61.125 43.75H74.875L75.5 45H77.375C77.375 45 78 44.2958 78 43.75C78 43.2042 77.375 42.5 77.375 42.5C77.375 42.5 78 41.7958 78 41.25C78 40.7042 77.375 40 77.375 40H75.5L74.875 41.25Z" fill="white"/>
<path d="M31.875 41.25H18.125L17.5 40H15.625C15.625 40 15 40.7042 15 41.25C15 41.7958 15.625 42.5 15.625 42.5C15.625 42.5 15 43.2042 15 43.75C15 44.2958 15.625 45 15.625 45H17.5L18.125 43.75H31.875L32.5 45H34.375C34.375 45 35 44.2958 35 43.75C35 43.2042 34.375 42.5 34.375 42.5C34.375 42.5 35 41.7958 35 41.25C35 40.7042 34.375 40 34.375 40H32.5L31.875 41.25Z" fill="white"/>
<path fill-rule="evenodd" clip-rule="evenodd" d="M47.0004 55C47.0004 55 44.0212 52.4177 42.0004 53C40.4083 53.4587 39.0389 54.3436 39.0004 56C38.955 57.9521 43.0004 59 43.0004 59C43.0004 59 41.0004 59.8954 41.0004 61C41.0004 65 47.0004 62 47.0004 62C47.0004 62 53.0004 65 53.0004 61C53.0004 59.8954 51.0004 59 51.0004 59C51.0004 59 55.0458 57.9521 55.0004 56C54.9619 54.3436 53.5925 53.4587 52.0004 53C49.9796 52.4177 47.0004 55 47.0004 55ZM45.0004 57C45.5527 57 46.0004 58 46.0004 58V60C46.0004 60 44.6178 61.6175 44.0004 61C43.3829 60.3825 45.0004 59 45.0004 59C45.0004 59 44.2193 57 45.0004 57ZM48.5004 57C47.9481 57 47.5004 58 47.5004 58V60C47.5004 60 48.8829 61.6175 49.5004 61C50.1178 60.3825 48.5004 59 48.5004 59C48.5004 59 49.2814 57 48.5004 57Z" fill="white"/>
</svg>
