<svg width="94" height="86" viewBox="0 0 94 86" fill="none" xmlns="http://www.w3.org/2000/svg">
<g clip-path="url(#clip0)">
<path fill-rule="evenodd" clip-rule="evenodd" d="M64.3311 68.6393C62.8908 63.548 59.3798 60.7843 54.2456 59.6362C49.3292 58.5369 41.8258 63.0468 41.8258 63.0468L37.3824 67.2943L32.2903 68.6926C32.2903 68.6926 28.6704 74.4364 29.6176 78.172C30.5969 82.0342 36.8253 85.2072 36.8253 85.2072L41.9175 83.8088L47.8897 85.1288C47.8897 85.1288 56.6457 85.1761 60.3095 81.7182C64.1818 78.0637 65.7888 73.7921 64.3311 68.6393ZM42.8407 71.8499L49.0547 72.8344L44.1978 76.7918C44.1978 76.7918 42.8768 76.6484 42.6466 76.0068C42.3986 75.3153 43.5279 74.3521 43.5279 74.3521C43.5279 74.3521 42.1778 74.1685 41.9595 73.5046C41.73 72.8067 42.8407 71.8499 42.8407 71.8499ZM39.9841 69.4726L40.276 67.3742L34.7664 72.1163L35.1311 72.9579L34.3952 74.1691L35.5949 74.6469L34.859 75.8581L36.1103 76.5236L35.3572 77.6722L36.5741 78.2126L35.8382 79.4237L37.0379 79.9016L37.2401 81.1242L44.3301 82.1372L42.9903 80.4197L40.3821 81.1359L38.6063 80.7491L39.5219 79.2194L37.7633 78.8951L39.0581 77.5305L36.8753 77.1208L38.5599 75.7164L36.4115 75.4318L38.0789 73.9648L36.3203 73.6405L37.6151 72.2758L36.1326 71.7411L37.5001 70.1547L39.9841 69.4726ZM52.9788 75.8711L51.5982 75.0854L50.0269 77.8466L47.2657 76.2752L46.48 77.6557L49.2412 79.2271L47.6698 81.9883L49.0504 82.7739L50.6217 80.0128L53.3829 81.5842L54.1686 80.2036L51.4074 78.6323L52.9788 75.8711ZM48.3192 63.0231L49.6998 63.8088L48.1284 66.57L50.8896 68.1413L50.1039 69.5219L47.3427 67.9505L45.7714 70.7116L44.3908 69.9259L45.9622 67.1648L43.2011 65.5934L43.9867 64.2129L46.7479 65.7843L48.3192 63.0231Z" fill="white"/>
<path d="M30.3682 64.8519L19.2612 72.9573L18.0195 72.316L16.5049 73.4213C16.5049 73.4213 16.4152 74.3586 16.7369 74.7994C17.0586 75.2403 17.9786 75.4407 17.9786 75.4407C17.9786 75.4407 17.8889 76.378 18.2106 76.8189C18.5323 77.2597 19.4523 77.4602 19.4523 77.4602L20.9669 76.3549L20.7349 74.9767L31.8419 66.8713L33.0836 67.5126L34.5982 66.4073C34.5982 66.4073 34.6879 65.47 34.3662 65.0292C34.0445 64.5883 33.1245 64.3879 33.1245 64.3879C33.1245 64.3879 33.2142 63.4506 32.8925 63.0097C32.5708 62.5689 31.6508 62.3684 31.6508 62.3684L30.1362 63.4737L30.3682 64.8519Z" fill="white"/>
<path d="M59.4681 76.9884H73.2181L73.8431 75.7384H75.7181C75.7181 75.7384 76.3431 76.4427 76.3431 76.9884C76.3431 77.5342 75.7181 78.2384 75.7181 78.2384C75.7181 78.2384 76.3431 78.9427 76.3431 79.4884C76.3431 80.0342 75.7181 80.7384 75.7181 80.7384H73.8431L73.2181 79.4884H59.4681L58.8431 80.7384H56.9681C56.9681 80.7384 56.3431 80.0342 56.3431 79.4884C56.3431 78.9427 56.9681 78.2384 56.9681 78.2384C56.9681 78.2384 56.3431 77.5342 56.3431 76.9884C56.3431 76.4427 56.9681 75.7384 56.9681 75.7384H58.8431L59.4681 76.9884Z" fill="white"/>
</g>
<defs>
<clipPath id="clip0">
<rect width="94" height="86" fill="white"/>
</clipPath>
</defs>
</svg>
