<svg width="94" height="89" viewBox="0 0 94 89" fill="none" xmlns="http://www.w3.org/2000/svg">
<path fill-rule="evenodd" clip-rule="evenodd" d="M59.6808 7.31088C56.4691 5.92849 54.076 6.12406 50.5475 7.16076C45.741 8.57298 42.3471 10.6643 40.088 15.492C38.2054 19.5151 37.89 24.6677 39.4384 26.6165C40.9868 28.5653 43.0035 29.6107 44.851 29.9954C46.6985 30.38 48.0777 31.668 48.0777 31.668C48.0777 31.668 47.9478 33.8929 46.7121 37.2638C46.413 38.8279 47.9646 39.1761 48.833 40.0824C49.5564 40.8374 49.767 41.1712 50.3814 42.0312C52.3863 44.8372 57.8106 46.4555 57.8106 46.4555L59.7488 41.7296L59.6446 39.9564L57.9663 40.2325L57.862 38.4593L55.7804 38.5263L55.6761 36.7531L53.8286 36.3685L54.0235 33.0311L53.7501 30.5972L55.1293 31.8852L55.5719 34.9799L57.0161 35.1555L57.1203 36.9287L59.2019 36.8617L59.3062 38.6349L60.9845 38.3588L60.9195 39.4712L62.4936 37.4219L62.2202 34.988L66.4741 29.7434L66.604 27.5185C66.604 27.5185 67.8609 23.3664 68.0345 20.8103C68.2494 17.6468 67.2481 15.9185 65.7701 13.3328C64.0739 10.3655 62.7268 8.62194 59.6808 7.31088ZM61.3606 24.8004C62.0748 23.4227 63.9498 22.1312 65.0163 22.684C66.0828 23.2369 66.1082 25.5136 65.394 26.8912C64.6798 28.2689 61.7624 31.3123 60.8017 30.8143C59.8409 30.3162 60.6464 26.178 61.3606 24.8004Z" fill="white"/>
<path d="M43.4121 41.6385C47.4156 43.5875 51.7973 49.3644 51.7973 49.3644C51.7973 49.3644 46.3389 45.3647 42.4917 43.4141L43.4121 41.6385Z" fill="white"/>
<path d="M41.2364 46.1458C44.1108 47.5096 46.8327 52.4227 46.8327 52.4227C46.8327 52.4227 43.3006 48.8584 40.5475 47.4749L41.2364 46.1458Z" fill="white"/>
<path d="M38.9353 50.5848C41.8097 51.9486 42.3284 54.5932 42.3284 54.5932C42.3284 54.5932 41.2296 52.8535 38.4765 51.47L38.9353 50.5848Z" fill="white"/>
<path d="M47.5104 61.2262L51.6041 48.0998L52.9835 47.8753L53.5417 46.0853C53.5417 46.0853 53.0555 45.279 52.5345 45.1165C52.0135 44.954 51.1551 45.341 51.1551 45.341C51.1551 45.341 50.6689 44.5347 50.1479 44.3722C49.6269 44.2097 48.7685 44.5967 48.7685 44.5967L48.2103 46.3866L49.2175 47.3554L45.1238 60.4819L43.7444 60.7064L43.1861 62.4964C43.1861 62.4964 43.6723 63.3027 44.1934 63.4652C44.7144 63.6277 45.5728 63.2407 45.5728 63.2407C45.5728 63.2407 46.059 64.047 46.58 64.2095C47.101 64.372 47.9594 63.985 47.9594 63.985L48.5176 62.195L47.5104 61.2262Z" fill="white"/>
<path d="M31.9947 51.5488L41.0226 41.1778L40.4902 39.8856L41.7213 38.4714C41.7213 38.4714 42.6628 38.4624 43.0745 38.8207C43.4861 39.1791 43.6069 40.1129 43.6069 40.1129C43.6069 40.1129 44.5484 40.1038 44.9601 40.4622C45.3718 40.8205 45.4926 41.7543 45.4926 41.7543L44.2615 43.1685L42.9083 42.8192L33.8803 53.1903L34.4128 54.4824L33.1817 55.8966C33.1817 55.8966 32.2402 55.9057 31.8285 55.5473C31.4169 55.189 31.2961 54.2552 31.2961 54.2552C31.2961 54.2552 30.3545 54.2642 29.9429 53.9059C29.5312 53.5475 29.4104 52.6137 29.4104 52.6137L30.6415 51.1995L31.9947 51.5488Z" fill="white"/>
<path d="M40.8056 80.9202L39.9394 67.1975L41.1475 66.495L41.0294 64.6238C41.0294 64.6238 40.2872 64.0444 39.7425 64.0787C39.1978 64.1131 38.5344 64.7812 38.5344 64.7812C38.5344 64.7812 37.7922 64.2019 37.2475 64.2362C36.7028 64.2706 36.0394 64.9387 36.0394 64.9387L36.1575 66.81L37.4444 67.355L38.3105 81.0777L37.1024 81.7802L37.2205 83.6515C37.2205 83.6515 37.9627 84.2309 38.5074 84.1965C39.0521 84.1621 39.7155 83.494 39.7155 83.494C39.7155 83.494 40.4577 84.0734 41.0024 84.039C41.5471 84.0046 42.2106 83.3365 42.2106 83.3365L42.0925 81.4652L40.8056 80.9202Z" fill="white"/>
<path d="M28.0192 79.62L31.5927 66.3425L30.5481 65.4141L31.0354 63.6035C31.0354 63.6035 31.8779 63.183 32.4049 63.3249C32.9319 63.4667 33.4495 64.2532 33.4495 64.2532C33.4495 64.2532 34.292 63.8327 34.819 63.9746C35.346 64.1164 35.8636 64.903 35.8636 64.903L35.3763 66.7136L34.0068 66.9922L30.4333 80.2697L31.4779 81.1981L30.9906 83.0087C30.9906 83.0087 30.1482 83.4292 29.6211 83.2873C29.0941 83.1455 28.5765 82.359 28.5765 82.359C28.5765 82.359 27.7341 82.7795 27.207 82.6376C26.68 82.4958 26.1624 81.7092 26.1624 81.7092L26.6497 79.8987L28.0192 79.62Z" fill="white"/>
<path fill-rule="evenodd" clip-rule="evenodd" d="M41.8358 57.717C41.8358 57.717 40.3793 54.0534 38.3173 53.6403C36.6927 53.3148 35.0697 53.4702 34.2732 54.923C33.3345 56.6352 36.4437 59.4273 36.4437 59.4273C36.4437 59.4273 34.256 59.3018 33.7476 60.2825C31.9067 63.8337 38.6142 63.9316 38.6142 63.9316L41.8358 57.717ZM39.1397 58.5722C39.6301 58.8263 39.5673 59.9202 39.5673 59.9202L38.6469 61.6958C38.6469 61.6958 36.675 62.4955 36.411 61.6631C36.147 60.8308 38.2193 60.3478 38.2193 60.3478C38.2193 60.3478 38.4463 58.2127 39.1397 58.5722Z" fill="white"/>
</svg>
