<svg width="66" height="110" viewBox="0 0 66 100" fill="none" xmlns="http://www.w3.org/2000/svg">
<g transform="translate(0 10)">
<path d="M25.2587 70.9924C22.4479 73.0599 21.4859 76.3763 21.4859 76.3763C21.4859 76.3763 17.8526 76.9978 16.5102 77.9453C15.1678 78.8929 14.9823 83.67 15.6301 85.5627C16.2778 87.4555 18.7768 90.3373 20.42 90.3435C22.0631 90.3497 25.3957 88.7744 25.3957 88.7744C25.3957 88.7744 28.086 90.939 31.5744 91.0202C35.8322 91.1192 41.6322 91.3133 44.3144 88.0512C47.2631 84.4649 47.7611 80.4633 46.4794 75.8344C45.1037 70.866 42.2674 67.3783 37.3972 66.116C33.3232 65.0601 28.7279 68.4404 25.3016 70.9608L25.2587 70.9924Z" fill="#FFDCC9" stroke="black"/>
<path d="M24.3844 81.8571C25.0872 81.1404 27.0741 81.9538 27.0741 81.9538C27.0741 81.9538 25.9133 83.7599 24.9265 83.576C24.0438 83.4115 23.7558 82.4981 24.3844 81.8571Z" fill="black" stroke="black"/>
<path d="M35.4179 71.9829L29.98 66.8822L35.5462 61.9812L34.2149 68.1681L43.4719 66.2974L40.1503 73.1119L50.1127 75.213L43.0074 82.1721L49.7876 86.3252L41.5257 87.882L45.1701 92.4998L37.7995 91.6784L39.478 84.8579L38.9406 77.9497L35.4179 71.9829Z" fill="#F3EC5A" stroke="black"/>
<path d="M43.2384 75.8079L45.137 76.782L44.1407 78.669L41.1564 78.0373L43.2384 75.8079Z" fill="#FF2A2A"/>
<path d="M45.137 76.782L43.2384 75.8079M45.137 76.782L44.1407 78.669M45.137 76.782L43.463 77.7817M45.137 76.782L43.1923 76.9234M43.2384 75.8079L41.1564 78.0373M43.2384 75.8079L43.1923 76.9234M41.1564 78.0373L44.1407 78.669M41.1564 78.0373L43.3277 77.3526M44.1407 78.669L43.463 77.7817M43.1923 76.9234L43.3277 77.3526M43.463 77.7817L43.3277 77.3526" stroke="black" stroke-width="0.5"/>
<path d="M37.8764 70.159L38.9008 70.8845L38.4779 72.0664L36.9106 71.5121L37.8764 70.159Z" fill="#40BDCE"/>
<path d="M38.9008 70.8845L37.8764 70.159M38.9008 70.8845L38.4779 72.0664M38.9008 70.8845L38.0864 71.4559M38.9008 70.8845L37.9059 70.8837M37.8764 70.159L36.9106 71.5121M37.8764 70.159L37.9059 70.8837M36.9106 71.5121L38.4779 72.0664M36.9106 71.5121L37.9962 71.1698M38.4779 72.0664L38.0864 71.4559M37.9059 70.8837L37.9962 71.1698M38.0864 71.4559L37.9962 71.1698" stroke="black" stroke-width="0.2"/>
<path d="M42.0868 83.5109L43.1113 84.2364L42.6883 85.4184L41.121 84.864L42.0868 83.5109Z" fill="#40BDCE"/>
<path d="M43.1113 84.2364L42.0868 83.5109M43.1113 84.2364L42.6883 85.4184M43.1113 84.2364L42.2969 84.8078M43.1113 84.2364L42.1164 84.2356M42.0868 83.5109L41.121 84.864M42.0868 83.5109L42.1164 84.2356M41.121 84.864L42.6883 85.4184M41.121 84.864L42.2067 84.5217M42.6883 85.4184L42.2969 84.8078M42.1164 84.2356L42.2067 84.5217M42.2969 84.8078L42.2067 84.5217" stroke="black" stroke-width="0.2"/>
<path d="M20.3244 78.8397L21.7035 81.5504L22.305 83.4578L22.9064 85.3653L23.0311 87.423L19.2163 88.626L19.5685 86.4179L18.967 84.5105L18.3655 82.6031L16.5095 80.0427L20.3244 78.8397Z" fill="#FFFDFD"/>
<path d="M21.7035 81.5504L20.3244 78.8397L16.5095 80.0427L18.3655 82.6031M21.7035 81.5504L18.3655 82.6031M21.7035 81.5504L22.305 83.4578M22.9064 85.3653L23.0311 87.423L19.2163 88.626L19.5685 86.4179M22.9064 85.3653L19.5685 86.4179M22.9064 85.3653L22.305 83.4578M19.5685 86.4179L18.967 84.5105M18.3655 82.6031L18.967 84.5105M22.305 83.4578L18.967 84.5105" stroke="black"/>
<path d="M29.9128 72.6703L28.2805 75.8064M26.6481 78.9425L28.2805 75.8064M28.2805 75.8064L31.4166 77.4388L25.7716 74.5005" stroke="black"/>
<path d="M35.0513 87.3024L31.9151 85.67M28.779 84.0376L31.9151 85.67M31.9151 85.67L33.5475 82.5339L30.6092 88.1789" stroke="black"/>
</g>
</svg>
