<svg width="112" height="106" viewBox="0 0 112 106" fill="none" xmlns="http://www.w3.org/2000/svg">
<path d="M38.3464 41.4247C38.3464 41.4247 19.5 32.0001 12.3464 46.4247C9.48349 52.1974 13.5002 60.5001 13.5002 60.5001H63.0002C63.0002 60.5001 69.63 52.236 66.8464 46.4247C58.5 29 38.3464 41.4247 38.3464 41.4247Z" fill="#65E959" stroke="black"/>
<path d="M15.4999 67C11.2344 62.4299 11.5 51.5 11.5 51.5C30.1666 51.3333 67 51.5 67 51.5C67 51.5 69.4998 62 64.9999 67C60.5 72 40.4999 74.5 40.4999 74.5C40.4999 74.5 22.4999 74.5 15.4999 67Z" fill="#278C1E" stroke="black"/>
<path d="M41 69C31.8375 69.1122 18 66.5 18 66.5C18 66.5 19.7811 73.1064 24.5 75.5C29.4399 78.0057 35.2939 78.5 41 78.5C48 78.5 53.0644 76.8698 58.3146 72.7881C61.1221 70.6055 63 66 63 66C63 66 49.9919 68.8899 41 69Z" fill="#284DD1" stroke="black"/>
<path d="M47.6966 90.7838L48.5122 79.9662L55.1386 79.939L54.3604 92.0499C54.3604 92.0499 53.8814 94.7559 51.5492 94.7654C48.1963 94.7792 47.6966 90.7838 47.6966 90.7838Z" fill="#FFDCC9" stroke="black"/>
<path d="M45.1034 97.4638C45.1147 94.6389 46.8801 90.971 47.6993 90.9677C48.8122 90.9632 47.3196 91.7789 51.1033 92.4638C54.8871 93.1487 54.5407 91.4092 54.5407 91.4092C54.5407 91.4092 55.1033 91.4638 56.6033 92.4638C58.1143 93.4711 60.1034 95.4637 59.1033 97.9638C58.0677 100.553 56.4493 100.446 52.1033 100.464C47.7574 100.482 45.0923 100.24 45.1034 97.4638Z" fill="#444444" stroke="black"/>
<path d="M46.6177 80.2667L47.1193 73.2473L57.5323 73.2046L56.5556 80.6969L46.6177 80.2667Z" fill="#284DD1" stroke="black"/>
<path d="M47.4366 78.2206L48.0118 72.057L56.9357 71.8166L55.9436 78.404L47.4366 78.2206Z" fill="#284DD1"/>
<path d="M33.3753 90.7839L32.5597 79.9663L25.9333 79.9391L26.7115 92.05C26.7115 92.05 27.1905 94.756 29.5227 94.7656C32.8756 94.7793 33.3753 90.7839 33.3753 90.7839Z" fill="#FFDCC9" stroke="black"/>
<path d="M36 98C35.9887 95.1752 34.2232 91.5072 33.4041 91.5039C32.2912 91.4995 33.7838 92.3151 30.0001 93.0001C26.2163 93.685 26.5627 91.9454 26.5627 91.9454C26.5627 91.9454 26.0001 92.0001 24.5001 93.0001C22.9891 94.0074 21 96 22.0001 98.5001C23.0357 101.089 24.6541 100.982 29 101C33.346 101.018 36.0111 100.776 36 98Z" fill="#444444" stroke="black"/>
<path d="M34.4542 80.2668L33.9526 73.2474L23.5396 73.2047L24.5163 80.697L34.4542 80.2668Z" fill="#284DD1" stroke="black"/>
<path d="M33.5818 76.8944L33.0965 70.911L24.3143 70.7877L25.2045 77.1779L33.5818 76.8944Z" fill="#284DD1"/>
<path d="M39.7359 44.9967C30.9421 44.8794 17.5221 41.5028 17.5221 41.5028C17.5221 41.5028 16.3474 32.5711 17.5221 27.0281C18.3758 23 19.3717 19.1441 21.7601 14.55C22.2813 13.5474 23.1804 12.024 23.1804 12.024C22.8567 10.5792 22.5862 8.80656 22.8111 7.53189C23.3758 4.33183 24.1443 1.33029 27.5712 1.07361C30.3718 0.863834 31.763 2.37974 33.3959 4.53711C34.1453 5.52717 34.7222 7.48633 35.0816 8.99959C35.5968 8.82685 38.0917 8.06137 41.8515 8.06137C46.0895 8.06137 47.3549 8.903 47.3549 8.903C47.5643 7.45967 47.9683 5.62985 48.734 4.53714C50.3772 2.19229 52.1314 0.636388 55.074 1.07361C58.5426 1.58897 59.4689 4.73602 59.8409 8.03102C60.0192 9.6103 59.2439 11.9984 58.7123 13.4034L59.3052 14.55C59.3052 14.55 63.9614 21.8075 64.5942 27.0281C65.5 34.5 63.5 41.5028 63.5 41.5028C63.5 41.5028 49.3456 45.1249 39.7359 44.9967Z" fill="#FFFEFE"/>
<path d="M58.2474 14.55C58.2474 14.55 58.4503 14.0962 58.7123 13.4034M23.8689 14.55C23.8689 14.55 23.4989 13.4457 23.1804 12.024M58.7123 13.4034C59.2439 11.9984 60.0192 9.6103 59.8409 8.03102C59.4689 4.73602 58.5426 1.58897 55.074 1.07361C52.1314 0.636388 50.3772 2.19229 48.734 4.53714C47.3248 6.54822 47.1405 11.0561 47.1405 11.0561L47.3549 8.903C47.3549 8.903 46.0895 8.06137 41.8515 8.06137C37.6135 8.06137 34.9826 9.03394 34.9826 9.03394L35.5047 11.0561C35.5047 11.0561 34.7193 6.2855 33.3959 4.53711C31.763 2.37974 30.3718 0.863834 27.5712 1.07361C24.1443 1.33029 23.3758 4.33183 22.8111 7.53189C22.5862 8.80656 22.8567 10.5792 23.1804 12.024M58.7123 13.4034L59.3052 14.55C59.3052 14.55 63.9614 21.8075 64.5942 27.0281C65.5 34.5 63.5 41.5028 63.5 41.5028C63.5 41.5028 49.3456 45.1249 39.7359 44.9967C30.9421 44.8794 17.5221 41.5028 17.5221 41.5028C17.5221 41.5028 16.3474 32.5711 17.5221 27.0281C18.3758 23 19.3717 19.1441 21.7601 14.55C22.2813 13.5474 23.1804 12.024 23.1804 12.024" stroke="black"/>
<path d="M23.5 29C24.1589 21.7816 32.1457 16.5 40 16.5C47.8543 16.5 55.8411 21.7816 56.5 29C57.1943 36.6061 47.6377 39.5 40 39.5C32.3623 39.5 22.8057 36.6061 23.5 29Z" fill="#FFDCC9" stroke="black"/>
<path d="M63.5 65.5507L63.5 42.0016C63.5 42.0016 49.6746 45.0016 40.7584 45.0016C31.8423 45.0016 17.5 42 17.5 42V65.5507C17.5 65.5507 31.0169 68.4999 40.7584 68.5C50.5 68.5001 63.5 65.5507 63.5 65.5507Z" fill="#40BDCE" stroke="black"/>
<path d="M99.3064 35.751L77.2459 59.4738L80.9424 62.8042L106.03 42.7995L110.803 30.9152L99.3064 35.751Z" fill="#FF2B2B" stroke="black"/>
<path d="M73.7354 60.674L71.9692 56.1291L76.423 58.4331L82.8444 65.0445L82.3735 69.5981L80.4847 68.0033L78.6479 63.9822L73.6985 69.2223C73.6985 69.2223 73.4361 71.7022 71.7008 72.0157C69.9655 72.3291 68.0647 71.1792 67.9505 69.3903C67.8451 67.7382 70.2761 67.3149 70.2761 67.3149L75.4384 61.5515C74.5308 61.0565 73.7354 60.674 73.7354 60.674Z" fill="#A80202"/>
<path d="M78.6479 63.9822L80.4847 68.0033L82.3735 69.5981L82.8444 65.0445L76.423 58.4331L71.9692 56.1291L73.7354 60.674C73.7354 60.674 74.5308 61.0565 75.4384 61.5515M78.6479 63.9822L73.6985 69.2223C73.6985 69.2223 73.4361 71.7022 71.7008 72.0157C69.9655 72.3291 68.0647 71.1792 67.9505 69.3903C67.8451 67.7382 70.2761 67.3149 70.2761 67.3149L75.4384 61.5515M78.6479 63.9822C78.6479 63.9822 76.9237 62.3614 75.4384 61.5515" stroke="black"/>
<path d="M86.472 54.3707L103.22 38.9112" stroke="black" stroke-linecap="round"/>
<path d="M75.036 62.9175C72.6572 61.0979 69.4426 57.126 69.4426 57.126L65.6686 60.062L71.268 66.2003C71.268 66.2003 71.4923 67.8019 72.1121 68.543C73.3043 69.9685 75.2601 70.2476 76.772 69.1815C77.6682 68.5495 77.9701 68.6219 78.2697 67.5527C78.6021 66.3665 78.1744 64.3956 78.1744 64.3956C78.1744 64.3956 76.1162 63.7438 75.036 62.9175Z" fill="#FFDCC9" stroke="black"/>
<path d="M63.6632 61.3845L70.666 55.9881L66.7095 51.9752L63.5001 48.5001L61.882 60.0005L63.6632 61.3845Z" fill="#40BDCE" stroke="black"/>
<path d="M62.5 62.0001L69.1378 55.534L65.9999 52L62.5 48L60.5 59L62.5 62.0001Z" fill="#40BDCE"/>
<path d="M58.0596 53.7478C58.4881 50.2539 63.0954 48.1898 63.0954 48.1898C63.0954 48.1898 61.8567 51.101 61.5446 54.0716C61.2124 57.2328 62.8884 61.2266 62.8884 61.2266C62.8884 61.2266 57.6111 57.4046 58.0596 53.7478Z" fill="#65E959" stroke="black"/>
<path d="M4.46251 64.624C6.84134 62.8043 10.0559 58.8324 10.0559 58.8324L13.8299 61.7684L8.23057 67.9067C8.23057 67.9067 8.00621 69.5083 7.38641 70.2494C6.19419 71.6749 4.23848 71.954 2.72652 70.8879C1.8303 70.256 1.52845 70.3284 1.22882 69.2591C0.896412 68.0729 1.32414 66.102 1.32414 66.102C1.32414 66.102 3.38233 65.4502 4.46251 64.624Z" fill="#FFDCC9" stroke="black"/>
<path d="M15.8353 63.091L8.83245 57.6945L12.789 53.6816L17.5 48.5001L17.6164 61.707L15.8353 63.091Z" fill="#40BDCE" stroke="black"/>
<path d="M18.5002 62.5003L11.1652 56.6717L14.5 53L20.5 45.5L21.0423 60.6043L18.5002 62.5003Z" fill="#40BDCE"/>
<path d="M23 55C22.8965 51.4814 18.5 49 18.5 49C18.5 49 19.464 52.0133 19.5 55C19.5383 58.1784 17.5 62 17.5 62C17.5 62 23.1083 58.6826 23 55Z" fill="#65E959" stroke="black"/>
<path d="M34.6285 28.5234C34.6273 29.4167 34.4327 30.1974 34.1435 30.7351C33.8427 31.2945 33.5132 31.4762 33.2787 31.4724C33.0442 31.4685 32.7152 31.276 32.4159 30.7068C32.1281 30.1596 31.9355 29.3725 31.9366 28.4792C31.9378 27.586 32.1324 26.8053 32.4216 26.2675C32.7224 25.7082 33.0519 25.5264 33.2864 25.5303C33.5209 25.5341 33.8499 25.7267 34.1492 26.2959C34.437 26.8431 34.6296 27.6302 34.6285 28.5234Z" fill="black" stroke="black"/>
<path d="M46.6176 28.1638C46.6244 28.9727 46.4676 29.6794 46.2315 30.1647C45.9799 30.6817 45.7214 30.804 45.5877 30.8031C45.454 30.8022 45.1934 30.6764 44.9331 30.156C44.6887 29.6675 44.5199 28.9587 44.5131 28.1497C44.5063 27.3407 44.6631 26.6341 44.8992 26.1488C45.1508 25.6317 45.4093 25.5095 45.543 25.5104C45.6767 25.5112 45.9374 25.637 46.1977 26.1575C46.442 26.646 46.6108 27.3548 46.6176 28.1638Z" fill="#010101" stroke="black"/>
</svg>
