<svg width="110" height="106" viewBox="0 0 110 106" fill="none" xmlns="http://www.w3.org/2000/svg">
<path d="M38.3464 41.4247C38.3464 41.4247 19.5 32.0001 12.3464 46.4247C9.48349 52.1974 13.5002 60.5001 13.5002 60.5001H63.0002C63.0002 60.5001 69.63 52.236 66.8464 46.4247C58.5 29 38.3464 41.4247 38.3464 41.4247Z" fill="#65E959" stroke="black"/>
<path d="M15.4999 67C11.2344 62.4299 11.5 51.5 11.5 51.5C30.1666 51.3333 67 51.5 67 51.5C67 51.5 69.4998 62 64.9999 67C60.5 72 40.4999 74.5 40.4999 74.5C40.4999 74.5 22.4999 74.5 15.4999 67Z" fill="#278C1E" stroke="black"/>
<path d="M41 69C31.8375 69.1122 18 66.5 18 66.5C18 66.5 19.7811 73.1064 24.5 75.5C29.4399 78.0057 35.2939 78.5 41 78.5C48 78.5 53.0644 76.8698 58.3146 72.7881C61.1221 70.6055 63 66 63 66C63 66 49.9919 68.8899 41 69Z" fill="#284DD1" stroke="black"/>
<path d="M46.6472 85.5183L48.5121 79.9661L55.1385 79.9388L53.311 86.7843C53.311 86.7843 52.8321 89.4903 50.4999 89.4999C47.147 89.5137 46.6472 85.5183 46.6472 85.5183Z" fill="#FFDCC9" stroke="black"/>
<path d="M44.1032 93.4638C44.1144 90.6389 45.8799 86.971 46.6991 86.9677C47.8119 86.9632 46.3193 87.7789 50.1031 88.4638C53.8869 89.1487 53.5405 87.4092 53.5405 87.4092C53.5405 87.4092 54.1031 87.4638 55.6031 88.4638C57.1141 89.4711 59.1031 91.4637 58.1031 93.9638C57.0674 96.5528 55.4491 96.4459 51.1031 96.4638C46.7572 96.4817 44.0921 96.24 44.1032 93.4638Z" fill="#444444" stroke="black"/>
<path d="M46.6177 80.2667L47.1193 73.2473L57.5323 73.2046L56.5556 80.6969L46.6177 80.2667Z" fill="#284DD1" stroke="black"/>
<path d="M47.4365 78.2206L48.0116 72.057L56.9356 71.8166L55.9434 78.404L47.4365 78.2206Z" fill="#284DD1"/>
<path d="M33.3753 90.7839L32.5597 79.9663L25.9333 79.9391L26.7115 92.05C26.7115 92.05 27.1905 94.756 29.5227 94.7656C32.8756 94.7793 33.3753 90.7839 33.3753 90.7839Z" fill="#FFDCC9" stroke="black"/>
<path d="M36 98C35.9887 95.1752 34.2232 91.5072 33.4041 91.5039C32.2912 91.4995 33.7838 92.3151 30.0001 93.0001C26.2163 93.685 26.5627 91.9454 26.5627 91.9454C26.5627 91.9454 26.0001 92.0001 24.5001 93.0001C22.9891 94.0074 21 96 22.0001 98.5001C23.0357 101.089 24.6541 100.982 29 101C33.346 101.018 36.0111 100.776 36 98Z" fill="#444444" stroke="black"/>
<path d="M34.4542 80.2668L33.9526 73.2474L23.5396 73.2047L24.5163 80.697L34.4542 80.2668Z" fill="#284DD1" stroke="black"/>
<path d="M33.5818 76.8944L33.0965 70.911L24.3143 70.7877L25.2045 77.1779L33.5818 76.8944Z" fill="#284DD1"/>
<path d="M39.7359 44.9967C30.9421 44.8794 17.5221 41.5028 17.5221 41.5028C17.5221 41.5028 16.3474 32.5711 17.5221 27.0281C18.3758 23 19.3717 19.1441 21.7601 14.55C22.2813 13.5474 23.1804 12.024 23.1804 12.024C22.8567 10.5792 22.5862 8.80656 22.8111 7.53189C23.3758 4.33183 24.1443 1.33029 27.5712 1.07361C30.3718 0.863834 31.763 2.37974 33.3959 4.53711C34.1453 5.52717 34.7222 7.48633 35.0816 8.99959C35.5968 8.82685 38.0917 8.06137 41.8515 8.06137C46.0895 8.06137 47.3549 8.903 47.3549 8.903C47.5643 7.45967 47.9683 5.62985 48.734 4.53714C50.3772 2.19229 52.1314 0.636388 55.074 1.07361C58.5426 1.58897 59.4689 4.73602 59.8409 8.03102C60.0192 9.6103 59.2439 11.9984 58.7123 13.4034L59.3052 14.55C59.3052 14.55 63.9614 21.8075 64.5942 27.0281C65.5 34.5 63.5 41.5028 63.5 41.5028C63.5 41.5028 49.3456 45.1249 39.7359 44.9967Z" fill="#FFFEFE"/>
<path d="M58.2474 14.55C58.2474 14.55 58.4503 14.0962 58.7123 13.4034M23.8689 14.55C23.8689 14.55 23.4989 13.4457 23.1804 12.024M58.7123 13.4034C59.2439 11.9984 60.0192 9.6103 59.8409 8.03102C59.4689 4.73602 58.5426 1.58897 55.074 1.07361C52.1314 0.636388 50.3772 2.19229 48.734 4.53714C47.3248 6.54822 47.1405 11.0561 47.1405 11.0561L47.3549 8.903C47.3549 8.903 46.0895 8.06137 41.8515 8.06137C37.6135 8.06137 34.9826 9.03394 34.9826 9.03394L35.5047 11.0561C35.5047 11.0561 34.7193 6.2855 33.3959 4.53711C31.763 2.37974 30.3718 0.863834 27.5712 1.07361C24.1443 1.33029 23.3758 4.33183 22.8111 7.53189C22.5862 8.80656 22.8567 10.5792 23.1804 12.024M58.7123 13.4034L59.3052 14.55C59.3052 14.55 63.9614 21.8075 64.5942 27.0281C65.5 34.5 63.5 41.5028 63.5 41.5028C63.5 41.5028 49.3456 45.1249 39.7359 44.9967C30.9421 44.8794 17.5221 41.5028 17.5221 41.5028C17.5221 41.5028 16.3474 32.5711 17.5221 27.0281C18.3758 23 19.3717 19.1441 21.7601 14.55C22.2813 13.5474 23.1804 12.024 23.1804 12.024" stroke="black"/>
<path d="M23.5 29C24.1589 21.7816 32.1457 16.5 40 16.5C47.8543 16.5 55.8411 21.7816 56.5 29C57.1943 36.6061 47.6377 39.5 40 39.5C32.3623 39.5 22.8057 36.6061 23.5 29Z" fill="#FFDCC9" stroke="black"/>
<path d="M63.5 65.5507L63.5 42.0016C63.5 42.0016 49.6746 45.0016 40.7584 45.0016C31.8423 45.0016 17.5 42 17.5 42V65.5507C17.5 65.5507 31.0169 68.4999 40.7584 68.5C50.5 68.5001 63.5 65.5507 63.5 65.5507Z" fill="#40BDCE" stroke="black"/>
<path d="M95.5764 29.1495L79.1221 57.0546L83.4473 59.5139L103.656 34.5904L105.767 21.9588L95.5764 29.1495Z" fill="#FF2B2B" stroke="black"/>
<path d="M75.9511 58.9804L73.2505 54.9206L78.095 56.2149L85.7859 61.2938L86.3033 65.8423L84.1163 64.6901L81.4591 61.157L77.7499 67.3374C77.7499 67.3374 78.0259 69.8158 76.3983 70.4944C74.7708 71.1731 72.6674 70.458 72.1719 68.7353C71.7144 67.1443 73.9979 66.209 73.9979 66.209L77.8027 59.4719C76.81 59.1833 75.9511 58.9804 75.9511 58.9804Z" fill="#A80202"/>
<path d="M81.4591 61.157L84.1163 64.6901L86.3033 65.8423L85.7859 61.2938L78.095 56.2149L73.2505 54.9206L75.9511 58.9804C75.9511 58.9804 76.81 59.1833 77.8027 59.4719M81.4591 61.157L77.7499 67.3374C77.7499 67.3374 78.0259 69.8158 76.3983 70.4944C74.7707 71.1731 72.6674 70.458 72.1719 68.7353C71.7144 67.1443 73.9979 66.209 73.9979 66.209L77.8027 59.4719M81.4591 61.157C81.4591 61.157 79.4272 59.9442 77.8027 59.4719" stroke="black"/>
<path d="M87.0378 50.0902L100.077 31.3961" stroke="black" stroke-linecap="round"/>
<path d="M77.7029 60.8924C74.989 59.6258 70.9967 56.4365 70.9967 56.4365L67.9409 60.1141L74.7273 64.9075C74.7273 64.9075 75.2902 66.4236 76.0547 67.0144C77.5251 68.1508 79.4951 68.0036 80.743 66.6378C81.4827 65.8282 81.793 65.8341 81.8562 64.7254C81.9262 63.4955 81.0854 61.6624 81.0854 61.6624C81.0854 61.6624 78.9353 61.4676 77.7029 60.8924Z" fill="#FFDCC9" stroke="black"/>
<path d="M66.2661 61.8363L71.9474 55.0625L67.2218 51.9924L63.3412 49.2872L64.2294 60.8669L66.2661 61.8363Z" fill="#40BDCE" stroke="black"/>
<path d="M65.2621 62.6872L70.3573 54.947L66.534 52.1689L62.257 49.0134L62.6648 60.1863L65.2621 62.6872Z" fill="#40BDCE"/>
<path d="M59.154 55.5803C58.8226 52.0758 62.8793 49.071 62.8793 49.071C62.8793 49.071 62.2944 52.1802 62.6272 55.1485C62.9813 58.3074 65.4756 61.8483 65.4756 61.8483C65.4756 61.8483 59.5008 59.2482 59.154 55.5803Z" fill="#65E959" stroke="black"/>
<path d="M4.46251 64.624C6.84134 62.8043 10.0559 58.8324 10.0559 58.8324L13.8299 61.7684L8.23057 67.9067C8.23057 67.9067 8.00621 69.5083 7.38641 70.2494C6.19419 71.6749 4.23848 71.954 2.72652 70.8879C1.8303 70.256 1.52845 70.3284 1.22882 69.2591C0.896412 68.0729 1.32414 66.102 1.32414 66.102C1.32414 66.102 3.38233 65.4502 4.46251 64.624Z" fill="#FFDCC9" stroke="black"/>
<path d="M15.8353 63.091L8.83245 57.6945L12.789 53.6816L17.5 48.5001L17.6164 61.707L15.8353 63.091Z" fill="#40BDCE" stroke="black"/>
<path d="M18.5002 62.5003L11.1652 56.6717L14.5 53L20.5 45.5L21.0423 60.6043L18.5002 62.5003Z" fill="#40BDCE"/>
<path d="M23 55C22.8965 51.4814 18.5 49 18.5 49C18.5 49 19.464 52.0133 19.5 55C19.5383 58.1784 17.5 62 17.5 62C17.5 62 23.1083 58.6826 23 55Z" fill="#65E959" stroke="black"/>
<path d="M34.6285 28.5234C34.6273 29.4167 34.4327 30.1974 34.1435 30.7351C33.8427 31.2945 33.5132 31.4762 33.2787 31.4724C33.0442 31.4685 32.7152 31.276 32.4159 30.7068C32.1281 30.1596 31.9355 29.3725 31.9366 28.4792C31.9378 27.586 32.1324 26.8053 32.4216 26.2675C32.7224 25.7082 33.0519 25.5264 33.2864 25.5303C33.5209 25.5341 33.8499 25.7267 34.1492 26.2959C34.437 26.8431 34.6296 27.6302 34.6285 28.5234Z" fill="black" stroke="black"/>
<path d="M46.6176 28.1638C46.6244 28.9727 46.4676 29.6794 46.2315 30.1647C45.9799 30.6817 45.7214 30.804 45.5877 30.8031C45.454 30.8022 45.1934 30.6764 44.9331 30.156C44.6887 29.6675 44.5199 28.9587 44.5131 28.1497C44.5063 27.3407 44.6631 26.6341 44.8992 26.1488C45.1508 25.6317 45.4093 25.5095 45.543 25.5104C45.6767 25.5112 45.9374 25.637 46.1977 26.1575C46.442 26.646 46.6108 27.3548 46.6176 28.1638Z" fill="#010101" stroke="black"/>
</svg>
