<svg width="111" height="107" viewBox="0 0 111 107" fill="none" xmlns="http://www.w3.org/2000/svg">
<path d="M44.3464 41.4247C44.3464 41.4247 25.5 32.0001 18.3464 46.4247C15.4835 52.1974 19.5002 60.5001 19.5002 60.5001H69.0002C69.0002 60.5001 75.63 52.236 72.8464 46.4247C64.5 29 44.3464 41.4247 44.3464 41.4247Z" fill="#65E959" stroke="black"/>
<path d="M21.4999 67C17.2344 62.4299 17.5 51.5 17.5 51.5C36.1666 51.3333 73 51.5 73 51.5C73 51.5 75.4998 62 70.9999 67C66.5 72 46.4999 74.5 46.4999 74.5C46.4999 74.5 28.4999 74.5 21.4999 67Z" fill="#278C1E" stroke="black"/>
<path d="M47 69C37.8375 69.1122 24 66.5 24 66.5C24 66.5 25.7811 73.1064 30.5 75.5C35.4399 78.0057 41.2939 78.5 47 78.5C54 78.5 59.0644 76.8698 64.3146 72.7881C67.1221 70.6055 69 66 69 66C69 66 55.9919 68.8899 47 69Z" fill="#284DD1" stroke="black"/>
<path d="M53.6964 90.7838L54.5121 79.9662L61.1385 79.939L60.3602 92.0499C60.3602 92.0499 59.8813 94.7559 57.5491 94.7654C54.1962 94.7792 53.6964 90.7838 53.6964 90.7838Z" fill="#FFDCC9" stroke="black"/>
<path d="M51.1033 97.4638C51.1146 94.6389 52.88 90.971 53.6992 90.9677C54.8121 90.9632 53.3195 91.7789 57.1032 92.4638C60.887 93.1487 60.5406 91.4092 60.5406 91.4092C60.5406 91.4092 61.1032 91.4638 62.6032 92.4638C64.1142 93.4711 66.1033 95.4637 65.1032 97.9638C64.0676 100.553 62.4492 100.446 58.1032 100.464C53.7573 100.482 51.0922 100.24 51.1033 97.4638Z" fill="#444444" stroke="black"/>
<path d="M52.6176 80.2667L53.1191 73.2473L63.5322 73.2046L62.5555 80.6969L52.6176 80.2667Z" fill="#284DD1" stroke="black"/>
<path d="M53.4365 78.2206L54.0116 72.057L62.9356 71.8166L61.9434 78.404L53.4365 78.2206Z" fill="#284DD1"/>
<path d="M40.5001 85.5L38.5598 79.9663L31.9333 79.9391L33.8363 86.766C33.8363 86.766 34.3152 89.472 36.6474 89.4816C40.0003 89.4954 40.5001 85.5 40.5001 85.5Z" fill="#FFDCC9" stroke="black"/>
<path d="M42.9456 93.4639C42.9343 90.6391 41.1688 86.9711 40.3497 86.9678C39.2368 86.9633 40.7294 87.779 36.9456 88.4639C33.1619 89.1489 33.5082 87.4093 33.5082 87.4093C33.5082 87.4093 32.9456 87.4639 31.4456 88.4639C29.9346 89.4713 27.9456 91.4639 28.9456 93.9639C29.9813 96.553 31.5997 96.446 35.9456 96.4639C40.2915 96.4819 42.9566 96.2401 42.9456 93.4639Z" fill="#444444" stroke="black"/>
<path d="M40.4542 80.267L39.9526 73.2475L29.5396 73.2048L30.5163 80.6971L40.4542 80.267Z" fill="#284DD1" stroke="black"/>
<path d="M39.5818 76.8946L39.0965 70.9111L30.3143 70.7878L31.2045 77.178L39.5818 76.8946Z" fill="#284DD1"/>
<path d="M45.7359 44.9967C36.9421 44.8794 23.5221 41.5028 23.5221 41.5028C23.5221 41.5028 22.3474 32.5711 23.5221 27.0281C24.3758 23 25.3717 19.1441 27.7601 14.55C28.2813 13.5474 29.1804 12.024 29.1804 12.024C28.8567 10.5792 28.5862 8.80656 28.8111 7.53189C29.3758 4.33183 30.1443 1.33029 33.5712 1.07361C36.3718 0.863834 37.763 2.37974 39.3959 4.53711C40.1453 5.52717 40.7222 7.48633 41.0816 8.99959C41.5968 8.82685 44.0917 8.06137 47.8515 8.06137C52.0895 8.06137 53.3549 8.903 53.3549 8.903C53.5643 7.45967 53.9683 5.62985 54.734 4.53714C56.3772 2.19229 58.1314 0.636388 61.074 1.07361C64.5426 1.58897 65.4689 4.73602 65.8409 8.03102C66.0192 9.6103 65.2439 11.9984 64.7123 13.4034L65.3052 14.55C65.3052 14.55 69.9614 21.8075 70.5942 27.0281C71.5 34.5 69.5 41.5028 69.5 41.5028C69.5 41.5028 55.3456 45.1249 45.7359 44.9967Z" fill="#FFFEFE"/>
<path d="M64.2474 14.55C64.2474 14.55 64.4503 14.0962 64.7123 13.4034M29.8689 14.55C29.8689 14.55 29.4989 13.4457 29.1804 12.024M64.7123 13.4034C65.2439 11.9984 66.0192 9.6103 65.8409 8.03102C65.4689 4.73602 64.5426 1.58897 61.074 1.07361C58.1314 0.636388 56.3772 2.19229 54.734 4.53714C53.3248 6.54822 53.1405 11.0561 53.1405 11.0561L53.3549 8.903C53.3549 8.903 52.0895 8.06137 47.8515 8.06137C43.6135 8.06137 40.9826 9.03394 40.9826 9.03394L41.5047 11.0561C41.5047 11.0561 40.7193 6.2855 39.3959 4.53711C37.763 2.37974 36.3718 0.863834 33.5712 1.07361C30.1443 1.33029 29.3758 4.33183 28.8111 7.53189C28.5862 8.80656 28.8567 10.5792 29.1804 12.024M64.7123 13.4034L65.3052 14.55C65.3052 14.55 69.9614 21.8075 70.5942 27.0281C71.5 34.5 69.5 41.5028 69.5 41.5028C69.5 41.5028 55.3456 45.1249 45.7359 44.9967C36.9421 44.8794 23.5221 41.5028 23.5221 41.5028C23.5221 41.5028 22.3474 32.5711 23.5221 27.0281C24.3758 23 25.3717 19.1441 27.7601 14.55C28.2813 13.5474 29.1804 12.024 29.1804 12.024" stroke="black"/>
<path d="M29.4999 29C30.1588 21.7816 38.1456 16.5 45.9999 16.5C53.8542 16.5 61.8409 21.7816 62.4999 29C63.1942 36.6061 53.6376 39.5 45.9999 39.5C38.3621 39.5 28.8055 36.6061 29.4999 29Z" fill="#FFDCC9" stroke="black"/>
<path d="M69.5 65.5507L69.5 42.0016C69.5 42.0016 55.6746 45.0016 46.7584 45.0016C37.8423 45.0016 23.5 42 23.5 42V65.5507C23.5 65.5507 37.0169 68.4999 46.7584 68.5C56.5 68.5001 69.5 65.5507 69.5 65.5507Z" fill="#40BDCE" stroke="black"/>
<path d="M98.203 31.9877L81.3106 59.6298L85.5965 62.1569L106.196 37.5554L108.505 24.9586L98.203 31.9877Z" fill="#FF2B2B" stroke="black"/>
<path d="M78.1095 61.5053L75.4733 57.4033L80.2968 58.7739L87.9066 63.9735L88.3523 68.5296L86.1837 67.3431L83.5826 63.7685L79.7763 69.8896C79.7763 69.8896 80.0132 72.372 78.3751 73.0249C76.737 73.6778 74.6452 72.9296 74.177 71.1993C73.7446 69.6013 76.0425 68.7022 76.0425 68.7022L79.9531 62.0259C78.9651 61.7217 78.1095 61.5053 78.1095 61.5053Z" fill="#A80202"/>
<path d="M83.5826 63.7685L86.1837 67.3431L88.3523 68.5296L87.9066 63.9735L80.2968 58.7739L75.4733 57.4033L78.1095 61.5053C78.1095 61.5053 78.9651 61.7217 79.9531 62.0259M83.5826 63.7685L79.7763 69.8896C79.7763 69.8896 80.0132 72.372 78.3751 73.0249C76.737 73.6778 74.6452 72.9296 74.177 71.1993C73.7446 69.6013 76.0425 68.7022 76.0425 68.7022L79.9531 62.0259M83.5826 63.7685C83.5826 63.7685 81.5701 62.5237 79.9531 62.0259" stroke="black"/>
<path d="M89.3352 52.7911L102.667 34.3051" stroke="black" stroke-linecap="round"/>
<path d="M81.0359 62.9175C78.6571 61.0979 75.4425 57.126 75.4425 57.126L71.6685 60.062L77.2678 66.2003C77.2678 66.2003 77.4922 67.8019 78.112 68.543C79.3042 69.9685 81.2599 70.2476 82.7719 69.1815C83.6681 68.5495 83.97 68.6219 84.2696 67.5527C84.602 66.3665 84.1743 64.3956 84.1743 64.3956C84.1743 64.3956 82.1161 63.7438 81.0359 62.9175Z" fill="#FFDCC9" stroke="black"/>
<path d="M69.663 61.3845L76.6659 55.9881L72.7094 51.9752L69.4999 48.5001L67.8819 60.0005L69.663 61.3845Z" fill="#40BDCE" stroke="black"/>
<path d="M68.4998 62.0001L75.1376 55.534L71.9998 52L68.4998 48L66.4999 59L68.4998 62.0001Z" fill="#40BDCE"/>
<path d="M64.0595 53.7478C64.488 50.2539 69.0952 48.1898 69.0952 48.1898C69.0952 48.1898 67.8566 51.101 67.5445 54.0716C67.2123 57.2328 68.8883 61.2266 68.8883 61.2266C68.8883 61.2266 63.6109 57.4046 64.0595 53.7478Z" fill="#65E959" stroke="black"/>
<path d="M6.02442 59.6573C8.82828 58.6045 13.0554 55.7337 13.0554 55.7337L15.8174 59.6368L8.68037 63.8906C8.68037 63.8906 8.00182 65.3586 7.19396 65.8884C5.64 66.9076 3.68727 66.6084 2.54883 65.1501C1.87403 64.2857 1.56414 64.2676 1.587 63.1574C1.61235 61.9257 2.5925 60.1632 2.5925 60.1632C2.5925 60.1632 4.75125 60.1354 6.02442 59.6573Z" fill="#FFDCC9" stroke="black"/>
<path d="M17.3539 61.4835L12.2139 54.2903L17.1629 51.5951L23.1726 47.9999L19.4595 60.6746L17.3539 61.4835Z" fill="#40BDCE" stroke="black"/>
<path d="M19.4999 61L14.7427 53.9869L18.9979 51.4382L26.9128 45.9972L23 60L19.4999 61Z" fill="#40BDCE"/>
<path d="M26.5546 55.814C27.4745 52.4162 23.985 48.768 23.985 48.768C23.985 48.768 24.0351 51.9313 23.2046 54.8005C22.3208 57.8538 19.2632 60.9214 19.2632 60.9214C19.2632 60.9214 25.5918 59.3702 26.5546 55.814Z" fill="#65E959" stroke="black"/>
<path d="M40.6283 28.5234C40.6272 29.4167 40.4326 30.1974 40.1434 30.7351C39.8426 31.2945 39.5131 31.4762 39.2786 31.4724C39.0441 31.4685 38.7151 31.276 38.4157 30.7068C38.128 30.1596 37.9354 29.3725 37.9365 28.4792C37.9377 27.586 38.1323 26.8053 38.4215 26.2675C38.7223 25.7082 39.0518 25.5264 39.2862 25.5303C39.5207 25.5341 39.8498 25.7267 40.1491 26.2959C40.4369 26.8431 40.6295 27.6302 40.6283 28.5234Z" fill="black" stroke="black"/>
<path d="M52.6175 28.1638C52.6243 28.9727 52.4675 29.6794 52.2314 30.1647C51.9798 30.6817 51.7213 30.804 51.5876 30.8031C51.4539 30.8022 51.1932 30.6764 50.9329 30.156C50.6886 29.6675 50.5198 28.9587 50.513 28.1497C50.5062 27.3407 50.663 26.6341 50.8991 26.1488C51.1507 25.6317 51.4092 25.5095 51.5429 25.5104C51.6766 25.5112 51.9372 25.637 52.1976 26.1575C52.4419 26.646 52.6107 27.3548 52.6175 28.1638Z" fill="#010101" stroke="black"/>
</svg>
