<svg width="111" height="111" viewBox="0 0 111 111" fill="none" xmlns="http://www.w3.org/2000/svg">
<path d="M48.3464 50.4244C48.3464 50.4244 29.5 40.9998 22.3464 55.4244C19.4835 61.1972 23.5002 69.4998 23.5002 69.4998H73.0002C73.0002 69.4998 79.6301 61.2358 76.8464 55.4244C68.5 37.9997 48.3464 50.4244 48.3464 50.4244Z" fill="#65E959" stroke="black"/>
<path d="M25.5 75.9998C21.2345 71.4296 21.5 60.4997 21.5 60.4997C40.1667 60.3331 77.0001 60.4998 77.0001 60.4998C77.0001 60.4998 79.4999 70.9998 75 75.9998C70.5001 80.9998 50.5 83.4998 50.5 83.4998C50.5 83.4998 32.5 83.4998 25.5 75.9998Z" fill="#278C1E" stroke="black"/>
<path d="M51 77.9998C41.8375 78.1119 28 75.4998 28 75.4998C28 75.4998 29.7811 82.1062 34.5 84.4998C39.4399 87.0055 45.2939 87.4998 51 87.4998C58 87.4998 63.0644 85.8695 68.3146 81.7879C71.1221 79.6053 73 74.9998 73 74.9998C73 74.9998 59.9919 77.8897 51 77.9998Z" fill="#284DD1" stroke="black"/>
<path d="M57.6966 99.7836L58.5122 88.966L65.1386 88.9388L64.3604 101.05C64.3604 101.05 63.8814 103.756 61.5492 103.765C58.1963 103.779 57.6966 99.7836 57.6966 99.7836Z" fill="#FFDCC9" stroke="black"/>
<path d="M55.1034 106.464C55.1147 103.639 56.8801 99.9707 57.6993 99.9674C58.8122 99.963 57.3196 100.779 61.1033 101.464C64.8871 102.148 64.5407 100.409 64.5407 100.409C64.5407 100.409 65.1033 100.464 66.6033 101.464C68.1143 102.471 70.1034 104.464 69.1033 106.964C68.0677 109.553 66.4493 109.446 62.1033 109.464C57.7574 109.481 55.0923 109.24 55.1034 106.464Z" fill="#444444" stroke="black"/>
<path d="M56.6177 89.2665L57.1193 82.2471L67.5323 82.2043L66.5556 89.6966L56.6177 89.2665Z" fill="#284DD1" stroke="black"/>
<path d="M57.4366 87.2203L58.0118 81.0568L66.9357 80.8164L65.9436 87.4037L57.4366 87.2203Z" fill="#284DD1"/>
<path d="M43.3754 99.7837L42.5598 88.9661L35.9334 88.9389L36.7116 101.05C36.7116 101.05 37.1905 103.756 39.5227 103.765C42.8756 103.779 43.3754 99.7837 43.3754 99.7837Z" fill="#FFDCC9" stroke="black"/>
<path d="M46 107C45.9887 104.175 44.2232 100.507 43.4041 100.504C42.2912 100.499 43.7838 101.315 40.0001 102C36.2163 102.685 36.5627 100.945 36.5627 100.945C36.5627 100.945 36.0001 101 34.5001 102C32.9891 103.007 31 105 32.0001 107.5C33.0357 110.089 34.6541 109.982 39 110C43.346 110.018 46.0111 109.776 46 107Z" fill="#444444" stroke="black"/>
<path d="M44.4542 89.2666L43.9526 82.2472L33.5396 82.2045L34.5163 89.6967L44.4542 89.2666Z" fill="#284DD1" stroke="black"/>
<path d="M43.5819 85.8942L43.0966 79.9107L34.3144 79.7874L35.2046 86.1776L43.5819 85.8942Z" fill="#284DD1"/>
<path d="M49.736 53.9962C40.9422 53.8789 27.5222 50.5023 27.5222 50.5023C27.5222 50.5023 26.3474 41.5706 27.5222 36.0277C28.3758 31.9995 29.3718 28.1436 31.7602 23.5495C32.2814 22.5469 33.1805 21.0235 33.1805 21.0235C32.8568 19.5787 32.5862 17.8061 32.8112 16.5314C33.3759 13.3313 34.1444 10.3298 37.5713 10.0731C40.3718 9.86335 41.7631 11.3792 43.396 13.5366C44.1453 14.5267 44.7222 16.4858 45.0817 17.9991C45.5968 17.8264 48.0917 17.0609 51.8516 17.0609C56.0896 17.0609 57.355 17.9025 57.355 17.9025C57.5643 16.4592 57.9684 14.6294 58.7341 13.5367C60.3772 11.1918 62.1315 9.6359 65.0741 10.0731C68.5427 10.5885 69.469 13.7355 69.841 17.0305C70.0193 18.6098 69.2439 20.9979 68.7124 22.4029L69.3053 23.5495C69.3053 23.5495 73.9614 30.8071 74.5943 36.0277C75.5001 43.4995 73.5001 50.5023 73.5001 50.5023C73.5001 50.5023 59.3456 54.1244 49.736 53.9962Z" fill="#FFFEFE"/>
<path d="M68.2475 23.5495C68.2475 23.5495 68.4503 23.0957 68.7124 22.4029M33.869 23.5495C33.869 23.5495 33.499 22.4452 33.1805 21.0235M68.7124 22.4029C69.2439 20.9979 70.0193 18.6098 69.841 17.0305C69.469 13.7355 68.5427 10.5885 65.0741 10.0731C62.1315 9.6359 60.3772 11.1918 58.7341 13.5367C57.3248 15.5477 57.1406 20.0556 57.1406 20.0556L57.355 17.9025C57.355 17.9025 56.0896 17.0609 51.8516 17.0609C47.6136 17.0609 44.9827 18.0334 44.9827 18.0334L45.5048 20.0556C45.5048 20.0556 44.7193 15.285 43.396 13.5366C41.7631 11.3792 40.3718 9.86335 37.5713 10.0731C34.1444 10.3298 33.3759 13.3313 32.8112 16.5314C32.5862 17.8061 32.8568 19.5787 33.1805 21.0235M68.7124 22.4029L69.3053 23.5495C69.3053 23.5495 73.9614 30.8071 74.5943 36.0277C75.5001 43.4995 73.5001 50.5023 73.5001 50.5023C73.5001 50.5023 59.3456 54.1244 49.736 53.9962C40.9422 53.8789 27.5222 50.5023 27.5222 50.5023C27.5222 50.5023 26.3474 41.5706 27.5222 36.0277C28.3758 31.9995 29.3718 28.1436 31.7602 23.5495C32.2814 22.5469 33.1805 21.0235 33.1805 21.0235" stroke="black"/>
<path d="M33.5 37.9995C34.1589 30.7811 42.1457 25.4995 50 25.4995C57.8543 25.4995 65.8411 30.7811 66.5 37.9995C67.1943 45.6056 57.6377 48.4995 50 48.4995C42.3623 48.4995 32.8057 45.6056 33.5 37.9995Z" fill="#FFDCC9" stroke="black"/>
<path d="M73.5 74.5504L73.5 51.0013C73.5 51.0013 59.6746 54.0013 50.7584 54.0013C41.8423 54.0013 27.5 50.9997 27.5 50.9997V74.5504C27.5 74.5504 41.0169 77.4997 50.7584 77.4998C60.5 77.4998 73.5 74.5504 73.5 74.5504Z" fill="#40BDCE" stroke="black"/>
<path d="M76.3582 13.7605L88.9274 43.6178L93.4821 41.6152L85.5462 10.5251L76.6708 1.29254L76.3582 13.7605Z" fill="#FF2B2B" stroke="black"/>
<path d="M88.58 47.3115L83.7107 47.0552L87.6406 43.9407L96.3059 40.8012L100.264 43.1008L98.0345 44.1679L93.6138 44.1912L96.3588 50.8561C96.3588 50.8561 98.5121 52.1138 98.0852 53.8247C97.6583 55.5357 95.8292 56.7965 94.1512 56.1658C92.6016 55.5834 93.2141 53.193 93.2141 53.193L90.0794 46.1192C89.2554 46.7434 88.58 47.3115 88.58 47.3115Z" fill="#A80202"/>
<path d="M93.6138 44.1912L98.0345 44.1679L100.264 43.1008L96.3059 40.8012L87.6406 43.9407L83.7107 47.0552L88.58 47.3115C88.58 47.3115 89.2554 46.7434 90.0794 46.1192M93.6138 44.1912L96.3588 50.8561C96.3588 50.8561 98.5121 52.1138 98.0852 53.8247C97.6583 55.5357 95.8292 56.7965 94.1512 56.1658C92.6016 55.5834 93.2141 53.193 93.2141 53.193L90.0794 46.1192M93.6138 44.1912C93.6138 44.1912 91.4279 45.0976 90.0794 46.1192" stroke="black"/>
<path d="M88.0639 33.1099L80.8468 11.4906" stroke="black" stroke-linecap="round"/>
<path d="M91.1596 47.047C88.5235 48.4686 83.5818 49.7682 83.5818 49.7682L84.7087 54.4151L92.6051 51.8308C92.6051 51.8308 94.1576 52.2841 95.0878 52.0233C96.8772 51.5218 97.9349 49.8533 97.5839 48.0368C97.3758 46.9602 97.5657 46.7147 96.7139 46.0023C95.7689 45.212 93.7962 44.7926 93.7962 44.7926C93.7962 44.7926 92.3566 46.4015 91.1596 47.047Z" fill="#FFDCC9" stroke="black"/>
<path d="M85.091 56.7866L83.0468 48.1853L77.763 50.1446L73.2764 51.6436L73.2764 61.5001L85.091 56.7866Z" fill="#40BDCE" stroke="black"/>
<path d="M84.0001 56.5002L82.0051 49.3923L77.4942 50.8018L72.4097 52.3501L72.5001 61.5001L84.0001 56.5002Z" fill="#40BDCE"/>
<path d="M67.3593 56.9923C67.6424 53.4836 72.1599 51.23 72.1599 51.23C72.1599 51.23 71.0432 54.1901 70.8547 57.1711C70.6541 60.3434 72.4945 64.2642 72.4945 64.2642C72.4945 64.2642 67.063 60.6646 67.3593 56.9923Z" fill="#65E959" stroke="black"/>
<path d="M8.50927 44.7933C10.948 46.5318 15.6896 48.4362 15.6896 48.4362L13.9933 52.9068L6.47977 49.3601C6.47977 49.3601 4.88301 49.6166 3.99241 49.2422C2.27931 48.5219 1.43742 46.7347 2.01178 44.9761C2.35223 43.9337 2.19427 43.6665 3.12813 43.0657C4.16416 42.3991 6.17367 42.2283 6.17367 42.2283C6.17367 42.2283 7.40188 44.0039 8.50927 44.7933Z" fill="#FFDCC9" stroke="black"/>
<path d="M13.3189 55.2123L16.4174 46.9321L21.4164 49.5336L27.7542 52.5126L28.3965 63.148L13.3189 55.2123Z" fill="#40BDCE" stroke="black"/>
<path d="M15.225 55.4133L18.0809 48.861L22.571 50.9686L28.5184 53.2832L29.5138 63.1371L15.225 55.4133Z" fill="#40BDCE"/>
<path d="M33.8046 57.8837C33.7551 54.3639 29.3972 51.8154 29.3972 51.8154C29.3972 51.8154 30.3148 54.8431 30.305 57.83C30.2945 61.0086 28.1978 64.7985 28.1978 64.7985C28.1978 64.7985 33.8564 61.5676 33.8046 57.8837Z" fill="#65E959" stroke="black"/>
<path d="M44.6285 37.5232C44.6273 38.4164 44.4327 39.1971 44.1435 39.7349C43.8427 40.2942 43.5132 40.476 43.2787 40.4721C43.0442 40.4683 42.7152 40.2757 42.4159 39.7065C42.1281 39.1593 41.9355 38.3723 41.9366 37.479C41.9378 36.5857 42.1324 35.805 42.4216 35.2673C42.7224 34.7079 43.0519 34.5262 43.2864 34.53C43.5209 34.5339 43.8499 34.7264 44.1492 35.2956C44.437 35.8428 44.6296 36.6299 44.6285 37.5232Z" fill="black" stroke="black"/>
<path d="M56.6176 37.1635C56.6244 37.9725 56.4676 38.6791 56.2315 39.1644C55.9799 39.6815 55.7214 39.8037 55.5877 39.8028C55.454 39.802 55.1934 39.6762 54.9331 39.1557C54.6887 38.6672 54.5199 37.9584 54.5131 37.1494C54.5063 36.3405 54.6631 35.6338 54.8992 35.1485C55.1508 34.6315 55.4093 34.5092 55.543 34.5101C55.6767 34.511 55.9374 34.6368 56.1977 35.1572C56.442 35.6457 56.6108 36.3545 56.6176 37.1635Z" fill="#010101" stroke="black"/>
</svg>
