<svg width="122" height="109" viewBox="0 0 122 109" fill="none" xmlns="http://www.w3.org/2000/svg">
<path d="M47.6964 90.7838L48.5121 79.9662L55.1385 79.939L54.3602 92.0499C54.3602 92.0499 53.8813 94.7559 51.5491 94.7654C48.1962 94.7792 47.6964 90.7838 47.6964 90.7838Z" fill="#FFDCC9" stroke="black"/>
<path d="M45.1033 97.4638C45.1146 94.6389 46.88 90.971 47.6992 90.9677C48.8121 90.9632 47.3195 91.7789 51.1032 92.4638C54.887 93.1487 54.5406 91.4092 54.5406 91.4092C54.5406 91.4092 55.1032 91.4638 56.6032 92.4638C58.1142 93.4711 60.1033 95.4637 59.1032 97.9638C58.0676 100.553 56.4492 100.446 52.1032 100.464C47.7573 100.482 45.0922 100.24 45.1033 97.4638Z" fill="#444444" stroke="black"/>
<path d="M46.6176 80.2667L47.1191 73.2473L57.5322 73.2046L56.5555 80.6969L46.6176 80.2667Z" fill="#284DD1" stroke="black"/>
<path d="M47.4365 78.2206L48.0116 72.057L56.9356 71.8166L55.9434 78.404L47.4365 78.2206Z" fill="#284DD1"/>
<path d="M33.3752 90.7839L32.5596 79.9663L25.9332 79.9391L26.7114 92.05C26.7114 92.05 27.1903 94.756 29.5225 94.7656C32.8754 94.7793 33.3752 90.7839 33.3752 90.7839Z" fill="#FFDCC9" stroke="black"/>
<path d="M35.9999 98C35.9886 95.1752 34.2231 91.5072 33.404 91.5039C32.2911 91.4995 33.7837 92.3151 29.9999 93.0001C26.2162 93.685 26.5626 91.9454 26.5626 91.9454C26.5626 91.9454 25.9999 92.0001 24.4999 93.0001C22.9889 94.0074 20.9999 96 21.9999 98.5001C23.0356 101.089 24.654 100.982 28.9999 101C33.3458 101.018 36.011 100.776 35.9999 98Z" fill="#444444" stroke="black"/>
<path d="M34.454 80.2668L33.9525 73.2474L23.5395 73.2047L24.5162 80.697L34.454 80.2668Z" fill="#284DD1" stroke="black"/>
<path d="M33.5817 76.8944L33.0964 70.911L24.3142 70.7877L25.2044 77.1779L33.5817 76.8944Z" fill="#284DD1"/>
<path d="M39.7358 44.9967C30.942 44.8794 17.522 41.5028 17.522 41.5028C17.522 41.5028 16.3473 32.5711 17.522 27.0281C18.3757 23 19.3716 19.1441 21.76 14.55C22.2812 13.5474 23.1803 12.024 23.1803 12.024C22.8566 10.5792 22.586 8.80656 22.811 7.53189C23.3757 4.33183 24.1442 1.33029 27.5711 1.07361C30.3716 0.863834 31.7629 2.37974 33.3958 4.53711C34.1452 5.52717 34.722 7.48633 35.0815 8.99959C35.5966 8.82685 38.0916 8.06137 41.8514 8.06137C46.0894 8.06137 47.3548 8.903 47.3548 8.903C47.5641 7.45967 47.9682 5.62985 48.7339 4.53714C50.377 2.19229 52.1313 0.636388 55.0739 1.07361C58.5425 1.58897 59.4688 4.73602 59.8408 8.03102C60.0191 9.6103 59.2438 11.9984 58.7122 13.4034L59.3051 14.55C59.3051 14.55 63.9613 21.8075 64.5941 27.0281C65.4999 34.5 63.4999 41.5028 63.4999 41.5028C63.4999 41.5028 49.3454 45.1249 39.7358 44.9967Z" fill="#FFFEFE"/>
<path d="M58.2473 14.55C58.2473 14.55 58.4501 14.0962 58.7122 13.4034M23.8688 14.55C23.8688 14.55 23.4988 13.4457 23.1803 12.024M58.7122 13.4034C59.2438 11.9984 60.0191 9.6103 59.8408 8.03102C59.4688 4.73602 58.5425 1.58897 55.0739 1.07361C52.1313 0.636388 50.377 2.19229 48.7339 4.53714C47.3247 6.54822 47.1404 11.0561 47.1404 11.0561L47.3548 8.903C47.3548 8.903 46.0894 8.06137 41.8514 8.06137C37.6134 8.06137 34.9825 9.03394 34.9825 9.03394L35.5046 11.0561C35.5046 11.0561 34.7191 6.2855 33.3958 4.53711C31.7629 2.37974 30.3716 0.863834 27.5711 1.07361C24.1442 1.33029 23.3757 4.33183 22.811 7.53189C22.586 8.80656 22.8566 10.5792 23.1803 12.024M58.7122 13.4034L59.3051 14.55C59.3051 14.55 63.9613 21.8075 64.5941 27.0281C65.4999 34.5 63.4999 41.5028 63.4999 41.5028C63.4999 41.5028 49.3454 45.1249 39.7358 44.9967C30.942 44.8794 17.522 41.5028 17.522 41.5028C17.522 41.5028 16.3473 32.5711 17.522 27.0281C18.3757 23 19.3716 19.1441 21.76 14.55C22.2812 13.5474 23.1803 12.024 23.1803 12.024" stroke="black"/>
<path d="M63.4999 65.5507L63.4999 42.0016C63.4999 42.0016 49.6745 45.0016 40.7583 45.0016C31.8422 45.0016 17.4999 42 17.4999 42V65.5507C17.4999 65.5507 31.0167 68.4999 40.7583 68.5C50.4999 68.5001 63.4999 65.5507 63.4999 65.5507Z" fill="#40BDCE" stroke="black"/>
<path d="M99.3063 35.751L77.2458 59.4738L80.9423 62.8042L106.03 42.7995L110.803 30.9152L99.3063 35.751Z" fill="#FF2B2B" stroke="black"/>
<path d="M73.7353 60.674L71.9691 56.1291L76.4229 58.4331L82.8443 65.0445L82.3734 69.5981L80.4846 68.0033L78.6478 63.9822L73.6984 69.2223C73.6984 69.2223 73.436 71.7022 71.7007 72.0157C69.9654 72.3291 68.0645 71.1792 67.9504 69.3903C67.845 67.7382 70.276 67.3149 70.276 67.3149L75.4382 61.5515C74.5306 61.0565 73.7353 60.674 73.7353 60.674Z" fill="#A80202"/>
<path d="M78.6478 63.9822L80.4846 68.0033L82.3734 69.5981L82.8443 65.0445L76.4229 58.4331L71.9691 56.1291L73.7353 60.674C73.7353 60.674 74.5306 61.0565 75.4382 61.5515M78.6478 63.9822L73.6984 69.2223C73.6984 69.2223 73.436 71.7022 71.7007 72.0157C69.9654 72.3291 68.0645 71.1792 67.9504 69.3903C67.845 67.7382 70.276 67.3149 70.276 67.3149L75.4382 61.5515M78.6478 63.9822C78.6478 63.9822 76.9236 62.3614 75.4382 61.5515" stroke="black"/>
<path d="M86.4719 54.3707L103.219 38.9112" stroke="black" stroke-linecap="round"/>
<path d="M75.0359 62.9175C72.6571 61.0979 69.4425 57.126 69.4425 57.126L65.6685 60.062L71.2678 66.2003C71.2678 66.2003 71.4922 67.8019 72.112 68.543C73.3042 69.9685 75.2599 70.2476 76.7719 69.1815C77.6681 68.5495 77.97 68.6219 78.2696 67.5527C78.602 66.3665 78.1743 64.3956 78.1743 64.3956C78.1743 64.3956 76.1161 63.7438 75.0359 62.9175Z" fill="#FFDCC9" stroke="black"/>
<path d="M63.663 61.3845L70.6659 55.9881L66.7094 51.9752L63.4999 48.5001L61.8819 60.0005L63.663 61.3845Z" fill="#40BDCE" stroke="black"/>
<path d="M62.4998 62.0001L69.1376 55.534L65.9998 52L62.4998 48L60.4999 59L62.4998 62.0001Z" fill="#40BDCE"/>
<path d="M58.0595 53.7478C58.488 50.2539 63.0952 48.1898 63.0952 48.1898C63.0952 48.1898 61.8566 51.101 61.5445 54.0716C61.2123 57.2328 62.8883 61.2266 62.8883 61.2266C62.8883 61.2266 57.6109 57.4046 58.0595 53.7478Z" fill="#65E959" stroke="black"/>
<path d="M4.46238 64.624C6.84122 62.8043 10.0558 58.8324 10.0558 58.8324L13.8298 61.7684L8.23045 67.9067C8.23045 67.9067 8.00609 69.5083 7.38629 70.2494C6.19407 71.6749 4.23836 71.954 2.7264 70.8879C1.83018 70.256 1.52833 70.3284 1.2287 69.2591C0.89629 68.0729 1.32402 66.102 1.32402 66.102C1.32402 66.102 3.38221 65.4502 4.46238 64.624Z" fill="#FFDCC9" stroke="black"/>
<path d="M15.8352 63.091L8.83233 57.6945L12.7888 53.6816L17.4999 48.5001L17.6163 61.707L15.8352 63.091Z" fill="#40BDCE" stroke="black"/>
<path d="M18.5001 62.5003L11.165 56.6717L14.4999 53L20.4999 45.5L21.0422 60.6043L18.5001 62.5003Z" fill="#40BDCE"/>
<path d="M22.9999 55C22.8964 51.4814 18.4999 49 18.4999 49C18.4999 49 19.4639 52.0133 19.4999 55C19.5382 58.1784 17.4999 62 17.4999 62C17.4999 62 23.1082 58.6826 22.9999 55Z" fill="#65E959" stroke="black"/>
<path d="M40.9999 69C31.8374 69.1122 17.9999 66.5 17.9999 66.5C17.9999 66.5 19.781 73.1064 24.4999 75.5C29.4398 78.0057 35.2937 78.5 40.9999 78.5C47.9999 78.5 53.0642 76.8698 58.3145 72.7881C61.122 70.6055 62.9999 66 62.9999 66C62.9999 66 49.9918 68.8899 40.9999 69Z" fill="#284DD1" stroke="black"/>
<path d="M37.5 32C37.5 32 19.4999 32.0001 12.3462 46.4247C9.48337 52.1974 13.5 60.5001 13.5 60.5001H63C63 60.5001 69.6299 52.236 66.8462 46.4247C58.4999 29 37.5 32 37.5 32Z" fill="#65E959" stroke="black"/>
<path d="M15.4998 67C11.2343 62.4299 11.4998 51.5 11.4998 51.5C30.1665 51.3333 66.9999 51.5 66.9999 51.5C66.9999 51.5 69.4997 62 64.9998 67C60.4999 72 40.4998 74.5 40.4998 74.5C40.4998 74.5 22.4998 74.5 15.4998 67Z" fill="#278C1E" stroke="black"/>
</svg>
