<svg width="120" height="120" viewBox="0 0 120 120" fill="none" xmlns="http://www.w3.org/2000/svg">
<path d="M60 59C68.5915 59 82 56 82 56V72.5C82 72.5 68.671 75.5 60 75.5C51.329 75.5 38 72.5 38 72.5V56C38 56 51.4085 59 60 59Z" fill="#40BDCE"/>
<path d="M80 28C80 28 68.4804 22 60 22C51.5196 22 40 28 40 28L38 56C38 56 52.2815 59 60 59C67.7185 59 82 56 82 56L80 28Z" fill="white"/>
<path d="M60 75.5294C68.5915 75.5294 82 72 82 72L81 78.4706C81 78.4706 68.671 82 60 82C51.329 82 39 78.4706 39 78.4706L38 72C38 72 51.4085 75.5294 60 75.5294Z" fill="#284DD1"/>
<path d="M80 20V28L72 24.5V20C72 20 74.2535 18 76 18C77.7465 18 80 20 80 20Z" fill="white"/>
<path d="M40 20V28L48 24.5V20C48 20 45.7465 18 44 18C42.2535 18 40 20 40 20Z" fill="white"/>
<path d="M80 86.9999L81 77.9999L70 79.9999V86.9999C70 86.9999 73.0352 87.9999 75 87.9999C76.9648 87.9999 80 86.9999 80 86.9999Z" fill="#284DD1"/>
<path d="M78 94.9999L79 87.4999C79 87.4999 76.6102 87.9999 75 87.9999C73.3899 87.9999 71 87.4999 71 87.4999L71.5 94.9999C71.5 94.9999 72.5352 95.9999 74.5 95.9999C76.4648 95.9999 78 94.9999 78 94.9999Z" fill="#FFDCC9"/>
<path d="M75 97.9999C76.9648 97.9999 78.5 96.9999 78.5 96.9999C78.5 96.9999 79 96.4365 79 95.9999C79 95.5633 78.5 94.9999 78.5 94.9999C78.5 94.9999 76.6102 95.9999 75 95.9999C73.3899 95.9999 71 94.9999 71 94.9999C71 94.9999 70.5 95.5633 70.5 95.9999C70.5 96.4365 71 96.9999 71 96.9999C71 96.9999 73.0352 97.9999 75 97.9999Z" fill="white"/>
<path d="M74.5 102C76.4648 102 78.5 101 78.5 101C78.5 101 79 100.437 79 99.9999C79 99.5633 78.5 96.9999 78.5 96.9999C78.5 96.9999 76.1102 97.9999 74.5 97.9999C72.8899 97.9999 71 96.9999 71 96.9999C71 96.9999 70.5 99.5633 70.5 99.9999C70.5 100.437 71 101 71 101C71 101 72.5352 102 74.5 102Z" fill="black"/>
<path d="M40 86.9999L39 77.9999L50 79.9999V86.9999C50 86.9999 46.9648 87.9999 45 87.9999C43.0352 87.9999 40 86.9999 40 86.9999Z" fill="#284DD1"/>
<path d="M42 94.9999L41 87.4999C41 87.4999 43.3899 87.9999 45 87.9999C46.6102 87.9999 49 87.4999 49 87.4999L48.5 94.9999C48.5 94.9999 47.4648 95.9999 45.5 95.9999C43.5352 95.9999 42 94.9999 42 94.9999Z" fill="#FFDCC9"/>
<path d="M45 97.9999C43.0352 97.9999 41.5 96.9999 41.5 96.9999C41.5 96.9999 41 96.4365 41 95.9999C41 95.5633 41.5 94.9999 41.5 94.9999C41.5 94.9999 43.3899 95.9999 45 95.9999C46.6102 95.9999 49 94.9999 49 94.9999C49 94.9999 49.5 95.5633 49.5 95.9999C49.5 96.4365 49 96.9999 49 96.9999C49 96.9999 46.9648 97.9999 45 97.9999Z" fill="white"/>
<path d="M45.5 102C43.5352 102 41.5 101 41.5 101C41.5 101 41 100.437 41 99.9999C41 99.5633 41.5 96.9999 41.5 96.9999C41.5 96.9999 43.8899 97.9999 45.5 97.9999C47.1102 97.9999 49 96.9999 49 96.9999C49 96.9999 49.5 99.5633 49.5 99.9999C49.5 100.437 49 101 49 101C49 101 47.4648 102 45.5 102Z" fill="black"/>
<path d="M112.413 6.45908L109.131 2.81271L104.543 5.02743L98.7711 39.5519C98.7711 39.5519 97.4714 41.1095 97.2504 42.3245C97.0294 43.5395 96.9945 44.4396 97.6974 45.4551C98.1944 46.1731 99.4861 46.7968 99.4861 46.7968L98.144 54.1758C98.144 54.1758 98.9228 54.8256 99.5303 54.9361C100.138 55.0466 101.096 54.7126 101.096 54.7126L102.438 47.3337C102.438 47.3337 103.866 47.2048 104.584 46.7077C105.6 46.0049 105.884 45.1501 106.105 43.9351C106.326 42.7201 105.658 40.8046 105.658 40.8046L112.413 6.45908Z" fill="white"/>
<circle r="2.5" transform="matrix(-0.983857 -0.178955 -0.178955 0.983857 101.678 43.1298)" fill="#284DD1"/>
<path d="M98.5952 50.0231L91.206 50.8722C91.206 50.8722 91.7046 52.6178 91.7977 53.727C91.8909 54.8363 91.6829 56.5531 91.6829 56.5531L99.0722 55.704L103.556 52.4057C103.556 52.4057 104.934 49.7978 104.078 48.5356C103.342 47.4515 100.945 47.3381 100.945 47.3381L98.5952 50.0231Z" fill="#FFDCC9"/>
<path d="M92.2155 50.2265L81.2814 51.3927C81.2814 51.3927 80.6393 55.5496 81.845 57.1964C83.0506 58.8432 87.7543 58.9416 87.7543 58.9416L91.1984 59.1828C91.1984 59.1828 92.548 58.3591 92.8497 55.2113C93.1513 52.0635 92.2155 50.2265 92.2155 50.2265Z" fill="#40BDCE"/>
<path d="M29.7537 66.8752L35.5 57.5C35.5 57.5 39.53 58.7042 40.5 60.5C41.47 62.2958 39.5399 66.5864 39.5399 66.5864L38.2796 69.8006C38.2796 69.8006 36.9564 70.6661 33.9837 69.5875C31.0111 68.5089 29.7537 66.8752 29.7537 66.8752Z" fill="#40BDCE"/>
<path d="M27.245 74.2941L30.4661 67.5899C30.4661 67.5899 31.9523 68.6324 32.9699 69.0835C33.9876 69.5346 35.6779 69.9001 35.6779 69.9001L32.4568 76.6043L29.993 81.3626C29.993 81.3626 27.8287 82.1062 26.644 81.5473C25.5698 81.0406 24.7224 79.1899 24.7224 79.1899L27.245 74.2941Z" fill="#FFDCC9"/>
<ellipse rx="29" ry="20" transform="matrix(-1 0 0 1 60 61)" fill="#65E959"/>
<path d="M60 81C43.9837 81 31 73.0457 31 62H89C89 73.0457 76.0163 81 60 81Z" fill="#278C1E"/>
</svg>
