<svg width="120" height="120" viewBox="0 0 120 120" fill="none" xmlns="http://www.w3.org/2000/svg">
<path d="M60.4423 62C51.8507 62 38.4423 59 38.4423 59V75.5C38.4423 75.5 51.7712 78.5 60.4423 78.5C69.1133 78.5 82.4423 75.5 82.4423 75.5V59C82.4423 59 69.0338 62 60.4423 62Z" fill="#40BDCE"/>
<path d="M40.4423 31C40.4423 31 51.9619 25 60.4423 25C68.9227 25 80.4423 31 80.4423 31L82.4423 59C82.4423 59 68.1608 62 60.4423 62C52.7238 62 38.4423 59 38.4423 59L40.4423 31Z" fill="white"/>
<path d="M60.4423 78.0294C51.8507 78.0294 38.4423 74.5 38.4423 74.5L39.4423 80.9706C39.4423 80.9706 51.7712 84.5 60.4423 84.5C69.1133 84.5 81.4423 80.9706 81.4423 80.9706L82.4423 74.5C82.4423 74.5 69.0338 78.0294 60.4423 78.0294Z" fill="#284DD1"/>
<path d="M40.4423 23V31L48.4423 27.5V23C48.4423 23 46.1888 21 44.4423 21C42.6958 21 40.4423 23 40.4423 23Z" fill="white"/>
<path d="M80.4423 23V31L72.4423 27.5V23C72.4423 23 74.6958 21 76.4423 21C78.1888 21 80.4423 23 80.4423 23Z" fill="white"/>
<path d="M40.4422 88.125L39.4422 81L50.4422 82.5833V88.125C50.4422 88.125 47.407 88.9167 45.4422 88.9167C43.4775 88.9167 40.4422 88.125 40.4422 88.125Z" fill="#284DD1"/>
<path d="M42.4422 94.4584L41.4422 88.5208C41.4422 88.5208 43.8321 88.9167 45.4422 88.9167C47.0524 88.9167 49.4422 88.5208 49.4422 88.5208L48.9422 94.4584C48.9422 94.4584 47.907 95.25 45.9422 95.25C43.9775 95.25 42.4422 94.4584 42.4422 94.4584Z" fill="#FFDCC9"/>
<path d="M45.4422 96.8333C43.4775 96.8333 41.9422 96.0417 41.9422 96.0417C41.9422 96.0417 41.4422 95.5957 41.4422 95.25C41.4422 94.9043 41.9422 94.4583 41.9422 94.4583C41.9422 94.4583 43.8321 95.25 45.4422 95.25C47.0524 95.25 49.4422 94.4583 49.4422 94.4583C49.4422 94.4583 49.9422 94.9043 49.9422 95.25C49.9422 95.5957 49.4422 96.0417 49.4422 96.0417C49.4422 96.0417 47.407 96.8333 45.4422 96.8333Z" fill="white"/>
<path d="M45.9422 100C43.9775 100 41.9422 99.2084 41.9422 99.2084C41.9422 99.2084 41.4422 98.7624 41.4422 98.4167C41.4422 98.071 41.9422 96.0417 41.9422 96.0417C41.9422 96.0417 44.3321 96.8334 45.9422 96.8334C47.5524 96.8334 49.4422 96.0417 49.4422 96.0417C49.4422 96.0417 49.9422 98.071 49.9422 98.4167C49.9422 98.7624 49.4422 99.2084 49.4422 99.2084C49.4422 99.2084 47.907 100 45.9422 100Z" fill="black"/>
<path d="M77.9831 87.4033L81.3597 81.05L70.4816 78.7756L68.5862 83.9831C68.5862 83.9831 71.1676 85.7651 73.0139 86.4371C74.8602 87.1091 77.9831 87.4033 77.9831 87.4033Z" fill="#284DD1"/>
<path d="M73.9376 92.6707L76.9081 87.4333C76.9081 87.4333 74.527 86.9878 73.0139 86.4371C71.5008 85.8864 69.3905 84.6971 69.3905 84.6971L67.8296 90.4475C67.8296 90.4475 68.5316 91.5455 70.3779 92.2175C72.2242 92.8895 73.9376 92.6707 73.9376 92.6707Z" fill="#FFDCC9"/>
<path d="M70.3062 93.8764C72.1525 94.5484 73.8659 94.3295 73.8659 94.3295C73.8659 94.3295 74.4883 94.0814 74.6066 93.7566C74.7248 93.4318 74.4075 92.8417 74.4075 92.8417C74.4075 92.8417 72.3608 92.9392 70.8478 92.3885C69.3347 91.8378 67.3598 90.2765 67.3598 90.2765C67.3598 90.2765 66.7374 90.5246 66.6192 90.8494C66.5009 91.1742 66.8182 91.7644 66.8182 91.7644C66.8182 91.7644 68.46 93.2044 70.3062 93.8764Z" fill="white"/>
<path d="M68.7533 96.6811C70.5996 97.3531 72.7829 97.3052 72.7829 97.3052C72.7829 97.3052 73.4053 97.0571 73.5235 96.7323C73.6417 96.4075 73.8659 94.3295 73.8659 94.3295C73.8659 94.3295 71.3495 94.2561 69.8364 93.7054C68.3233 93.1546 66.8182 91.7644 66.8182 91.7644C66.8182 91.7644 65.6543 93.5003 65.5361 93.8251C65.4179 94.1499 65.7352 94.7401 65.7352 94.7401C65.7352 94.7401 66.907 96.0091 68.7533 96.6811Z" fill="black"/>
<path d="M15.0288 34.4591L18.3117 30.8128L22.8997 33.0275L28.6712 67.552C28.6712 67.552 29.9709 69.1096 30.1919 70.3246C30.4129 71.5396 30.4478 72.4397 29.7449 73.4551C29.2479 74.1731 27.9561 74.7969 27.9561 74.7969L29.2983 82.1758C29.2983 82.1758 28.5195 82.8257 27.912 82.9362C27.3045 83.0467 26.3467 82.7127 26.3467 82.7127L25.0046 75.3338C25.0046 75.3338 23.5759 75.2048 22.8579 74.7078C21.8425 74.0049 21.5582 73.1502 21.3372 71.9352C21.1162 70.7202 21.7842 68.8047 21.7842 68.8047L15.0288 34.4591Z" fill="white"/>
<circle cx="25.7645" cy="71.1299" r="2.5" transform="rotate(-10.3089 25.7645 71.1299)" fill="#284DD1"/>
<path d="M27.7678 75.6155L31.7063 69.3059C31.7063 69.3059 33.0688 70.5055 34.0307 71.0657C34.9927 71.6259 36.6325 72.175 36.6325 72.175L32.6941 78.4846L27.7906 81.1187C27.7906 81.1187 24.8438 81.2436 24.0712 79.9288C23.4076 78.7995 24.3343 76.585 24.3343 76.585L27.7678 75.6155Z" fill="#FFDCC9"/>
<path d="M30.6898 69.9406L36.4361 60.5654C36.4361 60.5654 40.4661 61.7696 41.4361 63.5654C42.4061 65.3612 40.476 69.6518 40.476 69.6518L39.2157 72.8661C39.2157 72.8661 37.8925 73.7315 34.9198 72.6529C31.9472 71.5743 30.6898 69.9406 30.6898 69.9406Z" fill="#40BDCE"/>
<path d="M91.8078 67.8478L83.2021 61.0026C83.2021 61.0026 79.8267 63.5123 79.5293 65.5315C79.2318 67.5507 82.5127 70.9227 82.5127 70.9227L84.7961 73.5123C84.7961 73.5123 86.3355 73.8731 88.7601 71.843C91.1847 69.813 91.8078 67.8478 91.8078 67.8478Z" fill="#40BDCE"/>
<path d="M96.702 73.9617L91.3826 68.763C91.3826 68.763 90.3426 70.2509 89.5405 71.0228C88.7384 71.7947 87.275 72.7161 87.275 72.7161L92.5943 77.9148L96.5367 81.5438C96.5367 81.5438 98.8248 81.5025 99.747 80.5722C100.583 79.7287 100.747 77.6999 100.747 77.6999L96.702 73.9617Z" fill="#FFDCC9"/>
<ellipse cx="60.4423" cy="64" rx="29" ry="20" fill="#65E959"/>
<path d="M60.4423 84C76.4585 84 89.4423 76.0457 89.4423 65H31.4423C31.4423 76.0457 44.426 84 60.4423 84Z" fill="#278C1E"/>
</svg>
