<svg width="94" height="86" viewBox="0 0 94 86" fill="none" xmlns="http://www.w3.org/2000/svg">
<path d="M47 42C38.4085 42 25 39 25 39V55.5C25 55.5 38.3289 58.5 47 58.5C55.671 58.5 69 55.5 69 55.5V39C69 39 55.5915 42 47 42Z" fill="#40BDCE"/>
<path d="M27 11C27 11 38.5196 5 47 5C55.4804 5 67 11 67 11L69 39C69 39 54.7185 42 47 42C39.2815 42 25 39 25 39L27 11Z" fill="white"/>
<path d="M47 58.0294C38.4085 58.0294 25 54.5 25 54.5L26 60.9706C26 60.9706 38.329 64.5 47 64.5C55.671 64.5 68 60.9706 68 60.9706L69 54.5C69 54.5 55.5915 58.0294 47 58.0294Z" fill="#284DD1"/>
<path d="M27 3V11L35 7.5V3C35 3 32.7465 1 31 1C29.2535 1 27 3 27 3Z" fill="white"/>
<path d="M67 3V11L59 7.5V3C59 3 61.2535 1 63 1C64.7465 1 67 3 67 3Z" fill="white"/>
<path d="M64.5409 67.4033L67.9175 61.05L57.0393 58.7756L55.1439 63.9831C55.1439 63.9831 57.7253 65.7652 59.5716 66.4372C61.4179 67.1091 64.5409 67.4033 64.5409 67.4033Z" fill="#284DD1"/>
<path d="M60.4953 72.6707L63.4658 67.4333C63.4658 67.4333 61.0847 66.9879 59.5716 66.4372C58.0586 65.8865 55.9482 64.6971 55.9482 64.6971L54.3873 70.4476C54.3873 70.4476 55.0894 71.5456 56.9356 72.2176C58.7819 72.8896 60.4953 72.6707 60.4953 72.6707Z" fill="#FFDCC9"/>
<path d="M56.864 73.8764C58.7103 74.5484 60.4237 74.3296 60.4237 74.3296C60.4237 74.3296 61.046 74.0815 61.1643 73.7566C61.2825 73.4318 60.9652 72.8417 60.9652 72.8417C60.9652 72.8417 58.9186 72.9393 57.4055 72.3886C55.8924 71.8378 53.9175 70.2766 53.9175 70.2766C53.9175 70.2766 53.2951 70.5247 53.1769 70.8495C53.0587 71.1743 53.376 71.7644 53.376 71.7644C53.376 71.7644 55.0177 73.2044 56.864 73.8764Z" fill="white"/>
<path d="M55.3111 76.6811C57.1573 77.3531 59.3406 77.3053 59.3406 77.3053C59.3406 77.3053 59.963 77.0572 60.0812 76.7323C60.1994 76.4075 60.4237 74.3296 60.4237 74.3296C60.4237 74.3296 57.9072 74.2561 56.3941 73.7054C54.8811 73.1547 53.376 71.7644 53.376 71.7644C53.376 71.7644 52.212 73.5004 52.0938 73.8252C51.9756 74.15 52.2929 74.7401 52.2929 74.7401C52.2929 74.7401 53.4648 76.0091 55.3111 76.6811Z" fill="black"/>
<path d="M29.4591 67.4033L26.0825 61.05L36.9606 58.7756L38.856 63.9831C38.856 63.9831 36.2746 65.7652 34.4283 66.4372C32.582 67.1091 29.4591 67.4033 29.4591 67.4033Z" fill="#284DD1"/>
<path d="M33.5046 72.6707L30.5341 67.4333C30.5341 67.4333 32.9152 66.9879 34.4283 66.4372C35.9414 65.8865 38.0517 64.6971 38.0517 64.6971L39.6126 70.4476C39.6126 70.4476 38.9106 71.5456 37.0643 72.2176C35.218 72.8896 33.5046 72.6707 33.5046 72.6707Z" fill="#FFDCC9"/>
<path d="M37.136 73.8764C35.2897 74.5484 33.5763 74.3296 33.5763 74.3296C33.5763 74.3296 32.9539 74.0815 32.8356 73.7566C32.7174 73.4318 33.0347 72.8417 33.0347 72.8417C33.0347 72.8417 35.0814 72.9393 36.5944 72.3886C38.1075 71.8378 40.0824 70.2766 40.0824 70.2766C40.0824 70.2766 40.7048 70.5247 40.823 70.8495C40.9413 71.1743 40.624 71.7644 40.624 71.7644C40.624 71.7644 38.9822 73.2044 37.136 73.8764Z" fill="white"/>
<path d="M38.6889 76.6811C36.8426 77.3531 34.6593 77.3053 34.6593 77.3053C34.6593 77.3053 34.0369 77.0572 33.9187 76.7323C33.8005 76.4075 33.5763 74.3296 33.5763 74.3296C33.5763 74.3296 36.0927 74.2561 37.6058 73.7054C39.1189 73.1547 40.624 71.7644 40.624 71.7644C40.624 71.7644 41.7879 73.5004 41.9061 73.8252C42.0243 74.15 41.707 74.7401 41.707 74.7401C41.707 74.7401 40.5352 76.0091 38.6889 76.6811Z" fill="black"/>
<path d="M1.58652 14.4727L4.86946 10.8263L9.45738 13.041L15.2289 47.5655C15.2289 47.5655 16.5286 49.1231 16.7496 50.3381C16.9706 51.5532 17.0055 52.4533 16.3026 53.4687C15.8056 54.1867 14.5139 54.8104 14.5139 54.8104L15.856 62.1894C15.856 62.1894 15.0772 62.8392 14.4697 62.9497C13.8622 63.0602 12.9045 62.7262 12.9045 62.7262L11.5623 55.3473C11.5623 55.3473 10.1336 55.2184 9.41562 54.7214C8.40021 54.0185 8.1159 53.1638 7.8949 51.9487C7.67389 50.7337 8.34189 48.8182 8.34189 48.8182L1.58652 14.4727Z" fill="white"/>
<circle cx="12.3223" cy="51.1434" r="2.5" transform="rotate(-10.3089 12.3223 51.1434)" fill="#284DD1"/>
<path d="M14.3255 55.629L18.264 49.3195C18.264 49.3195 19.6265 50.519 20.5885 51.0792C21.5504 51.6395 23.1903 52.1886 23.1903 52.1886L19.2518 58.4981L14.3483 61.1323C14.3483 61.1323 11.4015 61.2572 10.6289 59.9424C9.96529 58.813 10.8921 56.5986 10.8921 56.5986L14.3255 55.629Z" fill="#FFDCC9"/>
<path d="M17.2475 49.9542L22.9938 40.579C22.9938 40.579 27.0238 41.7832 27.9938 43.579C28.9638 45.3748 27.0337 49.6654 27.0337 49.6654L25.7734 52.8796C25.7734 52.8796 24.4502 53.7451 21.4776 52.6665C18.5049 51.5879 17.2475 49.9542 17.2475 49.9542Z" fill="#40BDCE"/>
<path d="M77.2463 49.8887L71.5 40.5135C71.5 40.5135 67.47 41.7178 66.5 43.5136C65.53 45.3093 67.4601 49.6 67.4601 49.6L68.7204 52.8142C68.7204 52.8142 70.0436 53.6796 73.0162 52.601C75.9889 51.5224 77.2463 49.8887 77.2463 49.8887Z" fill="#40BDCE"/>
<path d="M79.7549 57.3076L76.5339 50.6034C76.5339 50.6034 75.0477 51.6459 74.03 52.097C73.0124 52.5482 71.3221 52.9137 71.3221 52.9137L74.5431 59.6179L77.007 64.3762C77.007 64.3762 79.1713 65.1198 80.356 64.5609C81.4302 64.0541 82.2776 62.2035 82.2776 62.2035L79.7549 57.3076Z" fill="#FFDCC9"/>
<ellipse cx="47" cy="44" rx="29" ry="20" fill="#65E959"/>
<path d="M47 64C63.0163 64 76 56.0457 76 45H18C18 56.0457 30.9837 64 47 64Z" fill="#278C1E"/>
</svg>
