<svg width="120" height="120" viewBox="0 0 120 120" fill="none" xmlns="http://www.w3.org/2000/svg">
<path d="M59.5577 62C68.1493 62 81.5577 59 81.5577 59V75.5C81.5577 75.5 68.2288 78.5 59.5577 78.5C50.8867 78.5 37.5577 75.5 37.5577 75.5V59C37.5577 59 50.9662 62 59.5577 62Z" fill="#40BDCE"/>
<path d="M79.5577 31C79.5577 31 68.0381 25 59.5577 25C51.0773 25 39.5577 31 39.5577 31L37.5577 59C37.5577 59 51.8392 62 59.5577 62C67.2762 62 81.5577 59 81.5577 59L79.5577 31Z" fill="white"/>
<path d="M59.5577 78.0294C68.1493 78.0294 81.5577 74.5 81.5577 74.5L80.5577 80.9706C80.5577 80.9706 68.2288 84.5 59.5577 84.5C50.8867 84.5 38.5577 80.9706 38.5577 80.9706L37.5577 74.5C37.5577 74.5 50.9662 78.0294 59.5577 78.0294Z" fill="#284DD1"/>
<path d="M79.5577 23V31L71.5577 27.5V23C71.5577 23 73.8112 21 75.5577 21C77.3042 21 79.5577 23 79.5577 23Z" fill="white"/>
<path d="M39.5577 23V31L47.5577 27.5V23C47.5577 23 45.3042 21 43.5577 21C41.8112 21 39.5577 23 39.5577 23Z" fill="white"/>
<path d="M42.0169 87.4033L38.6403 81.05L49.5184 78.7756L51.4138 83.9831C51.4138 83.9831 48.8324 85.7652 46.9861 86.4372C45.1398 87.1091 42.0169 87.4033 42.0169 87.4033Z" fill="#284DD1"/>
<path d="M46.0624 92.6707L43.0919 87.4333C43.0919 87.4333 45.473 86.9879 46.9861 86.4372C48.4992 85.8865 50.6095 84.6971 50.6095 84.6971L52.1704 90.4476C52.1704 90.4476 51.4684 91.5456 49.6221 92.2176C47.7758 92.8896 46.0624 92.6707 46.0624 92.6707Z" fill="#FFDCC9"/>
<path d="M49.6938 93.8764C47.8475 94.5484 46.1341 94.3296 46.1341 94.3296C46.1341 94.3296 45.5117 94.0815 45.3935 93.7566C45.2752 93.4318 45.5925 92.8417 45.5925 92.8417C45.5925 92.8417 47.6392 92.9393 49.1522 92.3886C50.6653 91.8378 52.6402 90.2766 52.6402 90.2766C52.6402 90.2766 53.2626 90.5247 53.3808 90.8495C53.4991 91.1743 53.1818 91.7644 53.1818 91.7644C53.1818 91.7644 51.5401 93.2044 49.6938 93.8764Z" fill="white"/>
<path d="M51.2467 96.6811C49.4004 97.3531 47.2171 97.3053 47.2171 97.3053C47.2171 97.3053 46.5947 97.0572 46.4765 96.7323C46.3583 96.4075 46.1341 94.3296 46.1341 94.3296C46.1341 94.3296 48.6505 94.2561 50.1636 93.7054C51.6767 93.1547 53.1818 91.7644 53.1818 91.7644C53.1818 91.7644 54.3457 93.5004 54.4639 93.8252C54.5821 94.15 54.2648 94.7401 54.2648 94.7401C54.2648 94.7401 53.093 96.0091 51.2467 96.6811Z" fill="black"/>
<path d="M77.0987 87.4033L80.4753 81.05L69.5971 78.7756L67.7017 83.9831C67.7017 83.9831 70.2831 85.7652 72.1294 86.4372C73.9757 87.1091 77.0987 87.4033 77.0987 87.4033Z" fill="#284DD1"/>
<path d="M73.0532 92.6707L76.0236 87.4333C76.0236 87.4333 73.6425 86.9879 72.1294 86.4372C70.6164 85.8865 68.5061 84.6971 68.5061 84.6971L66.9451 90.4476C66.9451 90.4476 67.6472 91.5456 69.4935 92.2176C71.3398 92.8896 73.0532 92.6707 73.0532 92.6707Z" fill="#FFDCC9"/>
<path d="M69.4218 93.8764C71.2681 94.5484 72.9815 94.3296 72.9815 94.3296C72.9815 94.3296 73.6039 94.0815 73.7221 93.7566C73.8403 93.4318 73.523 92.8417 73.523 92.8417C73.523 92.8417 71.4764 92.9393 69.9633 92.3886C68.4502 91.8378 66.4753 90.2766 66.4753 90.2766C66.4753 90.2766 65.8529 90.5247 65.7347 90.8495C65.6165 91.1743 65.9338 91.7644 65.9338 91.7644C65.9338 91.7644 67.5755 93.2044 69.4218 93.8764Z" fill="white"/>
<path d="M67.8689 96.6811C69.7152 97.3531 71.8984 97.3053 71.8984 97.3053C71.8984 97.3053 72.5208 97.0572 72.639 96.7323C72.7572 96.4075 72.9815 94.3296 72.9815 94.3296C72.9815 94.3296 70.465 94.2561 68.9519 93.7054C67.4389 93.1547 65.9338 91.7644 65.9338 91.7644C65.9338 91.7644 64.7698 93.5004 64.6516 93.8252C64.5334 94.15 64.8507 94.7401 64.8507 94.7401C64.8507 94.7401 66.0226 96.0091 67.8689 96.6811Z" fill="black"/>
<path d="M104.971 34.4727L101.688 30.8263L97.1003 33.041L91.3288 67.5655C91.3288 67.5655 90.0291 69.1231 89.8081 70.3381C89.5871 71.5532 89.5522 72.4533 90.2551 73.4687C90.7521 74.1867 92.0439 74.8104 92.0439 74.8104L90.7017 82.1894C90.7017 82.1894 91.4805 82.8392 92.088 82.9497C92.6955 83.0602 93.6533 82.7262 93.6533 82.7262L94.9954 75.3473C94.9954 75.3473 96.4241 75.2184 97.1421 74.7214C98.1575 74.0185 98.4418 73.1638 98.6628 71.9487C98.8838 70.7337 98.2158 68.8182 98.2158 68.8182L104.971 34.4727Z" fill="white"/>
<circle r="2.5" transform="matrix(-0.983857 -0.178955 -0.178955 0.983857 94.2355 71.1434)" fill="#284DD1"/>
<path d="M92.2322 75.629L88.2937 69.3195C88.2937 69.3195 86.9312 70.519 85.9693 71.0792C85.0073 71.6395 83.3675 72.1886 83.3675 72.1886L87.3059 78.4981L92.2094 81.1323C92.2094 81.1323 95.1562 81.2572 95.9288 79.9424C96.5924 78.813 95.6657 76.5986 95.6657 76.5986L92.2322 75.629Z" fill="#FFDCC9"/>
<path d="M89.3102 69.9542L83.5639 60.579C83.5639 60.579 79.5339 61.7832 78.5639 63.579C77.594 65.3748 79.524 69.6654 79.524 69.6654L80.7843 72.8796C80.7843 72.8796 82.1075 73.7451 85.0802 72.6665C88.0528 71.5879 89.3102 69.9542 89.3102 69.9542Z" fill="#40BDCE"/>
<path d="M29.3114 69.8887L35.0577 60.5135C35.0577 60.5135 39.0878 61.7178 40.0577 63.5136C41.0277 65.3093 39.0976 69.6 39.0976 69.6L37.8374 72.8142C37.8374 72.8142 36.5141 73.6796 33.5415 72.601C30.5689 71.5224 29.3114 69.8887 29.3114 69.8887Z" fill="#40BDCE"/>
<path d="M26.8028 77.3076L30.0239 70.6034C30.0239 70.6034 31.51 71.6459 32.5277 72.097C33.5454 72.5482 35.2357 72.9137 35.2357 72.9137L32.0146 79.6179L29.5508 84.3762C29.5508 84.3762 27.3864 85.1198 26.2018 84.5609C25.1276 84.0541 24.2802 82.2035 24.2802 82.2035L26.8028 77.3076Z" fill="#FFDCC9"/>
<ellipse rx="29" ry="20" transform="matrix(-1 0 0 1 59.5577 64)" fill="#65E959"/>
<path d="M59.5577 84C43.5415 84 30.5577 76.0457 30.5577 65H88.5577C88.5577 76.0457 75.574 84 59.5577 84Z" fill="#278C1E"/>
</svg>
