<svg width="120" height="120" viewBox="0 0 120 120" fill="none" xmlns="http://www.w3.org/2000/svg">
<path d="M59.5577 62C68.1493 62 81.5577 59 81.5577 59V75.5C81.5577 75.5 68.2288 78.5 59.5577 78.5C50.8867 78.5 37.5577 75.5 37.5577 75.5V59C37.5577 59 50.9662 62 59.5577 62Z" fill="#40BDCE"/>
<path d="M79.5577 31C79.5577 31 68.0381 25 59.5577 25C51.0773 25 39.5577 31 39.5577 31L37.5577 59C37.5577 59 51.8392 62 59.5577 62C67.2762 62 81.5577 59 81.5577 59L79.5577 31Z" fill="white"/>
<path d="M59.5577 78.0294C68.1493 78.0294 81.5577 74.5 81.5577 74.5L80.5577 80.9706C80.5577 80.9706 68.2288 84.5 59.5577 84.5C50.8867 84.5 38.5577 80.9706 38.5577 80.9706L37.5577 74.5C37.5577 74.5 50.9662 78.0294 59.5577 78.0294Z" fill="#284DD1"/>
<path d="M79.5577 23V31L71.5577 27.5V23C71.5577 23 73.8112 21 75.5577 21C77.3042 21 79.5577 23 79.5577 23Z" fill="white"/>
<path d="M39.5577 23V31L47.5577 27.5V23C47.5577 23 45.3042 21 43.5577 21C41.8112 21 39.5577 23 39.5577 23Z" fill="white"/>
<path d="M79.5578 88.125L80.5578 81L69.5578 82.5833V88.125C69.5578 88.125 72.593 88.9167 74.5578 88.9167C76.5225 88.9167 79.5578 88.125 79.5578 88.125Z" fill="#284DD1"/>
<path d="M77.5578 94.4584L78.5578 88.5208C78.5578 88.5208 76.1679 88.9167 74.5578 88.9167C72.9476 88.9167 70.5578 88.5208 70.5578 88.5208L71.0578 94.4584C71.0578 94.4584 72.093 95.25 74.0578 95.25C76.0225 95.25 77.5578 94.4584 77.5578 94.4584Z" fill="#FFDCC9"/>
<path d="M74.5578 96.8333C76.5225 96.8333 78.0578 96.0417 78.0578 96.0417C78.0578 96.0417 78.5578 95.5957 78.5578 95.25C78.5578 94.9043 78.0578 94.4583 78.0578 94.4583C78.0578 94.4583 76.1679 95.25 74.5578 95.25C72.9476 95.25 70.5578 94.4583 70.5578 94.4583C70.5578 94.4583 70.0578 94.9043 70.0578 95.25C70.0578 95.5957 70.5578 96.0417 70.5578 96.0417C70.5578 96.0417 72.593 96.8333 74.5578 96.8333Z" fill="white"/>
<path d="M74.0578 100C76.0225 100 78.0578 99.2084 78.0578 99.2084C78.0578 99.2084 78.5578 98.7624 78.5578 98.4167C78.5578 98.071 78.0578 96.0417 78.0578 96.0417C78.0578 96.0417 75.6679 96.8334 74.0578 96.8334C72.4476 96.8334 70.5578 96.0417 70.5578 96.0417C70.5578 96.0417 70.0578 98.071 70.0578 98.4167C70.0578 98.7624 70.5578 99.2084 70.5578 99.2084C70.5578 99.2084 72.093 100 74.0578 100Z" fill="black"/>
<path d="M42.0168 87.4033L38.6403 81.05L49.5184 78.7756L51.4138 83.9831C51.4138 83.9831 48.8324 85.7651 46.9861 86.4371C45.1398 87.1091 42.0168 87.4033 42.0168 87.4033Z" fill="#284DD1"/>
<path d="M46.0624 92.6707L43.0919 87.4333C43.0919 87.4333 45.473 86.9878 46.9861 86.4371C48.4992 85.8864 50.6095 84.6971 50.6095 84.6971L52.1704 90.4475C52.1704 90.4475 51.4684 91.5455 49.6221 92.2175C47.7758 92.8895 46.0624 92.6707 46.0624 92.6707Z" fill="#FFDCC9"/>
<path d="M49.6938 93.8764C47.8475 94.5484 46.1341 94.3295 46.1341 94.3295C46.1341 94.3295 45.5117 94.0814 45.3934 93.7566C45.2752 93.4318 45.5925 92.8417 45.5925 92.8417C45.5925 92.8417 47.6392 92.9392 49.1522 92.3885C50.6653 91.8378 52.6402 90.2765 52.6402 90.2765C52.6402 90.2765 53.2626 90.5246 53.3808 90.8494C53.4991 91.1742 53.1818 91.7644 53.1818 91.7644C53.1818 91.7644 51.54 93.2044 49.6938 93.8764Z" fill="white"/>
<path d="M51.2467 96.6811C49.4004 97.3531 47.2171 97.3052 47.2171 97.3052C47.2171 97.3052 46.5947 97.0571 46.4765 96.7323C46.3583 96.4075 46.1341 94.3295 46.1341 94.3295C46.1341 94.3295 48.6505 94.2561 50.1636 93.7054C51.6767 93.1546 53.1818 91.7644 53.1818 91.7644C53.1818 91.7644 54.3457 93.5003 54.4639 93.8251C54.5821 94.1499 54.2648 94.7401 54.2648 94.7401C54.2648 94.7401 53.093 96.0091 51.2467 96.6811Z" fill="black"/>
<path d="M104.971 34.4591L101.688 30.8128L97.1003 33.0275L91.3288 67.552C91.3288 67.552 90.0291 69.1096 89.8081 70.3246C89.5871 71.5396 89.5522 72.4397 90.2551 73.4551C90.7521 74.1731 92.0439 74.7969 92.0439 74.7969L90.7017 82.1758C90.7017 82.1758 91.4805 82.8257 92.088 82.9362C92.6955 83.0467 93.6533 82.7127 93.6533 82.7127L94.9954 75.3338C94.9954 75.3338 96.4241 75.2048 97.1421 74.7078C98.1575 74.0049 98.4418 73.1502 98.6628 71.9352C98.8838 70.7202 98.2158 68.8047 98.2158 68.8047L104.971 34.4591Z" fill="white"/>
<circle r="2.5" transform="matrix(-0.983857 -0.178955 -0.178955 0.983857 94.2355 71.1299)" fill="#284DD1"/>
<path d="M92.2322 75.6155L88.2937 69.3059C88.2937 69.3059 86.9312 70.5055 85.9693 71.0657C85.0073 71.6259 83.3675 72.175 83.3675 72.175L87.3059 78.4846L92.2094 81.1187C92.2094 81.1187 95.1562 81.2436 95.9288 79.9288C96.5924 78.7995 95.6657 76.585 95.6657 76.585L92.2322 75.6155Z" fill="#FFDCC9"/>
<path d="M89.3102 69.9406L83.5639 60.5654C83.5639 60.5654 79.5339 61.7696 78.5639 63.5654C77.594 65.3612 79.524 69.6518 79.524 69.6518L80.7843 72.8661C80.7843 72.8661 82.1075 73.7315 85.0802 72.6529C88.0528 71.5743 89.3102 69.9406 89.3102 69.9406Z" fill="#40BDCE"/>
<path d="M28.1922 67.8478L36.7979 61.0026C36.7979 61.0026 40.1733 63.5123 40.4707 65.5315C40.7682 67.5507 37.4873 70.9227 37.4873 70.9227L35.2039 73.5123C35.2039 73.5123 33.6645 73.8731 31.2399 71.843C28.8153 69.813 28.1922 67.8478 28.1922 67.8478Z" fill="#40BDCE"/>
<path d="M23.298 73.9617L28.6174 68.763C28.6174 68.763 29.6575 70.2509 30.4595 71.0228C31.2616 71.7947 32.725 72.7161 32.725 72.7161L27.4057 77.9148L23.4633 81.5438C23.4633 81.5438 21.1752 81.5025 20.253 80.5722C19.4169 79.7287 19.2534 77.6999 19.2534 77.6999L23.298 73.9617Z" fill="#FFDCC9"/>
<ellipse rx="29" ry="20" transform="matrix(-1 0 0 1 59.5577 64)" fill="#65E959"/>
<path d="M59.5577 84C43.5415 84 30.5577 76.0457 30.5577 65H88.5577C88.5577 76.0457 75.574 84 59.5577 84Z" fill="#278C1E"/>
</svg>
