<svg width="120" height="120" viewBox="0 0 120 120" fill="none" xmlns="http://www.w3.org/2000/svg">
<path d="M59.8312 61C68.4227 61 81.8312 58 81.8312 58V74.5C81.8312 74.5 68.5023 77.5 59.8312 77.5C51.1602 77.5 37.8312 74.5 37.8312 74.5V58C37.8312 58 51.2397 61 59.8312 61Z" fill="#40BDCE"/>
<path d="M59.8312 77.0294C51.2397 77.0294 37.8312 73.5 37.8312 73.5L38.8312 79.9706C38.8312 79.9706 51.1602 83.5 59.8312 83.5C68.5022 83.5 80.8312 79.9706 80.8312 79.9706L81.8312 73.5C81.8312 73.5 68.4227 77.0294 59.8312 77.0294Z" fill="#284DD1"/>
<path d="M39.8312 87.1272L38.8312 80.0022L49.8312 81.5855V87.1272C49.8312 87.1272 46.796 87.9189 44.8312 87.9189C42.8664 87.9189 39.8312 87.1272 39.8312 87.1272Z" fill="#284DD1"/>
<path d="M41.8312 93.4606L40.8312 87.523C40.8312 87.523 43.221 87.9189 44.8312 87.9189C46.4413 87.9189 48.8312 87.523 48.8312 87.523L48.3312 93.4606C48.3312 93.4606 47.296 94.2522 45.3312 94.2522C43.3664 94.2522 41.8312 93.4606 41.8312 93.4606Z" fill="#FFDCC9"/>
<path d="M44.8312 95.8356C42.8664 95.8356 41.3312 95.0439 41.3312 95.0439C41.3312 95.0439 40.8312 94.5979 40.8312 94.2522C40.8312 93.9066 41.3312 93.4606 41.3312 93.4606C41.3312 93.4606 43.221 94.2522 44.8312 94.2522C46.4413 94.2522 48.8312 93.4606 48.8312 93.4606C48.8312 93.4606 49.3312 93.9066 49.3312 94.2522C49.3312 94.5979 48.8312 95.0439 48.8312 95.0439C48.8312 95.0439 46.796 95.8356 44.8312 95.8356Z" fill="white"/>
<path d="M45.3312 99.0022C43.3664 99.0022 41.3312 98.2106 41.3312 98.2106C41.3312 98.2106 40.8312 97.7646 40.8312 97.4189C40.8312 97.0732 41.3312 95.0439 41.3312 95.0439C41.3312 95.0439 43.721 95.8356 45.3312 95.8356C46.9413 95.8356 48.8312 95.0439 48.8312 95.0439C48.8312 95.0439 49.3312 97.0732 49.3312 97.4189C49.3312 97.7646 48.8312 98.2106 48.8312 98.2106C48.8312 98.2106 47.296 99.0022 45.3312 99.0022Z" fill="black"/>
<path d="M77.3721 86.4055L80.7487 80.0522L69.8705 77.7779L67.9751 82.9853C67.9751 82.9853 70.5565 84.7674 72.4028 85.4394C74.2491 86.1114 77.3721 86.4055 77.3721 86.4055Z" fill="#284DD1"/>
<path d="M73.3266 91.6729L76.297 86.4355C76.297 86.4355 73.9159 85.9901 72.4028 85.4394C70.8898 84.8887 68.7795 83.6993 68.7795 83.6993L67.2186 89.4498C67.2186 89.4498 67.9206 90.5478 69.7669 91.2198C71.6132 91.8918 73.3266 91.6729 73.3266 91.6729Z" fill="#FFDCC9"/>
<path d="M69.6952 92.8786C71.5415 93.5506 73.2549 93.3318 73.2549 93.3318C73.2549 93.3318 73.8773 93.0837 73.9955 92.7588C74.1137 92.434 73.7964 91.8439 73.7964 91.8439C73.7964 91.8439 71.7498 91.9415 70.2367 91.3908C68.7236 90.8401 66.7487 89.2788 66.7487 89.2788C66.7487 89.2788 66.1263 89.5269 66.0081 89.8517C65.8899 90.1765 66.2072 90.7666 66.2072 90.7666C66.2072 90.7666 67.8489 92.2066 69.6952 92.8786Z" fill="white"/>
<path d="M68.1423 95.6833C69.9886 96.3553 72.1718 96.3075 72.1718 96.3075C72.1718 96.3075 72.7942 96.0594 72.9124 95.7346C73.0306 95.4097 73.2549 93.3318 73.2549 93.3318C73.2549 93.3318 70.7384 93.2583 69.2253 92.7076C67.7123 92.1569 66.2072 90.7666 66.2072 90.7666C66.2072 90.7666 65.0432 92.5026 64.925 92.8274C64.8068 93.1522 65.1241 93.7423 65.1241 93.7423C65.1241 93.7423 66.296 95.0113 68.1423 95.6833Z" fill="black"/>
<path d="M79.8312 30C79.8312 30 68.3116 24 59.8312 24C51.3508 24 39.8312 30 39.8312 30L37.8312 58C37.8312 58 52.1127 61 59.8312 61C67.5497 61 81.8312 58 81.8312 58L79.8312 30Z" fill="white"/>
<path d="M79.8312 22V30L71.8312 26.5V22C71.8312 22 74.0847 20 75.8312 20C77.5777 20 79.8312 22 79.8312 22Z" fill="white"/>
<path d="M39.8312 22V30L47.8312 26.5V22C47.8312 22 45.5777 20 43.8312 20C42.0847 20 39.8312 22 39.8312 22Z" fill="white"/>
<path d="M94.0913 29.026L89.7592 26.7222L86.2054 30.3725L92.5894 64.789C92.5894 64.789 91.9007 66.6972 92.1086 67.9145C92.3165 69.1318 92.5915 69.9896 93.5993 70.7034C94.3119 71.2081 95.7391 71.3525 95.7391 71.3525L97.0014 78.7455C97.0014 78.7455 97.9555 79.0898 98.5642 78.9859C99.1729 78.8819 99.9586 78.2405 99.9586 78.2405L98.6963 70.8475C98.6963 70.8475 99.9947 70.2378 100.499 69.5252C101.213 68.5174 101.188 67.617 100.98 66.3996C100.772 65.1823 99.4895 63.6108 99.4895 63.6108L94.0913 29.026Z" fill="white"/>
<circle r="2.5" transform="matrix(-0.985733 0.168317 0.168317 0.985733 96.5444 67.1571)" fill="#284DD1"/>
<path d="M95.8894 71.508L90.0308 66.9255C90.0308 66.9255 89.1606 68.5186 88.4482 69.374C87.7359 70.2294 86.3826 71.3061 86.3826 71.3061L92.2411 75.8886L97.7498 76.6873C97.7498 76.6873 100.562 75.797 100.838 74.2972C101.076 73.0091 99.4474 71.245 99.4474 71.245L95.8894 71.508Z" fill="#FFDCC9"/>
<path d="M91.2031 67.1743L82.5974 60.3292C82.5974 60.3292 79.222 62.8389 78.9246 64.8581C78.6271 66.8773 81.908 70.2493 81.908 70.2493L84.1914 72.8388C84.1914 72.8388 85.7308 73.1996 88.1555 71.1696C90.5801 69.1395 91.2031 67.1743 91.2031 67.1743Z" fill="#40BDCE"/>
<path d="M29.5849 68.8752L35.3312 59.5C35.3312 59.5 39.3612 60.7042 40.3312 62.5C41.3012 64.2958 39.3711 68.5864 39.3711 68.5864L38.1108 71.8007C38.1108 71.8007 36.7876 72.6661 33.815 71.5875C30.8423 70.5089 29.5849 68.8752 29.5849 68.8752Z" fill="#40BDCE"/>
<path d="M27.0763 76.2941L30.2973 69.5899C30.2973 69.5899 31.7835 70.6324 32.8012 71.0835C33.8188 71.5346 35.5091 71.9001 35.5091 71.9001L32.2881 78.6043L29.8242 83.3626C29.8242 83.3626 27.6599 84.1062 26.4752 83.5473C25.401 83.0406 24.5536 81.1899 24.5536 81.1899L27.0763 76.2941Z" fill="#FFDCC9"/>
<ellipse rx="29" ry="20" transform="matrix(-1 0 0 1 59.8312 63)" fill="#65E959"/>
<path d="M59.8312 83C43.8149 83 30.8312 75.0457 30.8312 64H88.8312C88.8312 75.0457 75.8475 83 59.8312 83Z" fill="#278C1E"/>
</svg>
