<svg width="120" height="120" viewBox="0 0 120 120" fill="none" xmlns="http://www.w3.org/2000/svg">
<path d="M60.1688 61C51.5773 61 38.1688 58 38.1688 58V74.5C38.1688 74.5 51.4978 77.5 60.1688 77.5C68.8398 77.5 82.1688 74.5 82.1688 74.5V58C82.1688 58 68.7603 61 60.1688 61Z" fill="#40BDCE"/>
<path d="M60.1688 77.0294C68.7603 77.0294 82.1688 73.5 82.1688 73.5L81.1688 79.9706C81.1688 79.9706 68.8398 83.5 60.1688 83.5C51.4977 83.5 39.1688 79.9706 39.1688 79.9706L38.1688 73.5C38.1688 73.5 51.5773 77.0294 60.1688 77.0294Z" fill="#284DD1"/>
<path d="M80.1688 87.1272L81.1688 80.0022L70.1688 81.5855V87.1272C70.1688 87.1272 73.204 87.9189 75.1688 87.9189C77.1336 87.9189 80.1688 87.1272 80.1688 87.1272Z" fill="#284DD1"/>
<path d="M78.1688 93.4606L79.1688 87.523C79.1688 87.523 76.779 87.9189 75.1688 87.9189C73.5587 87.9189 71.1688 87.523 71.1688 87.523L71.6688 93.4606C71.6688 93.4606 72.704 94.2522 74.6688 94.2522C76.6336 94.2522 78.1688 93.4606 78.1688 93.4606Z" fill="#FFDCC9"/>
<path d="M75.1688 95.8356C77.1336 95.8356 78.6688 95.0439 78.6688 95.0439C78.6688 95.0439 79.1688 94.5979 79.1688 94.2522C79.1688 93.9066 78.6688 93.4606 78.6688 93.4606C78.6688 93.4606 76.779 94.2522 75.1688 94.2522C73.5587 94.2522 71.1688 93.4606 71.1688 93.4606C71.1688 93.4606 70.6688 93.9066 70.6688 94.2522C70.6688 94.5979 71.1688 95.0439 71.1688 95.0439C71.1688 95.0439 73.204 95.8356 75.1688 95.8356Z" fill="white"/>
<path d="M74.6688 99.0022C76.6336 99.0022 78.6688 98.2106 78.6688 98.2106C78.6688 98.2106 79.1688 97.7646 79.1688 97.4189C79.1688 97.0732 78.6688 95.0439 78.6688 95.0439C78.6688 95.0439 76.279 95.8356 74.6688 95.8356C73.0587 95.8356 71.1688 95.0439 71.1688 95.0439C71.1688 95.0439 70.6688 97.0732 70.6688 97.4189C70.6688 97.7646 71.1688 98.2106 71.1688 98.2106C71.1688 98.2106 72.704 99.0022 74.6688 99.0022Z" fill="black"/>
<path d="M42.6279 86.4055L39.2513 80.0522L50.1295 77.7779L52.0248 82.9853C52.0248 82.9853 49.4434 84.7674 47.5971 85.4394C45.7509 86.1114 42.6279 86.4055 42.6279 86.4055Z" fill="#284DD1"/>
<path d="M46.6734 91.6729L43.703 86.4355C43.703 86.4355 46.0841 85.9901 47.5972 85.4394C49.1102 84.8887 51.2205 83.6993 51.2205 83.6993L52.7814 89.4498C52.7814 89.4498 52.0794 90.5478 50.2331 91.2198C48.3868 91.8918 46.6734 91.6729 46.6734 91.6729Z" fill="#FFDCC9"/>
<path d="M50.3048 92.8786C48.4585 93.5506 46.7451 93.3318 46.7451 93.3318C46.7451 93.3318 46.1227 93.0837 46.0045 92.7588C45.8863 92.434 46.2036 91.8439 46.2036 91.8439C46.2036 91.8439 48.2502 91.9415 49.7633 91.3908C51.2764 90.8401 53.2513 89.2788 53.2513 89.2788C53.2513 89.2788 53.8737 89.5269 53.9919 89.8517C54.1101 90.1765 53.7928 90.7666 53.7928 90.7666C53.7928 90.7666 52.1511 92.2066 50.3048 92.8786Z" fill="white"/>
<path d="M51.8577 95.6833C50.0114 96.3553 47.8282 96.3075 47.8282 96.3075C47.8282 96.3075 47.2058 96.0594 47.0876 95.7346C46.9694 95.4097 46.7451 93.3318 46.7451 93.3318C46.7451 93.3318 49.2616 93.2583 50.7747 92.7076C52.2877 92.1569 53.7928 90.7666 53.7928 90.7666C53.7928 90.7666 54.9568 92.5026 55.075 92.8274C55.1932 93.1522 54.8759 93.7423 54.8759 93.7423C54.8759 93.7423 53.704 95.0113 51.8577 95.6833Z" fill="black"/>
<path d="M40.1688 30C40.1688 30 51.6884 24 60.1688 24C68.6492 24 80.1688 30 80.1688 30L82.1688 58C82.1688 58 67.8873 61 60.1688 61C52.4503 61 38.1688 58 38.1688 58L40.1688 30Z" fill="white"/>
<path d="M40.1688 22V30L48.1688 26.5V22C48.1688 22 45.9153 20 44.1688 20C42.4223 20 40.1688 22 40.1688 22Z" fill="white"/>
<path d="M80.1688 22V30L72.1688 26.5V22C72.1688 22 74.4223 20 76.1688 20C77.9153 20 80.1688 22 80.1688 22Z" fill="white"/>
<path d="M25.9087 29.026L30.2408 26.7222L33.7946 30.3725L27.4106 64.789C27.4106 64.789 28.0993 66.6972 27.8914 67.9145C27.6835 69.1318 27.4085 69.9896 26.4007 70.7034C25.6881 71.2081 24.2609 71.3525 24.2609 71.3525L22.9986 78.7455C22.9986 78.7455 22.0445 79.0898 21.4358 78.9859C20.8271 78.8819 20.0414 78.2405 20.0414 78.2405L21.3037 70.8475C21.3037 70.8475 20.0053 70.2378 19.5006 69.5252C18.7868 68.5174 18.8119 67.617 19.0198 66.3996C19.2277 65.1823 20.5105 63.6108 20.5105 63.6108L25.9087 29.026Z" fill="white"/>
<circle cx="23.4556" cy="67.1571" r="2.5" transform="rotate(9.69 23.4556 67.1571)" fill="#284DD1"/>
<path d="M24.1106 71.508L29.9692 66.9255C29.9692 66.9255 30.8394 68.5186 31.5518 69.374C32.2642 70.2294 33.6174 71.3061 33.6174 71.3061L27.7589 75.8886L22.2502 76.6873C22.2502 76.6873 19.4383 75.797 19.1619 74.2972C18.9245 73.0091 20.5526 71.245 20.5526 71.245L24.1106 71.508Z" fill="#FFDCC9"/>
<path d="M28.7969 67.1743L37.4027 60.3292C37.4027 60.3292 40.778 62.8389 41.0754 64.8581C41.3729 66.8773 38.092 70.2493 38.092 70.2493L35.8086 72.8388C35.8086 72.8388 34.2692 73.1996 31.8446 71.1696C29.4199 69.1395 28.7969 67.1743 28.7969 67.1743Z" fill="#40BDCE"/>
<path d="M90.4151 68.8752L84.6688 59.5C84.6688 59.5 80.6388 60.7042 79.6688 62.5C78.6988 64.2958 80.6289 68.5864 80.6289 68.5864L81.8892 71.8007C81.8892 71.8007 83.2124 72.6661 86.185 71.5875C89.1577 70.5089 90.4151 68.8752 90.4151 68.8752Z" fill="#40BDCE"/>
<path d="M92.9237 76.2941L89.7027 69.5899C89.7027 69.5899 88.2165 70.6324 87.1988 71.0835C86.1812 71.5346 84.4909 71.9001 84.4909 71.9001L87.7119 78.6043L90.1758 83.3626C90.1758 83.3626 92.3401 84.1062 93.5248 83.5473C94.599 83.0406 95.4464 81.1899 95.4464 81.1899L92.9237 76.2941Z" fill="#FFDCC9"/>
<ellipse cx="60.1688" cy="63" rx="29" ry="20" fill="#65E959"/>
<path d="M60.1688 83C76.1851 83 89.1688 75.0457 89.1688 64H31.1688C31.1688 75.0457 44.1525 83 60.1688 83Z" fill="#278C1E"/>
</svg>
