<svg width="110" height="106" viewBox="0 0 110 106" fill="none" xmlns="http://www.w3.org/2000/svg">
<path d="M46.6472 85.5183L48.5121 79.9661L55.1385 79.9388L53.311 86.7843C53.311 86.7843 52.8321 89.4903 50.4999 89.4999C47.147 89.5137 46.6472 85.5183 46.6472 85.5183Z" fill="#FFDCC9" stroke="black"/>
<path d="M44.1032 93.4638C44.1144 90.6389 45.8799 86.971 46.6991 86.9677C47.8119 86.9632 46.3193 87.7789 50.1031 88.4638C53.8869 89.1487 53.5405 87.4092 53.5405 87.4092C53.5405 87.4092 54.1031 87.4638 55.6031 88.4638C57.1141 89.4711 59.1031 91.4637 58.1031 93.9638C57.0674 96.5528 55.4491 96.4459 51.1031 96.4638C46.7572 96.4817 44.0921 96.24 44.1032 93.4638Z" fill="#444444" stroke="black"/>
<path d="M46.6177 80.2667L47.1193 73.2473L57.5323 73.2046L56.5556 80.6969L46.6177 80.2667Z" fill="#284DD1" stroke="black"/>
<path d="M47.4365 78.2206L48.0116 72.057L56.9356 71.8166L55.9434 78.404L47.4365 78.2206Z" fill="#284DD1"/>
<path d="M33.3752 90.7839L32.5596 79.9663L25.9332 79.9391L26.7114 92.05C26.7114 92.05 27.1903 94.756 29.5225 94.7656C32.8754 94.7793 33.3752 90.7839 33.3752 90.7839Z" fill="#FFDCC9" stroke="black"/>
<path d="M35.9999 98C35.9886 95.1752 34.2231 91.5072 33.404 91.5039C32.2911 91.4995 33.7837 92.3151 29.9999 93.0001C26.2162 93.685 26.5626 91.9454 26.5626 91.9454C26.5626 91.9454 25.9999 92.0001 24.4999 93.0001C22.9889 94.0074 20.9999 96 21.9999 98.5001C23.0356 101.089 24.654 100.982 28.9999 101C33.3458 101.018 36.011 100.776 35.9999 98Z" fill="#444444" stroke="black"/>
<path d="M34.454 80.2668L33.9525 73.2474L23.5395 73.2047L24.5162 80.697L34.454 80.2668Z" fill="#284DD1" stroke="black"/>
<path d="M33.5817 76.8944L33.0964 70.911L24.3142 70.7877L25.2044 77.1779L33.5817 76.8944Z" fill="#284DD1"/>
<path d="M39.7358 44.9967C30.942 44.8794 17.522 41.5028 17.522 41.5028C17.522 41.5028 16.3473 32.5711 17.522 27.0281C18.3757 23 19.3716 19.1441 21.76 14.55C22.2812 13.5474 23.1803 12.024 23.1803 12.024C22.8566 10.5792 22.586 8.80656 22.811 7.53189C23.3757 4.33183 24.1442 1.33029 27.5711 1.07361C30.3716 0.863834 31.7629 2.37974 33.3958 4.53711C34.1452 5.52717 34.722 7.48633 35.0815 8.99959C35.5966 8.82685 38.0916 8.06137 41.8514 8.06137C46.0894 8.06137 47.3548 8.903 47.3548 8.903C47.5641 7.45967 47.9682 5.62985 48.7339 4.53714C50.377 2.19229 52.1313 0.636388 55.0739 1.07361C58.5425 1.58897 59.4688 4.73602 59.8408 8.03102C60.0191 9.6103 59.2438 11.9984 58.7122 13.4034L59.3051 14.55C59.3051 14.55 63.9613 21.8075 64.5941 27.0281C65.4999 34.5 63.4999 41.5028 63.4999 41.5028C63.4999 41.5028 49.3454 45.1249 39.7358 44.9967Z" fill="#FFFEFE"/>
<path d="M58.2473 14.55C58.2473 14.55 58.4501 14.0962 58.7122 13.4034M23.8688 14.55C23.8688 14.55 23.4988 13.4457 23.1803 12.024M58.7122 13.4034C59.2438 11.9984 60.0191 9.6103 59.8408 8.03102C59.4688 4.73602 58.5425 1.58897 55.0739 1.07361C52.1313 0.636388 50.377 2.19229 48.7339 4.53714C47.3247 6.54822 47.1404 11.0561 47.1404 11.0561L47.3548 8.903C47.3548 8.903 46.0894 8.06137 41.8514 8.06137C37.6134 8.06137 34.9825 9.03394 34.9825 9.03394L35.5046 11.0561C35.5046 11.0561 34.7191 6.2855 33.3958 4.53711C31.7629 2.37974 30.3716 0.863834 27.5711 1.07361C24.1442 1.33029 23.3757 4.33183 22.811 7.53189C22.586 8.80656 22.8566 10.5792 23.1803 12.024M58.7122 13.4034L59.3051 14.55C59.3051 14.55 63.9613 21.8075 64.5941 27.0281C65.4999 34.5 63.4999 41.5028 63.4999 41.5028C63.4999 41.5028 49.3454 45.1249 39.7358 44.9967C30.942 44.8794 17.522 41.5028 17.522 41.5028C17.522 41.5028 16.3473 32.5711 17.522 27.0281C18.3757 23 19.3716 19.1441 21.76 14.55C22.2812 13.5474 23.1803 12.024 23.1803 12.024" stroke="black"/>
<path d="M63.4999 65.5507L63.4999 42.0016C63.4999 42.0016 49.6745 45.0016 40.7583 45.0016C31.8422 45.0016 17.4999 42 17.4999 42V65.5507C17.4999 65.5507 31.0167 68.4999 40.7583 68.5C50.4999 68.5001 63.4999 65.5507 63.4999 65.5507Z" fill="#40BDCE" stroke="black"/>
<path d="M95.5763 29.1495L79.122 57.0546L83.4472 59.5139L103.656 34.5904L105.767 21.9588L95.5763 29.1495Z" fill="#FF2B2B" stroke="black"/>
<path d="M75.9509 58.9804L73.2504 54.9206L78.0949 56.2149L85.7857 61.2938L86.3032 65.8423L84.1162 64.6901L81.459 61.157L77.7497 67.3374C77.7497 67.3374 78.0258 69.8158 76.3982 70.4944C74.7706 71.1731 72.6673 70.458 72.1718 68.7353C71.7143 67.1443 73.9977 66.209 73.9977 66.209L77.8025 59.4719C76.8099 59.1833 75.9509 58.9804 75.9509 58.9804Z" fill="#A80202"/>
<path d="M81.459 61.157L84.1162 64.6901L86.3032 65.8423L85.7857 61.2938L78.0949 56.2149L73.2504 54.9206L75.9509 58.9804C75.9509 58.9804 76.8099 59.1833 77.8025 59.4719M81.459 61.157L77.7497 67.3374C77.7497 67.3374 78.0258 69.8158 76.3982 70.4944C74.7706 71.1731 72.6673 70.458 72.1718 68.7353C71.7143 67.1443 73.9977 66.209 73.9977 66.209L77.8025 59.4719M81.459 61.157C81.459 61.157 79.4271 59.9442 77.8025 59.4719" stroke="black"/>
<path d="M87.0377 50.0902L100.077 31.3961" stroke="black" stroke-linecap="round"/>
<path d="M77.7028 60.8924C74.9888 59.6258 70.9966 56.4365 70.9966 56.4365L67.9408 60.1141L74.7272 64.9075C74.7272 64.9075 75.2901 66.4236 76.0546 67.0144C77.525 68.1508 79.495 68.0036 80.7429 66.6378C81.4826 65.8282 81.7929 65.8341 81.8561 64.7254C81.9261 63.4955 81.0853 61.6624 81.0853 61.6624C81.0853 61.6624 78.9352 61.4676 77.7028 60.8924Z" fill="#FFDCC9" stroke="black"/>
<path d="M66.266 61.8363L71.9473 55.0625L67.2216 51.9924L63.3411 49.2872L64.2293 60.8669L66.266 61.8363Z" fill="#40BDCE" stroke="black"/>
<path d="M65.262 62.6872L70.3571 54.947L66.5339 52.1689L62.2569 49.0134L62.6647 60.1863L65.262 62.6872Z" fill="#40BDCE"/>
<path d="M59.1538 55.5803C58.8224 52.0758 62.8792 49.071 62.8792 49.071C62.8792 49.071 62.2943 52.1802 62.6271 55.1485C62.9812 58.3074 65.4754 61.8483 65.4754 61.8483C65.4754 61.8483 59.5007 59.2482 59.1538 55.5803Z" fill="#65E959" stroke="black"/>
<path d="M4.46238 64.624C6.84122 62.8043 10.0558 58.8324 10.0558 58.8324L13.8298 61.7684L8.23045 67.9067C8.23045 67.9067 8.00609 69.5083 7.38629 70.2494C6.19407 71.6749 4.23836 71.954 2.7264 70.8879C1.83018 70.256 1.52833 70.3284 1.2287 69.2591C0.89629 68.0729 1.32402 66.102 1.32402 66.102C1.32402 66.102 3.38221 65.4502 4.46238 64.624Z" fill="#FFDCC9" stroke="black"/>
<path d="M15.8352 63.091L8.83233 57.6945L12.7888 53.6816L17.4999 48.5001L17.6163 61.707L15.8352 63.091Z" fill="#40BDCE" stroke="black"/>
<path d="M18.5001 62.5003L11.165 56.6717L14.4999 53L20.4999 45.5L21.0422 60.6043L18.5001 62.5003Z" fill="#40BDCE"/>
<path d="M22.9999 55C22.8964 51.4814 18.4999 49 18.4999 49C18.4999 49 19.4639 52.0133 19.4999 55C19.5382 58.1784 17.4999 62 17.4999 62C17.4999 62 23.1082 58.6826 22.9999 55Z" fill="#65E959" stroke="black"/>
<path d="M40.9999 69C31.8374 69.1122 17.9999 66.5 17.9999 66.5C17.9999 66.5 19.781 73.1064 24.4999 75.5C29.4398 78.0057 35.2937 78.5 40.9999 78.5C47.9999 78.5 53.0642 76.8698 58.3145 72.7881C61.122 70.6055 62.9999 66 62.9999 66C62.9999 66 49.9918 68.8899 40.9999 69Z" fill="#284DD1" stroke="black"/>
<path d="M38.1832 32.1968C38.1832 32.1968 20.1831 32.1969 13.0295 46.6215C10.1666 52.3942 14.1833 60.6969 14.1833 60.6969H63.6833C63.6833 60.6969 70.3131 52.4328 67.5295 46.6215C59.1831 29.1968 38.1832 32.1968 38.1832 32.1968Z" fill="#65E959" stroke="black"/>
<path d="M16.183 67.1968C11.9176 62.6267 12.1831 51.6967 12.1831 51.6967C30.8497 51.5301 67.6831 51.6968 67.6831 51.6968C67.6831 51.6968 70.1829 62.1968 65.683 67.1968C61.1831 72.1968 41.183 74.6968 41.183 74.6968C41.183 74.6968 23.183 74.6968 16.183 67.1968Z" fill="#278C1E" stroke="black"/>
</svg>
