<svg width="94" height="86" viewBox="0 0 94 86" fill="none" xmlns="http://www.w3.org/2000/svg">
<path d="M47 42C38.4085 42 25 39 25 39V55.5C25 55.5 38.3289 58.5 47 58.5C55.671 58.5 69 55.5 69 55.5V39C69 39 55.5915 42 47 42Z" fill="#40BDCE"/>
<path d="M27 11C27 11 38.5196 5 47 5C55.4804 5 67 11 67 11L69 39C69 39 54.7185 42 47 42C39.2815 42 25 39 25 39L27 11Z" fill="white"/>
<path d="M47 58.0294C38.4085 58.0294 25 54.5 25 54.5L26 60.9706C26 60.9706 38.329 64.5 47 64.5C55.671 64.5 68 60.9706 68 60.9706L69 54.5C69 54.5 55.5915 58.0294 47 58.0294Z" fill="#284DD1"/>
<path d="M27 3V11L35 7.5V3C35 3 32.7465 1 31 1C29.2535 1 27 3 27 3Z" fill="white"/>
<path d="M67 3V11L59 7.5V3C59 3 61.2535 1 63 1C64.7465 1 67 3 67 3Z" fill="white"/>
<path d="M27 68.125L26 61L37 62.5833V68.125C37 68.125 33.9648 68.9167 32 68.9167C30.0352 68.9167 27 68.125 27 68.125Z" fill="#284DD1"/>
<path d="M29 74.4584L28 68.5208C28 68.5208 30.3898 68.9167 32 68.9167C33.6101 68.9167 36 68.5208 36 68.5208L35.5 74.4584C35.5 74.4584 34.4648 75.25 32.5 75.25C30.5352 75.25 29 74.4584 29 74.4584Z" fill="#FFDCC9"/>
<path d="M32 76.8333C30.0352 76.8333 28.5 76.0417 28.5 76.0417C28.5 76.0417 28 75.5957 28 75.25C28 74.9043 28.5 74.4583 28.5 74.4583C28.5 74.4583 30.3898 75.25 32 75.25C33.6101 75.25 36 74.4583 36 74.4583C36 74.4583 36.5 74.9043 36.5 75.25C36.5 75.5957 36 76.0417 36 76.0417C36 76.0417 33.9648 76.8333 32 76.8333Z" fill="white"/>
<path d="M32.5 80C30.5352 80 28.5 79.2084 28.5 79.2084C28.5 79.2084 28 78.7624 28 78.4167C28 78.071 28.5 76.0417 28.5 76.0417C28.5 76.0417 30.8898 76.8334 32.5 76.8334C34.1101 76.8334 36 76.0417 36 76.0417C36 76.0417 36.5 78.071 36.5 78.4167C36.5 78.7624 36 79.2084 36 79.2084C36 79.2084 34.4648 80 32.5 80Z" fill="black"/>
<path d="M64.5409 67.4033L67.9175 61.05L57.0393 58.7756L55.1439 63.9831C55.1439 63.9831 57.7253 65.7651 59.5716 66.4371C61.4179 67.1091 64.5409 67.4033 64.5409 67.4033Z" fill="#284DD1"/>
<path d="M60.4953 72.6707L63.4658 67.4333C63.4658 67.4333 61.0847 66.9878 59.5716 66.4371C58.0586 65.8864 55.9482 64.6971 55.9482 64.6971L54.3873 70.4475C54.3873 70.4475 55.0894 71.5455 56.9357 72.2175C58.782 72.8895 60.4953 72.6707 60.4953 72.6707Z" fill="#FFDCC9"/>
<path d="M56.864 73.8764C58.7103 74.5484 60.4237 74.3295 60.4237 74.3295C60.4237 74.3295 61.0461 74.0814 61.1643 73.7566C61.2825 73.4318 60.9652 72.8417 60.9652 72.8417C60.9652 72.8417 58.9186 72.9392 57.4055 72.3885C55.8924 71.8378 53.9175 70.2765 53.9175 70.2765C53.9175 70.2765 53.2951 70.5246 53.1769 70.8494C53.0587 71.1742 53.376 71.7644 53.376 71.7644C53.376 71.7644 55.0177 73.2044 56.864 73.8764Z" fill="white"/>
<path d="M55.3111 76.6811C57.1574 77.3531 59.3406 77.3052 59.3406 77.3052C59.3406 77.3052 59.963 77.0571 60.0812 76.7323C60.1994 76.4075 60.4237 74.3295 60.4237 74.3295C60.4237 74.3295 57.9072 74.2561 56.3941 73.7054C54.8811 73.1546 53.376 71.7644 53.376 71.7644C53.376 71.7644 52.212 73.5003 52.0938 73.8251C51.9756 74.1499 52.2929 74.7401 52.2929 74.7401C52.2929 74.7401 53.4648 76.0091 55.3111 76.6811Z" fill="black"/>
<path d="M1.58652 14.4591L4.86946 10.8128L9.45738 13.0275L15.2289 47.552C15.2289 47.552 16.5286 49.1096 16.7496 50.3246C16.9706 51.5396 17.0055 52.4397 16.3026 53.4551C15.8056 54.1731 14.5139 54.7969 14.5139 54.7969L15.856 62.1758C15.856 62.1758 15.0772 62.8257 14.4697 62.9362C13.8622 63.0467 12.9045 62.7127 12.9045 62.7127L11.5623 55.3338C11.5623 55.3338 10.1336 55.2048 9.41562 54.7078C8.4002 54.0049 8.11589 53.1502 7.89489 51.9352C7.67389 50.7202 8.34188 48.8047 8.34188 48.8047L1.58652 14.4591Z" fill="white"/>
<circle cx="12.3223" cy="51.1299" r="2.5" transform="rotate(-10.3089 12.3223 51.1299)" fill="#284DD1"/>
<path d="M14.3255 55.6155L18.264 49.3059C18.264 49.3059 19.6265 50.5055 20.5885 51.0657C21.5504 51.6259 23.1903 52.175 23.1903 52.175L19.2518 58.4846L14.3483 61.1187C14.3483 61.1187 11.4015 61.2436 10.6289 59.9288C9.96529 58.7995 10.8921 56.585 10.8921 56.585L14.3255 55.6155Z" fill="#FFDCC9"/>
<path d="M17.2475 49.9406L22.9938 40.5654C22.9938 40.5654 27.0238 41.7696 27.9938 43.5654C28.9638 45.3612 27.0337 49.6518 27.0337 49.6518L25.7734 52.8661C25.7734 52.8661 24.4502 53.7315 21.4776 52.6529C18.5049 51.5743 17.2475 49.9406 17.2475 49.9406Z" fill="#40BDCE"/>
<path d="M78.3655 47.8478L69.7598 41.0026C69.7598 41.0026 66.3845 43.5123 66.087 45.5315C65.7896 47.5507 69.0704 50.9227 69.0704 50.9227L71.3538 53.5123C71.3538 53.5123 72.8932 53.8731 75.3178 51.843C77.7425 49.813 78.3655 47.8478 78.3655 47.8478Z" fill="#40BDCE"/>
<path d="M83.2597 53.9617L77.9404 48.763C77.9404 48.763 76.9003 50.2509 76.0982 51.0228C75.2961 51.7947 73.8327 52.7161 73.8327 52.7161L79.152 57.9148L83.0944 61.5438C83.0944 61.5438 85.3825 61.5025 86.3047 60.5722C87.1409 59.7287 87.3044 57.6999 87.3044 57.6999L83.2597 53.9617Z" fill="#FFDCC9"/>
<ellipse cx="47" cy="44" rx="29" ry="20" fill="#65E959"/>
<path d="M47 64C63.0163 64 76 56.0457 76 45H18C18 56.0457 30.9837 64 47 64Z" fill="#278C1E"/>
</svg>
