<svg width="110" height="107" viewBox="0 0 110 107" fill="none" xmlns="http://www.w3.org/2000/svg">
<path d="M43.6027 41.4247C43.6027 41.4247 24.7563 32.0001 17.6027 46.4247C14.7398 52.1974 18.7565 60.5001 18.7565 60.5001H68.2565C68.2565 60.5001 74.8863 52.236 72.1027 46.4247C63.7563 29 43.6027 41.4247 43.6027 41.4247Z" fill="#65E959" stroke="black"/>
<path d="M20.7563 67C16.4908 62.4299 16.7563 51.5 16.7563 51.5C35.423 51.3333 72.2563 51.5 72.2563 51.5C72.2563 51.5 74.7562 62 70.2563 67C65.7563 72 45.7563 74.5 45.7563 74.5C45.7563 74.5 27.7563 74.5 20.7563 67Z" fill="#278C1E" stroke="black"/>
<path d="M52.9528 90.7838L53.7684 79.9662L60.3948 79.939L59.6166 92.0499C59.6166 92.0499 59.1377 94.7559 56.8055 94.7654C53.4526 94.7792 52.9528 90.7838 52.9528 90.7838Z" fill="#FFDCC9" stroke="black"/>
<path d="M50.3596 97.4638C50.3709 94.6389 52.1364 90.971 52.9555 90.9677C54.0684 90.9632 52.5758 91.7789 56.3596 92.4638C60.1433 93.1487 59.7969 91.4092 59.7969 91.4092C59.7969 91.4092 60.3596 91.4638 61.8596 92.4638C63.3706 93.4711 65.3596 95.4637 64.3596 97.9638C63.3239 100.553 61.7055 100.446 57.3596 100.464C53.0137 100.482 50.3485 100.24 50.3596 97.4638Z" fill="#444444" stroke="black"/>
<path d="M51.874 80.2667L52.3755 73.2473L62.7885 73.2046L61.8118 80.6969L51.874 80.2667Z" fill="#284DD1" stroke="black"/>
<path d="M52.6928 78.2206L53.268 72.057L62.192 71.8166L61.1998 78.404L52.6928 78.2206Z" fill="#284DD1"/>
<path d="M39.7565 85.5L37.8161 79.9663L31.1897 79.9391L33.0927 86.766C33.0927 86.766 33.5716 89.472 35.9038 89.4816C39.2567 89.4954 39.7565 85.5 39.7565 85.5Z" fill="#FFDCC9" stroke="black"/>
<path d="M42.2019 93.4639C42.1906 90.6391 40.4252 86.9711 39.606 86.9678C38.4931 86.9633 39.9857 87.779 36.202 88.4639C32.4182 89.1489 32.7646 87.4093 32.7646 87.4093C32.7646 87.4093 32.202 87.4639 30.702 88.4639C29.191 89.4713 27.2019 91.4639 28.202 93.9639C29.2376 96.553 30.856 96.446 35.202 96.4639C39.5479 96.4819 42.213 96.2401 42.2019 93.4639Z" fill="#444444" stroke="black"/>
<path d="M39.7105 80.267L39.209 73.2475L28.7959 73.2048L29.7727 80.6971L39.7105 80.267Z" fill="#284DD1" stroke="black"/>
<path d="M38.8382 76.8946L38.3529 70.9111L29.5707 70.7878L30.4609 77.178L38.8382 76.8946Z" fill="#284DD1"/>
<path d="M44.9923 44.9967C36.1984 44.8794 22.7784 41.5028 22.7784 41.5028C22.7784 41.5028 21.6037 32.5711 22.7784 27.0281C23.6321 23 24.6281 19.1441 27.0165 14.55C27.5377 13.5474 28.4368 12.024 28.4368 12.024C28.1131 10.5792 27.8425 8.80656 28.0674 7.53189C28.6321 4.33183 29.4007 1.33029 32.8276 1.07361C35.6281 0.863834 37.0194 2.37974 38.6523 4.53711C39.4016 5.52717 39.9785 7.48633 40.338 8.99959C40.8531 8.82685 43.348 8.06137 47.1079 8.06137C51.3459 8.06137 52.6113 8.903 52.6113 8.903C52.8206 7.45967 53.2247 5.62985 53.9904 4.53714C55.6335 2.19229 57.3877 0.636388 60.3304 1.07361C63.799 1.58897 64.7253 4.73602 65.0973 8.03102C65.2756 9.6103 64.5002 11.9984 63.9687 13.4034L64.5616 14.55C64.5616 14.55 69.2177 21.8075 69.8506 27.0281C70.7563 34.5 68.7563 41.5028 68.7563 41.5028C68.7563 41.5028 54.6019 45.1249 44.9923 44.9967Z" fill="#FFFEFE"/>
<path d="M63.5038 14.55C63.5038 14.55 63.7066 14.0962 63.9687 13.4034M29.1252 14.55C29.1252 14.55 28.7553 13.4457 28.4368 12.024M63.9687 13.4034C64.5002 11.9984 65.2756 9.6103 65.0973 8.03102C64.7253 4.73602 63.799 1.58897 60.3304 1.07361C57.3877 0.636388 55.6335 2.19229 53.9904 4.53714C52.5811 6.54822 52.3969 11.0561 52.3969 11.0561L52.6113 8.903C52.6113 8.903 51.3459 8.06137 47.1079 8.06137C42.8699 8.06137 40.239 9.03394 40.239 9.03394L40.7611 11.0561C40.7611 11.0561 39.9756 6.2855 38.6523 4.53711C37.0194 2.37974 35.6281 0.863834 32.8276 1.07361C29.4007 1.33029 28.6321 4.33183 28.0674 7.53189C27.8425 8.80656 28.1131 10.5792 28.4368 12.024M63.9687 13.4034L64.5616 14.55C64.5616 14.55 69.2177 21.8075 69.8506 27.0281C70.7563 34.5 68.7563 41.5028 68.7563 41.5028C68.7563 41.5028 54.6019 45.1249 44.9923 44.9967C36.1984 44.8794 22.7784 41.5028 22.7784 41.5028C22.7784 41.5028 21.6037 32.5711 22.7784 27.0281C23.6321 23 24.6281 19.1441 27.0165 14.55C27.5377 13.5474 28.4368 12.024 28.4368 12.024" stroke="black"/>
<path d="M68.7563 65.5507L68.7563 42.0016C68.7563 42.0016 54.9309 45.0016 46.0148 45.0016C37.0986 45.0016 22.7563 42 22.7563 42V65.5507C22.7563 65.5507 36.2732 68.4999 46.0148 68.5C55.7563 68.5001 68.7563 65.5507 68.7563 65.5507Z" fill="#40BDCE" stroke="black"/>
<path d="M97.4594 31.9877L80.567 59.6298L84.8528 62.1569L105.452 37.5554L107.762 24.9586L97.4594 31.9877Z" fill="#FF2B2B" stroke="black"/>
<path d="M77.3659 61.5053L74.7297 57.4033L79.5532 58.7739L87.163 63.9735L87.6086 68.5296L85.44 67.3431L82.8389 63.7685L79.0326 69.8896C79.0326 69.8896 79.2695 72.372 77.6315 73.0249C75.9934 73.6778 73.9016 72.9296 73.4333 71.1993C73.0009 69.6013 75.2989 68.7022 75.2989 68.7022L79.2095 62.0259C78.2215 61.7217 77.3659 61.5053 77.3659 61.5053Z" fill="#A80202"/>
<path d="M82.8389 63.7685L85.44 67.3431L87.6086 68.5296L87.163 63.9735L79.5532 58.7739L74.7297 57.4033L77.3659 61.5053C77.3659 61.5053 78.2215 61.7217 79.2095 62.0259M82.8389 63.7685L79.0326 69.8896C79.0326 69.8896 79.2695 72.372 77.6315 73.0249C75.9934 73.6778 73.9016 72.9296 73.4333 71.1993C73.0009 69.6013 75.2989 68.7022 75.2989 68.7022L79.2095 62.0259M82.8389 63.7685C82.8389 63.7685 80.8264 62.5237 79.2095 62.0259" stroke="black"/>
<path d="M88.5916 52.7911L101.924 34.3051" stroke="black" stroke-linecap="round"/>
<path d="M80.2923 62.9175C77.9134 61.0979 74.6988 57.126 74.6988 57.126L70.9248 60.062L76.5242 66.2003C76.5242 66.2003 76.7485 67.8019 77.3684 68.543C78.5606 69.9685 80.5163 70.2476 82.0282 69.1815C82.9245 68.5495 83.2263 68.6219 83.5259 67.5527C83.8583 66.3665 83.4306 64.3956 83.4306 64.3956C83.4306 64.3956 81.3724 63.7438 80.2923 62.9175Z" fill="#FFDCC9" stroke="black"/>
<path d="M68.9194 61.3845L75.9222 55.9881L71.9657 51.9752L68.7563 48.5001L67.1383 60.0005L68.9194 61.3845Z" fill="#40BDCE" stroke="black"/>
<path d="M67.7562 62.0001L74.394 55.534L71.2562 52L67.7562 48L65.7562 59L67.7562 62.0001Z" fill="#40BDCE"/>
<path d="M63.3158 53.7478C63.7444 50.2539 68.3516 48.1898 68.3516 48.1898C68.3516 48.1898 67.1129 51.101 66.8008 54.0716C66.4686 57.2328 68.1447 61.2266 68.1447 61.2266C68.1447 61.2266 62.8673 57.4046 63.3158 53.7478Z" fill="#65E959" stroke="black"/>
<path d="M5.28076 59.6573C8.08463 58.6045 12.3117 55.7337 12.3117 55.7337L15.0738 59.6368L7.93672 63.8906C7.93672 63.8906 7.25817 65.3586 6.4503 65.8884C4.89635 66.9076 2.94362 66.6084 1.80518 65.1501C1.13037 64.2857 0.820492 64.2676 0.843346 63.1574C0.868701 61.9257 1.84885 60.1632 1.84885 60.1632C1.84885 60.1632 4.00759 60.1354 5.28076 59.6573Z" fill="#FFDCC9" stroke="black"/>
<path d="M16.6102 61.4835L11.4702 54.2903L16.4193 51.5951L22.429 47.9999L18.7158 60.6746L16.6102 61.4835Z" fill="#40BDCE" stroke="black"/>
<path d="M18.7563 61L13.9991 53.9869L18.2543 51.4382L26.1691 45.9972L22.2563 60L18.7563 61Z" fill="#40BDCE"/>
<path d="M25.811 55.814C26.7309 52.4162 23.2413 48.768 23.2413 48.768C23.2413 48.768 23.2914 51.9313 22.4609 54.8005C21.5772 57.8538 18.5195 60.9214 18.5195 60.9214C18.5195 60.9214 24.8482 59.3702 25.811 55.814Z" fill="#65E959" stroke="black"/>
<path d="M46.2563 69C37.0939 69.1122 23.2563 66.5 23.2563 66.5C23.2563 66.5 25.0375 73.1064 29.7563 75.5C34.6963 78.0057 40.5502 78.5 46.2563 78.5C53.2563 78.5 58.3207 76.8698 63.571 72.7881C66.3785 70.6055 68.2563 66 68.2563 66C68.2563 66 55.2483 68.8899 46.2563 69Z" fill="#284DD1" stroke="black"/>
<path d="M43.1832 32.1968C43.1832 32.1968 25.1831 32.1969 18.0295 46.6215C15.1666 52.3942 19.1833 60.6969 19.1833 60.6969H68.6833C68.6833 60.6969 75.3131 52.4328 72.5295 46.6215C64.1831 29.1968 43.1832 32.1968 43.1832 32.1968Z" fill="#65E959" stroke="black"/>
<path d="M21.183 67.1968C16.9176 62.6267 17.1831 51.6967 17.1831 51.6967C35.8497 51.5301 72.6831 51.6968 72.6831 51.6968C72.6831 51.6968 75.1829 62.1968 70.683 67.1968C66.1831 72.1968 46.183 74.6968 46.183 74.6968C46.183 74.6968 28.183 74.6968 21.183 67.1968Z" fill="#278C1E" stroke="black"/>
</svg>
