<svg width="120" height="120" viewBox="0 0 120 120" fill="none" xmlns="http://www.w3.org/2000/svg">
<path d="M60 59C51.4085 59 38 56 38 56V72.5C38 72.5 51.329 75.5 60 75.5C68.671 75.5 82 72.5 82 72.5V56C82 56 68.5915 59 60 59Z" fill="#40BDCE"/>
<path d="M40 28C40 28 51.5196 22 60 22C68.4804 22 80 28 80 28L82 56C82 56 67.7185 59 60 59C52.2815 59 38 56 38 56L40 28Z" fill="white"/>
<path d="M60 75.5294C51.4085 75.5294 38 72 38 72L39 78.4706C39 78.4706 51.329 82 60 82C68.671 82 81 78.4706 81 78.4706L82 72C82 72 68.5915 75.5294 60 75.5294Z" fill="#284DD1"/>
<path d="M40 20V28L48 24.5V20C48 20 45.7465 18 44 18C42.2535 18 40 20 40 20Z" fill="white"/>
<path d="M80 20V28L72 24.5V20C72 20 74.2535 18 76 18C77.7465 18 80 20 80 20Z" fill="white"/>
<path d="M40 87L39 78L50 80V87C50 87 46.9648 88 45 88C43.0352 88 40 87 40 87Z" fill="#284DD1"/>
<path d="M42 95L41 87.5C41 87.5 43.3898 88 45 88C46.6101 88 49 87.5 49 87.5L48.5 95C48.5 95 47.4648 96 45.5 96C43.5352 96 42 95 42 95Z" fill="#FFDCC9"/>
<path d="M45 98C43.0352 98 41.5 97 41.5 97C41.5 97 41 96.4366 41 96C41 95.5633 41.5 95 41.5 95C41.5 95 43.3898 96 45 96C46.6101 96 49 95 49 95C49 95 49.5 95.5633 49.5 96C49.5 96.4366 49 97 49 97C49 97 46.9648 98 45 98Z" fill="white"/>
<path d="M45.5 102C43.5352 102 41.5 101 41.5 101C41.5 101 41 100.437 41 100C41 99.5633 41.5 97 41.5 97C41.5 97 43.8898 98 45.5 98C47.1101 98 49 97 49 97C49 97 49.5 99.5633 49.5 100C49.5 100.437 49 101 49 101C49 101 47.4648 102 45.5 102Z" fill="black"/>
<path d="M80 87L81 78L70 80V87C70 87 73.0352 88 75 88C76.9648 88 80 87 80 87Z" fill="#284DD1"/>
<path d="M78 95L79 87.5C79 87.5 76.6101 88 75 88C73.3898 88 71 87.5 71 87.5L71.5 95C71.5 95 72.5352 96 74.5 96C76.4648 96 78 95 78 95Z" fill="#FFDCC9"/>
<path d="M75 98C76.9648 98 78.5 97 78.5 97C78.5 97 79 96.4366 79 96C79 95.5633 78.5 95 78.5 95C78.5 95 76.6101 96 75 96C73.3898 96 71 95 71 95C71 95 70.5 95.5633 70.5 96C70.5 96.4366 71 97 71 97C71 97 73.0352 98 75 98Z" fill="white"/>
<path d="M74.5 102C76.4648 102 78.5 101 78.5 101C78.5 101 79 100.437 79 100C79 99.5633 78.5 97 78.5 97C78.5 97 76.1101 98 74.5 98C72.8898 98 71 97 71 97C71 97 70.5 99.5633 70.5 100C70.5 100.437 71 101 71 101C71 101 72.5352 102 74.5 102Z" fill="black"/>
<path d="M14.5865 31.4591L17.8695 27.8128L22.4574 30.0275L28.2289 64.552C28.2289 64.552 29.5286 66.1096 29.7496 67.3246C29.9706 68.5396 30.0055 69.4397 29.3026 70.4551C28.8056 71.1731 27.5139 71.7969 27.5139 71.7969L28.856 79.1758C28.856 79.1758 28.0772 79.8257 27.4697 79.9362C26.8622 80.0467 25.9045 79.7127 25.9045 79.7127L24.5623 72.3338C24.5623 72.3338 23.1336 72.2048 22.4156 71.7078C21.4002 71.0049 21.1159 70.1502 20.8949 68.9352C20.6739 67.7202 21.3419 65.8047 21.3419 65.8047L14.5865 31.4591Z" fill="white"/>
<circle cx="25.3223" cy="68.1299" r="2.5" transform="rotate(-10.3089 25.3223 68.1299)" fill="#284DD1"/>
<path d="M27.3255 72.6155L31.264 66.3059C31.264 66.3059 32.6265 67.5055 33.5885 68.0657C34.5504 68.6259 36.1903 69.175 36.1903 69.175L32.2518 75.4846L27.3483 78.1187C27.3483 78.1187 24.4015 78.2436 23.6289 76.9288C22.9653 75.7995 23.8921 73.585 23.8921 73.585L27.3255 72.6155Z" fill="#FFDCC9"/>
<path d="M30.2475 66.9406L35.9938 57.5654C35.9938 57.5654 40.0238 58.7696 40.9938 60.5654C41.9638 62.3612 40.0337 66.6518 40.0337 66.6518L38.7734 69.8661C38.7734 69.8661 37.4502 70.7315 34.4776 69.6529C31.5049 68.5743 30.2475 66.9406 30.2475 66.9406Z" fill="#40BDCE"/>
<path d="M90.2463 66.8752L84.5 57.5C84.5 57.5 80.47 58.7042 79.5 60.5C78.53 62.2958 80.4601 66.5864 80.4601 66.5864L81.7204 69.8006C81.7204 69.8006 83.0436 70.6661 86.0162 69.5875C88.9889 68.5089 90.2463 66.8752 90.2463 66.8752Z" fill="#40BDCE"/>
<path d="M92.7549 74.2941L89.5339 67.5899C89.5339 67.5899 88.0477 68.6324 87.03 69.0835C86.0124 69.5346 84.3221 69.9001 84.3221 69.9001L87.5432 76.6043L90.007 81.3626C90.007 81.3626 92.1713 82.1062 93.356 81.5473C94.4302 81.0406 95.2776 79.1899 95.2776 79.1899L92.7549 74.2941Z" fill="#FFDCC9"/>
<ellipse cx="60" cy="61" rx="29" ry="20" fill="#65E959"/>
<path d="M60 81C76.0163 81 89 73.0457 89 62H31C31 73.0457 43.9837 81 60 81Z" fill="#278C1E"/>
</svg>
