<svg width="94" height="86" viewBox="0 0 94 86" fill="none" xmlns="http://www.w3.org/2000/svg">
<path d="M47 42C38.4085 42 25 39 25 39V55.5C25 55.5 38.3289 58.5 47 58.5C55.671 58.5 69 55.5 69 55.5V39C69 39 55.5915 42 47 42Z" fill="#40BDCE"/>
<path d="M27 11C27 11 38.5196 5 47 5C55.4804 5 67 11 67 11L69 39C69 39 54.7185 42 47 42C39.2815 42 25 39 25 39L27 11Z" fill="white"/>
<path d="M47 58.5294C38.4085 58.5294 25 55 25 55L26 61.4706C26 61.4706 38.329 65 47 65C55.671 65 68 61.4706 68 61.4706L69 55C69 55 55.5915 58.5294 47 58.5294Z" fill="#284DD1"/>
<path d="M27 3V11L35 7.5V3C35 3 32.7465 1 31 1C29.2535 1 27 3 27 3Z" fill="white"/>
<path d="M67 3V11L59 7.5V3C59 3 61.2535 1 63 1C64.7465 1 67 3 67 3Z" fill="white"/>
<path d="M27 70L26 61L37 63V70C37 70 33.9648 71 32 71C30.0352 71 27 70 27 70Z" fill="#284DD1"/>
<path d="M29 78L28 70.5C28 70.5 30.3898 71 32 71C33.6101 71 36 70.5 36 70.5L35.5 78C35.5 78 34.4648 79 32.5 79C30.5352 79 29 78 29 78Z" fill="#FFDCC9"/>
<path d="M32 81C30.0352 81 28.5 80 28.5 80C28.5 80 28 79.4366 28 79C28 78.5633 28.5 78 28.5 78C28.5 78 30.3898 79 32 79C33.6101 79 36 78 36 78C36 78 36.5 78.5633 36.5 79C36.5 79.4366 36 80 36 80C36 80 33.9648 81 32 81Z" fill="white"/>
<path d="M32.5 85C30.5352 85 28.5 84 28.5 84C28.5 84 28 83.4366 28 83C28 82.5633 28.5 80 28.5 80C28.5 80 30.8898 81 32.5 81C34.1101 81 36 80 36 80C36 80 36.5 82.5633 36.5 83C36.5 83.4366 36 84 36 84C36 84 34.4648 85 32.5 85Z" fill="black"/>
<path d="M67 70L68 61L57 63V70C57 70 60.0352 71 62 71C63.9648 71 67 70 67 70Z" fill="#284DD1"/>
<path d="M65 78L66 70.5C66 70.5 63.6101 71 62 71C60.3898 71 58 70.5 58 70.5L58.5 78C58.5 78 59.5352 79 61.5 79C63.4648 79 65 78 65 78Z" fill="#FFDCC9"/>
<path d="M62 81C63.9648 81 65.5 80 65.5 80C65.5 80 66 79.4366 66 79C66 78.5633 65.5 78 65.5 78C65.5 78 63.6101 79 62 79C60.3898 79 58 78 58 78C58 78 57.5 78.5633 57.5 79C57.5 79.4366 58 80 58 80C58 80 60.0352 81 62 81Z" fill="white"/>
<path d="M61.5 85C63.4648 85 65.5 84 65.5 84C65.5 84 66 83.4366 66 83C66 82.5633 65.5 80 65.5 80C65.5 80 63.1101 81 61.5 81C59.8898 81 58 80 58 80C58 80 57.5 82.5633 57.5 83C57.5 83.4366 58 84 58 84C58 84 59.5352 85 61.5 85Z" fill="black"/>
<path d="M1.58652 14.4591L4.86946 10.8128L9.45738 13.0275L15.2289 47.552C15.2289 47.552 16.5286 49.1096 16.7496 50.3246C16.9706 51.5396 17.0055 52.4397 16.3026 53.4551C15.8056 54.1731 14.5139 54.7969 14.5139 54.7969L15.856 62.1758C15.856 62.1758 15.0772 62.8257 14.4697 62.9362C13.8622 63.0467 12.9045 62.7127 12.9045 62.7127L11.5623 55.3338C11.5623 55.3338 10.1336 55.2048 9.41562 54.7078C8.4002 54.0049 8.11589 53.1502 7.89489 51.9352C7.67389 50.7202 8.34189 48.8047 8.34189 48.8047L1.58652 14.4591Z" fill="white"/>
<circle cx="12.3223" cy="51.1299" r="2.5" transform="rotate(-10.3089 12.3223 51.1299)" fill="#284DD1"/>
<path d="M14.3255 55.6155L18.264 49.3059C18.264 49.3059 19.6265 50.5055 20.5885 51.0657C21.5504 51.6259 23.1903 52.175 23.1903 52.175L19.2518 58.4846L14.3483 61.1187C14.3483 61.1187 11.4015 61.2436 10.6289 59.9288C9.96529 58.7995 10.8921 56.585 10.8921 56.585L14.3255 55.6155Z" fill="#FFDCC9"/>
<path d="M17.2475 49.9406L22.9938 40.5654C22.9938 40.5654 27.0238 41.7696 27.9938 43.5654C28.9638 45.3612 27.0337 49.6518 27.0337 49.6518L25.7734 52.8661C25.7734 52.8661 24.4502 53.7315 21.4776 52.6529C18.5049 51.5743 17.2475 49.9406 17.2475 49.9406Z" fill="#40BDCE"/>
<path d="M77.2463 49.8752L71.5 40.5C71.5 40.5 67.47 41.7042 66.5 43.5C65.53 45.2958 67.4601 49.5864 67.4601 49.5864L68.7204 52.8006C68.7204 52.8006 70.0436 53.6661 73.0162 52.5875C75.9889 51.5089 77.2463 49.8752 77.2463 49.8752Z" fill="#40BDCE"/>
<path d="M79.7549 57.2941L76.5339 50.5899C76.5339 50.5899 75.0477 51.6324 74.03 52.0835C73.0124 52.5346 71.3221 52.9001 71.3221 52.9001L74.5431 59.6043L77.007 64.3626C77.007 64.3626 79.1713 65.1062 80.356 64.5473C81.4302 64.0406 82.2776 62.1899 82.2776 62.1899L79.7549 57.2941Z" fill="#FFDCC9"/>
<ellipse cx="47" cy="44" rx="29" ry="20" fill="#65E959"/>
<path d="M47 64C63.0163 64 76 56.0457 76 45H18C18 56.0457 30.9837 64 47 64Z" fill="#278C1E"/>
</svg>
